%TF.GenerationSoftware,KiCad,Pcbnew,10.0.5*%
%TF.CreationDate,2026-09-30T15:04:03+01:00*%
%TF.ProjectId,mcxn_test_board,6d63786e-5f74-4657-9374-5f626f617264,rev?*%
%TF.SameCoordinates,Original*%
%TF.FileFunction,Soldermask,Bot*%
%TF.FilePolarity,Negative*%
%FSLAX46Y46*%
G04 Gerber Fmt 4.6, Leading zero omitted, Abs format (unit mm)*
G04 Created by KiCad (PCBNEW 10.0.5) date 2026-09-30 15:04:03*
%MOMM*%
%LPD*%
G01*
G04 APERTURE LIST*
G04 Aperture macros list*
%AMRoundRect*
0 Rectangle with rounded corners*
0 $1 Rounding radius*
0 $2 $3 $4 $5 $6 $7 $8 $9 X,Y pos of 4 corners*
0 Add a 4 corners polygon primitive as box body*
4,1,4,$2,$3,$4,$5,$6,$7,$8,$9,$2,$3,0*
0 Add four circle primitives for the rounded corners*
1,1,$1+$1,$2,$3*
1,1,$1+$1,$4,$5*
1,1,$1+$1,$6,$7*
1,1,$1+$1,$8,$9*
0 Add four rect primitives between the rounded corners*
20,1,$1+$1,$2,$3,$4,$5,0*
20,1,$1+$1,$4,$5,$6,$7,0*
20,1,$1+$1,$6,$7,$8,$9,0*
20,1,$1+$1,$8,$9,$2,$3,0*%
G04 Aperture macros list end*
%ADD10C,0.100000*%
%ADD11C,1.300000*%
%ADD12C,1.000000*%
%ADD13RoundRect,0.250000X-1.000000X-1.250000X1.000000X-1.250000X1.000000X1.250000X-1.000000X1.250000X0*%
%ADD14R,1.700000X1.700000*%
%ADD15C,1.700000*%
%ADD16C,0.650000*%
%ADD17O,0.900000X2.400000*%
%ADD18O,0.900000X1.700000*%
%ADD19C,0.900000*%
G04 APERTURE END LIST*
D10*
X97250000Y-57250000D02*
X102750000Y-57250000D01*
X102750000Y-62750000D01*
X97250000Y-62750000D01*
X97250000Y-57250000D01*
G36*
X97250000Y-57250000D02*
G01*
X102750000Y-57250000D01*
X102750000Y-62750000D01*
X97250000Y-62750000D01*
X97250000Y-57250000D01*
G37*
D11*
%TO.C,TP9*%
X89078000Y-80955000D03*
%TD*%
%TO.C,TP11*%
X76378000Y-47300000D03*
%TD*%
%TO.C,TP10*%
X77267000Y-84384000D03*
%TD*%
%TO.C,TP8*%
X89459000Y-72065000D03*
%TD*%
D12*
%TO.C,J12*%
X95006000Y-32258000D03*
X102986000Y-32258000D03*
%TD*%
D13*
%TO.C,J14*%
X109525000Y-89210000D03*
X113335000Y-89210000D03*
%TD*%
D14*
%TO.C,J2*%
X131750000Y-43490000D03*
D15*
X129210000Y-43490000D03*
X131750000Y-40950000D03*
X129210000Y-40950000D03*
X131750000Y-38410000D03*
X129210000Y-38410000D03*
%TD*%
D16*
%TO.C,J1*%
X97025000Y-87725000D03*
X97875000Y-87725000D03*
X98725000Y-87725000D03*
X99575000Y-87725000D03*
X100425000Y-87725000D03*
X101275000Y-87725000D03*
X102125000Y-87725000D03*
X102975000Y-87725000D03*
X102975000Y-89075000D03*
X102125000Y-89075000D03*
X101275000Y-89075000D03*
X100425000Y-89075000D03*
X99575000Y-89075000D03*
X98725000Y-89075000D03*
X97875000Y-89075000D03*
X97025000Y-89075000D03*
D17*
X95675000Y-88705000D03*
D18*
X95675000Y-92085000D03*
D17*
X104325000Y-88705000D03*
D18*
X104325000Y-92085000D03*
%TD*%
D14*
%TO.C,J7*%
X68250000Y-51110000D03*
D15*
X70790000Y-51110000D03*
X68250000Y-53650000D03*
X70790000Y-53650000D03*
X68250000Y-56190000D03*
X70790000Y-56190000D03*
X68250000Y-58730000D03*
X70790000Y-58730000D03*
%TD*%
D14*
%TO.C,J8*%
X68250000Y-63810000D03*
D15*
X70790000Y-63810000D03*
X68250000Y-66350000D03*
X70790000Y-66350000D03*
X68250000Y-68890000D03*
X70790000Y-68890000D03*
X68250000Y-71430000D03*
X70790000Y-71430000D03*
%TD*%
D14*
%TO.C,J10*%
X78410000Y-91750000D03*
D15*
X78410000Y-89210000D03*
X80950000Y-91750000D03*
X80950000Y-89210000D03*
X83490000Y-91750000D03*
X83490000Y-89210000D03*
%TD*%
D14*
%TO.C,J3*%
X68250000Y-38410000D03*
D15*
X70790000Y-38410000D03*
X68250000Y-40950000D03*
X70790000Y-40950000D03*
X68250000Y-43490000D03*
X70790000Y-43490000D03*
%TD*%
D14*
%TO.C,J11*%
X116510000Y-28250000D03*
D15*
X116510000Y-30790000D03*
X113970000Y-28250000D03*
X113970000Y-30790000D03*
X111430000Y-28250000D03*
X111430000Y-30790000D03*
%TD*%
D14*
%TO.C,J9*%
X68250000Y-79050000D03*
D15*
X70790000Y-79050000D03*
X68250000Y-81590000D03*
X70790000Y-81590000D03*
X68250000Y-84130000D03*
X70790000Y-84130000D03*
X68250000Y-86670000D03*
X70790000Y-86670000D03*
X68250000Y-89210000D03*
X70790000Y-89210000D03*
X68250000Y-91750000D03*
X70790000Y-91750000D03*
%TD*%
D19*
%TO.C,U1*%
X99050000Y-59050000D03*
X99050000Y-60950000D03*
X100950000Y-59050000D03*
X100950000Y-60950000D03*
%TD*%
D14*
%TO.C,J4*%
X131750000Y-66350000D03*
D15*
X129210000Y-66350000D03*
X131750000Y-63810000D03*
X129210000Y-63810000D03*
X131750000Y-61270000D03*
X129210000Y-61270000D03*
X131750000Y-58730000D03*
X129210000Y-58730000D03*
X131750000Y-56190000D03*
X129210000Y-56190000D03*
X131750000Y-53650000D03*
X129210000Y-53650000D03*
%TD*%
D14*
%TO.C,J5*%
X83490000Y-28250000D03*
D15*
X83490000Y-30790000D03*
X80950000Y-28250000D03*
X80950000Y-30790000D03*
X78410000Y-28250000D03*
X78410000Y-30790000D03*
X75870000Y-28250000D03*
X75870000Y-30790000D03*
X73330000Y-28250000D03*
X73330000Y-30790000D03*
X70790000Y-28250000D03*
X70790000Y-30790000D03*
X68250000Y-28250000D03*
X68250000Y-30790000D03*
%TD*%
D14*
%TO.C,J13*%
X131750000Y-91750000D03*
D15*
X129210000Y-91750000D03*
X131750000Y-89210000D03*
X129210000Y-89210000D03*
X131750000Y-86670000D03*
X129210000Y-86670000D03*
X131750000Y-84130000D03*
X129210000Y-84130000D03*
X131750000Y-81590000D03*
X129210000Y-81590000D03*
X131750000Y-79050000D03*
X129210000Y-79050000D03*
X131750000Y-76510000D03*
X129210000Y-76510000D03*
X131750000Y-73970000D03*
X129210000Y-73970000D03*
%TD*%
D14*
%TO.C,J6*%
X131750000Y-28250000D03*
D15*
X131750000Y-30790000D03*
X129210000Y-28250000D03*
X129210000Y-30790000D03*
X126670000Y-28250000D03*
X126670000Y-30790000D03*
%TD*%
D12*
%TO.C,TP3*%
X107800000Y-68000000D03*
%TD*%
M02*
