M48
; DRILL file KiCad 10.0.5 date 2026-09-30T15:04:06
; FORMAT={-:-/ absolute / metric / decimal}
; #@! TF.CreationDate,2026-09-30T15:04:06+01:00
; #@! TF.GenerationSoftware,Kicad,Pcbnew,10.0.5
; #@! TF.FileFunction,Plated,1,4,PTH
FMAT,2
METRIC
; #@! TA.AperFunction,Plated,PTH,ViaDrill
T1C0.300
; #@! TA.AperFunction,Plated,PTH,ComponentDrill
T2C0.300
; #@! TA.AperFunction,Plated,PTH,ViaDrill
T3C0.400
; #@! TA.AperFunction,Plated,PTH,ComponentDrill
T4C0.400
; #@! TA.AperFunction,Plated,PTH,ViaDrill
T5C0.500
; #@! TA.AperFunction,Plated,PTH,ComponentDrill
T6C0.600
; #@! TA.AperFunction,Plated,PTH,ComponentDrill
T7C1.000
; #@! TA.AperFunction,Plated,PTH,ComponentDrill
T8C1.500
%
G90
G05
T1
X83.75Y-56.875
X88.0Y-57.25
X96.75Y-53.625
X97.75Y-54.0
X98.625Y-53.625
X102.75Y-55.5
X103.5Y-54.75
X104.25Y-55.5
X105.0Y-54.75
X111.625Y-52.0
X112.125Y-53.0
X112.625Y-55.875
X113.141Y-51.492
X113.25Y-57.0
X113.625Y-55.125
X114.25Y-56.25
T2
X99.05Y-59.05
X99.05Y-60.95
X100.95Y-59.05
X100.95Y-60.95
T3
X75.108Y-61.27
X75.721Y-63.279
X76.25Y-40.25
X76.25Y-41.75
X76.513Y-61.262
X77.0Y-41.0
X77.0Y-42.5
X77.0Y-63.302
X80.25Y-40.25
X80.25Y-41.75
X81.75Y-55.5
X82.0Y-41.0
X82.0Y-42.5
X82.0Y-50.25
X82.0Y-58.5
X83.331Y-60.25
X87.081Y-58.75
X87.081Y-60.25
X89.0Y-50.25
X89.0Y-73.75
X89.0Y-74.75
X89.0Y-75.75
X90.125Y-79.125
X90.25Y-29.25
X90.6Y-92.6
X90.75Y-79.75
X91.0Y-71.5
X91.0Y-72.5
X91.6Y-92.6
X92.6Y-70.335
X92.6Y-92.6
X94.285Y-60.635
X94.5Y-44.5
X95.5Y-53.75
X96.0Y-48.0
X96.1Y-74.0
X96.625Y-66.375
X97.1Y-70.8
X97.25Y-69.125
X97.5Y-66.125
X97.8Y-44.8
X98.339Y-71.5
X98.5Y-76.5
X98.596Y-66.378
X98.8Y-44.8
X99.5Y-66.0
X99.8Y-47.171
X101.5Y-55.5
X101.625Y-47.375
X101.625Y-65.25
X101.65Y-45.6
X101.75Y-44.5
X101.75Y-54.0
X101.8Y-76.0
X102.5Y-71.5
X102.5Y-84.25
X102.75Y-44.75
X103.0Y-65.75
X103.0Y-82.8
X103.4Y-75.8
X104.029Y-63.599
X104.125Y-48.25
X104.149Y-62.25
X104.2Y-75.2
X104.2Y-82.8
X104.5Y-66.5
X104.5Y-71.5
X105.0Y-64.625
X105.054Y-62.336
X105.375Y-57.75
X105.375Y-59.5
X105.5Y-60.625
X105.75Y-63.875
X106.0Y-65.346
X106.0Y-81.4
X106.25Y-57.25
X106.4Y-76.8
X106.75Y-30.25
X106.985Y-46.03
X107.25Y-51.529
X107.8Y-66.8
X109.4Y-67.2
X109.4Y-68.4
X110.0Y-57.5
X110.4Y-69.2
X110.4Y-70.2
X110.5Y-53.875
X111.5Y-55.0
X111.5Y-58.5
X111.5Y-60.75
X111.75Y-62.5
X113.0Y-36.0
X113.5Y-64.25
X115.25Y-64.25
X116.6Y-91.8
X117.0Y-71.0
X117.2Y-60.8
X117.2Y-61.8
X117.2Y-62.8
X117.2Y-65.0
X117.4Y-91.0
X117.4Y-92.6
X118.862Y-63.662
X119.0Y-62.6
X119.2Y-74.0
X119.5Y-58.0
X121.5Y-36.0
X121.59Y-28.885
X122.352Y-34.981
X122.875Y-64.125
X122.904Y-60.5
X123.5Y-51.4
X123.6Y-48.8
X124.5Y-65.75
X124.5Y-74.0
X132.25Y-47.5
X132.25Y-49.25
T4
X97.025Y-87.725
X97.025Y-89.075
X97.875Y-87.725
X97.875Y-89.075
X98.725Y-87.725
X98.725Y-89.075
X99.575Y-87.725
X99.575Y-89.075
X100.425Y-87.725
X100.425Y-89.075
X101.275Y-87.725
X101.275Y-89.075
X102.125Y-87.725
X102.125Y-89.075
X102.975Y-87.725
X102.975Y-89.075
T5
X94.0Y-81.75
X94.0Y-85.5
T6
X76.378Y-47.3
X77.267Y-84.384
X89.078Y-80.955
X89.459Y-72.065
T7
X68.25Y-28.25
X68.25Y-30.79
X68.25Y-38.41
X68.25Y-40.95
X68.25Y-43.49
X68.25Y-51.11
X68.25Y-53.65
X68.25Y-56.19
X68.25Y-58.73
X68.25Y-63.81
X68.25Y-66.35
X68.25Y-68.89
X68.25Y-71.43
X68.25Y-79.05
X68.25Y-81.59
X68.25Y-84.13
X68.25Y-86.67
X68.25Y-89.21
X68.25Y-91.75
X70.79Y-28.25
X70.79Y-30.79
X70.79Y-38.41
X70.79Y-40.95
X70.79Y-43.49
X70.79Y-51.11
X70.79Y-53.65
X70.79Y-56.19
X70.79Y-58.73
X70.79Y-63.81
X70.79Y-66.35
X70.79Y-68.89
X70.79Y-71.43
X70.79Y-79.05
X70.79Y-81.59
X70.79Y-84.13
X70.79Y-86.67
X70.79Y-89.21
X70.79Y-91.75
X73.33Y-28.25
X73.33Y-30.79
X75.87Y-28.25
X75.87Y-30.79
X78.41Y-28.25
X78.41Y-30.79
X78.41Y-89.21
X78.41Y-91.75
X80.95Y-28.25
X80.95Y-30.79
X80.95Y-89.21
X80.95Y-91.75
X83.49Y-28.25
X83.49Y-30.79
X83.49Y-89.21
X83.49Y-91.75
X111.43Y-28.25
X111.43Y-30.79
X113.97Y-28.25
X113.97Y-30.79
X116.51Y-28.25
X116.51Y-30.79
X126.67Y-28.25
X126.67Y-30.79
X129.21Y-28.25
X129.21Y-30.79
X129.21Y-38.41
X129.21Y-40.95
X129.21Y-43.49
X129.21Y-53.65
X129.21Y-56.19
X129.21Y-58.73
X129.21Y-61.27
X129.21Y-63.81
X129.21Y-66.35
X129.21Y-73.97
X129.21Y-76.51
X129.21Y-79.05
X129.21Y-81.59
X129.21Y-84.13
X129.21Y-86.67
X129.21Y-89.21
X129.21Y-91.75
X131.75Y-28.25
X131.75Y-30.79
X131.75Y-38.41
X131.75Y-40.95
X131.75Y-43.49
X131.75Y-53.65
X131.75Y-56.19
X131.75Y-58.73
X131.75Y-61.27
X131.75Y-63.81
X131.75Y-66.35
X131.75Y-73.97
X131.75Y-76.51
X131.75Y-79.05
X131.75Y-81.59
X131.75Y-84.13
X131.75Y-86.67
X131.75Y-89.21
X131.75Y-91.75
T8
X109.525Y-89.21
X113.335Y-89.21
T6
X95.675Y-87.955G85X95.675Y-89.455
G05
X95.675Y-91.685G85X95.675Y-92.485
G05
X104.325Y-87.955G85X104.325Y-89.455
G05
X104.325Y-91.685G85X104.325Y-92.485
G05
M30
