%TF.GenerationSoftware,KiCad,Pcbnew,10.0.5*%
%TF.CreationDate,2026-10-03T01:12:56+01:00*%
%TF.ProjectId,mcxn_mini_board,6d63786e-5f6d-4696-9e69-5f626f617264,rev?*%
%TF.SameCoordinates,Original*%
%TF.FileFunction,Soldermask,Top*%
%TF.FilePolarity,Negative*%
%FSLAX46Y46*%
G04 Gerber Fmt 4.6, Leading zero omitted, Abs format (unit mm)*
G04 Created by KiCad (PCBNEW 10.0.5) date 2026-10-03 01:12:56*
%MOMM*%
%LPD*%
G01*
G04 APERTURE LIST*
G04 Aperture macros list*
%AMRoundRect*
0 Rectangle with rounded corners*
0 $1 Rounding radius*
0 $2 $3 $4 $5 $6 $7 $8 $9 X,Y pos of 4 corners*
0 Add a 4 corners polygon primitive as box body*
4,1,4,$2,$3,$4,$5,$6,$7,$8,$9,$2,$3,0*
0 Add four circle primitives for the rounded corners*
1,1,$1+$1,$2,$3*
1,1,$1+$1,$4,$5*
1,1,$1+$1,$6,$7*
1,1,$1+$1,$8,$9*
0 Add four rect primitives between the rounded corners*
20,1,$1+$1,$2,$3,$4,$5,0*
20,1,$1+$1,$4,$5,$6,$7,0*
20,1,$1+$1,$6,$7,$8,$9,0*
20,1,$1+$1,$8,$9,$2,$3,0*%
%AMFreePoly0*
4,1,26,0.935355,0.485355,0.950000,0.450000,0.950000,-0.450000,0.935355,-0.485355,0.900000,-0.500000,0.000000,-0.500000,-0.010328,-0.495722,-0.065263,-0.495722,-0.191342,-0.461940,-0.304381,-0.396677,-0.396677,-0.304381,-0.461940,-0.191342,-0.495722,-0.065263,-0.495722,-0.010327,-0.500000,0.000000,-0.495722,0.010327,-0.495722,0.065263,-0.461940,0.191342,-0.396677,0.304381,-0.304381,0.396677,
-0.191342,0.461940,-0.065263,0.495722,-0.010328,0.495722,0.000000,0.500000,0.900000,0.500000,0.935355,0.485355,0.935355,0.485355,$1*%
G04 Aperture macros list end*
%ADD10C,0.000000*%
%ADD11RoundRect,0.114300X-0.292100X0.266700X-0.292100X-0.266700X0.292100X-0.266700X0.292100X0.266700X0*%
%ADD12R,1.500000X2.000000*%
%ADD13R,3.800000X2.000000*%
%ADD14RoundRect,0.292452X0.557548X-0.482548X0.557548X0.482548X-0.557548X0.482548X-0.557548X-0.482548X0*%
%ADD15C,0.650000*%
%ADD16O,0.900000X2.400000*%
%ADD17O,0.900000X1.700000*%
%ADD18FreePoly0,0.000000*%
%ADD19R,0.950000X0.600000*%
%ADD20RoundRect,0.117000X-0.273000X0.323000X-0.273000X-0.323000X0.273000X-0.323000X0.273000X0.323000X0*%
%ADD21RoundRect,0.114300X0.292100X-0.266700X0.292100X0.266700X-0.292100X0.266700X-0.292100X-0.266700X0*%
%ADD22R,2.400000X1.650000*%
%ADD23RoundRect,0.250000X-0.475000X0.250000X-0.475000X-0.250000X0.475000X-0.250000X0.475000X0.250000X0*%
%ADD24RoundRect,0.175000X0.175000X0.450000X-0.175000X0.450000X-0.175000X-0.450000X0.175000X-0.450000X0*%
%ADD25FreePoly0,180.000000*%
%ADD26RoundRect,0.250000X0.475000X-0.250000X0.475000X0.250000X-0.475000X0.250000X-0.475000X-0.250000X0*%
%ADD27O,1.600000X0.370000*%
%ADD28O,0.370000X1.600000*%
%ADD29C,0.900000*%
%ADD30RoundRect,0.350000X-2.700000X-2.700000X2.700000X-2.700000X2.700000X2.700000X-2.700000X2.700000X0*%
%ADD31R,1.300000X0.300000*%
%ADD32R,2.200000X1.800000*%
%ADD33RoundRect,0.150000X0.625000X-0.150000X0.625000X0.150000X-0.625000X0.150000X-0.625000X-0.150000X0*%
%ADD34RoundRect,0.250000X0.650000X-0.350000X0.650000X0.350000X-0.650000X0.350000X-0.650000X-0.350000X0*%
%ADD35RoundRect,0.175000X-0.450000X0.175000X-0.450000X-0.175000X0.450000X-0.175000X0.450000X0.175000X0*%
G04 APERTURE END LIST*
%TO.C,C27*%
G36*
X88448100Y-59195200D02*
G01*
X89820100Y-59195200D01*
X89820100Y-59804800D01*
X88448100Y-59804800D01*
X88448100Y-59195200D01*
G37*
%TO.C,R13*%
G36*
X91445200Y-88019900D02*
G01*
X92054800Y-88019900D01*
X92054800Y-89391900D01*
X91445200Y-89391900D01*
X91445200Y-88019900D01*
G37*
%TO.C,C26*%
G36*
X88539000Y-55335200D02*
G01*
X89911000Y-55335200D01*
X89911000Y-55944800D01*
X88539000Y-55944800D01*
X88539000Y-55335200D01*
G37*
%TO.C,C1*%
G36*
X89410200Y-61144900D02*
G01*
X90019800Y-61144900D01*
X90019800Y-62516900D01*
X89410200Y-62516900D01*
X89410200Y-61144900D01*
G37*
%TO.C,C9*%
G36*
X88410200Y-60814000D02*
G01*
X89019800Y-60814000D01*
X89019800Y-62186000D01*
X88410200Y-62186000D01*
X88410200Y-60814000D01*
G37*
%TO.C,R14*%
G36*
X109445200Y-52439000D02*
G01*
X110054800Y-52439000D01*
X110054800Y-53811000D01*
X109445200Y-53811000D01*
X109445200Y-52439000D01*
G37*
D10*
%TO.C,C3*%
G36*
X101266901Y-50804800D02*
G01*
X99894901Y-50804800D01*
X99894901Y-50195200D01*
X101266901Y-50195200D01*
X101266901Y-50804800D01*
G37*
%TO.C,C5*%
G36*
X108445200Y-56564000D02*
G01*
X109054800Y-56564000D01*
X109054800Y-57936000D01*
X108445200Y-57936000D01*
X108445200Y-56564000D01*
G37*
%TO.C,C11*%
G36*
X103410200Y-69333100D02*
G01*
X104019800Y-69333100D01*
X104019800Y-70705100D01*
X103410200Y-70705100D01*
X103410200Y-69333100D01*
G37*
%TO.C,C12*%
G36*
X101910200Y-69333100D02*
G01*
X102519800Y-69333100D01*
X102519800Y-70705100D01*
X101910200Y-70705100D01*
X101910200Y-69333100D01*
G37*
%TO.C,C8*%
G36*
X108733100Y-62945200D02*
G01*
X110105100Y-62945200D01*
X110105100Y-63554800D01*
X108733100Y-63554800D01*
X108733100Y-62945200D01*
G37*
%TO.C,C10*%
G36*
X95945200Y-69333100D02*
G01*
X96554800Y-69333100D01*
X96554800Y-70705100D01*
X95945200Y-70705100D01*
X95945200Y-69333100D01*
G37*
%TO.C,C7*%
G36*
X96910200Y-69333100D02*
G01*
X97519800Y-69333100D01*
X97519800Y-70705100D01*
X96910200Y-70705100D01*
X96910200Y-69333100D01*
G37*
%TO.C,C2*%
G36*
X93314000Y-50195200D02*
G01*
X94686000Y-50195200D01*
X94686000Y-50804800D01*
X93314000Y-50804800D01*
X93314000Y-50195200D01*
G37*
%TO.C,C6*%
G36*
X108445200Y-53064000D02*
G01*
X109054800Y-53064000D01*
X109054800Y-54436000D01*
X108445200Y-54436000D01*
X108445200Y-53064000D01*
G37*
%TO.C,R10*%
G36*
X93695200Y-90939000D02*
G01*
X94304800Y-90939000D01*
X94304800Y-92311000D01*
X93695200Y-92311000D01*
X93695200Y-90939000D01*
G37*
%TO.C,R12*%
G36*
X101266901Y-49804800D02*
G01*
X99894901Y-49804800D01*
X99894901Y-49195200D01*
X101266901Y-49195200D01*
X101266901Y-49804800D01*
G37*
%TO.C,R11*%
G36*
X103195200Y-84939000D02*
G01*
X103804800Y-84939000D01*
X103804800Y-86311000D01*
X103195200Y-86311000D01*
X103195200Y-84939000D01*
G37*
%TO.C,C4*%
G36*
X108445200Y-60064000D02*
G01*
X109054800Y-60064000D01*
X109054800Y-61436000D01*
X108445200Y-61436000D01*
X108445200Y-60064000D01*
G37*
%TD*%
D11*
%TO.C,C15*%
X98500000Y-69600000D03*
X98500000Y-70946202D03*
%TD*%
D12*
%TO.C,U2*%
X111300000Y-84850000D03*
X109000000Y-84850000D03*
D13*
X109000000Y-91150000D03*
D12*
X106700000Y-84850000D03*
%TD*%
D14*
%TO.C,SW5*%
X89250000Y-92375000D03*
X89250000Y-87625000D03*
%TD*%
D15*
%TO.C,J1*%
X97025000Y-87725000D03*
X97875000Y-87725000D03*
X98725000Y-87725000D03*
X99575000Y-87725000D03*
X100425000Y-87725000D03*
X101275000Y-87725000D03*
X102125000Y-87725000D03*
X102975000Y-87725000D03*
X102975000Y-89075000D03*
X102125000Y-89075000D03*
X101275000Y-89075000D03*
X100425000Y-89075000D03*
X99575000Y-89075000D03*
X98725000Y-89075000D03*
X97875000Y-89075000D03*
X97025000Y-89075000D03*
D16*
X95675000Y-88705000D03*
D17*
X95675000Y-92085000D03*
D16*
X104325000Y-88705000D03*
D17*
X104325000Y-92085000D03*
%TD*%
D18*
%TO.C,J4*%
X88000000Y-47190000D03*
X88000000Y-48460000D03*
X88000000Y-49730000D03*
X88000000Y-51000000D03*
X88000000Y-52270000D03*
X88000000Y-53540000D03*
%TD*%
D19*
%TO.C,U3*%
X101350000Y-85250000D03*
X101350000Y-84300000D03*
X101350000Y-83350000D03*
X98650000Y-83350000D03*
X98650000Y-84300000D03*
X98650000Y-85250000D03*
%TD*%
D11*
%TO.C,C13*%
X88697000Y-63771900D03*
X88697000Y-65118100D03*
%TD*%
D20*
%TO.C,Y1*%
X88475000Y-56860000D03*
X88475000Y-58140000D03*
X89455000Y-58140000D03*
X89455000Y-56860000D03*
%TD*%
D21*
%TO.C,C14*%
X110250000Y-56673100D03*
X110250000Y-55326900D03*
%TD*%
D22*
%TO.C,C21*%
X110750000Y-81875000D03*
X110750000Y-78425000D03*
%TD*%
D23*
%TO.C,C18*%
X109250000Y-65000000D03*
X109250000Y-66900000D03*
%TD*%
D11*
%TO.C,C23*%
X91750000Y-90576900D03*
X91750000Y-91923100D03*
%TD*%
D24*
%TO.C,FB1*%
X98699999Y-73250000D03*
X96800001Y-73250000D03*
%TD*%
D22*
%TO.C,C22*%
X107000000Y-81875000D03*
X107000000Y-78425000D03*
%TD*%
D25*
%TO.C,J3*%
X112000000Y-53540000D03*
X112000000Y-52270000D03*
X112000000Y-51000000D03*
X112000000Y-49730000D03*
X112000000Y-48460000D03*
X112000000Y-47190000D03*
%TD*%
D26*
%TO.C,C17*%
X110250000Y-60950000D03*
X110250000Y-59050000D03*
%TD*%
D14*
%TO.C,SW4*%
X89250000Y-72175000D03*
X89250000Y-67425000D03*
%TD*%
D27*
%TO.C,U1*%
X91465000Y-54000000D03*
X91465000Y-54500000D03*
X91465000Y-55000000D03*
X91465000Y-55500000D03*
X91465000Y-56000000D03*
X91465000Y-56500000D03*
X91465000Y-57000000D03*
X91465000Y-57500000D03*
X91465000Y-58000000D03*
X91465000Y-58500000D03*
X91465000Y-59000000D03*
X91465000Y-59500000D03*
X91465000Y-60000000D03*
X91465000Y-60500000D03*
X91465000Y-61000000D03*
X91465000Y-61500000D03*
X91465000Y-62000000D03*
X91465000Y-62500000D03*
X91465000Y-63000000D03*
X91465000Y-63500000D03*
X91465000Y-64000000D03*
X91465000Y-64500000D03*
X91465000Y-65000000D03*
X91465000Y-65500000D03*
X91465000Y-66000000D03*
D28*
X93215000Y-67750000D03*
X93715000Y-67750000D03*
X94215000Y-67750000D03*
X94715000Y-67750000D03*
X95215000Y-67750000D03*
X95715000Y-67750000D03*
X96215000Y-67750000D03*
X96715000Y-67750000D03*
X97215000Y-67750000D03*
X97715000Y-67750000D03*
X98215000Y-67750000D03*
X98715000Y-67750000D03*
X99215000Y-67750000D03*
X99715000Y-67750000D03*
X100215000Y-67750000D03*
X100715000Y-67750000D03*
X101215000Y-67750000D03*
X101715000Y-67750000D03*
X102215000Y-67750000D03*
X102715000Y-67750000D03*
X103215000Y-67750000D03*
X103715000Y-67750000D03*
X104215000Y-67750000D03*
X104715000Y-67750000D03*
X105215000Y-67750000D03*
D27*
X106965000Y-66000000D03*
X106965000Y-65500000D03*
X106965000Y-65000000D03*
X106965000Y-64500000D03*
X106965000Y-64000000D03*
X106965000Y-63500000D03*
X106965000Y-63000000D03*
X106965000Y-62500000D03*
X106965000Y-62000000D03*
X106965000Y-61500000D03*
X106965000Y-61000000D03*
X106965000Y-60500000D03*
X106965000Y-60000000D03*
X106965000Y-59500000D03*
X106965000Y-59000000D03*
X106965000Y-58500000D03*
X106965000Y-58000000D03*
X106965000Y-57500000D03*
X106965000Y-57000000D03*
X106965000Y-56500000D03*
X106965000Y-56000000D03*
X106965000Y-55500000D03*
X106965000Y-55000000D03*
X106965000Y-54500000D03*
X106965000Y-54000000D03*
D28*
X105215000Y-52250000D03*
X104715000Y-52250000D03*
X104215000Y-52250000D03*
X103715000Y-52250000D03*
X103215000Y-52250000D03*
X102715000Y-52250000D03*
X102215000Y-52250000D03*
X101715000Y-52250000D03*
X101215000Y-52250000D03*
X100715000Y-52250000D03*
X100215000Y-52250000D03*
X99715000Y-52250000D03*
X99215000Y-52250000D03*
X98715000Y-52250000D03*
X98215000Y-52250000D03*
X97715000Y-52250000D03*
X97215000Y-52250000D03*
X96715000Y-52250000D03*
X96215000Y-52250000D03*
X95715000Y-52250000D03*
X95215000Y-52250000D03*
X94715000Y-52250000D03*
X94215000Y-52250000D03*
X93715000Y-52250000D03*
X93215000Y-52250000D03*
D29*
X96992500Y-59047500D03*
X96992500Y-60952500D03*
X98262500Y-57777500D03*
X98262500Y-62222500D03*
X98265000Y-59050000D03*
X98265000Y-60950000D03*
D30*
X99215000Y-60000000D03*
D29*
X100165000Y-59050000D03*
X100165000Y-60950000D03*
X100167500Y-57777500D03*
X100167500Y-62222500D03*
X101437500Y-59047500D03*
X101437500Y-60952500D03*
%TD*%
D23*
%TO.C,C19*%
X105250000Y-69800000D03*
X105250000Y-71700000D03*
%TD*%
D31*
%TO.C,J5*%
X88900000Y-83250000D03*
X88900000Y-82750000D03*
X88900000Y-82250000D03*
X88900000Y-81750000D03*
X88900000Y-81250000D03*
X88900000Y-80750000D03*
X88900000Y-80250000D03*
X88900000Y-79750000D03*
X88900000Y-79250000D03*
X88900000Y-78750000D03*
X88900000Y-78250000D03*
X88900000Y-77750000D03*
X88900000Y-77250000D03*
X88900000Y-76750000D03*
X88900000Y-76250000D03*
X88900000Y-75750000D03*
D32*
X92150000Y-85150000D03*
X92150000Y-73850000D03*
%TD*%
D23*
%TO.C,C29*%
X94500000Y-69800000D03*
X94500000Y-71700000D03*
%TD*%
D33*
%TO.C,J2*%
X107625000Y-74875000D03*
X107625000Y-73875000D03*
X107625000Y-72875000D03*
X107625000Y-71875000D03*
D34*
X111500000Y-76175000D03*
X111500000Y-70575000D03*
%TD*%
D35*
%TO.C,FB2*%
X93750000Y-87300000D03*
X93750000Y-89200000D03*
%TD*%
M02*
