M48
; DRILL file KiCad 10.0.5 date 2026-10-03T01:13:00
; FORMAT={-:-/ absolute / metric / decimal}
; #@! TF.CreationDate,2026-10-03T01:13:00+01:00
; #@! TF.GenerationSoftware,Kicad,Pcbnew,10.0.5
; #@! TF.FileFunction,Plated,1,4,PTH
FMAT,2
METRIC
; #@! TA.AperFunction,Plated,PTH,ComponentDrill
T1C0.300
; #@! TA.AperFunction,Plated,PTH,ViaDrill
T2C0.400
; #@! TA.AperFunction,Plated,PTH,ComponentDrill
T3C0.400
; #@! TA.AperFunction,Plated,PTH,ComponentDrill
T4C0.600
%
G90
G05
T1
X96.992Y-59.047
X96.992Y-60.953
X98.262Y-57.777
X98.262Y-62.222
X98.265Y-59.05
X98.265Y-60.95
X100.165Y-59.05
X100.165Y-60.95
X100.167Y-57.777
X100.167Y-62.222
X101.438Y-59.047
X101.438Y-60.953
T2
X88.309Y-66.0
X88.316Y-74.732
X88.443Y-84.511
X88.475Y-58.14
X88.715Y-62.75
X89.25Y-66.125
X89.25Y-73.375
X89.25Y-86.125
X89.455Y-56.86
X89.5Y-47.125
X89.5Y-49.75
X89.5Y-52.25
X89.5Y-53.5
X89.715Y-63.081
X89.965Y-64.0
X89.967Y-64.905
X90.221Y-83.495
X90.729Y-78.415
X91.491Y-77.653
X91.75Y-87.375
X91.75Y-92.875
X92.253Y-78.415
X92.253Y-79.431
X92.38Y-80.447
X92.5Y-83.125
X92.75Y-50.5
X93.015Y-64.064
X93.142Y-58.095
X93.25Y-82.25
X93.5Y-60.635
X93.777Y-65.334
X93.875Y-66.25
X94.0Y-90.5
X94.031Y-64.064
X94.5Y-72.75
X94.875Y-65.875
X95.25Y-53.75
X95.75Y-50.5
X95.84Y-66.375
X96.25Y-71.25
X96.715Y-66.125
X97.25Y-71.25
X97.811Y-66.378
X97.875Y-73.25
X98.5Y-71.75
X98.715Y-66.0
X98.75Y-49.5
X98.875Y-74.375
X99.0Y-81.0
X99.25Y-50.5
X99.875Y-53.875
X100.84Y-65.25
X100.965Y-54.0
X102.215Y-65.75
X102.25Y-71.25
X102.5Y-84.25
X103.25Y-55.25
X103.375Y-60.875
X103.5Y-83.75
X103.715Y-66.5
X103.75Y-71.25
X104.125Y-60.0
X104.375Y-55.25
X104.75Y-59.125
X104.875Y-72.625
X105.0Y-78.0
X105.0Y-79.25
X105.125Y-81.5
X105.125Y-82.5
X105.125Y-83.625
X105.25Y-64.5
X105.5Y-55.0
X105.5Y-58.5
X105.5Y-62.0
X105.5Y-65.5
X105.75Y-72.625
X106.0Y-83.25
X106.25Y-79.75
X106.375Y-69.75
X106.375Y-90.75
X106.375Y-91.875
X106.875Y-70.5
X107.0Y-53.125
X107.0Y-83.25
X107.125Y-49.75
X107.125Y-89.5
X107.375Y-92.375
X107.5Y-79.75
X108.5Y-89.5
X108.529Y-49.75
X108.625Y-86.75
X108.75Y-52.5
X108.75Y-56.0
X108.75Y-59.5
X108.75Y-92.375
X108.875Y-78.0
X108.875Y-79.25
X109.2Y-74.8
X109.25Y-68.0
X109.25Y-73.7
X109.375Y-87.75
X109.875Y-89.5
X110.0Y-79.75
X110.0Y-92.375
X110.25Y-54.5
X110.25Y-58.0
X110.375Y-66.875
X110.5Y-47.125
X110.5Y-48.5
X110.5Y-51.0
X110.556Y-53.529
X110.75Y-62.75
X111.25Y-79.75
X111.3Y-72.9
X111.5Y-59.0
T3
X97.025Y-87.725
X97.025Y-89.075
X97.875Y-87.725
X97.875Y-89.075
X98.725Y-87.725
X98.725Y-89.075
X99.575Y-87.725
X99.575Y-89.075
X100.425Y-87.725
X100.425Y-89.075
X101.275Y-87.725
X101.275Y-89.075
X102.125Y-87.725
X102.125Y-89.075
X102.975Y-87.725
X102.975Y-89.075
T4
X95.675Y-87.955G85X95.675Y-89.455
G05
X95.675Y-91.685G85X95.675Y-92.485
G05
X104.325Y-87.955G85X104.325Y-89.455
G05
X104.325Y-91.685G85X104.325Y-92.485
G05
M30
