%TF.GenerationSoftware,KiCad,Pcbnew,10.0.5*%
%TF.CreationDate,2026-10-03T01:12:56+01:00*%
%TF.ProjectId,mcxn_mini_board,6d63786e-5f6d-4696-9e69-5f626f617264,rev?*%
%TF.SameCoordinates,Original*%
%TF.FileFunction,Copper,L3,Inr*%
%TF.FilePolarity,Positive*%
%FSLAX46Y46*%
G04 Gerber Fmt 4.6, Leading zero omitted, Abs format (unit mm)*
G04 Created by KiCad (PCBNEW 10.0.5) date 2026-10-03 01:12:56*
%MOMM*%
%LPD*%
G01*
G04 APERTURE LIST*
%TA.AperFunction,ComponentPad*%
%ADD10C,0.650000*%
%TD*%
%TA.AperFunction,ComponentPad*%
%ADD11O,0.900000X2.400000*%
%TD*%
%TA.AperFunction,ComponentPad*%
%ADD12O,0.900000X1.700000*%
%TD*%
%TA.AperFunction,ComponentPad*%
%ADD13C,0.900000*%
%TD*%
%TA.AperFunction,ViaPad*%
%ADD14C,0.704800*%
%TD*%
G04 APERTURE END LIST*
D10*
%TO.N,0V*%
%TO.C,J1*%
X97025000Y-87725000D03*
%TO.N,Net-(FB2-Pad2)*%
X97875000Y-87725000D03*
%TO.N,Net-(J1-CC1)*%
X98725000Y-87725000D03*
%TO.N,/USB_D+*%
X99575000Y-87725000D03*
%TO.N,/USB_D-*%
X100425000Y-87725000D03*
%TO.N,unconnected-(J1-SBU1-PadA8)*%
X101275000Y-87725000D03*
%TO.N,Net-(FB2-Pad2)*%
X102125000Y-87725000D03*
%TO.N,0V*%
X102975000Y-87725000D03*
X102975000Y-89075000D03*
%TO.N,Net-(FB2-Pad2)*%
X102125000Y-89075000D03*
%TO.N,Net-(J1-CC2)*%
X101275000Y-89075000D03*
%TO.N,/USB_D+*%
X100425000Y-89075000D03*
%TO.N,/USB_D-*%
X99575000Y-89075000D03*
%TO.N,unconnected-(J1-SBU2-PadB8)*%
X98725000Y-89075000D03*
%TO.N,Net-(FB2-Pad2)*%
X97875000Y-89075000D03*
%TO.N,0V*%
X97025000Y-89075000D03*
D11*
X95675000Y-88705000D03*
D12*
X95675000Y-92085000D03*
D11*
X104325000Y-88705000D03*
D12*
X104325000Y-92085000D03*
%TD*%
D13*
%TO.N,0V*%
%TO.C,U1*%
X96992500Y-59047500D03*
X96992500Y-60952500D03*
X98262500Y-57777500D03*
X98262500Y-62222500D03*
X98265000Y-59050000D03*
X98265000Y-60950000D03*
X100165000Y-59050000D03*
X100165000Y-60950000D03*
X100167500Y-57777500D03*
X100167500Y-62222500D03*
X101437500Y-59047500D03*
X101437500Y-60952500D03*
%TD*%
D14*
%TO.N,0V*%
X92380000Y-80447000D03*
X102500000Y-84250000D03*
X106250000Y-79750000D03*
X102250000Y-71250000D03*
X89715000Y-63080900D03*
X90221000Y-83495000D03*
X108750000Y-52500000D03*
X88715000Y-62750000D03*
X109250000Y-68000000D03*
X108750000Y-56000000D03*
X109875000Y-89500000D03*
X111250000Y-79750000D03*
X105500000Y-65500000D03*
X89250000Y-73375000D03*
X103750000Y-71250000D03*
X99250000Y-50500000D03*
X98500000Y-71750000D03*
X105750000Y-72625000D03*
X89455000Y-56860000D03*
X88443000Y-84511000D03*
X100840000Y-65250000D03*
X108500000Y-89500000D03*
X110500000Y-47125000D03*
X111300000Y-72900000D03*
X108750000Y-92375000D03*
X110750000Y-62750000D03*
X107125000Y-89500000D03*
X110250000Y-54500000D03*
X105000000Y-79250000D03*
X110000000Y-79750000D03*
X108750000Y-59500000D03*
X91750000Y-92875000D03*
X110375000Y-66875000D03*
X108875000Y-79250000D03*
X89500000Y-53500000D03*
X109375000Y-87750000D03*
X92750000Y-50500000D03*
X89500000Y-49750000D03*
X97250000Y-71250000D03*
X88475000Y-58140000D03*
X105000000Y-78000000D03*
X107500000Y-79750000D03*
X88309400Y-66000000D03*
X96715000Y-66125000D03*
X108625000Y-86750000D03*
X95840000Y-66375000D03*
X103500000Y-83750000D03*
X96250000Y-71250000D03*
X111500000Y-59000000D03*
X110000000Y-92375000D03*
X104875000Y-72625000D03*
X106375000Y-90750000D03*
X106375000Y-91875000D03*
X110500000Y-51000000D03*
X110250000Y-58000000D03*
X110500000Y-48500000D03*
X108875000Y-78000000D03*
X94500000Y-72750000D03*
X107375000Y-92375000D03*
%TO.N,+3.3V*%
X98875000Y-74375000D03*
X105500000Y-58500000D03*
X95750000Y-50500000D03*
X107000000Y-83250000D03*
X106875000Y-70500000D03*
X95250000Y-53750000D03*
X106375000Y-69750000D03*
X97811000Y-66378260D03*
X97875000Y-73250000D03*
X105250000Y-64500000D03*
X110556400Y-53529305D03*
X105125000Y-83625000D03*
X105125000Y-81500000D03*
X100965000Y-54000000D03*
X106000000Y-83250000D03*
X88316000Y-74732000D03*
X89965000Y-64000000D03*
X105500000Y-62000000D03*
X89500000Y-52250000D03*
X89500000Y-47125000D03*
X105125000Y-82500000D03*
X103715000Y-66500000D03*
X93500000Y-60635000D03*
X91750000Y-87375000D03*
X102215000Y-65750000D03*
X98750000Y-49500000D03*
X105500000Y-55000000D03*
%TO.N,/RSTB*%
X89250000Y-86125000D03*
X93142000Y-58095000D03*
%TO.N,VBUS*%
X98715000Y-66000000D03*
X99000000Y-81000000D03*
%TO.N,Net-(J1-CC1)*%
X94000000Y-90500000D03*
%TO.N,/CLK*%
X107125000Y-49750000D03*
X108529000Y-49750000D03*
%TO.N,Net-(D1-A)*%
X107000000Y-53125000D03*
%TO.N,Net-(U1USB/DEBUG-BOOTLOAD{slash}P0_6)*%
X99875000Y-53875000D03*
X89250000Y-66125000D03*
%TO.N,/P4_0*%
X89967191Y-64904800D03*
X90729000Y-78415000D03*
%TO.N,/P4_1*%
X93015000Y-64064000D03*
X91491000Y-77653000D03*
%TO.N,/P4_2*%
X94031000Y-64064000D03*
X92253000Y-78415000D03*
%TO.N,/P4_3*%
X92253000Y-79431000D03*
X93777000Y-65334000D03*
%TO.N,/P4_6*%
X93250000Y-82250000D03*
X93875000Y-66250000D03*
%TO.N,/P4_7*%
X94875000Y-65875000D03*
X92500000Y-83125000D03*
%TO.N,/ROW1*%
X103375000Y-60875000D03*
%TO.N,/ROW2*%
X104125000Y-60000000D03*
%TO.N,/ROW3*%
X104750000Y-59125000D03*
%TO.N,/SWD*%
X109200000Y-74800000D03*
X104375000Y-55250000D03*
%TO.N,/SWC*%
X109250000Y-73700000D03*
X103250000Y-55250000D03*
%TD*%
%TA.AperFunction,Conductor*%
%TO.N,+3.3V*%
G36*
X112005394Y-46000972D02*
G01*
X112012947Y-46001632D01*
X112151564Y-46013760D01*
X112164907Y-46015665D01*
X112194247Y-46021501D01*
X112202103Y-46023332D01*
X112326932Y-46056780D01*
X112342278Y-46061989D01*
X112359233Y-46069012D01*
X112364169Y-46071185D01*
X112489916Y-46129821D01*
X112508629Y-46140624D01*
X112633583Y-46228118D01*
X112650140Y-46242012D01*
X112757987Y-46349859D01*
X112771881Y-46366416D01*
X112859372Y-46491366D01*
X112870179Y-46510086D01*
X112928813Y-46635828D01*
X112930993Y-46640781D01*
X112938007Y-46657715D01*
X112943220Y-46673072D01*
X112976659Y-46797868D01*
X112978501Y-46805769D01*
X112984330Y-46835071D01*
X112986241Y-46848456D01*
X112999028Y-46994605D01*
X112999500Y-47005413D01*
X112999500Y-91995948D01*
X112999234Y-92004058D01*
X112984321Y-92231576D01*
X112983325Y-92241113D01*
X112975917Y-92292636D01*
X112974796Y-92299180D01*
X112935694Y-92495763D01*
X112933054Y-92506508D01*
X112920656Y-92548730D01*
X112919099Y-92553652D01*
X112851780Y-92751971D01*
X112847152Y-92763630D01*
X112836544Y-92786855D01*
X112834964Y-92790182D01*
X112735212Y-92992460D01*
X112727102Y-93006506D01*
X112590825Y-93210460D01*
X112580951Y-93223329D01*
X112419218Y-93407749D01*
X112407749Y-93419218D01*
X112223329Y-93580951D01*
X112210460Y-93590825D01*
X112006506Y-93727102D01*
X111992460Y-93735212D01*
X111790182Y-93834964D01*
X111786855Y-93836544D01*
X111763630Y-93847152D01*
X111751971Y-93851780D01*
X111553652Y-93919099D01*
X111548730Y-93920656D01*
X111506508Y-93933054D01*
X111495763Y-93935694D01*
X111299180Y-93974796D01*
X111292636Y-93975917D01*
X111241113Y-93983325D01*
X111231576Y-93984321D01*
X111004058Y-93999234D01*
X110995948Y-93999500D01*
X89004052Y-93999500D01*
X88995942Y-93999234D01*
X88768422Y-93984321D01*
X88758885Y-93983325D01*
X88707362Y-93975917D01*
X88700818Y-93974796D01*
X88504235Y-93935694D01*
X88493490Y-93933054D01*
X88451268Y-93920656D01*
X88446346Y-93919099D01*
X88306997Y-93871797D01*
X88248023Y-93851778D01*
X88236377Y-93847155D01*
X88227679Y-93843183D01*
X88213143Y-93836544D01*
X88209816Y-93834964D01*
X88007539Y-93735212D01*
X87993493Y-93727102D01*
X87789539Y-93590825D01*
X87776670Y-93580951D01*
X87592250Y-93419218D01*
X87580781Y-93407749D01*
X87467876Y-93279006D01*
X87419045Y-93223325D01*
X87409174Y-93210460D01*
X87272897Y-93006506D01*
X87264787Y-92992460D01*
X87189478Y-92839749D01*
X87165433Y-92790992D01*
X90897100Y-92790992D01*
X90897100Y-92959007D01*
X90929874Y-93123774D01*
X90929876Y-93123782D01*
X90994168Y-93278996D01*
X90994173Y-93279006D01*
X91087508Y-93418691D01*
X91087511Y-93418695D01*
X91206304Y-93537488D01*
X91206308Y-93537491D01*
X91345993Y-93630826D01*
X91345997Y-93630828D01*
X91346000Y-93630830D01*
X91501218Y-93695124D01*
X91661985Y-93727102D01*
X91665992Y-93727899D01*
X91665996Y-93727900D01*
X91665997Y-93727900D01*
X91834004Y-93727900D01*
X91834005Y-93727899D01*
X91998782Y-93695124D01*
X92154000Y-93630830D01*
X92293692Y-93537491D01*
X92412491Y-93418692D01*
X92505830Y-93279000D01*
X92570124Y-93123782D01*
X92602900Y-92959003D01*
X92602900Y-92790997D01*
X92570124Y-92626218D01*
X92505830Y-92471000D01*
X92505828Y-92470997D01*
X92505826Y-92470993D01*
X92412491Y-92331308D01*
X92412488Y-92331304D01*
X92293695Y-92212511D01*
X92293691Y-92212508D01*
X92154006Y-92119173D01*
X92153996Y-92119168D01*
X91998782Y-92054876D01*
X91998774Y-92054874D01*
X91834007Y-92022100D01*
X91834003Y-92022100D01*
X91665997Y-92022100D01*
X91665992Y-92022100D01*
X91501225Y-92054874D01*
X91501217Y-92054876D01*
X91346003Y-92119168D01*
X91345993Y-92119173D01*
X91206308Y-92212508D01*
X91206304Y-92212511D01*
X91087511Y-92331304D01*
X91087508Y-92331308D01*
X90994173Y-92470993D01*
X90994168Y-92471003D01*
X90929876Y-92626217D01*
X90929874Y-92626225D01*
X90897100Y-92790992D01*
X87165433Y-92790992D01*
X87165034Y-92790182D01*
X87163454Y-92786855D01*
X87152835Y-92763602D01*
X87148228Y-92751997D01*
X87080887Y-92553617D01*
X87079350Y-92548755D01*
X87066938Y-92506485D01*
X87064311Y-92495794D01*
X87025195Y-92299143D01*
X87024088Y-92292679D01*
X87016671Y-92241094D01*
X87015680Y-92231615D01*
X87000765Y-92004042D01*
X87000500Y-91995933D01*
X87000500Y-91591379D01*
X94724500Y-91591379D01*
X94724500Y-92578620D01*
X94761025Y-92762243D01*
X94761027Y-92762251D01*
X94832676Y-92935228D01*
X94832681Y-92935237D01*
X94936697Y-93090907D01*
X94936700Y-93090911D01*
X95069088Y-93223299D01*
X95069092Y-93223302D01*
X95224762Y-93327318D01*
X95224768Y-93327321D01*
X95224769Y-93327322D01*
X95397749Y-93398973D01*
X95581379Y-93435499D01*
X95581383Y-93435500D01*
X95581384Y-93435500D01*
X95768617Y-93435500D01*
X95768618Y-93435499D01*
X95952251Y-93398973D01*
X96125231Y-93327322D01*
X96280908Y-93223302D01*
X96413302Y-93090908D01*
X96517322Y-92935231D01*
X96588973Y-92762251D01*
X96625500Y-92578616D01*
X96625500Y-91591384D01*
X96625499Y-91591379D01*
X103374500Y-91591379D01*
X103374500Y-92578620D01*
X103411025Y-92762243D01*
X103411027Y-92762251D01*
X103482676Y-92935228D01*
X103482681Y-92935237D01*
X103586697Y-93090907D01*
X103586700Y-93090911D01*
X103719088Y-93223299D01*
X103719092Y-93223302D01*
X103874762Y-93327318D01*
X103874768Y-93327321D01*
X103874769Y-93327322D01*
X104047749Y-93398973D01*
X104231379Y-93435499D01*
X104231383Y-93435500D01*
X104231384Y-93435500D01*
X104418617Y-93435500D01*
X104418618Y-93435499D01*
X104602251Y-93398973D01*
X104775231Y-93327322D01*
X104930908Y-93223302D01*
X105063302Y-93090908D01*
X105167322Y-92935231D01*
X105238973Y-92762251D01*
X105275500Y-92578616D01*
X105275500Y-91591384D01*
X105238973Y-91407749D01*
X105167322Y-91234769D01*
X105167321Y-91234768D01*
X105167318Y-91234762D01*
X105063302Y-91079092D01*
X105063299Y-91079088D01*
X104930911Y-90946700D01*
X104930907Y-90946697D01*
X104775237Y-90842681D01*
X104775228Y-90842676D01*
X104602251Y-90771027D01*
X104602243Y-90771025D01*
X104418620Y-90734500D01*
X104418616Y-90734500D01*
X104231384Y-90734500D01*
X104231379Y-90734500D01*
X104047756Y-90771025D01*
X104047748Y-90771027D01*
X103874771Y-90842676D01*
X103874762Y-90842681D01*
X103719092Y-90946697D01*
X103719088Y-90946700D01*
X103586700Y-91079088D01*
X103586697Y-91079092D01*
X103482681Y-91234762D01*
X103482676Y-91234771D01*
X103411027Y-91407748D01*
X103411025Y-91407756D01*
X103374500Y-91591379D01*
X96625499Y-91591379D01*
X96588973Y-91407749D01*
X96517322Y-91234769D01*
X96517321Y-91234768D01*
X96517318Y-91234762D01*
X96413302Y-91079092D01*
X96413299Y-91079088D01*
X96280911Y-90946700D01*
X96280907Y-90946697D01*
X96125237Y-90842681D01*
X96125228Y-90842676D01*
X95952251Y-90771027D01*
X95952243Y-90771025D01*
X95768620Y-90734500D01*
X95768616Y-90734500D01*
X95581384Y-90734500D01*
X95581379Y-90734500D01*
X95397756Y-90771025D01*
X95397748Y-90771027D01*
X95224771Y-90842676D01*
X95224762Y-90842681D01*
X95069092Y-90946697D01*
X95069088Y-90946700D01*
X94937858Y-91077930D01*
X94937853Y-91077936D01*
X94936698Y-91079092D01*
X94863180Y-91189118D01*
X94862954Y-91189456D01*
X94862953Y-91189455D01*
X94832683Y-91234759D01*
X94832676Y-91234771D01*
X94761027Y-91407748D01*
X94761025Y-91407756D01*
X94724500Y-91591379D01*
X87000500Y-91591379D01*
X87000500Y-90415992D01*
X93147100Y-90415992D01*
X93147100Y-90584007D01*
X93179874Y-90748774D01*
X93179876Y-90748782D01*
X93244168Y-90903996D01*
X93244173Y-90904006D01*
X93337508Y-91043691D01*
X93337511Y-91043695D01*
X93456304Y-91162488D01*
X93456308Y-91162491D01*
X93595993Y-91255826D01*
X93595997Y-91255828D01*
X93596000Y-91255830D01*
X93751218Y-91320124D01*
X93915992Y-91352899D01*
X93915996Y-91352900D01*
X93915997Y-91352900D01*
X94084004Y-91352900D01*
X94084005Y-91352899D01*
X94248782Y-91320124D01*
X94404000Y-91255830D01*
X94543692Y-91162491D01*
X94662491Y-91043692D01*
X94755830Y-90904000D01*
X94820124Y-90748782D01*
X94836592Y-90665992D01*
X105522100Y-90665992D01*
X105522100Y-90834007D01*
X105554874Y-90998774D01*
X105554876Y-90998782D01*
X105619168Y-91153996D01*
X105619173Y-91154006D01*
X105679044Y-91243609D01*
X105699922Y-91310287D01*
X105681437Y-91377667D01*
X105679044Y-91381391D01*
X105619173Y-91470993D01*
X105619168Y-91471003D01*
X105554876Y-91626217D01*
X105554874Y-91626225D01*
X105523500Y-91783955D01*
X105523500Y-91783958D01*
X105522100Y-91790997D01*
X105522100Y-91959003D01*
X105523500Y-91966041D01*
X105523500Y-91966043D01*
X105554874Y-92123774D01*
X105554876Y-92123782D01*
X105619168Y-92278996D01*
X105619173Y-92279006D01*
X105712508Y-92418691D01*
X105712511Y-92418695D01*
X105831304Y-92537488D01*
X105831308Y-92537491D01*
X105970993Y-92630826D01*
X105970997Y-92630828D01*
X105971000Y-92630830D01*
X106126218Y-92695124D01*
X106290992Y-92727899D01*
X106290996Y-92727900D01*
X106290997Y-92727900D01*
X106459002Y-92727900D01*
X106459003Y-92727900D01*
X106488979Y-92721937D01*
X106558568Y-92728163D01*
X106613746Y-92771025D01*
X106616272Y-92774663D01*
X106712508Y-92918692D01*
X106831304Y-93037488D01*
X106831308Y-93037491D01*
X106970993Y-93130826D01*
X106970997Y-93130828D01*
X106971000Y-93130830D01*
X107126218Y-93195124D01*
X107267866Y-93223299D01*
X107290992Y-93227899D01*
X107290996Y-93227900D01*
X107290997Y-93227900D01*
X107459004Y-93227900D01*
X107459005Y-93227899D01*
X107623782Y-93195124D01*
X107779000Y-93130830D01*
X107918692Y-93037491D01*
X107936385Y-93019798D01*
X107974819Y-92981365D01*
X108036142Y-92947880D01*
X108105834Y-92952864D01*
X108150181Y-92981365D01*
X108206304Y-93037488D01*
X108206308Y-93037491D01*
X108345993Y-93130826D01*
X108345997Y-93130828D01*
X108346000Y-93130830D01*
X108501218Y-93195124D01*
X108642866Y-93223299D01*
X108665992Y-93227899D01*
X108665996Y-93227900D01*
X108665997Y-93227900D01*
X108834004Y-93227900D01*
X108834005Y-93227899D01*
X108998782Y-93195124D01*
X109154000Y-93130830D01*
X109293692Y-93037491D01*
X109293699Y-93037483D01*
X109296332Y-93035324D01*
X109297988Y-93034620D01*
X109298757Y-93034107D01*
X109298854Y-93034252D01*
X109360641Y-93008009D01*
X109429509Y-93019798D01*
X109453668Y-93035324D01*
X109456305Y-93037488D01*
X109456308Y-93037491D01*
X109456311Y-93037493D01*
X109595993Y-93130826D01*
X109595997Y-93130828D01*
X109596000Y-93130830D01*
X109751218Y-93195124D01*
X109892866Y-93223299D01*
X109915992Y-93227899D01*
X109915996Y-93227900D01*
X109915997Y-93227900D01*
X110084004Y-93227900D01*
X110084005Y-93227899D01*
X110248782Y-93195124D01*
X110404000Y-93130830D01*
X110543692Y-93037491D01*
X110662491Y-92918692D01*
X110755830Y-92779000D01*
X110820124Y-92623782D01*
X110852900Y-92459003D01*
X110852900Y-92290997D01*
X110820124Y-92126218D01*
X110755830Y-91971000D01*
X110755828Y-91970997D01*
X110755826Y-91970993D01*
X110662491Y-91831308D01*
X110662488Y-91831304D01*
X110543695Y-91712511D01*
X110543691Y-91712508D01*
X110404006Y-91619173D01*
X110403996Y-91619168D01*
X110248782Y-91554876D01*
X110248774Y-91554874D01*
X110084007Y-91522100D01*
X110084003Y-91522100D01*
X109915997Y-91522100D01*
X109915992Y-91522100D01*
X109751225Y-91554874D01*
X109751217Y-91554876D01*
X109596003Y-91619168D01*
X109595993Y-91619173D01*
X109456304Y-91712511D01*
X109453660Y-91714681D01*
X109452005Y-91715383D01*
X109451243Y-91715893D01*
X109451146Y-91715748D01*
X109389348Y-91741991D01*
X109320482Y-91730196D01*
X109296340Y-91714681D01*
X109293695Y-91712511D01*
X109154006Y-91619173D01*
X109153996Y-91619168D01*
X108998782Y-91554876D01*
X108998774Y-91554874D01*
X108834007Y-91522100D01*
X108834003Y-91522100D01*
X108665997Y-91522100D01*
X108665992Y-91522100D01*
X108501225Y-91554874D01*
X108501217Y-91554876D01*
X108346003Y-91619168D01*
X108345993Y-91619173D01*
X108206308Y-91712508D01*
X108206304Y-91712511D01*
X108150181Y-91768635D01*
X108088858Y-91802120D01*
X108019166Y-91797136D01*
X107974819Y-91768635D01*
X107918695Y-91712511D01*
X107918691Y-91712508D01*
X107779006Y-91619173D01*
X107778996Y-91619168D01*
X107623782Y-91554876D01*
X107623774Y-91554874D01*
X107459007Y-91522100D01*
X107459003Y-91522100D01*
X107290997Y-91522100D01*
X107290993Y-91522100D01*
X107261016Y-91528062D01*
X107191425Y-91521832D01*
X107136249Y-91478967D01*
X107133727Y-91475335D01*
X107070955Y-91381391D01*
X107050077Y-91314714D01*
X107068561Y-91247334D01*
X107070955Y-91243609D01*
X107130830Y-91154000D01*
X107195124Y-90998782D01*
X107227900Y-90834003D01*
X107227900Y-90665997D01*
X107195124Y-90501218D01*
X107195119Y-90501207D01*
X107193356Y-90495391D01*
X107195978Y-90494595D01*
X107189777Y-90436849D01*
X107221060Y-90374373D01*
X107281153Y-90338729D01*
X107287593Y-90337267D01*
X107373782Y-90320124D01*
X107529000Y-90255830D01*
X107668692Y-90162491D01*
X107694075Y-90137108D01*
X107724819Y-90106365D01*
X107786142Y-90072880D01*
X107855834Y-90077864D01*
X107900181Y-90106365D01*
X107956304Y-90162488D01*
X107956308Y-90162491D01*
X108095993Y-90255826D01*
X108095997Y-90255828D01*
X108096000Y-90255830D01*
X108251218Y-90320124D01*
X108381273Y-90345993D01*
X108415992Y-90352899D01*
X108415996Y-90352900D01*
X108415997Y-90352900D01*
X108584004Y-90352900D01*
X108584005Y-90352899D01*
X108748782Y-90320124D01*
X108904000Y-90255830D01*
X109043692Y-90162491D01*
X109069075Y-90137108D01*
X109099819Y-90106365D01*
X109161142Y-90072880D01*
X109230834Y-90077864D01*
X109275181Y-90106365D01*
X109331304Y-90162488D01*
X109331308Y-90162491D01*
X109470993Y-90255826D01*
X109470997Y-90255828D01*
X109471000Y-90255830D01*
X109626218Y-90320124D01*
X109756273Y-90345993D01*
X109790992Y-90352899D01*
X109790996Y-90352900D01*
X109790997Y-90352900D01*
X109959004Y-90352900D01*
X109959005Y-90352899D01*
X110123782Y-90320124D01*
X110279000Y-90255830D01*
X110418692Y-90162491D01*
X110537491Y-90043692D01*
X110630830Y-89904000D01*
X110695124Y-89748782D01*
X110727900Y-89584003D01*
X110727900Y-89415997D01*
X110695124Y-89251218D01*
X110630830Y-89096000D01*
X110630828Y-89095997D01*
X110630826Y-89095993D01*
X110537491Y-88956308D01*
X110537488Y-88956304D01*
X110418695Y-88837511D01*
X110418691Y-88837508D01*
X110279006Y-88744173D01*
X110278996Y-88744168D01*
X110123782Y-88679876D01*
X110123774Y-88679874D01*
X109953028Y-88645911D01*
X109953462Y-88643727D01*
X109897928Y-88621281D01*
X109857588Y-88564233D01*
X109854495Y-88494432D01*
X109889630Y-88434039D01*
X109906008Y-88420966D01*
X109918692Y-88412491D01*
X110037491Y-88293692D01*
X110130830Y-88154000D01*
X110195124Y-87998782D01*
X110227900Y-87834003D01*
X110227900Y-87665997D01*
X110195124Y-87501218D01*
X110130830Y-87346000D01*
X110130828Y-87345997D01*
X110130826Y-87345993D01*
X110037491Y-87206308D01*
X110037488Y-87206304D01*
X109918695Y-87087511D01*
X109918691Y-87087508D01*
X109779006Y-86994173D01*
X109778996Y-86994168D01*
X109623782Y-86929876D01*
X109623774Y-86929874D01*
X109577709Y-86920711D01*
X109515798Y-86888326D01*
X109481224Y-86827611D01*
X109477900Y-86799094D01*
X109477900Y-86665996D01*
X109477899Y-86665992D01*
X109445125Y-86501225D01*
X109445124Y-86501218D01*
X109380830Y-86346000D01*
X109380828Y-86345997D01*
X109380826Y-86345993D01*
X109287491Y-86206308D01*
X109287488Y-86206304D01*
X109168695Y-86087511D01*
X109168691Y-86087508D01*
X109029006Y-85994173D01*
X109028996Y-85994168D01*
X108873782Y-85929876D01*
X108873774Y-85929874D01*
X108709007Y-85897100D01*
X108709003Y-85897100D01*
X108540997Y-85897100D01*
X108540992Y-85897100D01*
X108376225Y-85929874D01*
X108376217Y-85929876D01*
X108221003Y-85994168D01*
X108220993Y-85994173D01*
X108081308Y-86087508D01*
X108081304Y-86087511D01*
X107962511Y-86206304D01*
X107962508Y-86206308D01*
X107869173Y-86345993D01*
X107869168Y-86346003D01*
X107804876Y-86501217D01*
X107804874Y-86501225D01*
X107772100Y-86665992D01*
X107772100Y-86834007D01*
X107804874Y-86998774D01*
X107804876Y-86998782D01*
X107869168Y-87153996D01*
X107869173Y-87154006D01*
X107962508Y-87293691D01*
X107962511Y-87293695D01*
X108081304Y-87412488D01*
X108081308Y-87412491D01*
X108220993Y-87505826D01*
X108220997Y-87505828D01*
X108221000Y-87505830D01*
X108376218Y-87570124D01*
X108422291Y-87579288D01*
X108484201Y-87611671D01*
X108518776Y-87672387D01*
X108522100Y-87700905D01*
X108522100Y-87834007D01*
X108554874Y-87998774D01*
X108554876Y-87998782D01*
X108619168Y-88153996D01*
X108619173Y-88154006D01*
X108712508Y-88293691D01*
X108712511Y-88293695D01*
X108831304Y-88412488D01*
X108831308Y-88412491D01*
X108971933Y-88506454D01*
X108984652Y-88521673D01*
X109009010Y-88522108D01*
X109019404Y-88525880D01*
X109126218Y-88570124D01*
X109199681Y-88584736D01*
X109296972Y-88604089D01*
X109296535Y-88606281D01*
X109352034Y-88628688D01*
X109392395Y-88685721D01*
X109395515Y-88755521D01*
X109360404Y-88815927D01*
X109343988Y-88829036D01*
X109331308Y-88837508D01*
X109331304Y-88837511D01*
X109275181Y-88893635D01*
X109213858Y-88927120D01*
X109144166Y-88922136D01*
X109099819Y-88893635D01*
X109043695Y-88837511D01*
X109043691Y-88837508D01*
X108903066Y-88743545D01*
X108890346Y-88728325D01*
X108865989Y-88727891D01*
X108855589Y-88724117D01*
X108748782Y-88679876D01*
X108748774Y-88679874D01*
X108584007Y-88647100D01*
X108584003Y-88647100D01*
X108415997Y-88647100D01*
X108415992Y-88647100D01*
X108251225Y-88679874D01*
X108251217Y-88679876D01*
X108096003Y-88744168D01*
X108095993Y-88744173D01*
X107956308Y-88837508D01*
X107956304Y-88837511D01*
X107900181Y-88893635D01*
X107838858Y-88927120D01*
X107769166Y-88922136D01*
X107724819Y-88893635D01*
X107668695Y-88837511D01*
X107668691Y-88837508D01*
X107529006Y-88744173D01*
X107528996Y-88744168D01*
X107373782Y-88679876D01*
X107373774Y-88679874D01*
X107209007Y-88647100D01*
X107209003Y-88647100D01*
X107040997Y-88647100D01*
X107040992Y-88647100D01*
X106876225Y-88679874D01*
X106876217Y-88679876D01*
X106721003Y-88744168D01*
X106720993Y-88744173D01*
X106581308Y-88837508D01*
X106581304Y-88837511D01*
X106462511Y-88956304D01*
X106462508Y-88956308D01*
X106369173Y-89095993D01*
X106369168Y-89096003D01*
X106304876Y-89251217D01*
X106304874Y-89251225D01*
X106272100Y-89415992D01*
X106272100Y-89584007D01*
X106304874Y-89748774D01*
X106306644Y-89754609D01*
X106304043Y-89755397D01*
X106310200Y-89813270D01*
X106278856Y-89875714D01*
X106218728Y-89911300D01*
X106212387Y-89912735D01*
X106126223Y-89929874D01*
X106126217Y-89929876D01*
X105971003Y-89994168D01*
X105970993Y-89994173D01*
X105831308Y-90087508D01*
X105831304Y-90087511D01*
X105712511Y-90206304D01*
X105712508Y-90206308D01*
X105619173Y-90345993D01*
X105619168Y-90346003D01*
X105554876Y-90501217D01*
X105554874Y-90501225D01*
X105522100Y-90665992D01*
X94836592Y-90665992D01*
X94852900Y-90584003D01*
X94852900Y-90415997D01*
X94843546Y-90368972D01*
X94823672Y-90269053D01*
X94829899Y-90199461D01*
X94872763Y-90144284D01*
X94938652Y-90121040D01*
X95006649Y-90137108D01*
X95032970Y-90157181D01*
X95069088Y-90193299D01*
X95069092Y-90193302D01*
X95224762Y-90297318D01*
X95224768Y-90297321D01*
X95224769Y-90297322D01*
X95397749Y-90368973D01*
X95581379Y-90405499D01*
X95581383Y-90405500D01*
X95581384Y-90405500D01*
X95768617Y-90405500D01*
X95768618Y-90405499D01*
X95952251Y-90368973D01*
X96125231Y-90297322D01*
X96280908Y-90193302D01*
X96413302Y-90060908D01*
X96417175Y-90055110D01*
X96470785Y-90010306D01*
X96520278Y-90000000D01*
X103479722Y-90000000D01*
X103546761Y-90019685D01*
X103582823Y-90055109D01*
X103586675Y-90060875D01*
X103586700Y-90060911D01*
X103719088Y-90193299D01*
X103719092Y-90193302D01*
X103874762Y-90297318D01*
X103874768Y-90297321D01*
X103874769Y-90297322D01*
X104047749Y-90368973D01*
X104231379Y-90405499D01*
X104231383Y-90405500D01*
X104231384Y-90405500D01*
X104418617Y-90405500D01*
X104418618Y-90405499D01*
X104602251Y-90368973D01*
X104775231Y-90297322D01*
X104930908Y-90193302D01*
X105063302Y-90060908D01*
X105167322Y-89905231D01*
X105238973Y-89732251D01*
X105275500Y-89548616D01*
X105275500Y-87861384D01*
X105238973Y-87677749D01*
X105167762Y-87505831D01*
X105167323Y-87504771D01*
X105167318Y-87504762D01*
X105063302Y-87349092D01*
X105063299Y-87349088D01*
X104930911Y-87216700D01*
X104930907Y-87216697D01*
X104775237Y-87112681D01*
X104775228Y-87112676D01*
X104602251Y-87041027D01*
X104602243Y-87041025D01*
X104418620Y-87004500D01*
X104418616Y-87004500D01*
X104231384Y-87004500D01*
X104231379Y-87004500D01*
X104047756Y-87041025D01*
X104047744Y-87041028D01*
X103921452Y-87093340D01*
X103851983Y-87100809D01*
X103789504Y-87069534D01*
X103753852Y-87009444D01*
X103750000Y-86978779D01*
X103750000Y-86750000D01*
X94875000Y-86750000D01*
X94875000Y-87403814D01*
X94855315Y-87470853D01*
X94854103Y-87472704D01*
X94832677Y-87504770D01*
X94761027Y-87677748D01*
X94761025Y-87677756D01*
X94724500Y-87861379D01*
X94724500Y-89548620D01*
X94761379Y-89734025D01*
X94755152Y-89803617D01*
X94712288Y-89858794D01*
X94646399Y-89882038D01*
X94578402Y-89865970D01*
X94552081Y-89845897D01*
X94543695Y-89837511D01*
X94543691Y-89837508D01*
X94404006Y-89744173D01*
X94403996Y-89744168D01*
X94248782Y-89679876D01*
X94248774Y-89679874D01*
X94084007Y-89647100D01*
X94084003Y-89647100D01*
X93915997Y-89647100D01*
X93915992Y-89647100D01*
X93751225Y-89679874D01*
X93751217Y-89679876D01*
X93596003Y-89744168D01*
X93595993Y-89744173D01*
X93456308Y-89837508D01*
X93456304Y-89837511D01*
X93337511Y-89956304D01*
X93337508Y-89956308D01*
X93244173Y-90095993D01*
X93244168Y-90096003D01*
X93179876Y-90251217D01*
X93179874Y-90251225D01*
X93147100Y-90415992D01*
X87000500Y-90415992D01*
X87000500Y-84426992D01*
X87590100Y-84426992D01*
X87590100Y-84595007D01*
X87622874Y-84759774D01*
X87622876Y-84759782D01*
X87687168Y-84914996D01*
X87687173Y-84915006D01*
X87780508Y-85054691D01*
X87780511Y-85054695D01*
X87899304Y-85173488D01*
X87899308Y-85173491D01*
X88038993Y-85266826D01*
X88038997Y-85266828D01*
X88039000Y-85266830D01*
X88194218Y-85331124D01*
X88358992Y-85363899D01*
X88358996Y-85363900D01*
X88505554Y-85363900D01*
X88572593Y-85383585D01*
X88618348Y-85436389D01*
X88628292Y-85505547D01*
X88599267Y-85569103D01*
X88593235Y-85575581D01*
X88587511Y-85581304D01*
X88587508Y-85581308D01*
X88494173Y-85720993D01*
X88494168Y-85721003D01*
X88429876Y-85876217D01*
X88429874Y-85876225D01*
X88397100Y-86040992D01*
X88397100Y-86209007D01*
X88429874Y-86373774D01*
X88429876Y-86373782D01*
X88494168Y-86528996D01*
X88494173Y-86529006D01*
X88587508Y-86668691D01*
X88587511Y-86668695D01*
X88706304Y-86787488D01*
X88706308Y-86787491D01*
X88845993Y-86880826D01*
X88845997Y-86880828D01*
X88846000Y-86880830D01*
X89001218Y-86945124D01*
X89165992Y-86977899D01*
X89165996Y-86977900D01*
X89165997Y-86977900D01*
X89334004Y-86977900D01*
X89334005Y-86977899D01*
X89498782Y-86945124D01*
X89654000Y-86880830D01*
X89793692Y-86787491D01*
X89912491Y-86668692D01*
X90005830Y-86529000D01*
X90070124Y-86373782D01*
X90102900Y-86209003D01*
X90102900Y-86040997D01*
X90070124Y-85876218D01*
X90005830Y-85721000D01*
X90005828Y-85720997D01*
X90005826Y-85720993D01*
X89912491Y-85581308D01*
X89912488Y-85581304D01*
X89793695Y-85462511D01*
X89793691Y-85462508D01*
X89654006Y-85369173D01*
X89653996Y-85369168D01*
X89498782Y-85304876D01*
X89498774Y-85304874D01*
X89334007Y-85272100D01*
X89334003Y-85272100D01*
X89187446Y-85272100D01*
X89120407Y-85252415D01*
X89074652Y-85199611D01*
X89064708Y-85130453D01*
X89093733Y-85066897D01*
X89099765Y-85060419D01*
X89105488Y-85054695D01*
X89105491Y-85054692D01*
X89198830Y-84915000D01*
X89263124Y-84759782D01*
X89295900Y-84595003D01*
X89295900Y-84426997D01*
X89263124Y-84262218D01*
X89198830Y-84107000D01*
X89198828Y-84106997D01*
X89198826Y-84106993D01*
X89105491Y-83967308D01*
X89105488Y-83967304D01*
X88986695Y-83848511D01*
X88986691Y-83848508D01*
X88847006Y-83755173D01*
X88846996Y-83755168D01*
X88691782Y-83690876D01*
X88691774Y-83690874D01*
X88527007Y-83658100D01*
X88527003Y-83658100D01*
X88358997Y-83658100D01*
X88358992Y-83658100D01*
X88194225Y-83690874D01*
X88194217Y-83690876D01*
X88039003Y-83755168D01*
X88038993Y-83755173D01*
X87899308Y-83848508D01*
X87899304Y-83848511D01*
X87780511Y-83967304D01*
X87780508Y-83967308D01*
X87687173Y-84106993D01*
X87687168Y-84107003D01*
X87622876Y-84262217D01*
X87622874Y-84262225D01*
X87590100Y-84426992D01*
X87000500Y-84426992D01*
X87000500Y-83410992D01*
X89368100Y-83410992D01*
X89368100Y-83579007D01*
X89400874Y-83743774D01*
X89400876Y-83743782D01*
X89465168Y-83898996D01*
X89465173Y-83899006D01*
X89558508Y-84038691D01*
X89558511Y-84038695D01*
X89677304Y-84157488D01*
X89677308Y-84157491D01*
X89816993Y-84250826D01*
X89816997Y-84250828D01*
X89817000Y-84250830D01*
X89972218Y-84315124D01*
X90136992Y-84347899D01*
X90136996Y-84347900D01*
X90136997Y-84347900D01*
X90305004Y-84347900D01*
X90305005Y-84347899D01*
X90469782Y-84315124D01*
X90625000Y-84250830D01*
X90751969Y-84165992D01*
X101647100Y-84165992D01*
X101647100Y-84334007D01*
X101679874Y-84498774D01*
X101679876Y-84498782D01*
X101744168Y-84653996D01*
X101744173Y-84654006D01*
X101837508Y-84793691D01*
X101837511Y-84793695D01*
X101956304Y-84912488D01*
X101956308Y-84912491D01*
X102095993Y-85005826D01*
X102095997Y-85005828D01*
X102096000Y-85005830D01*
X102251218Y-85070124D01*
X102415992Y-85102899D01*
X102415996Y-85102900D01*
X102415997Y-85102900D01*
X102584004Y-85102900D01*
X102584005Y-85102899D01*
X102748782Y-85070124D01*
X102904000Y-85005830D01*
X103043692Y-84912491D01*
X103162491Y-84793692D01*
X103255830Y-84654000D01*
X103255831Y-84653995D01*
X103258726Y-84649664D01*
X103312338Y-84604859D01*
X103381663Y-84596151D01*
X103385985Y-84596930D01*
X103415997Y-84602900D01*
X103584004Y-84602900D01*
X103584005Y-84602899D01*
X103748782Y-84570124D01*
X103904000Y-84505830D01*
X104043692Y-84412491D01*
X104162491Y-84293692D01*
X104255830Y-84154000D01*
X104320124Y-83998782D01*
X104352900Y-83834003D01*
X104352900Y-83665997D01*
X104320124Y-83501218D01*
X104255830Y-83346000D01*
X104255828Y-83345997D01*
X104255826Y-83345993D01*
X104162491Y-83206308D01*
X104162488Y-83206304D01*
X104043695Y-83087511D01*
X104043691Y-83087508D01*
X103904006Y-82994173D01*
X103903996Y-82994168D01*
X103748782Y-82929876D01*
X103748774Y-82929874D01*
X103584007Y-82897100D01*
X103584003Y-82897100D01*
X103415997Y-82897100D01*
X103415992Y-82897100D01*
X103251225Y-82929874D01*
X103251217Y-82929876D01*
X103096003Y-82994168D01*
X103095993Y-82994173D01*
X102956308Y-83087508D01*
X102956304Y-83087511D01*
X102837511Y-83206304D01*
X102837508Y-83206308D01*
X102741273Y-83350335D01*
X102687661Y-83395140D01*
X102618336Y-83403847D01*
X102613984Y-83403062D01*
X102584006Y-83397100D01*
X102584003Y-83397100D01*
X102415997Y-83397100D01*
X102415992Y-83397100D01*
X102251225Y-83429874D01*
X102251217Y-83429876D01*
X102096003Y-83494168D01*
X102095993Y-83494173D01*
X101956308Y-83587508D01*
X101956304Y-83587511D01*
X101837511Y-83706304D01*
X101837508Y-83706308D01*
X101744173Y-83845993D01*
X101744168Y-83846003D01*
X101679876Y-84001217D01*
X101679874Y-84001225D01*
X101647100Y-84165992D01*
X90751969Y-84165992D01*
X90764692Y-84157491D01*
X90768187Y-84153996D01*
X90849960Y-84072224D01*
X90883488Y-84038695D01*
X90883491Y-84038692D01*
X90976830Y-83899000D01*
X91041124Y-83743782D01*
X91073900Y-83579003D01*
X91073900Y-83410997D01*
X91041124Y-83246218D01*
X90976830Y-83091000D01*
X90943416Y-83040992D01*
X91647100Y-83040992D01*
X91647100Y-83209007D01*
X91679874Y-83373774D01*
X91679876Y-83373782D01*
X91744168Y-83528996D01*
X91744173Y-83529006D01*
X91837508Y-83668691D01*
X91837511Y-83668695D01*
X91956304Y-83787488D01*
X91956308Y-83787491D01*
X92095993Y-83880826D01*
X92095997Y-83880828D01*
X92096000Y-83880830D01*
X92251218Y-83945124D01*
X92415992Y-83977899D01*
X92415996Y-83977900D01*
X92415997Y-83977900D01*
X92584004Y-83977900D01*
X92584005Y-83977899D01*
X92748782Y-83945124D01*
X92904000Y-83880830D01*
X93043692Y-83787491D01*
X93162491Y-83668692D01*
X93255830Y-83529000D01*
X93320124Y-83373782D01*
X93352900Y-83209003D01*
X93352900Y-83200905D01*
X93372585Y-83133866D01*
X93425389Y-83088111D01*
X93452704Y-83079289D01*
X93498782Y-83070124D01*
X93654000Y-83005830D01*
X93793692Y-82912491D01*
X93912491Y-82793692D01*
X94005830Y-82654000D01*
X94070124Y-82498782D01*
X94102900Y-82334003D01*
X94102900Y-82165997D01*
X94070124Y-82001218D01*
X94005830Y-81846000D01*
X94005828Y-81845997D01*
X94005826Y-81845993D01*
X93912491Y-81706308D01*
X93912488Y-81706304D01*
X93793695Y-81587511D01*
X93793691Y-81587508D01*
X93654006Y-81494173D01*
X93653996Y-81494168D01*
X93498782Y-81429876D01*
X93498774Y-81429874D01*
X93334007Y-81397100D01*
X93334003Y-81397100D01*
X93165997Y-81397100D01*
X93165992Y-81397100D01*
X93001225Y-81429874D01*
X93001217Y-81429876D01*
X92846003Y-81494168D01*
X92845993Y-81494173D01*
X92706308Y-81587508D01*
X92706304Y-81587511D01*
X92587511Y-81706304D01*
X92587508Y-81706308D01*
X92494173Y-81845993D01*
X92494168Y-81846003D01*
X92429876Y-82001217D01*
X92429874Y-82001225D01*
X92397100Y-82165992D01*
X92397100Y-82174094D01*
X92377415Y-82241133D01*
X92324611Y-82286888D01*
X92297291Y-82295711D01*
X92251225Y-82304874D01*
X92251217Y-82304876D01*
X92096003Y-82369168D01*
X92095993Y-82369173D01*
X91956308Y-82462508D01*
X91956304Y-82462511D01*
X91837511Y-82581304D01*
X91837508Y-82581308D01*
X91744173Y-82720993D01*
X91744168Y-82721003D01*
X91679876Y-82876217D01*
X91679874Y-82876225D01*
X91647100Y-83040992D01*
X90943416Y-83040992D01*
X90883491Y-82951308D01*
X90883488Y-82951304D01*
X90764695Y-82832511D01*
X90764691Y-82832508D01*
X90625006Y-82739173D01*
X90624996Y-82739168D01*
X90469782Y-82674876D01*
X90469774Y-82674874D01*
X90305007Y-82642100D01*
X90305003Y-82642100D01*
X90136997Y-82642100D01*
X90136992Y-82642100D01*
X89972225Y-82674874D01*
X89972217Y-82674876D01*
X89817003Y-82739168D01*
X89816993Y-82739173D01*
X89677308Y-82832508D01*
X89677304Y-82832511D01*
X89558511Y-82951304D01*
X89558508Y-82951308D01*
X89465173Y-83090993D01*
X89465168Y-83091003D01*
X89400876Y-83246217D01*
X89400874Y-83246225D01*
X89368100Y-83410992D01*
X87000500Y-83410992D01*
X87000500Y-78330992D01*
X89876100Y-78330992D01*
X89876100Y-78499007D01*
X89908874Y-78663774D01*
X89908876Y-78663782D01*
X89973168Y-78818996D01*
X89973173Y-78819006D01*
X90066508Y-78958691D01*
X90066511Y-78958695D01*
X90185304Y-79077488D01*
X90185308Y-79077491D01*
X90324993Y-79170826D01*
X90324997Y-79170828D01*
X90325000Y-79170830D01*
X90480218Y-79235124D01*
X90644992Y-79267899D01*
X90644996Y-79267900D01*
X90644997Y-79267900D01*
X90813004Y-79267900D01*
X90813005Y-79267899D01*
X90977782Y-79235124D01*
X91133000Y-79170830D01*
X91232542Y-79104317D01*
X91299219Y-79083440D01*
X91366599Y-79101924D01*
X91413290Y-79153903D01*
X91424466Y-79222873D01*
X91423051Y-79231610D01*
X91422352Y-79235125D01*
X91400299Y-79346000D01*
X91400100Y-79346998D01*
X91400100Y-79515007D01*
X91432874Y-79679774D01*
X91432876Y-79679782D01*
X91497168Y-79834996D01*
X91497173Y-79835006D01*
X91591931Y-79976821D01*
X91612809Y-80043499D01*
X91603390Y-80093164D01*
X91559877Y-80198213D01*
X91559874Y-80198225D01*
X91527100Y-80362992D01*
X91527100Y-80531007D01*
X91559874Y-80695774D01*
X91559876Y-80695782D01*
X91624168Y-80850996D01*
X91624173Y-80851006D01*
X91717508Y-80990691D01*
X91717511Y-80990695D01*
X91836304Y-81109488D01*
X91836308Y-81109491D01*
X91975993Y-81202826D01*
X91975997Y-81202828D01*
X91976000Y-81202830D01*
X92131218Y-81267124D01*
X92295992Y-81299899D01*
X92295996Y-81299900D01*
X92295997Y-81299900D01*
X92464004Y-81299900D01*
X92464005Y-81299899D01*
X92628782Y-81267124D01*
X92784000Y-81202830D01*
X92923692Y-81109491D01*
X93042491Y-80990692D01*
X93092404Y-80915992D01*
X98147100Y-80915992D01*
X98147100Y-81084007D01*
X98179874Y-81248774D01*
X98179876Y-81248782D01*
X98244168Y-81403996D01*
X98244173Y-81404006D01*
X98337508Y-81543691D01*
X98337511Y-81543695D01*
X98456304Y-81662488D01*
X98456308Y-81662491D01*
X98595993Y-81755826D01*
X98595997Y-81755828D01*
X98596000Y-81755830D01*
X98751218Y-81820124D01*
X98881273Y-81845993D01*
X98915992Y-81852899D01*
X98915996Y-81852900D01*
X98915997Y-81852900D01*
X99084004Y-81852900D01*
X99084005Y-81852899D01*
X99248782Y-81820124D01*
X99404000Y-81755830D01*
X99543692Y-81662491D01*
X99662491Y-81543692D01*
X99755830Y-81404000D01*
X99820124Y-81248782D01*
X99852900Y-81084003D01*
X99852900Y-80915997D01*
X99820124Y-80751218D01*
X99755830Y-80596000D01*
X99755828Y-80595997D01*
X99755826Y-80595993D01*
X99662491Y-80456308D01*
X99662488Y-80456304D01*
X99543695Y-80337511D01*
X99543691Y-80337508D01*
X99404006Y-80244173D01*
X99403996Y-80244168D01*
X99248782Y-80179876D01*
X99248774Y-80179874D01*
X99084007Y-80147100D01*
X99084003Y-80147100D01*
X98915997Y-80147100D01*
X98915992Y-80147100D01*
X98751225Y-80179874D01*
X98751217Y-80179876D01*
X98596003Y-80244168D01*
X98595993Y-80244173D01*
X98456308Y-80337508D01*
X98456304Y-80337511D01*
X98337511Y-80456304D01*
X98337508Y-80456308D01*
X98244173Y-80595993D01*
X98244168Y-80596003D01*
X98179876Y-80751217D01*
X98179874Y-80751225D01*
X98147100Y-80915992D01*
X93092404Y-80915992D01*
X93135830Y-80851000D01*
X93200124Y-80695782D01*
X93232900Y-80531003D01*
X93232900Y-80362997D01*
X93200124Y-80198218D01*
X93135830Y-80043000D01*
X93135828Y-80042997D01*
X93135826Y-80042993D01*
X93041068Y-79901178D01*
X93020190Y-79834500D01*
X93029608Y-79784836D01*
X93073124Y-79679782D01*
X93105900Y-79515003D01*
X93105900Y-79346997D01*
X93073124Y-79182218D01*
X93008830Y-79027000D01*
X92985368Y-78991887D01*
X92964492Y-78925215D01*
X92982976Y-78857834D01*
X92985333Y-78854164D01*
X93008830Y-78819000D01*
X93073124Y-78663782D01*
X93105900Y-78499003D01*
X93105900Y-78330997D01*
X93073124Y-78166218D01*
X93008830Y-78011000D01*
X93008827Y-78010995D01*
X92987312Y-77978795D01*
X92987311Y-77978794D01*
X92945348Y-77915992D01*
X104147100Y-77915992D01*
X104147100Y-78084007D01*
X104179874Y-78248774D01*
X104179876Y-78248782D01*
X104244168Y-78403996D01*
X104244173Y-78404006D01*
X104337511Y-78543695D01*
X104339681Y-78546340D01*
X104340383Y-78547994D01*
X104340893Y-78548757D01*
X104340748Y-78548853D01*
X104366991Y-78610652D01*
X104355196Y-78679518D01*
X104339681Y-78703660D01*
X104337511Y-78706304D01*
X104244173Y-78845993D01*
X104244168Y-78846003D01*
X104179876Y-79001217D01*
X104179874Y-79001225D01*
X104147100Y-79165992D01*
X104147100Y-79334007D01*
X104179874Y-79498774D01*
X104179876Y-79498782D01*
X104244168Y-79653996D01*
X104244173Y-79654006D01*
X104337508Y-79793691D01*
X104337511Y-79793695D01*
X104456304Y-79912488D01*
X104456308Y-79912491D01*
X104595993Y-80005826D01*
X104595997Y-80005828D01*
X104596000Y-80005830D01*
X104751218Y-80070124D01*
X104915992Y-80102899D01*
X104915996Y-80102900D01*
X104915997Y-80102900D01*
X105084004Y-80102900D01*
X105084005Y-80102899D01*
X105248782Y-80070124D01*
X105314019Y-80043101D01*
X105383486Y-80035633D01*
X105445965Y-80066907D01*
X105476031Y-80110209D01*
X105494170Y-80154000D01*
X105494173Y-80154006D01*
X105587508Y-80293691D01*
X105587511Y-80293695D01*
X105706304Y-80412488D01*
X105706308Y-80412491D01*
X105845993Y-80505826D01*
X105845997Y-80505828D01*
X105846000Y-80505830D01*
X106001218Y-80570124D01*
X106131273Y-80595993D01*
X106165992Y-80602899D01*
X106165996Y-80602900D01*
X106165997Y-80602900D01*
X106334004Y-80602900D01*
X106334005Y-80602899D01*
X106498782Y-80570124D01*
X106654000Y-80505830D01*
X106793692Y-80412491D01*
X106793699Y-80412483D01*
X106796332Y-80410324D01*
X106797988Y-80409620D01*
X106798757Y-80409107D01*
X106798854Y-80409252D01*
X106860641Y-80383009D01*
X106929509Y-80394798D01*
X106953668Y-80410324D01*
X106956305Y-80412488D01*
X106956308Y-80412491D01*
X106956311Y-80412493D01*
X107095993Y-80505826D01*
X107095997Y-80505828D01*
X107096000Y-80505830D01*
X107251218Y-80570124D01*
X107381273Y-80595993D01*
X107415992Y-80602899D01*
X107415996Y-80602900D01*
X107415997Y-80602900D01*
X107584004Y-80602900D01*
X107584005Y-80602899D01*
X107748782Y-80570124D01*
X107904000Y-80505830D01*
X108043692Y-80412491D01*
X108162491Y-80293692D01*
X108255830Y-80154000D01*
X108292728Y-80064919D01*
X108336566Y-80010521D01*
X108402860Y-79988455D01*
X108465749Y-80003022D01*
X108470994Y-80005826D01*
X108471000Y-80005830D01*
X108626218Y-80070124D01*
X108790992Y-80102899D01*
X108790996Y-80102900D01*
X108790997Y-80102900D01*
X108959004Y-80102900D01*
X108959004Y-80102899D01*
X109103099Y-80074238D01*
X109172690Y-80080465D01*
X109227868Y-80123328D01*
X109241851Y-80148402D01*
X109244168Y-80153996D01*
X109244173Y-80154006D01*
X109337508Y-80293691D01*
X109337511Y-80293695D01*
X109456304Y-80412488D01*
X109456308Y-80412491D01*
X109595993Y-80505826D01*
X109595997Y-80505828D01*
X109596000Y-80505830D01*
X109751218Y-80570124D01*
X109881273Y-80595993D01*
X109915992Y-80602899D01*
X109915996Y-80602900D01*
X109915997Y-80602900D01*
X110084004Y-80602900D01*
X110084005Y-80602899D01*
X110248782Y-80570124D01*
X110404000Y-80505830D01*
X110543692Y-80412491D01*
X110543699Y-80412483D01*
X110546332Y-80410324D01*
X110547988Y-80409620D01*
X110548757Y-80409107D01*
X110548854Y-80409252D01*
X110610641Y-80383009D01*
X110679509Y-80394798D01*
X110703668Y-80410324D01*
X110706305Y-80412488D01*
X110706308Y-80412491D01*
X110706311Y-80412493D01*
X110845993Y-80505826D01*
X110845997Y-80505828D01*
X110846000Y-80505830D01*
X111001218Y-80570124D01*
X111131273Y-80595993D01*
X111165992Y-80602899D01*
X111165996Y-80602900D01*
X111165997Y-80602900D01*
X111334004Y-80602900D01*
X111334005Y-80602899D01*
X111498782Y-80570124D01*
X111654000Y-80505830D01*
X111793692Y-80412491D01*
X111912491Y-80293692D01*
X112005830Y-80154000D01*
X112070124Y-79998782D01*
X112102900Y-79834003D01*
X112102900Y-79665997D01*
X112070124Y-79501218D01*
X112005830Y-79346000D01*
X112005828Y-79345997D01*
X112005826Y-79345993D01*
X111912491Y-79206308D01*
X111912488Y-79206304D01*
X111793695Y-79087511D01*
X111793691Y-79087508D01*
X111654006Y-78994173D01*
X111653996Y-78994168D01*
X111498782Y-78929876D01*
X111498774Y-78929874D01*
X111334007Y-78897100D01*
X111334003Y-78897100D01*
X111165997Y-78897100D01*
X111165992Y-78897100D01*
X111001225Y-78929874D01*
X111001217Y-78929876D01*
X110846003Y-78994168D01*
X110845993Y-78994173D01*
X110706304Y-79087511D01*
X110703660Y-79089681D01*
X110702005Y-79090383D01*
X110701243Y-79090893D01*
X110701146Y-79090748D01*
X110639348Y-79116991D01*
X110570482Y-79105196D01*
X110546340Y-79089681D01*
X110543695Y-79087511D01*
X110404006Y-78994173D01*
X110403996Y-78994168D01*
X110248782Y-78929876D01*
X110248774Y-78929874D01*
X110084007Y-78897100D01*
X110084003Y-78897100D01*
X109915997Y-78897100D01*
X109865281Y-78907187D01*
X109771899Y-78925762D01*
X109702308Y-78919533D01*
X109647131Y-78876670D01*
X109633146Y-78851592D01*
X109630830Y-78846001D01*
X109630826Y-78845993D01*
X109537493Y-78706311D01*
X109535324Y-78703668D01*
X109534620Y-78702011D01*
X109534107Y-78701243D01*
X109534252Y-78701145D01*
X109508009Y-78639359D01*
X109519798Y-78570491D01*
X109535324Y-78546332D01*
X109537483Y-78543699D01*
X109537491Y-78543692D01*
X109630830Y-78404000D01*
X109695124Y-78248782D01*
X109727900Y-78084003D01*
X109727900Y-77915997D01*
X109695124Y-77751218D01*
X109630830Y-77596000D01*
X109630828Y-77595997D01*
X109630826Y-77595993D01*
X109537491Y-77456308D01*
X109537488Y-77456304D01*
X109418695Y-77337511D01*
X109418691Y-77337508D01*
X109279006Y-77244173D01*
X109278996Y-77244168D01*
X109123782Y-77179876D01*
X109123774Y-77179874D01*
X108959007Y-77147100D01*
X108959003Y-77147100D01*
X108790997Y-77147100D01*
X108790992Y-77147100D01*
X108626225Y-77179874D01*
X108626217Y-77179876D01*
X108471003Y-77244168D01*
X108470993Y-77244173D01*
X108331308Y-77337508D01*
X108331304Y-77337511D01*
X108212511Y-77456304D01*
X108212508Y-77456308D01*
X108119173Y-77595993D01*
X108119168Y-77596003D01*
X108054876Y-77751217D01*
X108054874Y-77751225D01*
X108022100Y-77915992D01*
X108022100Y-78084007D01*
X108054874Y-78248774D01*
X108054876Y-78248782D01*
X108119168Y-78403996D01*
X108119173Y-78404006D01*
X108212511Y-78543695D01*
X108214681Y-78546340D01*
X108215383Y-78547994D01*
X108215893Y-78548757D01*
X108215748Y-78548853D01*
X108241991Y-78610652D01*
X108230196Y-78679518D01*
X108214681Y-78703660D01*
X108212511Y-78706304D01*
X108119173Y-78845993D01*
X108119170Y-78845999D01*
X108082273Y-78935076D01*
X108038431Y-78989479D01*
X107972137Y-79011543D01*
X107909262Y-78996982D01*
X107904001Y-78994170D01*
X107748782Y-78929876D01*
X107748774Y-78929874D01*
X107584007Y-78897100D01*
X107584003Y-78897100D01*
X107415997Y-78897100D01*
X107415992Y-78897100D01*
X107251225Y-78929874D01*
X107251217Y-78929876D01*
X107096003Y-78994168D01*
X107095993Y-78994173D01*
X106956304Y-79087511D01*
X106953660Y-79089681D01*
X106952005Y-79090383D01*
X106951243Y-79090893D01*
X106951146Y-79090748D01*
X106889348Y-79116991D01*
X106820482Y-79105196D01*
X106796340Y-79089681D01*
X106793695Y-79087511D01*
X106654006Y-78994173D01*
X106653996Y-78994168D01*
X106498782Y-78929876D01*
X106498774Y-78929874D01*
X106334007Y-78897100D01*
X106334003Y-78897100D01*
X106165997Y-78897100D01*
X106165992Y-78897100D01*
X106001225Y-78929874D01*
X106001222Y-78929875D01*
X106001221Y-78929875D01*
X106001218Y-78929876D01*
X105956530Y-78948386D01*
X105935981Y-78956898D01*
X105866511Y-78964366D01*
X105804032Y-78933090D01*
X105773968Y-78889788D01*
X105755833Y-78846006D01*
X105755826Y-78845993D01*
X105662493Y-78706311D01*
X105660324Y-78703668D01*
X105659620Y-78702011D01*
X105659107Y-78701243D01*
X105659252Y-78701145D01*
X105633009Y-78639359D01*
X105644798Y-78570491D01*
X105660324Y-78546332D01*
X105662483Y-78543699D01*
X105662491Y-78543692D01*
X105755830Y-78404000D01*
X105820124Y-78248782D01*
X105852900Y-78084003D01*
X105852900Y-77915997D01*
X105820124Y-77751218D01*
X105755830Y-77596000D01*
X105755828Y-77595997D01*
X105755826Y-77595993D01*
X105662491Y-77456308D01*
X105662488Y-77456304D01*
X105543695Y-77337511D01*
X105543691Y-77337508D01*
X105404006Y-77244173D01*
X105403996Y-77244168D01*
X105248782Y-77179876D01*
X105248774Y-77179874D01*
X105084007Y-77147100D01*
X105084003Y-77147100D01*
X104915997Y-77147100D01*
X104915992Y-77147100D01*
X104751225Y-77179874D01*
X104751217Y-77179876D01*
X104596003Y-77244168D01*
X104595993Y-77244173D01*
X104456308Y-77337508D01*
X104456304Y-77337511D01*
X104337511Y-77456304D01*
X104337508Y-77456308D01*
X104244173Y-77595993D01*
X104244168Y-77596003D01*
X104179876Y-77751217D01*
X104179874Y-77751225D01*
X104147100Y-77915992D01*
X92945348Y-77915992D01*
X92915491Y-77871308D01*
X92915488Y-77871304D01*
X92796695Y-77752511D01*
X92796691Y-77752508D01*
X92657006Y-77659173D01*
X92656996Y-77659168D01*
X92501782Y-77594876D01*
X92501776Y-77594874D01*
X92424017Y-77579407D01*
X92362106Y-77547022D01*
X92327532Y-77486306D01*
X92326592Y-77481981D01*
X92311125Y-77404225D01*
X92311124Y-77404218D01*
X92246830Y-77249000D01*
X92246828Y-77248997D01*
X92246826Y-77248993D01*
X92153491Y-77109308D01*
X92153488Y-77109304D01*
X92034695Y-76990511D01*
X92034691Y-76990508D01*
X91895006Y-76897173D01*
X91894996Y-76897168D01*
X91739782Y-76832876D01*
X91739774Y-76832874D01*
X91575007Y-76800100D01*
X91575003Y-76800100D01*
X91406997Y-76800100D01*
X91406992Y-76800100D01*
X91242225Y-76832874D01*
X91242217Y-76832876D01*
X91087003Y-76897168D01*
X91086993Y-76897173D01*
X90947308Y-76990508D01*
X90947304Y-76990511D01*
X90828511Y-77109304D01*
X90828508Y-77109308D01*
X90735173Y-77248993D01*
X90735168Y-77249003D01*
X90670876Y-77404217D01*
X90670874Y-77404223D01*
X90655407Y-77481982D01*
X90623022Y-77543893D01*
X90562306Y-77578467D01*
X90557982Y-77579407D01*
X90480223Y-77594874D01*
X90480217Y-77594876D01*
X90325003Y-77659168D01*
X90324993Y-77659173D01*
X90185308Y-77752508D01*
X90185304Y-77752511D01*
X90066511Y-77871304D01*
X90066508Y-77871308D01*
X89973173Y-78010993D01*
X89973168Y-78011003D01*
X89908876Y-78166217D01*
X89908874Y-78166225D01*
X89876100Y-78330992D01*
X87000500Y-78330992D01*
X87000500Y-74715992D01*
X108347100Y-74715992D01*
X108347100Y-74884007D01*
X108379874Y-75048774D01*
X108379876Y-75048782D01*
X108444168Y-75203996D01*
X108444173Y-75204006D01*
X108537508Y-75343691D01*
X108537511Y-75343695D01*
X108656304Y-75462488D01*
X108656308Y-75462491D01*
X108795993Y-75555826D01*
X108795997Y-75555828D01*
X108796000Y-75555830D01*
X108951218Y-75620124D01*
X109115992Y-75652899D01*
X109115996Y-75652900D01*
X109115997Y-75652900D01*
X109284004Y-75652900D01*
X109284005Y-75652899D01*
X109448782Y-75620124D01*
X109604000Y-75555830D01*
X109743692Y-75462491D01*
X109862491Y-75343692D01*
X109955830Y-75204000D01*
X110020124Y-75048782D01*
X110052900Y-74884003D01*
X110052900Y-74715997D01*
X110020124Y-74551218D01*
X109955830Y-74396000D01*
X109929306Y-74356305D01*
X109908429Y-74289628D01*
X109926914Y-74222248D01*
X109929289Y-74218550D01*
X110005830Y-74104000D01*
X110070124Y-73948782D01*
X110102900Y-73784003D01*
X110102900Y-73615997D01*
X110070124Y-73451218D01*
X110005830Y-73296000D01*
X110005828Y-73295997D01*
X110005826Y-73295993D01*
X109912491Y-73156308D01*
X109912488Y-73156304D01*
X109793695Y-73037511D01*
X109793691Y-73037508D01*
X109654006Y-72944173D01*
X109653996Y-72944168D01*
X109606431Y-72924466D01*
X109498782Y-72879876D01*
X109498774Y-72879874D01*
X109334007Y-72847100D01*
X109334003Y-72847100D01*
X109165997Y-72847100D01*
X109165992Y-72847100D01*
X109001225Y-72879874D01*
X109001217Y-72879876D01*
X108846003Y-72944168D01*
X108845993Y-72944173D01*
X108706308Y-73037508D01*
X108706304Y-73037511D01*
X108587511Y-73156304D01*
X108587508Y-73156308D01*
X108494173Y-73295993D01*
X108494168Y-73296003D01*
X108429876Y-73451217D01*
X108429874Y-73451225D01*
X108397100Y-73615992D01*
X108397100Y-73784007D01*
X108429874Y-73948774D01*
X108429876Y-73948782D01*
X108466619Y-74037488D01*
X108494170Y-74104000D01*
X108512098Y-74130831D01*
X108520693Y-74143694D01*
X108541570Y-74210371D01*
X108523085Y-74277751D01*
X108520692Y-74281474D01*
X108444176Y-74395988D01*
X108444168Y-74396003D01*
X108379876Y-74551217D01*
X108379874Y-74551225D01*
X108347100Y-74715992D01*
X87000500Y-74715992D01*
X87000500Y-73290992D01*
X88397100Y-73290992D01*
X88397100Y-73459007D01*
X88429874Y-73623774D01*
X88429876Y-73623782D01*
X88494168Y-73778996D01*
X88494173Y-73779006D01*
X88587508Y-73918691D01*
X88587511Y-73918695D01*
X88706304Y-74037488D01*
X88706308Y-74037491D01*
X88845993Y-74130826D01*
X88845997Y-74130828D01*
X88846000Y-74130830D01*
X89001218Y-74195124D01*
X89137582Y-74222248D01*
X89165992Y-74227899D01*
X89165996Y-74227900D01*
X89165997Y-74227900D01*
X89334004Y-74227900D01*
X89334005Y-74227899D01*
X89498782Y-74195124D01*
X89654000Y-74130830D01*
X89793692Y-74037491D01*
X89912491Y-73918692D01*
X90005830Y-73779000D01*
X90070124Y-73623782D01*
X90102900Y-73459003D01*
X90102900Y-73290997D01*
X90070124Y-73126218D01*
X90005830Y-72971000D01*
X90005828Y-72970997D01*
X90005826Y-72970993D01*
X89912491Y-72831308D01*
X89912488Y-72831304D01*
X89793695Y-72712511D01*
X89793691Y-72712508D01*
X89724075Y-72665992D01*
X93647100Y-72665992D01*
X93647100Y-72834007D01*
X93679874Y-72998774D01*
X93679876Y-72998782D01*
X93744168Y-73153996D01*
X93744173Y-73154006D01*
X93837508Y-73293691D01*
X93837511Y-73293695D01*
X93956304Y-73412488D01*
X93956308Y-73412491D01*
X94095993Y-73505826D01*
X94095997Y-73505828D01*
X94096000Y-73505830D01*
X94251218Y-73570124D01*
X94415992Y-73602899D01*
X94415996Y-73602900D01*
X94415997Y-73602900D01*
X94584004Y-73602900D01*
X94584005Y-73602899D01*
X94748782Y-73570124D01*
X94904000Y-73505830D01*
X95043692Y-73412491D01*
X95162491Y-73293692D01*
X95255830Y-73154000D01*
X95320124Y-72998782D01*
X95352900Y-72834003D01*
X95352900Y-72665997D01*
X95320124Y-72501218D01*
X95255830Y-72346000D01*
X95255828Y-72345997D01*
X95255826Y-72345993D01*
X95162491Y-72206308D01*
X95162488Y-72206304D01*
X95043695Y-72087511D01*
X95043691Y-72087508D01*
X94904006Y-71994173D01*
X94903996Y-71994168D01*
X94748782Y-71929876D01*
X94748774Y-71929874D01*
X94584007Y-71897100D01*
X94584003Y-71897100D01*
X94415997Y-71897100D01*
X94415992Y-71897100D01*
X94251225Y-71929874D01*
X94251217Y-71929876D01*
X94096003Y-71994168D01*
X94095993Y-71994173D01*
X93956308Y-72087508D01*
X93956304Y-72087511D01*
X93837511Y-72206304D01*
X93837508Y-72206308D01*
X93744173Y-72345993D01*
X93744168Y-72346003D01*
X93679876Y-72501217D01*
X93679874Y-72501225D01*
X93647100Y-72665992D01*
X89724075Y-72665992D01*
X89654006Y-72619173D01*
X89653996Y-72619168D01*
X89498782Y-72554876D01*
X89498774Y-72554874D01*
X89334007Y-72522100D01*
X89334003Y-72522100D01*
X89165997Y-72522100D01*
X89165992Y-72522100D01*
X89001225Y-72554874D01*
X89001217Y-72554876D01*
X88846003Y-72619168D01*
X88845993Y-72619173D01*
X88706308Y-72712508D01*
X88706304Y-72712511D01*
X88587511Y-72831304D01*
X88587508Y-72831308D01*
X88494173Y-72970993D01*
X88494168Y-72971003D01*
X88429876Y-73126217D01*
X88429874Y-73126225D01*
X88397100Y-73290992D01*
X87000500Y-73290992D01*
X87000500Y-71165992D01*
X95397100Y-71165992D01*
X95397100Y-71334007D01*
X95429874Y-71498774D01*
X95429876Y-71498782D01*
X95494168Y-71653996D01*
X95494173Y-71654006D01*
X95587508Y-71793691D01*
X95587511Y-71793695D01*
X95706304Y-71912488D01*
X95706308Y-71912491D01*
X95845993Y-72005826D01*
X95845997Y-72005828D01*
X95846000Y-72005830D01*
X96001218Y-72070124D01*
X96165992Y-72102899D01*
X96165996Y-72102900D01*
X96165997Y-72102900D01*
X96334004Y-72102900D01*
X96334005Y-72102899D01*
X96498782Y-72070124D01*
X96654000Y-72005830D01*
X96681111Y-71987714D01*
X96747784Y-71966837D01*
X96815165Y-71985320D01*
X96818836Y-71987679D01*
X96846000Y-72005830D01*
X97001218Y-72070124D01*
X97165992Y-72102899D01*
X97165996Y-72102900D01*
X97165997Y-72102900D01*
X97334004Y-72102900D01*
X97334005Y-72102899D01*
X97498782Y-72070124D01*
X97564019Y-72043101D01*
X97633486Y-72035633D01*
X97695965Y-72066907D01*
X97726031Y-72110209D01*
X97744170Y-72154000D01*
X97744173Y-72154006D01*
X97837508Y-72293691D01*
X97837511Y-72293695D01*
X97956304Y-72412488D01*
X97956308Y-72412491D01*
X98095993Y-72505826D01*
X98095997Y-72505828D01*
X98096000Y-72505830D01*
X98251218Y-72570124D01*
X98415992Y-72602899D01*
X98415996Y-72602900D01*
X98415997Y-72602900D01*
X98584004Y-72602900D01*
X98584005Y-72602899D01*
X98748782Y-72570124D01*
X98904000Y-72505830D01*
X99043692Y-72412491D01*
X99162491Y-72293692D01*
X99255830Y-72154000D01*
X99320124Y-71998782D01*
X99352900Y-71834003D01*
X99352900Y-71665997D01*
X99320124Y-71501218D01*
X99255830Y-71346000D01*
X99255828Y-71345997D01*
X99255826Y-71345993D01*
X99177517Y-71228796D01*
X99177516Y-71228795D01*
X99162489Y-71206305D01*
X99122176Y-71165992D01*
X101397100Y-71165992D01*
X101397100Y-71334007D01*
X101429874Y-71498774D01*
X101429876Y-71498782D01*
X101494168Y-71653996D01*
X101494173Y-71654006D01*
X101587508Y-71793691D01*
X101587511Y-71793695D01*
X101706304Y-71912488D01*
X101706308Y-71912491D01*
X101845993Y-72005826D01*
X101845997Y-72005828D01*
X101846000Y-72005830D01*
X102001218Y-72070124D01*
X102165992Y-72102899D01*
X102165996Y-72102900D01*
X102165997Y-72102900D01*
X102334004Y-72102900D01*
X102334005Y-72102899D01*
X102498782Y-72070124D01*
X102654000Y-72005830D01*
X102793692Y-71912491D01*
X102842793Y-71863390D01*
X102912319Y-71793865D01*
X102973642Y-71760380D01*
X103043334Y-71765364D01*
X103087681Y-71793865D01*
X103206304Y-71912488D01*
X103206308Y-71912491D01*
X103345993Y-72005826D01*
X103345997Y-72005828D01*
X103346000Y-72005830D01*
X103501218Y-72070124D01*
X103665992Y-72102899D01*
X103665996Y-72102900D01*
X103665997Y-72102900D01*
X103834004Y-72102900D01*
X103834004Y-72102899D01*
X103970556Y-72075738D01*
X104040146Y-72081965D01*
X104095323Y-72124828D01*
X104118568Y-72190717D01*
X104109307Y-72244807D01*
X104054877Y-72376213D01*
X104054874Y-72376225D01*
X104022100Y-72540992D01*
X104022100Y-72709007D01*
X104054874Y-72873774D01*
X104054876Y-72873782D01*
X104119168Y-73028996D01*
X104119173Y-73029006D01*
X104212508Y-73168691D01*
X104212511Y-73168695D01*
X104331304Y-73287488D01*
X104331308Y-73287491D01*
X104470993Y-73380826D01*
X104470997Y-73380828D01*
X104471000Y-73380830D01*
X104626218Y-73445124D01*
X104790992Y-73477899D01*
X104790996Y-73477900D01*
X104790997Y-73477900D01*
X104959004Y-73477900D01*
X104959005Y-73477899D01*
X105123782Y-73445124D01*
X105265048Y-73386608D01*
X105334516Y-73379140D01*
X105359948Y-73386607D01*
X105501218Y-73445124D01*
X105665992Y-73477899D01*
X105665996Y-73477900D01*
X105665997Y-73477900D01*
X105834004Y-73477900D01*
X105834005Y-73477899D01*
X105998782Y-73445124D01*
X106154000Y-73380830D01*
X106293692Y-73287491D01*
X106412491Y-73168692D01*
X106505830Y-73029000D01*
X106570124Y-72873782D01*
X106581619Y-72815992D01*
X110447100Y-72815992D01*
X110447100Y-72984007D01*
X110479874Y-73148774D01*
X110479876Y-73148782D01*
X110544168Y-73303996D01*
X110544173Y-73304006D01*
X110637508Y-73443691D01*
X110637511Y-73443695D01*
X110756304Y-73562488D01*
X110756308Y-73562491D01*
X110895993Y-73655826D01*
X110895997Y-73655828D01*
X110896000Y-73655830D01*
X111051218Y-73720124D01*
X111215992Y-73752899D01*
X111215996Y-73752900D01*
X111215997Y-73752900D01*
X111384004Y-73752900D01*
X111384005Y-73752899D01*
X111548782Y-73720124D01*
X111704000Y-73655830D01*
X111843692Y-73562491D01*
X111962491Y-73443692D01*
X112055830Y-73304000D01*
X112120124Y-73148782D01*
X112152900Y-72984003D01*
X112152900Y-72815997D01*
X112120124Y-72651218D01*
X112055830Y-72496000D01*
X112055828Y-72495997D01*
X112055826Y-72495993D01*
X111962491Y-72356308D01*
X111962488Y-72356304D01*
X111843695Y-72237511D01*
X111843691Y-72237508D01*
X111704006Y-72144173D01*
X111703996Y-72144168D01*
X111548782Y-72079876D01*
X111548774Y-72079874D01*
X111384007Y-72047100D01*
X111384003Y-72047100D01*
X111215997Y-72047100D01*
X111215992Y-72047100D01*
X111051225Y-72079874D01*
X111051217Y-72079876D01*
X110896003Y-72144168D01*
X110895993Y-72144173D01*
X110756308Y-72237508D01*
X110756304Y-72237511D01*
X110637511Y-72356304D01*
X110637508Y-72356308D01*
X110544173Y-72495993D01*
X110544168Y-72496003D01*
X110479876Y-72651217D01*
X110479874Y-72651225D01*
X110447100Y-72815992D01*
X106581619Y-72815992D01*
X106602900Y-72709003D01*
X106602900Y-72540997D01*
X106570124Y-72376218D01*
X106505830Y-72221000D01*
X106505828Y-72220997D01*
X106505826Y-72220993D01*
X106412491Y-72081308D01*
X106412488Y-72081304D01*
X106293695Y-71962511D01*
X106293691Y-71962508D01*
X106154006Y-71869173D01*
X106153996Y-71869168D01*
X105998782Y-71804876D01*
X105998774Y-71804874D01*
X105834007Y-71772100D01*
X105834003Y-71772100D01*
X105665997Y-71772100D01*
X105665992Y-71772100D01*
X105501225Y-71804874D01*
X105501217Y-71804876D01*
X105359953Y-71863390D01*
X105290483Y-71870859D01*
X105265047Y-71863390D01*
X105123782Y-71804876D01*
X105123774Y-71804874D01*
X104959007Y-71772100D01*
X104959003Y-71772100D01*
X104790997Y-71772100D01*
X104790992Y-71772100D01*
X104654444Y-71799261D01*
X104584852Y-71793034D01*
X104529675Y-71750170D01*
X104506431Y-71684281D01*
X104515692Y-71630191D01*
X104570124Y-71498782D01*
X104602900Y-71334003D01*
X104602900Y-71165997D01*
X104570124Y-71001218D01*
X104505830Y-70846000D01*
X104505828Y-70845997D01*
X104505826Y-70845993D01*
X104412491Y-70706308D01*
X104412488Y-70706304D01*
X104293695Y-70587511D01*
X104293691Y-70587508D01*
X104154006Y-70494173D01*
X104153996Y-70494168D01*
X103998782Y-70429876D01*
X103998774Y-70429874D01*
X103834007Y-70397100D01*
X103834003Y-70397100D01*
X103665997Y-70397100D01*
X103665992Y-70397100D01*
X103501225Y-70429874D01*
X103501217Y-70429876D01*
X103346003Y-70494168D01*
X103345993Y-70494173D01*
X103206308Y-70587508D01*
X103206304Y-70587511D01*
X103087681Y-70706135D01*
X103026358Y-70739620D01*
X102956666Y-70734636D01*
X102912319Y-70706135D01*
X102793695Y-70587511D01*
X102793691Y-70587508D01*
X102654006Y-70494173D01*
X102653996Y-70494168D01*
X102498782Y-70429876D01*
X102498774Y-70429874D01*
X102334007Y-70397100D01*
X102334003Y-70397100D01*
X102165997Y-70397100D01*
X102165992Y-70397100D01*
X102001225Y-70429874D01*
X102001217Y-70429876D01*
X101846003Y-70494168D01*
X101845993Y-70494173D01*
X101706308Y-70587508D01*
X101706304Y-70587511D01*
X101587511Y-70706304D01*
X101587508Y-70706308D01*
X101494173Y-70845993D01*
X101494168Y-70846003D01*
X101429876Y-71001217D01*
X101429874Y-71001225D01*
X101397100Y-71165992D01*
X99122176Y-71165992D01*
X99043695Y-71087511D01*
X99043691Y-71087508D01*
X98904006Y-70994173D01*
X98903996Y-70994168D01*
X98748782Y-70929876D01*
X98748774Y-70929874D01*
X98584007Y-70897100D01*
X98584003Y-70897100D01*
X98415997Y-70897100D01*
X98415992Y-70897100D01*
X98251225Y-70929874D01*
X98251222Y-70929875D01*
X98251221Y-70929875D01*
X98251218Y-70929876D01*
X98206530Y-70948386D01*
X98185981Y-70956898D01*
X98116511Y-70964366D01*
X98054032Y-70933090D01*
X98023968Y-70889788D01*
X98005833Y-70846006D01*
X98005826Y-70845993D01*
X97912491Y-70706308D01*
X97912488Y-70706304D01*
X97793695Y-70587511D01*
X97793691Y-70587508D01*
X97654006Y-70494173D01*
X97653996Y-70494168D01*
X97498782Y-70429876D01*
X97498774Y-70429874D01*
X97334007Y-70397100D01*
X97334003Y-70397100D01*
X97165997Y-70397100D01*
X97165992Y-70397100D01*
X97001225Y-70429874D01*
X97001217Y-70429876D01*
X96846003Y-70494168D01*
X96845993Y-70494173D01*
X96818891Y-70512283D01*
X96752213Y-70533161D01*
X96684833Y-70514676D01*
X96681109Y-70512283D01*
X96654006Y-70494173D01*
X96653996Y-70494168D01*
X96498782Y-70429876D01*
X96498774Y-70429874D01*
X96334007Y-70397100D01*
X96334003Y-70397100D01*
X96165997Y-70397100D01*
X96165992Y-70397100D01*
X96001225Y-70429874D01*
X96001217Y-70429876D01*
X95846003Y-70494168D01*
X95845993Y-70494173D01*
X95706308Y-70587508D01*
X95706304Y-70587511D01*
X95587511Y-70706304D01*
X95587508Y-70706308D01*
X95494173Y-70845993D01*
X95494168Y-70846003D01*
X95429876Y-71001217D01*
X95429874Y-71001225D01*
X95397100Y-71165992D01*
X87000500Y-71165992D01*
X87000500Y-67915992D01*
X108397100Y-67915992D01*
X108397100Y-68084007D01*
X108429874Y-68248774D01*
X108429876Y-68248782D01*
X108494168Y-68403996D01*
X108494173Y-68404006D01*
X108587508Y-68543691D01*
X108587511Y-68543695D01*
X108706304Y-68662488D01*
X108706308Y-68662491D01*
X108845993Y-68755826D01*
X108845997Y-68755828D01*
X108846000Y-68755830D01*
X109001218Y-68820124D01*
X109165992Y-68852899D01*
X109165996Y-68852900D01*
X109165997Y-68852900D01*
X109334004Y-68852900D01*
X109334005Y-68852899D01*
X109498782Y-68820124D01*
X109654000Y-68755830D01*
X109793692Y-68662491D01*
X109912491Y-68543692D01*
X110005830Y-68404000D01*
X110070124Y-68248782D01*
X110102900Y-68084003D01*
X110102900Y-67915997D01*
X110092400Y-67863208D01*
X110098627Y-67793617D01*
X110141490Y-67738439D01*
X110207380Y-67715195D01*
X110238208Y-67717400D01*
X110264238Y-67722577D01*
X110290994Y-67727899D01*
X110290996Y-67727900D01*
X110290997Y-67727900D01*
X110459004Y-67727900D01*
X110459005Y-67727899D01*
X110623782Y-67695124D01*
X110779000Y-67630830D01*
X110918692Y-67537491D01*
X111037491Y-67418692D01*
X111130830Y-67279000D01*
X111195124Y-67123782D01*
X111227900Y-66959003D01*
X111227900Y-66790997D01*
X111195124Y-66626218D01*
X111130830Y-66471000D01*
X111130828Y-66470997D01*
X111130826Y-66470993D01*
X111037491Y-66331308D01*
X111037488Y-66331304D01*
X110918695Y-66212511D01*
X110918691Y-66212508D01*
X110779006Y-66119173D01*
X110778996Y-66119168D01*
X110623782Y-66054876D01*
X110623774Y-66054874D01*
X110459007Y-66022100D01*
X110459003Y-66022100D01*
X110290997Y-66022100D01*
X110290992Y-66022100D01*
X110126225Y-66054874D01*
X110126217Y-66054876D01*
X109971003Y-66119168D01*
X109970993Y-66119173D01*
X109831308Y-66212508D01*
X109831304Y-66212511D01*
X109712511Y-66331304D01*
X109712508Y-66331308D01*
X109619173Y-66470993D01*
X109619168Y-66471003D01*
X109554876Y-66626217D01*
X109554874Y-66626225D01*
X109522100Y-66790992D01*
X109522100Y-66790996D01*
X109522100Y-66790997D01*
X109522100Y-66959003D01*
X109522101Y-66959007D01*
X109532600Y-67011792D01*
X109526371Y-67081384D01*
X109483508Y-67136560D01*
X109417618Y-67159804D01*
X109386792Y-67157600D01*
X109360401Y-67152350D01*
X109334003Y-67147100D01*
X109165997Y-67147100D01*
X109165992Y-67147100D01*
X109001225Y-67179874D01*
X109001217Y-67179876D01*
X108846003Y-67244168D01*
X108845993Y-67244173D01*
X108706308Y-67337508D01*
X108706304Y-67337511D01*
X108587511Y-67456304D01*
X108587508Y-67456308D01*
X108494173Y-67595993D01*
X108494168Y-67596003D01*
X108429876Y-67751217D01*
X108429874Y-67751225D01*
X108397100Y-67915992D01*
X87000500Y-67915992D01*
X87000500Y-65915992D01*
X87456500Y-65915992D01*
X87456500Y-66084007D01*
X87489274Y-66248774D01*
X87489276Y-66248782D01*
X87553568Y-66403996D01*
X87553573Y-66404006D01*
X87646908Y-66543691D01*
X87646911Y-66543695D01*
X87765704Y-66662488D01*
X87765708Y-66662491D01*
X87905393Y-66755826D01*
X87905397Y-66755828D01*
X87905400Y-66755830D01*
X88060618Y-66820124D01*
X88225392Y-66852899D01*
X88225396Y-66852900D01*
X88225397Y-66852900D01*
X88393404Y-66852900D01*
X88393405Y-66852899D01*
X88558182Y-66820124D01*
X88618536Y-66795123D01*
X88688003Y-66787654D01*
X88734880Y-66806582D01*
X88845993Y-66880826D01*
X88845997Y-66880828D01*
X88846000Y-66880830D01*
X89001218Y-66945124D01*
X89165992Y-66977899D01*
X89165996Y-66977900D01*
X89165997Y-66977900D01*
X89334004Y-66977900D01*
X89334005Y-66977899D01*
X89498782Y-66945124D01*
X89654000Y-66880830D01*
X89793692Y-66787491D01*
X89912491Y-66668692D01*
X90005830Y-66529000D01*
X90070124Y-66373782D01*
X90102900Y-66209003D01*
X90102900Y-66040997D01*
X90070917Y-65880205D01*
X90077144Y-65810615D01*
X90120007Y-65755437D01*
X90168340Y-65734398D01*
X90215973Y-65724924D01*
X90371191Y-65660630D01*
X90510883Y-65567291D01*
X90629682Y-65448492D01*
X90723021Y-65308800D01*
X90787315Y-65153582D01*
X90820091Y-64988803D01*
X90820091Y-64820797D01*
X90787315Y-64656018D01*
X90723021Y-64500800D01*
X90723019Y-64500797D01*
X90723017Y-64500793D01*
X90629682Y-64361108D01*
X90629679Y-64361104D01*
X90510886Y-64242311D01*
X90510882Y-64242308D01*
X90371197Y-64148973D01*
X90371188Y-64148968D01*
X90284900Y-64113226D01*
X90215973Y-64084676D01*
X90144473Y-64070454D01*
X90141972Y-64069848D01*
X90113840Y-64053616D01*
X90085070Y-64038567D01*
X90083754Y-64036257D01*
X90081454Y-64034930D01*
X90066568Y-64006075D01*
X90051715Y-63979992D01*
X92162100Y-63979992D01*
X92162100Y-64148007D01*
X92194874Y-64312774D01*
X92194876Y-64312782D01*
X92259168Y-64467996D01*
X92259173Y-64468006D01*
X92352508Y-64607691D01*
X92352511Y-64607695D01*
X92471304Y-64726488D01*
X92471308Y-64726491D01*
X92610993Y-64819826D01*
X92610997Y-64819828D01*
X92611000Y-64819830D01*
X92766218Y-64884124D01*
X92871129Y-64904991D01*
X92933037Y-64937375D01*
X92967612Y-64998090D01*
X92963873Y-65067860D01*
X92961498Y-65074057D01*
X92956878Y-65085209D01*
X92956874Y-65085225D01*
X92924100Y-65249992D01*
X92924100Y-65418007D01*
X92956874Y-65582774D01*
X92956876Y-65582782D01*
X93021169Y-65737999D01*
X93032821Y-65755437D01*
X93072459Y-65814760D01*
X93093337Y-65881436D01*
X93083918Y-65931102D01*
X93054877Y-66001213D01*
X93054874Y-66001225D01*
X93022100Y-66165992D01*
X93022100Y-66334007D01*
X93054874Y-66498774D01*
X93054876Y-66498782D01*
X93119168Y-66653996D01*
X93119173Y-66654006D01*
X93212508Y-66793691D01*
X93212511Y-66793695D01*
X93331304Y-66912488D01*
X93331308Y-66912491D01*
X93470993Y-67005826D01*
X93470997Y-67005828D01*
X93471000Y-67005830D01*
X93626218Y-67070124D01*
X93790992Y-67102899D01*
X93790996Y-67102900D01*
X93790997Y-67102900D01*
X93959004Y-67102900D01*
X93959005Y-67102899D01*
X94123782Y-67070124D01*
X94279000Y-67005830D01*
X94418692Y-66912491D01*
X94537491Y-66793692D01*
X94560003Y-66759998D01*
X94613614Y-66715195D01*
X94682939Y-66706486D01*
X94687298Y-66707273D01*
X94790994Y-66727899D01*
X94790996Y-66727900D01*
X94790997Y-66727900D01*
X94959004Y-66727900D01*
X94965066Y-66727303D01*
X94965206Y-66728725D01*
X95027652Y-66734300D01*
X95082838Y-66777151D01*
X95085378Y-66780809D01*
X95177505Y-66918687D01*
X95177511Y-66918695D01*
X95296304Y-67037488D01*
X95296308Y-67037491D01*
X95435993Y-67130826D01*
X95435997Y-67130828D01*
X95436000Y-67130830D01*
X95591218Y-67195124D01*
X95713973Y-67219541D01*
X95755992Y-67227899D01*
X95755996Y-67227900D01*
X95755997Y-67227900D01*
X95924004Y-67227900D01*
X95924005Y-67227899D01*
X96088782Y-67195124D01*
X96244000Y-67130830D01*
X96383692Y-67037491D01*
X96427560Y-66993622D01*
X96488882Y-66960137D01*
X96539429Y-66959686D01*
X96614909Y-66974699D01*
X96630996Y-66977900D01*
X96630997Y-66977900D01*
X96799004Y-66977900D01*
X96799005Y-66977899D01*
X96963782Y-66945124D01*
X97119000Y-66880830D01*
X97258692Y-66787491D01*
X97377491Y-66668692D01*
X97470830Y-66529000D01*
X97535124Y-66373782D01*
X97567900Y-66209003D01*
X97567900Y-66040997D01*
X97559987Y-66001213D01*
X97546637Y-65934096D01*
X97543036Y-65915992D01*
X97862100Y-65915992D01*
X97862100Y-66084007D01*
X97894874Y-66248774D01*
X97894876Y-66248782D01*
X97959168Y-66403996D01*
X97959173Y-66404006D01*
X98052508Y-66543691D01*
X98052511Y-66543695D01*
X98171304Y-66662488D01*
X98171308Y-66662491D01*
X98310993Y-66755826D01*
X98310997Y-66755828D01*
X98311000Y-66755830D01*
X98466218Y-66820124D01*
X98630992Y-66852899D01*
X98630996Y-66852900D01*
X98630997Y-66852900D01*
X98799004Y-66852900D01*
X98799005Y-66852899D01*
X98963782Y-66820124D01*
X99119000Y-66755830D01*
X99258692Y-66662491D01*
X99377491Y-66543692D01*
X99470830Y-66404000D01*
X99535124Y-66248782D01*
X99567900Y-66084003D01*
X99567900Y-65915997D01*
X99535124Y-65751218D01*
X99470830Y-65596000D01*
X99470828Y-65595997D01*
X99470826Y-65595993D01*
X99377491Y-65456308D01*
X99377488Y-65456304D01*
X99258695Y-65337511D01*
X99258691Y-65337508D01*
X99147193Y-65263007D01*
X99119004Y-65244172D01*
X99118996Y-65244168D01*
X98963782Y-65179876D01*
X98963774Y-65179874D01*
X98893984Y-65165992D01*
X99987100Y-65165992D01*
X99987100Y-65334007D01*
X100019874Y-65498774D01*
X100019876Y-65498782D01*
X100084168Y-65653996D01*
X100084173Y-65654006D01*
X100177508Y-65793691D01*
X100177511Y-65793695D01*
X100296304Y-65912488D01*
X100296308Y-65912491D01*
X100435993Y-66005826D01*
X100435997Y-66005828D01*
X100436000Y-66005830D01*
X100591218Y-66070124D01*
X100755992Y-66102899D01*
X100755996Y-66102900D01*
X100755997Y-66102900D01*
X100924004Y-66102900D01*
X100924005Y-66102899D01*
X101088782Y-66070124D01*
X101244000Y-66005830D01*
X101383692Y-65912491D01*
X101502491Y-65793692D01*
X101595830Y-65654000D01*
X101660124Y-65498782D01*
X101676592Y-65415992D01*
X104647100Y-65415992D01*
X104647100Y-65584007D01*
X104679874Y-65748774D01*
X104679876Y-65748782D01*
X104744168Y-65903996D01*
X104744173Y-65904006D01*
X104837508Y-66043691D01*
X104837511Y-66043695D01*
X104956304Y-66162488D01*
X104956308Y-66162491D01*
X105095993Y-66255826D01*
X105095997Y-66255828D01*
X105096000Y-66255830D01*
X105251218Y-66320124D01*
X105415992Y-66352899D01*
X105415996Y-66352900D01*
X105415997Y-66352900D01*
X105584004Y-66352900D01*
X105584005Y-66352899D01*
X105748782Y-66320124D01*
X105904000Y-66255830D01*
X106043692Y-66162491D01*
X106162491Y-66043692D01*
X106255830Y-65904000D01*
X106320124Y-65748782D01*
X106352900Y-65584003D01*
X106352900Y-65415997D01*
X106320124Y-65251218D01*
X106255830Y-65096000D01*
X106255828Y-65095997D01*
X106255826Y-65095993D01*
X106162491Y-64956308D01*
X106162488Y-64956304D01*
X106043695Y-64837511D01*
X106043691Y-64837508D01*
X105904006Y-64744173D01*
X105903996Y-64744168D01*
X105748782Y-64679876D01*
X105748774Y-64679874D01*
X105584007Y-64647100D01*
X105584003Y-64647100D01*
X105415997Y-64647100D01*
X105415992Y-64647100D01*
X105251225Y-64679874D01*
X105251217Y-64679876D01*
X105096003Y-64744168D01*
X105095993Y-64744173D01*
X104956308Y-64837508D01*
X104956304Y-64837511D01*
X104837511Y-64956304D01*
X104837508Y-64956308D01*
X104744173Y-65095993D01*
X104744168Y-65096003D01*
X104679876Y-65251217D01*
X104679874Y-65251225D01*
X104647100Y-65415992D01*
X101676592Y-65415992D01*
X101682609Y-65385743D01*
X101682614Y-65385715D01*
X101692202Y-65337511D01*
X101692900Y-65334003D01*
X101692900Y-65165997D01*
X101660124Y-65001218D01*
X101595830Y-64846000D01*
X101595828Y-64845997D01*
X101595826Y-64845993D01*
X101502491Y-64706308D01*
X101502488Y-64706304D01*
X101383695Y-64587511D01*
X101383691Y-64587508D01*
X101244006Y-64494173D01*
X101243996Y-64494168D01*
X101088782Y-64429876D01*
X101088774Y-64429874D01*
X100924007Y-64397100D01*
X100924003Y-64397100D01*
X100755997Y-64397100D01*
X100755992Y-64397100D01*
X100591225Y-64429874D01*
X100591217Y-64429876D01*
X100436003Y-64494168D01*
X100435993Y-64494173D01*
X100296308Y-64587508D01*
X100296304Y-64587511D01*
X100177511Y-64706304D01*
X100177508Y-64706308D01*
X100084173Y-64845993D01*
X100084168Y-64846003D01*
X100019876Y-65001217D01*
X100019874Y-65001225D01*
X99987100Y-65165992D01*
X98893984Y-65165992D01*
X98799007Y-65147100D01*
X98799003Y-65147100D01*
X98630997Y-65147100D01*
X98630992Y-65147100D01*
X98466225Y-65179874D01*
X98466217Y-65179876D01*
X98311003Y-65244168D01*
X98310993Y-65244173D01*
X98171308Y-65337508D01*
X98171304Y-65337511D01*
X98052511Y-65456304D01*
X98052508Y-65456308D01*
X97959173Y-65595993D01*
X97959168Y-65596003D01*
X97894876Y-65751217D01*
X97894874Y-65751225D01*
X97862100Y-65915992D01*
X97543036Y-65915992D01*
X97535125Y-65876225D01*
X97535124Y-65876218D01*
X97470830Y-65721000D01*
X97470828Y-65720997D01*
X97470826Y-65720993D01*
X97377491Y-65581308D01*
X97377488Y-65581304D01*
X97258695Y-65462511D01*
X97258691Y-65462508D01*
X97119006Y-65369173D01*
X97118996Y-65369168D01*
X96963782Y-65304876D01*
X96963774Y-65304874D01*
X96799007Y-65272100D01*
X96799003Y-65272100D01*
X96630997Y-65272100D01*
X96630992Y-65272100D01*
X96466225Y-65304874D01*
X96466217Y-65304876D01*
X96311003Y-65369168D01*
X96310993Y-65369173D01*
X96171311Y-65462506D01*
X96171305Y-65462510D01*
X96127437Y-65506378D01*
X96066114Y-65539862D01*
X96015568Y-65540313D01*
X95924003Y-65522100D01*
X95755997Y-65522100D01*
X95749935Y-65522697D01*
X95749795Y-65521282D01*
X95687316Y-65515687D01*
X95632141Y-65472821D01*
X95629621Y-65469190D01*
X95537494Y-65331312D01*
X95537488Y-65331304D01*
X95418695Y-65212511D01*
X95418691Y-65212508D01*
X95279006Y-65119173D01*
X95278996Y-65119168D01*
X95123782Y-65054876D01*
X95123774Y-65054874D01*
X94959007Y-65022100D01*
X94959003Y-65022100D01*
X94790997Y-65022100D01*
X94768242Y-65026626D01*
X94687534Y-65042679D01*
X94617942Y-65036450D01*
X94562765Y-64993587D01*
X94548783Y-64968513D01*
X94532833Y-64930006D01*
X94532826Y-64929993D01*
X94520633Y-64911745D01*
X94499755Y-64845068D01*
X94518239Y-64777687D01*
X94554844Y-64739752D01*
X94574692Y-64726491D01*
X94693491Y-64607692D01*
X94786830Y-64468000D01*
X94851124Y-64312782D01*
X94883900Y-64148003D01*
X94883900Y-63979997D01*
X94851124Y-63815218D01*
X94786830Y-63660000D01*
X94786828Y-63659997D01*
X94786826Y-63659993D01*
X94693491Y-63520308D01*
X94693488Y-63520304D01*
X94574695Y-63401511D01*
X94574691Y-63401508D01*
X94435006Y-63308173D01*
X94434996Y-63308168D01*
X94279782Y-63243876D01*
X94279774Y-63243874D01*
X94115007Y-63211100D01*
X94115003Y-63211100D01*
X93946997Y-63211100D01*
X93946992Y-63211100D01*
X93782225Y-63243874D01*
X93782217Y-63243876D01*
X93627000Y-63308169D01*
X93591891Y-63331629D01*
X93525213Y-63352507D01*
X93457833Y-63334022D01*
X93454109Y-63331629D01*
X93418999Y-63308169D01*
X93263782Y-63243876D01*
X93263774Y-63243874D01*
X93099007Y-63211100D01*
X93099003Y-63211100D01*
X92930997Y-63211100D01*
X92930992Y-63211100D01*
X92766225Y-63243874D01*
X92766217Y-63243876D01*
X92611003Y-63308168D01*
X92610993Y-63308173D01*
X92471308Y-63401508D01*
X92471304Y-63401511D01*
X92352511Y-63520304D01*
X92352508Y-63520308D01*
X92259173Y-63659993D01*
X92259168Y-63660003D01*
X92194876Y-63815217D01*
X92194874Y-63815225D01*
X92162100Y-63979992D01*
X90051715Y-63979992D01*
X90050496Y-63977851D01*
X90050638Y-63975197D01*
X90049420Y-63972836D01*
X90052497Y-63940519D01*
X90054236Y-63908082D01*
X90055791Y-63905925D01*
X90056043Y-63903281D01*
X90076104Y-63877756D01*
X90095103Y-63851410D01*
X90098245Y-63849585D01*
X90099218Y-63848348D01*
X90102090Y-63847352D01*
X90114059Y-63840403D01*
X90113630Y-63839600D01*
X90118993Y-63836732D01*
X90119000Y-63836730D01*
X90258692Y-63743391D01*
X90377491Y-63624592D01*
X90470830Y-63484900D01*
X90535124Y-63329682D01*
X90567900Y-63164903D01*
X90567900Y-62996897D01*
X90535124Y-62832118D01*
X90470830Y-62676900D01*
X90470828Y-62676897D01*
X90470826Y-62676893D01*
X90377491Y-62537208D01*
X90377488Y-62537204D01*
X90258695Y-62418411D01*
X90258691Y-62418408D01*
X90119006Y-62325073D01*
X90118996Y-62325068D01*
X89963782Y-62260776D01*
X89963774Y-62260774D01*
X89799007Y-62228000D01*
X89799003Y-62228000D01*
X89630997Y-62228000D01*
X89572156Y-62239703D01*
X89501263Y-62253805D01*
X89431672Y-62247576D01*
X89381216Y-62210847D01*
X89377488Y-62206304D01*
X89258695Y-62087511D01*
X89258691Y-62087508D01*
X89119006Y-61994173D01*
X89118996Y-61994168D01*
X88963782Y-61929876D01*
X88963774Y-61929874D01*
X88799007Y-61897100D01*
X88799003Y-61897100D01*
X88630997Y-61897100D01*
X88630992Y-61897100D01*
X88466225Y-61929874D01*
X88466217Y-61929876D01*
X88311003Y-61994168D01*
X88310993Y-61994173D01*
X88171308Y-62087508D01*
X88171304Y-62087511D01*
X88052511Y-62206304D01*
X88052508Y-62206308D01*
X87959173Y-62345993D01*
X87959168Y-62346003D01*
X87894876Y-62501217D01*
X87894874Y-62501225D01*
X87862100Y-62665992D01*
X87862100Y-62834007D01*
X87894874Y-62998774D01*
X87894876Y-62998782D01*
X87959168Y-63153996D01*
X87959173Y-63154006D01*
X88052508Y-63293691D01*
X88052511Y-63293695D01*
X88171304Y-63412488D01*
X88171308Y-63412491D01*
X88310993Y-63505826D01*
X88310997Y-63505828D01*
X88311000Y-63505830D01*
X88466218Y-63570124D01*
X88630992Y-63602899D01*
X88630996Y-63602900D01*
X88630997Y-63602900D01*
X88799004Y-63602900D01*
X88799004Y-63602899D01*
X88928735Y-63577095D01*
X88998326Y-63583322D01*
X89048782Y-63620051D01*
X89052510Y-63624594D01*
X89171304Y-63743388D01*
X89171308Y-63743391D01*
X89310993Y-63836726D01*
X89310997Y-63836728D01*
X89311000Y-63836730D01*
X89466218Y-63901024D01*
X89535208Y-63914746D01*
X89597119Y-63947131D01*
X89631693Y-64007847D01*
X89627954Y-64077616D01*
X89587088Y-64134288D01*
X89568137Y-64145308D01*
X89568561Y-64146100D01*
X89563184Y-64148973D01*
X89423499Y-64242308D01*
X89423495Y-64242311D01*
X89304702Y-64361104D01*
X89304699Y-64361108D01*
X89211364Y-64500793D01*
X89211359Y-64500803D01*
X89147067Y-64656017D01*
X89147065Y-64656025D01*
X89114291Y-64820792D01*
X89114291Y-64988807D01*
X89146273Y-65149593D01*
X89140046Y-65219185D01*
X89097182Y-65274362D01*
X89048848Y-65295401D01*
X89001223Y-65304874D01*
X89001218Y-65304876D01*
X88940861Y-65329876D01*
X88871392Y-65337343D01*
X88824520Y-65318417D01*
X88713404Y-65244172D01*
X88713396Y-65244168D01*
X88558182Y-65179876D01*
X88558174Y-65179874D01*
X88393407Y-65147100D01*
X88393403Y-65147100D01*
X88225397Y-65147100D01*
X88225392Y-65147100D01*
X88060625Y-65179874D01*
X88060617Y-65179876D01*
X87905403Y-65244168D01*
X87905393Y-65244173D01*
X87765708Y-65337508D01*
X87765704Y-65337511D01*
X87646911Y-65456304D01*
X87646908Y-65456308D01*
X87553573Y-65595993D01*
X87553568Y-65596003D01*
X87489276Y-65751217D01*
X87489274Y-65751225D01*
X87456500Y-65915992D01*
X87000500Y-65915992D01*
X87000500Y-58055992D01*
X87622100Y-58055992D01*
X87622100Y-58224007D01*
X87654874Y-58388774D01*
X87654876Y-58388782D01*
X87719168Y-58543996D01*
X87719173Y-58544006D01*
X87812508Y-58683691D01*
X87812511Y-58683695D01*
X87931304Y-58802488D01*
X87931308Y-58802491D01*
X88070993Y-58895826D01*
X88070997Y-58895828D01*
X88071000Y-58895830D01*
X88226218Y-58960124D01*
X88390992Y-58992899D01*
X88390996Y-58992900D01*
X88390997Y-58992900D01*
X88559004Y-58992900D01*
X88559005Y-58992899D01*
X88723782Y-58960124D01*
X88738859Y-58953879D01*
X96042000Y-58953879D01*
X96042000Y-59141120D01*
X96078525Y-59324743D01*
X96078527Y-59324751D01*
X96150176Y-59497728D01*
X96150181Y-59497737D01*
X96254197Y-59653407D01*
X96254200Y-59653411D01*
X96386588Y-59785799D01*
X96386592Y-59785802D01*
X96542267Y-59889821D01*
X96543804Y-59890643D01*
X96544457Y-59891284D01*
X96547334Y-59893207D01*
X96546969Y-59893752D01*
X96593647Y-59939607D01*
X96609106Y-60007745D01*
X96585273Y-60073424D01*
X96547124Y-60106479D01*
X96547334Y-60106793D01*
X96544839Y-60108459D01*
X96543804Y-60109357D01*
X96542267Y-60110178D01*
X96386592Y-60214197D01*
X96386588Y-60214200D01*
X96254200Y-60346588D01*
X96254197Y-60346592D01*
X96150181Y-60502262D01*
X96150176Y-60502271D01*
X96078527Y-60675248D01*
X96078525Y-60675256D01*
X96042000Y-60858879D01*
X96042000Y-61046120D01*
X96078525Y-61229743D01*
X96078527Y-61229751D01*
X96150176Y-61402728D01*
X96150181Y-61402737D01*
X96254197Y-61558407D01*
X96254200Y-61558411D01*
X96386588Y-61690799D01*
X96386592Y-61690802D01*
X96542262Y-61794818D01*
X96542268Y-61794821D01*
X96542269Y-61794822D01*
X96715249Y-61866473D01*
X96898879Y-61902999D01*
X96898883Y-61903000D01*
X96898884Y-61903000D01*
X97086117Y-61903000D01*
X97086117Y-61902999D01*
X97186074Y-61883117D01*
X97255665Y-61889344D01*
X97310842Y-61932207D01*
X97334087Y-61998096D01*
X97331883Y-62028924D01*
X97312001Y-62128883D01*
X97312000Y-62128886D01*
X97312000Y-62316120D01*
X97348525Y-62499743D01*
X97348527Y-62499751D01*
X97420176Y-62672728D01*
X97420181Y-62672737D01*
X97524197Y-62828407D01*
X97524200Y-62828411D01*
X97656588Y-62960799D01*
X97656592Y-62960802D01*
X97812262Y-63064818D01*
X97812268Y-63064821D01*
X97812269Y-63064822D01*
X97985249Y-63136473D01*
X98168879Y-63172999D01*
X98168883Y-63173000D01*
X98168884Y-63173000D01*
X98356117Y-63173000D01*
X98356118Y-63172999D01*
X98539751Y-63136473D01*
X98712731Y-63064822D01*
X98868408Y-62960802D01*
X99000802Y-62828408D01*
X99104822Y-62672731D01*
X99104823Y-62672729D01*
X99105640Y-62671202D01*
X99106279Y-62670551D01*
X99108207Y-62667666D01*
X99108754Y-62668031D01*
X99154600Y-62621356D01*
X99222737Y-62605893D01*
X99288418Y-62629722D01*
X99321478Y-62667876D01*
X99321793Y-62667666D01*
X99323467Y-62670171D01*
X99324360Y-62671202D01*
X99325176Y-62672729D01*
X99429197Y-62828407D01*
X99429200Y-62828411D01*
X99561588Y-62960799D01*
X99561592Y-62960802D01*
X99717262Y-63064818D01*
X99717268Y-63064821D01*
X99717269Y-63064822D01*
X99890249Y-63136473D01*
X100073879Y-63172999D01*
X100073883Y-63173000D01*
X100073884Y-63173000D01*
X100261117Y-63173000D01*
X100261118Y-63172999D01*
X100444751Y-63136473D01*
X100617731Y-63064822D01*
X100773408Y-62960802D01*
X100905802Y-62828408D01*
X101009822Y-62672731D01*
X101012613Y-62665992D01*
X109897100Y-62665992D01*
X109897100Y-62834007D01*
X109929874Y-62998774D01*
X109929876Y-62998782D01*
X109994168Y-63153996D01*
X109994173Y-63154006D01*
X110087508Y-63293691D01*
X110087511Y-63293695D01*
X110206304Y-63412488D01*
X110206308Y-63412491D01*
X110345993Y-63505826D01*
X110345997Y-63505828D01*
X110346000Y-63505830D01*
X110501218Y-63570124D01*
X110665992Y-63602899D01*
X110665996Y-63602900D01*
X110665997Y-63602900D01*
X110834004Y-63602900D01*
X110834005Y-63602899D01*
X110998782Y-63570124D01*
X111154000Y-63505830D01*
X111293692Y-63412491D01*
X111412491Y-63293692D01*
X111505830Y-63154000D01*
X111570124Y-62998782D01*
X111602900Y-62834003D01*
X111602900Y-62665997D01*
X111570124Y-62501218D01*
X111505830Y-62346000D01*
X111505828Y-62345997D01*
X111505826Y-62345993D01*
X111412491Y-62206308D01*
X111412488Y-62206304D01*
X111293695Y-62087511D01*
X111293691Y-62087508D01*
X111154006Y-61994173D01*
X111153996Y-61994168D01*
X110998782Y-61929876D01*
X110998774Y-61929874D01*
X110834007Y-61897100D01*
X110834003Y-61897100D01*
X110665997Y-61897100D01*
X110665992Y-61897100D01*
X110501225Y-61929874D01*
X110501217Y-61929876D01*
X110346003Y-61994168D01*
X110345993Y-61994173D01*
X110206308Y-62087508D01*
X110206304Y-62087511D01*
X110087511Y-62206304D01*
X110087508Y-62206308D01*
X109994173Y-62345993D01*
X109994168Y-62346003D01*
X109929876Y-62501217D01*
X109929874Y-62501225D01*
X109897100Y-62665992D01*
X101012613Y-62665992D01*
X101027637Y-62629722D01*
X101034791Y-62612452D01*
X101034791Y-62612450D01*
X101037507Y-62605893D01*
X101081473Y-62499751D01*
X101118000Y-62316116D01*
X101118000Y-62128884D01*
X101098117Y-62028925D01*
X101104344Y-61959334D01*
X101147207Y-61904157D01*
X101213097Y-61880912D01*
X101243923Y-61883116D01*
X101343882Y-61902999D01*
X101343883Y-61903000D01*
X101343884Y-61903000D01*
X101531117Y-61903000D01*
X101531118Y-61902999D01*
X101714751Y-61866473D01*
X101887731Y-61794822D01*
X102043408Y-61690802D01*
X102175802Y-61558408D01*
X102279822Y-61402731D01*
X102351473Y-61229751D01*
X102351952Y-61227339D01*
X102352551Y-61226194D01*
X102353242Y-61223919D01*
X102353673Y-61224049D01*
X102384330Y-61165429D01*
X102445042Y-61130848D01*
X102514812Y-61134581D01*
X102571488Y-61175442D01*
X102588132Y-61204069D01*
X102619168Y-61278996D01*
X102619173Y-61279006D01*
X102712508Y-61418691D01*
X102712511Y-61418695D01*
X102831304Y-61537488D01*
X102831308Y-61537491D01*
X102970993Y-61630826D01*
X102970997Y-61630828D01*
X102971000Y-61630830D01*
X103126218Y-61695124D01*
X103290992Y-61727899D01*
X103290996Y-61727900D01*
X103290997Y-61727900D01*
X103459004Y-61727900D01*
X103459005Y-61727899D01*
X103623782Y-61695124D01*
X103779000Y-61630830D01*
X103918692Y-61537491D01*
X104037491Y-61418692D01*
X104130830Y-61279000D01*
X104195124Y-61123782D01*
X104227900Y-60959003D01*
X104227900Y-60950905D01*
X104247585Y-60883866D01*
X104300389Y-60838111D01*
X104327704Y-60829289D01*
X104373782Y-60820124D01*
X104529000Y-60755830D01*
X104668692Y-60662491D01*
X104787491Y-60543692D01*
X104880830Y-60404000D01*
X104945124Y-60248782D01*
X104977900Y-60084003D01*
X104977900Y-60036627D01*
X104997585Y-59969588D01*
X105050389Y-59923833D01*
X105054448Y-59922066D01*
X105153993Y-59880833D01*
X105153993Y-59880832D01*
X105154000Y-59880830D01*
X105293692Y-59787491D01*
X105412491Y-59668692D01*
X105505830Y-59529000D01*
X105552640Y-59415992D01*
X107897100Y-59415992D01*
X107897100Y-59584007D01*
X107929874Y-59748774D01*
X107929876Y-59748782D01*
X107994168Y-59903996D01*
X107994173Y-59904006D01*
X108087508Y-60043691D01*
X108087511Y-60043695D01*
X108206304Y-60162488D01*
X108206308Y-60162491D01*
X108345993Y-60255826D01*
X108345997Y-60255828D01*
X108346000Y-60255830D01*
X108501218Y-60320124D01*
X108634264Y-60346588D01*
X108665992Y-60352899D01*
X108665996Y-60352900D01*
X108665997Y-60352900D01*
X108834004Y-60352900D01*
X108834005Y-60352899D01*
X108998782Y-60320124D01*
X109154000Y-60255830D01*
X109293692Y-60162491D01*
X109412491Y-60043692D01*
X109505830Y-59904000D01*
X109570124Y-59748782D01*
X109602900Y-59584003D01*
X109602900Y-59415997D01*
X109570124Y-59251218D01*
X109505830Y-59096000D01*
X109505828Y-59095997D01*
X109505826Y-59095993D01*
X109412491Y-58956308D01*
X109412488Y-58956304D01*
X109293695Y-58837511D01*
X109293691Y-58837508D01*
X109154006Y-58744173D01*
X109153996Y-58744168D01*
X108998782Y-58679876D01*
X108998774Y-58679874D01*
X108834007Y-58647100D01*
X108834003Y-58647100D01*
X108665997Y-58647100D01*
X108665992Y-58647100D01*
X108501225Y-58679874D01*
X108501217Y-58679876D01*
X108346003Y-58744168D01*
X108345993Y-58744173D01*
X108206308Y-58837508D01*
X108206304Y-58837511D01*
X108087511Y-58956304D01*
X108087508Y-58956308D01*
X107994173Y-59095993D01*
X107994168Y-59096003D01*
X107929876Y-59251217D01*
X107929874Y-59251225D01*
X107897100Y-59415992D01*
X105552640Y-59415992D01*
X105570124Y-59373782D01*
X105602900Y-59209003D01*
X105602900Y-59040997D01*
X105570124Y-58876218D01*
X105505830Y-58721000D01*
X105505828Y-58720997D01*
X105505826Y-58720993D01*
X105412491Y-58581308D01*
X105412488Y-58581304D01*
X105293695Y-58462511D01*
X105293691Y-58462508D01*
X105154006Y-58369173D01*
X105153996Y-58369168D01*
X104998782Y-58304876D01*
X104998774Y-58304874D01*
X104834007Y-58272100D01*
X104834003Y-58272100D01*
X104665997Y-58272100D01*
X104665992Y-58272100D01*
X104501225Y-58304874D01*
X104501217Y-58304876D01*
X104346003Y-58369168D01*
X104345993Y-58369173D01*
X104206308Y-58462508D01*
X104206304Y-58462511D01*
X104087511Y-58581304D01*
X104087508Y-58581308D01*
X103994173Y-58720993D01*
X103994168Y-58721003D01*
X103929876Y-58876217D01*
X103929874Y-58876225D01*
X103897100Y-59040992D01*
X103897100Y-59088372D01*
X103877415Y-59155411D01*
X103824611Y-59201166D01*
X103820553Y-59202933D01*
X103721003Y-59244168D01*
X103720993Y-59244173D01*
X103581308Y-59337508D01*
X103581304Y-59337511D01*
X103462511Y-59456304D01*
X103462508Y-59456308D01*
X103369173Y-59595993D01*
X103369168Y-59596003D01*
X103304876Y-59751217D01*
X103304874Y-59751225D01*
X103272100Y-59915992D01*
X103272100Y-59924094D01*
X103252415Y-59991133D01*
X103199611Y-60036888D01*
X103172291Y-60045711D01*
X103126225Y-60054874D01*
X103126217Y-60054876D01*
X102971003Y-60119168D01*
X102970993Y-60119173D01*
X102831308Y-60212508D01*
X102831304Y-60212511D01*
X102712511Y-60331304D01*
X102712508Y-60331308D01*
X102619173Y-60470993D01*
X102619170Y-60470999D01*
X102557580Y-60619689D01*
X102513738Y-60674092D01*
X102447444Y-60696156D01*
X102379745Y-60678876D01*
X102332135Y-60627739D01*
X102328458Y-60619687D01*
X102279825Y-60502275D01*
X102279818Y-60502262D01*
X102175802Y-60346592D01*
X102175799Y-60346588D01*
X102043411Y-60214200D01*
X102043407Y-60214197D01*
X101887729Y-60110176D01*
X101886202Y-60109360D01*
X101885551Y-60108720D01*
X101882666Y-60106793D01*
X101883031Y-60106245D01*
X101836356Y-60060400D01*
X101820893Y-59992263D01*
X101844722Y-59926582D01*
X101882876Y-59893521D01*
X101882666Y-59893207D01*
X101885171Y-59891532D01*
X101886202Y-59890640D01*
X101887729Y-59889823D01*
X101887729Y-59889822D01*
X101887731Y-59889822D01*
X102043408Y-59785802D01*
X102175802Y-59653408D01*
X102279822Y-59497731D01*
X102351473Y-59324751D01*
X102388000Y-59141116D01*
X102388000Y-58953884D01*
X102351473Y-58770249D01*
X102282955Y-58604833D01*
X102279823Y-58597271D01*
X102279818Y-58597262D01*
X102175802Y-58441592D01*
X102175799Y-58441588D01*
X102043411Y-58309200D01*
X102043407Y-58309197D01*
X101887737Y-58205181D01*
X101887728Y-58205176D01*
X101714751Y-58133527D01*
X101714743Y-58133525D01*
X101531120Y-58097000D01*
X101531116Y-58097000D01*
X101343884Y-58097000D01*
X101243925Y-58116883D01*
X101211230Y-58113957D01*
X101178480Y-58112201D01*
X101176619Y-58110859D01*
X101174333Y-58110655D01*
X101148414Y-58090520D01*
X101121808Y-58071334D01*
X101120967Y-58069198D01*
X101119156Y-58067791D01*
X101108245Y-58036862D01*
X101096227Y-58006316D01*
X101096390Y-58003258D01*
X101095912Y-58001901D01*
X101098117Y-57971073D01*
X101109074Y-57915992D01*
X109397100Y-57915992D01*
X109397100Y-58084007D01*
X109429874Y-58248774D01*
X109429876Y-58248782D01*
X109494168Y-58403996D01*
X109494173Y-58404006D01*
X109587508Y-58543691D01*
X109587511Y-58543695D01*
X109706304Y-58662488D01*
X109706308Y-58662491D01*
X109845993Y-58755826D01*
X109845997Y-58755828D01*
X109846000Y-58755830D01*
X110001218Y-58820124D01*
X110124722Y-58844690D01*
X110165992Y-58852899D01*
X110165996Y-58852900D01*
X110165997Y-58852900D01*
X110334004Y-58852900D01*
X110334005Y-58852899D01*
X110411385Y-58837508D01*
X110498909Y-58820099D01*
X110568501Y-58826326D01*
X110623678Y-58869189D01*
X110646922Y-58935079D01*
X110647100Y-58941716D01*
X110647100Y-59084007D01*
X110679874Y-59248774D01*
X110679876Y-59248782D01*
X110744168Y-59403996D01*
X110744173Y-59404006D01*
X110837508Y-59543691D01*
X110837511Y-59543695D01*
X110956304Y-59662488D01*
X110956308Y-59662491D01*
X111095993Y-59755826D01*
X111095997Y-59755828D01*
X111096000Y-59755830D01*
X111251218Y-59820124D01*
X111415992Y-59852899D01*
X111415996Y-59852900D01*
X111415997Y-59852900D01*
X111584004Y-59852900D01*
X111584005Y-59852899D01*
X111748782Y-59820124D01*
X111904000Y-59755830D01*
X112043692Y-59662491D01*
X112162491Y-59543692D01*
X112255830Y-59404000D01*
X112320124Y-59248782D01*
X112352900Y-59084003D01*
X112352900Y-58915997D01*
X112320124Y-58751218D01*
X112255830Y-58596000D01*
X112255828Y-58595997D01*
X112255826Y-58595993D01*
X112162491Y-58456308D01*
X112162488Y-58456304D01*
X112043695Y-58337511D01*
X112043691Y-58337508D01*
X111904006Y-58244173D01*
X111903996Y-58244168D01*
X111748782Y-58179876D01*
X111748774Y-58179874D01*
X111584007Y-58147100D01*
X111584003Y-58147100D01*
X111415997Y-58147100D01*
X111366241Y-58156996D01*
X111251090Y-58179901D01*
X111181499Y-58173672D01*
X111126322Y-58130809D01*
X111103078Y-58064919D01*
X111102900Y-58058283D01*
X111102900Y-57915996D01*
X111102899Y-57915992D01*
X111096877Y-57885715D01*
X111070124Y-57751218D01*
X111005830Y-57596000D01*
X111005828Y-57595997D01*
X111005826Y-57595993D01*
X110912491Y-57456308D01*
X110912488Y-57456304D01*
X110793695Y-57337511D01*
X110793691Y-57337508D01*
X110654006Y-57244173D01*
X110653996Y-57244168D01*
X110498782Y-57179876D01*
X110498774Y-57179874D01*
X110334007Y-57147100D01*
X110334003Y-57147100D01*
X110165997Y-57147100D01*
X110165992Y-57147100D01*
X110001225Y-57179874D01*
X110001217Y-57179876D01*
X109846003Y-57244168D01*
X109845993Y-57244173D01*
X109706308Y-57337508D01*
X109706304Y-57337511D01*
X109587511Y-57456304D01*
X109587508Y-57456308D01*
X109494173Y-57595993D01*
X109494168Y-57596003D01*
X109429876Y-57751217D01*
X109429874Y-57751225D01*
X109397100Y-57915992D01*
X101109074Y-57915992D01*
X101115092Y-57885736D01*
X101115096Y-57885715D01*
X101118000Y-57871114D01*
X101118000Y-57683883D01*
X101117999Y-57683879D01*
X101115803Y-57672837D01*
X101081473Y-57500249D01*
X101014751Y-57339168D01*
X101009823Y-57327271D01*
X101009818Y-57327262D01*
X100905802Y-57171592D01*
X100905799Y-57171588D01*
X100773411Y-57039200D01*
X100773407Y-57039197D01*
X100617737Y-56935181D01*
X100617728Y-56935176D01*
X100444751Y-56863527D01*
X100444743Y-56863525D01*
X100261120Y-56827000D01*
X100261116Y-56827000D01*
X100073884Y-56827000D01*
X100073879Y-56827000D01*
X99890256Y-56863525D01*
X99890248Y-56863527D01*
X99717271Y-56935176D01*
X99717262Y-56935181D01*
X99561592Y-57039197D01*
X99561588Y-57039200D01*
X99429200Y-57171588D01*
X99429197Y-57171592D01*
X99325178Y-57327267D01*
X99324357Y-57328804D01*
X99323715Y-57329457D01*
X99321793Y-57332334D01*
X99321247Y-57331969D01*
X99275393Y-57378647D01*
X99207255Y-57394106D01*
X99141576Y-57370273D01*
X99108520Y-57332124D01*
X99108207Y-57332334D01*
X99106540Y-57329839D01*
X99105643Y-57328804D01*
X99104821Y-57327267D01*
X99000802Y-57171592D01*
X99000799Y-57171588D01*
X98868411Y-57039200D01*
X98868407Y-57039197D01*
X98712737Y-56935181D01*
X98712728Y-56935176D01*
X98539751Y-56863527D01*
X98539743Y-56863525D01*
X98356120Y-56827000D01*
X98356116Y-56827000D01*
X98168884Y-56827000D01*
X98168879Y-56827000D01*
X97985256Y-56863525D01*
X97985248Y-56863527D01*
X97812271Y-56935176D01*
X97812262Y-56935181D01*
X97656592Y-57039197D01*
X97656588Y-57039200D01*
X97524200Y-57171588D01*
X97524197Y-57171592D01*
X97420181Y-57327262D01*
X97420176Y-57327271D01*
X97348527Y-57500248D01*
X97348525Y-57500256D01*
X97312000Y-57683879D01*
X97312000Y-57871120D01*
X97331882Y-57971074D01*
X97325655Y-58040666D01*
X97282791Y-58095843D01*
X97216902Y-58119087D01*
X97186074Y-58116882D01*
X97086120Y-58097000D01*
X97086116Y-58097000D01*
X96898884Y-58097000D01*
X96898879Y-58097000D01*
X96715256Y-58133525D01*
X96715248Y-58133527D01*
X96542271Y-58205176D01*
X96542262Y-58205181D01*
X96386592Y-58309197D01*
X96386588Y-58309200D01*
X96254200Y-58441588D01*
X96254197Y-58441592D01*
X96150181Y-58597262D01*
X96150176Y-58597271D01*
X96078527Y-58770248D01*
X96078525Y-58770256D01*
X96042000Y-58953879D01*
X88738859Y-58953879D01*
X88879000Y-58895830D01*
X89018692Y-58802491D01*
X89137491Y-58683692D01*
X89230830Y-58544000D01*
X89295124Y-58388782D01*
X89327900Y-58224003D01*
X89327900Y-58055997D01*
X89318948Y-58010992D01*
X92289100Y-58010992D01*
X92289100Y-58179007D01*
X92321874Y-58343774D01*
X92321876Y-58343782D01*
X92386168Y-58498996D01*
X92386173Y-58499006D01*
X92479508Y-58638691D01*
X92479511Y-58638695D01*
X92598304Y-58757488D01*
X92598308Y-58757491D01*
X92737993Y-58850826D01*
X92737997Y-58850828D01*
X92738000Y-58850830D01*
X92893218Y-58915124D01*
X93057992Y-58947899D01*
X93057996Y-58947900D01*
X93057997Y-58947900D01*
X93226004Y-58947900D01*
X93226005Y-58947899D01*
X93390782Y-58915124D01*
X93546000Y-58850830D01*
X93551020Y-58847475D01*
X93555190Y-58844690D01*
X93618349Y-58802488D01*
X93685692Y-58757491D01*
X93804491Y-58638692D01*
X93897830Y-58499000D01*
X93962124Y-58343782D01*
X93994900Y-58179003D01*
X93994900Y-58010997D01*
X93962124Y-57846218D01*
X93897830Y-57691000D01*
X93897828Y-57690997D01*
X93897826Y-57690993D01*
X93804491Y-57551308D01*
X93804488Y-57551304D01*
X93685695Y-57432511D01*
X93685691Y-57432508D01*
X93546006Y-57339173D01*
X93545996Y-57339168D01*
X93390782Y-57274876D01*
X93390774Y-57274874D01*
X93226007Y-57242100D01*
X93226003Y-57242100D01*
X93057997Y-57242100D01*
X93057992Y-57242100D01*
X92893225Y-57274874D01*
X92893217Y-57274876D01*
X92738003Y-57339168D01*
X92737993Y-57339173D01*
X92598308Y-57432508D01*
X92598304Y-57432511D01*
X92479511Y-57551304D01*
X92479508Y-57551308D01*
X92386173Y-57690993D01*
X92386168Y-57691003D01*
X92321876Y-57846217D01*
X92321874Y-57846225D01*
X92289100Y-58010992D01*
X89318948Y-58010992D01*
X89295124Y-57891218D01*
X89288139Y-57874356D01*
X89285793Y-57863794D01*
X89287436Y-57839297D01*
X89284811Y-57814885D01*
X89289733Y-57805051D01*
X89290469Y-57794081D01*
X89305095Y-57774360D01*
X89316085Y-57752406D01*
X89325540Y-57746795D01*
X89332092Y-57737962D01*
X89355060Y-57729279D01*
X89376173Y-57716752D01*
X89394184Y-57714489D01*
X89397448Y-57713256D01*
X89399881Y-57713774D01*
X89406841Y-57712900D01*
X89539004Y-57712900D01*
X89539005Y-57712899D01*
X89703782Y-57680124D01*
X89859000Y-57615830D01*
X89998692Y-57522491D01*
X90117491Y-57403692D01*
X90210830Y-57264000D01*
X90275124Y-57108782D01*
X90307900Y-56944003D01*
X90307900Y-56775997D01*
X90275124Y-56611218D01*
X90210830Y-56456000D01*
X90210828Y-56455997D01*
X90210826Y-56455993D01*
X90117491Y-56316308D01*
X90117488Y-56316304D01*
X89998695Y-56197511D01*
X89998691Y-56197508D01*
X89859006Y-56104173D01*
X89858996Y-56104168D01*
X89703782Y-56039876D01*
X89703774Y-56039874D01*
X89539007Y-56007100D01*
X89539003Y-56007100D01*
X89370997Y-56007100D01*
X89370992Y-56007100D01*
X89206225Y-56039874D01*
X89206217Y-56039876D01*
X89051003Y-56104168D01*
X89050993Y-56104173D01*
X88911308Y-56197508D01*
X88911304Y-56197511D01*
X88792511Y-56316304D01*
X88792508Y-56316308D01*
X88699173Y-56455993D01*
X88699168Y-56456003D01*
X88634876Y-56611217D01*
X88634874Y-56611225D01*
X88602100Y-56775992D01*
X88602100Y-56944007D01*
X88634874Y-57108774D01*
X88634876Y-57108783D01*
X88637719Y-57115645D01*
X88645189Y-57185115D01*
X88613915Y-57247594D01*
X88553827Y-57283248D01*
X88523159Y-57287100D01*
X88390992Y-57287100D01*
X88226225Y-57319874D01*
X88226217Y-57319876D01*
X88071003Y-57384168D01*
X88070993Y-57384173D01*
X87931308Y-57477508D01*
X87931304Y-57477511D01*
X87812511Y-57596304D01*
X87812508Y-57596308D01*
X87719173Y-57735993D01*
X87719168Y-57736003D01*
X87654876Y-57891217D01*
X87654874Y-57891225D01*
X87622100Y-58055992D01*
X87000500Y-58055992D01*
X87000500Y-55165992D01*
X102397100Y-55165992D01*
X102397100Y-55334007D01*
X102429874Y-55498774D01*
X102429876Y-55498782D01*
X102494168Y-55653996D01*
X102494173Y-55654006D01*
X102587508Y-55793691D01*
X102587511Y-55793695D01*
X102706304Y-55912488D01*
X102706308Y-55912491D01*
X102845993Y-56005826D01*
X102845997Y-56005828D01*
X102846000Y-56005830D01*
X103001218Y-56070124D01*
X103165992Y-56102899D01*
X103165996Y-56102900D01*
X103165997Y-56102900D01*
X103334004Y-56102900D01*
X103334005Y-56102899D01*
X103498782Y-56070124D01*
X103654000Y-56005830D01*
X103743609Y-55945954D01*
X103810286Y-55925077D01*
X103877666Y-55943561D01*
X103881378Y-55945947D01*
X103971000Y-56005830D01*
X104126218Y-56070124D01*
X104290992Y-56102899D01*
X104290996Y-56102900D01*
X104290997Y-56102900D01*
X104459004Y-56102900D01*
X104459005Y-56102899D01*
X104623782Y-56070124D01*
X104779000Y-56005830D01*
X104913452Y-55915992D01*
X107897100Y-55915992D01*
X107897100Y-56084007D01*
X107929874Y-56248774D01*
X107929876Y-56248782D01*
X107994168Y-56403996D01*
X107994173Y-56404006D01*
X108087508Y-56543691D01*
X108087511Y-56543695D01*
X108206304Y-56662488D01*
X108206308Y-56662491D01*
X108345993Y-56755826D01*
X108345997Y-56755828D01*
X108346000Y-56755830D01*
X108501218Y-56820124D01*
X108665992Y-56852899D01*
X108665996Y-56852900D01*
X108665997Y-56852900D01*
X108834004Y-56852900D01*
X108834005Y-56852899D01*
X108998782Y-56820124D01*
X109154000Y-56755830D01*
X109293692Y-56662491D01*
X109412491Y-56543692D01*
X109505830Y-56404000D01*
X109570124Y-56248782D01*
X109602900Y-56084003D01*
X109602900Y-55915997D01*
X109570124Y-55751218D01*
X109505830Y-55596000D01*
X109505828Y-55595997D01*
X109505826Y-55595993D01*
X109412491Y-55456308D01*
X109412488Y-55456304D01*
X109293695Y-55337511D01*
X109293691Y-55337508D01*
X109154006Y-55244173D01*
X109153996Y-55244168D01*
X108998782Y-55179876D01*
X108998774Y-55179874D01*
X108834007Y-55147100D01*
X108834003Y-55147100D01*
X108665997Y-55147100D01*
X108665992Y-55147100D01*
X108501225Y-55179874D01*
X108501217Y-55179876D01*
X108346003Y-55244168D01*
X108345993Y-55244173D01*
X108206308Y-55337508D01*
X108206304Y-55337511D01*
X108087511Y-55456304D01*
X108087508Y-55456308D01*
X107994173Y-55595993D01*
X107994168Y-55596003D01*
X107929876Y-55751217D01*
X107929874Y-55751225D01*
X107897100Y-55915992D01*
X104913452Y-55915992D01*
X104918692Y-55912491D01*
X104937500Y-55893683D01*
X105008960Y-55822224D01*
X105037488Y-55793695D01*
X105037491Y-55793692D01*
X105130830Y-55654000D01*
X105195124Y-55498782D01*
X105227900Y-55334003D01*
X105227900Y-55165997D01*
X105195124Y-55001218D01*
X105130830Y-54846000D01*
X105130828Y-54845997D01*
X105130826Y-54845993D01*
X105037491Y-54706308D01*
X105037488Y-54706304D01*
X104918695Y-54587511D01*
X104918691Y-54587508D01*
X104807193Y-54513007D01*
X104779004Y-54494172D01*
X104778996Y-54494168D01*
X104623782Y-54429876D01*
X104623774Y-54429874D01*
X104553984Y-54415992D01*
X109397100Y-54415992D01*
X109397100Y-54584007D01*
X109429874Y-54748774D01*
X109429876Y-54748782D01*
X109494168Y-54903996D01*
X109494173Y-54904006D01*
X109587508Y-55043691D01*
X109587511Y-55043695D01*
X109706304Y-55162488D01*
X109706308Y-55162491D01*
X109845993Y-55255826D01*
X109845997Y-55255828D01*
X109846000Y-55255830D01*
X110001218Y-55320124D01*
X110165992Y-55352899D01*
X110165996Y-55352900D01*
X110165997Y-55352900D01*
X110334004Y-55352900D01*
X110334005Y-55352899D01*
X110498782Y-55320124D01*
X110654000Y-55255830D01*
X110793692Y-55162491D01*
X110912491Y-55043692D01*
X111005830Y-54904000D01*
X111070124Y-54748782D01*
X111102900Y-54584003D01*
X111102900Y-54415997D01*
X111070124Y-54251218D01*
X111005830Y-54096000D01*
X111005828Y-54095997D01*
X111005826Y-54095993D01*
X110912491Y-53956308D01*
X110912488Y-53956304D01*
X110793695Y-53837511D01*
X110793691Y-53837508D01*
X110654006Y-53744173D01*
X110653996Y-53744168D01*
X110498782Y-53679876D01*
X110498774Y-53679874D01*
X110334007Y-53647100D01*
X110334003Y-53647100D01*
X110165997Y-53647100D01*
X110165992Y-53647100D01*
X110001225Y-53679874D01*
X110001217Y-53679876D01*
X109846003Y-53744168D01*
X109845993Y-53744173D01*
X109706308Y-53837508D01*
X109706304Y-53837511D01*
X109587511Y-53956304D01*
X109587508Y-53956308D01*
X109494173Y-54095993D01*
X109494168Y-54096003D01*
X109429876Y-54251217D01*
X109429874Y-54251225D01*
X109397100Y-54415992D01*
X104553984Y-54415992D01*
X104459007Y-54397100D01*
X104459003Y-54397100D01*
X104290997Y-54397100D01*
X104290992Y-54397100D01*
X104126225Y-54429874D01*
X104126217Y-54429876D01*
X103971003Y-54494168D01*
X103970993Y-54494173D01*
X103881391Y-54554044D01*
X103814713Y-54574922D01*
X103747333Y-54556437D01*
X103743609Y-54554044D01*
X103654006Y-54494173D01*
X103653996Y-54494168D01*
X103498782Y-54429876D01*
X103498774Y-54429874D01*
X103334007Y-54397100D01*
X103334003Y-54397100D01*
X103165997Y-54397100D01*
X103165992Y-54397100D01*
X103001225Y-54429874D01*
X103001217Y-54429876D01*
X102846003Y-54494168D01*
X102845993Y-54494173D01*
X102706308Y-54587508D01*
X102706304Y-54587511D01*
X102587511Y-54706304D01*
X102587508Y-54706308D01*
X102494173Y-54845993D01*
X102494168Y-54846003D01*
X102429876Y-55001217D01*
X102429874Y-55001225D01*
X102397100Y-55165992D01*
X87000500Y-55165992D01*
X87000500Y-53415992D01*
X88647100Y-53415992D01*
X88647100Y-53584007D01*
X88679874Y-53748774D01*
X88679876Y-53748782D01*
X88744168Y-53903996D01*
X88744173Y-53904006D01*
X88837508Y-54043691D01*
X88837511Y-54043695D01*
X88956304Y-54162488D01*
X88956308Y-54162491D01*
X89095993Y-54255826D01*
X89095997Y-54255828D01*
X89096000Y-54255830D01*
X89251218Y-54320124D01*
X89415992Y-54352899D01*
X89415996Y-54352900D01*
X89415997Y-54352900D01*
X89584004Y-54352900D01*
X89584005Y-54352899D01*
X89748782Y-54320124D01*
X89904000Y-54255830D01*
X90043692Y-54162491D01*
X90162491Y-54043692D01*
X90255830Y-53904000D01*
X90302640Y-53790992D01*
X99022100Y-53790992D01*
X99022100Y-53959007D01*
X99054874Y-54123774D01*
X99054876Y-54123782D01*
X99119168Y-54278996D01*
X99119173Y-54279006D01*
X99212508Y-54418691D01*
X99212511Y-54418695D01*
X99331304Y-54537488D01*
X99331308Y-54537491D01*
X99470993Y-54630826D01*
X99470997Y-54630828D01*
X99471000Y-54630830D01*
X99626218Y-54695124D01*
X99790992Y-54727899D01*
X99790996Y-54727900D01*
X99790997Y-54727900D01*
X99959004Y-54727900D01*
X99959005Y-54727899D01*
X100123782Y-54695124D01*
X100279000Y-54630830D01*
X100418692Y-54537491D01*
X100537491Y-54418692D01*
X100630830Y-54279000D01*
X100695124Y-54123782D01*
X100727900Y-53959003D01*
X100727900Y-53790997D01*
X100695124Y-53626218D01*
X100630830Y-53471000D01*
X100630828Y-53470997D01*
X100630826Y-53470993D01*
X100537491Y-53331308D01*
X100537488Y-53331304D01*
X100418695Y-53212511D01*
X100418691Y-53212508D01*
X100307193Y-53138007D01*
X100279004Y-53119172D01*
X100278996Y-53119168D01*
X100123782Y-53054876D01*
X100123774Y-53054874D01*
X100053984Y-53040992D01*
X106147100Y-53040992D01*
X106147100Y-53209007D01*
X106179874Y-53373774D01*
X106179876Y-53373782D01*
X106244168Y-53528996D01*
X106244173Y-53529006D01*
X106337508Y-53668691D01*
X106337511Y-53668695D01*
X106456304Y-53787488D01*
X106456308Y-53787491D01*
X106595993Y-53880826D01*
X106595997Y-53880828D01*
X106596000Y-53880830D01*
X106751218Y-53945124D01*
X106915992Y-53977899D01*
X106915996Y-53977900D01*
X106915997Y-53977900D01*
X107084004Y-53977900D01*
X107084005Y-53977899D01*
X107248782Y-53945124D01*
X107404000Y-53880830D01*
X107543692Y-53787491D01*
X107662491Y-53668692D01*
X107755830Y-53529000D01*
X107820124Y-53373782D01*
X107852900Y-53209003D01*
X107852900Y-53101348D01*
X107872585Y-53034309D01*
X107925389Y-52988554D01*
X107994547Y-52978610D01*
X108058103Y-53007635D01*
X108080003Y-53032459D01*
X108087507Y-53043690D01*
X108087511Y-53043695D01*
X108206304Y-53162488D01*
X108206308Y-53162491D01*
X108345993Y-53255826D01*
X108345997Y-53255828D01*
X108346000Y-53255830D01*
X108501218Y-53320124D01*
X108665992Y-53352899D01*
X108665996Y-53352900D01*
X108665997Y-53352900D01*
X108834004Y-53352900D01*
X108834005Y-53352899D01*
X108998782Y-53320124D01*
X109154000Y-53255830D01*
X109293692Y-53162491D01*
X109412491Y-53043692D01*
X109505830Y-52904000D01*
X109570124Y-52748782D01*
X109602900Y-52584003D01*
X109602900Y-52415997D01*
X109570124Y-52251218D01*
X109505830Y-52096000D01*
X109505828Y-52095997D01*
X109505826Y-52095993D01*
X109412491Y-51956308D01*
X109412488Y-51956304D01*
X109293695Y-51837511D01*
X109293691Y-51837508D01*
X109154006Y-51744173D01*
X109153996Y-51744168D01*
X108998782Y-51679876D01*
X108998774Y-51679874D01*
X108834007Y-51647100D01*
X108834003Y-51647100D01*
X108665997Y-51647100D01*
X108665992Y-51647100D01*
X108501225Y-51679874D01*
X108501217Y-51679876D01*
X108346003Y-51744168D01*
X108345993Y-51744173D01*
X108206308Y-51837508D01*
X108206304Y-51837511D01*
X108087511Y-51956304D01*
X108087508Y-51956308D01*
X107994173Y-52095993D01*
X107994168Y-52096003D01*
X107929876Y-52251217D01*
X107929874Y-52251225D01*
X107897100Y-52415992D01*
X107897100Y-52523651D01*
X107877415Y-52590690D01*
X107824611Y-52636445D01*
X107755453Y-52646389D01*
X107691897Y-52617364D01*
X107669999Y-52592543D01*
X107662493Y-52581310D01*
X107662488Y-52581304D01*
X107543695Y-52462511D01*
X107543691Y-52462508D01*
X107404006Y-52369173D01*
X107403996Y-52369168D01*
X107248782Y-52304876D01*
X107248774Y-52304874D01*
X107084007Y-52272100D01*
X107084003Y-52272100D01*
X106915997Y-52272100D01*
X106915992Y-52272100D01*
X106751225Y-52304874D01*
X106751217Y-52304876D01*
X106596003Y-52369168D01*
X106595993Y-52369173D01*
X106456308Y-52462508D01*
X106456304Y-52462511D01*
X106337511Y-52581304D01*
X106337508Y-52581308D01*
X106244173Y-52720993D01*
X106244168Y-52721003D01*
X106179876Y-52876217D01*
X106179874Y-52876225D01*
X106147100Y-53040992D01*
X100053984Y-53040992D01*
X99959007Y-53022100D01*
X99959003Y-53022100D01*
X99790997Y-53022100D01*
X99790992Y-53022100D01*
X99626225Y-53054874D01*
X99626217Y-53054876D01*
X99471003Y-53119168D01*
X99470993Y-53119173D01*
X99331308Y-53212508D01*
X99331304Y-53212511D01*
X99212511Y-53331304D01*
X99212508Y-53331308D01*
X99119173Y-53470993D01*
X99119168Y-53471003D01*
X99054876Y-53626217D01*
X99054874Y-53626225D01*
X99022100Y-53790992D01*
X90302640Y-53790992D01*
X90320124Y-53748782D01*
X90352900Y-53584003D01*
X90352900Y-53415997D01*
X90320124Y-53251218D01*
X90255830Y-53096000D01*
X90255828Y-53095997D01*
X90255826Y-53095993D01*
X90162491Y-52956308D01*
X90162488Y-52956304D01*
X90043695Y-52837511D01*
X90043691Y-52837508D01*
X89904006Y-52744173D01*
X89903996Y-52744168D01*
X89748782Y-52679876D01*
X89748774Y-52679874D01*
X89584007Y-52647100D01*
X89584003Y-52647100D01*
X89415997Y-52647100D01*
X89415992Y-52647100D01*
X89251225Y-52679874D01*
X89251217Y-52679876D01*
X89096003Y-52744168D01*
X89095993Y-52744173D01*
X88956308Y-52837508D01*
X88956304Y-52837511D01*
X88837511Y-52956304D01*
X88837508Y-52956308D01*
X88744173Y-53095993D01*
X88744168Y-53096003D01*
X88679876Y-53251217D01*
X88679874Y-53251225D01*
X88647100Y-53415992D01*
X87000500Y-53415992D01*
X87000500Y-49665992D01*
X88647100Y-49665992D01*
X88647100Y-49834007D01*
X88679874Y-49998774D01*
X88679876Y-49998782D01*
X88744168Y-50153996D01*
X88744173Y-50154006D01*
X88837508Y-50293691D01*
X88837511Y-50293695D01*
X88956304Y-50412488D01*
X88956308Y-50412491D01*
X89095993Y-50505826D01*
X89095997Y-50505828D01*
X89096000Y-50505830D01*
X89251218Y-50570124D01*
X89381273Y-50595993D01*
X89415992Y-50602899D01*
X89415996Y-50602900D01*
X89415997Y-50602900D01*
X89584004Y-50602900D01*
X89584005Y-50602899D01*
X89748782Y-50570124D01*
X89904000Y-50505830D01*
X90038452Y-50415992D01*
X91897100Y-50415992D01*
X91897100Y-50584007D01*
X91929874Y-50748774D01*
X91929876Y-50748782D01*
X91994168Y-50903996D01*
X91994173Y-50904006D01*
X92087508Y-51043691D01*
X92087511Y-51043695D01*
X92206304Y-51162488D01*
X92206308Y-51162491D01*
X92345993Y-51255826D01*
X92345997Y-51255828D01*
X92346000Y-51255830D01*
X92501218Y-51320124D01*
X92665992Y-51352899D01*
X92665996Y-51352900D01*
X92665997Y-51352900D01*
X92834004Y-51352900D01*
X92834005Y-51352899D01*
X92998782Y-51320124D01*
X93154000Y-51255830D01*
X93293692Y-51162491D01*
X93412491Y-51043692D01*
X93505830Y-50904000D01*
X93570124Y-50748782D01*
X93602900Y-50584003D01*
X93602900Y-50415997D01*
X93602899Y-50415992D01*
X98397100Y-50415992D01*
X98397100Y-50584007D01*
X98429874Y-50748774D01*
X98429876Y-50748782D01*
X98494168Y-50903996D01*
X98494173Y-50904006D01*
X98587508Y-51043691D01*
X98587511Y-51043695D01*
X98706304Y-51162488D01*
X98706308Y-51162491D01*
X98845993Y-51255826D01*
X98845997Y-51255828D01*
X98846000Y-51255830D01*
X99001218Y-51320124D01*
X99165992Y-51352899D01*
X99165996Y-51352900D01*
X99165997Y-51352900D01*
X99334004Y-51352900D01*
X99334005Y-51352899D01*
X99498782Y-51320124D01*
X99654000Y-51255830D01*
X99793692Y-51162491D01*
X99912491Y-51043692D01*
X99997817Y-50915992D01*
X109647100Y-50915992D01*
X109647100Y-51084007D01*
X109679874Y-51248774D01*
X109679876Y-51248782D01*
X109744168Y-51403996D01*
X109744173Y-51404006D01*
X109837508Y-51543691D01*
X109837511Y-51543695D01*
X109956304Y-51662488D01*
X109956308Y-51662491D01*
X110095993Y-51755826D01*
X110095997Y-51755828D01*
X110096000Y-51755830D01*
X110251218Y-51820124D01*
X110415992Y-51852899D01*
X110415996Y-51852900D01*
X110415997Y-51852900D01*
X110584004Y-51852900D01*
X110584005Y-51852899D01*
X110748782Y-51820124D01*
X110904000Y-51755830D01*
X111043692Y-51662491D01*
X111162491Y-51543692D01*
X111255830Y-51404000D01*
X111320124Y-51248782D01*
X111352900Y-51084003D01*
X111352900Y-50915997D01*
X111320124Y-50751218D01*
X111255830Y-50596000D01*
X111255828Y-50595997D01*
X111255826Y-50595993D01*
X111162491Y-50456308D01*
X111162488Y-50456304D01*
X111043695Y-50337511D01*
X111043691Y-50337508D01*
X110904006Y-50244173D01*
X110903996Y-50244168D01*
X110748782Y-50179876D01*
X110748774Y-50179874D01*
X110584007Y-50147100D01*
X110584003Y-50147100D01*
X110415997Y-50147100D01*
X110415992Y-50147100D01*
X110251225Y-50179874D01*
X110251217Y-50179876D01*
X110096003Y-50244168D01*
X110095993Y-50244173D01*
X109956308Y-50337508D01*
X109956304Y-50337511D01*
X109837511Y-50456304D01*
X109837508Y-50456308D01*
X109744173Y-50595993D01*
X109744168Y-50596003D01*
X109679876Y-50751217D01*
X109679874Y-50751225D01*
X109647100Y-50915992D01*
X99997817Y-50915992D01*
X100005830Y-50904000D01*
X100070124Y-50748782D01*
X100102900Y-50584003D01*
X100102900Y-50415997D01*
X100070124Y-50251218D01*
X100005830Y-50096000D01*
X100005828Y-50095997D01*
X100005826Y-50095993D01*
X99912491Y-49956308D01*
X99912488Y-49956304D01*
X99793695Y-49837511D01*
X99793691Y-49837508D01*
X99682193Y-49763007D01*
X99654004Y-49744172D01*
X99653996Y-49744168D01*
X99498782Y-49679876D01*
X99498774Y-49679874D01*
X99428984Y-49665992D01*
X106272100Y-49665992D01*
X106272100Y-49834007D01*
X106304874Y-49998774D01*
X106304876Y-49998782D01*
X106369168Y-50153996D01*
X106369173Y-50154006D01*
X106462508Y-50293691D01*
X106462511Y-50293695D01*
X106581304Y-50412488D01*
X106581308Y-50412491D01*
X106720993Y-50505826D01*
X106720997Y-50505828D01*
X106721000Y-50505830D01*
X106876218Y-50570124D01*
X107006273Y-50595993D01*
X107040992Y-50602899D01*
X107040996Y-50602900D01*
X107040997Y-50602900D01*
X107209004Y-50602900D01*
X107209005Y-50602899D01*
X107373782Y-50570124D01*
X107529000Y-50505830D01*
X107668692Y-50412491D01*
X107668695Y-50412488D01*
X107739319Y-50341865D01*
X107800642Y-50308380D01*
X107870334Y-50313364D01*
X107914681Y-50341865D01*
X107985304Y-50412488D01*
X107985308Y-50412491D01*
X108124993Y-50505826D01*
X108124997Y-50505828D01*
X108125000Y-50505830D01*
X108280218Y-50570124D01*
X108410273Y-50595993D01*
X108444992Y-50602899D01*
X108444996Y-50602900D01*
X108444997Y-50602900D01*
X108613004Y-50602900D01*
X108613005Y-50602899D01*
X108777782Y-50570124D01*
X108933000Y-50505830D01*
X109072692Y-50412491D01*
X109191491Y-50293692D01*
X109284830Y-50154000D01*
X109349124Y-49998782D01*
X109381900Y-49834003D01*
X109381900Y-49665997D01*
X109349124Y-49501218D01*
X109284830Y-49346000D01*
X109284828Y-49345997D01*
X109284826Y-49345993D01*
X109191491Y-49206308D01*
X109191488Y-49206304D01*
X109072695Y-49087511D01*
X109072691Y-49087508D01*
X108933006Y-48994173D01*
X108932996Y-48994168D01*
X108777782Y-48929876D01*
X108777774Y-48929874D01*
X108613007Y-48897100D01*
X108613003Y-48897100D01*
X108444997Y-48897100D01*
X108444992Y-48897100D01*
X108280225Y-48929874D01*
X108280217Y-48929876D01*
X108125003Y-48994168D01*
X108124993Y-48994173D01*
X107985308Y-49087508D01*
X107985304Y-49087511D01*
X107914681Y-49158135D01*
X107853358Y-49191620D01*
X107783666Y-49186636D01*
X107739319Y-49158135D01*
X107668695Y-49087511D01*
X107668691Y-49087508D01*
X107529006Y-48994173D01*
X107528996Y-48994168D01*
X107373782Y-48929876D01*
X107373774Y-48929874D01*
X107209007Y-48897100D01*
X107209003Y-48897100D01*
X107040997Y-48897100D01*
X107040992Y-48897100D01*
X106876225Y-48929874D01*
X106876217Y-48929876D01*
X106721003Y-48994168D01*
X106720993Y-48994173D01*
X106581308Y-49087508D01*
X106581304Y-49087511D01*
X106462511Y-49206304D01*
X106462508Y-49206308D01*
X106369173Y-49345993D01*
X106369168Y-49346003D01*
X106304876Y-49501217D01*
X106304874Y-49501225D01*
X106272100Y-49665992D01*
X99428984Y-49665992D01*
X99334007Y-49647100D01*
X99334003Y-49647100D01*
X99165997Y-49647100D01*
X99165992Y-49647100D01*
X99001225Y-49679874D01*
X99001217Y-49679876D01*
X98846003Y-49744168D01*
X98845993Y-49744173D01*
X98706308Y-49837508D01*
X98706304Y-49837511D01*
X98587511Y-49956304D01*
X98587508Y-49956308D01*
X98494173Y-50095993D01*
X98494168Y-50096003D01*
X98429876Y-50251217D01*
X98429874Y-50251225D01*
X98397100Y-50415992D01*
X93602899Y-50415992D01*
X93570124Y-50251218D01*
X93505830Y-50096000D01*
X93505828Y-50095997D01*
X93505826Y-50095993D01*
X93412491Y-49956308D01*
X93412488Y-49956304D01*
X93293695Y-49837511D01*
X93293691Y-49837508D01*
X93154006Y-49744173D01*
X93153996Y-49744168D01*
X92998782Y-49679876D01*
X92998774Y-49679874D01*
X92834007Y-49647100D01*
X92834003Y-49647100D01*
X92665997Y-49647100D01*
X92665992Y-49647100D01*
X92501225Y-49679874D01*
X92501217Y-49679876D01*
X92346003Y-49744168D01*
X92345993Y-49744173D01*
X92206308Y-49837508D01*
X92206304Y-49837511D01*
X92087511Y-49956304D01*
X92087508Y-49956308D01*
X91994173Y-50095993D01*
X91994168Y-50096003D01*
X91929876Y-50251217D01*
X91929874Y-50251225D01*
X91897100Y-50415992D01*
X90038452Y-50415992D01*
X90043692Y-50412491D01*
X90043695Y-50412488D01*
X90133960Y-50322224D01*
X90162488Y-50293695D01*
X90162491Y-50293692D01*
X90255830Y-50154000D01*
X90320124Y-49998782D01*
X90352900Y-49834003D01*
X90352900Y-49665997D01*
X90320124Y-49501218D01*
X90255830Y-49346000D01*
X90255828Y-49345997D01*
X90255826Y-49345993D01*
X90162491Y-49206308D01*
X90162488Y-49206304D01*
X90043695Y-49087511D01*
X90043691Y-49087508D01*
X89904006Y-48994173D01*
X89903996Y-48994168D01*
X89748782Y-48929876D01*
X89748774Y-48929874D01*
X89584007Y-48897100D01*
X89584003Y-48897100D01*
X89415997Y-48897100D01*
X89415992Y-48897100D01*
X89251225Y-48929874D01*
X89251217Y-48929876D01*
X89096003Y-48994168D01*
X89095993Y-48994173D01*
X88956308Y-49087508D01*
X88956304Y-49087511D01*
X88837511Y-49206304D01*
X88837508Y-49206308D01*
X88744173Y-49345993D01*
X88744168Y-49346003D01*
X88679876Y-49501217D01*
X88679874Y-49501225D01*
X88647100Y-49665992D01*
X87000500Y-49665992D01*
X87000500Y-47040992D01*
X109647100Y-47040992D01*
X109647100Y-47209007D01*
X109679874Y-47373774D01*
X109679876Y-47373782D01*
X109744168Y-47528996D01*
X109744173Y-47529006D01*
X109837508Y-47668691D01*
X109837511Y-47668695D01*
X109893635Y-47724819D01*
X109927120Y-47786142D01*
X109922136Y-47855834D01*
X109893635Y-47900181D01*
X109837511Y-47956304D01*
X109837508Y-47956308D01*
X109744173Y-48095993D01*
X109744168Y-48096003D01*
X109679876Y-48251217D01*
X109679874Y-48251225D01*
X109647100Y-48415992D01*
X109647100Y-48584007D01*
X109679874Y-48748774D01*
X109679876Y-48748782D01*
X109744168Y-48903996D01*
X109744173Y-48904006D01*
X109837508Y-49043691D01*
X109837511Y-49043695D01*
X109956304Y-49162488D01*
X109956308Y-49162491D01*
X110095993Y-49255826D01*
X110095997Y-49255828D01*
X110096000Y-49255830D01*
X110251218Y-49320124D01*
X110381273Y-49345993D01*
X110415992Y-49352899D01*
X110415996Y-49352900D01*
X110415997Y-49352900D01*
X110584004Y-49352900D01*
X110584005Y-49352899D01*
X110748782Y-49320124D01*
X110904000Y-49255830D01*
X111043692Y-49162491D01*
X111162491Y-49043692D01*
X111255830Y-48904000D01*
X111320124Y-48748782D01*
X111352900Y-48584003D01*
X111352900Y-48415997D01*
X111320124Y-48251218D01*
X111255830Y-48096000D01*
X111255828Y-48095997D01*
X111255826Y-48095993D01*
X111162491Y-47956308D01*
X111162488Y-47956304D01*
X111106365Y-47900181D01*
X111072880Y-47838858D01*
X111077864Y-47769166D01*
X111106365Y-47724819D01*
X111162488Y-47668695D01*
X111162491Y-47668692D01*
X111255830Y-47529000D01*
X111320124Y-47373782D01*
X111352900Y-47209003D01*
X111352900Y-47040997D01*
X111320124Y-46876218D01*
X111255830Y-46721000D01*
X111255828Y-46720997D01*
X111255826Y-46720993D01*
X111162491Y-46581308D01*
X111162488Y-46581304D01*
X111043695Y-46462511D01*
X111043691Y-46462508D01*
X110904006Y-46369173D01*
X110903996Y-46369168D01*
X110748782Y-46304876D01*
X110748774Y-46304874D01*
X110584007Y-46272100D01*
X110584003Y-46272100D01*
X110415997Y-46272100D01*
X110415992Y-46272100D01*
X110251225Y-46304874D01*
X110251217Y-46304876D01*
X110096003Y-46369168D01*
X110095993Y-46369173D01*
X109956308Y-46462508D01*
X109956304Y-46462511D01*
X109837511Y-46581304D01*
X109837508Y-46581308D01*
X109744173Y-46720993D01*
X109744168Y-46721003D01*
X109679876Y-46876217D01*
X109679874Y-46876225D01*
X109647100Y-47040992D01*
X87000500Y-47040992D01*
X87000500Y-47005411D01*
X87000972Y-46994605D01*
X87013760Y-46848430D01*
X87015664Y-46835097D01*
X87021503Y-46805739D01*
X87023329Y-46797910D01*
X87056782Y-46673058D01*
X87061992Y-46657715D01*
X87069020Y-46640747D01*
X87071162Y-46635880D01*
X87129822Y-46510080D01*
X87140628Y-46491366D01*
X87228118Y-46366417D01*
X87242006Y-46349865D01*
X87349865Y-46242006D01*
X87366417Y-46228118D01*
X87491366Y-46140628D01*
X87510080Y-46129822D01*
X87635880Y-46071162D01*
X87640747Y-46069020D01*
X87657725Y-46061987D01*
X87673058Y-46056782D01*
X87797910Y-46023329D01*
X87805739Y-46021503D01*
X87835097Y-46015664D01*
X87848430Y-46013760D01*
X87987871Y-46001561D01*
X87994606Y-46000972D01*
X88005412Y-46000500D01*
X111994588Y-46000500D01*
X112005394Y-46000972D01*
G37*
%TD.AperFunction*%
%TD*%
M02*
