%TF.GenerationSoftware,KiCad,Pcbnew,10.0.5*%
%TF.CreationDate,2026-10-03T01:12:56+01:00*%
%TF.ProjectId,mcxn_mini_board,6d63786e-5f6d-4696-9e69-5f626f617264,rev?*%
%TF.SameCoordinates,Original*%
%TF.FileFunction,Copper,L4,Bot*%
%TF.FilePolarity,Positive*%
%FSLAX46Y46*%
G04 Gerber Fmt 4.6, Leading zero omitted, Abs format (unit mm)*
G04 Created by KiCad (PCBNEW 10.0.5) date 2026-10-03 01:12:56*
%MOMM*%
%LPD*%
G01*
G04 APERTURE LIST*
G04 Aperture macros list*
%AMRoundRect*
0 Rectangle with rounded corners*
0 $1 Rounding radius*
0 $2 $3 $4 $5 $6 $7 $8 $9 X,Y pos of 4 corners*
0 Add a 4 corners polygon primitive as box body*
4,1,4,$2,$3,$4,$5,$6,$7,$8,$9,$2,$3,0*
0 Add four circle primitives for the rounded corners*
1,1,$1+$1,$2,$3*
1,1,$1+$1,$4,$5*
1,1,$1+$1,$6,$7*
1,1,$1+$1,$8,$9*
0 Add four rect primitives between the rounded corners*
20,1,$1+$1,$2,$3,$4,$5,0*
20,1,$1+$1,$4,$5,$6,$7,0*
20,1,$1+$1,$6,$7,$8,$9,0*
20,1,$1+$1,$8,$9,$2,$3,0*%
G04 Aperture macros list end*
%TA.AperFunction,ComponentPad*%
%ADD10C,0.650000*%
%TD*%
%TA.AperFunction,ComponentPad*%
%ADD11O,0.900000X2.400000*%
%TD*%
%TA.AperFunction,ComponentPad*%
%ADD12O,0.900000X1.700000*%
%TD*%
%TA.AperFunction,ComponentPad*%
%ADD13C,0.900000*%
%TD*%
%TA.AperFunction,SMDPad,CuDef*%
%ADD14RoundRect,0.080000X-0.420000X-0.320000X0.420000X-0.320000X0.420000X0.320000X-0.420000X0.320000X0*%
%TD*%
%TA.AperFunction,SMDPad,CuDef*%
%ADD15RoundRect,0.250000X-0.350000X-0.250000X0.350000X-0.250000X0.350000X0.250000X-0.350000X0.250000X0*%
%TD*%
%TA.AperFunction,ViaPad*%
%ADD16C,0.704800*%
%TD*%
%TA.AperFunction,Conductor*%
%ADD17C,0.270000*%
%TD*%
%TA.AperFunction,Conductor*%
%ADD18C,0.406400*%
%TD*%
%TA.AperFunction,Conductor*%
%ADD19C,0.152000*%
%TD*%
%TA.AperFunction,Conductor*%
%ADD20C,0.203200*%
%TD*%
%TA.AperFunction,Conductor*%
%ADD21C,0.203000*%
%TD*%
G04 APERTURE END LIST*
D10*
%TO.P,J1,A1,GND_A1*%
%TO.N,0V*%
X97025000Y-87725000D03*
%TO.P,J1,A4,VBUS_A4*%
%TO.N,Net-(FB2-Pad2)*%
X97875000Y-87725000D03*
%TO.P,J1,A5,CC1_A5*%
%TO.N,Net-(J1-CC1)*%
X98725000Y-87725000D03*
%TO.P,J1,A6,D+_A6*%
%TO.N,/USB_D+*%
X99575000Y-87725000D03*
%TO.P,J1,A7,D-_A7*%
%TO.N,/USB_D-*%
X100425000Y-87725000D03*
%TO.P,J1,A8,SBU1_A8*%
%TO.N,unconnected-(J1-SBU1-PadA8)*%
X101275000Y-87725000D03*
%TO.P,J1,A9,VBUS_A9*%
%TO.N,Net-(FB2-Pad2)*%
X102125000Y-87725000D03*
%TO.P,J1,A12,GND_A12*%
%TO.N,0V*%
X102975000Y-87725000D03*
%TO.P,J1,B1,GND_B1*%
X102975000Y-89075000D03*
%TO.P,J1,B4,VBUS_B4*%
%TO.N,Net-(FB2-Pad2)*%
X102125000Y-89075000D03*
%TO.P,J1,B5,CC2_B5*%
%TO.N,Net-(J1-CC2)*%
X101275000Y-89075000D03*
%TO.P,J1,B6,D+_B6*%
%TO.N,/USB_D+*%
X100425000Y-89075000D03*
%TO.P,J1,B7,D-_B7*%
%TO.N,/USB_D-*%
X99575000Y-89075000D03*
%TO.P,J1,B8,SBU2_B8*%
%TO.N,unconnected-(J1-SBU2-PadB8)*%
X98725000Y-89075000D03*
%TO.P,J1,B9,VBUS_B9*%
%TO.N,Net-(FB2-Pad2)*%
X97875000Y-89075000D03*
%TO.P,J1,B12,GND_B12*%
%TO.N,0V*%
X97025000Y-89075000D03*
D11*
%TO.P,J1,S1,SHIELD_S1*%
X95675000Y-88705000D03*
D12*
X95675000Y-92085000D03*
D11*
%TO.P,J1,S2,SHIELD_S2*%
X104325000Y-88705000D03*
D12*
X104325000Y-92085000D03*
%TD*%
D13*
%TO.P,U1,EP,GND_EP*%
%TO.N,0V*%
X96992500Y-59047500D03*
X96992500Y-60952500D03*
X98262500Y-57777500D03*
X98262500Y-62222500D03*
X98265000Y-59050000D03*
X98265000Y-60950000D03*
X100165000Y-59050000D03*
X100165000Y-60950000D03*
X100167500Y-57777500D03*
X100167500Y-62222500D03*
X101437500Y-59047500D03*
X101437500Y-60952500D03*
%TD*%
D14*
%TO.P,D1,1,K_1*%
%TO.N,0V*%
X99150000Y-56000000D03*
%TO.P,D1,2,A_2*%
%TO.N,Net-(D1-A)*%
X100850000Y-56000000D03*
%TD*%
D15*
%TO.P,SW1,1,1_1*%
%TO.N,0V*%
X96300000Y-65000000D03*
%TO.P,SW1,2,2_2*%
%TO.N,/ROW1*%
X103700000Y-65000000D03*
%TD*%
%TO.P,SW2,1,1_1*%
%TO.N,0V*%
X96300000Y-77000000D03*
%TO.P,SW2,2,2_2*%
%TO.N,/ROW2*%
X103700000Y-77000000D03*
%TD*%
%TO.P,SW3,1,1_1*%
%TO.N,0V*%
X96300000Y-85000000D03*
%TO.P,SW3,2,2_2*%
%TO.N,/ROW3*%
X103700000Y-85000000D03*
%TD*%
D16*
%TO.N,0V*%
X92380000Y-80447000D03*
X102500000Y-84250000D03*
X106250000Y-79750000D03*
X102250000Y-71250000D03*
X89715000Y-63080900D03*
X90221000Y-83495000D03*
X108750000Y-52500000D03*
X88715000Y-62750000D03*
X109250000Y-68000000D03*
X108750000Y-56000000D03*
X109875000Y-89500000D03*
X111250000Y-79750000D03*
X105500000Y-65500000D03*
X89250000Y-73375000D03*
X103750000Y-71250000D03*
X99250000Y-50500000D03*
X98500000Y-71750000D03*
X105750000Y-72625000D03*
X89455000Y-56860000D03*
X88443000Y-84511000D03*
X100840000Y-65250000D03*
X108500000Y-89500000D03*
X110500000Y-47125000D03*
X111300000Y-72900000D03*
X108750000Y-92375000D03*
X110750000Y-62750000D03*
X107125000Y-89500000D03*
X110250000Y-54500000D03*
X105000000Y-79250000D03*
X110000000Y-79750000D03*
X108750000Y-59500000D03*
X91750000Y-92875000D03*
X110375000Y-66875000D03*
X108875000Y-79250000D03*
X89500000Y-53500000D03*
X109375000Y-87750000D03*
X92750000Y-50500000D03*
X89500000Y-49750000D03*
X97250000Y-71250000D03*
X88475000Y-58140000D03*
X105000000Y-78000000D03*
X107500000Y-79750000D03*
X88309400Y-66000000D03*
X96715000Y-66125000D03*
X108625000Y-86750000D03*
X95840000Y-66375000D03*
X103500000Y-83750000D03*
X96250000Y-71250000D03*
X111500000Y-59000000D03*
X110000000Y-92375000D03*
X104875000Y-72625000D03*
X106375000Y-90750000D03*
X106375000Y-91875000D03*
X110500000Y-51000000D03*
X110250000Y-58000000D03*
X110500000Y-48500000D03*
X108875000Y-78000000D03*
X94500000Y-72750000D03*
X107375000Y-92375000D03*
%TO.N,+3.3V*%
X98875000Y-74375000D03*
X105500000Y-58500000D03*
X95750000Y-50500000D03*
X107000000Y-83250000D03*
X106875000Y-70500000D03*
X95250000Y-53750000D03*
X106375000Y-69750000D03*
X97811000Y-66378260D03*
X97875000Y-73250000D03*
X105250000Y-64500000D03*
X110556400Y-53529305D03*
X105125000Y-83625000D03*
X105125000Y-81500000D03*
X100965000Y-54000000D03*
X106000000Y-83250000D03*
X88316000Y-74732000D03*
X89965000Y-64000000D03*
X105500000Y-62000000D03*
X89500000Y-52250000D03*
X89500000Y-47125000D03*
X105125000Y-82500000D03*
X103715000Y-66500000D03*
X93500000Y-60635000D03*
X91750000Y-87375000D03*
X102215000Y-65750000D03*
X98750000Y-49500000D03*
X105500000Y-55000000D03*
%TO.N,/RSTB*%
X89250000Y-86125000D03*
X93142000Y-58095000D03*
%TO.N,VBUS*%
X98715000Y-66000000D03*
X99000000Y-81000000D03*
%TO.N,Net-(J1-CC1)*%
X94000000Y-90500000D03*
%TO.N,/CLK*%
X107125000Y-49750000D03*
X108529000Y-49750000D03*
%TO.N,Net-(D1-A)*%
X107000000Y-53125000D03*
%TO.N,Net-(U1USB/DEBUG-BOOTLOAD{slash}P0_6)*%
X99875000Y-53875000D03*
X89250000Y-66125000D03*
%TO.N,/P4_0*%
X89967191Y-64904800D03*
X90729000Y-78415000D03*
%TO.N,/P4_1*%
X93015000Y-64064000D03*
X91491000Y-77653000D03*
%TO.N,/P4_2*%
X94031000Y-64064000D03*
X92253000Y-78415000D03*
%TO.N,/P4_3*%
X92253000Y-79431000D03*
X93777000Y-65334000D03*
%TO.N,/P4_6*%
X93250000Y-82250000D03*
X93875000Y-66250000D03*
%TO.N,/P4_7*%
X94875000Y-65875000D03*
X92500000Y-83125000D03*
%TO.N,/ROW1*%
X103375000Y-60875000D03*
%TO.N,/ROW2*%
X104125000Y-60000000D03*
%TO.N,/ROW3*%
X104750000Y-59125000D03*
%TO.N,/SWD*%
X109200000Y-74800000D03*
X104375000Y-55250000D03*
%TO.N,/SWC*%
X109250000Y-73700000D03*
X103250000Y-55250000D03*
%TD*%
%TO.N,0V*%
D17*
X100500000Y-64250000D02*
X100500000Y-62750000D01*
X102500000Y-61750000D02*
X101000000Y-61750000D01*
X101750000Y-59000000D02*
X103250000Y-59000000D01*
X95250000Y-62000000D02*
X96750000Y-62000000D01*
X95250000Y-61000000D02*
X96750000Y-61000000D01*
X97500000Y-64250000D02*
X97500000Y-62750000D01*
X101750000Y-58500000D02*
X101750000Y-57000000D01*
X101500000Y-64250000D02*
X101500000Y-62750000D01*
X98500000Y-64250000D02*
X98500000Y-62750000D01*
X97000000Y-57750000D02*
X97000000Y-56250000D01*
X95250000Y-60000000D02*
X96750000Y-60000000D01*
X101750000Y-58000000D02*
X103250000Y-58000000D01*
X95250000Y-58000000D02*
X96750000Y-58000000D01*
X101250000Y-60000000D02*
X102750000Y-60000000D01*
D18*
X95675000Y-90450000D02*
X95625000Y-90500000D01*
D17*
X95250000Y-59000000D02*
X96750000Y-59000000D01*
X102500000Y-62750000D02*
X101000000Y-62750000D01*
X99500000Y-64250000D02*
X99500000Y-62750000D01*
D18*
X95675000Y-88705000D02*
X95675000Y-90450000D01*
D17*
X98000000Y-57750000D02*
X98000000Y-56250000D01*
%TO.N,/RSTB*%
D19*
X87875000Y-66454292D02*
X87681000Y-66260292D01*
X87875000Y-63908866D02*
X87622500Y-63656366D01*
X89250000Y-74625000D02*
X87875000Y-73250000D01*
X87875000Y-65545708D02*
X87875000Y-63908866D01*
X92489500Y-58747500D02*
X93142000Y-58095000D01*
X89250000Y-86125000D02*
X89250000Y-74625000D01*
X89968634Y-58747500D02*
X92489500Y-58747500D01*
X87681000Y-65739708D02*
X87875000Y-65545708D01*
X87622500Y-63656366D02*
X87622500Y-61093634D01*
X87622500Y-61093634D02*
X89968634Y-58747500D01*
X87875000Y-73250000D02*
X87875000Y-66454292D01*
X87681000Y-66260292D02*
X87681000Y-65739708D01*
%TO.N,VBUS*%
D20*
X99000000Y-81000000D02*
X99000000Y-76285000D01*
X100500000Y-74785000D02*
X100500000Y-67785000D01*
X99000000Y-76285000D02*
X100500000Y-74785000D01*
X100500000Y-67785000D02*
X98715000Y-66000000D01*
%TO.N,Net-(FB2-Pad2)*%
X101875000Y-89875000D02*
X98125000Y-89875000D01*
X102125000Y-87725000D02*
X102125000Y-89075000D01*
X98125000Y-89875000D02*
X97875000Y-89625000D01*
X102125000Y-89625000D02*
X101875000Y-89875000D01*
X97875000Y-89625000D02*
X97875000Y-89075000D01*
X97875000Y-87725000D02*
X97875000Y-89075000D01*
X102125000Y-89075000D02*
X102125000Y-89625000D01*
%TO.N,Net-(J1-CC1)*%
X98725000Y-87475000D02*
X98725000Y-87725000D01*
X98125000Y-86875000D02*
X98725000Y-87475000D01*
X94875000Y-86875000D02*
X98125000Y-86875000D01*
X94000000Y-87750000D02*
X94875000Y-86875000D01*
X94000000Y-90500000D02*
X94000000Y-87750000D01*
%TO.N,/USB_D+*%
X100425000Y-89075000D02*
X99575000Y-87725000D01*
%TO.N,/CLK*%
X107125000Y-49750000D02*
X108529000Y-49750000D01*
%TO.N,Net-(D1-A)*%
X104375000Y-53125000D02*
X107000000Y-53125000D01*
X100850000Y-56000000D02*
X101500000Y-56000000D01*
X101500000Y-56000000D02*
X104375000Y-53125000D01*
%TO.N,Net-(U1USB/DEBUG-BOOTLOAD{slash}P0_6)*%
D21*
X94000000Y-56750000D02*
X96875000Y-53875000D01*
X90125000Y-59125000D02*
X93375000Y-59125000D01*
X94000000Y-58500000D02*
X94000000Y-56750000D01*
X88000000Y-63500000D02*
X88000000Y-61250000D01*
X93375000Y-59125000D02*
X94000000Y-58500000D01*
X89250000Y-64750000D02*
X88000000Y-63500000D01*
X88000000Y-61250000D02*
X90125000Y-59125000D01*
X96875000Y-53875000D02*
X99875000Y-53875000D01*
X89250000Y-66125000D02*
X89250000Y-64750000D01*
%TO.N,/P4_0*%
D20*
X90729000Y-78415000D02*
X89967191Y-77653191D01*
X89967191Y-77653191D02*
X89967191Y-64904800D01*
%TO.N,/P4_1*%
X92380000Y-64064000D02*
X93015000Y-64064000D01*
X90370391Y-66073609D02*
X92380000Y-64064000D01*
X90370391Y-77167391D02*
X90370391Y-66073609D01*
X90856000Y-77653000D02*
X90370391Y-77167391D01*
X91491000Y-77653000D02*
X90856000Y-77653000D01*
%TO.N,/P4_2*%
X90773591Y-76554591D02*
X90773591Y-66240619D01*
X91110000Y-76891000D02*
X90773591Y-76554591D01*
X93364895Y-64730105D02*
X94031000Y-64064000D01*
X92284105Y-64730105D02*
X93364895Y-64730105D01*
X90773591Y-66240619D02*
X92284105Y-64730105D01*
X92253000Y-77399000D02*
X91745000Y-76891000D01*
X92253000Y-78415000D02*
X92253000Y-77399000D01*
X91745000Y-76891000D02*
X91110000Y-76891000D01*
%TO.N,/P4_3*%
X92253000Y-79431000D02*
X92907000Y-78777000D01*
X92907000Y-78777000D02*
X92907000Y-77482789D01*
X91176791Y-76387581D02*
X91176791Y-66407629D01*
X92907000Y-77482789D02*
X91912010Y-76487800D01*
X93736000Y-65375000D02*
X93777000Y-65334000D01*
X91277010Y-76487800D02*
X91176791Y-76387581D01*
X92209420Y-65375000D02*
X93736000Y-65375000D01*
X91912010Y-76487800D02*
X91277010Y-76487800D01*
X91176791Y-66407629D02*
X92209420Y-65375000D01*
%TO.N,/P4_6*%
X92375000Y-67750000D02*
X92375000Y-75250000D01*
X94000000Y-76875000D02*
X94000000Y-81500000D01*
X94000000Y-81500000D02*
X93250000Y-82250000D01*
X92375000Y-75250000D02*
X94000000Y-76875000D01*
X93875000Y-66250000D02*
X92375000Y-67750000D01*
%TO.N,/P4_7*%
X94875000Y-66250000D02*
X92778200Y-68346800D01*
X93375000Y-83125000D02*
X92500000Y-83125000D01*
X94403200Y-82096800D02*
X93375000Y-83125000D01*
X92778200Y-68346800D02*
X92778200Y-75082990D01*
X92778200Y-75082990D02*
X94403200Y-76707990D01*
X94403200Y-76707990D02*
X94403200Y-82096800D01*
X94875000Y-65875000D02*
X94875000Y-66250000D01*
%TO.N,/ROW1*%
X103700000Y-63200000D02*
X103700000Y-65000000D01*
X103375000Y-60875000D02*
X103375000Y-62875000D01*
X103375000Y-62875000D02*
X103700000Y-63200000D01*
%TO.N,/ROW2*%
X104125000Y-62542010D02*
X104861189Y-63278200D01*
X106750000Y-77000000D02*
X103700000Y-77000000D01*
X104861189Y-63278200D02*
X106332990Y-63278200D01*
X107750800Y-69946010D02*
X107750800Y-75999200D01*
X106332990Y-63278200D02*
X107000000Y-63945210D01*
X104125000Y-60000000D02*
X104125000Y-62542010D01*
X107750800Y-75999200D02*
X106750000Y-77000000D01*
X107000000Y-69195211D02*
X107750800Y-69946010D01*
X107000000Y-63945210D02*
X107000000Y-69195211D01*
%TO.N,/ROW3*%
X106750000Y-85000000D02*
X103700000Y-85000000D01*
X107403200Y-63778200D02*
X107403200Y-69028200D01*
X107403200Y-69028200D02*
X108154000Y-69779000D01*
X106500000Y-62875000D02*
X107403200Y-63778200D01*
X105028200Y-62875000D02*
X106500000Y-62875000D01*
X104528200Y-62375000D02*
X105028200Y-62875000D01*
X104779000Y-60499200D02*
X104528200Y-60750000D01*
X108154000Y-83596000D02*
X106750000Y-85000000D01*
X104528200Y-60750000D02*
X104528200Y-62375000D01*
X104750000Y-59125000D02*
X104779000Y-59154000D01*
X108154000Y-69779000D02*
X108154000Y-83596000D01*
X104779000Y-59154000D02*
X104779000Y-60499200D01*
%TO.N,/SWD*%
X109904000Y-70333790D02*
X108209600Y-68639390D01*
X107028200Y-62262779D02*
X107028200Y-57582989D01*
X108209600Y-63444178D02*
X107028200Y-62262779D01*
X109200000Y-74800000D02*
X109904000Y-74096000D01*
X108209600Y-68639390D02*
X108209600Y-63444178D01*
X104375000Y-56375000D02*
X104375000Y-55250000D01*
X106167010Y-56721800D02*
X104721800Y-56721800D01*
X109904000Y-74096000D02*
X109904000Y-70333790D01*
X107028200Y-57582989D02*
X106167010Y-56721800D01*
X104721800Y-56721800D02*
X104375000Y-56375000D01*
%TO.N,/SWC*%
X109250000Y-73700000D02*
X109250000Y-70250000D01*
X107806400Y-63611189D02*
X106625000Y-62429790D01*
X106625000Y-62429790D02*
X106625000Y-57750000D01*
X103250000Y-55875000D02*
X103250000Y-55250000D01*
X107806400Y-68806400D02*
X107806400Y-63611189D01*
X106000000Y-57125000D02*
X104500000Y-57125000D01*
X106625000Y-57750000D02*
X106000000Y-57125000D01*
X109250000Y-70250000D02*
X107806400Y-68806400D01*
X104500000Y-57125000D02*
X103250000Y-55875000D01*
%TD*%
%TA.AperFunction,Conductor*%
%TO.N,0V*%
G36*
X102574072Y-55879937D02*
G01*
X102630006Y-55921808D01*
X102650513Y-55964024D01*
X102688932Y-56107400D01*
X102688932Y-56107401D01*
X102706181Y-56137276D01*
X102736058Y-56189025D01*
X102765487Y-56240000D01*
X102768200Y-56244698D01*
X104018200Y-57494698D01*
X104130302Y-57606800D01*
X104267598Y-57686067D01*
X104420732Y-57727100D01*
X104579268Y-57727100D01*
X104767354Y-57727100D01*
X104834393Y-57746785D01*
X104880148Y-57799589D01*
X104890092Y-57868747D01*
X104861067Y-57932303D01*
X104855035Y-57938781D01*
X104837511Y-57956304D01*
X104837508Y-57956308D01*
X104744173Y-58095993D01*
X104744168Y-58096003D01*
X104697060Y-58209732D01*
X104653219Y-58264135D01*
X104606690Y-58283896D01*
X104501225Y-58304874D01*
X104501217Y-58304876D01*
X104346003Y-58369168D01*
X104345993Y-58369173D01*
X104206308Y-58462508D01*
X104206304Y-58462511D01*
X104087511Y-58581304D01*
X104087508Y-58581308D01*
X103994173Y-58720993D01*
X103994168Y-58721003D01*
X103929876Y-58876217D01*
X103929874Y-58876225D01*
X103897100Y-59040992D01*
X103897100Y-59088372D01*
X103877415Y-59155411D01*
X103824611Y-59201166D01*
X103820553Y-59202933D01*
X103721003Y-59244168D01*
X103720993Y-59244173D01*
X103581308Y-59337508D01*
X103581304Y-59337511D01*
X103462511Y-59456304D01*
X103462508Y-59456308D01*
X103369173Y-59595993D01*
X103369168Y-59596003D01*
X103304876Y-59751217D01*
X103304874Y-59751225D01*
X103272100Y-59915992D01*
X103272100Y-59924094D01*
X103252415Y-59991133D01*
X103199611Y-60036888D01*
X103172291Y-60045711D01*
X103126225Y-60054874D01*
X103126217Y-60054876D01*
X102971003Y-60119168D01*
X102970993Y-60119173D01*
X102831308Y-60212508D01*
X102831304Y-60212511D01*
X102711681Y-60332135D01*
X102650358Y-60365620D01*
X102580666Y-60360636D01*
X102524733Y-60318764D01*
X102500316Y-60253300D01*
X102500000Y-60244454D01*
X102500000Y-57000000D01*
X101702674Y-57000000D01*
X101635635Y-56980315D01*
X101589880Y-56927511D01*
X101579936Y-56858353D01*
X101608961Y-56794797D01*
X101627188Y-56777624D01*
X101643577Y-56765048D01*
X101684017Y-56734017D01*
X101777066Y-56612755D01*
X101803134Y-56549818D01*
X101846973Y-56495416D01*
X101855699Y-56489882D01*
X101869698Y-56481800D01*
X101981800Y-56369698D01*
X102443060Y-55908436D01*
X102504381Y-55874953D01*
X102574072Y-55879937D01*
G37*
%TD.AperFunction*%
%TA.AperFunction,Conductor*%
G36*
X112005394Y-46000972D02*
G01*
X112012947Y-46001632D01*
X112151564Y-46013760D01*
X112164907Y-46015665D01*
X112194247Y-46021501D01*
X112202103Y-46023332D01*
X112326932Y-46056780D01*
X112342278Y-46061989D01*
X112359233Y-46069012D01*
X112364169Y-46071185D01*
X112489916Y-46129821D01*
X112508629Y-46140624D01*
X112633583Y-46228118D01*
X112650140Y-46242012D01*
X112757987Y-46349859D01*
X112771881Y-46366416D01*
X112859372Y-46491366D01*
X112870179Y-46510086D01*
X112928813Y-46635828D01*
X112930993Y-46640781D01*
X112938007Y-46657715D01*
X112943220Y-46673072D01*
X112976659Y-46797868D01*
X112978501Y-46805769D01*
X112984330Y-46835071D01*
X112986241Y-46848456D01*
X112999028Y-46994605D01*
X112999500Y-47005413D01*
X112999500Y-91995948D01*
X112999234Y-92004058D01*
X112984321Y-92231576D01*
X112983325Y-92241113D01*
X112975917Y-92292636D01*
X112974796Y-92299180D01*
X112935694Y-92495763D01*
X112933054Y-92506508D01*
X112920656Y-92548730D01*
X112919099Y-92553652D01*
X112851780Y-92751971D01*
X112847152Y-92763630D01*
X112836544Y-92786855D01*
X112834964Y-92790182D01*
X112735212Y-92992460D01*
X112727102Y-93006506D01*
X112590825Y-93210460D01*
X112580951Y-93223329D01*
X112419218Y-93407749D01*
X112407749Y-93419218D01*
X112223329Y-93580951D01*
X112210460Y-93590825D01*
X112006506Y-93727102D01*
X111992460Y-93735212D01*
X111790182Y-93834964D01*
X111786855Y-93836544D01*
X111763630Y-93847152D01*
X111751971Y-93851780D01*
X111553652Y-93919099D01*
X111548730Y-93920656D01*
X111506508Y-93933054D01*
X111495763Y-93935694D01*
X111299180Y-93974796D01*
X111292636Y-93975917D01*
X111241113Y-93983325D01*
X111231576Y-93984321D01*
X111004058Y-93999234D01*
X110995948Y-93999500D01*
X89004052Y-93999500D01*
X88995942Y-93999234D01*
X88768422Y-93984321D01*
X88758885Y-93983325D01*
X88707362Y-93975917D01*
X88700818Y-93974796D01*
X88504235Y-93935694D01*
X88493490Y-93933054D01*
X88451268Y-93920656D01*
X88446346Y-93919099D01*
X88306997Y-93871797D01*
X88248023Y-93851778D01*
X88236377Y-93847155D01*
X88227679Y-93843183D01*
X88213143Y-93836544D01*
X88209816Y-93834964D01*
X88007539Y-93735212D01*
X87993493Y-93727102D01*
X87789539Y-93590825D01*
X87776670Y-93580951D01*
X87592250Y-93419218D01*
X87580781Y-93407749D01*
X87419048Y-93223329D01*
X87409174Y-93210460D01*
X87272897Y-93006506D01*
X87264787Y-92992460D01*
X87165034Y-92790182D01*
X87163454Y-92786855D01*
X87152835Y-92763602D01*
X87148228Y-92751997D01*
X87080895Y-92553639D01*
X87079929Y-92550150D01*
X87079344Y-92548734D01*
X87066938Y-92506485D01*
X87064311Y-92495794D01*
X87025194Y-92299138D01*
X87024088Y-92292679D01*
X87016671Y-92241094D01*
X87015680Y-92231615D01*
X87000765Y-92004042D01*
X87000500Y-91995933D01*
X87000500Y-91591428D01*
X94725000Y-91591428D01*
X94725000Y-91835000D01*
X95375000Y-91835000D01*
X95375000Y-92335000D01*
X94725000Y-92335000D01*
X94725000Y-92578571D01*
X94761506Y-92762097D01*
X94761508Y-92762105D01*
X94833119Y-92934991D01*
X94833124Y-92935000D01*
X94937086Y-93090589D01*
X94937089Y-93090593D01*
X95069406Y-93222910D01*
X95069410Y-93222913D01*
X95224999Y-93326875D01*
X95225012Y-93326882D01*
X95397889Y-93398489D01*
X95397896Y-93398491D01*
X95425000Y-93403882D01*
X95425000Y-92651988D01*
X95434940Y-92669205D01*
X95490795Y-92725060D01*
X95559204Y-92764556D01*
X95635504Y-92785000D01*
X95714496Y-92785000D01*
X95790796Y-92764556D01*
X95859205Y-92725060D01*
X95915060Y-92669205D01*
X95925000Y-92651988D01*
X95925000Y-93403881D01*
X95952103Y-93398491D01*
X95952110Y-93398489D01*
X96124987Y-93326882D01*
X96125000Y-93326875D01*
X96280589Y-93222913D01*
X96280593Y-93222910D01*
X96412910Y-93090593D01*
X96412913Y-93090589D01*
X96516875Y-92935000D01*
X96516880Y-92934991D01*
X96588491Y-92762105D01*
X96588493Y-92762097D01*
X96624999Y-92578571D01*
X96625000Y-92578569D01*
X96625000Y-92335000D01*
X95975000Y-92335000D01*
X95975000Y-91835000D01*
X96625000Y-91835000D01*
X96625000Y-91591430D01*
X96624999Y-91591428D01*
X103375000Y-91591428D01*
X103375000Y-91835000D01*
X104025000Y-91835000D01*
X104025000Y-92335000D01*
X103375000Y-92335000D01*
X103375000Y-92578571D01*
X103411506Y-92762097D01*
X103411508Y-92762105D01*
X103483119Y-92934991D01*
X103483124Y-92935000D01*
X103587086Y-93090589D01*
X103587089Y-93090593D01*
X103719406Y-93222910D01*
X103719410Y-93222913D01*
X103874999Y-93326875D01*
X103875012Y-93326882D01*
X104047889Y-93398489D01*
X104047896Y-93398491D01*
X104075000Y-93403882D01*
X104075000Y-92651988D01*
X104084940Y-92669205D01*
X104140795Y-92725060D01*
X104209204Y-92764556D01*
X104285504Y-92785000D01*
X104364496Y-92785000D01*
X104440796Y-92764556D01*
X104509205Y-92725060D01*
X104565060Y-92669205D01*
X104575000Y-92651988D01*
X104575000Y-93403881D01*
X104602103Y-93398491D01*
X104602110Y-93398489D01*
X104774987Y-93326882D01*
X104775000Y-93326875D01*
X104930589Y-93222913D01*
X104930593Y-93222910D01*
X105062910Y-93090593D01*
X105062913Y-93090589D01*
X105166875Y-92935000D01*
X105166880Y-92934991D01*
X105238491Y-92762105D01*
X105238493Y-92762097D01*
X105274999Y-92578571D01*
X105275000Y-92578569D01*
X105275000Y-92335000D01*
X104625000Y-92335000D01*
X104625000Y-91835000D01*
X105275000Y-91835000D01*
X105275000Y-91591430D01*
X105274999Y-91591428D01*
X105238493Y-91407902D01*
X105238491Y-91407894D01*
X105166880Y-91235008D01*
X105166875Y-91234999D01*
X105062913Y-91079410D01*
X105062910Y-91079406D01*
X104930593Y-90947089D01*
X104930589Y-90947086D01*
X104775000Y-90843124D01*
X104774991Y-90843119D01*
X104602103Y-90771507D01*
X104602100Y-90771506D01*
X104575000Y-90766115D01*
X104575000Y-91518011D01*
X104565060Y-91500795D01*
X104509205Y-91444940D01*
X104440796Y-91405444D01*
X104364496Y-91385000D01*
X104285504Y-91385000D01*
X104209204Y-91405444D01*
X104140795Y-91444940D01*
X104084940Y-91500795D01*
X104075000Y-91518011D01*
X104075000Y-90766116D01*
X104074999Y-90766115D01*
X104047899Y-90771506D01*
X104047896Y-90771507D01*
X103875008Y-90843119D01*
X103874999Y-90843124D01*
X103719410Y-90947086D01*
X103719406Y-90947089D01*
X103587089Y-91079406D01*
X103587086Y-91079410D01*
X103483124Y-91234999D01*
X103483119Y-91235008D01*
X103411508Y-91407894D01*
X103411506Y-91407902D01*
X103375000Y-91591428D01*
X96624999Y-91591428D01*
X96588493Y-91407902D01*
X96588491Y-91407894D01*
X96516880Y-91235008D01*
X96516875Y-91234999D01*
X96412913Y-91079410D01*
X96412910Y-91079406D01*
X96280593Y-90947089D01*
X96280589Y-90947086D01*
X96125000Y-90843124D01*
X96124991Y-90843119D01*
X95952103Y-90771507D01*
X95952100Y-90771506D01*
X95925000Y-90766115D01*
X95925000Y-91518011D01*
X95915060Y-91500795D01*
X95859205Y-91444940D01*
X95790796Y-91405444D01*
X95714496Y-91385000D01*
X95635504Y-91385000D01*
X95559204Y-91405444D01*
X95490795Y-91444940D01*
X95434940Y-91500795D01*
X95425000Y-91518011D01*
X95425000Y-90766116D01*
X95424999Y-90766115D01*
X95397899Y-90771506D01*
X95397896Y-90771507D01*
X95225008Y-90843119D01*
X95224999Y-90843124D01*
X95069410Y-90947086D01*
X95069406Y-90947089D01*
X94937089Y-91079406D01*
X94937086Y-91079410D01*
X94833124Y-91234999D01*
X94833119Y-91235008D01*
X94761508Y-91407894D01*
X94761506Y-91407902D01*
X94725000Y-91591428D01*
X87000500Y-91591428D01*
X87000500Y-90415992D01*
X93147100Y-90415992D01*
X93147100Y-90584007D01*
X93179874Y-90748774D01*
X93179876Y-90748782D01*
X93244168Y-90903996D01*
X93244173Y-90904006D01*
X93337508Y-91043691D01*
X93337511Y-91043695D01*
X93456304Y-91162488D01*
X93456308Y-91162491D01*
X93595993Y-91255826D01*
X93595997Y-91255828D01*
X93596000Y-91255830D01*
X93751218Y-91320124D01*
X93915992Y-91352899D01*
X93915996Y-91352900D01*
X93915997Y-91352900D01*
X94084004Y-91352900D01*
X94084005Y-91352899D01*
X94248782Y-91320124D01*
X94404000Y-91255830D01*
X94543692Y-91162491D01*
X94662491Y-91043692D01*
X94755830Y-90904000D01*
X94820124Y-90748782D01*
X94852900Y-90584003D01*
X94852900Y-90415997D01*
X94823496Y-90268170D01*
X94829723Y-90198579D01*
X94872586Y-90143401D01*
X94938476Y-90120157D01*
X95006473Y-90136225D01*
X95032794Y-90156298D01*
X95069406Y-90192910D01*
X95069410Y-90192913D01*
X95224999Y-90296875D01*
X95225012Y-90296882D01*
X95397889Y-90368489D01*
X95397896Y-90368491D01*
X95425000Y-90373882D01*
X95425000Y-90124000D01*
X95444685Y-90056961D01*
X95497489Y-90011206D01*
X95549000Y-90000000D01*
X95801000Y-90000000D01*
X95868039Y-90019685D01*
X95913794Y-90072489D01*
X95925000Y-90124000D01*
X95925000Y-90373881D01*
X95952103Y-90368491D01*
X95952110Y-90368489D01*
X96124987Y-90296882D01*
X96125000Y-90296875D01*
X96280589Y-90192913D01*
X96280593Y-90192910D01*
X96412910Y-90060593D01*
X96412917Y-90060584D01*
X96416578Y-90055107D01*
X96470191Y-90010303D01*
X96519678Y-90000000D01*
X97347140Y-90000000D01*
X97414179Y-90019685D01*
X97434821Y-90036319D01*
X97755302Y-90356800D01*
X97892598Y-90436067D01*
X98045732Y-90477100D01*
X98045734Y-90477100D01*
X101954266Y-90477100D01*
X101954268Y-90477100D01*
X102107402Y-90436067D01*
X102244698Y-90356800D01*
X102356800Y-90244698D01*
X102565179Y-90036319D01*
X102626502Y-90002834D01*
X102652860Y-90000000D01*
X103480322Y-90000000D01*
X103547361Y-90019685D01*
X103583422Y-90055107D01*
X103587082Y-90060584D01*
X103587089Y-90060593D01*
X103719406Y-90192910D01*
X103719410Y-90192913D01*
X103874999Y-90296875D01*
X103875012Y-90296882D01*
X104047889Y-90368489D01*
X104047896Y-90368491D01*
X104075000Y-90373882D01*
X104075000Y-89621988D01*
X104084940Y-89639205D01*
X104140795Y-89695060D01*
X104209204Y-89734556D01*
X104285504Y-89755000D01*
X104364496Y-89755000D01*
X104440796Y-89734556D01*
X104509205Y-89695060D01*
X104565060Y-89639205D01*
X104575000Y-89621988D01*
X104575000Y-90373881D01*
X104602103Y-90368491D01*
X104602110Y-90368489D01*
X104774987Y-90296882D01*
X104775000Y-90296875D01*
X104930589Y-90192913D01*
X104930593Y-90192910D01*
X105062910Y-90060593D01*
X105062913Y-90060589D01*
X105166875Y-89905000D01*
X105166880Y-89904991D01*
X105238491Y-89732105D01*
X105238493Y-89732097D01*
X105274999Y-89548571D01*
X105275000Y-89548569D01*
X105275000Y-88955000D01*
X104625000Y-88955000D01*
X104625000Y-88455000D01*
X105275000Y-88455000D01*
X105275000Y-87861430D01*
X105274999Y-87861428D01*
X105238493Y-87677902D01*
X105238491Y-87677894D01*
X105166880Y-87505008D01*
X105166875Y-87504999D01*
X105062913Y-87349410D01*
X105062910Y-87349406D01*
X104930593Y-87217089D01*
X104930589Y-87217086D01*
X104775000Y-87113124D01*
X104774991Y-87113119D01*
X104602103Y-87041507D01*
X104602100Y-87041506D01*
X104575000Y-87036115D01*
X104575000Y-87788011D01*
X104565060Y-87770795D01*
X104509205Y-87714940D01*
X104440796Y-87675444D01*
X104364496Y-87655000D01*
X104285504Y-87655000D01*
X104209204Y-87675444D01*
X104140795Y-87714940D01*
X104084940Y-87770795D01*
X104075000Y-87788011D01*
X104075000Y-87036116D01*
X104074999Y-87036115D01*
X104047899Y-87041506D01*
X104047892Y-87041508D01*
X103921452Y-87093881D01*
X103851982Y-87101350D01*
X103789503Y-87070074D01*
X103753852Y-87009985D01*
X103750000Y-86979320D01*
X103750000Y-86750000D01*
X98902860Y-86750000D01*
X98835821Y-86730315D01*
X98815179Y-86713681D01*
X98494699Y-86393201D01*
X98494698Y-86393200D01*
X98357402Y-86313933D01*
X98357403Y-86313933D01*
X98306357Y-86300255D01*
X98204268Y-86272900D01*
X94795732Y-86272900D01*
X94693642Y-86300255D01*
X94642597Y-86313933D01*
X94505303Y-86393199D01*
X94505300Y-86393201D01*
X93518201Y-87380300D01*
X93518199Y-87380303D01*
X93438933Y-87517597D01*
X93428791Y-87555448D01*
X93402116Y-87655000D01*
X93397900Y-87670733D01*
X93397900Y-89844554D01*
X93378215Y-89911593D01*
X93361581Y-89932235D01*
X93337511Y-89956304D01*
X93337508Y-89956308D01*
X93244173Y-90095993D01*
X93244168Y-90096003D01*
X93179876Y-90251217D01*
X93179874Y-90251225D01*
X93147100Y-90415992D01*
X87000500Y-90415992D01*
X87000500Y-87290992D01*
X90897100Y-87290992D01*
X90897100Y-87459007D01*
X90929874Y-87623774D01*
X90929876Y-87623782D01*
X90994168Y-87778996D01*
X90994173Y-87779006D01*
X91087508Y-87918691D01*
X91087511Y-87918695D01*
X91206304Y-88037488D01*
X91206308Y-88037491D01*
X91345993Y-88130826D01*
X91345997Y-88130828D01*
X91346000Y-88130830D01*
X91501218Y-88195124D01*
X91665992Y-88227899D01*
X91665996Y-88227900D01*
X91665997Y-88227900D01*
X91834004Y-88227900D01*
X91834005Y-88227899D01*
X91998782Y-88195124D01*
X92154000Y-88130830D01*
X92293692Y-88037491D01*
X92412491Y-87918692D01*
X92505830Y-87779000D01*
X92570124Y-87623782D01*
X92602900Y-87459003D01*
X92602900Y-87290997D01*
X92570124Y-87126218D01*
X92505830Y-86971000D01*
X92505828Y-86970997D01*
X92505826Y-86970993D01*
X92412491Y-86831308D01*
X92412488Y-86831304D01*
X92293695Y-86712511D01*
X92293691Y-86712508D01*
X92154006Y-86619173D01*
X92153996Y-86619168D01*
X91998782Y-86554876D01*
X91998774Y-86554874D01*
X91834007Y-86522100D01*
X91834003Y-86522100D01*
X91665997Y-86522100D01*
X91665992Y-86522100D01*
X91501225Y-86554874D01*
X91501217Y-86554876D01*
X91346003Y-86619168D01*
X91345993Y-86619173D01*
X91206308Y-86712508D01*
X91206304Y-86712511D01*
X91087511Y-86831304D01*
X91087508Y-86831308D01*
X90994173Y-86970993D01*
X90994168Y-86971003D01*
X90929876Y-87126217D01*
X90929874Y-87126225D01*
X90897100Y-87290992D01*
X87000500Y-87290992D01*
X87000500Y-66693916D01*
X87020185Y-66626877D01*
X87072989Y-66581122D01*
X87142147Y-66571178D01*
X87205703Y-66600203D01*
X87213735Y-66608727D01*
X87213938Y-66608525D01*
X87262181Y-66656768D01*
X87295666Y-66718091D01*
X87298500Y-66744449D01*
X87298500Y-73166490D01*
X87298499Y-73166508D01*
X87298499Y-73174103D01*
X87298499Y-73325897D01*
X87300671Y-73334003D01*
X87332078Y-73451217D01*
X87337785Y-73472516D01*
X87337786Y-73472520D01*
X87337787Y-73472521D01*
X87413685Y-73603980D01*
X87413687Y-73603982D01*
X87528085Y-73718380D01*
X87528091Y-73718385D01*
X87738080Y-73928374D01*
X87771565Y-73989697D01*
X87766581Y-74059389D01*
X87738080Y-74103736D01*
X87653511Y-74188304D01*
X87653508Y-74188308D01*
X87560173Y-74327993D01*
X87560168Y-74328003D01*
X87495876Y-74483217D01*
X87495874Y-74483225D01*
X87463100Y-74647992D01*
X87463100Y-74816007D01*
X87495874Y-74980774D01*
X87495876Y-74980782D01*
X87560168Y-75135996D01*
X87560173Y-75136006D01*
X87653508Y-75275691D01*
X87653511Y-75275695D01*
X87772304Y-75394488D01*
X87772308Y-75394491D01*
X87911993Y-75487826D01*
X87911997Y-75487828D01*
X87912000Y-75487830D01*
X88067218Y-75552124D01*
X88231992Y-75584899D01*
X88231996Y-75584900D01*
X88231997Y-75584900D01*
X88400004Y-75584900D01*
X88400005Y-75584899D01*
X88437906Y-75577360D01*
X88525309Y-75559976D01*
X88594901Y-75566203D01*
X88650078Y-75609067D01*
X88673322Y-75674956D01*
X88673500Y-75681593D01*
X88673500Y-85443954D01*
X88653815Y-85510993D01*
X88637181Y-85531635D01*
X88587511Y-85581304D01*
X88587508Y-85581308D01*
X88494173Y-85720993D01*
X88494168Y-85721003D01*
X88429876Y-85876217D01*
X88429874Y-85876225D01*
X88397100Y-86040992D01*
X88397100Y-86209007D01*
X88429874Y-86373774D01*
X88429876Y-86373782D01*
X88494168Y-86528996D01*
X88494173Y-86529006D01*
X88587508Y-86668691D01*
X88587511Y-86668695D01*
X88706304Y-86787488D01*
X88706308Y-86787491D01*
X88845993Y-86880826D01*
X88845997Y-86880828D01*
X88846000Y-86880830D01*
X89001218Y-86945124D01*
X89131273Y-86970993D01*
X89165992Y-86977899D01*
X89165996Y-86977900D01*
X89165997Y-86977900D01*
X89334004Y-86977900D01*
X89334005Y-86977899D01*
X89498782Y-86945124D01*
X89654000Y-86880830D01*
X89793692Y-86787491D01*
X89912491Y-86668692D01*
X90005830Y-86529000D01*
X90070124Y-86373782D01*
X90102900Y-86209003D01*
X90102900Y-86040997D01*
X90070124Y-85876218D01*
X90005830Y-85721000D01*
X90005828Y-85720997D01*
X90005826Y-85720993D01*
X89912491Y-85581308D01*
X89912488Y-85581304D01*
X89862819Y-85531635D01*
X89848115Y-85504707D01*
X89831523Y-85478889D01*
X89830631Y-85472688D01*
X89829334Y-85470312D01*
X89826500Y-85443954D01*
X89826500Y-85299986D01*
X95200001Y-85299986D01*
X95210494Y-85402697D01*
X95265641Y-85569119D01*
X95265643Y-85569124D01*
X95357684Y-85718345D01*
X95481654Y-85842315D01*
X95630875Y-85934356D01*
X95630880Y-85934358D01*
X95797302Y-85989505D01*
X95797309Y-85989506D01*
X95900019Y-85999999D01*
X96049999Y-85999999D01*
X96550000Y-85999999D01*
X96699972Y-85999999D01*
X96699986Y-85999998D01*
X96802697Y-85989505D01*
X96969119Y-85934358D01*
X96969124Y-85934356D01*
X97118345Y-85842315D01*
X97242315Y-85718345D01*
X97334356Y-85569124D01*
X97334358Y-85569119D01*
X97389505Y-85402697D01*
X97389506Y-85402690D01*
X97399999Y-85299986D01*
X97400000Y-85299973D01*
X97400000Y-85250000D01*
X96550000Y-85250000D01*
X96550000Y-85999999D01*
X96049999Y-85999999D01*
X96050000Y-85999998D01*
X96050000Y-85250000D01*
X95200001Y-85250000D01*
X95200001Y-85299986D01*
X89826500Y-85299986D01*
X89826500Y-84700013D01*
X95200000Y-84700013D01*
X95200000Y-84750000D01*
X96050000Y-84750000D01*
X96550000Y-84750000D01*
X97399999Y-84750000D01*
X97399999Y-84700028D01*
X97399998Y-84700013D01*
X97389505Y-84597302D01*
X97334358Y-84430880D01*
X97334356Y-84430875D01*
X97242315Y-84281654D01*
X97118345Y-84157684D01*
X96969124Y-84065643D01*
X96969119Y-84065641D01*
X96802697Y-84010494D01*
X96802690Y-84010493D01*
X96699986Y-84000000D01*
X96550000Y-84000000D01*
X96550000Y-84750000D01*
X96050000Y-84750000D01*
X96050000Y-84000000D01*
X95900027Y-84000000D01*
X95900012Y-84000001D01*
X95797302Y-84010494D01*
X95630880Y-84065641D01*
X95630875Y-84065643D01*
X95481654Y-84157684D01*
X95357684Y-84281654D01*
X95265643Y-84430875D01*
X95265641Y-84430880D01*
X95210494Y-84597302D01*
X95210493Y-84597309D01*
X95200000Y-84700013D01*
X89826500Y-84700013D01*
X89826500Y-79008266D01*
X89846185Y-78941227D01*
X89898989Y-78895472D01*
X89968147Y-78885528D01*
X90031703Y-78914553D01*
X90053603Y-78939377D01*
X90066507Y-78958690D01*
X90066511Y-78958695D01*
X90185304Y-79077488D01*
X90185308Y-79077491D01*
X90324993Y-79170826D01*
X90324997Y-79170828D01*
X90325000Y-79170830D01*
X90480218Y-79235124D01*
X90644992Y-79267899D01*
X90644996Y-79267900D01*
X90644997Y-79267900D01*
X90813004Y-79267900D01*
X90813005Y-79267899D01*
X90977782Y-79235124D01*
X91133000Y-79170830D01*
X91232542Y-79104317D01*
X91299219Y-79083440D01*
X91366599Y-79101924D01*
X91413290Y-79153903D01*
X91424466Y-79222873D01*
X91423051Y-79231610D01*
X91400100Y-79346998D01*
X91400100Y-79515007D01*
X91432874Y-79679774D01*
X91432876Y-79679782D01*
X91497168Y-79834996D01*
X91497173Y-79835006D01*
X91590508Y-79974691D01*
X91590511Y-79974695D01*
X91709304Y-80093488D01*
X91709308Y-80093491D01*
X91848993Y-80186826D01*
X91848997Y-80186828D01*
X91849000Y-80186830D01*
X92004218Y-80251124D01*
X92168992Y-80283899D01*
X92168996Y-80283900D01*
X92168997Y-80283900D01*
X92337004Y-80283900D01*
X92337005Y-80283899D01*
X92501782Y-80251124D01*
X92657000Y-80186830D01*
X92796692Y-80093491D01*
X92915491Y-79974692D01*
X93008830Y-79835000D01*
X93073124Y-79679782D01*
X93105900Y-79515003D01*
X93105900Y-79480960D01*
X93125585Y-79413921D01*
X93142219Y-79393279D01*
X93186219Y-79349279D01*
X93247542Y-79315794D01*
X93317234Y-79320778D01*
X93373167Y-79362650D01*
X93397584Y-79428114D01*
X93397900Y-79436960D01*
X93397900Y-81199240D01*
X93378215Y-81266279D01*
X93361581Y-81286921D01*
X93287721Y-81360781D01*
X93226398Y-81394266D01*
X93200040Y-81397100D01*
X93165992Y-81397100D01*
X93001225Y-81429874D01*
X93001217Y-81429876D01*
X92846003Y-81494168D01*
X92845993Y-81494173D01*
X92706308Y-81587508D01*
X92706304Y-81587511D01*
X92587511Y-81706304D01*
X92587508Y-81706308D01*
X92494173Y-81845993D01*
X92494168Y-81846003D01*
X92429876Y-82001217D01*
X92429874Y-82001225D01*
X92397100Y-82165992D01*
X92397100Y-82174094D01*
X92377415Y-82241133D01*
X92324611Y-82286888D01*
X92297291Y-82295711D01*
X92251225Y-82304874D01*
X92251217Y-82304876D01*
X92096003Y-82369168D01*
X92095993Y-82369173D01*
X91956308Y-82462508D01*
X91956304Y-82462511D01*
X91837511Y-82581304D01*
X91837508Y-82581308D01*
X91744173Y-82720993D01*
X91744168Y-82721003D01*
X91679876Y-82876217D01*
X91679874Y-82876225D01*
X91647100Y-83040992D01*
X91647100Y-83209007D01*
X91679874Y-83373774D01*
X91679876Y-83373782D01*
X91744168Y-83528996D01*
X91744173Y-83529006D01*
X91837508Y-83668691D01*
X91837511Y-83668695D01*
X91956304Y-83787488D01*
X91956308Y-83787491D01*
X92095993Y-83880826D01*
X92095997Y-83880828D01*
X92096000Y-83880830D01*
X92251218Y-83945124D01*
X92412759Y-83977256D01*
X92415992Y-83977899D01*
X92415996Y-83977900D01*
X92415997Y-83977900D01*
X92584004Y-83977900D01*
X92584005Y-83977899D01*
X92748782Y-83945124D01*
X92904000Y-83880830D01*
X93043692Y-83787491D01*
X93043695Y-83787488D01*
X93067765Y-83763419D01*
X93129088Y-83729934D01*
X93155446Y-83727100D01*
X93454266Y-83727100D01*
X93454268Y-83727100D01*
X93607402Y-83686067D01*
X93744698Y-83606800D01*
X93856800Y-83494698D01*
X94885000Y-82466498D01*
X94964267Y-82329202D01*
X95005300Y-82176068D01*
X95005300Y-82017532D01*
X95005300Y-77551885D01*
X95024985Y-77484846D01*
X95077789Y-77439091D01*
X95146947Y-77429147D01*
X95210503Y-77458172D01*
X95247006Y-77512881D01*
X95265641Y-77569119D01*
X95265643Y-77569124D01*
X95357684Y-77718345D01*
X95481654Y-77842315D01*
X95630875Y-77934356D01*
X95630880Y-77934358D01*
X95797302Y-77989505D01*
X95797309Y-77989506D01*
X95900019Y-77999999D01*
X96049999Y-77999999D01*
X96550000Y-77999999D01*
X96699972Y-77999999D01*
X96699986Y-77999998D01*
X96802697Y-77989505D01*
X96969119Y-77934358D01*
X96969124Y-77934356D01*
X97118345Y-77842315D01*
X97242315Y-77718345D01*
X97334356Y-77569124D01*
X97334358Y-77569119D01*
X97389505Y-77402697D01*
X97389506Y-77402690D01*
X97399999Y-77299986D01*
X97400000Y-77299973D01*
X97400000Y-77250000D01*
X96550000Y-77250000D01*
X96550000Y-77999999D01*
X96049999Y-77999999D01*
X96050000Y-77999998D01*
X96050000Y-76750000D01*
X96550000Y-76750000D01*
X97399999Y-76750000D01*
X97399999Y-76700028D01*
X97399998Y-76700013D01*
X97389505Y-76597302D01*
X97334358Y-76430880D01*
X97334356Y-76430875D01*
X97242315Y-76281654D01*
X97118345Y-76157684D01*
X96969124Y-76065643D01*
X96969119Y-76065641D01*
X96802697Y-76010494D01*
X96802690Y-76010493D01*
X96699986Y-76000000D01*
X96550000Y-76000000D01*
X96550000Y-76750000D01*
X96050000Y-76750000D01*
X96050000Y-76000000D01*
X95900027Y-76000000D01*
X95900012Y-76000001D01*
X95797302Y-76010494D01*
X95630880Y-76065641D01*
X95630875Y-76065643D01*
X95481654Y-76157684D01*
X95357684Y-76281654D01*
X95265643Y-76430875D01*
X95265641Y-76430880D01*
X95222667Y-76560569D01*
X95182894Y-76618014D01*
X95118379Y-76644837D01*
X95049603Y-76632522D01*
X94998403Y-76584979D01*
X94985187Y-76553662D01*
X94964267Y-76475588D01*
X94885000Y-76338292D01*
X94772898Y-76226190D01*
X93416619Y-74869911D01*
X93383134Y-74808588D01*
X93380300Y-74782230D01*
X93380300Y-68647560D01*
X93399985Y-68580521D01*
X93416619Y-68559879D01*
X94328125Y-67648373D01*
X95356800Y-66619698D01*
X95380742Y-66578227D01*
X95414591Y-66542093D01*
X95413985Y-66541354D01*
X95418695Y-66537489D01*
X95537488Y-66418695D01*
X95537491Y-66418692D01*
X95630830Y-66279000D01*
X95695124Y-66123782D01*
X95701330Y-66092579D01*
X95733713Y-66030671D01*
X95794428Y-65996095D01*
X95835551Y-65993413D01*
X95900021Y-65999999D01*
X96049999Y-65999999D01*
X96050000Y-65999998D01*
X96050000Y-65250000D01*
X96550000Y-65250000D01*
X96550000Y-65999999D01*
X96699972Y-65999999D01*
X96699986Y-65999998D01*
X96802696Y-65989505D01*
X96831988Y-65979799D01*
X96901817Y-65977396D01*
X96961859Y-66013126D01*
X96993053Y-66075646D01*
X96990269Y-66123145D01*
X96992064Y-66123503D01*
X96958100Y-66294252D01*
X96958100Y-66462267D01*
X96990874Y-66627034D01*
X96990876Y-66627042D01*
X97055168Y-66782256D01*
X97055173Y-66782266D01*
X97148508Y-66921951D01*
X97148511Y-66921955D01*
X97267304Y-67040748D01*
X97267308Y-67040751D01*
X97406993Y-67134086D01*
X97406997Y-67134088D01*
X97407000Y-67134090D01*
X97562218Y-67198384D01*
X97726992Y-67231159D01*
X97726996Y-67231160D01*
X97726997Y-67231160D01*
X97895004Y-67231160D01*
X97895005Y-67231159D01*
X98059782Y-67198384D01*
X98215000Y-67134090D01*
X98354692Y-67040751D01*
X98473491Y-66921952D01*
X98485486Y-66904000D01*
X98486662Y-66902240D01*
X98540273Y-66857433D01*
X98609598Y-66848724D01*
X98613958Y-66849511D01*
X98630995Y-66852900D01*
X98630997Y-66852900D01*
X98665040Y-66852900D01*
X98732079Y-66872585D01*
X98752721Y-66889219D01*
X99861581Y-67998079D01*
X99895066Y-68059402D01*
X99897900Y-68085760D01*
X99897900Y-73992373D01*
X99878215Y-74059412D01*
X99825411Y-74105167D01*
X99756253Y-74115111D01*
X99692697Y-74086086D01*
X99659339Y-74039826D01*
X99645257Y-74005830D01*
X99630830Y-73971000D01*
X99630828Y-73970997D01*
X99630826Y-73970993D01*
X99537491Y-73831308D01*
X99537488Y-73831304D01*
X99418695Y-73712511D01*
X99418691Y-73712508D01*
X99279006Y-73619173D01*
X99278996Y-73619168D01*
X99123782Y-73554876D01*
X99123774Y-73554874D01*
X98959007Y-73522100D01*
X98959003Y-73522100D01*
X98841580Y-73522100D01*
X98774541Y-73502415D01*
X98728786Y-73449611D01*
X98718842Y-73380453D01*
X98719962Y-73373910D01*
X98727900Y-73334001D01*
X98727900Y-73165996D01*
X98727899Y-73165992D01*
X98704335Y-73047525D01*
X98695124Y-73001218D01*
X98630830Y-72846000D01*
X98630828Y-72845997D01*
X98630826Y-72845993D01*
X98537491Y-72706308D01*
X98537488Y-72706304D01*
X98418695Y-72587511D01*
X98418691Y-72587508D01*
X98279006Y-72494173D01*
X98278996Y-72494168D01*
X98123782Y-72429876D01*
X98123774Y-72429874D01*
X97959007Y-72397100D01*
X97959003Y-72397100D01*
X97790997Y-72397100D01*
X97790992Y-72397100D01*
X97626225Y-72429874D01*
X97626217Y-72429876D01*
X97471003Y-72494168D01*
X97470993Y-72494173D01*
X97331308Y-72587508D01*
X97331304Y-72587511D01*
X97212511Y-72706304D01*
X97212508Y-72706308D01*
X97119173Y-72845993D01*
X97119168Y-72846003D01*
X97054876Y-73001217D01*
X97054874Y-73001225D01*
X97022100Y-73165992D01*
X97022100Y-73334007D01*
X97054874Y-73498774D01*
X97054876Y-73498782D01*
X97119168Y-73653996D01*
X97119173Y-73654006D01*
X97212508Y-73793691D01*
X97212511Y-73793695D01*
X97331304Y-73912488D01*
X97331308Y-73912491D01*
X97470993Y-74005826D01*
X97470997Y-74005828D01*
X97471000Y-74005830D01*
X97626218Y-74070124D01*
X97790992Y-74102899D01*
X97790996Y-74102900D01*
X97908420Y-74102900D01*
X97975459Y-74122585D01*
X98021214Y-74175389D01*
X98031158Y-74244547D01*
X98030038Y-74251090D01*
X98022100Y-74290998D01*
X98022100Y-74459007D01*
X98054874Y-74623774D01*
X98054876Y-74623782D01*
X98119168Y-74778996D01*
X98119173Y-74779006D01*
X98212508Y-74918691D01*
X98212511Y-74918695D01*
X98331304Y-75037488D01*
X98331308Y-75037491D01*
X98470993Y-75130826D01*
X98470997Y-75130828D01*
X98471000Y-75130830D01*
X98626218Y-75195124D01*
X98790992Y-75227899D01*
X98790996Y-75227900D01*
X98906239Y-75227900D01*
X98973278Y-75247585D01*
X99019033Y-75300389D01*
X99028977Y-75369547D01*
X98999952Y-75433103D01*
X98993920Y-75439581D01*
X98630302Y-75803200D01*
X98518201Y-75915300D01*
X98518199Y-75915303D01*
X98438933Y-76052597D01*
X98397900Y-76205733D01*
X98397900Y-80344554D01*
X98378215Y-80411593D01*
X98361581Y-80432235D01*
X98337511Y-80456304D01*
X98337508Y-80456308D01*
X98244173Y-80595993D01*
X98244168Y-80596003D01*
X98179876Y-80751217D01*
X98179874Y-80751225D01*
X98147100Y-80915992D01*
X98147100Y-81084007D01*
X98179874Y-81248774D01*
X98179876Y-81248782D01*
X98244168Y-81403996D01*
X98244173Y-81404006D01*
X98337508Y-81543691D01*
X98337511Y-81543695D01*
X98456304Y-81662488D01*
X98456308Y-81662491D01*
X98595993Y-81755826D01*
X98595997Y-81755828D01*
X98596000Y-81755830D01*
X98751218Y-81820124D01*
X98881273Y-81845993D01*
X98915992Y-81852899D01*
X98915996Y-81852900D01*
X98915997Y-81852900D01*
X99084004Y-81852900D01*
X99084005Y-81852899D01*
X99248782Y-81820124D01*
X99404000Y-81755830D01*
X99543692Y-81662491D01*
X99662491Y-81543692D01*
X99755830Y-81404000D01*
X99820124Y-81248782D01*
X99852900Y-81084003D01*
X99852900Y-80915997D01*
X99820124Y-80751218D01*
X99755830Y-80596000D01*
X99755828Y-80595997D01*
X99755826Y-80595993D01*
X99662491Y-80456308D01*
X99662488Y-80456304D01*
X99638419Y-80432235D01*
X99604934Y-80370912D01*
X99602100Y-80344554D01*
X99602100Y-76585760D01*
X99621785Y-76518721D01*
X99638419Y-76498079D01*
X100250798Y-75885700D01*
X100981800Y-75154698D01*
X100995580Y-75130830D01*
X101061067Y-75017402D01*
X101102100Y-74864268D01*
X101102100Y-67705732D01*
X101061067Y-67552598D01*
X100981800Y-67415302D01*
X100869698Y-67303200D01*
X99604219Y-66037721D01*
X99570734Y-65976398D01*
X99567900Y-65950040D01*
X99567900Y-65915996D01*
X99567899Y-65915992D01*
X99559988Y-65876218D01*
X99535124Y-65751218D01*
X99470830Y-65596000D01*
X99470828Y-65595997D01*
X99470826Y-65595993D01*
X99377491Y-65456308D01*
X99377488Y-65456304D01*
X99258695Y-65337511D01*
X99258691Y-65337508D01*
X99119006Y-65244173D01*
X99118996Y-65244168D01*
X98963782Y-65179876D01*
X98963774Y-65179874D01*
X98799007Y-65147100D01*
X98799003Y-65147100D01*
X98630997Y-65147100D01*
X98630992Y-65147100D01*
X98466225Y-65179874D01*
X98466217Y-65179876D01*
X98311003Y-65244168D01*
X98310993Y-65244173D01*
X98171308Y-65337508D01*
X98171304Y-65337511D01*
X98052511Y-65456304D01*
X98052507Y-65456309D01*
X98039333Y-65476025D01*
X97985719Y-65520828D01*
X97916394Y-65529534D01*
X97912046Y-65528749D01*
X97895006Y-65525360D01*
X97895003Y-65525360D01*
X97726997Y-65525360D01*
X97726992Y-65525360D01*
X97562225Y-65558134D01*
X97562218Y-65558136D01*
X97552740Y-65562062D01*
X97483270Y-65569529D01*
X97420792Y-65538254D01*
X97385140Y-65478164D01*
X97387585Y-65408490D01*
X97389505Y-65402694D01*
X97389506Y-65402690D01*
X97399999Y-65299986D01*
X97400000Y-65299973D01*
X97400000Y-65250000D01*
X96550000Y-65250000D01*
X96050000Y-65250000D01*
X95507546Y-65250000D01*
X95440507Y-65230315D01*
X95419865Y-65213681D01*
X95418695Y-65212511D01*
X95418691Y-65212508D01*
X95279006Y-65119173D01*
X95278996Y-65119168D01*
X95123782Y-65054876D01*
X95123774Y-65054874D01*
X94959007Y-65022100D01*
X94959003Y-65022100D01*
X94790997Y-65022100D01*
X94768242Y-65026626D01*
X94687534Y-65042679D01*
X94617942Y-65036450D01*
X94562765Y-64993587D01*
X94548783Y-64968513D01*
X94532833Y-64930006D01*
X94532826Y-64929993D01*
X94520633Y-64911745D01*
X94499755Y-64845068D01*
X94518239Y-64777687D01*
X94538991Y-64752330D01*
X94546396Y-64745397D01*
X94574692Y-64726491D01*
X94601170Y-64700013D01*
X95200000Y-64700013D01*
X95200000Y-64750000D01*
X96050000Y-64750000D01*
X96550000Y-64750000D01*
X97399999Y-64750000D01*
X97399999Y-64700028D01*
X97399998Y-64700013D01*
X97389505Y-64597302D01*
X97334358Y-64430880D01*
X97334356Y-64430875D01*
X97242315Y-64281654D01*
X97118345Y-64157684D01*
X96969124Y-64065643D01*
X96969119Y-64065641D01*
X96802697Y-64010494D01*
X96802690Y-64010493D01*
X96699986Y-64000000D01*
X96550000Y-64000000D01*
X96550000Y-64750000D01*
X96050000Y-64750000D01*
X96050000Y-64000000D01*
X95900027Y-64000000D01*
X95900012Y-64000001D01*
X95797302Y-64010494D01*
X95630880Y-64065641D01*
X95630875Y-64065643D01*
X95481654Y-64157684D01*
X95357684Y-64281654D01*
X95265643Y-64430875D01*
X95265641Y-64430880D01*
X95210494Y-64597302D01*
X95210493Y-64597309D01*
X95200000Y-64700013D01*
X94601170Y-64700013D01*
X94693491Y-64607692D01*
X94786830Y-64468000D01*
X94851124Y-64312782D01*
X94883900Y-64148003D01*
X94883900Y-63979997D01*
X94851124Y-63815218D01*
X94786830Y-63660000D01*
X94786828Y-63659997D01*
X94786826Y-63659993D01*
X94693491Y-63520308D01*
X94693488Y-63520304D01*
X94574695Y-63401511D01*
X94574691Y-63401508D01*
X94435006Y-63308173D01*
X94434996Y-63308168D01*
X94279782Y-63243876D01*
X94279774Y-63243874D01*
X94115007Y-63211100D01*
X94115003Y-63211100D01*
X93946997Y-63211100D01*
X93946992Y-63211100D01*
X93782225Y-63243874D01*
X93782217Y-63243876D01*
X93627000Y-63308169D01*
X93591891Y-63331629D01*
X93525213Y-63352507D01*
X93457833Y-63334022D01*
X93454109Y-63331629D01*
X93418999Y-63308169D01*
X93263782Y-63243876D01*
X93263774Y-63243874D01*
X93099007Y-63211100D01*
X93099003Y-63211100D01*
X92930997Y-63211100D01*
X92930992Y-63211100D01*
X92766225Y-63243874D01*
X92766217Y-63243876D01*
X92611003Y-63308168D01*
X92610993Y-63308173D01*
X92471308Y-63401508D01*
X92471304Y-63401511D01*
X92447235Y-63425581D01*
X92385912Y-63459066D01*
X92359554Y-63461900D01*
X92300732Y-63461900D01*
X92198642Y-63489255D01*
X92147597Y-63502933D01*
X92057612Y-63554886D01*
X92010303Y-63582199D01*
X92010300Y-63582201D01*
X90962229Y-64630271D01*
X90900906Y-64663756D01*
X90831214Y-64658772D01*
X90775281Y-64616900D01*
X90759987Y-64590043D01*
X90721533Y-64497208D01*
X90714064Y-64427739D01*
X90721533Y-64402302D01*
X90785124Y-64248782D01*
X90817900Y-64084003D01*
X90817900Y-63915997D01*
X90785124Y-63751218D01*
X90720830Y-63596000D01*
X90720828Y-63595997D01*
X90720826Y-63595993D01*
X90627491Y-63456308D01*
X90627488Y-63456304D01*
X90508695Y-63337511D01*
X90508691Y-63337508D01*
X90369006Y-63244173D01*
X90368996Y-63244168D01*
X90213782Y-63179876D01*
X90213774Y-63179874D01*
X90049007Y-63147100D01*
X90049003Y-63147100D01*
X89880997Y-63147100D01*
X89880992Y-63147100D01*
X89716225Y-63179874D01*
X89716217Y-63179876D01*
X89561003Y-63244168D01*
X89560993Y-63244173D01*
X89421308Y-63337508D01*
X89421304Y-63337511D01*
X89302511Y-63456304D01*
X89302508Y-63456308D01*
X89209173Y-63595993D01*
X89209168Y-63596002D01*
X89203503Y-63609680D01*
X89159660Y-63664082D01*
X89093366Y-63686145D01*
X89025667Y-63668864D01*
X89001262Y-63649905D01*
X88638319Y-63286962D01*
X88604834Y-63225639D01*
X88602000Y-63199281D01*
X88602000Y-61550718D01*
X88621685Y-61483679D01*
X88638319Y-61463037D01*
X90338037Y-59763319D01*
X90399360Y-59729834D01*
X90425718Y-59727000D01*
X92914964Y-59727000D01*
X92982003Y-59746685D01*
X93027758Y-59799489D01*
X93037702Y-59868647D01*
X93008677Y-59932203D01*
X92983855Y-59954102D01*
X92956308Y-59972508D01*
X92956304Y-59972511D01*
X92837511Y-60091304D01*
X92837508Y-60091308D01*
X92744173Y-60230993D01*
X92744168Y-60231003D01*
X92679876Y-60386217D01*
X92679874Y-60386225D01*
X92647100Y-60550992D01*
X92647100Y-60719007D01*
X92679874Y-60883774D01*
X92679876Y-60883782D01*
X92744168Y-61038996D01*
X92744173Y-61039006D01*
X92837508Y-61178691D01*
X92837511Y-61178695D01*
X92956304Y-61297488D01*
X92956308Y-61297491D01*
X93095993Y-61390826D01*
X93095997Y-61390828D01*
X93096000Y-61390830D01*
X93251218Y-61455124D01*
X93415992Y-61487899D01*
X93415996Y-61487900D01*
X93415997Y-61487900D01*
X93584004Y-61487900D01*
X93584005Y-61487899D01*
X93748782Y-61455124D01*
X93904000Y-61390830D01*
X94043692Y-61297491D01*
X94162491Y-61178692D01*
X94255830Y-61039000D01*
X94320124Y-60883782D01*
X94352900Y-60719003D01*
X94352900Y-60550997D01*
X94320124Y-60386218D01*
X94255830Y-60231000D01*
X94255828Y-60230997D01*
X94255826Y-60230993D01*
X94162491Y-60091308D01*
X94162488Y-60091304D01*
X94043695Y-59972511D01*
X94043691Y-59972508D01*
X93904006Y-59879173D01*
X93903997Y-59879168D01*
X93808759Y-59839719D01*
X93768340Y-59822977D01*
X93713938Y-59779137D01*
X93691873Y-59712843D01*
X93709152Y-59645144D01*
X93740310Y-59610039D01*
X93744626Y-59606725D01*
X93744637Y-59606720D01*
X94481720Y-58869637D01*
X94508416Y-58823398D01*
X94560975Y-58732363D01*
X94602000Y-58579255D01*
X94602000Y-57050719D01*
X94616893Y-57000000D01*
X96000000Y-57000000D01*
X96000000Y-63500000D01*
X102500000Y-63500000D01*
X102500000Y-61505545D01*
X102519685Y-61438506D01*
X102572489Y-61392751D01*
X102641647Y-61382807D01*
X102705203Y-61411832D01*
X102711681Y-61417864D01*
X102736581Y-61442764D01*
X102770066Y-61504087D01*
X102772900Y-61530445D01*
X102772900Y-62954268D01*
X102785154Y-63000000D01*
X102813933Y-63107403D01*
X102813934Y-63107404D01*
X102844063Y-63159589D01*
X102855774Y-63179874D01*
X102874192Y-63211774D01*
X102874193Y-63211776D01*
X102893199Y-63244697D01*
X103061581Y-63413079D01*
X103095066Y-63474402D01*
X103097900Y-63500760D01*
X103097900Y-63954837D01*
X103078215Y-64021876D01*
X103035471Y-64059220D01*
X103036813Y-64061395D01*
X103030667Y-64065185D01*
X103030666Y-64065186D01*
X102971796Y-64101497D01*
X102881342Y-64157289D01*
X102757289Y-64281342D01*
X102665187Y-64430663D01*
X102665185Y-64430668D01*
X102665115Y-64430880D01*
X102610001Y-64597203D01*
X102610001Y-64597204D01*
X102610000Y-64597204D01*
X102599500Y-64699983D01*
X102599500Y-64805777D01*
X102579815Y-64872816D01*
X102527011Y-64918571D01*
X102457853Y-64928515D01*
X102451310Y-64927395D01*
X102333672Y-64903996D01*
X102299003Y-64897100D01*
X102130997Y-64897100D01*
X102130992Y-64897100D01*
X101966225Y-64929874D01*
X101966217Y-64929876D01*
X101811003Y-64994168D01*
X101810993Y-64994173D01*
X101671308Y-65087508D01*
X101671304Y-65087511D01*
X101552511Y-65206304D01*
X101552508Y-65206308D01*
X101459173Y-65345993D01*
X101459168Y-65346003D01*
X101394876Y-65501217D01*
X101394874Y-65501225D01*
X101362100Y-65665992D01*
X101362100Y-65834007D01*
X101394874Y-65998774D01*
X101394876Y-65998782D01*
X101459168Y-66153996D01*
X101459173Y-66154006D01*
X101552508Y-66293691D01*
X101552511Y-66293695D01*
X101671304Y-66412488D01*
X101671308Y-66412491D01*
X101810993Y-66505826D01*
X101810997Y-66505828D01*
X101811000Y-66505830D01*
X101966218Y-66570124D01*
X102117438Y-66600203D01*
X102130992Y-66602899D01*
X102130996Y-66602900D01*
X102130997Y-66602900D01*
X102299004Y-66602900D01*
X102299005Y-66602899D01*
X102463782Y-66570124D01*
X102619000Y-66505830D01*
X102619006Y-66505826D01*
X102669209Y-66472282D01*
X102735887Y-66451404D01*
X102803267Y-66469889D01*
X102849957Y-66521867D01*
X102862100Y-66575384D01*
X102862100Y-66584007D01*
X102894874Y-66748774D01*
X102894876Y-66748782D01*
X102959168Y-66903996D01*
X102959173Y-66904006D01*
X103052508Y-67043691D01*
X103052511Y-67043695D01*
X103171304Y-67162488D01*
X103171308Y-67162491D01*
X103310993Y-67255826D01*
X103310997Y-67255828D01*
X103311000Y-67255830D01*
X103466218Y-67320124D01*
X103630992Y-67352899D01*
X103630996Y-67352900D01*
X103630997Y-67352900D01*
X103799004Y-67352900D01*
X103799005Y-67352899D01*
X103963782Y-67320124D01*
X104119000Y-67255830D01*
X104258692Y-67162491D01*
X104377491Y-67043692D01*
X104470830Y-66904000D01*
X104535124Y-66748782D01*
X104567900Y-66584003D01*
X104567900Y-66415997D01*
X104535124Y-66251218D01*
X104470830Y-66096000D01*
X104470827Y-66095995D01*
X104470823Y-66095988D01*
X104436383Y-66044444D01*
X104415505Y-65977767D01*
X104433990Y-65910387D01*
X104474386Y-65870017D01*
X104518656Y-65842712D01*
X104642712Y-65718656D01*
X104734814Y-65569334D01*
X104789999Y-65402797D01*
X104790000Y-65402784D01*
X104791417Y-65396173D01*
X104793287Y-65396573D01*
X104816138Y-65340557D01*
X104873316Y-65300401D01*
X104943126Y-65297532D01*
X104960561Y-65303283D01*
X105001212Y-65320122D01*
X105001214Y-65320122D01*
X105001218Y-65320124D01*
X105117392Y-65343232D01*
X105165992Y-65352899D01*
X105165996Y-65352900D01*
X105165997Y-65352900D01*
X105334004Y-65352900D01*
X105334005Y-65352899D01*
X105498782Y-65320124D01*
X105654000Y-65255830D01*
X105793692Y-65162491D01*
X105912491Y-65043692D01*
X106005830Y-64904000D01*
X106070124Y-64748782D01*
X106102900Y-64584003D01*
X106102900Y-64415997D01*
X106070124Y-64251218D01*
X106036881Y-64170965D01*
X106029413Y-64101497D01*
X106060688Y-64039017D01*
X106120777Y-64003365D01*
X106190602Y-64005858D01*
X106239124Y-64035832D01*
X106361581Y-64158289D01*
X106395066Y-64219612D01*
X106397900Y-64245970D01*
X106397900Y-68774183D01*
X106378215Y-68841222D01*
X106325411Y-68886977D01*
X106296734Y-68894717D01*
X106296972Y-68895911D01*
X106126225Y-68929874D01*
X106126217Y-68929876D01*
X105971003Y-68994168D01*
X105970993Y-68994173D01*
X105831308Y-69087508D01*
X105831304Y-69087511D01*
X105712511Y-69206304D01*
X105712508Y-69206308D01*
X105619173Y-69345993D01*
X105619168Y-69346003D01*
X105554876Y-69501217D01*
X105554874Y-69501225D01*
X105522100Y-69665992D01*
X105522100Y-69834007D01*
X105554874Y-69998774D01*
X105554876Y-69998782D01*
X105619168Y-70153996D01*
X105619173Y-70154006D01*
X105712508Y-70293691D01*
X105712511Y-70293695D01*
X105831305Y-70412489D01*
X105831308Y-70412491D01*
X105969293Y-70504689D01*
X106014098Y-70558300D01*
X106022019Y-70583600D01*
X106054874Y-70748774D01*
X106054876Y-70748782D01*
X106119168Y-70903996D01*
X106119173Y-70904006D01*
X106212508Y-71043691D01*
X106212511Y-71043695D01*
X106331304Y-71162488D01*
X106331308Y-71162491D01*
X106470993Y-71255826D01*
X106470997Y-71255828D01*
X106471000Y-71255830D01*
X106626218Y-71320124D01*
X106749491Y-71344644D01*
X106790992Y-71352899D01*
X106790996Y-71352900D01*
X106790997Y-71352900D01*
X106959004Y-71352900D01*
X106959004Y-71352899D01*
X107000509Y-71344644D01*
X107070099Y-71350871D01*
X107125277Y-71393733D01*
X107148522Y-71459623D01*
X107148700Y-71466261D01*
X107148700Y-75698440D01*
X107129015Y-75765479D01*
X107112381Y-75786121D01*
X106536921Y-76361581D01*
X106475598Y-76395066D01*
X106449240Y-76397900D01*
X104783811Y-76397900D01*
X104716772Y-76378215D01*
X104678272Y-76338997D01*
X104677838Y-76338293D01*
X104642712Y-76281344D01*
X104518656Y-76157288D01*
X104369334Y-76065186D01*
X104202797Y-76010001D01*
X104202795Y-76010000D01*
X104100010Y-75999500D01*
X103299998Y-75999500D01*
X103299980Y-75999501D01*
X103197203Y-76010000D01*
X103197200Y-76010001D01*
X103030668Y-76065185D01*
X103030663Y-76065187D01*
X102881342Y-76157289D01*
X102757289Y-76281342D01*
X102665187Y-76430663D01*
X102665185Y-76430668D01*
X102637349Y-76514670D01*
X102610001Y-76597203D01*
X102610001Y-76597204D01*
X102610000Y-76597204D01*
X102599500Y-76699983D01*
X102599500Y-77300001D01*
X102599501Y-77300019D01*
X102610000Y-77402796D01*
X102610001Y-77402799D01*
X102628350Y-77458172D01*
X102665186Y-77569334D01*
X102757288Y-77718656D01*
X102881344Y-77842712D01*
X103030666Y-77934814D01*
X103197203Y-77989999D01*
X103299991Y-78000500D01*
X104100008Y-78000499D01*
X104100016Y-78000498D01*
X104100019Y-78000498D01*
X104156302Y-77994748D01*
X104202797Y-77989999D01*
X104369334Y-77934814D01*
X104518656Y-77842712D01*
X104642712Y-77718656D01*
X104678273Y-77661001D01*
X104730220Y-77614279D01*
X104783811Y-77602100D01*
X106829266Y-77602100D01*
X106829268Y-77602100D01*
X106982402Y-77561067D01*
X107119698Y-77481800D01*
X107231800Y-77369698D01*
X107340219Y-77261279D01*
X107401542Y-77227794D01*
X107471234Y-77232778D01*
X107527167Y-77274650D01*
X107551584Y-77340114D01*
X107551900Y-77348960D01*
X107551900Y-82369852D01*
X107532215Y-82436891D01*
X107479411Y-82482646D01*
X107410253Y-82492590D01*
X107380448Y-82484413D01*
X107248786Y-82429877D01*
X107248774Y-82429874D01*
X107084007Y-82397100D01*
X107084003Y-82397100D01*
X106915997Y-82397100D01*
X106915992Y-82397100D01*
X106751225Y-82429874D01*
X106751217Y-82429876D01*
X106596003Y-82494168D01*
X106595993Y-82494173D01*
X106568891Y-82512283D01*
X106502213Y-82533161D01*
X106434833Y-82514676D01*
X106431109Y-82512283D01*
X106404006Y-82494173D01*
X106403996Y-82494168D01*
X106248782Y-82429876D01*
X106248774Y-82429874D01*
X106084007Y-82397100D01*
X106084003Y-82397100D01*
X106075906Y-82397100D01*
X106008867Y-82377415D01*
X105963112Y-82324611D01*
X105954289Y-82297291D01*
X105945125Y-82251225D01*
X105945124Y-82251218D01*
X105880830Y-82096000D01*
X105862714Y-82068888D01*
X105841837Y-82002216D01*
X105860320Y-81934835D01*
X105862679Y-81931163D01*
X105880830Y-81904000D01*
X105945124Y-81748782D01*
X105977900Y-81584003D01*
X105977900Y-81415997D01*
X105945124Y-81251218D01*
X105880830Y-81096000D01*
X105880828Y-81095997D01*
X105880826Y-81095993D01*
X105787491Y-80956308D01*
X105787488Y-80956304D01*
X105668695Y-80837511D01*
X105668691Y-80837508D01*
X105529006Y-80744173D01*
X105528996Y-80744168D01*
X105373782Y-80679876D01*
X105373774Y-80679874D01*
X105209007Y-80647100D01*
X105209003Y-80647100D01*
X105040997Y-80647100D01*
X105040992Y-80647100D01*
X104876225Y-80679874D01*
X104876217Y-80679876D01*
X104721003Y-80744168D01*
X104720993Y-80744173D01*
X104581308Y-80837508D01*
X104581304Y-80837511D01*
X104462511Y-80956304D01*
X104462508Y-80956308D01*
X104369173Y-81095993D01*
X104369168Y-81096003D01*
X104304876Y-81251217D01*
X104304874Y-81251225D01*
X104272100Y-81415992D01*
X104272100Y-81584007D01*
X104304874Y-81748774D01*
X104304876Y-81748782D01*
X104369168Y-81903996D01*
X104369173Y-81904006D01*
X104387283Y-81931109D01*
X104408161Y-81997787D01*
X104389676Y-82065167D01*
X104387283Y-82068891D01*
X104369173Y-82095993D01*
X104369168Y-82096003D01*
X104304876Y-82251217D01*
X104304874Y-82251225D01*
X104272100Y-82415992D01*
X104272100Y-82584007D01*
X104304874Y-82748774D01*
X104304876Y-82748782D01*
X104369168Y-82903996D01*
X104369173Y-82904006D01*
X104429044Y-82993609D01*
X104449922Y-83060287D01*
X104431437Y-83127667D01*
X104429044Y-83131391D01*
X104369173Y-83220993D01*
X104369168Y-83221003D01*
X104304876Y-83376217D01*
X104304874Y-83376225D01*
X104272100Y-83540992D01*
X104272100Y-83540997D01*
X104272100Y-83709003D01*
X104287712Y-83787491D01*
X104301909Y-83858865D01*
X104295681Y-83928457D01*
X104252817Y-83983634D01*
X104186927Y-84006878D01*
X104167689Y-84006414D01*
X104100011Y-83999500D01*
X103299998Y-83999500D01*
X103299980Y-83999501D01*
X103197203Y-84010000D01*
X103197200Y-84010001D01*
X103030668Y-84065185D01*
X103030663Y-84065187D01*
X102881342Y-84157289D01*
X102757289Y-84281342D01*
X102665187Y-84430663D01*
X102665185Y-84430668D01*
X102665115Y-84430880D01*
X102610001Y-84597203D01*
X102610001Y-84597204D01*
X102610000Y-84597204D01*
X102599500Y-84699983D01*
X102599500Y-85300001D01*
X102599501Y-85300019D01*
X102610000Y-85402796D01*
X102610001Y-85402799D01*
X102665185Y-85569331D01*
X102665187Y-85569336D01*
X102685396Y-85602100D01*
X102757288Y-85718656D01*
X102881344Y-85842712D01*
X103030666Y-85934814D01*
X103197203Y-85989999D01*
X103299991Y-86000500D01*
X104100008Y-86000499D01*
X104100016Y-86000498D01*
X104100019Y-86000498D01*
X104156302Y-85994748D01*
X104202797Y-85989999D01*
X104369334Y-85934814D01*
X104518656Y-85842712D01*
X104642712Y-85718656D01*
X104678273Y-85661001D01*
X104730220Y-85614279D01*
X104783811Y-85602100D01*
X106829266Y-85602100D01*
X106829268Y-85602100D01*
X106982402Y-85561067D01*
X107119698Y-85481800D01*
X107231800Y-85369698D01*
X108635800Y-83965698D01*
X108647678Y-83945124D01*
X108715067Y-83828402D01*
X108756100Y-83675268D01*
X108756100Y-75724882D01*
X108775785Y-75657843D01*
X108828589Y-75612088D01*
X108897747Y-75602144D01*
X108927554Y-75610322D01*
X108951212Y-75620122D01*
X108951214Y-75620122D01*
X108951218Y-75620124D01*
X109115992Y-75652899D01*
X109115996Y-75652900D01*
X109115997Y-75652900D01*
X109284004Y-75652900D01*
X109284005Y-75652899D01*
X109448782Y-75620124D01*
X109604000Y-75555830D01*
X109743692Y-75462491D01*
X109862491Y-75343692D01*
X109955830Y-75204000D01*
X110020124Y-75048782D01*
X110052900Y-74884003D01*
X110052900Y-74849960D01*
X110072585Y-74782921D01*
X110089219Y-74762279D01*
X110227724Y-74623774D01*
X110385800Y-74465698D01*
X110422299Y-74402479D01*
X110465067Y-74328402D01*
X110506100Y-74175268D01*
X110506100Y-70254522D01*
X110465067Y-70101388D01*
X110385800Y-69964092D01*
X110273698Y-69851990D01*
X108848019Y-68426311D01*
X108814534Y-68364988D01*
X108811700Y-68338630D01*
X108811700Y-63364911D01*
X108811700Y-63364910D01*
X108770667Y-63211776D01*
X108691400Y-63074480D01*
X108579298Y-62962378D01*
X108579297Y-62962377D01*
X107666619Y-62049699D01*
X107633134Y-61988376D01*
X107630300Y-61962018D01*
X107630300Y-57503722D01*
X107630300Y-57503721D01*
X107589267Y-57350587D01*
X107510000Y-57213291D01*
X107397898Y-57101189D01*
X107397897Y-57101188D01*
X106536708Y-56240000D01*
X106523546Y-56232401D01*
X106399414Y-56160734D01*
X106399413Y-56160733D01*
X106348367Y-56147055D01*
X106246278Y-56119700D01*
X106246276Y-56119700D01*
X105101100Y-56119700D01*
X105034061Y-56100015D01*
X104988306Y-56047211D01*
X104977100Y-55995700D01*
X104977100Y-55905445D01*
X104996785Y-55838406D01*
X105013419Y-55817764D01*
X105022813Y-55808370D01*
X105084136Y-55774885D01*
X105153828Y-55779869D01*
X105157946Y-55781490D01*
X105251213Y-55820122D01*
X105251218Y-55820124D01*
X105415992Y-55852899D01*
X105415996Y-55852900D01*
X105415997Y-55852900D01*
X105584004Y-55852900D01*
X105584005Y-55852899D01*
X105748782Y-55820124D01*
X105904000Y-55755830D01*
X106043692Y-55662491D01*
X106162491Y-55543692D01*
X106255830Y-55404000D01*
X106320124Y-55248782D01*
X106352900Y-55084003D01*
X106352900Y-54915997D01*
X106320124Y-54751218D01*
X106255830Y-54596000D01*
X106255828Y-54595997D01*
X106255826Y-54595993D01*
X106162491Y-54456308D01*
X106162488Y-54456304D01*
X106043695Y-54337511D01*
X106043691Y-54337508D01*
X105904006Y-54244173D01*
X105903996Y-54244168D01*
X105748782Y-54179876D01*
X105748774Y-54179874D01*
X105584007Y-54147100D01*
X105584003Y-54147100D01*
X105415997Y-54147100D01*
X105415992Y-54147100D01*
X105251225Y-54179874D01*
X105251217Y-54179876D01*
X105096003Y-54244168D01*
X105095993Y-54244173D01*
X104956308Y-54337508D01*
X104956304Y-54337511D01*
X104852186Y-54441630D01*
X104790863Y-54475115D01*
X104721171Y-54470131D01*
X104717052Y-54468510D01*
X104623782Y-54429876D01*
X104623774Y-54429874D01*
X104459007Y-54397100D01*
X104459003Y-54397100D01*
X104290997Y-54397100D01*
X104290996Y-54397100D01*
X104271733Y-54400931D01*
X104202141Y-54394701D01*
X104146965Y-54351837D01*
X104123723Y-54285946D01*
X104139793Y-54217950D01*
X104159859Y-54191638D01*
X104588079Y-53763419D01*
X104649402Y-53729934D01*
X104675760Y-53727100D01*
X106344554Y-53727100D01*
X106411593Y-53746785D01*
X106432235Y-53763419D01*
X106456304Y-53787488D01*
X106456308Y-53787491D01*
X106595993Y-53880826D01*
X106595997Y-53880828D01*
X106596000Y-53880830D01*
X106751218Y-53945124D01*
X106915992Y-53977899D01*
X106915996Y-53977900D01*
X106915997Y-53977900D01*
X107084004Y-53977900D01*
X107084005Y-53977899D01*
X107248782Y-53945124D01*
X107404000Y-53880830D01*
X107543692Y-53787491D01*
X107662491Y-53668692D01*
X107755830Y-53529000D01*
X107790501Y-53445297D01*
X109703500Y-53445297D01*
X109703500Y-53613312D01*
X109736274Y-53778079D01*
X109736276Y-53778087D01*
X109800568Y-53933301D01*
X109800573Y-53933311D01*
X109893908Y-54072996D01*
X109893911Y-54073000D01*
X110012704Y-54191793D01*
X110012708Y-54191796D01*
X110152393Y-54285131D01*
X110152397Y-54285133D01*
X110152400Y-54285135D01*
X110307618Y-54349429D01*
X110472392Y-54382204D01*
X110472396Y-54382205D01*
X110472397Y-54382205D01*
X110640404Y-54382205D01*
X110640405Y-54382204D01*
X110805182Y-54349429D01*
X110960400Y-54285135D01*
X111100092Y-54191796D01*
X111218891Y-54072997D01*
X111312230Y-53933305D01*
X111376524Y-53778087D01*
X111409300Y-53613308D01*
X111409300Y-53445302D01*
X111376524Y-53280523D01*
X111312230Y-53125305D01*
X111312228Y-53125302D01*
X111312226Y-53125298D01*
X111218891Y-52985613D01*
X111218888Y-52985609D01*
X111100095Y-52866816D01*
X111100091Y-52866813D01*
X110960406Y-52773478D01*
X110960396Y-52773473D01*
X110805182Y-52709181D01*
X110805174Y-52709179D01*
X110640407Y-52676405D01*
X110640403Y-52676405D01*
X110472397Y-52676405D01*
X110472392Y-52676405D01*
X110307625Y-52709179D01*
X110307617Y-52709181D01*
X110152403Y-52773473D01*
X110152393Y-52773478D01*
X110012708Y-52866813D01*
X110012704Y-52866816D01*
X109893911Y-52985609D01*
X109893908Y-52985613D01*
X109800573Y-53125298D01*
X109800568Y-53125308D01*
X109736276Y-53280522D01*
X109736274Y-53280530D01*
X109703500Y-53445297D01*
X107790501Y-53445297D01*
X107820124Y-53373782D01*
X107852900Y-53209003D01*
X107852900Y-53040997D01*
X107820124Y-52876218D01*
X107755830Y-52721000D01*
X107755828Y-52720997D01*
X107755826Y-52720993D01*
X107662491Y-52581308D01*
X107662488Y-52581304D01*
X107543695Y-52462511D01*
X107543691Y-52462508D01*
X107404006Y-52369173D01*
X107403996Y-52369168D01*
X107248782Y-52304876D01*
X107248774Y-52304874D01*
X107084007Y-52272100D01*
X107084003Y-52272100D01*
X106915997Y-52272100D01*
X106915992Y-52272100D01*
X106751225Y-52304874D01*
X106751217Y-52304876D01*
X106596003Y-52369168D01*
X106595993Y-52369173D01*
X106456308Y-52462508D01*
X106456304Y-52462511D01*
X106432235Y-52486581D01*
X106370912Y-52520066D01*
X106344554Y-52522900D01*
X104295732Y-52522900D01*
X104193642Y-52550255D01*
X104142597Y-52563933D01*
X104005303Y-52643199D01*
X104005300Y-52643201D01*
X101559690Y-55088810D01*
X101498367Y-55122295D01*
X101428675Y-55117311D01*
X101424562Y-55115692D01*
X101421546Y-55114443D01*
X101421545Y-55114442D01*
X101308054Y-55099500D01*
X100391951Y-55099500D01*
X100278464Y-55114440D01*
X100278460Y-55114441D01*
X100137247Y-55172932D01*
X100075076Y-55220639D01*
X100009907Y-55245833D01*
X99941462Y-55231795D01*
X99924102Y-55220638D01*
X99862504Y-55173371D01*
X99862501Y-55173369D01*
X99721413Y-55114930D01*
X99721408Y-55114929D01*
X99608023Y-55100000D01*
X99400000Y-55100000D01*
X99400000Y-55876000D01*
X99380315Y-55943039D01*
X99327511Y-55988794D01*
X99276000Y-56000000D01*
X99150000Y-56000000D01*
X99150000Y-56126000D01*
X99130315Y-56193039D01*
X99077511Y-56238794D01*
X99026000Y-56250000D01*
X98150000Y-56250000D01*
X98150000Y-56358023D01*
X98164929Y-56471408D01*
X98164930Y-56471413D01*
X98223369Y-56612501D01*
X98223371Y-56612503D01*
X98237897Y-56631434D01*
X98263091Y-56696603D01*
X98249052Y-56765048D01*
X98200238Y-56815038D01*
X98163713Y-56828537D01*
X97985400Y-56864006D01*
X97985394Y-56864008D01*
X97812508Y-56935619D01*
X97812500Y-56935624D01*
X97747432Y-56979102D01*
X97680755Y-56999980D01*
X97678541Y-57000000D01*
X96500000Y-57000000D01*
X96000000Y-57000000D01*
X94616893Y-57000000D01*
X94621685Y-56983680D01*
X94638319Y-56963038D01*
X95959381Y-55641976D01*
X98150000Y-55641976D01*
X98150000Y-55750000D01*
X98900000Y-55750000D01*
X98900000Y-55100000D01*
X98691976Y-55100000D01*
X98578591Y-55114929D01*
X98578586Y-55114930D01*
X98437499Y-55173369D01*
X98316339Y-55266339D01*
X98223369Y-55387499D01*
X98164930Y-55528586D01*
X98164929Y-55528591D01*
X98150000Y-55641976D01*
X95959381Y-55641976D01*
X97088038Y-54513319D01*
X97149361Y-54479834D01*
X97175719Y-54477000D01*
X99219454Y-54477000D01*
X99286493Y-54496685D01*
X99307135Y-54513319D01*
X99331304Y-54537488D01*
X99331308Y-54537491D01*
X99470993Y-54630826D01*
X99470997Y-54630828D01*
X99471000Y-54630830D01*
X99626218Y-54695124D01*
X99790992Y-54727899D01*
X99790996Y-54727900D01*
X99790997Y-54727900D01*
X99959004Y-54727900D01*
X99959005Y-54727899D01*
X100123782Y-54695124D01*
X100279000Y-54630830D01*
X100279002Y-54630828D01*
X100280691Y-54630129D01*
X100350160Y-54622660D01*
X100412639Y-54653935D01*
X100415825Y-54657009D01*
X100421304Y-54662488D01*
X100421308Y-54662491D01*
X100560993Y-54755826D01*
X100560997Y-54755828D01*
X100561000Y-54755830D01*
X100716218Y-54820124D01*
X100813779Y-54839529D01*
X100873958Y-54851500D01*
X100873959Y-54851500D01*
X100880997Y-54852900D01*
X101049003Y-54852900D01*
X101056041Y-54851500D01*
X101056042Y-54851500D01*
X101092827Y-54844182D01*
X101213782Y-54820124D01*
X101369000Y-54755830D01*
X101508692Y-54662491D01*
X101627491Y-54543692D01*
X101720830Y-54404000D01*
X101785124Y-54248782D01*
X101817900Y-54084003D01*
X101817900Y-53915997D01*
X101785124Y-53751218D01*
X101720830Y-53596000D01*
X101720828Y-53595997D01*
X101720826Y-53595993D01*
X101627491Y-53456308D01*
X101627488Y-53456304D01*
X101508695Y-53337511D01*
X101508691Y-53337508D01*
X101369006Y-53244173D01*
X101368996Y-53244168D01*
X101213782Y-53179876D01*
X101213774Y-53179874D01*
X101049007Y-53147100D01*
X101049003Y-53147100D01*
X100880997Y-53147100D01*
X100880992Y-53147100D01*
X100716225Y-53179874D01*
X100716213Y-53179877D01*
X100559307Y-53244870D01*
X100489838Y-53252339D01*
X100427359Y-53221064D01*
X100424174Y-53217990D01*
X100418695Y-53212511D01*
X100418691Y-53212508D01*
X100279006Y-53119173D01*
X100278996Y-53119168D01*
X100123782Y-53054876D01*
X100123774Y-53054874D01*
X99959007Y-53022100D01*
X99959003Y-53022100D01*
X99790997Y-53022100D01*
X99790992Y-53022100D01*
X99626225Y-53054874D01*
X99626217Y-53054876D01*
X99471003Y-53119168D01*
X99470993Y-53119173D01*
X99331308Y-53212508D01*
X99331304Y-53212511D01*
X99307135Y-53236681D01*
X99245812Y-53270166D01*
X99219454Y-53273000D01*
X96795745Y-53273000D01*
X96642634Y-53314025D01*
X96505363Y-53393280D01*
X96505360Y-53393282D01*
X96288466Y-53610176D01*
X96227143Y-53643661D01*
X96157451Y-53638677D01*
X96101518Y-53596805D01*
X96079168Y-53546688D01*
X96070124Y-53501218D01*
X96005830Y-53346000D01*
X96005828Y-53345997D01*
X96005826Y-53345993D01*
X95912491Y-53206308D01*
X95912488Y-53206304D01*
X95793695Y-53087511D01*
X95793691Y-53087508D01*
X95654006Y-52994173D01*
X95653996Y-52994168D01*
X95498782Y-52929876D01*
X95498774Y-52929874D01*
X95334007Y-52897100D01*
X95334003Y-52897100D01*
X95165997Y-52897100D01*
X95165992Y-52897100D01*
X95001225Y-52929874D01*
X95001217Y-52929876D01*
X94846003Y-52994168D01*
X94845993Y-52994173D01*
X94706308Y-53087508D01*
X94706304Y-53087511D01*
X94587511Y-53206304D01*
X94587508Y-53206308D01*
X94494173Y-53345993D01*
X94494168Y-53346003D01*
X94429876Y-53501217D01*
X94429874Y-53501225D01*
X94397100Y-53665992D01*
X94397100Y-53834007D01*
X94429874Y-53998774D01*
X94429876Y-53998782D01*
X94494168Y-54153996D01*
X94494173Y-54154006D01*
X94587508Y-54293691D01*
X94587511Y-54293695D01*
X94706304Y-54412488D01*
X94706308Y-54412491D01*
X94845993Y-54505826D01*
X94845997Y-54505828D01*
X94846000Y-54505830D01*
X95001218Y-54570124D01*
X95046687Y-54579168D01*
X95108596Y-54611552D01*
X95143171Y-54672267D01*
X95139432Y-54742037D01*
X95110176Y-54788466D01*
X93518282Y-56380360D01*
X93518277Y-56380366D01*
X93439026Y-56517633D01*
X93439026Y-56517634D01*
X93439025Y-56517637D01*
X93398000Y-56670745D01*
X93398000Y-57125217D01*
X93378315Y-57192256D01*
X93325511Y-57238011D01*
X93256353Y-57247955D01*
X93249812Y-57246835D01*
X93226004Y-57242100D01*
X93226003Y-57242100D01*
X93057997Y-57242100D01*
X93057992Y-57242100D01*
X92893225Y-57274874D01*
X92893217Y-57274876D01*
X92738003Y-57339168D01*
X92737993Y-57339173D01*
X92598308Y-57432508D01*
X92598304Y-57432511D01*
X92479511Y-57551304D01*
X92479508Y-57551308D01*
X92386173Y-57690993D01*
X92386168Y-57691003D01*
X92321876Y-57846217D01*
X92321874Y-57846225D01*
X92289100Y-58010992D01*
X92289100Y-58047000D01*
X92269415Y-58114039D01*
X92216611Y-58159794D01*
X92165100Y-58171000D01*
X90052144Y-58171000D01*
X90052128Y-58170999D01*
X90044532Y-58170999D01*
X89892737Y-58170999D01*
X89758132Y-58207066D01*
X89746109Y-58210288D01*
X89614657Y-58286183D01*
X89614651Y-58286187D01*
X87212181Y-60688658D01*
X87150858Y-60722143D01*
X87081166Y-60717159D01*
X87025233Y-60675287D01*
X87000816Y-60609823D01*
X87000500Y-60600977D01*
X87000500Y-52165992D01*
X88647100Y-52165992D01*
X88647100Y-52334007D01*
X88679874Y-52498774D01*
X88679876Y-52498782D01*
X88744168Y-52653996D01*
X88744173Y-52654006D01*
X88837508Y-52793691D01*
X88837511Y-52793695D01*
X88956304Y-52912488D01*
X88956308Y-52912491D01*
X89095993Y-53005826D01*
X89095997Y-53005828D01*
X89096000Y-53005830D01*
X89251218Y-53070124D01*
X89415992Y-53102899D01*
X89415996Y-53102900D01*
X89415997Y-53102900D01*
X89584004Y-53102900D01*
X89584005Y-53102899D01*
X89748782Y-53070124D01*
X89904000Y-53005830D01*
X90043692Y-52912491D01*
X90162491Y-52793692D01*
X90255830Y-52654000D01*
X90320124Y-52498782D01*
X90352900Y-52334003D01*
X90352900Y-52165997D01*
X90320124Y-52001218D01*
X90255830Y-51846000D01*
X90255828Y-51845997D01*
X90255826Y-51845993D01*
X90162491Y-51706308D01*
X90162488Y-51706304D01*
X90043695Y-51587511D01*
X90043691Y-51587508D01*
X89904006Y-51494173D01*
X89903996Y-51494168D01*
X89748782Y-51429876D01*
X89748774Y-51429874D01*
X89584007Y-51397100D01*
X89584003Y-51397100D01*
X89415997Y-51397100D01*
X89415992Y-51397100D01*
X89251225Y-51429874D01*
X89251217Y-51429876D01*
X89096003Y-51494168D01*
X89095993Y-51494173D01*
X88956308Y-51587508D01*
X88956304Y-51587511D01*
X88837511Y-51706304D01*
X88837508Y-51706308D01*
X88744173Y-51845993D01*
X88744168Y-51846003D01*
X88679876Y-52001217D01*
X88679874Y-52001225D01*
X88647100Y-52165992D01*
X87000500Y-52165992D01*
X87000500Y-50415992D01*
X94897100Y-50415992D01*
X94897100Y-50584007D01*
X94929874Y-50748774D01*
X94929876Y-50748782D01*
X94994168Y-50903996D01*
X94994173Y-50904006D01*
X95087508Y-51043691D01*
X95087511Y-51043695D01*
X95206304Y-51162488D01*
X95206308Y-51162491D01*
X95345993Y-51255826D01*
X95345997Y-51255828D01*
X95346000Y-51255830D01*
X95501218Y-51320124D01*
X95665992Y-51352899D01*
X95665996Y-51352900D01*
X95665997Y-51352900D01*
X95834004Y-51352900D01*
X95834005Y-51352899D01*
X95998782Y-51320124D01*
X96154000Y-51255830D01*
X96293692Y-51162491D01*
X96412491Y-51043692D01*
X96505830Y-50904000D01*
X96570124Y-50748782D01*
X96602900Y-50584003D01*
X96602900Y-50415997D01*
X96570124Y-50251218D01*
X96505830Y-50096000D01*
X96505828Y-50095997D01*
X96505826Y-50095993D01*
X96412491Y-49956308D01*
X96412488Y-49956304D01*
X96293695Y-49837511D01*
X96293691Y-49837508D01*
X96154006Y-49744173D01*
X96153996Y-49744168D01*
X95998782Y-49679876D01*
X95998774Y-49679874D01*
X95834007Y-49647100D01*
X95834003Y-49647100D01*
X95665997Y-49647100D01*
X95665992Y-49647100D01*
X95501225Y-49679874D01*
X95501217Y-49679876D01*
X95346003Y-49744168D01*
X95345993Y-49744173D01*
X95206308Y-49837508D01*
X95206304Y-49837511D01*
X95087511Y-49956304D01*
X95087508Y-49956308D01*
X94994173Y-50095993D01*
X94994168Y-50096003D01*
X94929876Y-50251217D01*
X94929874Y-50251225D01*
X94897100Y-50415992D01*
X87000500Y-50415992D01*
X87000500Y-49415992D01*
X97897100Y-49415992D01*
X97897100Y-49584007D01*
X97929874Y-49748774D01*
X97929876Y-49748782D01*
X97994168Y-49903996D01*
X97994173Y-49904006D01*
X98087508Y-50043691D01*
X98087511Y-50043695D01*
X98206304Y-50162488D01*
X98206308Y-50162491D01*
X98345993Y-50255826D01*
X98345997Y-50255828D01*
X98346000Y-50255830D01*
X98501218Y-50320124D01*
X98661975Y-50352100D01*
X98665992Y-50352899D01*
X98665996Y-50352900D01*
X98665997Y-50352900D01*
X98834004Y-50352900D01*
X98834005Y-50352899D01*
X98998782Y-50320124D01*
X99154000Y-50255830D01*
X99293692Y-50162491D01*
X99412491Y-50043692D01*
X99505830Y-49904000D01*
X99570124Y-49748782D01*
X99583830Y-49679876D01*
X99586592Y-49665992D01*
X106272100Y-49665992D01*
X106272100Y-49834007D01*
X106304874Y-49998774D01*
X106304876Y-49998782D01*
X106369168Y-50153996D01*
X106369173Y-50154006D01*
X106462508Y-50293691D01*
X106462511Y-50293695D01*
X106581304Y-50412488D01*
X106581308Y-50412491D01*
X106720993Y-50505826D01*
X106720997Y-50505828D01*
X106721000Y-50505830D01*
X106876218Y-50570124D01*
X107040992Y-50602899D01*
X107040996Y-50602900D01*
X107040997Y-50602900D01*
X107209004Y-50602900D01*
X107209005Y-50602899D01*
X107373782Y-50570124D01*
X107529000Y-50505830D01*
X107668692Y-50412491D01*
X107668695Y-50412488D01*
X107692765Y-50388419D01*
X107754088Y-50354934D01*
X107780446Y-50352100D01*
X107873554Y-50352100D01*
X107940593Y-50371785D01*
X107961235Y-50388419D01*
X107985304Y-50412488D01*
X107985308Y-50412491D01*
X108124993Y-50505826D01*
X108124997Y-50505828D01*
X108125000Y-50505830D01*
X108280218Y-50570124D01*
X108444992Y-50602899D01*
X108444996Y-50602900D01*
X108444997Y-50602900D01*
X108613004Y-50602900D01*
X108613005Y-50602899D01*
X108777782Y-50570124D01*
X108933000Y-50505830D01*
X109072692Y-50412491D01*
X109191491Y-50293692D01*
X109284830Y-50154000D01*
X109349124Y-49998782D01*
X109381900Y-49834003D01*
X109381900Y-49665997D01*
X109349124Y-49501218D01*
X109284830Y-49346000D01*
X109284828Y-49345997D01*
X109284826Y-49345993D01*
X109191491Y-49206308D01*
X109191488Y-49206304D01*
X109072695Y-49087511D01*
X109072691Y-49087508D01*
X108933006Y-48994173D01*
X108932996Y-48994168D01*
X108777782Y-48929876D01*
X108777774Y-48929874D01*
X108613007Y-48897100D01*
X108613003Y-48897100D01*
X108444997Y-48897100D01*
X108444992Y-48897100D01*
X108280225Y-48929874D01*
X108280217Y-48929876D01*
X108125003Y-48994168D01*
X108124993Y-48994173D01*
X107985308Y-49087508D01*
X107985304Y-49087511D01*
X107961235Y-49111581D01*
X107899912Y-49145066D01*
X107873554Y-49147900D01*
X107780446Y-49147900D01*
X107713407Y-49128215D01*
X107692765Y-49111581D01*
X107668695Y-49087511D01*
X107668691Y-49087508D01*
X107529006Y-48994173D01*
X107528996Y-48994168D01*
X107373782Y-48929876D01*
X107373774Y-48929874D01*
X107209007Y-48897100D01*
X107209003Y-48897100D01*
X107040997Y-48897100D01*
X107040992Y-48897100D01*
X106876225Y-48929874D01*
X106876217Y-48929876D01*
X106721003Y-48994168D01*
X106720993Y-48994173D01*
X106581308Y-49087508D01*
X106581304Y-49087511D01*
X106462511Y-49206304D01*
X106462508Y-49206308D01*
X106369173Y-49345993D01*
X106369168Y-49346003D01*
X106304876Y-49501217D01*
X106304874Y-49501225D01*
X106272100Y-49665992D01*
X99586592Y-49665992D01*
X99592609Y-49635743D01*
X99592614Y-49635715D01*
X99602900Y-49584001D01*
X99602900Y-49415996D01*
X99602899Y-49415992D01*
X99570124Y-49251218D01*
X99505830Y-49096000D01*
X99505828Y-49095997D01*
X99505826Y-49095993D01*
X99412491Y-48956308D01*
X99412488Y-48956304D01*
X99293695Y-48837511D01*
X99293691Y-48837508D01*
X99154006Y-48744173D01*
X99153996Y-48744168D01*
X98998782Y-48679876D01*
X98998774Y-48679874D01*
X98834007Y-48647100D01*
X98834003Y-48647100D01*
X98665997Y-48647100D01*
X98665992Y-48647100D01*
X98501225Y-48679874D01*
X98501217Y-48679876D01*
X98346003Y-48744168D01*
X98345993Y-48744173D01*
X98206308Y-48837508D01*
X98206304Y-48837511D01*
X98087511Y-48956304D01*
X98087508Y-48956308D01*
X97994173Y-49095993D01*
X97994168Y-49096003D01*
X97929876Y-49251217D01*
X97929874Y-49251225D01*
X97897100Y-49415992D01*
X87000500Y-49415992D01*
X87000500Y-47040992D01*
X88647100Y-47040992D01*
X88647100Y-47209007D01*
X88679874Y-47373774D01*
X88679876Y-47373782D01*
X88744168Y-47528996D01*
X88744173Y-47529006D01*
X88837508Y-47668691D01*
X88837511Y-47668695D01*
X88956304Y-47787488D01*
X88956308Y-47787491D01*
X89095993Y-47880826D01*
X89095997Y-47880828D01*
X89096000Y-47880830D01*
X89251218Y-47945124D01*
X89415992Y-47977899D01*
X89415996Y-47977900D01*
X89415997Y-47977900D01*
X89584004Y-47977900D01*
X89584005Y-47977899D01*
X89748782Y-47945124D01*
X89904000Y-47880830D01*
X90043692Y-47787491D01*
X90162491Y-47668692D01*
X90255830Y-47529000D01*
X90320124Y-47373782D01*
X90352900Y-47209003D01*
X90352900Y-47040997D01*
X90320124Y-46876218D01*
X90255830Y-46721000D01*
X90255828Y-46720997D01*
X90255826Y-46720993D01*
X90162491Y-46581308D01*
X90162488Y-46581304D01*
X90043695Y-46462511D01*
X90043691Y-46462508D01*
X89904006Y-46369173D01*
X89903996Y-46369168D01*
X89748782Y-46304876D01*
X89748774Y-46304874D01*
X89584007Y-46272100D01*
X89584003Y-46272100D01*
X89415997Y-46272100D01*
X89415992Y-46272100D01*
X89251225Y-46304874D01*
X89251217Y-46304876D01*
X89096003Y-46369168D01*
X89095993Y-46369173D01*
X88956308Y-46462508D01*
X88956304Y-46462511D01*
X88837511Y-46581304D01*
X88837508Y-46581308D01*
X88744173Y-46720993D01*
X88744168Y-46721003D01*
X88679876Y-46876217D01*
X88679874Y-46876225D01*
X88647100Y-47040992D01*
X87000500Y-47040992D01*
X87000500Y-47005411D01*
X87000972Y-46994605D01*
X87013760Y-46848430D01*
X87015664Y-46835097D01*
X87021503Y-46805739D01*
X87023329Y-46797910D01*
X87056782Y-46673058D01*
X87061992Y-46657715D01*
X87069020Y-46640747D01*
X87071162Y-46635880D01*
X87129822Y-46510080D01*
X87140628Y-46491366D01*
X87228118Y-46366417D01*
X87242006Y-46349865D01*
X87349865Y-46242006D01*
X87366417Y-46228118D01*
X87491366Y-46140628D01*
X87510080Y-46129822D01*
X87635880Y-46071162D01*
X87640747Y-46069020D01*
X87657725Y-46061987D01*
X87673058Y-46056782D01*
X87797910Y-46023329D01*
X87805739Y-46021503D01*
X87835097Y-46015664D01*
X87848430Y-46013760D01*
X87987871Y-46001561D01*
X87994606Y-46000972D01*
X88005412Y-46000500D01*
X111994588Y-46000500D01*
X112005394Y-46000972D01*
G37*
%TD.AperFunction*%
%TA.AperFunction,Conductor*%
G36*
X88656703Y-66738333D02*
G01*
X88663181Y-66744365D01*
X88706304Y-66787488D01*
X88706308Y-66787491D01*
X88845993Y-66880826D01*
X88845997Y-66880828D01*
X88846000Y-66880830D01*
X89001218Y-66945124D01*
X89165992Y-66977899D01*
X89165996Y-66977900D01*
X89241091Y-66977900D01*
X89308130Y-66997585D01*
X89353885Y-67050389D01*
X89365091Y-67101900D01*
X89365091Y-73625435D01*
X89345406Y-73692474D01*
X89292602Y-73738229D01*
X89223444Y-73748173D01*
X89159888Y-73719148D01*
X89153410Y-73713116D01*
X88487819Y-73047525D01*
X88454334Y-72986202D01*
X88451500Y-72959844D01*
X88451500Y-66832046D01*
X88471185Y-66765007D01*
X88523989Y-66719252D01*
X88593147Y-66709308D01*
X88656703Y-66738333D01*
G37*
%TD.AperFunction*%
%TD*%
%TA.AperFunction,Conductor*%
%TO.N,0V*%
G36*
X101943039Y-57269685D02*
G01*
X101988794Y-57322489D01*
X102000000Y-57374000D01*
X102000000Y-62876000D01*
X101980315Y-62943039D01*
X101927511Y-62988794D01*
X101876000Y-63000000D01*
X96624000Y-63000000D01*
X96556961Y-62980315D01*
X96511206Y-62927511D01*
X96500000Y-62876000D01*
X96500000Y-57374000D01*
X96519685Y-57306961D01*
X96572489Y-57261206D01*
X96624000Y-57250000D01*
X101876000Y-57250000D01*
X101943039Y-57269685D01*
G37*
%TD.AperFunction*%
%TD*%
M02*
