%TF.GenerationSoftware,KiCad,Pcbnew,10.0.5*%
%TF.CreationDate,2026-09-29T05:49:04+01:00*%
%TF.ProjectId,mcxn_test_board,6d63786e-5f74-4657-9374-5f626f617264,rev?*%
%TF.SameCoordinates,Original*%
%TF.FileFunction,Soldermask,Top*%
%TF.FilePolarity,Negative*%
%FSLAX46Y46*%
G04 Gerber Fmt 4.6, Leading zero omitted, Abs format (unit mm)*
G04 Created by KiCad (PCBNEW 10.0.5) date 2026-09-29 05:49:04*
%MOMM*%
%LPD*%
G01*
G04 APERTURE LIST*
G04 Aperture macros list*
%AMRoundRect*
0 Rectangle with rounded corners*
0 $1 Rounding radius*
0 $2 $3 $4 $5 $6 $7 $8 $9 X,Y pos of 4 corners*
0 Add a 4 corners polygon primitive as box body*
4,1,4,$2,$3,$4,$5,$6,$7,$8,$9,$2,$3,0*
0 Add four circle primitives for the rounded corners*
1,1,$1+$1,$2,$3*
1,1,$1+$1,$4,$5*
1,1,$1+$1,$6,$7*
1,1,$1+$1,$8,$9*
0 Add four rect primitives between the rounded corners*
20,1,$1+$1,$2,$3,$4,$5,0*
20,1,$1+$1,$4,$5,$6,$7,0*
20,1,$1+$1,$6,$7,$8,$9,0*
20,1,$1+$1,$8,$9,$2,$3,0*%
G04 Aperture macros list end*
%ADD10C,0.000000*%
%ADD11RoundRect,0.114300X0.266700X0.292100X-0.266700X0.292100X-0.266700X-0.292100X0.266700X-0.292100X0*%
%ADD12RoundRect,0.114300X-0.017961X0.395131X-0.395131X0.017961X0.017961X-0.395131X0.395131X-0.017961X0*%
%ADD13C,1.000000*%
%ADD14RoundRect,0.120000X-0.280000X-0.749000X0.280000X-0.749000X0.280000X0.749000X-0.280000X0.749000X0*%
%ADD15RoundRect,0.358500X-1.004500X-0.836500X1.004500X-0.836500X1.004500X0.836500X-1.004500X0.836500X0*%
%ADD16RoundRect,0.362850X-1.002650X-0.846650X1.002650X-0.846650X1.002650X0.846650X-1.002650X0.846650X0*%
%ADD17RoundRect,0.225000X-0.525000X-0.625000X0.525000X-0.625000X0.525000X0.625000X-0.525000X0.625000X0*%
%ADD18RoundRect,0.279450X-0.652050X-1.056550X0.652050X-1.056550X0.652050X1.056550X-0.652050X1.056550X0*%
%ADD19RoundRect,0.252450X-0.589050X-0.901550X0.589050X-0.901550X0.589050X0.901550X-0.589050X0.901550X0*%
%ADD20RoundRect,0.114300X0.017961X-0.395131X0.395131X-0.017961X-0.017961X0.395131X-0.395131X0.017961X0*%
%ADD21RoundRect,0.110000X0.590000X0.440000X-0.590000X0.440000X-0.590000X-0.440000X0.590000X-0.440000X0*%
%ADD22RoundRect,0.250000X-1.000000X-1.250000X1.000000X-1.250000X1.000000X1.250000X-1.000000X1.250000X0*%
%ADD23R,1.500000X2.000000*%
%ADD24R,3.800000X2.000000*%
%ADD25RoundRect,0.250000X-0.250000X0.350000X-0.250000X-0.350000X0.250000X-0.350000X0.250000X0.350000X0*%
%ADD26R,1.700000X1.700000*%
%ADD27C,1.700000*%
%ADD28C,0.650000*%
%ADD29O,0.900000X2.400000*%
%ADD30O,0.900000X1.700000*%
%ADD31RoundRect,0.114300X-0.266700X-0.292100X0.266700X-0.292100X0.266700X0.292100X-0.266700X0.292100X0*%
%ADD32RoundRect,0.250000X0.250000X0.475000X-0.250000X0.475000X-0.250000X-0.475000X0.250000X-0.475000X0*%
%ADD33RoundRect,0.165000X0.385000X0.785000X-0.385000X0.785000X-0.385000X-0.785000X0.385000X-0.785000X0*%
%ADD34R,0.950000X0.600000*%
%ADD35RoundRect,0.300000X0.350000X-0.300000X0.350000X0.300000X-0.350000X0.300000X-0.350000X-0.300000X0*%
%ADD36RoundRect,0.117000X0.035355X0.421436X-0.421436X-0.035355X-0.035355X-0.421436X0.421436X0.035355X0*%
%ADD37R,1.100000X1.800000*%
%ADD38R,2.400000X1.650000*%
%ADD39RoundRect,0.250000X-0.250000X-0.475000X0.250000X-0.475000X0.250000X0.475000X-0.250000X0.475000X0*%
%ADD40RoundRect,0.175000X0.441942X0.194454X0.194454X0.441942X-0.441942X-0.194454X-0.194454X-0.441942X0*%
%ADD41O,1.600000X0.370000*%
%ADD42O,0.370000X1.600000*%
%ADD43C,0.900000*%
%ADD44RoundRect,0.350000X-2.700000X-2.700000X2.700000X-2.700000X2.700000X2.700000X-2.700000X2.700000X0*%
%ADD45RoundRect,0.114300X-0.292100X0.266700X-0.292100X-0.266700X0.292100X-0.266700X0.292100X0.266700X0*%
%ADD46RoundRect,0.300000X0.300000X0.350000X-0.300000X0.350000X-0.300000X-0.350000X0.300000X-0.350000X0*%
%ADD47R,1.150000X2.500000*%
%ADD48RoundRect,0.175000X-0.450000X0.175000X-0.450000X-0.175000X0.450000X-0.175000X0.450000X0.175000X0*%
G04 APERTURE END LIST*
%TO.C,C1*%
G36*
X87644900Y-59945200D02*
G01*
X89016900Y-59945200D01*
X89016900Y-60554800D01*
X87644900Y-60554800D01*
X87644900Y-59945200D01*
G37*
%TO.C,C9*%
G36*
X87644900Y-58445200D02*
G01*
X89016900Y-58445200D01*
X89016900Y-59054800D01*
X87644900Y-59054800D01*
X87644900Y-58445200D01*
G37*
D10*
%TO.C,C3*%
G36*
X103950601Y-48855451D02*
G01*
X102980451Y-49825601D01*
X102549399Y-49394549D01*
X103519549Y-48424399D01*
X103950601Y-48855451D01*
G37*
%TO.C,C5*%
G36*
X109564000Y-58195200D02*
G01*
X110936000Y-58195200D01*
X110936000Y-58804800D01*
X109564000Y-58804800D01*
X109564000Y-58195200D01*
G37*
%TO.C,C11*%
G36*
X104195200Y-69564000D02*
G01*
X104804800Y-69564000D01*
X104804800Y-70936000D01*
X104195200Y-70936000D01*
X104195200Y-69564000D01*
G37*
%TO.C,C12*%
G36*
X102195200Y-69564000D02*
G01*
X102804800Y-69564000D01*
X102804800Y-70936000D01*
X102195200Y-70936000D01*
X102195200Y-69564000D01*
G37*
%TO.C,C8*%
G36*
X109814000Y-62195200D02*
G01*
X111186000Y-62195200D01*
X111186000Y-62804800D01*
X109814000Y-62804800D01*
X109814000Y-62195200D01*
G37*
%TO.C,C10*%
G36*
X95945200Y-69979450D02*
G01*
X96554800Y-69979450D01*
X96554800Y-71351450D01*
X95945200Y-71351450D01*
X95945200Y-69979450D01*
G37*
%TO.C,C7*%
G36*
X97445200Y-69564000D02*
G01*
X98054800Y-69564000D01*
X98054800Y-70936000D01*
X97445200Y-70936000D01*
X97445200Y-69564000D01*
G37*
%TO.C,C2*%
G36*
X95695200Y-48564000D02*
G01*
X96304800Y-48564000D01*
X96304800Y-49936000D01*
X95695200Y-49936000D01*
X95695200Y-48564000D01*
G37*
%TO.C,C6*%
G36*
X109564000Y-54695200D02*
G01*
X110936000Y-54695200D01*
X110936000Y-55304800D01*
X109564000Y-55304800D01*
X109564000Y-54695200D01*
G37*
%TO.C,C4*%
G36*
X109564000Y-60445200D02*
G01*
X110936000Y-60445200D01*
X110936000Y-61054800D01*
X109564000Y-61054800D01*
X109564000Y-60445200D01*
G37*
%TD*%
D11*
%TO.C,C27*%
X84173100Y-58500000D03*
X82826900Y-58500000D03*
%TD*%
D12*
%TO.C,C15*%
X94975954Y-73274046D03*
X94024046Y-74225954D03*
%TD*%
D13*
%TO.C,J12*%
X95006000Y-32258000D03*
X102986000Y-32258000D03*
D14*
X95856000Y-42927000D03*
X96956000Y-42927000D03*
X98056000Y-42927000D03*
X99156000Y-42927000D03*
X100256000Y-42927000D03*
X101356000Y-42927000D03*
X102456000Y-42927000D03*
X103556000Y-42927000D03*
X104656000Y-42927000D03*
D15*
X90843000Y-32695000D03*
D16*
X91840500Y-42459500D03*
D17*
X92056000Y-27958000D03*
X105556000Y-27958000D03*
D18*
X105884500Y-33067000D03*
D19*
X106397500Y-42404000D03*
%TD*%
D20*
%TO.C,R19*%
X102274046Y-46725954D03*
X103225954Y-45774046D03*
%TD*%
D11*
%TO.C,R13*%
X131173100Y-49250000D03*
X129826900Y-49250000D03*
%TD*%
D21*
%TO.C,D1*%
X122050000Y-51000000D03*
X119950000Y-51000000D03*
%TD*%
D22*
%TO.C,J14*%
X109525000Y-89210000D03*
X113335000Y-89210000D03*
%TD*%
D23*
%TO.C,U2*%
X111550000Y-74600000D03*
X109250000Y-74600000D03*
D24*
X109250000Y-80900000D03*
D23*
X106950000Y-74600000D03*
%TD*%
D11*
%TO.C,C26*%
X83923100Y-55500000D03*
X82576900Y-55500000D03*
%TD*%
D21*
%TO.C,D2*%
X122050000Y-48000000D03*
X119950000Y-48000000D03*
%TD*%
D25*
%TO.C,SW5*%
X120000000Y-37300000D03*
X120000000Y-44700000D03*
%TD*%
D26*
%TO.C,J2*%
X131750000Y-43490000D03*
D27*
X129210000Y-43490000D03*
X131750000Y-40950000D03*
X129210000Y-40950000D03*
X131750000Y-38410000D03*
X129210000Y-38410000D03*
%TD*%
D28*
%TO.C,J1*%
X97025000Y-87725000D03*
X97875000Y-87725000D03*
X98725000Y-87725000D03*
X99575000Y-87725000D03*
X100425000Y-87725000D03*
X101275000Y-87725000D03*
X102125000Y-87725000D03*
X102975000Y-87725000D03*
X102975000Y-89075000D03*
X102125000Y-89075000D03*
X101275000Y-89075000D03*
X100425000Y-89075000D03*
X99575000Y-89075000D03*
X98725000Y-89075000D03*
X97875000Y-89075000D03*
X97025000Y-89075000D03*
D29*
X95675000Y-88705000D03*
D30*
X95675000Y-92085000D03*
D29*
X104325000Y-88705000D03*
D30*
X104325000Y-92085000D03*
%TD*%
D11*
%TO.C,R14*%
X118173100Y-51000000D03*
X116826900Y-51000000D03*
%TD*%
D31*
%TO.C,R15*%
X120326900Y-49500000D03*
X121673100Y-49500000D03*
%TD*%
D32*
%TO.C,C20*%
X113575000Y-69750000D03*
X111675000Y-69750000D03*
%TD*%
D33*
%TO.C,Y2*%
X108250000Y-71250000D03*
X105750000Y-71250000D03*
%TD*%
D26*
%TO.C,J7*%
X68250000Y-51110000D03*
D27*
X70790000Y-51110000D03*
X68250000Y-53650000D03*
X70790000Y-53650000D03*
X68250000Y-56190000D03*
X70790000Y-56190000D03*
X68250000Y-58730000D03*
X70790000Y-58730000D03*
%TD*%
D13*
%TO.C,TP4*%
X104500000Y-73250000D03*
%TD*%
D26*
%TO.C,J8*%
X68250000Y-63810000D03*
D27*
X70790000Y-63810000D03*
X68250000Y-66350000D03*
X70790000Y-66350000D03*
X68250000Y-68890000D03*
X70790000Y-68890000D03*
X68250000Y-71430000D03*
X70790000Y-71430000D03*
%TD*%
D12*
%TO.C,C16*%
X93561741Y-71859832D03*
X92609833Y-72811740D03*
%TD*%
D26*
%TO.C,J10*%
X78410000Y-91750000D03*
D27*
X78410000Y-89210000D03*
X80950000Y-91750000D03*
X80950000Y-89210000D03*
X83490000Y-91750000D03*
X83490000Y-89210000D03*
%TD*%
D26*
%TO.C,J3*%
X68250000Y-38410000D03*
D27*
X70790000Y-38410000D03*
X68250000Y-40950000D03*
X70790000Y-40950000D03*
X68250000Y-43490000D03*
X70790000Y-43490000D03*
%TD*%
D13*
%TO.C,TP6*%
X100000000Y-49250000D03*
%TD*%
D12*
%TO.C,C24*%
X123975954Y-33362046D03*
X123024046Y-34313954D03*
%TD*%
D34*
%TO.C,U3*%
X101350000Y-85250000D03*
X101350000Y-84300000D03*
X101350000Y-83350000D03*
X98650000Y-83350000D03*
X98650000Y-84300000D03*
X98650000Y-85250000D03*
%TD*%
D35*
%TO.C,D3*%
X91500000Y-91000000D03*
X91500000Y-87500000D03*
%TD*%
D11*
%TO.C,C13*%
X85504000Y-60250000D03*
X84157800Y-60250000D03*
%TD*%
D36*
%TO.C,Y1*%
X86106066Y-55950969D03*
X85200969Y-56856066D03*
X85893934Y-57549031D03*
X86799031Y-56643934D03*
%TD*%
D37*
%TO.C,SW1*%
X119150000Y-92100000D03*
X119150000Y-85900000D03*
X122850000Y-92100000D03*
X122850000Y-85900000D03*
%TD*%
D31*
%TO.C,C14*%
X117326900Y-58000000D03*
X118673100Y-58000000D03*
%TD*%
D38*
%TO.C,C21*%
X115000000Y-77725000D03*
X115000000Y-74275000D03*
%TD*%
D39*
%TO.C,C18*%
X114050000Y-62750000D03*
X115950000Y-62750000D03*
%TD*%
D13*
%TO.C,TP5*%
X108375000Y-48125000D03*
%TD*%
D31*
%TO.C,C23*%
X129826900Y-47500000D03*
X131173100Y-47500000D03*
%TD*%
D13*
%TO.C,TP7*%
X102375000Y-74625000D03*
%TD*%
D26*
%TO.C,J11*%
X116510000Y-28250000D03*
D27*
X116510000Y-30790000D03*
X113970000Y-28250000D03*
X113970000Y-30790000D03*
X111430000Y-28250000D03*
X111430000Y-30790000D03*
%TD*%
D40*
%TO.C,FB1*%
X92378680Y-75871319D03*
X91035178Y-74527817D03*
%TD*%
D38*
%TO.C,C22*%
X103500000Y-80925000D03*
X103500000Y-77475000D03*
%TD*%
D13*
%TO.C,TP2*%
X120000000Y-61000000D03*
%TD*%
D25*
%TO.C,SW4*%
X113000000Y-37300000D03*
X113000000Y-44700000D03*
%TD*%
D39*
%TO.C,C17*%
X114050000Y-60750000D03*
X115950000Y-60750000D03*
%TD*%
D26*
%TO.C,J9*%
X68250000Y-79050000D03*
D27*
X70790000Y-79050000D03*
X68250000Y-81590000D03*
X70790000Y-81590000D03*
X68250000Y-84130000D03*
X70790000Y-84130000D03*
X68250000Y-86670000D03*
X70790000Y-86670000D03*
X68250000Y-89210000D03*
X70790000Y-89210000D03*
X68250000Y-91750000D03*
X70790000Y-91750000D03*
%TD*%
D41*
%TO.C,U1*%
X92250000Y-54000000D03*
X92250000Y-54500000D03*
X92250000Y-55000000D03*
X92250000Y-55500000D03*
X92250000Y-56000000D03*
X92250000Y-56500000D03*
X92250000Y-57000000D03*
X92250000Y-57500000D03*
X92250000Y-58000000D03*
X92250000Y-58500000D03*
X92250000Y-59000000D03*
X92250000Y-59500000D03*
X92250000Y-60000000D03*
X92250000Y-60500000D03*
X92250000Y-61000000D03*
X92250000Y-61500000D03*
X92250000Y-62000000D03*
X92250000Y-62500000D03*
X92250000Y-63000000D03*
X92250000Y-63500000D03*
X92250000Y-64000000D03*
X92250000Y-64500000D03*
X92250000Y-65000000D03*
X92250000Y-65500000D03*
X92250000Y-66000000D03*
D42*
X94000000Y-67750000D03*
X94500000Y-67750000D03*
X95000000Y-67750000D03*
X95500000Y-67750000D03*
X96000000Y-67750000D03*
X96500000Y-67750000D03*
X97000000Y-67750000D03*
X97500000Y-67750000D03*
X98000000Y-67750000D03*
X98500000Y-67750000D03*
X99000000Y-67750000D03*
X99500000Y-67750000D03*
X100000000Y-67750000D03*
X100500000Y-67750000D03*
X101000000Y-67750000D03*
X101500000Y-67750000D03*
X102000000Y-67750000D03*
X102500000Y-67750000D03*
X103000000Y-67750000D03*
X103500000Y-67750000D03*
X104000000Y-67750000D03*
X104500000Y-67750000D03*
X105000000Y-67750000D03*
X105500000Y-67750000D03*
X106000000Y-67750000D03*
D41*
X107750000Y-66000000D03*
X107750000Y-65500000D03*
X107750000Y-65000000D03*
X107750000Y-64500000D03*
X107750000Y-64000000D03*
X107750000Y-63500000D03*
X107750000Y-63000000D03*
X107750000Y-62500000D03*
X107750000Y-62000000D03*
X107750000Y-61500000D03*
X107750000Y-61000000D03*
X107750000Y-60500000D03*
X107750000Y-60000000D03*
X107750000Y-59500000D03*
X107750000Y-59000000D03*
X107750000Y-58500000D03*
X107750000Y-58000000D03*
X107750000Y-57500000D03*
X107750000Y-57000000D03*
X107750000Y-56500000D03*
X107750000Y-56000000D03*
X107750000Y-55500000D03*
X107750000Y-55000000D03*
X107750000Y-54500000D03*
X107750000Y-54000000D03*
D42*
X106000000Y-52250000D03*
X105500000Y-52250000D03*
X105000000Y-52250000D03*
X104500000Y-52250000D03*
X104000000Y-52250000D03*
X103500000Y-52250000D03*
X103000000Y-52250000D03*
X102500000Y-52250000D03*
X102000000Y-52250000D03*
X101500000Y-52250000D03*
X101000000Y-52250000D03*
X100500000Y-52250000D03*
X100000000Y-52250000D03*
X99500000Y-52250000D03*
X99000000Y-52250000D03*
X98500000Y-52250000D03*
X98000000Y-52250000D03*
X97500000Y-52250000D03*
X97000000Y-52250000D03*
X96500000Y-52250000D03*
X96000000Y-52250000D03*
X95500000Y-52250000D03*
X95000000Y-52250000D03*
X94500000Y-52250000D03*
X94000000Y-52250000D03*
D43*
X99050000Y-59050000D03*
X99050000Y-60950000D03*
D44*
X100000000Y-60000000D03*
D43*
X100950000Y-59050000D03*
X100950000Y-60950000D03*
%TD*%
D45*
%TO.C,R10*%
X94000000Y-82826900D03*
X94000000Y-84173100D03*
%TD*%
D37*
%TO.C,SW2*%
X119150000Y-82100000D03*
X119150000Y-75900000D03*
X122850000Y-82100000D03*
X122850000Y-75900000D03*
%TD*%
D20*
%TO.C,R12*%
X105366046Y-47521954D03*
X106317954Y-46570046D03*
%TD*%
D45*
%TO.C,C25*%
X99800000Y-45053800D03*
X99800000Y-46400000D03*
%TD*%
D39*
%TO.C,C19*%
X110300000Y-64250000D03*
X112200000Y-64250000D03*
%TD*%
D11*
%TO.C,R18*%
X95048100Y-46125000D03*
X93701900Y-46125000D03*
%TD*%
%TO.C,R16*%
X120739100Y-29774000D03*
X119392900Y-29774000D03*
%TD*%
%TO.C,R17*%
X120739100Y-28123000D03*
X119392900Y-28123000D03*
%TD*%
D46*
%TO.C,D4*%
X116250000Y-81250000D03*
X112750000Y-81250000D03*
%TD*%
D37*
%TO.C,SW3*%
X119150000Y-72100000D03*
X119150000Y-65900000D03*
X122850000Y-72100000D03*
X122850000Y-65900000D03*
%TD*%
D26*
%TO.C,J4*%
X131750000Y-66350000D03*
D27*
X129210000Y-66350000D03*
X131750000Y-63810000D03*
X129210000Y-63810000D03*
X131750000Y-61270000D03*
X129210000Y-61270000D03*
X131750000Y-58730000D03*
X129210000Y-58730000D03*
X131750000Y-56190000D03*
X129210000Y-56190000D03*
X131750000Y-53650000D03*
X129210000Y-53650000D03*
%TD*%
D26*
%TO.C,J5*%
X83490000Y-28250000D03*
D27*
X83490000Y-30790000D03*
X80950000Y-28250000D03*
X80950000Y-30790000D03*
X78410000Y-28250000D03*
X78410000Y-30790000D03*
X75870000Y-28250000D03*
X75870000Y-30790000D03*
X73330000Y-28250000D03*
X73330000Y-30790000D03*
X70790000Y-28250000D03*
X70790000Y-30790000D03*
X68250000Y-28250000D03*
X68250000Y-30790000D03*
%TD*%
D26*
%TO.C,J13*%
X131750000Y-91750000D03*
D27*
X129210000Y-91750000D03*
X131750000Y-89210000D03*
X129210000Y-89210000D03*
X131750000Y-86670000D03*
X129210000Y-86670000D03*
X131750000Y-84130000D03*
X129210000Y-84130000D03*
X131750000Y-81590000D03*
X129210000Y-81590000D03*
X131750000Y-79050000D03*
X129210000Y-79050000D03*
X131750000Y-76510000D03*
X129210000Y-76510000D03*
X131750000Y-73970000D03*
X129210000Y-73970000D03*
%TD*%
D11*
%TO.C,R11*%
X105673100Y-85000000D03*
X104326900Y-85000000D03*
%TD*%
D47*
%TO.C,L1*%
X113550000Y-67000000D03*
X111700000Y-67000000D03*
%TD*%
D26*
%TO.C,J6*%
X131750000Y-28250000D03*
D27*
X131750000Y-30790000D03*
X129210000Y-28250000D03*
X129210000Y-30790000D03*
X126670000Y-28250000D03*
X126670000Y-30790000D03*
%TD*%
D48*
%TO.C,FB2*%
X96250000Y-82550000D03*
X96250000Y-84450000D03*
%TD*%
M02*
