%TF.GenerationSoftware,KiCad,Pcbnew,10.0.5*%
%TF.CreationDate,2026-09-29T05:49:04+01:00*%
%TF.ProjectId,mcxn_test_board,6d63786e-5f74-4657-9374-5f626f617264,rev?*%
%TF.SameCoordinates,Original*%
%TF.FileFunction,Copper,L1,Top*%
%TF.FilePolarity,Positive*%
%FSLAX46Y46*%
G04 Gerber Fmt 4.6, Leading zero omitted, Abs format (unit mm)*
G04 Created by KiCad (PCBNEW 10.0.5) date 2026-09-29 05:49:04*
%MOMM*%
%LPD*%
G01*
G04 APERTURE LIST*
G04 Aperture macros list*
%AMRoundRect*
0 Rectangle with rounded corners*
0 $1 Rounding radius*
0 $2 $3 $4 $5 $6 $7 $8 $9 X,Y pos of 4 corners*
0 Add a 4 corners polygon primitive as box body*
4,1,4,$2,$3,$4,$5,$6,$7,$8,$9,$2,$3,0*
0 Add four circle primitives for the rounded corners*
1,1,$1+$1,$2,$3*
1,1,$1+$1,$4,$5*
1,1,$1+$1,$6,$7*
1,1,$1+$1,$8,$9*
0 Add four rect primitives between the rounded corners*
20,1,$1+$1,$2,$3,$4,$5,0*
20,1,$1+$1,$4,$5,$6,$7,0*
20,1,$1+$1,$6,$7,$8,$9,0*
20,1,$1+$1,$8,$9,$2,$3,0*%
G04 Aperture macros list end*
%TA.AperFunction,SMDPad,CuDef*%
%ADD10RoundRect,0.114300X0.266700X0.292100X-0.266700X0.292100X-0.266700X-0.292100X0.266700X-0.292100X0*%
%TD*%
%TA.AperFunction,SMDPad,CuDef*%
%ADD11RoundRect,0.114300X-0.017961X0.395131X-0.395131X0.017961X0.017961X-0.395131X0.395131X-0.017961X0*%
%TD*%
%TA.AperFunction,SMDPad,CuDef*%
%ADD12RoundRect,0.120000X-0.280000X-0.749000X0.280000X-0.749000X0.280000X0.749000X-0.280000X0.749000X0*%
%TD*%
%TA.AperFunction,SMDPad,CuDef*%
%ADD13RoundRect,0.358500X-1.004500X-0.836500X1.004500X-0.836500X1.004500X0.836500X-1.004500X0.836500X0*%
%TD*%
%TA.AperFunction,SMDPad,CuDef*%
%ADD14RoundRect,0.362850X-1.002650X-0.846650X1.002650X-0.846650X1.002650X0.846650X-1.002650X0.846650X0*%
%TD*%
%TA.AperFunction,SMDPad,CuDef*%
%ADD15RoundRect,0.225000X-0.525000X-0.625000X0.525000X-0.625000X0.525000X0.625000X-0.525000X0.625000X0*%
%TD*%
%TA.AperFunction,SMDPad,CuDef*%
%ADD16RoundRect,0.279450X-0.652050X-1.056550X0.652050X-1.056550X0.652050X1.056550X-0.652050X1.056550X0*%
%TD*%
%TA.AperFunction,SMDPad,CuDef*%
%ADD17RoundRect,0.252450X-0.589050X-0.901550X0.589050X-0.901550X0.589050X0.901550X-0.589050X0.901550X0*%
%TD*%
%TA.AperFunction,SMDPad,CuDef*%
%ADD18RoundRect,0.114300X0.017961X-0.395131X0.395131X-0.017961X-0.017961X0.395131X-0.395131X0.017961X0*%
%TD*%
%TA.AperFunction,SMDPad,CuDef*%
%ADD19RoundRect,0.110000X0.590000X0.440000X-0.590000X0.440000X-0.590000X-0.440000X0.590000X-0.440000X0*%
%TD*%
%TA.AperFunction,ComponentPad*%
%ADD20RoundRect,0.250000X-1.000000X-1.250000X1.000000X-1.250000X1.000000X1.250000X-1.000000X1.250000X0*%
%TD*%
%TA.AperFunction,SMDPad,CuDef*%
%ADD21R,1.500000X2.000000*%
%TD*%
%TA.AperFunction,SMDPad,CuDef*%
%ADD22R,3.800000X2.000000*%
%TD*%
%TA.AperFunction,SMDPad,CuDef*%
%ADD23RoundRect,0.127000X0.139700X0.127000X-0.139700X0.127000X-0.139700X-0.127000X0.139700X-0.127000X0*%
%TD*%
%TA.AperFunction,SMDPad,CuDef*%
%ADD24RoundRect,0.250000X-0.250000X0.350000X-0.250000X-0.350000X0.250000X-0.350000X0.250000X0.350000X0*%
%TD*%
%TA.AperFunction,ComponentPad*%
%ADD25R,1.700000X1.700000*%
%TD*%
%TA.AperFunction,ComponentPad*%
%ADD26C,1.700000*%
%TD*%
%TA.AperFunction,ComponentPad*%
%ADD27C,0.650000*%
%TD*%
%TA.AperFunction,ComponentPad*%
%ADD28O,0.900000X2.400000*%
%TD*%
%TA.AperFunction,ComponentPad*%
%ADD29O,0.900000X1.700000*%
%TD*%
%TA.AperFunction,SMDPad,CuDef*%
%ADD30RoundRect,0.114300X-0.266700X-0.292100X0.266700X-0.292100X0.266700X0.292100X-0.266700X0.292100X0*%
%TD*%
%TA.AperFunction,SMDPad,CuDef*%
%ADD31RoundRect,0.250000X0.250000X0.475000X-0.250000X0.475000X-0.250000X-0.475000X0.250000X-0.475000X0*%
%TD*%
%TA.AperFunction,SMDPad,CuDef*%
%ADD32RoundRect,0.165000X0.385000X0.785000X-0.385000X0.785000X-0.385000X-0.785000X0.385000X-0.785000X0*%
%TD*%
%TA.AperFunction,SMDPad,CuDef*%
%ADD33C,1.000000*%
%TD*%
%TA.AperFunction,SMDPad,CuDef*%
%ADD34RoundRect,0.127000X-0.008980X-0.188585X0.188585X0.008980X0.008980X0.188585X-0.188585X-0.008980X0*%
%TD*%
%TA.AperFunction,SMDPad,CuDef*%
%ADD35RoundRect,0.127000X-0.139700X-0.127000X0.139700X-0.127000X0.139700X0.127000X-0.139700X0.127000X0*%
%TD*%
%TA.AperFunction,SMDPad,CuDef*%
%ADD36RoundRect,0.127000X0.127000X-0.139700X0.127000X0.139700X-0.127000X0.139700X-0.127000X-0.139700X0*%
%TD*%
%TA.AperFunction,SMDPad,CuDef*%
%ADD37RoundRect,0.127000X-0.127000X0.139700X-0.127000X-0.139700X0.127000X-0.139700X0.127000X0.139700X0*%
%TD*%
%TA.AperFunction,SMDPad,CuDef*%
%ADD38R,0.950000X0.600000*%
%TD*%
%TA.AperFunction,SMDPad,CuDef*%
%ADD39RoundRect,0.300000X0.350000X-0.300000X0.350000X0.300000X-0.350000X0.300000X-0.350000X-0.300000X0*%
%TD*%
%TA.AperFunction,SMDPad,CuDef*%
%ADD40RoundRect,0.117000X0.035355X0.421436X-0.421436X-0.035355X-0.035355X-0.421436X0.421436X0.035355X0*%
%TD*%
%TA.AperFunction,SMDPad,CuDef*%
%ADD41R,1.100000X1.800000*%
%TD*%
%TA.AperFunction,SMDPad,CuDef*%
%ADD42R,2.400000X1.650000*%
%TD*%
%TA.AperFunction,SMDPad,CuDef*%
%ADD43RoundRect,0.250000X-0.250000X-0.475000X0.250000X-0.475000X0.250000X0.475000X-0.250000X0.475000X0*%
%TD*%
%TA.AperFunction,SMDPad,CuDef*%
%ADD44RoundRect,0.175000X0.441942X0.194454X0.194454X0.441942X-0.441942X-0.194454X-0.194454X-0.441942X0*%
%TD*%
%TA.AperFunction,SMDPad,CuDef*%
%ADD45O,1.500000X0.270000*%
%TD*%
%TA.AperFunction,SMDPad,CuDef*%
%ADD46O,0.270000X1.500000*%
%TD*%
%TA.AperFunction,ComponentPad*%
%ADD47C,0.900000*%
%TD*%
%TA.AperFunction,SMDPad,CuDef*%
%ADD48RoundRect,0.300000X-2.700000X-2.700000X2.700000X-2.700000X2.700000X2.700000X-2.700000X2.700000X0*%
%TD*%
%TA.AperFunction,SMDPad,CuDef*%
%ADD49RoundRect,0.114300X-0.292100X0.266700X-0.292100X-0.266700X0.292100X-0.266700X0.292100X0.266700X0*%
%TD*%
%TA.AperFunction,SMDPad,CuDef*%
%ADD50RoundRect,0.300000X0.300000X0.350000X-0.300000X0.350000X-0.300000X-0.350000X0.300000X-0.350000X0*%
%TD*%
%TA.AperFunction,SMDPad,CuDef*%
%ADD51R,1.150000X2.500000*%
%TD*%
%TA.AperFunction,SMDPad,CuDef*%
%ADD52RoundRect,0.175000X-0.450000X0.175000X-0.450000X-0.175000X0.450000X-0.175000X0.450000X0.175000X0*%
%TD*%
%TA.AperFunction,ViaPad*%
%ADD53C,0.600000*%
%TD*%
%TA.AperFunction,ViaPad*%
%ADD54C,0.704800*%
%TD*%
%TA.AperFunction,ViaPad*%
%ADD55C,0.804800*%
%TD*%
%TA.AperFunction,Conductor*%
%ADD56C,0.200000*%
%TD*%
%TA.AperFunction,Conductor*%
%ADD57C,0.203200*%
%TD*%
%TA.AperFunction,Conductor*%
%ADD58C,0.812800*%
%TD*%
%TA.AperFunction,Conductor*%
%ADD59C,0.406400*%
%TD*%
%TA.AperFunction,Conductor*%
%ADD60C,0.304800*%
%TD*%
%TA.AperFunction,Conductor*%
%ADD61C,0.291000*%
%TD*%
%TA.AperFunction,Conductor*%
%ADD62C,0.270000*%
%TD*%
%TA.AperFunction,Conductor*%
%ADD63C,0.254000*%
%TD*%
G04 APERTURE END LIST*
D10*
%TO.P,C27,1*%
%TO.N,Net-(U1USB/DEBUG-EXTAL{slash}P1_31)*%
X84173100Y-58500000D03*
%TO.P,C27,2*%
%TO.N,0V*%
X82826900Y-58500000D03*
%TD*%
D11*
%TO.P,C15,1*%
%TO.N,+3.3V*%
X94975954Y-73274046D03*
%TO.P,C15,2*%
%TO.N,0V*%
X94024046Y-74225954D03*
%TD*%
D12*
%TO.P,J12,1,NC_1*%
%TO.N,unconnected-(J12-NC-Pad1)*%
X95856000Y-42927000D03*
%TO.P,J12,2,\u002ACS_2*%
%TO.N,Net-(J12-\u002ACS)*%
X96956000Y-42927000D03*
%TO.P,J12,3,MOSI_3*%
%TO.N,Net-(J12-MOSI)*%
X98056000Y-42927000D03*
%TO.P,J12,4,3V3_4*%
%TO.N,+3.3V*%
X99156000Y-42927000D03*
%TO.P,J12,5,SCLK_5*%
%TO.N,Net-(J12-SCLK)*%
X100256000Y-42927000D03*
%TO.P,J12,6,GND_6*%
%TO.N,0V*%
X101356000Y-42927000D03*
%TO.P,J12,7,MISO_7*%
%TO.N,Net-(J12-MISO)*%
X102456000Y-42927000D03*
%TO.P,J12,8,NC_8*%
%TO.N,unconnected-(J12-NC-Pad8)*%
X103556000Y-42927000D03*
%TO.P,J12,MP,NC_MP*%
%TO.N,unconnected-(J12-NC-PadMP)*%
X104656000Y-42927000D03*
D13*
%TO.P,J12,SHIELD,SHIELD_SHIELD*%
%TO.N,0V*%
X90843000Y-32695000D03*
D14*
X91840500Y-42459500D03*
D15*
X92056000Y-27958000D03*
X105556000Y-27958000D03*
D16*
X105884500Y-33067000D03*
D17*
X106397500Y-42404000D03*
%TD*%
D18*
%TO.P,R19,1*%
%TO.N,+3.3V*%
X102274046Y-46725954D03*
%TO.P,R19,2*%
%TO.N,Net-(J12-MISO)*%
X103225954Y-45774046D03*
%TD*%
D10*
%TO.P,R13,1*%
%TO.N,+3.3V*%
X131173100Y-49250000D03*
%TO.P,R13,2*%
%TO.N,/RSTB*%
X129826900Y-49250000D03*
%TD*%
D19*
%TO.P,D1,1,K_1*%
%TO.N,0V*%
X122050000Y-51000000D03*
%TO.P,D1,2,A_2*%
%TO.N,Net-(D1-A)*%
X119950000Y-51000000D03*
%TD*%
D20*
%TO.P,J14,1,Pin_1_1*%
%TO.N,0V*%
X109525000Y-89210000D03*
%TO.P,J14,2,Pin_2_2*%
%TO.N,+VIN*%
X113335000Y-89210000D03*
%TD*%
D21*
%TO.P,U2,1,IN_1*%
%TO.N,+5V*%
X111550000Y-74600000D03*
%TO.P,U2,2,GND_2*%
%TO.N,0V*%
X109250000Y-74600000D03*
D22*
X109250000Y-80900000D03*
D21*
%TO.P,U2,3,OUT_3*%
%TO.N,+3.3V*%
X106950000Y-74600000D03*
%TD*%
D10*
%TO.P,C26,1*%
%TO.N,Net-(U1USB/DEBUG-XTAL{slash}P1_30)*%
X83923100Y-55500000D03*
%TO.P,C26,2*%
%TO.N,0V*%
X82576900Y-55500000D03*
%TD*%
D23*
%TO.P,C1,1*%
%TO.N,+3.3V*%
X88750000Y-60250000D03*
%TO.P,C1,2*%
%TO.N,0V*%
X87911800Y-60250000D03*
%TD*%
D19*
%TO.P,D2,1,K_1*%
%TO.N,0V*%
X122050000Y-48000000D03*
%TO.P,D2,2,A_2*%
%TO.N,Net-(D2-A)*%
X119950000Y-48000000D03*
%TD*%
D23*
%TO.P,C9,1*%
%TO.N,Net-(U1PWR-VDD_CORE_1)*%
X88750000Y-58750000D03*
%TO.P,C9,2*%
%TO.N,0V*%
X87911800Y-58750000D03*
%TD*%
D24*
%TO.P,SW5,1,1_1*%
%TO.N,0V*%
X120000000Y-37300000D03*
%TO.P,SW5,2,2_2*%
%TO.N,/RSTB*%
X120000000Y-44700000D03*
%TD*%
D25*
%TO.P,J2,1,Pin_1_1*%
%TO.N,0V*%
X131750000Y-43490000D03*
D26*
%TO.P,J2,2,Pin_2_2*%
%TO.N,/RSTB*%
X129210000Y-43490000D03*
%TO.P,J2,3,Pin_3_3*%
%TO.N,/SWD*%
X131750000Y-40950000D03*
%TO.P,J2,4,Pin_4_4*%
%TO.N,/SWO*%
X129210000Y-40950000D03*
%TO.P,J2,5,Pin_5_5*%
%TO.N,/SWC*%
X131750000Y-38410000D03*
%TO.P,J2,6,Pin_6_6*%
%TO.N,+3.3V*%
X129210000Y-38410000D03*
%TD*%
D27*
%TO.P,J1,A1,GND_A1*%
%TO.N,0V*%
X97025000Y-87725000D03*
%TO.P,J1,A4,VBUS_A4*%
%TO.N,Net-(FB2-Pad2)*%
X97875000Y-87725000D03*
%TO.P,J1,A5,CC1_A5*%
%TO.N,Net-(J1-CC1)*%
X98725000Y-87725000D03*
%TO.P,J1,A6,D+_A6*%
%TO.N,/USB_D+*%
X99575000Y-87725000D03*
%TO.P,J1,A7,D-_A7*%
%TO.N,/USB_D-*%
X100425000Y-87725000D03*
%TO.P,J1,A8,SBU1_A8*%
%TO.N,unconnected-(J1-SBU1-PadA8)*%
X101275000Y-87725000D03*
%TO.P,J1,A9,VBUS_A9*%
%TO.N,Net-(FB2-Pad2)*%
X102125000Y-87725000D03*
%TO.P,J1,A12,GND_A12*%
%TO.N,0V*%
X102975000Y-87725000D03*
%TO.P,J1,B1,GND_B1*%
X102975000Y-89075000D03*
%TO.P,J1,B4,VBUS_B4*%
%TO.N,Net-(FB2-Pad2)*%
X102125000Y-89075000D03*
%TO.P,J1,B5,CC2_B5*%
%TO.N,Net-(J1-CC2)*%
X101275000Y-89075000D03*
%TO.P,J1,B6,D+_B6*%
%TO.N,/USB_D+*%
X100425000Y-89075000D03*
%TO.P,J1,B7,D-_B7*%
%TO.N,/USB_D-*%
X99575000Y-89075000D03*
%TO.P,J1,B8,SBU2_B8*%
%TO.N,unconnected-(J1-SBU2-PadB8)*%
X98725000Y-89075000D03*
%TO.P,J1,B9,VBUS_B9*%
%TO.N,Net-(FB2-Pad2)*%
X97875000Y-89075000D03*
%TO.P,J1,B12,GND_B12*%
%TO.N,0V*%
X97025000Y-89075000D03*
D28*
%TO.P,J1,S1,SHIELD_S1*%
X95675000Y-88705000D03*
D29*
X95675000Y-92085000D03*
D28*
%TO.P,J1,S2,SHIELD_S2*%
X104325000Y-88705000D03*
D29*
X104325000Y-92085000D03*
%TD*%
D10*
%TO.P,R14,1*%
%TO.N,Net-(D1-A)*%
X118173100Y-51000000D03*
%TO.P,R14,2*%
%TO.N,Net-(U1UI-P3_6)*%
X116826900Y-51000000D03*
%TD*%
D30*
%TO.P,R15,1*%
%TO.N,Net-(D2-A)*%
X120326900Y-49500000D03*
%TO.P,R15,2*%
%TO.N,Net-(U1UI-P3_1)*%
X121673100Y-49500000D03*
%TD*%
D31*
%TO.P,C20,1*%
%TO.N,Net-(U1PWR-VDD_CORE_1)*%
X113575000Y-69750000D03*
%TO.P,C20,2*%
%TO.N,0V*%
X111675000Y-69750000D03*
%TD*%
D32*
%TO.P,Y2,1,1_1*%
%TO.N,Net-(U1USB/DEBUG-P5_1{slash}XTAL32K)*%
X108250000Y-71250000D03*
%TO.P,Y2,2,2_2*%
%TO.N,Net-(U1USB/DEBUG-P5_0{slash}EXTAL32K)*%
X105750000Y-71250000D03*
%TD*%
D25*
%TO.P,J7,1,Pin_1_1*%
%TO.N,0V*%
X68250000Y-51110000D03*
D26*
%TO.P,J7,2,Pin_2_2*%
%TO.N,/A_BCLK*%
X70790000Y-51110000D03*
%TO.P,J7,3,Pin_3_3*%
%TO.N,/MCLK*%
X68250000Y-53650000D03*
%TO.P,J7,4,Pin_4_4*%
%TO.N,/A_LRCLK*%
X70790000Y-53650000D03*
%TO.P,J7,5,Pin_5_5*%
%TO.N,/A_DAT*%
X68250000Y-56190000D03*
%TO.P,J7,6,Pin_6_6*%
%TO.N,/A_DAT1*%
X70790000Y-56190000D03*
%TO.P,J7,7,Pin_7_7*%
%TO.N,+3.3V*%
X68250000Y-58730000D03*
%TO.P,J7,8,Pin_8_8*%
%TO.N,+5V*%
X70790000Y-58730000D03*
%TD*%
D33*
%TO.P,TP4,1,1_1*%
%TO.N,Net-(U1USB/DEBUG-NC_DP)*%
X104500000Y-73250000D03*
%TD*%
D34*
%TO.P,C3,1*%
%TO.N,+3.3V*%
X102953652Y-49421348D03*
%TO.P,C3,2*%
%TO.N,0V*%
X103546348Y-48828652D03*
%TD*%
D35*
%TO.P,C5,1*%
%TO.N,+3.3V*%
X109830900Y-58500000D03*
%TO.P,C5,2*%
%TO.N,0V*%
X110669100Y-58500000D03*
%TD*%
D36*
%TO.P,C11,1*%
%TO.N,0V*%
X104500000Y-70669100D03*
%TO.P,C11,2*%
%TO.N,+3.3V*%
X104500000Y-69830900D03*
%TD*%
D25*
%TO.P,J8,1,Pin_1_1*%
%TO.N,0V*%
X68250000Y-63810000D03*
D26*
%TO.P,J8,2,Pin_2_2*%
%TO.N,/B_DAT*%
X70790000Y-63810000D03*
%TO.P,J8,3,Pin_3_3*%
%TO.N,/MCLK*%
X68250000Y-66350000D03*
%TO.P,J8,4,Pin_4_4*%
%TO.N,/B_DAT1*%
X70790000Y-66350000D03*
%TO.P,J8,5,Pin_5_5*%
%TO.N,/B_BCLK*%
X68250000Y-68890000D03*
%TO.P,J8,6,Pin_6_6*%
%TO.N,/B_LRCLK*%
X70790000Y-68890000D03*
%TO.P,J8,7,Pin_7_7*%
%TO.N,+3.3V*%
X68250000Y-71430000D03*
%TO.P,J8,8,Pin_8_8*%
%TO.N,+5V*%
X70790000Y-71430000D03*
%TD*%
D11*
%TO.P,C16,1*%
%TO.N,Net-(U1PWR-VDD_ANA)*%
X93561741Y-71859832D03*
%TO.P,C16,2*%
%TO.N,0V*%
X92609833Y-72811740D03*
%TD*%
D25*
%TO.P,J10,1,Pin_1_1*%
%TO.N,0V*%
X78410000Y-91750000D03*
D26*
%TO.P,J10,2,Pin_2_2*%
%TO.N,/P4_12*%
X78410000Y-89210000D03*
%TO.P,J10,3,Pin_3_3*%
%TO.N,/P4_15*%
X80950000Y-91750000D03*
%TO.P,J10,4,Pin_4_4*%
%TO.N,/P4_13*%
X80950000Y-89210000D03*
%TO.P,J10,5,Pin_5_5*%
%TO.N,/P4_17*%
X83490000Y-91750000D03*
%TO.P,J10,6,Pin_6_6*%
%TO.N,/P4_16*%
X83490000Y-89210000D03*
%TD*%
D25*
%TO.P,J3,1,Pin_1_1*%
%TO.N,0V*%
X68250000Y-38410000D03*
D26*
%TO.P,J3,2,Pin_2_2*%
%TO.N,/CANTX*%
X70790000Y-38410000D03*
%TO.P,J3,3,Pin_3_3*%
%TO.N,/TXD*%
X68250000Y-40950000D03*
%TO.P,J3,4,Pin_4_4*%
%TO.N,/CANRX*%
X70790000Y-40950000D03*
%TO.P,J3,5,Pin_5_5*%
%TO.N,/RXD*%
X68250000Y-43490000D03*
%TO.P,J3,6,Pin_6_6*%
%TO.N,+3.3V*%
X70790000Y-43490000D03*
%TD*%
D33*
%TO.P,TP6,1,1_1*%
%TO.N,Net-(U1UNUSED-P0_19)*%
X100000000Y-49250000D03*
%TD*%
D11*
%TO.P,C24,1*%
%TO.N,+3.3V*%
X123975954Y-33362046D03*
%TO.P,C24,2*%
%TO.N,0V*%
X123024046Y-34313954D03*
%TD*%
D37*
%TO.P,C12,1*%
%TO.N,+3.3V*%
X102500000Y-69830900D03*
%TO.P,C12,2*%
%TO.N,0V*%
X102500000Y-70669100D03*
%TD*%
D38*
%TO.P,U3,1,IO1_1*%
%TO.N,/USB_D-*%
X101350000Y-85250000D03*
%TO.P,U3,2,VN_2*%
%TO.N,0V*%
X101350000Y-84300000D03*
%TO.P,U3,3,IO2_3*%
%TO.N,unconnected-(U3-IO2-Pad3)*%
X101350000Y-83350000D03*
%TO.P,U3,4,IO3_4*%
%TO.N,unconnected-(U3-IO3-Pad4)*%
X98650000Y-83350000D03*
%TO.P,U3,5,VP_5*%
%TO.N,VBUS*%
X98650000Y-84300000D03*
%TO.P,U3,6,IO4_6*%
%TO.N,/USB_D+*%
X98650000Y-85250000D03*
%TD*%
D39*
%TO.P,D3,1,K_1*%
%TO.N,+5V*%
X91500000Y-91000000D03*
%TO.P,D3,2,A_2*%
%TO.N,VBUS*%
X91500000Y-87500000D03*
%TD*%
D35*
%TO.P,C8,1*%
%TO.N,Net-(U1PWR-VDD_CORE_1)*%
X110080900Y-62500000D03*
%TO.P,C8,2*%
%TO.N,0V*%
X110919100Y-62500000D03*
%TD*%
D10*
%TO.P,C13,1*%
%TO.N,+3.3V*%
X85504000Y-60250000D03*
%TO.P,C13,2*%
%TO.N,0V*%
X84157800Y-60250000D03*
%TD*%
D40*
%TO.P,Y1,1,1_1*%
%TO.N,Net-(U1USB/DEBUG-XTAL{slash}P1_30)*%
X86106066Y-55950969D03*
%TO.P,Y1,2,2_2*%
%TO.N,0V*%
X85200969Y-56856066D03*
%TO.P,Y1,3,3_3*%
%TO.N,Net-(U1USB/DEBUG-EXTAL{slash}P1_31)*%
X85893934Y-57549031D03*
%TO.P,Y1,4,2_4*%
%TO.N,0V*%
X86799031Y-56643934D03*
%TD*%
D41*
%TO.P,SW1,1,1_1*%
%TO.N,/ROW1*%
X119150000Y-92100000D03*
X119150000Y-85900000D03*
%TO.P,SW1,2,2_2*%
%TO.N,/COL4*%
X122850000Y-92100000D03*
X122850000Y-85900000D03*
%TD*%
D30*
%TO.P,C14,1*%
%TO.N,+3.3V*%
X117326900Y-58000000D03*
%TO.P,C14,2*%
%TO.N,0V*%
X118673100Y-58000000D03*
%TD*%
D42*
%TO.P,C21,1*%
%TO.N,+5V*%
X115000000Y-77725000D03*
%TO.P,C21,2*%
%TO.N,0V*%
X115000000Y-74275000D03*
%TD*%
D37*
%TO.P,C10,1*%
%TO.N,Net-(U1PWR-VDD_ANA)*%
X96250000Y-70246350D03*
%TO.P,C10,2*%
%TO.N,0V*%
X96250000Y-71084550D03*
%TD*%
D43*
%TO.P,C18,1*%
%TO.N,Net-(U1PWR-VDD_SYS)*%
X114050000Y-62750000D03*
%TO.P,C18,2*%
%TO.N,0V*%
X115950000Y-62750000D03*
%TD*%
D33*
%TO.P,TP5,1,1_1*%
%TO.N,Net-(U1UNUSED-P0_3)*%
X108375000Y-48125000D03*
%TD*%
D30*
%TO.P,C23,1*%
%TO.N,/RSTB*%
X129826900Y-47500000D03*
%TO.P,C23,2*%
%TO.N,0V*%
X131173100Y-47500000D03*
%TD*%
D33*
%TO.P,TP7,1,1_1*%
%TO.N,Net-(U1USB/DEBUG-NC_DM)*%
X102375000Y-74625000D03*
%TD*%
D25*
%TO.P,J11,1,Pin_1_1*%
%TO.N,0V*%
X116510000Y-28250000D03*
D26*
%TO.P,J11,2,Pin_2_2*%
X116510000Y-30790000D03*
%TO.P,J11,3,Pin_3_3*%
%TO.N,/SDA*%
X113970000Y-28250000D03*
%TO.P,J11,4,Pin_4_4*%
%TO.N,+5V*%
X113970000Y-30790000D03*
%TO.P,J11,5,Pin_5_5*%
%TO.N,/SCL*%
X111430000Y-28250000D03*
%TO.P,J11,6,Pin_6_6*%
%TO.N,+3.3V*%
X111430000Y-30790000D03*
%TD*%
D37*
%TO.P,C7,1*%
%TO.N,+3.3V*%
X97750000Y-69830900D03*
%TO.P,C7,2*%
%TO.N,0V*%
X97750000Y-70669100D03*
%TD*%
D44*
%TO.P,FB1,1*%
%TO.N,+3.3V*%
X92378680Y-75871319D03*
%TO.P,FB1,2*%
%TO.N,Net-(U1PWR-VDD_ANA)*%
X91035178Y-74527817D03*
%TD*%
D42*
%TO.P,C22,1*%
%TO.N,+3.3V*%
X103500000Y-80925000D03*
%TO.P,C22,2*%
%TO.N,0V*%
X103500000Y-77475000D03*
%TD*%
D33*
%TO.P,TP2,1,1_1*%
%TO.N,Net-(U1PWR-VDD_CORE_1)*%
X120000000Y-61000000D03*
%TD*%
D24*
%TO.P,SW4,1,1_1*%
%TO.N,0V*%
X113000000Y-37300000D03*
%TO.P,SW4,2,2_2*%
%TO.N,Net-(U1USB/DEBUG-BOOTLOAD{slash}P0_6)*%
X113000000Y-44700000D03*
%TD*%
D36*
%TO.P,C2,1*%
%TO.N,+3.3V*%
X96000000Y-49669100D03*
%TO.P,C2,2*%
%TO.N,0V*%
X96000000Y-48830900D03*
%TD*%
D35*
%TO.P,C6,1*%
%TO.N,+3.3V*%
X109830900Y-55000000D03*
%TO.P,C6,2*%
%TO.N,0V*%
X110669100Y-55000000D03*
%TD*%
D43*
%TO.P,C17,1*%
%TO.N,Net-(U1PWR-VDD_CORE_1)*%
X114050000Y-60750000D03*
%TO.P,C17,2*%
%TO.N,0V*%
X115950000Y-60750000D03*
%TD*%
D25*
%TO.P,J9,1,Pin_1_1*%
%TO.N,0V*%
X68250000Y-79050000D03*
D26*
%TO.P,J9,2,Pin_2_2*%
X70790000Y-79050000D03*
%TO.P,J9,3,Pin_3_3*%
%TO.N,/P4_0*%
X68250000Y-81590000D03*
%TO.P,J9,4,Pin_4_4*%
%TO.N,/P4_1*%
X70790000Y-81590000D03*
%TO.P,J9,5,Pin_5_5*%
%TO.N,/P4_2*%
X68250000Y-84130000D03*
%TO.P,J9,6,Pin_6_6*%
%TO.N,/P4_3*%
X70790000Y-84130000D03*
%TO.P,J9,7,Pin_7_7*%
%TO.N,/P4_4*%
X68250000Y-86670000D03*
%TO.P,J9,8,Pin_8_8*%
%TO.N,/P4_5*%
X70790000Y-86670000D03*
%TO.P,J9,9,Pin_9_9*%
%TO.N,/P4_6*%
X68250000Y-89210000D03*
%TO.P,J9,10,Pin_10_10*%
%TO.N,/P4_7*%
X70790000Y-89210000D03*
%TO.P,J9,11,Pin_11_11*%
%TO.N,+3.3V*%
X68250000Y-91750000D03*
%TO.P,J9,12,Pin_12_12*%
%TO.N,+5V*%
X70790000Y-91750000D03*
%TD*%
D45*
%TO.P,U1,1,RXD/P1_8_1*%
%TO.N,/RXD*%
X92250000Y-54000000D03*
%TO.P,U1,2,TXD/P1_9_2*%
%TO.N,/TXD*%
X92250000Y-54500000D03*
%TO.P,U1,3,CANTX/P1_10_3*%
%TO.N,/CANTX*%
X92250000Y-55000000D03*
%TO.P,U1,4,CANRX/P1_11_4*%
%TO.N,/CANRX*%
X92250000Y-55500000D03*
%TO.P,U1,5,P1_12_5*%
%TO.N,/P1_12*%
X92250000Y-56000000D03*
%TO.P,U1,6,P1_13_6*%
%TO.N,/P1_13*%
X92250000Y-56500000D03*
%TO.P,U1,7,P1_14_7*%
%TO.N,/P1_14*%
X92250000Y-57000000D03*
%TO.P,U1,8,P1_15_8*%
%TO.N,/P1_15*%
X92250000Y-57500000D03*
%TO.P,U1,9,RESET_B_9*%
%TO.N,/RSTB*%
X92250000Y-58000000D03*
%TO.P,U1,10,XTAL/P1_30_10*%
%TO.N,Net-(U1USB/DEBUG-XTAL{slash}P1_30)*%
X92250000Y-58500000D03*
%TO.P,U1,11,EXTAL/P1_31_11*%
%TO.N,Net-(U1USB/DEBUG-EXTAL{slash}P1_31)*%
X92250000Y-59000000D03*
%TO.P,U1,12,VDD_CORE_1_12*%
%TO.N,Net-(U1PWR-VDD_CORE_1)*%
X92250000Y-59500000D03*
%TO.P,U1,13,VDD_LDO_CORE/VDD/VDD_P2_13*%
%TO.N,+3.3V*%
X92250000Y-60000000D03*
%TO.P,U1,14,P2_0/AUDIN_BCLK_14*%
%TO.N,/A_BCLK*%
X92250000Y-60500000D03*
%TO.P,U1,15,P2_1/AUDIN_LRCLK_15*%
%TO.N,/A_LRCLK*%
X92250000Y-61000000D03*
%TO.P,U1,16,P2_2/AUDOUT_DAT_16*%
%TO.N,/B_DAT*%
X92250000Y-61500000D03*
%TO.P,U1,17,P2_3/AUDIN_DAT_17*%
%TO.N,/A_DAT*%
X92250000Y-62000000D03*
%TO.P,U1,18,P2_4/AUDIN_DAT1_18*%
%TO.N,/A_DAT1*%
X92250000Y-62500000D03*
%TO.P,U1,19,P2_5/AUDOUT_DAT1_19*%
%TO.N,/B_DAT1*%
X92250000Y-63000000D03*
%TO.P,U1,20,P2_6/AUDOUT_BCLK_20*%
%TO.N,/B_BCLK*%
X92250000Y-63500000D03*
%TO.P,U1,21,P2_7/AUDOUT_LRCLK_21*%
%TO.N,/B_LRCLK*%
X92250000Y-64000000D03*
%TO.P,U1,22,ADC1/P4_0_22*%
%TO.N,/P4_0*%
X92250000Y-64500000D03*
%TO.P,U1,23,ADC2/P4_1_23*%
%TO.N,/P4_1*%
X92250000Y-65000000D03*
%TO.P,U1,24,ADC3/P4_2_24*%
%TO.N,/P4_2*%
X92250000Y-65500000D03*
%TO.P,U1,25,ADC4/P4_3_25*%
%TO.N,/P4_3*%
X92250000Y-66000000D03*
D46*
%TO.P,U1,26,P4_4_26*%
%TO.N,/P4_4*%
X94000000Y-67750000D03*
%TO.P,U1,27,P4_5_27*%
%TO.N,/P4_5*%
X94500000Y-67750000D03*
%TO.P,U1,28,P4_6_28*%
%TO.N,/P4_6*%
X95000000Y-67750000D03*
%TO.P,U1,29,P4_7/ANA_7_29*%
%TO.N,/P4_7*%
X95500000Y-67750000D03*
%TO.P,U1,30,VDD_ANA_30*%
%TO.N,Net-(U1PWR-VDD_ANA)*%
X96000000Y-67750000D03*
%TO.P,U1,31,VREFH_31*%
X96500000Y-67750000D03*
%TO.P,U1,32,VREFL_32*%
%TO.N,0V*%
X97000000Y-67750000D03*
%TO.P,U1,33,VSS_P4_33*%
X97500000Y-67750000D03*
%TO.P,U1,34,VDD_P4_34*%
%TO.N,+3.3V*%
X98000000Y-67750000D03*
%TO.P,U1,35,P4_12_35*%
%TO.N,/P4_12*%
X98500000Y-67750000D03*
%TO.P,U1,36,P4_13_36*%
%TO.N,/P4_13*%
X99000000Y-67750000D03*
%TO.P,U1,37,P4_15_37*%
%TO.N,/P4_15*%
X99500000Y-67750000D03*
%TO.P,U1,38,P4_16_38*%
%TO.N,/P4_16*%
X100000000Y-67750000D03*
%TO.P,U1,39,P4_17_39*%
%TO.N,/P4_17*%
X100500000Y-67750000D03*
%TO.P,U1,40,USB1_DP_40*%
%TO.N,/USB_D+*%
X101000000Y-67750000D03*
%TO.P,U1,41,USB1_DM_41*%
%TO.N,/USB_D-*%
X101500000Y-67750000D03*
%TO.P,U1,42,USB1_VBUS_42*%
%TO.N,VBUS*%
X102000000Y-67750000D03*
%TO.P,U1,43,VSS_43*%
%TO.N,0V*%
X102500000Y-67750000D03*
%TO.P,U1,44,VDD_USB_44*%
%TO.N,+3.3V*%
X103000000Y-67750000D03*
%TO.P,U1,45,NC_DM_45*%
%TO.N,Net-(U1USB/DEBUG-NC_DM)*%
X103500000Y-67750000D03*
%TO.P,U1,46,NC_DP_46*%
%TO.N,Net-(U1USB/DEBUG-NC_DP)*%
X104000000Y-67750000D03*
%TO.P,U1,47,VDD_BAT_47*%
%TO.N,+3.3V*%
X104500000Y-67750000D03*
%TO.P,U1,48,P5_0/EXTAL32K_48*%
%TO.N,Net-(U1USB/DEBUG-P5_0{slash}EXTAL32K)*%
X105000000Y-67750000D03*
%TO.P,U1,49,P5_1/XTAL32K_49*%
%TO.N,Net-(U1USB/DEBUG-P5_1{slash}XTAL32K)*%
X105500000Y-67750000D03*
%TO.P,U1,50,P5_2/VBAT_WKUP_B_50*%
%TO.N,unconnected-(U1PWR-P5_2{slash}VBAT_WKUP_B-Pad50)*%
X106000000Y-67750000D03*
D45*
%TO.P,U1,51,P5_3_51*%
%TO.N,Net-(U1UNUSED-P5_3)*%
X107750000Y-66000000D03*
%TO.P,U1,52,VSS_DCDC_52*%
%TO.N,0V*%
X107750000Y-65500000D03*
%TO.P,U1,53,DCDC_LX_53*%
%TO.N,Net-(U1PWR-DCDC_LX)*%
X107750000Y-65000000D03*
%TO.P,U1,54,VDD_DCDC/VDD_LDO_SYS_54*%
%TO.N,+3.3V*%
X107750000Y-64500000D03*
%TO.P,U1,55,VDD_SYS_55*%
%TO.N,Net-(U1PWR-VDD_SYS)*%
X107750000Y-64000000D03*
%TO.P,U1,56,P3_21/TFT_D~{C}_56*%
%TO.N,/DC*%
X107750000Y-63500000D03*
%TO.P,U1,57,P3_20/TFT_~{RST}_57*%
%TO.N,/RST*%
X107750000Y-63000000D03*
%TO.P,U1,58,VDD_CORE_2_58*%
%TO.N,Net-(U1PWR-VDD_CORE_1)*%
X107750000Y-62500000D03*
%TO.P,U1,59,VDD_P3_1_59*%
%TO.N,+3.3V*%
X107750000Y-62000000D03*
%TO.P,U1,60,P3_17/TFT_~{CS}_60*%
%TO.N,/CS*%
X107750000Y-61500000D03*
%TO.P,U1,61,P3_16/TFT_BL_61*%
%TO.N,/BL*%
X107750000Y-61000000D03*
%TO.P,U1,62,P3_15_62*%
%TO.N,/ROW1*%
X107750000Y-60500000D03*
%TO.P,U1,63,P3_14_63*%
%TO.N,/ROW2*%
X107750000Y-60000000D03*
%TO.P,U1,64,P3_13_64*%
%TO.N,/ROW3*%
X107750000Y-59500000D03*
%TO.P,U1,65,P3_12_65*%
%TO.N,/ROW4*%
X107750000Y-59000000D03*
%TO.P,U1,66,VDD_P3_2_66*%
%TO.N,+3.3V*%
X107750000Y-58500000D03*
%TO.P,U1,67,P3_11_67*%
%TO.N,/COL1*%
X107750000Y-58000000D03*
%TO.P,U1,68,P3_10_68*%
%TO.N,/COL2*%
X107750000Y-57500000D03*
%TO.P,U1,69,P3_9_69*%
%TO.N,/COL3*%
X107750000Y-57000000D03*
%TO.P,U1,70,P3_8_70*%
%TO.N,/COL4*%
X107750000Y-56500000D03*
%TO.P,U1,71,P3_7/AUD_MCLK_71*%
%TO.N,/MCLK*%
X107750000Y-56000000D03*
%TO.P,U1,72,P3_6_72*%
%TO.N,Net-(U1UI-P3_6)*%
X107750000Y-55500000D03*
%TO.P,U1,73,VDD_P3_3_73*%
%TO.N,+3.3V*%
X107750000Y-55000000D03*
%TO.P,U1,74,P3_1_74*%
%TO.N,Net-(U1UI-P3_1)*%
X107750000Y-54500000D03*
%TO.P,U1,75,P3_0_75*%
%TO.N,/CS2*%
X107750000Y-54000000D03*
D46*
%TO.P,U1,76,P0_0/SWDIO_76*%
%TO.N,/SWD*%
X106000000Y-52250000D03*
%TO.P,U1,77,P0_1/SWCLK_77*%
%TO.N,/SWC*%
X105500000Y-52250000D03*
%TO.P,U1,78,P0_2/SWO_78*%
%TO.N,/SWO*%
X105000000Y-52250000D03*
%TO.P,U1,79,P0_3_79*%
%TO.N,Net-(U1UNUSED-P0_3)*%
X104500000Y-52250000D03*
%TO.P,U1,80,PDM_CLK/P0_4_80*%
%TO.N,Net-(J6-Pin_5)*%
X104000000Y-52250000D03*
%TO.P,U1,81,PDM_DAT/P0_5_81*%
%TO.N,Net-(J6-Pin_3)*%
X103500000Y-52250000D03*
%TO.P,U1,82,BOOTLOAD/P0_6_82*%
%TO.N,Net-(U1USB/DEBUG-BOOTLOAD{slash}P0_6)*%
X103000000Y-52250000D03*
%TO.P,U1,83,VDD_1_83*%
%TO.N,+3.3V*%
X102500000Y-52250000D03*
%TO.P,U1,84,P0_16/SDA_84*%
%TO.N,/SDA*%
X102000000Y-52250000D03*
%TO.P,U1,85,P0_17/SCL_85*%
%TO.N,/SCL*%
X101500000Y-52250000D03*
%TO.P,U1,86,PDM_DAT1/P0_18_86*%
%TO.N,Net-(J6-Pin_4)*%
X101000000Y-52250000D03*
%TO.P,U1,87,P0_19_87*%
%TO.N,Net-(U1UNUSED-P0_19)*%
X100500000Y-52250000D03*
%TO.P,U1,88,P0_20/MOSI_88*%
%TO.N,Net-(J12-MOSI)*%
X100000000Y-52250000D03*
%TO.P,U1,89,P0_21/SCK_89*%
%TO.N,Net-(J12-SCLK)*%
X99500000Y-52250000D03*
%TO.P,U1,90,P0_22/MISO_90*%
%TO.N,Net-(J12-MISO)*%
X99000000Y-52250000D03*
%TO.P,U1,91,P0_23/~{CS}_91*%
%TO.N,Net-(J12-\u002ACS)*%
X98500000Y-52250000D03*
%TO.P,U1,92,P1_0/TFT_MOSI_92*%
%TO.N,/MOSI*%
X98000000Y-52250000D03*
%TO.P,U1,93,P1_1/TFT_SCK_93*%
%TO.N,/SCK*%
X97500000Y-52250000D03*
%TO.P,U1,94,P1_2/MISO_94*%
%TO.N,/MISO*%
X97000000Y-52250000D03*
%TO.P,U1,95,P1_3_95*%
%TO.N,/P1_3*%
X96500000Y-52250000D03*
%TO.P,U1,96,VDD_2_96*%
%TO.N,+3.3V*%
X96000000Y-52250000D03*
%TO.P,U1,97,P1_4_97*%
%TO.N,/P1_4*%
X95500000Y-52250000D03*
%TO.P,U1,98,P1_5_98*%
%TO.N,/P1_5*%
X95000000Y-52250000D03*
%TO.P,U1,99,P1_6_99*%
%TO.N,/P1_6*%
X94500000Y-52250000D03*
%TO.P,U1,100,P1_7_100*%
%TO.N,/P1_7*%
X94000000Y-52250000D03*
D47*
%TO.P,U1,EP,GND_EP*%
%TO.N,0V*%
X99050000Y-59050000D03*
X99050000Y-60950000D03*
D48*
X100000000Y-60000000D03*
D47*
X100950000Y-59050000D03*
X100950000Y-60950000D03*
%TD*%
D49*
%TO.P,R10,1*%
%TO.N,0V*%
X94000000Y-82826900D03*
%TO.P,R10,2*%
%TO.N,Net-(J1-CC1)*%
X94000000Y-84173100D03*
%TD*%
D41*
%TO.P,SW2,1,1_1*%
%TO.N,/ROW2*%
X119150000Y-82100000D03*
X119150000Y-75900000D03*
%TO.P,SW2,2,2_2*%
%TO.N,/COL4*%
X122850000Y-82100000D03*
X122850000Y-75900000D03*
%TD*%
D18*
%TO.P,R12,1*%
%TO.N,Net-(U1USB/DEBUG-BOOTLOAD{slash}P0_6)*%
X105366046Y-47521954D03*
%TO.P,R12,2*%
%TO.N,+3.3V*%
X106317954Y-46570046D03*
%TD*%
D49*
%TO.P,C25,1*%
%TO.N,+3.3V*%
X99800000Y-45053800D03*
%TO.P,C25,2*%
%TO.N,0V*%
X99800000Y-46400000D03*
%TD*%
D43*
%TO.P,C19,1*%
%TO.N,+3.3V*%
X110300000Y-64250000D03*
%TO.P,C19,2*%
%TO.N,0V*%
X112200000Y-64250000D03*
%TD*%
D10*
%TO.P,R18,1*%
%TO.N,/MISO*%
X95048100Y-46125000D03*
%TO.P,R18,2*%
%TO.N,/P1_2*%
X93701900Y-46125000D03*
%TD*%
%TO.P,R16,1*%
%TO.N,+3.3V*%
X120739100Y-29774000D03*
%TO.P,R16,2*%
%TO.N,/SDA*%
X119392900Y-29774000D03*
%TD*%
%TO.P,R17,1*%
%TO.N,+3.3V*%
X120739100Y-28123000D03*
%TO.P,R17,2*%
%TO.N,/SCL*%
X119392900Y-28123000D03*
%TD*%
D50*
%TO.P,D4,1,K_1*%
%TO.N,+5V*%
X116250000Y-81250000D03*
%TO.P,D4,2,A_2*%
%TO.N,+VIN*%
X112750000Y-81250000D03*
%TD*%
D41*
%TO.P,SW3,1,1_1*%
%TO.N,/ROW3*%
X119150000Y-72100000D03*
X119150000Y-65900000D03*
%TO.P,SW3,2,2_2*%
%TO.N,/COL4*%
X122850000Y-72100000D03*
X122850000Y-65900000D03*
%TD*%
D25*
%TO.P,J4,1,Pin_1_1*%
%TO.N,0V*%
X131750000Y-66350000D03*
D26*
%TO.P,J4,2,Pin_2_2*%
%TO.N,/DC*%
X129210000Y-66350000D03*
%TO.P,J4,3,Pin_3_3*%
%TO.N,/CS*%
X131750000Y-63810000D03*
%TO.P,J4,4,Pin_4_4*%
%TO.N,/RST*%
X129210000Y-63810000D03*
%TO.P,J4,5,Pin_5_5*%
%TO.N,/MISO*%
X131750000Y-61270000D03*
%TO.P,J4,6,Pin_6_6*%
%TO.N,/BL*%
X129210000Y-61270000D03*
%TO.P,J4,7,Pin_7_7*%
%TO.N,/SCK*%
X131750000Y-58730000D03*
%TO.P,J4,8,Pin_8_8*%
%TO.N,unconnected-(J4-Pin_8-Pad8)*%
X129210000Y-58730000D03*
%TO.P,J4,9,Pin_9_9*%
%TO.N,/MOSI*%
X131750000Y-56190000D03*
%TO.P,J4,10,Pin_10_10*%
%TO.N,/CS2*%
X129210000Y-56190000D03*
%TO.P,J4,11,Pin_11_11*%
%TO.N,+3.3V*%
X131750000Y-53650000D03*
%TO.P,J4,12,Pin_12_12*%
%TO.N,+5V*%
X129210000Y-53650000D03*
%TD*%
D25*
%TO.P,J5,1,Pin_1_1*%
%TO.N,0V*%
X83490000Y-28250000D03*
D26*
%TO.P,J5,2,Pin_2_2*%
X83490000Y-30790000D03*
%TO.P,J5,3,Pin_3_3*%
%TO.N,/P1_2*%
X80950000Y-28250000D03*
%TO.P,J5,4,Pin_4_4*%
%TO.N,/P1_3*%
X80950000Y-30790000D03*
%TO.P,J5,5,Pin_5_5*%
%TO.N,/P1_4*%
X78410000Y-28250000D03*
%TO.P,J5,6,Pin_6_6*%
%TO.N,/P1_5*%
X78410000Y-30790000D03*
%TO.P,J5,7,Pin_7_7*%
%TO.N,/P1_6*%
X75870000Y-28250000D03*
%TO.P,J5,8,Pin_8_8*%
%TO.N,/P1_7*%
X75870000Y-30790000D03*
%TO.P,J5,9,Pin_9_9*%
%TO.N,/P1_12*%
X73330000Y-28250000D03*
%TO.P,J5,10,Pin_10_10*%
%TO.N,/P1_13*%
X73330000Y-30790000D03*
%TO.P,J5,11,Pin_11_11*%
%TO.N,/P1_14*%
X70790000Y-28250000D03*
%TO.P,J5,12,Pin_12_12*%
%TO.N,/P1_15*%
X70790000Y-30790000D03*
%TO.P,J5,13,Pin_13_13*%
%TO.N,+3.3V*%
X68250000Y-28250000D03*
%TO.P,J5,14,Pin_14_14*%
%TO.N,+5V*%
X68250000Y-30790000D03*
%TD*%
D25*
%TO.P,J13,1,Pin_1_1*%
%TO.N,/ROW1*%
X131750000Y-91750000D03*
D26*
%TO.P,J13,2,Pin_2_2*%
%TO.N,/ROW2*%
X129210000Y-91750000D03*
%TO.P,J13,3,Pin_3_3*%
X131750000Y-89210000D03*
%TO.P,J13,4,Pin_4_4*%
%TO.N,/ROW3*%
X129210000Y-89210000D03*
%TO.P,J13,5,Pin_5_5*%
X131750000Y-86670000D03*
%TO.P,J13,6,Pin_6_6*%
%TO.N,/COL3*%
X129210000Y-86670000D03*
%TO.P,J13,7,Pin_7_7*%
%TO.N,/ROW4*%
X131750000Y-84130000D03*
%TO.P,J13,8,Pin_8_8*%
X129210000Y-84130000D03*
%TO.P,J13,9,Pin_9_9*%
%TO.N,/COL1*%
X131750000Y-81590000D03*
%TO.P,J13,10,Pin_10_10*%
X129210000Y-81590000D03*
%TO.P,J13,11,Pin_11_11*%
%TO.N,/COL2*%
X131750000Y-79050000D03*
%TO.P,J13,12,Pin_12_12*%
%TO.N,/ROW1*%
X129210000Y-79050000D03*
%TO.P,J13,13,Pin_13_13*%
%TO.N,/COL3*%
X131750000Y-76510000D03*
%TO.P,J13,14,Pin_14_14*%
%TO.N,/COL2*%
X129210000Y-76510000D03*
%TO.P,J13,15,Pin_15_15*%
%TO.N,/COL4*%
X131750000Y-73970000D03*
%TO.P,J13,16,Pin_16_16*%
%TO.N,unconnected-(J13-Pin_16-Pad16)*%
X129210000Y-73970000D03*
%TD*%
D10*
%TO.P,R11,1*%
%TO.N,0V*%
X105673100Y-85000000D03*
%TO.P,R11,2*%
%TO.N,Net-(J1-CC2)*%
X104326900Y-85000000D03*
%TD*%
D51*
%TO.P,L1,1,1_1*%
%TO.N,Net-(U1PWR-VDD_CORE_1)*%
X113550000Y-67000000D03*
%TO.P,L1,2,2_2*%
%TO.N,Net-(U1PWR-DCDC_LX)*%
X111700000Y-67000000D03*
%TD*%
D25*
%TO.P,J6,1,Pin_1_1*%
%TO.N,0V*%
X131750000Y-28250000D03*
D26*
%TO.P,J6,2,Pin_2_2*%
X131750000Y-30790000D03*
%TO.P,J6,3,Pin_3_3*%
%TO.N,Net-(J6-Pin_3)*%
X129210000Y-28250000D03*
%TO.P,J6,4,Pin_4_4*%
%TO.N,Net-(J6-Pin_4)*%
X129210000Y-30790000D03*
%TO.P,J6,5,Pin_5_5*%
%TO.N,Net-(J6-Pin_5)*%
X126670000Y-28250000D03*
%TO.P,J6,6,Pin_6_6*%
%TO.N,+3.3V*%
X126670000Y-30790000D03*
%TD*%
D35*
%TO.P,C4,1*%
%TO.N,+3.3V*%
X109830900Y-60750000D03*
%TO.P,C4,2*%
%TO.N,0V*%
X110669100Y-60750000D03*
%TD*%
D52*
%TO.P,FB2,1*%
%TO.N,VBUS*%
X96250000Y-82550000D03*
%TO.P,FB2,2*%
%TO.N,Net-(FB2-Pad2)*%
X96250000Y-84450000D03*
%TD*%
D53*
%TO.N,0V*%
X83750000Y-56875000D03*
D54*
X101750000Y-44500000D03*
X104125000Y-48250000D03*
X90250000Y-29250000D03*
X102500000Y-84250000D03*
X93439340Y-74810660D03*
X96000000Y-48000000D03*
X117200000Y-62800000D03*
X102500000Y-71500000D03*
X111500000Y-60750000D03*
X87080900Y-60250000D03*
X111750000Y-62500000D03*
X101625000Y-65250000D03*
X104500000Y-71500000D03*
D55*
X94000000Y-81750000D03*
D54*
X109400000Y-68400000D03*
X122352000Y-34981000D03*
X113000000Y-36000000D03*
X123600000Y-48800000D03*
X106750000Y-30250000D03*
X83330900Y-60250000D03*
X81750000Y-55500000D03*
X103400000Y-75800000D03*
X117200000Y-61800000D03*
X113500000Y-64250000D03*
X110400000Y-70200000D03*
X82000000Y-58500000D03*
X123500000Y-51400000D03*
X96250000Y-71915450D03*
X110400000Y-69200000D03*
X111500000Y-55000000D03*
X87080900Y-58750000D03*
X121500000Y-36000000D03*
X97250000Y-65250000D03*
X132250000Y-47500000D03*
X111500000Y-58500000D03*
X96500000Y-66000000D03*
X104200000Y-75200000D03*
X101800000Y-76000000D03*
X119500000Y-58000000D03*
X99800000Y-47170840D03*
X92025127Y-73396446D03*
X117200000Y-60800000D03*
X109400000Y-67200000D03*
D53*
X88000000Y-57250000D03*
D54*
X97750000Y-71500000D03*
%TO.N,+3.3V*%
X101625000Y-47375000D03*
X95500000Y-53750000D03*
X94500000Y-44500000D03*
X110000000Y-57500000D03*
X103000000Y-82800000D03*
X105054003Y-62336200D03*
X132250000Y-49250000D03*
X98000000Y-66000000D03*
X106000000Y-65346000D03*
X104200000Y-82800000D03*
X101750000Y-54000000D03*
X121590000Y-28885000D03*
X106985000Y-46030000D03*
X106400000Y-76800000D03*
X104500000Y-66500000D03*
X94285000Y-60635000D03*
X106000000Y-81400000D03*
X103000000Y-65750000D03*
X110500000Y-53875000D03*
%TO.N,Net-(J12-MOSI)*%
X101650000Y-45600000D03*
X98800000Y-44800000D03*
%TO.N,Net-(J12-MISO)*%
X102750000Y-44750000D03*
X97800000Y-44800000D03*
%TO.N,/RSTB*%
X107250000Y-51529000D03*
X101500000Y-55500000D03*
%TO.N,+5V*%
X117400000Y-91000000D03*
X90600000Y-92600000D03*
X117400000Y-92600000D03*
X91600000Y-92600000D03*
X92600000Y-92600000D03*
X116600000Y-91800000D03*
D55*
%TO.N,Net-(J1-CC1)*%
X94000000Y-85500000D03*
D54*
%TO.N,/MCLK*%
X82000000Y-50250000D03*
X89000000Y-50250000D03*
%TO.N,/A_DAT*%
X75108000Y-61270000D03*
X75720500Y-63279500D03*
%TO.N,/A_DAT1*%
X77000000Y-63302000D03*
X76512500Y-61262500D03*
%TO.N,/CANTX*%
X80250000Y-40250000D03*
X76250000Y-40250000D03*
%TO.N,/TXD*%
X77000000Y-41000000D03*
X82000000Y-41000000D03*
%TO.N,/CANRX*%
X76250000Y-41750000D03*
X80250000Y-41750000D03*
%TO.N,/RXD*%
X82000000Y-42500000D03*
X77000000Y-42500000D03*
%TO.N,VBUS*%
X99500000Y-66000000D03*
X98500000Y-76500000D03*
%TO.N,/ROW1*%
X118862448Y-63662448D03*
X105500000Y-60625000D03*
%TO.N,/COL4*%
X122904000Y-60500000D03*
X122875000Y-64125000D03*
%TO.N,Net-(U1UNUSED-P5_3)*%
X107800000Y-66800000D03*
%TO.N,/DC*%
X104028999Y-63599263D03*
D53*
X102750000Y-55500000D03*
D54*
X105000000Y-64625000D03*
D53*
X113250000Y-57000000D03*
D54*
%TO.N,/RST*%
X105750000Y-63875000D03*
D53*
X103500000Y-54750000D03*
X114250000Y-56250000D03*
D54*
X104149200Y-62250000D03*
D53*
%TO.N,/CS*%
X112625000Y-55875000D03*
X104250000Y-55500000D03*
%TO.N,/BL*%
X113625000Y-55125000D03*
X105000000Y-54750000D03*
D54*
%TO.N,/ROW2*%
X105375000Y-59500000D03*
X117000000Y-71000000D03*
X115250000Y-64250000D03*
X119200000Y-74000000D03*
%TO.N,/ROW3*%
X119000000Y-62600000D03*
X105375000Y-57750000D03*
%TO.N,/ROW4*%
X124500000Y-74000000D03*
X124500000Y-65750000D03*
%TO.N,/COL1*%
X106250000Y-57250000D03*
X117200000Y-65000000D03*
D53*
%TO.N,/MOSI*%
X113141127Y-51492275D03*
X98625000Y-53625000D03*
%TO.N,/SCK*%
X97750000Y-54000000D03*
X111625000Y-52000000D03*
%TO.N,/MISO*%
X112125000Y-53000000D03*
X96750000Y-53625000D03*
%TD*%
%TO.N,Net-(U1USB/DEBUG-EXTAL{slash}P1_31)*%
D56*
X84942965Y-58500000D02*
X85893934Y-57549031D01*
X84173100Y-58500000D02*
X84942965Y-58500000D01*
X90250000Y-59000000D02*
X92250000Y-59000000D01*
X86344903Y-58000000D02*
X89250000Y-58000000D01*
X89250000Y-58000000D02*
X90250000Y-59000000D01*
X85893934Y-57549031D02*
X86344903Y-58000000D01*
%TO.N,0V*%
D57*
X105884500Y-33067000D02*
X105884500Y-41891000D01*
D56*
X87405097Y-57250000D02*
X88000000Y-57250000D01*
X84250000Y-56375000D02*
X83750000Y-56875000D01*
D57*
X102500000Y-66400586D02*
X101625000Y-65525586D01*
X90750000Y-29750000D02*
X90250000Y-29250000D01*
X122050000Y-51000000D02*
X123100000Y-51000000D01*
X106250000Y-29750000D02*
X106750000Y-30250000D01*
X97750000Y-70669100D02*
X97750000Y-71500000D01*
X122050000Y-48000000D02*
X122800000Y-48000000D01*
X108200000Y-85000000D02*
X109250000Y-83950000D01*
X102450000Y-84300000D02*
X102500000Y-84250000D01*
X110919100Y-62500000D02*
X111750000Y-62500000D01*
D56*
X85200969Y-56856066D02*
X84719903Y-56375000D01*
D57*
X92609833Y-72811740D02*
X92025127Y-73396446D01*
X105884500Y-41891000D02*
X106397500Y-42404000D01*
X101625000Y-65525586D02*
X101625000Y-65250000D01*
X101356000Y-44106000D02*
X101750000Y-44500000D01*
X96000000Y-48830900D02*
X96000000Y-48000000D01*
X105556000Y-32738500D02*
X105884500Y-33067000D01*
X104500000Y-70669100D02*
X104500000Y-71500000D01*
X122800000Y-48000000D02*
X123600000Y-48800000D01*
X97000000Y-66750000D02*
X96750000Y-66500000D01*
X101356000Y-42927000D02*
X101356000Y-44106000D01*
X96250000Y-71084550D02*
X96250000Y-71915450D01*
D56*
X86799031Y-56643934D02*
X87405097Y-57250000D01*
D57*
X113000000Y-37300000D02*
X113000000Y-36000000D01*
X102500000Y-67750000D02*
X102500000Y-66400586D01*
X97500000Y-66500000D02*
X97250000Y-66250000D01*
X103546348Y-48828652D02*
X104125000Y-48250000D01*
X110669100Y-60750000D02*
X111500000Y-60750000D01*
X90843000Y-41462000D02*
X91840500Y-42459500D01*
X120000000Y-37300000D02*
X120000000Y-36500000D01*
X96750000Y-66500000D02*
X96750000Y-66250000D01*
D56*
X123019046Y-34313954D02*
X122352000Y-34981000D01*
D57*
X112200000Y-64250000D02*
X113500000Y-64250000D01*
X92056000Y-29750000D02*
X90750000Y-29750000D01*
X118673100Y-58000000D02*
X119500000Y-58000000D01*
X110669100Y-55000000D02*
X111500000Y-55000000D01*
X131173100Y-47500000D02*
X132250000Y-47500000D01*
X96750000Y-66250000D02*
X96500000Y-66000000D01*
X105673100Y-85000000D02*
X108200000Y-85000000D01*
X97250000Y-66250000D02*
X97250000Y-65250000D01*
X94000000Y-82826900D02*
X94000000Y-81750000D01*
X120500000Y-36000000D02*
X121500000Y-36000000D01*
X82576900Y-55500000D02*
X81750000Y-55500000D01*
X102500000Y-70669100D02*
X102500000Y-71500000D01*
D56*
X84719903Y-56375000D02*
X84250000Y-56375000D01*
D57*
X92056000Y-31482000D02*
X90843000Y-32695000D01*
X92056000Y-29750000D02*
X92056000Y-31482000D01*
X97500000Y-67750000D02*
X97500000Y-66500000D01*
D56*
X123024046Y-34313954D02*
X123019046Y-34313954D01*
D57*
X92056000Y-27958000D02*
X92056000Y-29750000D01*
X97000000Y-67750000D02*
X97000000Y-66750000D01*
X105556000Y-29750000D02*
X106250000Y-29750000D01*
X94024047Y-74225953D02*
X93439340Y-74810660D01*
X107750000Y-65500000D02*
X108700000Y-65500000D01*
X101350000Y-84300000D02*
X102450000Y-84300000D01*
D56*
X99800000Y-46400000D02*
X99800000Y-47170840D01*
D57*
X105556000Y-27958000D02*
X105556000Y-29750000D01*
X87911800Y-58750000D02*
X87080900Y-58750000D01*
X84157800Y-60250000D02*
X83330900Y-60250000D01*
X108700000Y-65500000D02*
X109000000Y-65800000D01*
X110669100Y-58500000D02*
X111500000Y-58500000D01*
X109000000Y-65800000D02*
X109000000Y-66600000D01*
X82826900Y-58500000D02*
X82000000Y-58500000D01*
X123100000Y-51000000D02*
X123500000Y-51400000D01*
X120000000Y-36500000D02*
X120500000Y-36000000D01*
X90843000Y-32695000D02*
X90843000Y-41462000D01*
X87911800Y-60250000D02*
X87080900Y-60250000D01*
X105556000Y-29750000D02*
X105556000Y-32738500D01*
%TO.N,+3.3V*%
X109250000Y-60750000D02*
X109250000Y-61596800D01*
X98000000Y-67750000D02*
X98000000Y-66000000D01*
D56*
X99156000Y-43956000D02*
X99800000Y-44600000D01*
D57*
X97750000Y-69830900D02*
X97750000Y-69250000D01*
X102500000Y-53250000D02*
X101750000Y-54000000D01*
X97250000Y-69250000D02*
X97000000Y-69500000D01*
X89346000Y-59596000D02*
X89750000Y-60000000D01*
X109250000Y-55000000D02*
X109250000Y-54625000D01*
X97750000Y-69250000D02*
X97250000Y-69250000D01*
X103000000Y-67750000D02*
X103000000Y-65750000D01*
X95560661Y-72689339D02*
X95030331Y-72159009D01*
X109830900Y-58500000D02*
X109830900Y-58955900D01*
X104500000Y-67750000D02*
X104500000Y-66500000D01*
D56*
X121336000Y-28123000D02*
X121590000Y-28377000D01*
D57*
X102500000Y-69250000D02*
X103000000Y-68750000D01*
D56*
X102274046Y-46725954D02*
X101625000Y-47375000D01*
D57*
X95030331Y-72159009D02*
X91848350Y-75340990D01*
X109250000Y-54625000D02*
X110000000Y-53875000D01*
X110029000Y-59154000D02*
X112221000Y-59154000D01*
X96560661Y-72689339D02*
X95560661Y-72689339D01*
X95000000Y-41500000D02*
X94500000Y-42000000D01*
X92250000Y-60000000D02*
X93650000Y-60000000D01*
X97000000Y-72250000D02*
X96560661Y-72689339D01*
X106846000Y-64500000D02*
X106000000Y-65346000D01*
X109830900Y-58500000D02*
X109000000Y-58500000D01*
X109000000Y-58500000D02*
X109000000Y-58000000D01*
X109830900Y-60750000D02*
X109250000Y-60750000D01*
X109830900Y-58955900D02*
X110029000Y-59154000D01*
X94500000Y-42000000D02*
X94500000Y-44500000D01*
X115835632Y-58000000D02*
X117326900Y-58000000D01*
D56*
X120739100Y-29774000D02*
X121336000Y-29774000D01*
D57*
X99156000Y-41656000D02*
X99000000Y-41500000D01*
D56*
X126548000Y-30790000D02*
X126670000Y-30790000D01*
D57*
X102500000Y-49875000D02*
X102953652Y-49421348D01*
X109830900Y-55000000D02*
X109250000Y-55000000D01*
X107750000Y-62000000D02*
X108846800Y-62000000D01*
D56*
X121590000Y-29520000D02*
X121590000Y-28885000D01*
D57*
X109500000Y-57500000D02*
X110000000Y-57500000D01*
X103000000Y-68750000D02*
X103000000Y-67750000D01*
D56*
X121590000Y-28377000D02*
X121590000Y-28885000D01*
D57*
X131173100Y-49250000D02*
X132250000Y-49250000D01*
X85504000Y-60250000D02*
X86156004Y-60250000D01*
X106265421Y-62000000D02*
X105929221Y-62336200D01*
X109000000Y-58000000D02*
X109500000Y-57500000D01*
X98000000Y-67750000D02*
X98000000Y-69000000D01*
X106063954Y-46443046D02*
X106190954Y-46443046D01*
X99000000Y-41500000D02*
X95000000Y-41500000D01*
X112221000Y-59154000D02*
X112563799Y-58811201D01*
X110000000Y-53875000D02*
X110500000Y-53875000D01*
X112563799Y-58811201D02*
X115024432Y-58811200D01*
X93650000Y-60000000D02*
X94285000Y-60635000D01*
X102500000Y-69830900D02*
X102500000Y-69250000D01*
X89750000Y-60000000D02*
X92250000Y-60000000D01*
X88750000Y-60250000D02*
X89500000Y-60250000D01*
X107750000Y-64500000D02*
X106846000Y-64500000D01*
X105929221Y-62336200D02*
X105054003Y-62336200D01*
X104500000Y-67750000D02*
X104500000Y-69830900D01*
X102500000Y-52250000D02*
X102500000Y-53250000D01*
X91848350Y-75340990D02*
X92378680Y-75871320D01*
D56*
X121336000Y-29774000D02*
X121590000Y-29520000D01*
D57*
X89500000Y-60250000D02*
X89750000Y-60000000D01*
D56*
X99800000Y-44600000D02*
X99800000Y-45053800D01*
D57*
X86156004Y-60250000D02*
X86810004Y-59596000D01*
X97000000Y-69500000D02*
X97000000Y-72250000D01*
X107750000Y-62000000D02*
X106265421Y-62000000D01*
X96000000Y-52250000D02*
X96000000Y-53250000D01*
X109000000Y-58500000D02*
X107750000Y-58500000D01*
X109320211Y-64250000D02*
X110300000Y-64250000D01*
X102500000Y-52250000D02*
X102500000Y-49875000D01*
D56*
X99156000Y-42927000D02*
X99156000Y-43956000D01*
D57*
X94975954Y-73274046D02*
X95560661Y-72689339D01*
X109250000Y-55000000D02*
X107750000Y-55000000D01*
X96000000Y-49669100D02*
X96000000Y-52250000D01*
D56*
X120739100Y-28123000D02*
X121336000Y-28123000D01*
D57*
X109070210Y-64500000D02*
X109320211Y-64250000D01*
X86810004Y-59596000D02*
X89346000Y-59596000D01*
X99156000Y-42927000D02*
X99156000Y-41656000D01*
X96000000Y-53250000D02*
X95500000Y-53750000D01*
X107750000Y-64500000D02*
X109070210Y-64500000D01*
X115024432Y-58811200D02*
X115835632Y-58000000D01*
X106444954Y-46570046D02*
X106985000Y-46030000D01*
X109250000Y-61596800D02*
X108846800Y-62000000D01*
X98000000Y-69000000D02*
X97750000Y-69250000D01*
D56*
X123975954Y-33362046D02*
X126548000Y-30790000D01*
%TO.N,Net-(J12-\u002ACS)*%
X97998000Y-50082084D02*
X97998000Y-48252000D01*
X98250000Y-48000000D02*
X98250000Y-46250000D01*
D57*
X98250000Y-46250000D02*
X96956000Y-44956000D01*
D56*
X98500000Y-50584085D02*
X97998000Y-50082084D01*
X98500000Y-52250000D02*
X98500000Y-50584085D01*
X97998000Y-48252000D02*
X98250000Y-48000000D01*
D57*
X96956000Y-44956000D02*
X96956000Y-42927000D01*
%TO.N,Net-(J12-MOSI)*%
D56*
X99200000Y-48918629D02*
X99200000Y-49581371D01*
X99668629Y-48450000D02*
X99200000Y-48918629D01*
X98800000Y-44800000D02*
X98056000Y-44056000D01*
X100250000Y-48450000D02*
X99668629Y-48450000D01*
X98056000Y-44056000D02*
X98056000Y-42927000D01*
X100000000Y-50381371D02*
X100000000Y-52250000D01*
X100906400Y-46343600D02*
X100906400Y-47793600D01*
X101650000Y-45600000D02*
X100906400Y-46343600D01*
X99200000Y-49581371D02*
X100000000Y-50381371D01*
X100906400Y-47793600D02*
X100250000Y-48450000D01*
%TO.N,Net-(J12-SCLK)*%
X100800000Y-45200000D02*
X100800000Y-44400000D01*
X100070233Y-47823240D02*
X100506400Y-47387073D01*
X99726875Y-47823240D02*
X100070233Y-47823240D01*
X100506400Y-45493600D02*
X100800000Y-45200000D01*
X99500000Y-50447057D02*
X98800000Y-49747056D01*
X98800000Y-49747056D02*
X98800000Y-48750115D01*
X100256000Y-43856000D02*
X100256000Y-42927000D01*
X98800000Y-48750115D02*
X99726875Y-47823240D01*
X99500000Y-52250000D02*
X99500000Y-50447057D01*
X100506400Y-47387073D02*
X100506400Y-45493600D01*
X100800000Y-44400000D02*
X100256000Y-43856000D01*
%TO.N,Net-(J12-MISO)*%
X103750000Y-45000000D02*
X103750000Y-45250000D01*
X98750000Y-48234429D02*
X98750000Y-45750000D01*
X98398000Y-49916399D02*
X98398000Y-48586429D01*
X103500000Y-44750000D02*
X103750000Y-45000000D01*
X103750000Y-45250000D02*
X103225954Y-45774046D01*
D57*
X102456000Y-44456000D02*
X102750000Y-44750000D01*
X98750000Y-45750000D02*
X97800000Y-44800000D01*
D56*
X98398000Y-48586429D02*
X98750000Y-48234429D01*
X102750000Y-44750000D02*
X103500000Y-44750000D01*
X99000000Y-52250000D02*
X99000000Y-50518399D01*
D57*
X102456000Y-42927000D02*
X102456000Y-44456000D01*
D56*
X99000000Y-50518399D02*
X98398000Y-49916399D01*
%TO.N,/RSTB*%
D57*
X117405841Y-45750000D02*
X119939000Y-45750000D01*
X129826900Y-47500000D02*
X128502000Y-47500000D01*
X107250000Y-51250000D02*
X107540400Y-50959600D01*
X128502000Y-47500000D02*
X128448000Y-47554000D01*
X111251033Y-48459600D02*
X114696241Y-48459600D01*
X108751032Y-50959600D02*
X111251033Y-48459600D01*
X100667011Y-55653200D02*
X96097592Y-55653200D01*
X128448000Y-47554000D02*
X128448000Y-45750000D01*
X129826900Y-49250000D02*
X129128000Y-49250000D01*
X119939000Y-45750000D02*
X120000000Y-45750000D01*
X96097592Y-55653200D02*
X93750792Y-58000000D01*
X107250000Y-51529000D02*
X107250000Y-51250000D01*
X93750792Y-58000000D02*
X92250000Y-58000000D01*
X100820211Y-55500000D02*
X100667011Y-55653200D01*
X120000000Y-45750000D02*
X120000000Y-44700000D01*
X128321000Y-45750000D02*
X128448000Y-45750000D01*
X129128000Y-49250000D02*
X128448000Y-48570000D01*
X101500000Y-55500000D02*
X100820211Y-55500000D01*
X119939000Y-45750000D02*
X128321000Y-45750000D01*
X114696241Y-48459600D02*
X117405841Y-45750000D01*
X128448000Y-48570000D02*
X128448000Y-47554000D01*
X107540400Y-50959600D02*
X108751032Y-50959600D01*
X129210000Y-45268000D02*
X129210000Y-43490000D01*
X128321000Y-45750000D02*
X128728000Y-45750000D01*
X128728000Y-45750000D02*
X129210000Y-45268000D01*
%TO.N,Net-(D1-A)*%
X119950000Y-51000000D02*
X118173100Y-51000000D01*
%TO.N,+VIN*%
D58*
X112750000Y-81250000D02*
X112750000Y-85350000D01*
X112750000Y-85350000D02*
X113335000Y-85935000D01*
X113335000Y-85935000D02*
X113335000Y-89210000D01*
%TO.N,+5V*%
D59*
X115525000Y-77725000D02*
X115800000Y-78000000D01*
X115800000Y-78000000D02*
X115800000Y-79400000D01*
X116600000Y-89200000D02*
X116600000Y-90600000D01*
X91500000Y-91000000D02*
X91500000Y-92500000D01*
X116250000Y-79850000D02*
X116250000Y-81250000D01*
X116250000Y-81250000D02*
X116250000Y-88850000D01*
X116250000Y-88850000D02*
X116600000Y-89200000D01*
X115800000Y-79400000D02*
X116250000Y-79850000D01*
X115000000Y-77725000D02*
X115525000Y-77725000D01*
X91500000Y-92500000D02*
X91600000Y-92600000D01*
%TO.N,Net-(U1USB/DEBUG-XTAL{slash}P1_30)*%
D56*
X90315686Y-58500000D02*
X92250000Y-58500000D01*
X86106066Y-55950969D02*
X85655097Y-55500000D01*
X86106066Y-55950969D02*
X86557035Y-55500000D01*
X86557035Y-55500000D02*
X87315686Y-55500000D01*
X85655097Y-55500000D02*
X83923100Y-55500000D01*
X87315686Y-55500000D02*
X90315686Y-58500000D01*
%TO.N,Net-(D2-A)*%
D57*
X118750000Y-48250000D02*
X118750000Y-49250000D01*
X118750000Y-49250000D02*
X119000000Y-49500000D01*
X119950000Y-48000000D02*
X119000000Y-48000000D01*
X119000000Y-49500000D02*
X120326900Y-49500000D01*
X119000000Y-48000000D02*
X118750000Y-48250000D01*
%TO.N,Net-(U1PWR-VDD_CORE_1)*%
D60*
X106482947Y-62500000D02*
X107750000Y-62500000D01*
X104125000Y-64925000D02*
X104125000Y-64304063D01*
X113200000Y-71200000D02*
X109400000Y-71200000D01*
X108260261Y-69353973D02*
X108246026Y-69353973D01*
X108246026Y-69353973D02*
X107800000Y-68907948D01*
D57*
X114213800Y-59723400D02*
X118723400Y-59723400D01*
D60*
X95500000Y-61822634D02*
X97981429Y-64304063D01*
X105834800Y-62790200D02*
X106192747Y-62790200D01*
D57*
X109250000Y-62250000D02*
X109250000Y-62500000D01*
X110000000Y-61500000D02*
X109250000Y-62250000D01*
X114200000Y-59709600D02*
X114213800Y-59723400D01*
D60*
X104125000Y-64304063D02*
X104320937Y-64304063D01*
D57*
X114050000Y-59859600D02*
X114200000Y-59709600D01*
X89070210Y-58750000D02*
X89820210Y-59500000D01*
D60*
X113575000Y-70825000D02*
X113200000Y-71200000D01*
X107800000Y-67800000D02*
X106400000Y-66400000D01*
X97981429Y-64304063D02*
X104125000Y-64304063D01*
D57*
X118723400Y-59723400D02*
X120000000Y-61000000D01*
D60*
X109152400Y-70952400D02*
X109152400Y-70246112D01*
X104320937Y-64304063D02*
X105834800Y-62790200D01*
D57*
X89820210Y-59500000D02*
X92250000Y-59500000D01*
D60*
X92250000Y-59500000D02*
X94500000Y-59500000D01*
X106192747Y-62790200D02*
X106482947Y-62500000D01*
D57*
X109250000Y-62500000D02*
X110080900Y-62500000D01*
D60*
X113575000Y-69750000D02*
X113575000Y-70825000D01*
X106400000Y-66400000D02*
X105600000Y-66400000D01*
D57*
X107750000Y-62500000D02*
X109250000Y-62500000D01*
X88750000Y-58750000D02*
X89070210Y-58750000D01*
D60*
X94500000Y-59500000D02*
X95500000Y-60500000D01*
X107800000Y-68907948D02*
X107800000Y-67800000D01*
X109152400Y-70246112D02*
X108260261Y-69353973D01*
X109400000Y-71200000D02*
X109152400Y-70952400D01*
X95500000Y-60500000D02*
X95500000Y-61822634D01*
X105600000Y-66400000D02*
X104125000Y-64925000D01*
D57*
X114050000Y-60750000D02*
X114050000Y-59859600D01*
%TO.N,/SWD*%
X117612800Y-40402620D02*
X118050620Y-39964800D01*
X128470000Y-42220000D02*
X130480000Y-42220000D01*
X108584021Y-50556400D02*
X111084022Y-48056400D01*
X106693600Y-50556400D02*
X108584021Y-50556400D01*
X117612800Y-44972831D02*
X117612800Y-40402620D01*
X111084022Y-48056400D02*
X114529232Y-48056400D01*
X106000000Y-51250000D02*
X106693600Y-50556400D01*
X106000000Y-52250000D02*
X106000000Y-51250000D01*
X126214800Y-39964800D02*
X128470000Y-42220000D01*
X118050620Y-39964800D02*
X126214800Y-39964800D01*
X130480000Y-42220000D02*
X131750000Y-40950000D01*
X114529232Y-48056400D02*
X117612800Y-44972831D01*
%TO.N,/SWO*%
X114195211Y-47250000D02*
X116806400Y-44638811D01*
X117716600Y-39158400D02*
X126341600Y-39158400D01*
X105000000Y-51017830D02*
X106267830Y-49750000D01*
X116806400Y-44638811D02*
X116806400Y-40068599D01*
X129718000Y-40950000D02*
X129210000Y-40950000D01*
X105000000Y-52250000D02*
X105000000Y-51017830D01*
X116806400Y-40068599D02*
X117716600Y-39158400D01*
X132375000Y-37000000D02*
X133020000Y-37645000D01*
X108250000Y-49750000D02*
X110750001Y-47249999D01*
X106267830Y-49750000D02*
X108250000Y-49750000D01*
X130988000Y-39680000D02*
X129718000Y-40950000D01*
X128500000Y-37000000D02*
X132375000Y-37000000D01*
X133020000Y-39045000D02*
X132385000Y-39680000D01*
X132385000Y-39680000D02*
X130988000Y-39680000D01*
X126341600Y-39158400D02*
X128500000Y-37000000D01*
X110750001Y-47249999D02*
X114195211Y-47250000D01*
X133020000Y-37645000D02*
X133020000Y-39045000D01*
%TO.N,/SWC*%
X117209600Y-40235610D02*
X117883610Y-39561600D01*
X106434840Y-50153200D02*
X108417010Y-50153200D01*
X105500000Y-51088040D02*
X106434840Y-50153200D01*
X131369000Y-38410000D02*
X131750000Y-38410000D01*
X110917011Y-47653200D02*
X114362221Y-47653200D01*
X105500000Y-52250000D02*
X105500000Y-51088040D01*
X108417010Y-50153200D02*
X110917011Y-47653200D01*
X117209600Y-44805821D02*
X117209600Y-40235610D01*
X130217400Y-39561600D02*
X131369000Y-38410000D01*
X114362221Y-47653200D02*
X117209600Y-44805821D01*
X117883610Y-39561600D02*
X130217400Y-39561600D01*
%TO.N,Net-(FB2-Pad2)*%
D59*
X97400000Y-86400000D02*
X97800000Y-86800000D01*
X96250000Y-84450000D02*
X96250000Y-86050000D01*
X96600000Y-86400000D02*
X97400000Y-86400000D01*
X96250000Y-86050000D02*
X96600000Y-86400000D01*
D60*
X97875000Y-86875000D02*
X97875000Y-87725000D01*
X97800000Y-86800000D02*
X97875000Y-86875000D01*
%TO.N,Net-(J1-CC1)*%
D57*
X94000000Y-84173100D02*
X94000000Y-85500000D01*
%TO.N,/USB_D+*%
D61*
X99753000Y-84500000D02*
X99753000Y-86500000D01*
X101000000Y-69000000D02*
X101000000Y-73298378D01*
D57*
X99753000Y-85250000D02*
X98650000Y-85250000D01*
D61*
X101000000Y-73298378D02*
X99753000Y-74545378D01*
X99753000Y-74545378D02*
X99753000Y-84500000D01*
D62*
X99753000Y-86500000D02*
X99575000Y-86900000D01*
X99575000Y-87725000D02*
X99575000Y-86900000D01*
X101000000Y-67750000D02*
X101000000Y-69000000D01*
%TO.N,/USB_D-*%
X100247000Y-86500000D02*
X100425000Y-86900000D01*
D57*
X100247000Y-85250000D02*
X101350000Y-85250000D01*
D62*
X101500000Y-67750000D02*
X101500000Y-69000000D01*
D61*
X100247000Y-74750000D02*
X100247000Y-84500000D01*
X100247000Y-84500000D02*
X100247000Y-86500000D01*
X101500000Y-69000000D02*
X101500000Y-73497000D01*
D62*
X100425000Y-87725000D02*
X100425000Y-86900000D01*
D61*
X101500000Y-73497000D02*
X100247000Y-74750000D01*
D57*
X99575000Y-89075000D02*
X100425000Y-87725000D01*
%TO.N,Net-(J1-CC2)*%
X103600000Y-85000000D02*
X104326900Y-85000000D01*
X101275000Y-89075000D02*
X101275000Y-90025000D01*
X103400000Y-85200000D02*
X103600000Y-85000000D01*
X103800000Y-86200000D02*
X103400000Y-85800000D01*
X105250000Y-90500000D02*
X105500000Y-90250000D01*
X101750000Y-90500000D02*
X105250000Y-90500000D01*
X105500000Y-86700000D02*
X105000000Y-86200000D01*
X101275000Y-90025000D02*
X101750000Y-90500000D01*
X103400000Y-85800000D02*
X103400000Y-85200000D01*
X105000000Y-86200000D02*
X103800000Y-86200000D01*
X105500000Y-90250000D02*
X105500000Y-86700000D01*
%TO.N,Net-(U1UI-P3_6)*%
X116826900Y-51000000D02*
X114070211Y-51000000D01*
X114070211Y-51000000D02*
X113535105Y-50464895D01*
X113417011Y-50346800D02*
X111153200Y-50346800D01*
X108500000Y-53000000D02*
X106679790Y-53000000D01*
X106000000Y-53679790D02*
X106000000Y-54000000D01*
X106000000Y-54000000D02*
X106004800Y-54004800D01*
X106500000Y-55500000D02*
X107750000Y-55500000D01*
X106679790Y-53000000D02*
X106000000Y-53679790D01*
X106004800Y-55004800D02*
X106500000Y-55500000D01*
X113535105Y-50464895D02*
X113417011Y-50346800D01*
X106004800Y-54004800D02*
X106004800Y-55004800D01*
X111153200Y-50346800D02*
X108500000Y-53000000D01*
%TO.N,Net-(U1UI-P3_1)*%
X111429789Y-50750000D02*
X108679790Y-53500000D01*
X108679790Y-53500000D02*
X106750000Y-53500000D01*
X113250000Y-50750000D02*
X111429789Y-50750000D01*
X124500000Y-51750000D02*
X123806400Y-52443600D01*
X106750000Y-53500000D02*
X106500000Y-53750000D01*
X106750000Y-54500000D02*
X107750000Y-54500000D01*
X123806400Y-52443600D02*
X114130022Y-52443600D01*
X106500000Y-54250000D02*
X106750000Y-54500000D01*
X124500000Y-50000000D02*
X124500000Y-51750000D01*
X113843211Y-51343211D02*
X113250000Y-50750000D01*
X121673100Y-49500000D02*
X124000000Y-49500000D01*
X114130022Y-52443600D02*
X113843211Y-52156789D01*
X124000000Y-49500000D02*
X124500000Y-50000000D01*
X113843211Y-52156789D02*
X113843211Y-51343211D01*
X106500000Y-53750000D02*
X106500000Y-54250000D01*
%TO.N,Net-(U1USB/DEBUG-P5_1{slash}XTAL32K)*%
X105500000Y-68748400D02*
X106501600Y-69750000D01*
X108000000Y-69750000D02*
X108250000Y-70000000D01*
X105500000Y-67750000D02*
X105500000Y-68748400D01*
X108250000Y-71250000D02*
X108250000Y-70000000D01*
X106501600Y-69750000D02*
X108000000Y-69750000D01*
%TO.N,Net-(U1USB/DEBUG-P5_0{slash}EXTAL32K)*%
X105000000Y-69000000D02*
X105750000Y-69750000D01*
X105000000Y-67750000D02*
X105000000Y-69000000D01*
X105750000Y-69750000D02*
X105750000Y-71250000D01*
%TO.N,/A_BCLK*%
X76505000Y-55047000D02*
X72568000Y-51110000D01*
X76527200Y-56657990D02*
X76505000Y-56635789D01*
X90250000Y-60500000D02*
X89500000Y-61250000D01*
X76505000Y-56635789D02*
X76505000Y-55047000D01*
X92250000Y-60500000D02*
X90250000Y-60500000D01*
X78071210Y-61250000D02*
X76527200Y-59705990D01*
X72568000Y-51110000D02*
X70790000Y-51110000D01*
X89500000Y-61250000D02*
X78071210Y-61250000D01*
X76527200Y-59705990D02*
X76527200Y-56657990D01*
%TO.N,/MCLK*%
X66750000Y-64850000D02*
X66750000Y-55150000D01*
X105601600Y-54500809D02*
X105601600Y-55601600D01*
X105249191Y-54148400D02*
X105601600Y-54500809D01*
X70312991Y-49958400D02*
X69638400Y-50632991D01*
X90000000Y-50250000D02*
X95000000Y-55250000D01*
X95000000Y-55250000D02*
X100500000Y-55250000D01*
X81708400Y-49958400D02*
X70312991Y-49958400D01*
X66750000Y-55150000D02*
X68250000Y-53650000D01*
X69638400Y-50632991D02*
X69638400Y-51638400D01*
X68250000Y-66350000D02*
X66750000Y-64850000D01*
X101000000Y-54750000D02*
X102500000Y-54750000D01*
X103101600Y-54148400D02*
X105249191Y-54148400D01*
X69750000Y-51750000D02*
X69750000Y-52150000D01*
X100500000Y-55250000D02*
X101000000Y-54750000D01*
X102500000Y-54750000D02*
X103101600Y-54148400D01*
X105601600Y-55601600D02*
X106000000Y-56000000D01*
X82000000Y-50250000D02*
X81708400Y-49958400D01*
X69638400Y-51638400D02*
X69750000Y-51750000D01*
X106000000Y-56000000D02*
X107750000Y-56000000D01*
X69750000Y-52150000D02*
X68250000Y-53650000D01*
X89000000Y-50250000D02*
X90000000Y-50250000D01*
%TO.N,/A_LRCLK*%
X92250000Y-61000000D02*
X90320210Y-61000000D01*
X72949000Y-53650000D02*
X70790000Y-53650000D01*
X77904200Y-61653200D02*
X76124000Y-59873000D01*
X76124000Y-56825000D02*
X72949000Y-53650000D01*
X76124000Y-59873000D02*
X76124000Y-56825000D01*
X89667010Y-61653200D02*
X77904200Y-61653200D01*
X90320210Y-61000000D02*
X89667010Y-61653200D01*
%TO.N,/A_DAT*%
X75720500Y-63279500D02*
X76500000Y-62500000D01*
X90000000Y-62500000D02*
X90500000Y-62000000D01*
X75108000Y-61270000D02*
X74878000Y-61500000D01*
X69750000Y-61500000D02*
X69500000Y-61250000D01*
X69500000Y-61250000D02*
X69500000Y-57440000D01*
X69500000Y-57440000D02*
X68250000Y-56190000D01*
X76500000Y-62500000D02*
X90000000Y-62500000D01*
X90500000Y-62000000D02*
X92250000Y-62000000D01*
X74878000Y-61500000D02*
X69750000Y-61500000D01*
%TO.N,/A_DAT1*%
X90167010Y-62903200D02*
X90570210Y-62500000D01*
X76512500Y-61262500D02*
X75616000Y-60366000D01*
X75616000Y-56952000D02*
X74854000Y-56190000D01*
X75616000Y-60366000D02*
X75616000Y-56952000D01*
X77000000Y-63302000D02*
X77948000Y-63302000D01*
X90570210Y-62500000D02*
X92250000Y-62500000D01*
X77948000Y-63302000D02*
X78346800Y-62903200D01*
X74854000Y-56190000D02*
X70790000Y-56190000D01*
X78346800Y-62903200D02*
X90167010Y-62903200D01*
%TO.N,Net-(U1USB/DEBUG-NC_DP)*%
X103625000Y-72875000D02*
X103625000Y-69320210D01*
X104000000Y-68945210D02*
X104000000Y-67750000D01*
X104000000Y-73250000D02*
X103625000Y-72875000D01*
X103625000Y-69320210D02*
X104000000Y-68945210D01*
%TO.N,/B_DAT*%
X89834020Y-62056400D02*
X75443600Y-62056400D01*
X73690000Y-63810000D02*
X70790000Y-63810000D01*
X92250000Y-61500000D02*
X90390420Y-61500000D01*
X75443600Y-62056400D02*
X73690000Y-63810000D01*
X90390420Y-61500000D02*
X89834020Y-62056400D01*
%TO.N,/B_DAT1*%
X72390000Y-64750000D02*
X70790000Y-66350000D01*
X92250000Y-63000000D02*
X90640420Y-63000000D01*
X77750000Y-64750000D02*
X72390000Y-64750000D01*
X90640420Y-63000000D02*
X90334020Y-63306400D01*
X79193600Y-63306400D02*
X77750000Y-64750000D01*
X90334020Y-63306400D02*
X79193600Y-63306400D01*
%TO.N,/B_BCLK*%
X90750000Y-63500000D02*
X90500000Y-63750000D01*
X92250000Y-63500000D02*
X90750000Y-63500000D01*
X90500000Y-63750000D02*
X79320210Y-63750000D01*
X79320210Y-63750000D02*
X77917010Y-65153200D01*
X72686400Y-67501600D02*
X69638400Y-67501600D01*
X75034800Y-65153200D02*
X72686400Y-67501600D01*
X69638400Y-67501600D02*
X68250000Y-68890000D01*
X77917010Y-65153200D02*
X75034800Y-65153200D01*
%TO.N,/B_LRCLK*%
X71806000Y-68890000D02*
X70790000Y-68890000D01*
X75201810Y-65556400D02*
X72853410Y-67904800D01*
X79487220Y-64153200D02*
X78084020Y-65556400D01*
X72791200Y-67904800D02*
X71806000Y-68890000D01*
X78084020Y-65556400D02*
X75201810Y-65556400D01*
X90820211Y-64000000D02*
X90667010Y-64153200D01*
X90667010Y-64153200D02*
X79487220Y-64153200D01*
X72853410Y-67904800D02*
X72791200Y-67904800D01*
X92250000Y-64000000D02*
X90820211Y-64000000D01*
%TO.N,Net-(U1PWR-VDD_ANA)*%
X96242500Y-70238850D02*
X96250000Y-70246350D01*
X96500000Y-67750000D02*
X96500000Y-68750000D01*
X94676777Y-71805456D02*
X94146447Y-71275126D01*
X95921573Y-69500000D02*
X94146447Y-71275126D01*
X96250000Y-69500000D02*
X95921573Y-69500000D01*
X94146447Y-71275126D02*
X93561740Y-71859832D01*
X91494797Y-74987436D02*
X94676777Y-71805456D01*
X96250000Y-70246350D02*
X96250000Y-69500000D01*
X96000000Y-67750000D02*
X96000000Y-68750000D01*
X91035177Y-74527817D02*
X91494797Y-74987436D01*
X96250000Y-69000000D02*
X96250000Y-69500000D01*
X96000000Y-68750000D02*
X96250000Y-69000000D01*
X96500000Y-68750000D02*
X96250000Y-69000000D01*
%TO.N,/P4_12*%
X85236190Y-86443600D02*
X97137200Y-74542590D01*
X97137200Y-73581960D02*
X98500000Y-72219159D01*
X79556400Y-86443600D02*
X85236190Y-86443600D01*
X78410000Y-89210000D02*
X78410000Y-87590000D01*
X97137200Y-74542590D02*
X97137200Y-73581960D01*
X98500000Y-72219159D02*
X98500000Y-67750000D01*
X78410000Y-87590000D02*
X79556400Y-86443600D01*
%TO.N,/P4_15*%
X82250000Y-87750000D02*
X82750000Y-87250000D01*
X85609579Y-87250000D02*
X93415978Y-79443600D01*
X97943600Y-73915980D02*
X99500000Y-72359580D01*
X82250000Y-90450000D02*
X82250000Y-87750000D01*
X97943600Y-74915979D02*
X97943600Y-73915980D01*
X99500000Y-72359580D02*
X99500000Y-67750000D01*
X93415978Y-79443600D02*
X97943600Y-74915979D01*
X82750000Y-87250000D02*
X85609579Y-87250000D01*
X80950000Y-91750000D02*
X82250000Y-90450000D01*
%TO.N,/P4_13*%
X97540400Y-73748970D02*
X99000000Y-72289370D01*
X85403201Y-86846800D02*
X97540400Y-74709600D01*
X99000000Y-72289370D02*
X99000000Y-67750000D01*
X80950000Y-89210000D02*
X80950000Y-87925000D01*
X97540400Y-74709600D02*
X97540400Y-73748970D01*
X82028200Y-86846800D02*
X85403201Y-86846800D01*
X80950000Y-87925000D02*
X82028200Y-86846800D01*
%TO.N,/P4_17*%
X86000000Y-91000000D02*
X85250000Y-91750000D01*
X100500000Y-67750000D02*
X100500000Y-72500000D01*
X85250000Y-91750000D02*
X83490000Y-91750000D01*
X86000000Y-88000000D02*
X86000000Y-91000000D01*
X98750000Y-75249999D02*
X86000000Y-88000000D01*
X98750000Y-74250000D02*
X98750000Y-75249999D01*
X100500000Y-72500000D02*
X98750000Y-74250000D01*
%TO.N,/P4_16*%
X98346800Y-75082989D02*
X98346800Y-74082990D01*
X83490000Y-89210000D02*
X85386800Y-89210000D01*
X85596800Y-87832990D02*
X98346800Y-75082989D01*
X85596800Y-89000000D02*
X85596800Y-87832990D01*
X100000000Y-72429790D02*
X100000000Y-67750000D01*
X98346800Y-74082990D02*
X100000000Y-72429790D01*
X85386800Y-89210000D02*
X85596800Y-89000000D01*
%TO.N,/CANTX*%
X80904000Y-42020896D02*
X80904000Y-41404000D01*
X74000000Y-40250000D02*
X72160000Y-38410000D01*
X76250000Y-40250000D02*
X74000000Y-40250000D01*
X91094264Y-55000000D02*
X80672132Y-44577868D01*
X92250000Y-55000000D02*
X91094264Y-55000000D01*
X80672132Y-42252764D02*
X80904000Y-42020896D01*
X80250000Y-40750000D02*
X80250000Y-40250000D01*
X80904000Y-41404000D02*
X80250000Y-40750000D01*
X72160000Y-38410000D02*
X70790000Y-38410000D01*
X80672132Y-44577868D02*
X80672132Y-42252764D01*
%TO.N,/TXD*%
X82000000Y-41500000D02*
X82000000Y-41000000D01*
X81307200Y-44557200D02*
X91250000Y-54500000D01*
X69401600Y-39798400D02*
X68250000Y-40950000D01*
X73750000Y-41000000D02*
X72548400Y-39798400D01*
X77000000Y-41000000D02*
X73750000Y-41000000D01*
X81307200Y-44557200D02*
X81307200Y-42192800D01*
X81307200Y-42192800D02*
X82000000Y-41500000D01*
X91250000Y-54500000D02*
X92250000Y-54500000D01*
X72548400Y-39798400D02*
X69401600Y-39798400D01*
%TO.N,/CANRX*%
X91024054Y-55500000D02*
X92250000Y-55500000D01*
X80250000Y-44725946D02*
X80250000Y-41750000D01*
X76250000Y-41750000D02*
X73500000Y-41750000D01*
X80250000Y-44725946D02*
X91024054Y-55500000D01*
X73500000Y-41750000D02*
X72700000Y-40950000D01*
X72700000Y-40950000D02*
X70790000Y-40950000D01*
%TO.N,/RXD*%
X81961200Y-44640990D02*
X81961200Y-42538800D01*
X81961200Y-44640990D02*
X91320210Y-54000000D01*
X73000000Y-42250000D02*
X69490000Y-42250000D01*
X77000000Y-42500000D02*
X73250000Y-42500000D01*
X69490000Y-42250000D02*
X68250000Y-43490000D01*
X81961200Y-42538800D02*
X82000000Y-42500000D01*
X73250000Y-42500000D02*
X73000000Y-42250000D01*
X91320210Y-54000000D02*
X92250000Y-54000000D01*
%TO.N,Net-(U1UNUSED-P0_19)*%
D56*
X100000000Y-49250000D02*
X100500000Y-49750000D01*
X100500000Y-49750000D02*
X100500000Y-52250000D01*
%TO.N,VBUS*%
D59*
X96250000Y-82550000D02*
X96250000Y-81650000D01*
X97400000Y-81800000D02*
X97200000Y-81600000D01*
X96250000Y-81650000D02*
X96200000Y-81600000D01*
X91800000Y-86400000D02*
X94800000Y-86400000D01*
D57*
X102000000Y-66796800D02*
X102000000Y-67750000D01*
X95000000Y-79570209D02*
X98070209Y-76500000D01*
D59*
X98650000Y-84300000D02*
X97700000Y-84300000D01*
X97200000Y-81600000D02*
X96200000Y-81600000D01*
X96200000Y-81600000D02*
X95150000Y-81600000D01*
D57*
X95000000Y-81750000D02*
X95000000Y-79570209D01*
X98070209Y-76500000D02*
X98500000Y-76500000D01*
D59*
X91500000Y-86700000D02*
X91800000Y-86400000D01*
X94800000Y-86400000D02*
X95000000Y-86200000D01*
D57*
X99500000Y-66000000D02*
X101203200Y-66000000D01*
D59*
X97700000Y-84300000D02*
X97400000Y-84000000D01*
X97400000Y-84000000D02*
X97400000Y-81800000D01*
X95000000Y-86200000D02*
X95000000Y-81750000D01*
X95150000Y-81600000D02*
X95000000Y-81750000D01*
D57*
X101203200Y-66000000D02*
X102000000Y-66796800D01*
D59*
X91500000Y-87500000D02*
X91500000Y-86700000D01*
%TO.N,/ROW1*%
D57*
X127750000Y-77590000D02*
X129210000Y-79050000D01*
X126670000Y-91304211D02*
X126647800Y-91282010D01*
X123125000Y-68375000D02*
X125500000Y-70750000D01*
X127750000Y-72000000D02*
X127750000Y-77590000D01*
X126500000Y-70750000D02*
X127750000Y-72000000D01*
X107750000Y-60500000D02*
X105625000Y-60500000D01*
X118862448Y-63662448D02*
X118737552Y-63662448D01*
X105625000Y-60500000D02*
X105500000Y-60625000D01*
X126647800Y-89504010D02*
X126075190Y-88931400D01*
X120200000Y-88931400D02*
X119150000Y-89981400D01*
X126075190Y-88931400D02*
X120200000Y-88931400D01*
X118000000Y-65250000D02*
X117750000Y-65500000D01*
X127940000Y-93020000D02*
X126670000Y-91750000D01*
X126647800Y-91282010D02*
X126647800Y-89504010D01*
X131750000Y-91750000D02*
X130480000Y-93020000D01*
X125500000Y-70750000D02*
X126500000Y-70750000D01*
X119375000Y-68375000D02*
X123125000Y-68375000D01*
X117750000Y-66750000D02*
X119375000Y-68375000D01*
X118000000Y-64400000D02*
X118000000Y-65250000D01*
X130480000Y-93020000D02*
X127940000Y-93020000D01*
X126670000Y-91750000D02*
X126670000Y-91304211D01*
X119150000Y-89981400D02*
X119150000Y-92100000D01*
X118737552Y-63662448D02*
X118000000Y-64400000D01*
X117750000Y-65500000D02*
X117750000Y-66750000D01*
%TO.N,/COL4*%
X123753000Y-68128000D02*
X122850000Y-67225000D01*
X122850000Y-82100000D02*
X122850000Y-85900000D01*
X122850000Y-67225000D02*
X122850000Y-65900000D01*
X108750000Y-56500000D02*
X107750000Y-56500000D01*
X122850000Y-57975000D02*
X121089400Y-56214400D01*
X111500000Y-55750000D02*
X109500000Y-55750000D01*
X109500000Y-55750000D02*
X108750000Y-56500000D01*
X114523400Y-57601600D02*
X113000809Y-57601600D01*
X122850000Y-72100000D02*
X122850000Y-75900000D01*
X122875000Y-65875000D02*
X122850000Y-65900000D01*
X122904000Y-60500000D02*
X122850000Y-60446000D01*
X122875000Y-64125000D02*
X122875000Y-65875000D01*
X131750000Y-71238210D02*
X130414990Y-69903200D01*
X112500000Y-56750000D02*
X111500000Y-55750000D01*
X130414990Y-69903200D02*
X126707989Y-69903200D01*
X126707989Y-69903200D02*
X124932789Y-68128000D01*
X124932789Y-68128000D02*
X123753000Y-68128000D01*
X113000809Y-57601600D02*
X112500000Y-57100791D01*
X115910600Y-56214400D02*
X114523400Y-57601600D01*
X131750000Y-73970000D02*
X131750000Y-71238210D01*
X122850000Y-60446000D02*
X122850000Y-57975000D01*
X112500000Y-57100791D02*
X112500000Y-56750000D01*
X121089400Y-56214400D02*
X115910600Y-56214400D01*
%TO.N,Net-(U1PWR-VDD_SYS)*%
D63*
X112302000Y-63198000D02*
X112750000Y-62750000D01*
D57*
X109250000Y-63500000D02*
X109526600Y-63223400D01*
X109250000Y-63750000D02*
X109250000Y-63500000D01*
D63*
X109526600Y-63223400D02*
X109552000Y-63198000D01*
D57*
X107750000Y-64000000D02*
X109000000Y-64000000D01*
D59*
X112750000Y-62750000D02*
X114050000Y-62750000D01*
D63*
X109552000Y-63198000D02*
X112302000Y-63198000D01*
D57*
X109000000Y-64000000D02*
X109250000Y-63750000D01*
%TO.N,Net-(U1UNUSED-P0_3)*%
X104500000Y-52250000D02*
X104500000Y-50947620D01*
X104500000Y-50947620D02*
X106697620Y-48750000D01*
X107750000Y-48750000D02*
X108375000Y-48125000D01*
X106697620Y-48750000D02*
X107750000Y-48750000D01*
%TO.N,Net-(U1USB/DEBUG-NC_DM)*%
X103500000Y-67750000D02*
X103500000Y-68875000D01*
X103154000Y-69221000D02*
X103154000Y-71846000D01*
X103500000Y-68875000D02*
X103154000Y-69221000D01*
X103154000Y-71846000D02*
X102375000Y-72625000D01*
X102375000Y-72625000D02*
X102375000Y-74625000D01*
%TO.N,/SDA*%
D56*
X112700000Y-29520000D02*
X113970000Y-28250000D01*
X102000000Y-49323312D02*
X106345713Y-44977600D01*
X118149000Y-29774000D02*
X119392900Y-29774000D01*
X115360000Y-29640000D02*
X118015000Y-29640000D01*
X113970000Y-28250000D02*
X115360000Y-29640000D01*
X102000000Y-52250000D02*
X102000000Y-49323312D01*
X109906000Y-29520000D02*
X112700000Y-29520000D01*
X107587086Y-44977600D02*
X109175000Y-43389685D01*
X118015000Y-29640000D02*
X118149000Y-29774000D01*
X106345713Y-44977600D02*
X107587086Y-44977600D01*
X109175000Y-43389685D02*
X109175000Y-30251000D01*
X109175000Y-30251000D02*
X109906000Y-29520000D01*
%TO.N,/SCL*%
X101500000Y-49257626D02*
X106180028Y-44577600D01*
X108775000Y-28667948D02*
X109192948Y-28250000D01*
X112680000Y-27000000D02*
X118000000Y-27000000D01*
X118542000Y-28123000D02*
X119392900Y-28123000D01*
X108775000Y-43224000D02*
X108775000Y-28667948D01*
X109192948Y-28250000D02*
X111430000Y-28250000D01*
X118000000Y-27000000D02*
X118000000Y-27581000D01*
X106180028Y-44577600D02*
X107421400Y-44577600D01*
X107421400Y-44577600D02*
X108775000Y-43224000D01*
X118000000Y-27581000D02*
X118542000Y-28123000D01*
X111430000Y-28250000D02*
X112680000Y-27000000D01*
X101500000Y-52250000D02*
X101500000Y-49257626D01*
%TO.N,Net-(U1USB/DEBUG-BOOTLOAD{slash}P0_6)*%
X104625000Y-47607000D02*
X104625000Y-47263999D01*
X111617000Y-44700000D02*
X113000000Y-44700000D01*
X104953000Y-48547000D02*
X104953000Y-47935000D01*
X105366046Y-47521954D02*
X104953000Y-47935000D01*
X110922000Y-45395000D02*
X111617000Y-44700000D01*
X104751000Y-48749000D02*
X104953000Y-48547000D01*
X107348600Y-45377600D02*
X107366000Y-45395000D01*
X107366000Y-45395000D02*
X110922000Y-45395000D01*
D57*
X103750000Y-49750000D02*
X104751000Y-48749000D01*
X103000000Y-50500000D02*
X103750000Y-49750000D01*
D56*
X106511398Y-45377600D02*
X107348600Y-45377600D01*
D57*
X103000000Y-52250000D02*
X103000000Y-50500000D01*
D56*
X104953000Y-47935000D02*
X104625000Y-47607000D01*
X104625000Y-47263999D02*
X106511398Y-45377600D01*
%TO.N,/P4_0*%
D57*
X75235000Y-80320000D02*
X91055000Y-64500000D01*
X68250000Y-81590000D02*
X69520000Y-80320000D01*
X91055000Y-64500000D02*
X92250000Y-64500000D01*
X69520000Y-80320000D02*
X75235000Y-80320000D01*
%TO.N,/P4_1*%
X70790000Y-81590000D02*
X74600000Y-81590000D01*
X91190000Y-65000000D02*
X92250000Y-65000000D01*
X74600000Y-81590000D02*
X91190000Y-65000000D01*
%TO.N,/P4_2*%
X68250000Y-84130000D02*
X69401600Y-82978400D01*
X69401600Y-82978400D02*
X73976180Y-82978400D01*
X73976180Y-82978400D02*
X91110000Y-65844580D01*
X91110000Y-65686800D02*
X91296800Y-65500000D01*
X91110000Y-65844580D02*
X91110000Y-65686800D01*
X91296800Y-65500000D02*
X92250000Y-65500000D01*
%TO.N,/P4_3*%
X91427500Y-68572500D02*
X92250000Y-67750000D01*
X92250000Y-67750000D02*
X92250000Y-66000000D01*
X70790000Y-84130000D02*
X73394790Y-84130000D01*
X88952290Y-68572500D02*
X91427500Y-68572500D01*
X73394790Y-84130000D02*
X88952290Y-68572500D01*
%TO.N,/P4_4*%
X72695000Y-85400000D02*
X89095000Y-69000000D01*
X94000000Y-68857500D02*
X94000000Y-67750000D01*
X93857500Y-69000000D02*
X94000000Y-68857500D01*
X89095000Y-69000000D02*
X93857500Y-69000000D01*
X68250000Y-86670000D02*
X69520000Y-85400000D01*
X69520000Y-85400000D02*
X72695000Y-85400000D01*
%TO.N,/P4_5*%
X94024511Y-69403200D02*
X94500000Y-68927710D01*
X70790000Y-86670000D02*
X72060000Y-86670000D01*
X89262010Y-69403200D02*
X94024511Y-69403200D01*
X94500000Y-68927710D02*
X94500000Y-67750000D01*
X87300000Y-71365210D02*
X89262010Y-69403200D01*
X72060000Y-86670000D02*
X87300000Y-71430000D01*
X87300000Y-71430000D02*
X87300000Y-71365210D01*
%TO.N,/P4_6*%
X72060000Y-87940000D02*
X72377500Y-87622500D01*
X72377500Y-87622500D02*
X72377500Y-86922710D01*
X68250000Y-89210000D02*
X69520000Y-87940000D01*
X89457710Y-69842500D02*
X94285000Y-69842500D01*
X94285000Y-69842500D02*
X95000000Y-69127500D01*
X95000000Y-69127500D02*
X95000000Y-67750000D01*
X69520000Y-87940000D02*
X72060000Y-87940000D01*
X72377500Y-86922710D02*
X89457710Y-69842500D01*
%TO.N,/P4_7*%
X72780700Y-88489300D02*
X72780700Y-87089720D01*
X72780700Y-87089720D02*
X89624720Y-70245700D01*
X70790000Y-89210000D02*
X72060000Y-89210000D01*
X94452011Y-70245700D02*
X95500000Y-69197710D01*
X89624720Y-70245700D02*
X94452011Y-70245700D01*
X95500000Y-69197710D02*
X95500000Y-67750000D01*
X72060000Y-89210000D02*
X72780700Y-88489300D01*
%TO.N,/P1_12*%
X74718400Y-32764556D02*
X74718400Y-29638400D01*
X78954800Y-37000956D02*
X74718400Y-32764556D01*
X90953844Y-56000000D02*
X78954800Y-44000956D01*
X92250000Y-56000000D02*
X90953844Y-56000000D01*
X78954800Y-44000956D02*
X78954800Y-37000956D01*
X74718400Y-29638400D02*
X73330000Y-28250000D01*
%TO.N,/P1_13*%
X78551600Y-37167966D02*
X75332033Y-33948400D01*
X78551600Y-44167966D02*
X78551600Y-37167966D01*
X90883634Y-56500000D02*
X78551600Y-44167966D01*
X92250000Y-56500000D02*
X90883634Y-56500000D01*
X75332033Y-33948400D02*
X74750000Y-33948400D01*
X74750000Y-33948400D02*
X73330000Y-32528400D01*
X73330000Y-32528400D02*
X73330000Y-30790000D01*
%TO.N,/P1_14*%
D56*
X75165685Y-34350000D02*
X74350000Y-34350000D01*
X74350000Y-34350000D02*
X72060000Y-32060000D01*
X78150000Y-44334314D02*
X78150000Y-37334314D01*
X78150000Y-37334314D02*
X75165685Y-34350000D01*
X72060000Y-29520000D02*
X70790000Y-28250000D01*
X72060000Y-32060000D02*
X72060000Y-29520000D01*
X92250000Y-57000000D02*
X90815686Y-57000000D01*
X90815686Y-57000000D02*
X78150000Y-44334314D01*
%TO.N,/P1_15*%
X73500000Y-34750000D02*
X70790000Y-32040000D01*
X77750000Y-44500000D02*
X77750000Y-37500000D01*
X75000000Y-34750000D02*
X73500000Y-34750000D01*
X90750000Y-57500000D02*
X77750000Y-44500000D01*
X70790000Y-32040000D02*
X70790000Y-30790000D01*
X77750000Y-37500000D02*
X75000000Y-34750000D01*
X92250000Y-57500000D02*
X90750000Y-57500000D01*
%TO.N,Net-(U1UNUSED-P5_3)*%
D57*
X107750000Y-66000000D02*
X107750000Y-66750000D01*
X107750000Y-66750000D02*
X107800000Y-66800000D01*
%TO.N,Net-(U1PWR-DCDC_LX)*%
X107750000Y-65000000D02*
X109000000Y-65000000D01*
X109750000Y-65750000D02*
X110375000Y-65750000D01*
X109000000Y-65000000D02*
X109750000Y-65750000D01*
%TO.N,/DC*%
X106695210Y-63500000D02*
X107750000Y-63500000D01*
X126901800Y-62651800D02*
X125375000Y-61125000D01*
X127375000Y-65875000D02*
X127375000Y-63945210D01*
X106404000Y-63791210D02*
X106695210Y-63500000D01*
X114375000Y-57000000D02*
X113250000Y-57000000D01*
X104028999Y-63599263D02*
X104028999Y-63153999D01*
X106000000Y-64625000D02*
X106404000Y-64221000D01*
X106404000Y-64221000D02*
X106404000Y-63791210D01*
X103495200Y-62620200D02*
X103495200Y-56292011D01*
X126901800Y-63472010D02*
X126901800Y-62651800D01*
X129210000Y-66350000D02*
X127850000Y-66350000D01*
X125375000Y-57100636D02*
X124085564Y-55811200D01*
X127375000Y-63945210D02*
X126901800Y-63472010D01*
X105000000Y-64625000D02*
X106000000Y-64625000D01*
X115563800Y-55811200D02*
X114375000Y-57000000D01*
X102750000Y-55546810D02*
X102750000Y-55500000D01*
X103495200Y-56292011D02*
X102750000Y-55546810D01*
X127850000Y-66350000D02*
X127375000Y-65875000D01*
X104028999Y-63153999D02*
X103495200Y-62620200D01*
X124085564Y-55811200D02*
X115563800Y-55811200D01*
X125375000Y-61125000D02*
X125375000Y-57100636D01*
%TO.N,/RST*%
X127810000Y-63810000D02*
X127305000Y-63305000D01*
X115092000Y-55408000D02*
X114250000Y-56250000D01*
X125875000Y-60945210D02*
X125875000Y-57030426D01*
X103898400Y-61163821D02*
X103898400Y-56125000D01*
X127305000Y-63305000D02*
X127305000Y-62375210D01*
X124252574Y-55408000D02*
X115092000Y-55408000D01*
X127305000Y-62375210D02*
X125875000Y-60945210D01*
X104149200Y-61649200D02*
X104134590Y-61634590D01*
X125875000Y-57030426D02*
X124252574Y-55408000D01*
X103898400Y-56125000D02*
X103500000Y-55726600D01*
X129210000Y-63810000D02*
X127810000Y-63810000D01*
X105750000Y-63875000D02*
X106625000Y-63000000D01*
X106625000Y-63000000D02*
X107750000Y-63000000D01*
X104149200Y-62250000D02*
X104149200Y-61649200D01*
X104134590Y-61634590D02*
X104134590Y-61400011D01*
X103500000Y-55726600D02*
X103500000Y-54750000D01*
X104134590Y-61400011D02*
X103898400Y-61163821D01*
%TO.N,/CS*%
X114595991Y-55004800D02*
X113725791Y-55875000D01*
X126320200Y-60820200D02*
X126320200Y-56905416D01*
X113725791Y-55875000D02*
X112625000Y-55875000D01*
X131750000Y-63810000D02*
X130440000Y-62500000D01*
X104301600Y-55551600D02*
X104301600Y-60996811D01*
D56*
X104250000Y-55500000D02*
X104300000Y-55550000D01*
D57*
X104986989Y-61682200D02*
X106013010Y-61682200D01*
X126320200Y-56905416D02*
X124419584Y-55004800D01*
X124419584Y-55004800D02*
X114595991Y-55004800D01*
X130440000Y-62500000D02*
X128000000Y-62500000D01*
X106013010Y-61682200D02*
X106195211Y-61500000D01*
X106195211Y-61500000D02*
X107750000Y-61500000D01*
X128000000Y-62500000D02*
X126320200Y-60820200D01*
X104250000Y-55500000D02*
X104301600Y-55551600D01*
X104301600Y-60996811D02*
X104986989Y-61682200D01*
%TO.N,/BL*%
X104704800Y-56045200D02*
X104704800Y-60829800D01*
X105000000Y-55750000D02*
X104704800Y-56045200D01*
X114148400Y-54601600D02*
X113625000Y-55125000D01*
D56*
X105000000Y-54750000D02*
X105000000Y-55750000D01*
D57*
X105846000Y-61279000D02*
X106125000Y-61000000D01*
X106125000Y-61000000D02*
X107750000Y-61000000D01*
X128020000Y-61270000D02*
X126723400Y-59973400D01*
X126723400Y-59973400D02*
X126723400Y-56738406D01*
D56*
X113750000Y-55000000D02*
X113625000Y-55125000D01*
D57*
X129210000Y-61270000D02*
X128020000Y-61270000D01*
X104704800Y-60829800D02*
X105154000Y-61279000D01*
X105154000Y-61279000D02*
X105846000Y-61279000D01*
X126723400Y-56738406D02*
X124586594Y-54601600D01*
X124586594Y-54601600D02*
X114148400Y-54601600D01*
%TO.N,/ROW2*%
X127686000Y-91750000D02*
X129210000Y-91750000D01*
X117721800Y-68577800D02*
X117721800Y-71000000D01*
X117000000Y-71000000D02*
X117721800Y-71000000D01*
X118457990Y-88528200D02*
X126242200Y-88528200D01*
X117346800Y-79682990D02*
X117346800Y-87417011D01*
X117721800Y-71000000D02*
X117721800Y-79307990D01*
X127051000Y-89337000D02*
X127051000Y-91115000D01*
X127051000Y-91115000D02*
X127686000Y-91750000D01*
X116000000Y-66856000D02*
X117721800Y-68577800D01*
X115250000Y-64250000D02*
X115850000Y-64250000D01*
X119150000Y-74050000D02*
X119200000Y-74000000D01*
X116000000Y-64400000D02*
X116000000Y-66856000D01*
X126242200Y-88528200D02*
X127051000Y-89337000D01*
X117721800Y-79307990D02*
X117346800Y-79682990D01*
X107750000Y-60000000D02*
X105875000Y-60000000D01*
X131750000Y-89210000D02*
X129210000Y-91750000D01*
X117346800Y-87417011D02*
X118457990Y-88528200D01*
X119150000Y-75900000D02*
X119150000Y-74050000D01*
X105875000Y-60000000D02*
X105375000Y-59500000D01*
X115850000Y-64250000D02*
X116000000Y-64400000D01*
%TO.N,/ROW3*%
X118125000Y-68346000D02*
X116546000Y-66767000D01*
X129210000Y-89210000D02*
X128125000Y-88125000D01*
X105375000Y-58575104D02*
X105375000Y-57750000D01*
X119600000Y-64200000D02*
X119600000Y-63200000D01*
X117750000Y-87250000D02*
X117750000Y-79850000D01*
X117663000Y-63937000D02*
X119000000Y-62600000D01*
X119150000Y-64650000D02*
X119600000Y-64200000D01*
X116546000Y-66767000D02*
X116546000Y-64729104D01*
X107750000Y-59500000D02*
X106299896Y-59500000D01*
X117750000Y-79850000D02*
X118125000Y-79475000D01*
X119150000Y-65900000D02*
X119150000Y-64650000D01*
X118125000Y-79475000D02*
X118125000Y-68346000D01*
X128125000Y-88125000D02*
X118625000Y-88125000D01*
X119600000Y-63200000D02*
X119000000Y-62600000D01*
X129210000Y-89210000D02*
X131750000Y-86670000D01*
X116546000Y-64729104D02*
X117338104Y-63937000D01*
X117338104Y-63937000D02*
X117663000Y-63937000D01*
X106299896Y-59500000D02*
X105375000Y-58575104D01*
X118625000Y-88125000D02*
X117750000Y-87250000D01*
%TO.N,/ROW4*%
X121443600Y-61104918D02*
X122645083Y-62306400D01*
X126943600Y-74693600D02*
X126250000Y-74000000D01*
X112195211Y-59750000D02*
X112730810Y-59214401D01*
X126943600Y-81863600D02*
X126943600Y-74693600D01*
X109453200Y-59750000D02*
X112195211Y-59750000D01*
X115655842Y-58750000D02*
X121179790Y-58750000D01*
X112730810Y-59214401D02*
X115191443Y-59214400D01*
X124500000Y-64180000D02*
X124500000Y-65750000D01*
X121443600Y-59013810D02*
X121443600Y-61104918D01*
X115191443Y-59214400D02*
X115655842Y-58750000D01*
X108703200Y-59000000D02*
X109453200Y-59750000D01*
X126250000Y-74000000D02*
X124500000Y-74000000D01*
X122645083Y-62306400D02*
X122645083Y-62325083D01*
X121179790Y-58750000D02*
X121443600Y-59013810D01*
X129210000Y-84130000D02*
X126943600Y-81863600D01*
X122645083Y-62325083D02*
X124500000Y-64180000D01*
X107750000Y-59000000D02*
X108703200Y-59000000D01*
X131750000Y-84130000D02*
X129210000Y-84130000D01*
%TO.N,/COL1*%
X107750000Y-58000000D02*
X107000000Y-58000000D01*
X117272000Y-66858000D02*
X119192200Y-68778200D01*
X107000000Y-58000000D02*
X106250000Y-57250000D01*
X119192200Y-68778200D02*
X122957990Y-68778200D01*
X131750000Y-81590000D02*
X129210000Y-81590000D01*
X127346800Y-72167010D02*
X127346800Y-79726800D01*
X125332990Y-71153200D02*
X126332990Y-71153200D01*
X122957990Y-68778200D02*
X125332990Y-71153200D01*
X127346800Y-79726800D02*
X129210000Y-81590000D01*
X117200000Y-65000000D02*
X117272000Y-65072000D01*
X117272000Y-65072000D02*
X117272000Y-66858000D01*
X126332990Y-71153200D02*
X127346800Y-72167010D01*
%TO.N,/COL2*%
X121846800Y-58846800D02*
X121846800Y-60937907D01*
X123048283Y-62158073D02*
X124903200Y-64012990D01*
X129210000Y-76510000D02*
X131750000Y-79050000D01*
X111693600Y-57084020D02*
X111693600Y-57434813D01*
X124903200Y-64964200D02*
X125596800Y-65657800D01*
X132236800Y-75121600D02*
X130598400Y-75121600D01*
X109834022Y-56556400D02*
X111165980Y-56556400D01*
X132964895Y-74393505D02*
X132236800Y-75121600D01*
X130598400Y-75121600D02*
X129210000Y-76510000D01*
X125596800Y-68221801D02*
X126875000Y-69500000D01*
X112666788Y-58408000D02*
X114857421Y-58408000D01*
X107750000Y-57500000D02*
X108890422Y-57500000D01*
X108890422Y-57500000D02*
X109834022Y-56556400D01*
X121846800Y-60937907D02*
X123048283Y-62139389D01*
X126875000Y-69500000D02*
X130582000Y-69500000D01*
X114857421Y-58408000D02*
X116244622Y-57020800D01*
X120020800Y-57020800D02*
X121846800Y-58846800D01*
X125596800Y-65657800D02*
X125596800Y-68221801D01*
X111165980Y-56556400D02*
X111693600Y-57084020D01*
X123048283Y-62139389D02*
X123048283Y-62158073D01*
X111693600Y-57434813D02*
X112666788Y-58408000D01*
X116244622Y-57020800D02*
X120020800Y-57020800D01*
X130582000Y-69500000D02*
X132964895Y-71882895D01*
X124903200Y-64012990D02*
X124903200Y-64964200D01*
X132964895Y-71882895D02*
X132964895Y-74393505D01*
%TO.N,/COL3*%
X112096800Y-56917009D02*
X111332990Y-56153200D01*
X131750000Y-76510000D02*
X133125000Y-76510000D01*
X108820211Y-57000000D02*
X107750000Y-57000000D01*
X133368095Y-74560515D02*
X133368095Y-71715884D01*
X114690410Y-58004800D02*
X112833799Y-58004800D01*
X125306400Y-63845979D02*
X123451483Y-61991063D01*
X126000000Y-68054790D02*
X126000000Y-65490789D01*
X116077611Y-56617600D02*
X114690410Y-58004800D01*
X133368095Y-71715884D02*
X130749010Y-69096800D01*
X130749010Y-69096800D02*
X127042010Y-69096800D01*
X129210000Y-86670000D02*
X130505000Y-85375000D01*
X133125000Y-84500000D02*
X133125000Y-76510000D01*
X109667011Y-56153200D02*
X108820211Y-57000000D01*
X111332990Y-56153200D02*
X109667011Y-56153200D01*
X127042010Y-69096800D02*
X126000000Y-68054790D01*
X120242600Y-56617600D02*
X116077611Y-56617600D01*
X132250000Y-85375000D02*
X133125000Y-84500000D01*
X112096800Y-57267801D02*
X112096800Y-56917009D01*
X125306400Y-64797190D02*
X125306400Y-63845979D01*
X123451483Y-61991063D02*
X123451483Y-61972378D01*
X133125000Y-74803610D02*
X133368095Y-74560515D01*
X123451483Y-61972378D02*
X122250000Y-60770896D01*
X130505000Y-85375000D02*
X132250000Y-85375000D01*
X126000000Y-65490789D02*
X125306400Y-64797190D01*
X133125000Y-76510000D02*
X133125000Y-74803610D01*
X122250000Y-58625000D02*
X120242600Y-56617600D01*
X122250000Y-60770896D02*
X122250000Y-58625000D01*
X112833799Y-58004800D02*
X112096800Y-57267801D01*
%TO.N,/CS2*%
X129210000Y-56190000D02*
X127955422Y-56190000D01*
X127955422Y-56190000D02*
X125015422Y-53250000D01*
X111351600Y-51398400D02*
X109875000Y-52875000D01*
X113796001Y-53250000D02*
X112148001Y-51601999D01*
X112148001Y-51601999D02*
X111944401Y-51398400D01*
X109875000Y-52875000D02*
X109875000Y-53125000D01*
X109000000Y-54000000D02*
X107750000Y-54000000D01*
X109875000Y-53125000D02*
X109000000Y-54000000D01*
X111944401Y-51398400D02*
X111351600Y-51398400D01*
X125015422Y-53250000D02*
X113796001Y-53250000D01*
%TO.N,Net-(J6-Pin_5)*%
X120471800Y-35528200D02*
X117167010Y-35528200D01*
X108307200Y-46570210D02*
X104000000Y-50877410D01*
X117167010Y-35528200D02*
X116403200Y-36292010D01*
X114304790Y-46570210D02*
X108307200Y-46570210D01*
X116403200Y-36292010D02*
X116403200Y-44471800D01*
X104000000Y-50877410D02*
X104000000Y-52250000D01*
X125000000Y-29920000D02*
X125000000Y-31000000D01*
X116403200Y-44471800D02*
X114304790Y-46570210D01*
X126670000Y-28250000D02*
X125000000Y-29920000D01*
X125000000Y-31000000D02*
X120471800Y-35528200D01*
%TO.N,Net-(J6-Pin_3)*%
X124375000Y-30875000D02*
X120125000Y-35125000D01*
X108140190Y-46167010D02*
X103500000Y-50807200D01*
X127813000Y-26853000D02*
X125272000Y-26853000D01*
X124375000Y-27750000D02*
X124375000Y-30875000D01*
X125272000Y-26853000D02*
X124375000Y-27750000D01*
X116000000Y-36125000D02*
X116000000Y-44250000D01*
X114082990Y-46167010D02*
X108140190Y-46167010D01*
X120125000Y-35125000D02*
X116999999Y-35125000D01*
X129210000Y-28250000D02*
X127813000Y-26853000D01*
X116000000Y-44250000D02*
X114082990Y-46167010D01*
X116999999Y-35125000D02*
X116000000Y-36125000D01*
X103500000Y-50807200D02*
X103500000Y-52250000D01*
%TO.N,Net-(J6-Pin_4)*%
X130480000Y-27615000D02*
X130480000Y-29520000D01*
X124125000Y-26250000D02*
X124153200Y-26221800D01*
X108375000Y-27622000D02*
X109747000Y-26250000D01*
X129086800Y-26221800D02*
X130480000Y-27615000D01*
D56*
X102461971Y-47729971D02*
X106014343Y-44177600D01*
X107186400Y-44177600D02*
X108375000Y-42989000D01*
D57*
X124153200Y-26221800D02*
X129086800Y-26221800D01*
D56*
X101000000Y-49191940D02*
X102461971Y-47729971D01*
X101000000Y-52250000D02*
X101000000Y-49191940D01*
D57*
X130480000Y-29520000D02*
X129210000Y-30790000D01*
D56*
X108375000Y-42989000D02*
X108375000Y-28500000D01*
D57*
X109747000Y-26250000D02*
X124125000Y-26250000D01*
X108375000Y-28500000D02*
X108375000Y-27622000D01*
D56*
X106014343Y-44177600D02*
X107186400Y-44177600D01*
%TO.N,/MOSI*%
D57*
X130361600Y-54801600D02*
X127176600Y-54801600D01*
D56*
X98000000Y-53000000D02*
X98000000Y-52250000D01*
X98625000Y-53625000D02*
X98000000Y-53000000D01*
D57*
X125221800Y-52846800D02*
X113963012Y-52846800D01*
X113141127Y-52024915D02*
X113141127Y-51492275D01*
X113963012Y-52846800D02*
X113141127Y-52024915D01*
X130361600Y-54801600D02*
X131750000Y-56190000D01*
X127176600Y-54801600D02*
X125221800Y-52846800D01*
%TO.N,/SCK*%
X130520000Y-57500000D02*
X127875000Y-57500000D01*
X111975791Y-52000000D02*
X111625000Y-52000000D01*
X127653200Y-57278200D02*
X127653200Y-56457989D01*
X131750000Y-58730000D02*
X130520000Y-57500000D01*
D56*
X97500000Y-53750000D02*
X97500000Y-52250000D01*
D57*
X127653200Y-56457989D02*
X124945210Y-53750000D01*
X113725791Y-53750000D02*
X111975791Y-52000000D01*
D56*
X97750000Y-54000000D02*
X97500000Y-53750000D01*
D57*
X124945210Y-53750000D02*
X113725791Y-53750000D01*
X127875000Y-57500000D02*
X127653200Y-57278200D01*
%TO.N,/MISO*%
D56*
X95690685Y-46125000D02*
X97052400Y-47486715D01*
D57*
X130361600Y-59881600D02*
X131750000Y-61270000D01*
D56*
X97000000Y-52250000D02*
X97000000Y-50565685D01*
X96750000Y-53625000D02*
X97000000Y-53375000D01*
X112125000Y-53000000D02*
X112125000Y-53250000D01*
X97000000Y-50565685D02*
X97052400Y-50513286D01*
D57*
X127250000Y-59500000D02*
X127250000Y-56625000D01*
X130361600Y-59881600D02*
X127631600Y-59881600D01*
X127631600Y-59881600D02*
X127250000Y-59500000D01*
D56*
X97000000Y-53375000D02*
X97000000Y-52250000D01*
D57*
X127250000Y-56625000D02*
X124823400Y-54198400D01*
D56*
X95048100Y-46125000D02*
X95690685Y-46125000D01*
D57*
X124823400Y-54198400D02*
X113323400Y-54198400D01*
D56*
X97052400Y-50513286D02*
X97052400Y-47486715D01*
D57*
X113323400Y-54198400D02*
X112125000Y-53000000D01*
%TO.N,/P1_3*%
D56*
X96500000Y-50500000D02*
X96652400Y-50347600D01*
X87151600Y-42348968D02*
X80950000Y-36147368D01*
X96652400Y-50347600D02*
X96652400Y-47652400D01*
X80950000Y-36147368D02*
X80950000Y-30790000D01*
X96500000Y-52250000D02*
X96500000Y-50500000D01*
X96250000Y-47250000D02*
X91067948Y-47250000D01*
X87151600Y-43333652D02*
X87151600Y-42348968D01*
X96652400Y-47652400D02*
X96250000Y-47250000D01*
X91067948Y-47250000D02*
X87151600Y-43333652D01*
%TO.N,/P1_4*%
D57*
X86750000Y-42515316D02*
X86750000Y-43500000D01*
X78410000Y-28250000D02*
X79561600Y-29401600D01*
X86750000Y-43500000D02*
X91000000Y-47750000D01*
X91000000Y-47750000D02*
X92750000Y-47750000D01*
X79561600Y-29401600D02*
X79561600Y-35326916D01*
X95500000Y-50500000D02*
X95500000Y-52250000D01*
X79561600Y-35326916D02*
X86750000Y-42515316D01*
X92750000Y-47750000D02*
X95500000Y-50500000D01*
%TO.N,/P1_5*%
X90832990Y-48153200D02*
X86429789Y-43750000D01*
X86429789Y-43750000D02*
X86346800Y-43667011D01*
X95000000Y-50570210D02*
X92582990Y-48153200D01*
X86346800Y-43667010D02*
X86429789Y-43750000D01*
X78410000Y-34745526D02*
X86346800Y-42682326D01*
X92582990Y-48153200D02*
X90832990Y-48153200D01*
X95000000Y-52250000D02*
X95000000Y-50570210D01*
X86346800Y-42682326D02*
X86346800Y-43667010D01*
X78410000Y-30790000D02*
X78410000Y-34745526D01*
%TO.N,/P1_6*%
X75870000Y-28250000D02*
X77021600Y-29401600D01*
X85943600Y-43834021D02*
X90665980Y-48556400D01*
X77021600Y-29401600D02*
X77021600Y-33927336D01*
X94500000Y-50640420D02*
X94500000Y-52250000D01*
X77021600Y-33927336D02*
X85943600Y-42849336D01*
X90665980Y-48556400D02*
X92415980Y-48556400D01*
X85943600Y-42849336D02*
X85943600Y-43834021D01*
X92415980Y-48556400D02*
X94500000Y-50640420D01*
%TO.N,/P1_7*%
X75870000Y-30790000D02*
X75870000Y-33345946D01*
X75870000Y-33345946D02*
X85540400Y-43016346D01*
X90498970Y-48959600D02*
X92248970Y-48959600D01*
X85540400Y-44001031D02*
X90498970Y-48959600D01*
X94000000Y-50710630D02*
X94000000Y-52250000D01*
X92248970Y-48959600D02*
X94000000Y-50710630D01*
X85540400Y-43016346D02*
X85540400Y-44001031D01*
%TO.N,/P1_2*%
D56*
X90508634Y-46125000D02*
X87551600Y-43167966D01*
X82100000Y-36731682D02*
X82100000Y-29400000D01*
X87551600Y-43167966D02*
X87551600Y-42183282D01*
X93701900Y-46125000D02*
X90508634Y-46125000D01*
X87551600Y-42183282D02*
X82100000Y-36731682D01*
X82100000Y-29400000D02*
X80950000Y-28250000D01*
%TD*%
%TA.AperFunction,Conductor*%
%TO.N,0V*%
G36*
X117743039Y-60345185D02*
G01*
X117788794Y-60397989D01*
X117800000Y-60449500D01*
X117800000Y-62897140D01*
X117780315Y-62964179D01*
X117763681Y-62984821D01*
X117449921Y-63298581D01*
X117388598Y-63332066D01*
X117362240Y-63334900D01*
X117258836Y-63334900D01*
X117182269Y-63355416D01*
X117105700Y-63375933D01*
X117105695Y-63375936D01*
X117092790Y-63383387D01*
X117030791Y-63400000D01*
X115924000Y-63400000D01*
X115856961Y-63380315D01*
X115811206Y-63327511D01*
X115800000Y-63276000D01*
X115800000Y-60449500D01*
X115819685Y-60382461D01*
X115872489Y-60336706D01*
X115924000Y-60325500D01*
X117676000Y-60325500D01*
X117743039Y-60345185D01*
G37*
%TD.AperFunction*%
%TD*%
%TA.AperFunction,Conductor*%
%TO.N,Net-(U1PWR-DCDC_LX)*%
G36*
X109723287Y-65409122D02*
G01*
X109723811Y-65407542D01*
X109730664Y-65409812D01*
X109730666Y-65409814D01*
X109897203Y-65464999D01*
X109999991Y-65475500D01*
X110600008Y-65475499D01*
X110600016Y-65475498D01*
X110600019Y-65475498D01*
X110659870Y-65469384D01*
X110702797Y-65464999D01*
X110869334Y-65409814D01*
X110869335Y-65409812D01*
X110876189Y-65407542D01*
X110876712Y-65409122D01*
X110917870Y-65400000D01*
X111582130Y-65400000D01*
X111623287Y-65409122D01*
X111623811Y-65407542D01*
X111630664Y-65409812D01*
X111630666Y-65409814D01*
X111797203Y-65464999D01*
X111899991Y-65475500D01*
X112076001Y-65475499D01*
X112143039Y-65495183D01*
X112188794Y-65547987D01*
X112200000Y-65599499D01*
X112200000Y-68076000D01*
X112180315Y-68143039D01*
X112127511Y-68188794D01*
X112076000Y-68200000D01*
X110524000Y-68200000D01*
X110456961Y-68180315D01*
X110411206Y-68127511D01*
X110400000Y-68076000D01*
X110400000Y-66200000D01*
X109726100Y-66200000D01*
X109659061Y-66180315D01*
X109613306Y-66127511D01*
X109602100Y-66076000D01*
X109602100Y-65720733D01*
X109597115Y-65702128D01*
X109561067Y-65567598D01*
X109561065Y-65567596D01*
X109558963Y-65559748D01*
X109561334Y-65559112D01*
X109555198Y-65501968D01*
X109586481Y-65439493D01*
X109646574Y-65403848D01*
X109677225Y-65400000D01*
X109682130Y-65400000D01*
X109723287Y-65409122D01*
G37*
%TD.AperFunction*%
%TD*%
%TA.AperFunction,Conductor*%
%TO.N,Net-(U1PWR-VDD_CORE_1)*%
G36*
X113943039Y-60219685D02*
G01*
X113988794Y-60272489D01*
X114000000Y-60324000D01*
X114000000Y-61276000D01*
X113980315Y-61343039D01*
X113927511Y-61388794D01*
X113876000Y-61400000D01*
X113200000Y-61400000D01*
X113200000Y-61776000D01*
X113180315Y-61843039D01*
X113127511Y-61888794D01*
X113076000Y-61900000D01*
X109724000Y-61900000D01*
X109656961Y-61880315D01*
X109611206Y-61827511D01*
X109600000Y-61776000D01*
X109600000Y-61424000D01*
X109619685Y-61356961D01*
X109672489Y-61311206D01*
X109724000Y-61300000D01*
X111400062Y-61300000D01*
X111419065Y-61302501D01*
X111419153Y-61301839D01*
X111427207Y-61302899D01*
X111427209Y-61302900D01*
X111427211Y-61302900D01*
X111572789Y-61302900D01*
X111572791Y-61302900D01*
X111572792Y-61302899D01*
X111580847Y-61301839D01*
X111580934Y-61302501D01*
X111599938Y-61300000D01*
X112600000Y-61300000D01*
X112600000Y-60324000D01*
X112619685Y-60256961D01*
X112672489Y-60211206D01*
X112724000Y-60200000D01*
X113876000Y-60200000D01*
X113943039Y-60219685D01*
G37*
%TD.AperFunction*%
%TD*%
%TA.AperFunction,Conductor*%
%TO.N,+3.3V*%
G36*
X107643106Y-72755023D02*
G01*
X107658104Y-72759427D01*
X107716855Y-72797172D01*
X107718042Y-72798541D01*
X107745518Y-72853402D01*
X107747163Y-72860960D01*
X107750000Y-72887331D01*
X107750000Y-79257670D01*
X107744975Y-79292614D01*
X107740570Y-79307612D01*
X107702827Y-79366355D01*
X107701458Y-79367542D01*
X107646597Y-79395018D01*
X107639039Y-79396663D01*
X107612668Y-79399500D01*
X107302130Y-79399500D01*
X107302128Y-79399500D01*
X107301423Y-79399550D01*
X107299979Y-79399731D01*
X107242516Y-79405907D01*
X107242514Y-79405908D01*
X107107671Y-79456201D01*
X107107661Y-79456208D01*
X107096471Y-79464585D01*
X107065502Y-79481495D01*
X107036857Y-79492180D01*
X106993520Y-79500000D01*
X106624360Y-79500000D01*
X106606516Y-80891895D01*
X106606104Y-80924000D01*
X106576157Y-83259763D01*
X106570685Y-83294635D01*
X106566089Y-83309574D01*
X106527596Y-83367833D01*
X106525888Y-83369276D01*
X106471450Y-83395886D01*
X106464598Y-83397331D01*
X106439011Y-83400000D01*
X103000000Y-83400000D01*
X102616888Y-83400000D01*
X102604736Y-83399403D01*
X102592672Y-83398215D01*
X102587425Y-83397436D01*
X102584004Y-83397100D01*
X102584003Y-83397100D01*
X102467329Y-83397100D01*
X102432388Y-83392075D01*
X102417389Y-83387670D01*
X102358643Y-83349927D01*
X102357456Y-83348558D01*
X102329976Y-83293683D01*
X102328331Y-83286121D01*
X102325499Y-83259768D01*
X102325499Y-83002122D01*
X102325339Y-83000197D01*
X102325113Y-82998543D01*
X102319091Y-82942516D01*
X102319090Y-82942514D01*
X102268798Y-82807673D01*
X102268797Y-82807672D01*
X102268797Y-82807671D01*
X102268795Y-82807668D01*
X102235417Y-82763080D01*
X102218503Y-82732104D01*
X102207818Y-82703456D01*
X102200000Y-82660123D01*
X102200000Y-80941829D01*
X102205023Y-80906893D01*
X102209427Y-80891895D01*
X102247172Y-80833144D01*
X102248541Y-80831957D01*
X102303420Y-80804477D01*
X102310979Y-80802833D01*
X102337332Y-80800000D01*
X105250000Y-80800000D01*
X105250000Y-78746017D01*
X105261207Y-78694503D01*
X105265338Y-78685459D01*
X105285023Y-78618420D01*
X105285024Y-78618416D01*
X105305500Y-78476000D01*
X105305500Y-74724000D01*
X105293947Y-74616544D01*
X105282741Y-74565033D01*
X105256345Y-74485729D01*
X105250000Y-74446570D01*
X105250000Y-73983048D01*
X105255023Y-73948113D01*
X105263947Y-73917721D01*
X105279820Y-73883768D01*
X105383688Y-73728319D01*
X105385706Y-73725562D01*
X105387217Y-73723160D01*
X105388953Y-73718310D01*
X105462051Y-73541835D01*
X105469219Y-73505795D01*
X105474632Y-73478585D01*
X105474632Y-73478582D01*
X105500500Y-73348543D01*
X105500500Y-73151456D01*
X105500500Y-73151453D01*
X105461812Y-72956963D01*
X105459724Y-72952548D01*
X105453667Y-72937926D01*
X105444937Y-72903721D01*
X105443454Y-72889922D01*
X105455862Y-72821163D01*
X105503473Y-72770029D01*
X105507993Y-72767347D01*
X105571249Y-72750000D01*
X107608170Y-72750000D01*
X107643106Y-72755023D01*
G37*
%TD.AperFunction*%
%TD*%
%TA.AperFunction,Conductor*%
%TO.N,0V*%
G36*
X104743039Y-74619685D02*
G01*
X104788794Y-74672489D01*
X104800000Y-74724000D01*
X104800000Y-78476000D01*
X104780315Y-78543039D01*
X104727511Y-78588794D01*
X104676000Y-78600000D01*
X101524000Y-78600000D01*
X101456961Y-78580315D01*
X101411206Y-78527511D01*
X101400000Y-78476000D01*
X101400000Y-75364284D01*
X101419685Y-75297245D01*
X101472489Y-75251490D01*
X101541647Y-75241546D01*
X101605203Y-75270571D01*
X101611681Y-75276603D01*
X101737214Y-75402136D01*
X101737218Y-75402139D01*
X101901079Y-75511628D01*
X101901092Y-75511635D01*
X102083160Y-75587049D01*
X102083165Y-75587051D01*
X102083169Y-75587051D01*
X102083170Y-75587052D01*
X102276456Y-75625500D01*
X102276459Y-75625500D01*
X102473543Y-75625500D01*
X102603582Y-75599632D01*
X102666835Y-75587051D01*
X102848914Y-75511632D01*
X103012782Y-75402139D01*
X103152139Y-75262782D01*
X103261632Y-75098914D01*
X103337051Y-74916835D01*
X103373458Y-74733809D01*
X103375500Y-74723543D01*
X103376097Y-74717481D01*
X103377377Y-74717607D01*
X103395185Y-74656961D01*
X103447989Y-74611206D01*
X103499500Y-74600000D01*
X104676000Y-74600000D01*
X104743039Y-74619685D01*
G37*
%TD.AperFunction*%
%TD*%
%TA.AperFunction,Conductor*%
%TO.N,0V*%
G36*
X116093106Y-71805023D02*
G01*
X116108104Y-71809427D01*
X116166855Y-71847172D01*
X116168042Y-71848541D01*
X116195518Y-71903402D01*
X116197163Y-71910960D01*
X116200000Y-71937331D01*
X116200000Y-74858170D01*
X116194975Y-74893114D01*
X116190570Y-74908112D01*
X116152827Y-74966855D01*
X116151458Y-74968042D01*
X116096597Y-74995518D01*
X116089039Y-74997163D01*
X116062668Y-75000000D01*
X113541830Y-75000000D01*
X113506889Y-74994975D01*
X113491890Y-74990570D01*
X113433144Y-74952827D01*
X113431957Y-74951458D01*
X113404477Y-74896583D01*
X113402832Y-74889021D01*
X113400000Y-74862668D01*
X113400000Y-73000000D01*
X110200000Y-73000000D01*
X110200000Y-79400000D01*
X110858170Y-79400000D01*
X110893106Y-79405023D01*
X110908104Y-79409427D01*
X110966855Y-79447172D01*
X110968042Y-79448541D01*
X110995518Y-79503402D01*
X110997163Y-79510960D01*
X111000000Y-79537331D01*
X111000000Y-88058170D01*
X110994975Y-88093114D01*
X110990570Y-88108112D01*
X110952827Y-88166855D01*
X110951458Y-88168042D01*
X110896597Y-88195518D01*
X110889039Y-88197163D01*
X110862668Y-88200000D01*
X107341830Y-88200000D01*
X107306889Y-88194975D01*
X107291890Y-88190570D01*
X107233144Y-88152827D01*
X107231957Y-88151458D01*
X107204477Y-88096583D01*
X107202832Y-88089021D01*
X107200000Y-88062668D01*
X107200000Y-80141829D01*
X107205023Y-80106893D01*
X107209427Y-80091895D01*
X107247172Y-80033144D01*
X107248541Y-80031957D01*
X107303420Y-80004477D01*
X107310979Y-80002833D01*
X107337332Y-80000000D01*
X108400000Y-80000000D01*
X108400000Y-72842329D01*
X108405023Y-72807393D01*
X108409427Y-72792395D01*
X108447172Y-72733644D01*
X108448541Y-72732457D01*
X108503420Y-72704977D01*
X108510979Y-72703333D01*
X108537332Y-72700500D01*
X108688787Y-72700500D01*
X108688790Y-72700500D01*
X108755841Y-72694407D01*
X108910136Y-72646327D01*
X109048441Y-72562718D01*
X109162718Y-72448441D01*
X109246327Y-72310136D01*
X109294407Y-72155841D01*
X109300500Y-72088790D01*
X109300500Y-71994729D01*
X109305523Y-71959793D01*
X109309927Y-71944795D01*
X109347672Y-71886044D01*
X109349041Y-71884857D01*
X109403920Y-71857377D01*
X109411479Y-71855733D01*
X109437832Y-71852900D01*
X113264308Y-71852900D01*
X113349160Y-71836020D01*
X113349160Y-71836019D01*
X113349165Y-71836019D01*
X113390444Y-71827809D01*
X113390447Y-71827807D01*
X113390450Y-71827807D01*
X113410055Y-71819685D01*
X113410246Y-71819606D01*
X113423524Y-71814106D01*
X113446764Y-71807057D01*
X113470272Y-71802381D01*
X113494458Y-71800000D01*
X116058170Y-71800000D01*
X116093106Y-71805023D01*
G37*
%TD.AperFunction*%
%TD*%
%TA.AperFunction,Conductor*%
%TO.N,+5V*%
G36*
X112143039Y-73619685D02*
G01*
X112188794Y-73672489D01*
X112200000Y-73724000D01*
X112200000Y-77000000D01*
X116076000Y-77000000D01*
X116143039Y-77019685D01*
X116188794Y-77072489D01*
X116200000Y-77124000D01*
X116200000Y-78676000D01*
X116180315Y-78743039D01*
X116127511Y-78788794D01*
X116076000Y-78800000D01*
X110924000Y-78800000D01*
X110856961Y-78780315D01*
X110811206Y-78727511D01*
X110800000Y-78676000D01*
X110800000Y-73724000D01*
X110819685Y-73656961D01*
X110872489Y-73611206D01*
X110924000Y-73600000D01*
X112076000Y-73600000D01*
X112143039Y-73619685D01*
G37*
%TD.AperFunction*%
%TD*%
%TA.AperFunction,Conductor*%
%TO.N,Net-(U1PWR-VDD_CORE_1)*%
G36*
X114493106Y-65805023D02*
G01*
X114508104Y-65809427D01*
X114566855Y-65847172D01*
X114568042Y-65848541D01*
X114595518Y-65903402D01*
X114597163Y-65910960D01*
X114600000Y-65937331D01*
X114600000Y-70258170D01*
X114594975Y-70293114D01*
X114590570Y-70308112D01*
X114552827Y-70366855D01*
X114551458Y-70368042D01*
X114496597Y-70395518D01*
X114489039Y-70397163D01*
X114462668Y-70400000D01*
X113141830Y-70400000D01*
X113106889Y-70394975D01*
X113091890Y-70390570D01*
X113033144Y-70352827D01*
X113031957Y-70351458D01*
X113004477Y-70296583D01*
X113002832Y-70289021D01*
X113000000Y-70262668D01*
X113000000Y-65941829D01*
X113005023Y-65906893D01*
X113009427Y-65891895D01*
X113047172Y-65833144D01*
X113048541Y-65831957D01*
X113103420Y-65804477D01*
X113110979Y-65802833D01*
X113137332Y-65800000D01*
X114458170Y-65800000D01*
X114493106Y-65805023D01*
G37*
%TD.AperFunction*%
%TD*%
%TA.AperFunction,Conductor*%
%TO.N,0V*%
G36*
X109192981Y-66419685D02*
G01*
X109228430Y-66455134D01*
X109228618Y-66454994D01*
X109229592Y-66456295D01*
X109230256Y-66456959D01*
X109231268Y-66458533D01*
X109231279Y-66458548D01*
X109277023Y-66511340D01*
X109277026Y-66511343D01*
X109277030Y-66511347D01*
X109385764Y-66605567D01*
X109516641Y-66665338D01*
X109583680Y-66685023D01*
X109583684Y-66685024D01*
X109726100Y-66705500D01*
X109770500Y-66705500D01*
X109837539Y-66725185D01*
X109883294Y-66777989D01*
X109894500Y-66829500D01*
X109894500Y-68076000D01*
X109894501Y-68076009D01*
X109906052Y-68183450D01*
X109906054Y-68183462D01*
X109917260Y-68234972D01*
X109951385Y-68337502D01*
X109951386Y-68337504D01*
X109980314Y-68382515D01*
X110000000Y-68449554D01*
X110000000Y-68800000D01*
X111258170Y-68800000D01*
X111293106Y-68805023D01*
X111308104Y-68809427D01*
X111366855Y-68847172D01*
X111368042Y-68848541D01*
X111395518Y-68903402D01*
X111397163Y-68910960D01*
X111400000Y-68937331D01*
X111400000Y-70405270D01*
X111394975Y-70440214D01*
X111390570Y-70455212D01*
X111352827Y-70513955D01*
X111351458Y-70515142D01*
X111296597Y-70542618D01*
X111289039Y-70544263D01*
X111262668Y-70547100D01*
X109947130Y-70547100D01*
X109912189Y-70542075D01*
X109897190Y-70537670D01*
X109838444Y-70499927D01*
X109837257Y-70498558D01*
X109809777Y-70443683D01*
X109808132Y-70436121D01*
X109805300Y-70409768D01*
X109805300Y-70181801D01*
X109779970Y-70054465D01*
X109777885Y-70050057D01*
X109730993Y-69936851D01*
X109730992Y-69936848D01*
X109690605Y-69876405D01*
X109690605Y-69876404D01*
X109680388Y-69861113D01*
X109661204Y-69832404D01*
X109659994Y-69830492D01*
X109659539Y-69829910D01*
X109347226Y-69517598D01*
X108848926Y-69019297D01*
X108827774Y-68991041D01*
X108815167Y-68967952D01*
X108800000Y-68908527D01*
X108800000Y-66541829D01*
X108805023Y-66506893D01*
X108809427Y-66491895D01*
X108847172Y-66433144D01*
X108848541Y-66431957D01*
X108903420Y-66404477D01*
X108910979Y-66402833D01*
X108937332Y-66400000D01*
X109125942Y-66400000D01*
X109192981Y-66419685D01*
G37*
%TD.AperFunction*%
%TD*%
%TA.AperFunction,Conductor*%
%TO.N,+5V*%
G36*
X117743039Y-89819685D02*
G01*
X117788794Y-89872489D01*
X117800000Y-89924000D01*
X117800000Y-93076000D01*
X117780315Y-93143039D01*
X117727511Y-93188794D01*
X117676000Y-93200000D01*
X116324000Y-93200000D01*
X116256961Y-93180315D01*
X116211206Y-93127511D01*
X116200000Y-93076000D01*
X116200000Y-89924000D01*
X116219685Y-89856961D01*
X116272489Y-89811206D01*
X116324000Y-89800000D01*
X117676000Y-89800000D01*
X117743039Y-89819685D01*
G37*
%TD.AperFunction*%
%TD*%
%TA.AperFunction,Conductor*%
%TO.N,+5V*%
G36*
X93143039Y-92019685D02*
G01*
X93188794Y-92072489D01*
X93200000Y-92124000D01*
X93200000Y-93176000D01*
X93180315Y-93243039D01*
X93127511Y-93288794D01*
X93076000Y-93300000D01*
X90124000Y-93300000D01*
X90056961Y-93280315D01*
X90011206Y-93227511D01*
X90000000Y-93176000D01*
X90000000Y-92124000D01*
X90019685Y-92056961D01*
X90072489Y-92011206D01*
X90124000Y-92000000D01*
X93076000Y-92000000D01*
X93143039Y-92019685D01*
G37*
%TD.AperFunction*%
%TD*%
M02*
