%TF.GenerationSoftware,KiCad,Pcbnew,10.0.5*%
%TF.CreationDate,2026-09-29T05:49:04+01:00*%
%TF.ProjectId,mcxn_test_board,6d63786e-5f74-4657-9374-5f626f617264,rev?*%
%TF.SameCoordinates,Original*%
%TF.FileFunction,Legend,Bot*%
%TF.FilePolarity,Positive*%
%FSLAX46Y46*%
G04 Gerber Fmt 4.6, Leading zero omitted, Abs format (unit mm)*
G04 Created by KiCad (PCBNEW 10.0.5) date 2026-09-29 05:49:04*
%MOMM*%
%LPD*%
G01*
G04 APERTURE LIST*
G04 Aperture macros list*
%AMRoundRect*
0 Rectangle with rounded corners*
0 $1 Rounding radius*
0 $2 $3 $4 $5 $6 $7 $8 $9 X,Y pos of 4 corners*
0 Add a 4 corners polygon primitive as box body*
4,1,4,$2,$3,$4,$5,$6,$7,$8,$9,$2,$3,0*
0 Add four circle primitives for the rounded corners*
1,1,$1+$1,$2,$3*
1,1,$1+$1,$4,$5*
1,1,$1+$1,$6,$7*
1,1,$1+$1,$8,$9*
0 Add four rect primitives between the rounded corners*
20,1,$1+$1,$2,$3,$4,$5,0*
20,1,$1+$1,$4,$5,$6,$7,0*
20,1,$1+$1,$6,$7,$8,$9,0*
20,1,$1+$1,$8,$9,$2,$3,0*%
G04 Aperture macros list end*
%ADD10C,0.500000*%
%ADD11C,0.150000*%
%ADD12C,0.120000*%
%ADD13C,1.000000*%
%ADD14RoundRect,0.250000X-1.000000X-1.250000X1.000000X-1.250000X1.000000X1.250000X-1.000000X1.250000X0*%
%ADD15R,1.700000X1.700000*%
%ADD16C,1.700000*%
%ADD17C,0.650000*%
%ADD18O,0.900000X2.400000*%
%ADD19O,0.900000X1.700000*%
%ADD20C,0.900000*%
G04 APERTURE END LIST*
D10*
X86750000Y-40000000D02*
G75*
G02*
X73250000Y-40000000I-6750000J0D01*
G01*
X73250000Y-40000000D02*
G75*
G02*
X86750000Y-40000000I6750000J0D01*
G01*
X86750000Y-80000000D02*
G75*
G02*
X73250000Y-80000000I-6750000J0D01*
G01*
X73250000Y-80000000D02*
G75*
G02*
X86750000Y-80000000I6750000J0D01*
G01*
X126750000Y-40000000D02*
G75*
G02*
X113250000Y-40000000I-6750000J0D01*
G01*
X113250000Y-40000000D02*
G75*
G02*
X126750000Y-40000000I6750000J0D01*
G01*
X126750000Y-80000000D02*
G75*
G02*
X113250000Y-80000000I-6750000J0D01*
G01*
X113250000Y-80000000D02*
G75*
G02*
X126750000Y-80000000I6750000J0D01*
G01*
D11*
X105272342Y-66610714D02*
X105272342Y-67296429D01*
X106472342Y-66953571D02*
X105272342Y-66953571D01*
X106472342Y-67696429D02*
X105272342Y-67696429D01*
X105272342Y-67696429D02*
X105272342Y-68153572D01*
X105272342Y-68153572D02*
X105329485Y-68267857D01*
X105329485Y-68267857D02*
X105386628Y-68325000D01*
X105386628Y-68325000D02*
X105500914Y-68382143D01*
X105500914Y-68382143D02*
X105672342Y-68382143D01*
X105672342Y-68382143D02*
X105786628Y-68325000D01*
X105786628Y-68325000D02*
X105843771Y-68267857D01*
X105843771Y-68267857D02*
X105900914Y-68153572D01*
X105900914Y-68153572D02*
X105900914Y-67696429D01*
X105272342Y-68782143D02*
X105272342Y-69525000D01*
X105272342Y-69525000D02*
X105729485Y-69125000D01*
X105729485Y-69125000D02*
X105729485Y-69296429D01*
X105729485Y-69296429D02*
X105786628Y-69410715D01*
X105786628Y-69410715D02*
X105843771Y-69467857D01*
X105843771Y-69467857D02*
X105958057Y-69525000D01*
X105958057Y-69525000D02*
X106243771Y-69525000D01*
X106243771Y-69525000D02*
X106358057Y-69467857D01*
X106358057Y-69467857D02*
X106415200Y-69410715D01*
X106415200Y-69410715D02*
X106472342Y-69296429D01*
X106472342Y-69296429D02*
X106472342Y-68953572D01*
X106472342Y-68953572D02*
X106415200Y-68839286D01*
X106415200Y-68839286D02*
X106358057Y-68782143D01*
%TO.C,TP3*%
D12*
X108500000Y-68000000D02*
G75*
G02*
X107100000Y-68000000I-700000J0D01*
G01*
X107100000Y-68000000D02*
G75*
G02*
X108500000Y-68000000I700000J0D01*
G01*
%TD*%
%LPC*%
D13*
%TO.C,J12*%
X95006000Y-32258000D03*
X102986000Y-32258000D03*
%TD*%
D14*
%TO.C,J14*%
X109525000Y-89210000D03*
X113335000Y-89210000D03*
%TD*%
D15*
%TO.C,J2*%
X131750000Y-43490000D03*
D16*
X129210000Y-43490000D03*
X131750000Y-40950000D03*
X129210000Y-40950000D03*
X131750000Y-38410000D03*
X129210000Y-38410000D03*
%TD*%
D17*
%TO.C,J1*%
X97025000Y-87725000D03*
X97875000Y-87725000D03*
X98725000Y-87725000D03*
X99575000Y-87725000D03*
X100425000Y-87725000D03*
X101275000Y-87725000D03*
X102125000Y-87725000D03*
X102975000Y-87725000D03*
X102975000Y-89075000D03*
X102125000Y-89075000D03*
X101275000Y-89075000D03*
X100425000Y-89075000D03*
X99575000Y-89075000D03*
X98725000Y-89075000D03*
X97875000Y-89075000D03*
X97025000Y-89075000D03*
D18*
X95675000Y-88705000D03*
D19*
X95675000Y-92085000D03*
D18*
X104325000Y-88705000D03*
D19*
X104325000Y-92085000D03*
%TD*%
D15*
%TO.C,J7*%
X68250000Y-51110000D03*
D16*
X70790000Y-51110000D03*
X68250000Y-53650000D03*
X70790000Y-53650000D03*
X68250000Y-56190000D03*
X70790000Y-56190000D03*
X68250000Y-58730000D03*
X70790000Y-58730000D03*
%TD*%
D15*
%TO.C,J8*%
X68250000Y-63810000D03*
D16*
X70790000Y-63810000D03*
X68250000Y-66350000D03*
X70790000Y-66350000D03*
X68250000Y-68890000D03*
X70790000Y-68890000D03*
X68250000Y-71430000D03*
X70790000Y-71430000D03*
%TD*%
D15*
%TO.C,J10*%
X78410000Y-91750000D03*
D16*
X78410000Y-89210000D03*
X80950000Y-91750000D03*
X80950000Y-89210000D03*
X83490000Y-91750000D03*
X83490000Y-89210000D03*
%TD*%
D15*
%TO.C,J3*%
X68250000Y-38410000D03*
D16*
X70790000Y-38410000D03*
X68250000Y-40950000D03*
X70790000Y-40950000D03*
X68250000Y-43490000D03*
X70790000Y-43490000D03*
%TD*%
D15*
%TO.C,J11*%
X116510000Y-28250000D03*
D16*
X116510000Y-30790000D03*
X113970000Y-28250000D03*
X113970000Y-30790000D03*
X111430000Y-28250000D03*
X111430000Y-30790000D03*
%TD*%
D15*
%TO.C,J9*%
X68250000Y-79050000D03*
D16*
X70790000Y-79050000D03*
X68250000Y-81590000D03*
X70790000Y-81590000D03*
X68250000Y-84130000D03*
X70790000Y-84130000D03*
X68250000Y-86670000D03*
X70790000Y-86670000D03*
X68250000Y-89210000D03*
X70790000Y-89210000D03*
X68250000Y-91750000D03*
X70790000Y-91750000D03*
%TD*%
D20*
%TO.C,U1*%
X99050000Y-59050000D03*
X99050000Y-60950000D03*
X100950000Y-59050000D03*
X100950000Y-60950000D03*
%TD*%
D15*
%TO.C,J4*%
X131750000Y-66350000D03*
D16*
X129210000Y-66350000D03*
X131750000Y-63810000D03*
X129210000Y-63810000D03*
X131750000Y-61270000D03*
X129210000Y-61270000D03*
X131750000Y-58730000D03*
X129210000Y-58730000D03*
X131750000Y-56190000D03*
X129210000Y-56190000D03*
X131750000Y-53650000D03*
X129210000Y-53650000D03*
%TD*%
D15*
%TO.C,J5*%
X83490000Y-28250000D03*
D16*
X83490000Y-30790000D03*
X80950000Y-28250000D03*
X80950000Y-30790000D03*
X78410000Y-28250000D03*
X78410000Y-30790000D03*
X75870000Y-28250000D03*
X75870000Y-30790000D03*
X73330000Y-28250000D03*
X73330000Y-30790000D03*
X70790000Y-28250000D03*
X70790000Y-30790000D03*
X68250000Y-28250000D03*
X68250000Y-30790000D03*
%TD*%
D15*
%TO.C,J13*%
X131750000Y-91750000D03*
D16*
X129210000Y-91750000D03*
X131750000Y-89210000D03*
X129210000Y-89210000D03*
X131750000Y-86670000D03*
X129210000Y-86670000D03*
X131750000Y-84130000D03*
X129210000Y-84130000D03*
X131750000Y-81590000D03*
X129210000Y-81590000D03*
X131750000Y-79050000D03*
X129210000Y-79050000D03*
X131750000Y-76510000D03*
X129210000Y-76510000D03*
X131750000Y-73970000D03*
X129210000Y-73970000D03*
%TD*%
D15*
%TO.C,J6*%
X131750000Y-28250000D03*
D16*
X131750000Y-30790000D03*
X129210000Y-28250000D03*
X129210000Y-30790000D03*
X126670000Y-28250000D03*
X126670000Y-30790000D03*
%TD*%
D13*
%TO.C,TP3*%
X107800000Y-68000000D03*
%TD*%
%LPD*%
M02*
