%TF.GenerationSoftware,KiCad,Pcbnew,10.0.5*%
%TF.CreationDate,2026-10-02T17:25:48+01:00*%
%TF.ProjectId,mcxn_mini_board,6d63786e-5f6d-4696-9e69-5f626f617264,rev?*%
%TF.SameCoordinates,Original*%
%TF.FileFunction,Legend,Bot*%
%TF.FilePolarity,Positive*%
%FSLAX46Y46*%
G04 Gerber Fmt 4.6, Leading zero omitted, Abs format (unit mm)*
G04 Created by KiCad (PCBNEW 10.0.5) date 2026-10-02 17:25:48*
%MOMM*%
%LPD*%
G01*
G04 APERTURE LIST*
G04 Aperture macros list*
%AMRoundRect*
0 Rectangle with rounded corners*
0 $1 Rounding radius*
0 $2 $3 $4 $5 $6 $7 $8 $9 X,Y pos of 4 corners*
0 Add a 4 corners polygon primitive as box body*
4,1,4,$2,$3,$4,$5,$6,$7,$8,$9,$2,$3,0*
0 Add four circle primitives for the rounded corners*
1,1,$1+$1,$2,$3*
1,1,$1+$1,$4,$5*
1,1,$1+$1,$6,$7*
1,1,$1+$1,$8,$9*
0 Add four rect primitives between the rounded corners*
20,1,$1+$1,$2,$3,$4,$5,0*
20,1,$1+$1,$4,$5,$6,$7,0*
20,1,$1+$1,$6,$7,$8,$9,0*
20,1,$1+$1,$8,$9,$2,$3,0*%
G04 Aperture macros list end*
%ADD10C,0.250000*%
%ADD11C,0.150000*%
%ADD12C,0.120000*%
%ADD13C,0.100000*%
%ADD14RoundRect,0.250000X-0.350000X-0.250000X0.350000X-0.250000X0.350000X0.250000X-0.350000X0.250000X0*%
%ADD15C,0.650000*%
%ADD16O,0.900000X2.400000*%
%ADD17O,0.900000X1.700000*%
%ADD18C,0.900000*%
%ADD19RoundRect,0.080000X-0.420000X-0.320000X0.420000X-0.320000X0.420000X0.320000X-0.420000X0.320000X0*%
G04 APERTURE END LIST*
D10*
G36*
X106713889Y-85915222D02*
G01*
X105288512Y-85915222D01*
X105288512Y-84343613D01*
X105444068Y-84343613D01*
X105444068Y-84392387D01*
X105462733Y-84437446D01*
X105497220Y-84471933D01*
X105542279Y-84490598D01*
X105591053Y-84490598D01*
X105636112Y-84471933D01*
X105655054Y-84456388D01*
X105700856Y-84410586D01*
X105853617Y-84359666D01*
X105946382Y-84359666D01*
X106099142Y-84410586D01*
X106197267Y-84508710D01*
X106248725Y-84611628D01*
X106308333Y-84850055D01*
X106308333Y-85019276D01*
X106248725Y-85257705D01*
X106197267Y-85360621D01*
X106099143Y-85458746D01*
X105946380Y-85509666D01*
X105853619Y-85509666D01*
X105700854Y-85458745D01*
X105655054Y-85412945D01*
X105636112Y-85397400D01*
X105591053Y-85378735D01*
X105542279Y-85378735D01*
X105497220Y-85397400D01*
X105462733Y-85431887D01*
X105444068Y-85476946D01*
X105444068Y-85525720D01*
X105462733Y-85570779D01*
X105478278Y-85589721D01*
X105544944Y-85656388D01*
X105563886Y-85671933D01*
X105568037Y-85673652D01*
X105571430Y-85676595D01*
X105593805Y-85686586D01*
X105793805Y-85753251D01*
X105805895Y-85756000D01*
X105808947Y-85757264D01*
X105813369Y-85757699D01*
X105817699Y-85758684D01*
X105820989Y-85758450D01*
X105833333Y-85759666D01*
X105966666Y-85759666D01*
X105979009Y-85758450D01*
X105982300Y-85758684D01*
X105986630Y-85757699D01*
X105991052Y-85757264D01*
X105994100Y-85756001D01*
X106006194Y-85753252D01*
X106206194Y-85686586D01*
X106228569Y-85676595D01*
X106231962Y-85673651D01*
X106236112Y-85671933D01*
X106255054Y-85656388D01*
X106388389Y-85523054D01*
X106396257Y-85513465D01*
X106398749Y-85511305D01*
X106401113Y-85507548D01*
X106403934Y-85504112D01*
X106405197Y-85501061D01*
X106411804Y-85490567D01*
X106478470Y-85357234D01*
X106479153Y-85355447D01*
X106479689Y-85354725D01*
X106483343Y-85344498D01*
X106487227Y-85334348D01*
X106487290Y-85333450D01*
X106487934Y-85331650D01*
X106554601Y-85064983D01*
X106555226Y-85060753D01*
X106555931Y-85059052D01*
X106556835Y-85049872D01*
X106558185Y-85040743D01*
X106557913Y-85038920D01*
X106558333Y-85034666D01*
X106558333Y-84834666D01*
X106557913Y-84830411D01*
X106558185Y-84828589D01*
X106556835Y-84819459D01*
X106555931Y-84810280D01*
X106555226Y-84808578D01*
X106554601Y-84804349D01*
X106487934Y-84537683D01*
X106487290Y-84535883D01*
X106487227Y-84534984D01*
X106483340Y-84524826D01*
X106479689Y-84514608D01*
X106479153Y-84513885D01*
X106478470Y-84512099D01*
X106411804Y-84378765D01*
X106405195Y-84368267D01*
X106403933Y-84365219D01*
X106401115Y-84361786D01*
X106398750Y-84358028D01*
X106396257Y-84355866D01*
X106388388Y-84346277D01*
X106255054Y-84212944D01*
X106236112Y-84197399D01*
X106231962Y-84195680D01*
X106228570Y-84192738D01*
X106206195Y-84182748D01*
X106006195Y-84116081D01*
X105994102Y-84113331D01*
X105991052Y-84112068D01*
X105986629Y-84111632D01*
X105982300Y-84110648D01*
X105979009Y-84110881D01*
X105966666Y-84109666D01*
X105833333Y-84109666D01*
X105820989Y-84110881D01*
X105817699Y-84110648D01*
X105813369Y-84111632D01*
X105808947Y-84112068D01*
X105805895Y-84113331D01*
X105793805Y-84116081D01*
X105593804Y-84182748D01*
X105571429Y-84192738D01*
X105568035Y-84195681D01*
X105563886Y-84197400D01*
X105544944Y-84212945D01*
X105478278Y-84279612D01*
X105462733Y-84298554D01*
X105444068Y-84343613D01*
X105288512Y-84343613D01*
X105288512Y-83954110D01*
X106713889Y-83954110D01*
X106713889Y-85915222D01*
G37*
G36*
X106241666Y-77509666D02*
G01*
X105862841Y-77509666D01*
X105774044Y-77465267D01*
X105736064Y-77427288D01*
X105691666Y-77338491D01*
X105691666Y-77197508D01*
X105736063Y-77108712D01*
X105767523Y-77077253D01*
X105920284Y-77026333D01*
X106241666Y-77026333D01*
X106241666Y-77509666D01*
G37*
G36*
X106241666Y-76776333D02*
G01*
X105929508Y-76776333D01*
X105840710Y-76731934D01*
X105802732Y-76693956D01*
X105758333Y-76605158D01*
X105758333Y-76530841D01*
X105802731Y-76442045D01*
X105840710Y-76404064D01*
X105929508Y-76359666D01*
X106241666Y-76359666D01*
X106241666Y-76776333D01*
G37*
G36*
X106647222Y-77915222D02*
G01*
X105286110Y-77915222D01*
X105286110Y-77168000D01*
X105441666Y-77168000D01*
X105441666Y-77368000D01*
X105444068Y-77392386D01*
X105445786Y-77396534D01*
X105446105Y-77401016D01*
X105454863Y-77423902D01*
X105521530Y-77557235D01*
X105528137Y-77567731D01*
X105529400Y-77570779D01*
X105532216Y-77574210D01*
X105534584Y-77577972D01*
X105537078Y-77580135D01*
X105544945Y-77589721D01*
X105611611Y-77656388D01*
X105621199Y-77664257D01*
X105623361Y-77666749D01*
X105627118Y-77669114D01*
X105630553Y-77671933D01*
X105633602Y-77673196D01*
X105644099Y-77679804D01*
X105777432Y-77746470D01*
X105800318Y-77755227D01*
X105804797Y-77755545D01*
X105808947Y-77757264D01*
X105833333Y-77759666D01*
X106366666Y-77759666D01*
X106391052Y-77757264D01*
X106436112Y-77738600D01*
X106470600Y-77704112D01*
X106489264Y-77659052D01*
X106491666Y-77634666D01*
X106491666Y-76234666D01*
X106489264Y-76210280D01*
X106470600Y-76165220D01*
X106436112Y-76130732D01*
X106391052Y-76112068D01*
X106366666Y-76109666D01*
X105900000Y-76109666D01*
X105875614Y-76112068D01*
X105871465Y-76113786D01*
X105866984Y-76114105D01*
X105844098Y-76122863D01*
X105710764Y-76189530D01*
X105700269Y-76196136D01*
X105697219Y-76197400D01*
X105693784Y-76200218D01*
X105690027Y-76202584D01*
X105687865Y-76205075D01*
X105678277Y-76212945D01*
X105611611Y-76279612D01*
X105603742Y-76289200D01*
X105601251Y-76291361D01*
X105598886Y-76295117D01*
X105596066Y-76298554D01*
X105594802Y-76301605D01*
X105588197Y-76312098D01*
X105521530Y-76445431D01*
X105512772Y-76468317D01*
X105512453Y-76472798D01*
X105510735Y-76476947D01*
X105508333Y-76501333D01*
X105508333Y-76634666D01*
X105510735Y-76659052D01*
X105512453Y-76663200D01*
X105512772Y-76667682D01*
X105521530Y-76690568D01*
X105588197Y-76823902D01*
X105594804Y-76834398D01*
X105596067Y-76837446D01*
X105598883Y-76840877D01*
X105601251Y-76844639D01*
X105603745Y-76846802D01*
X105611612Y-76856388D01*
X105624367Y-76869143D01*
X105611613Y-76879611D01*
X105544945Y-76946277D01*
X105537075Y-76955865D01*
X105534584Y-76958027D01*
X105532218Y-76961784D01*
X105529400Y-76965219D01*
X105528136Y-76968269D01*
X105521530Y-76978764D01*
X105454863Y-77112098D01*
X105446105Y-77134984D01*
X105445786Y-77139465D01*
X105444068Y-77143614D01*
X105441666Y-77168000D01*
X105286110Y-77168000D01*
X105286110Y-75954110D01*
X106647222Y-75954110D01*
X106647222Y-77915222D01*
G37*
G36*
X106159905Y-65109666D02*
G01*
X105840095Y-65109666D01*
X106000000Y-64629950D01*
X106159905Y-65109666D01*
G37*
G36*
X106746240Y-65914240D02*
G01*
X105253759Y-65914240D01*
X105253759Y-65619032D01*
X105409315Y-65619032D01*
X105412772Y-65667681D01*
X105434584Y-65711306D01*
X105471429Y-65743261D01*
X105517699Y-65758684D01*
X105566348Y-65755227D01*
X105609973Y-65733415D01*
X105641928Y-65696570D01*
X105651918Y-65674194D01*
X105756761Y-65359666D01*
X106243238Y-65359666D01*
X106348080Y-65674194D01*
X106358071Y-65696569D01*
X106390026Y-65733415D01*
X106433650Y-65755227D01*
X106482300Y-65758684D01*
X106528569Y-65743261D01*
X106565415Y-65711305D01*
X106587227Y-65667681D01*
X106590684Y-65619031D01*
X106585251Y-65595137D01*
X106118585Y-64195138D01*
X106108595Y-64172763D01*
X106102744Y-64166017D01*
X106098749Y-64158026D01*
X106086907Y-64147756D01*
X106076640Y-64135917D01*
X106068651Y-64131922D01*
X106061904Y-64126071D01*
X106047032Y-64121113D01*
X106033015Y-64114105D01*
X106024109Y-64113472D01*
X106015634Y-64110647D01*
X105999992Y-64111758D01*
X105984366Y-64110648D01*
X105975898Y-64113470D01*
X105966985Y-64114104D01*
X105952959Y-64121116D01*
X105938097Y-64126071D01*
X105931351Y-64131921D01*
X105923360Y-64135917D01*
X105913090Y-64147758D01*
X105901251Y-64158026D01*
X105897256Y-64166014D01*
X105891405Y-64172762D01*
X105881415Y-64195137D01*
X105414748Y-65595138D01*
X105409315Y-65619032D01*
X105253759Y-65619032D01*
X105253759Y-63955091D01*
X106746240Y-63955091D01*
X106746240Y-65914240D01*
G37*
D11*
X97840475Y-56362295D02*
X97840475Y-55562295D01*
X97840475Y-55562295D02*
X97649999Y-55562295D01*
X97649999Y-55562295D02*
X97535713Y-55600390D01*
X97535713Y-55600390D02*
X97459523Y-55676580D01*
X97459523Y-55676580D02*
X97421428Y-55752771D01*
X97421428Y-55752771D02*
X97383332Y-55905152D01*
X97383332Y-55905152D02*
X97383332Y-56019438D01*
X97383332Y-56019438D02*
X97421428Y-56171819D01*
X97421428Y-56171819D02*
X97459523Y-56248009D01*
X97459523Y-56248009D02*
X97535713Y-56324200D01*
X97535713Y-56324200D02*
X97649999Y-56362295D01*
X97649999Y-56362295D02*
X97840475Y-56362295D01*
X96621428Y-56362295D02*
X97078571Y-56362295D01*
X96849999Y-56362295D02*
X96849999Y-55562295D01*
X96849999Y-55562295D02*
X96926190Y-55676580D01*
X96926190Y-55676580D02*
X97002380Y-55752771D01*
X97002380Y-55752771D02*
X97078571Y-55790866D01*
%TO.C,SW1*%
D12*
X97000000Y-66800000D02*
X97000000Y-65600000D01*
X97000000Y-66800000D02*
X103000000Y-66800000D01*
X97000000Y-64400000D02*
X97000000Y-63200000D01*
X97000000Y-63200000D02*
X103000000Y-63200000D01*
D13*
X98700000Y-65650000D02*
X101300000Y-64350000D01*
X98700000Y-64350000D02*
X101300000Y-65650000D01*
D12*
X103000000Y-66800000D02*
X103000000Y-65600000D01*
X103000000Y-64400000D02*
X103000000Y-63200000D01*
D11*
X98700000Y-64350000D02*
X101300000Y-64350000D01*
X101300000Y-65650000D01*
X98700000Y-65650000D01*
X98700000Y-64350000D01*
%TO.C,D1*%
X98325000Y-55265000D02*
X99300000Y-55265000D01*
X98325000Y-56100000D02*
X98325000Y-55265000D01*
X99800000Y-56000000D02*
X100000000Y-56000000D01*
X100000000Y-56400000D02*
X100000000Y-55600000D01*
%TO.C,SW2*%
D12*
X97000000Y-75200000D02*
X103000000Y-75200000D01*
X97000000Y-76400000D02*
X97000000Y-75200000D01*
X97000000Y-78800000D02*
X97000000Y-77600000D01*
X97000000Y-78800000D02*
X103000000Y-78800000D01*
D13*
X98700000Y-76350000D02*
X101300000Y-77650000D01*
X98700000Y-77650000D02*
X101300000Y-76350000D01*
D12*
X103000000Y-76400000D02*
X103000000Y-75200000D01*
X103000000Y-78800000D02*
X103000000Y-77600000D01*
D11*
X98700000Y-76350000D02*
X101300000Y-76350000D01*
X101300000Y-77650000D01*
X98700000Y-77650000D01*
X98700000Y-76350000D01*
%TO.C,SW3*%
D12*
X97000000Y-83200000D02*
X103000000Y-83200000D01*
X97000000Y-84400000D02*
X97000000Y-83200000D01*
X97000000Y-86800000D02*
X97000000Y-85600000D01*
X97000000Y-86800000D02*
X103000000Y-86800000D01*
D13*
X98700000Y-84350000D02*
X101300000Y-85650000D01*
X98700000Y-85650000D02*
X101300000Y-84350000D01*
D12*
X103000000Y-84400000D02*
X103000000Y-83200000D01*
X103000000Y-86800000D02*
X103000000Y-85600000D01*
D11*
X98700000Y-84350000D02*
X101300000Y-84350000D01*
X101300000Y-85650000D01*
X98700000Y-85650000D01*
X98700000Y-84350000D01*
%TD*%
%LPC*%
D13*
X96500000Y-57250000D02*
X102000000Y-57250000D01*
X102000000Y-63000000D01*
X96500000Y-63000000D01*
X96500000Y-57250000D01*
G36*
X96500000Y-57250000D02*
G01*
X102000000Y-57250000D01*
X102000000Y-63000000D01*
X96500000Y-63000000D01*
X96500000Y-57250000D01*
G37*
D14*
%TO.C,SW1*%
X96300000Y-65000000D03*
X103700000Y-65000000D03*
%TD*%
D15*
%TO.C,J1*%
X97025000Y-87725000D03*
X97875000Y-87725000D03*
X98725000Y-87725000D03*
X99575000Y-87725000D03*
X100425000Y-87725000D03*
X101275000Y-87725000D03*
X102125000Y-87725000D03*
X102975000Y-87725000D03*
X102975000Y-89075000D03*
X102125000Y-89075000D03*
X101275000Y-89075000D03*
X100425000Y-89075000D03*
X99575000Y-89075000D03*
X98725000Y-89075000D03*
X97875000Y-89075000D03*
X97025000Y-89075000D03*
D16*
X95675000Y-88705000D03*
D17*
X95675000Y-92085000D03*
D16*
X104325000Y-88705000D03*
D17*
X104325000Y-92085000D03*
%TD*%
D18*
%TO.C,U1*%
X101437500Y-60952500D03*
X101437500Y-59047500D03*
X100167500Y-62222500D03*
X100167500Y-57777500D03*
X100165000Y-60950000D03*
X100165000Y-59050000D03*
X98265000Y-60950000D03*
X98265000Y-59050000D03*
X98262500Y-62222500D03*
X98262500Y-57777500D03*
X96992500Y-60952500D03*
X96992500Y-59047500D03*
%TD*%
D19*
%TO.C,D1*%
X99150000Y-56000000D03*
X100850000Y-56000000D03*
%TD*%
D14*
%TO.C,SW2*%
X96300000Y-77000000D03*
X103700000Y-77000000D03*
%TD*%
%TO.C,SW3*%
X96300000Y-85000000D03*
X103700000Y-85000000D03*
%TD*%
%LPD*%
M02*
