%TF.GenerationSoftware,KiCad,Pcbnew,10.0.5*%
%TF.CreationDate,2026-10-02T17:25:48+01:00*%
%TF.ProjectId,mcxn_mini_board,6d63786e-5f6d-4696-9e69-5f626f617264,rev?*%
%TF.SameCoordinates,Original*%
%TF.FileFunction,Legend,Top*%
%TF.FilePolarity,Positive*%
%FSLAX46Y46*%
G04 Gerber Fmt 4.6, Leading zero omitted, Abs format (unit mm)*
G04 Created by KiCad (PCBNEW 10.0.5) date 2026-10-02 17:25:48*
%MOMM*%
%LPD*%
G01*
G04 APERTURE LIST*
G04 Aperture macros list*
%AMRoundRect*
0 Rectangle with rounded corners*
0 $1 Rounding radius*
0 $2 $3 $4 $5 $6 $7 $8 $9 X,Y pos of 4 corners*
0 Add a 4 corners polygon primitive as box body*
4,1,4,$2,$3,$4,$5,$6,$7,$8,$9,$2,$3,0*
0 Add four circle primitives for the rounded corners*
1,1,$1+$1,$2,$3*
1,1,$1+$1,$4,$5*
1,1,$1+$1,$6,$7*
1,1,$1+$1,$8,$9*
0 Add four rect primitives between the rounded corners*
20,1,$1+$1,$2,$3,$4,$5,0*
20,1,$1+$1,$4,$5,$6,$7,0*
20,1,$1+$1,$6,$7,$8,$9,0*
20,1,$1+$1,$8,$9,$2,$3,0*%
%AMFreePoly0*
4,1,26,0.935355,0.485355,0.950000,0.450000,0.950000,-0.450000,0.935355,-0.485355,0.900000,-0.500000,0.000000,-0.500000,-0.010328,-0.495722,-0.065263,-0.495722,-0.191342,-0.461940,-0.304381,-0.396677,-0.396677,-0.304381,-0.461940,-0.191342,-0.495722,-0.065263,-0.495722,-0.010327,-0.500000,0.000000,-0.495722,0.010327,-0.495722,0.065263,-0.461940,0.191342,-0.396677,0.304381,-0.304381,0.396677,
-0.191342,0.461940,-0.065263,0.495722,-0.010328,0.495722,0.000000,0.500000,0.900000,0.500000,0.935355,0.485355,0.935355,0.485355,$1*%
G04 Aperture macros list end*
%ADD10C,0.200000*%
%ADD11C,0.250000*%
%ADD12C,0.150000*%
%ADD13C,0.120000*%
%ADD14C,0.325000*%
%ADD15C,0.100000*%
%ADD16C,0.000000*%
%ADD17RoundRect,0.292452X0.557548X-0.482548X0.557548X0.482548X-0.557548X0.482548X-0.557548X-0.482548X0*%
%ADD18RoundRect,0.114300X-0.292100X0.266700X-0.292100X-0.266700X0.292100X-0.266700X0.292100X0.266700X0*%
%ADD19R,1.500000X2.000000*%
%ADD20R,3.800000X2.000000*%
%ADD21C,0.650000*%
%ADD22O,0.900000X2.400000*%
%ADD23O,0.900000X1.700000*%
%ADD24FreePoly0,0.000000*%
%ADD25R,0.950000X0.600000*%
%ADD26RoundRect,0.117000X-0.273000X0.323000X-0.273000X-0.323000X0.273000X-0.323000X0.273000X0.323000X0*%
%ADD27RoundRect,0.114300X0.292100X-0.266700X0.292100X0.266700X-0.292100X0.266700X-0.292100X-0.266700X0*%
%ADD28R,2.400000X1.650000*%
%ADD29RoundRect,0.250000X-0.475000X0.250000X-0.475000X-0.250000X0.475000X-0.250000X0.475000X0.250000X0*%
%ADD30RoundRect,0.175000X0.175000X0.450000X-0.175000X0.450000X-0.175000X-0.450000X0.175000X-0.450000X0*%
%ADD31FreePoly0,180.000000*%
%ADD32RoundRect,0.250000X0.475000X-0.250000X0.475000X0.250000X-0.475000X0.250000X-0.475000X-0.250000X0*%
%ADD33C,0.900000*%
%ADD34RoundRect,0.350000X-2.700000X-2.700000X2.700000X-2.700000X2.700000X2.700000X-2.700000X2.700000X0*%
%ADD35O,0.370000X1.600000*%
%ADD36O,1.600000X0.370000*%
%ADD37R,1.300000X0.300000*%
%ADD38R,2.200000X1.800000*%
%ADD39RoundRect,0.150000X0.625000X-0.150000X0.625000X0.150000X-0.625000X0.150000X-0.625000X-0.150000X0*%
%ADD40RoundRect,0.250000X0.650000X-0.350000X0.650000X0.350000X-0.650000X0.350000X-0.650000X-0.350000X0*%
%ADD41RoundRect,0.175000X-0.450000X0.175000X-0.450000X-0.175000X0.450000X-0.175000X0.450000X0.175000X0*%
G04 APERTURE END LIST*
D10*
X104696428Y-50544742D02*
X104363095Y-49973314D01*
X104125000Y-50544742D02*
X104125000Y-49344742D01*
X104125000Y-49344742D02*
X104505952Y-49344742D01*
X104505952Y-49344742D02*
X104601190Y-49401885D01*
X104601190Y-49401885D02*
X104648809Y-49459028D01*
X104648809Y-49459028D02*
X104696428Y-49573314D01*
X104696428Y-49573314D02*
X104696428Y-49744742D01*
X104696428Y-49744742D02*
X104648809Y-49859028D01*
X104648809Y-49859028D02*
X104601190Y-49916171D01*
X104601190Y-49916171D02*
X104505952Y-49973314D01*
X104505952Y-49973314D02*
X104125000Y-49973314D01*
X105125000Y-49916171D02*
X105458333Y-49916171D01*
X105601190Y-50544742D02*
X105125000Y-50544742D01*
X105125000Y-50544742D02*
X105125000Y-49344742D01*
X105125000Y-49344742D02*
X105601190Y-49344742D01*
X105886905Y-49344742D02*
X106220238Y-50544742D01*
X106220238Y-50544742D02*
X106553571Y-49344742D01*
X108172619Y-50544742D02*
X107601191Y-50544742D01*
X107886905Y-50544742D02*
X107886905Y-49344742D01*
X107886905Y-49344742D02*
X107791667Y-49516171D01*
X107791667Y-49516171D02*
X107696429Y-49630457D01*
X107696429Y-49630457D02*
X107601191Y-49687600D01*
D11*
X93561905Y-48042142D02*
X93561905Y-46842142D01*
X93561905Y-46842142D02*
X94095238Y-47699285D01*
X94095238Y-47699285D02*
X94628572Y-46842142D01*
X94628572Y-46842142D02*
X94628572Y-48042142D01*
X95390476Y-48042142D02*
X95390476Y-46842142D01*
X96152381Y-48042142D02*
X96152381Y-46842142D01*
X96152381Y-46842142D02*
X97066667Y-48042142D01*
X97066667Y-48042142D02*
X97066667Y-46842142D01*
X97828571Y-48042142D02*
X97828571Y-46842142D01*
X98590476Y-47585000D02*
X99809524Y-47585000D01*
X100571428Y-48042142D02*
X100571428Y-46842142D01*
X100571428Y-46842142D02*
X101104761Y-47699285D01*
X101104761Y-47699285D02*
X101638095Y-46842142D01*
X101638095Y-46842142D02*
X101638095Y-48042142D01*
X103314285Y-47927857D02*
X103238094Y-47985000D01*
X103238094Y-47985000D02*
X103009523Y-48042142D01*
X103009523Y-48042142D02*
X102857142Y-48042142D01*
X102857142Y-48042142D02*
X102628570Y-47985000D01*
X102628570Y-47985000D02*
X102476189Y-47870714D01*
X102476189Y-47870714D02*
X102399999Y-47756428D01*
X102399999Y-47756428D02*
X102323808Y-47527857D01*
X102323808Y-47527857D02*
X102323808Y-47356428D01*
X102323808Y-47356428D02*
X102399999Y-47127857D01*
X102399999Y-47127857D02*
X102476189Y-47013571D01*
X102476189Y-47013571D02*
X102628570Y-46899285D01*
X102628570Y-46899285D02*
X102857142Y-46842142D01*
X102857142Y-46842142D02*
X103009523Y-46842142D01*
X103009523Y-46842142D02*
X103238094Y-46899285D01*
X103238094Y-46899285D02*
X103314285Y-46956428D01*
X103847618Y-46842142D02*
X104914285Y-48042142D01*
X104914285Y-46842142D02*
X103847618Y-48042142D01*
X105523809Y-48042142D02*
X105523809Y-46842142D01*
X105523809Y-46842142D02*
X106438095Y-48042142D01*
X106438095Y-48042142D02*
X106438095Y-46842142D01*
D12*
X89000000Y-63125000D02*
X89375000Y-62625000D01*
X88250000Y-63125000D02*
X89000000Y-63125000D01*
X89125000Y-84375000D02*
X88125000Y-84375000D01*
X88625000Y-83875000D01*
X89125000Y-84375000D01*
G36*
X89125000Y-84375000D02*
G01*
X88125000Y-84375000D01*
X88625000Y-83875000D01*
X89125000Y-84375000D01*
G37*
X110000000Y-57375000D02*
X109250000Y-57375000D01*
X110875000Y-57625000D02*
X110000000Y-57375000D01*
X109000000Y-62000000D02*
X108875000Y-61625000D01*
X110625000Y-62250000D02*
X109000000Y-62000000D01*
X95625000Y-74125000D02*
X95875000Y-77125000D01*
X94875000Y-72375000D02*
X95625000Y-74125000D01*
X96125000Y-74875000D02*
X96500000Y-75625000D01*
X96250000Y-70875000D02*
X96125000Y-74875000D01*
X98149622Y-72125000D02*
X97375000Y-70875000D01*
X99500000Y-72250000D02*
X98149622Y-72125000D01*
X100000000Y-73880000D02*
X99500000Y-72250000D01*
X102750000Y-73500000D02*
X103500000Y-70875000D01*
X101625000Y-72250000D02*
X102000000Y-70875000D01*
X105375000Y-75375000D02*
X105375000Y-74375000D01*
X105875000Y-74875000D01*
X105375000Y-75375000D01*
G36*
X105875000Y-74875000D02*
G01*
X105375000Y-75375000D01*
X105375000Y-74375000D01*
X105875000Y-74875000D01*
G37*
X109327255Y-69106200D02*
X109498684Y-69144295D01*
X109498684Y-69144295D02*
X109784398Y-69144295D01*
X109784398Y-69144295D02*
X109898684Y-69106200D01*
X109898684Y-69106200D02*
X109955826Y-69068104D01*
X109955826Y-69068104D02*
X110012969Y-68991914D01*
X110012969Y-68991914D02*
X110012969Y-68915723D01*
X110012969Y-68915723D02*
X109955826Y-68839533D01*
X109955826Y-68839533D02*
X109898684Y-68801438D01*
X109898684Y-68801438D02*
X109784398Y-68763342D01*
X109784398Y-68763342D02*
X109555826Y-68725247D01*
X109555826Y-68725247D02*
X109441541Y-68687152D01*
X109441541Y-68687152D02*
X109384398Y-68649057D01*
X109384398Y-68649057D02*
X109327255Y-68572866D01*
X109327255Y-68572866D02*
X109327255Y-68496676D01*
X109327255Y-68496676D02*
X109384398Y-68420485D01*
X109384398Y-68420485D02*
X109441541Y-68382390D01*
X109441541Y-68382390D02*
X109555826Y-68344295D01*
X109555826Y-68344295D02*
X109841541Y-68344295D01*
X109841541Y-68344295D02*
X110012969Y-68382390D01*
X110412969Y-68344295D02*
X110698683Y-69144295D01*
X110698683Y-69144295D02*
X110927255Y-68572866D01*
X110927255Y-68572866D02*
X111155826Y-69144295D01*
X111155826Y-69144295D02*
X111441541Y-68344295D01*
X111898684Y-69144295D02*
X111898684Y-68344295D01*
X111898684Y-68344295D02*
X112184398Y-68344295D01*
X112184398Y-68344295D02*
X112355827Y-68382390D01*
X112355827Y-68382390D02*
X112470112Y-68458580D01*
X112470112Y-68458580D02*
X112527255Y-68534771D01*
X112527255Y-68534771D02*
X112584398Y-68687152D01*
X112584398Y-68687152D02*
X112584398Y-68801438D01*
X112584398Y-68801438D02*
X112527255Y-68953819D01*
X112527255Y-68953819D02*
X112470112Y-69030009D01*
X112470112Y-69030009D02*
X112355827Y-69106200D01*
X112355827Y-69106200D02*
X112184398Y-69144295D01*
X112184398Y-69144295D02*
X111898684Y-69144295D01*
X105000000Y-75750000D02*
X109250000Y-77750000D01*
D10*
X91843409Y-71432707D02*
X91891028Y-71261279D01*
X91891028Y-71261279D02*
X91938647Y-71204136D01*
X91938647Y-71204136D02*
X92033885Y-71146993D01*
X92033885Y-71146993D02*
X92176742Y-71146993D01*
X92176742Y-71146993D02*
X92271980Y-71204136D01*
X92271980Y-71204136D02*
X92319600Y-71261279D01*
X92319600Y-71261279D02*
X92367219Y-71375564D01*
X92367219Y-71375564D02*
X92367219Y-71832707D01*
X92367219Y-71832707D02*
X91367219Y-71832707D01*
X91367219Y-71832707D02*
X91367219Y-71432707D01*
X91367219Y-71432707D02*
X91414838Y-71318422D01*
X91414838Y-71318422D02*
X91462457Y-71261279D01*
X91462457Y-71261279D02*
X91557695Y-71204136D01*
X91557695Y-71204136D02*
X91652933Y-71204136D01*
X91652933Y-71204136D02*
X91748171Y-71261279D01*
X91748171Y-71261279D02*
X91795790Y-71318422D01*
X91795790Y-71318422D02*
X91843409Y-71432707D01*
X91843409Y-71432707D02*
X91843409Y-71832707D01*
X91367219Y-70404136D02*
X91367219Y-70175564D01*
X91367219Y-70175564D02*
X91414838Y-70061279D01*
X91414838Y-70061279D02*
X91510076Y-69946993D01*
X91510076Y-69946993D02*
X91700552Y-69889850D01*
X91700552Y-69889850D02*
X92033885Y-69889850D01*
X92033885Y-69889850D02*
X92224361Y-69946993D01*
X92224361Y-69946993D02*
X92319600Y-70061279D01*
X92319600Y-70061279D02*
X92367219Y-70175564D01*
X92367219Y-70175564D02*
X92367219Y-70404136D01*
X92367219Y-70404136D02*
X92319600Y-70518422D01*
X92319600Y-70518422D02*
X92224361Y-70632707D01*
X92224361Y-70632707D02*
X92033885Y-70689850D01*
X92033885Y-70689850D02*
X91700552Y-70689850D01*
X91700552Y-70689850D02*
X91510076Y-70632707D01*
X91510076Y-70632707D02*
X91414838Y-70518422D01*
X91414838Y-70518422D02*
X91367219Y-70404136D01*
X91367219Y-69146993D02*
X91367219Y-68918421D01*
X91367219Y-68918421D02*
X91414838Y-68804136D01*
X91414838Y-68804136D02*
X91510076Y-68689850D01*
X91510076Y-68689850D02*
X91700552Y-68632707D01*
X91700552Y-68632707D02*
X92033885Y-68632707D01*
X92033885Y-68632707D02*
X92224361Y-68689850D01*
X92224361Y-68689850D02*
X92319600Y-68804136D01*
X92319600Y-68804136D02*
X92367219Y-68918421D01*
X92367219Y-68918421D02*
X92367219Y-69146993D01*
X92367219Y-69146993D02*
X92319600Y-69261279D01*
X92319600Y-69261279D02*
X92224361Y-69375564D01*
X92224361Y-69375564D02*
X92033885Y-69432707D01*
X92033885Y-69432707D02*
X91700552Y-69432707D01*
X91700552Y-69432707D02*
X91510076Y-69375564D01*
X91510076Y-69375564D02*
X91414838Y-69261279D01*
X91414838Y-69261279D02*
X91367219Y-69146993D01*
X91367219Y-68289850D02*
X91367219Y-67604136D01*
X92367219Y-67946993D02*
X91367219Y-67946993D01*
X88103006Y-86617219D02*
X87703006Y-86141028D01*
X87417292Y-86617219D02*
X87417292Y-85617219D01*
X87417292Y-85617219D02*
X87874435Y-85617219D01*
X87874435Y-85617219D02*
X87988720Y-85664838D01*
X87988720Y-85664838D02*
X88045863Y-85712457D01*
X88045863Y-85712457D02*
X88103006Y-85807695D01*
X88103006Y-85807695D02*
X88103006Y-85950552D01*
X88103006Y-85950552D02*
X88045863Y-86045790D01*
X88045863Y-86045790D02*
X87988720Y-86093409D01*
X87988720Y-86093409D02*
X87874435Y-86141028D01*
X87874435Y-86141028D02*
X87417292Y-86141028D01*
X88560149Y-86569600D02*
X88731578Y-86617219D01*
X88731578Y-86617219D02*
X89017292Y-86617219D01*
X89017292Y-86617219D02*
X89131578Y-86569600D01*
X89131578Y-86569600D02*
X89188720Y-86521980D01*
X89188720Y-86521980D02*
X89245863Y-86426742D01*
X89245863Y-86426742D02*
X89245863Y-86331504D01*
X89245863Y-86331504D02*
X89188720Y-86236266D01*
X89188720Y-86236266D02*
X89131578Y-86188647D01*
X89131578Y-86188647D02*
X89017292Y-86141028D01*
X89017292Y-86141028D02*
X88788720Y-86093409D01*
X88788720Y-86093409D02*
X88674435Y-86045790D01*
X88674435Y-86045790D02*
X88617292Y-85998171D01*
X88617292Y-85998171D02*
X88560149Y-85902933D01*
X88560149Y-85902933D02*
X88560149Y-85807695D01*
X88560149Y-85807695D02*
X88617292Y-85712457D01*
X88617292Y-85712457D02*
X88674435Y-85664838D01*
X88674435Y-85664838D02*
X88788720Y-85617219D01*
X88788720Y-85617219D02*
X89074435Y-85617219D01*
X89074435Y-85617219D02*
X89245863Y-85664838D01*
X89588720Y-85617219D02*
X90274435Y-85617219D01*
X89931577Y-86617219D02*
X89931577Y-85617219D01*
D12*
X92985714Y-59661104D02*
X92947618Y-59699200D01*
X92947618Y-59699200D02*
X92833333Y-59737295D01*
X92833333Y-59737295D02*
X92757142Y-59737295D01*
X92757142Y-59737295D02*
X92642856Y-59699200D01*
X92642856Y-59699200D02*
X92566666Y-59623009D01*
X92566666Y-59623009D02*
X92528571Y-59546819D01*
X92528571Y-59546819D02*
X92490475Y-59394438D01*
X92490475Y-59394438D02*
X92490475Y-59280152D01*
X92490475Y-59280152D02*
X92528571Y-59127771D01*
X92528571Y-59127771D02*
X92566666Y-59051580D01*
X92566666Y-59051580D02*
X92642856Y-58975390D01*
X92642856Y-58975390D02*
X92757142Y-58937295D01*
X92757142Y-58937295D02*
X92833333Y-58937295D01*
X92833333Y-58937295D02*
X92947618Y-58975390D01*
X92947618Y-58975390D02*
X92985714Y-59013485D01*
X93290475Y-59013485D02*
X93328571Y-58975390D01*
X93328571Y-58975390D02*
X93404761Y-58937295D01*
X93404761Y-58937295D02*
X93595237Y-58937295D01*
X93595237Y-58937295D02*
X93671428Y-58975390D01*
X93671428Y-58975390D02*
X93709523Y-59013485D01*
X93709523Y-59013485D02*
X93747618Y-59089676D01*
X93747618Y-59089676D02*
X93747618Y-59165866D01*
X93747618Y-59165866D02*
X93709523Y-59280152D01*
X93709523Y-59280152D02*
X93252380Y-59737295D01*
X93252380Y-59737295D02*
X93747618Y-59737295D01*
X94014285Y-58937295D02*
X94547619Y-58937295D01*
X94547619Y-58937295D02*
X94204761Y-59737295D01*
X99610714Y-71536104D02*
X99572618Y-71574200D01*
X99572618Y-71574200D02*
X99458333Y-71612295D01*
X99458333Y-71612295D02*
X99382142Y-71612295D01*
X99382142Y-71612295D02*
X99267856Y-71574200D01*
X99267856Y-71574200D02*
X99191666Y-71498009D01*
X99191666Y-71498009D02*
X99153571Y-71421819D01*
X99153571Y-71421819D02*
X99115475Y-71269438D01*
X99115475Y-71269438D02*
X99115475Y-71155152D01*
X99115475Y-71155152D02*
X99153571Y-71002771D01*
X99153571Y-71002771D02*
X99191666Y-70926580D01*
X99191666Y-70926580D02*
X99267856Y-70850390D01*
X99267856Y-70850390D02*
X99382142Y-70812295D01*
X99382142Y-70812295D02*
X99458333Y-70812295D01*
X99458333Y-70812295D02*
X99572618Y-70850390D01*
X99572618Y-70850390D02*
X99610714Y-70888485D01*
X100372618Y-71612295D02*
X99915475Y-71612295D01*
X100144047Y-71612295D02*
X100144047Y-70812295D01*
X100144047Y-70812295D02*
X100067856Y-70926580D01*
X100067856Y-70926580D02*
X99991666Y-71002771D01*
X99991666Y-71002771D02*
X99915475Y-71040866D01*
X101096428Y-70812295D02*
X100715476Y-70812295D01*
X100715476Y-70812295D02*
X100677380Y-71193247D01*
X100677380Y-71193247D02*
X100715476Y-71155152D01*
X100715476Y-71155152D02*
X100791666Y-71117057D01*
X100791666Y-71117057D02*
X100982142Y-71117057D01*
X100982142Y-71117057D02*
X101058333Y-71155152D01*
X101058333Y-71155152D02*
X101096428Y-71193247D01*
X101096428Y-71193247D02*
X101134523Y-71269438D01*
X101134523Y-71269438D02*
X101134523Y-71459914D01*
X101134523Y-71459914D02*
X101096428Y-71536104D01*
X101096428Y-71536104D02*
X101058333Y-71574200D01*
X101058333Y-71574200D02*
X100982142Y-71612295D01*
X100982142Y-71612295D02*
X100791666Y-71612295D01*
X100791666Y-71612295D02*
X100715476Y-71574200D01*
X100715476Y-71574200D02*
X100677380Y-71536104D01*
X91360714Y-87737295D02*
X91094047Y-87356342D01*
X90903571Y-87737295D02*
X90903571Y-86937295D01*
X90903571Y-86937295D02*
X91208333Y-86937295D01*
X91208333Y-86937295D02*
X91284523Y-86975390D01*
X91284523Y-86975390D02*
X91322618Y-87013485D01*
X91322618Y-87013485D02*
X91360714Y-87089676D01*
X91360714Y-87089676D02*
X91360714Y-87203961D01*
X91360714Y-87203961D02*
X91322618Y-87280152D01*
X91322618Y-87280152D02*
X91284523Y-87318247D01*
X91284523Y-87318247D02*
X91208333Y-87356342D01*
X91208333Y-87356342D02*
X90903571Y-87356342D01*
X92122618Y-87737295D02*
X91665475Y-87737295D01*
X91894047Y-87737295D02*
X91894047Y-86937295D01*
X91894047Y-86937295D02*
X91817856Y-87051580D01*
X91817856Y-87051580D02*
X91741666Y-87127771D01*
X91741666Y-87127771D02*
X91665475Y-87165866D01*
X92389285Y-86937295D02*
X92884523Y-86937295D01*
X92884523Y-86937295D02*
X92617857Y-87242057D01*
X92617857Y-87242057D02*
X92732142Y-87242057D01*
X92732142Y-87242057D02*
X92808333Y-87280152D01*
X92808333Y-87280152D02*
X92846428Y-87318247D01*
X92846428Y-87318247D02*
X92884523Y-87394438D01*
X92884523Y-87394438D02*
X92884523Y-87584914D01*
X92884523Y-87584914D02*
X92846428Y-87661104D01*
X92846428Y-87661104D02*
X92808333Y-87699200D01*
X92808333Y-87699200D02*
X92732142Y-87737295D01*
X92732142Y-87737295D02*
X92503571Y-87737295D01*
X92503571Y-87737295D02*
X92427380Y-87699200D01*
X92427380Y-87699200D02*
X92389285Y-87661104D01*
X88485714Y-55036104D02*
X88447618Y-55074200D01*
X88447618Y-55074200D02*
X88333333Y-55112295D01*
X88333333Y-55112295D02*
X88257142Y-55112295D01*
X88257142Y-55112295D02*
X88142856Y-55074200D01*
X88142856Y-55074200D02*
X88066666Y-54998009D01*
X88066666Y-54998009D02*
X88028571Y-54921819D01*
X88028571Y-54921819D02*
X87990475Y-54769438D01*
X87990475Y-54769438D02*
X87990475Y-54655152D01*
X87990475Y-54655152D02*
X88028571Y-54502771D01*
X88028571Y-54502771D02*
X88066666Y-54426580D01*
X88066666Y-54426580D02*
X88142856Y-54350390D01*
X88142856Y-54350390D02*
X88257142Y-54312295D01*
X88257142Y-54312295D02*
X88333333Y-54312295D01*
X88333333Y-54312295D02*
X88447618Y-54350390D01*
X88447618Y-54350390D02*
X88485714Y-54388485D01*
X88790475Y-54388485D02*
X88828571Y-54350390D01*
X88828571Y-54350390D02*
X88904761Y-54312295D01*
X88904761Y-54312295D02*
X89095237Y-54312295D01*
X89095237Y-54312295D02*
X89171428Y-54350390D01*
X89171428Y-54350390D02*
X89209523Y-54388485D01*
X89209523Y-54388485D02*
X89247618Y-54464676D01*
X89247618Y-54464676D02*
X89247618Y-54540866D01*
X89247618Y-54540866D02*
X89209523Y-54655152D01*
X89209523Y-54655152D02*
X88752380Y-55112295D01*
X88752380Y-55112295D02*
X89247618Y-55112295D01*
X89933333Y-54312295D02*
X89780952Y-54312295D01*
X89780952Y-54312295D02*
X89704761Y-54350390D01*
X89704761Y-54350390D02*
X89666666Y-54388485D01*
X89666666Y-54388485D02*
X89590476Y-54502771D01*
X89590476Y-54502771D02*
X89552380Y-54655152D01*
X89552380Y-54655152D02*
X89552380Y-54959914D01*
X89552380Y-54959914D02*
X89590476Y-55036104D01*
X89590476Y-55036104D02*
X89628571Y-55074200D01*
X89628571Y-55074200D02*
X89704761Y-55112295D01*
X89704761Y-55112295D02*
X89857142Y-55112295D01*
X89857142Y-55112295D02*
X89933333Y-55074200D01*
X89933333Y-55074200D02*
X89971428Y-55036104D01*
X89971428Y-55036104D02*
X90009523Y-54959914D01*
X90009523Y-54959914D02*
X90009523Y-54769438D01*
X90009523Y-54769438D02*
X89971428Y-54693247D01*
X89971428Y-54693247D02*
X89933333Y-54655152D01*
X89933333Y-54655152D02*
X89857142Y-54617057D01*
X89857142Y-54617057D02*
X89704761Y-54617057D01*
X89704761Y-54617057D02*
X89628571Y-54655152D01*
X89628571Y-54655152D02*
X89590476Y-54693247D01*
X89590476Y-54693247D02*
X89552380Y-54769438D01*
X88036104Y-63133332D02*
X88074200Y-63171428D01*
X88074200Y-63171428D02*
X88112295Y-63285713D01*
X88112295Y-63285713D02*
X88112295Y-63361904D01*
X88112295Y-63361904D02*
X88074200Y-63476190D01*
X88074200Y-63476190D02*
X87998009Y-63552380D01*
X87998009Y-63552380D02*
X87921819Y-63590475D01*
X87921819Y-63590475D02*
X87769438Y-63628571D01*
X87769438Y-63628571D02*
X87655152Y-63628571D01*
X87655152Y-63628571D02*
X87502771Y-63590475D01*
X87502771Y-63590475D02*
X87426580Y-63552380D01*
X87426580Y-63552380D02*
X87350390Y-63476190D01*
X87350390Y-63476190D02*
X87312295Y-63361904D01*
X87312295Y-63361904D02*
X87312295Y-63285713D01*
X87312295Y-63285713D02*
X87350390Y-63171428D01*
X87350390Y-63171428D02*
X87388485Y-63133332D01*
X88112295Y-62371428D02*
X88112295Y-62828571D01*
X88112295Y-62599999D02*
X87312295Y-62599999D01*
X87312295Y-62599999D02*
X87426580Y-62676190D01*
X87426580Y-62676190D02*
X87502771Y-62752380D01*
X87502771Y-62752380D02*
X87540866Y-62828571D01*
X88036104Y-61258332D02*
X88074200Y-61296428D01*
X88074200Y-61296428D02*
X88112295Y-61410713D01*
X88112295Y-61410713D02*
X88112295Y-61486904D01*
X88112295Y-61486904D02*
X88074200Y-61601190D01*
X88074200Y-61601190D02*
X87998009Y-61677380D01*
X87998009Y-61677380D02*
X87921819Y-61715475D01*
X87921819Y-61715475D02*
X87769438Y-61753571D01*
X87769438Y-61753571D02*
X87655152Y-61753571D01*
X87655152Y-61753571D02*
X87502771Y-61715475D01*
X87502771Y-61715475D02*
X87426580Y-61677380D01*
X87426580Y-61677380D02*
X87350390Y-61601190D01*
X87350390Y-61601190D02*
X87312295Y-61486904D01*
X87312295Y-61486904D02*
X87312295Y-61410713D01*
X87312295Y-61410713D02*
X87350390Y-61296428D01*
X87350390Y-61296428D02*
X87388485Y-61258332D01*
X88112295Y-60877380D02*
X88112295Y-60724999D01*
X88112295Y-60724999D02*
X88074200Y-60648809D01*
X88074200Y-60648809D02*
X88036104Y-60610713D01*
X88036104Y-60610713D02*
X87921819Y-60534523D01*
X87921819Y-60534523D02*
X87769438Y-60496428D01*
X87769438Y-60496428D02*
X87464676Y-60496428D01*
X87464676Y-60496428D02*
X87388485Y-60534523D01*
X87388485Y-60534523D02*
X87350390Y-60572618D01*
X87350390Y-60572618D02*
X87312295Y-60648809D01*
X87312295Y-60648809D02*
X87312295Y-60801190D01*
X87312295Y-60801190D02*
X87350390Y-60877380D01*
X87350390Y-60877380D02*
X87388485Y-60915475D01*
X87388485Y-60915475D02*
X87464676Y-60953571D01*
X87464676Y-60953571D02*
X87655152Y-60953571D01*
X87655152Y-60953571D02*
X87731342Y-60915475D01*
X87731342Y-60915475D02*
X87769438Y-60877380D01*
X87769438Y-60877380D02*
X87807533Y-60801190D01*
X87807533Y-60801190D02*
X87807533Y-60648809D01*
X87807533Y-60648809D02*
X87769438Y-60572618D01*
X87769438Y-60572618D02*
X87731342Y-60534523D01*
X87731342Y-60534523D02*
X87655152Y-60496428D01*
X90541666Y-46829819D02*
X90541666Y-47544104D01*
X90541666Y-47544104D02*
X90494047Y-47686961D01*
X90494047Y-47686961D02*
X90398809Y-47782200D01*
X90398809Y-47782200D02*
X90255952Y-47829819D01*
X90255952Y-47829819D02*
X90160714Y-47829819D01*
X91446428Y-47163152D02*
X91446428Y-47829819D01*
X91208333Y-46782200D02*
X90970238Y-47496485D01*
X90970238Y-47496485D02*
X91589285Y-47496485D01*
X109110714Y-51862295D02*
X108844047Y-51481342D01*
X108653571Y-51862295D02*
X108653571Y-51062295D01*
X108653571Y-51062295D02*
X108958333Y-51062295D01*
X108958333Y-51062295D02*
X109034523Y-51100390D01*
X109034523Y-51100390D02*
X109072618Y-51138485D01*
X109072618Y-51138485D02*
X109110714Y-51214676D01*
X109110714Y-51214676D02*
X109110714Y-51328961D01*
X109110714Y-51328961D02*
X109072618Y-51405152D01*
X109072618Y-51405152D02*
X109034523Y-51443247D01*
X109034523Y-51443247D02*
X108958333Y-51481342D01*
X108958333Y-51481342D02*
X108653571Y-51481342D01*
X109872618Y-51862295D02*
X109415475Y-51862295D01*
X109644047Y-51862295D02*
X109644047Y-51062295D01*
X109644047Y-51062295D02*
X109567856Y-51176580D01*
X109567856Y-51176580D02*
X109491666Y-51252771D01*
X109491666Y-51252771D02*
X109415475Y-51290866D01*
X110558333Y-51328961D02*
X110558333Y-51862295D01*
X110367857Y-51024200D02*
X110177380Y-51595628D01*
X110177380Y-51595628D02*
X110672619Y-51595628D01*
X102116667Y-50911104D02*
X102078571Y-50949200D01*
X102078571Y-50949200D02*
X101964286Y-50987295D01*
X101964286Y-50987295D02*
X101888095Y-50987295D01*
X101888095Y-50987295D02*
X101773809Y-50949200D01*
X101773809Y-50949200D02*
X101697619Y-50873009D01*
X101697619Y-50873009D02*
X101659524Y-50796819D01*
X101659524Y-50796819D02*
X101621428Y-50644438D01*
X101621428Y-50644438D02*
X101621428Y-50530152D01*
X101621428Y-50530152D02*
X101659524Y-50377771D01*
X101659524Y-50377771D02*
X101697619Y-50301580D01*
X101697619Y-50301580D02*
X101773809Y-50225390D01*
X101773809Y-50225390D02*
X101888095Y-50187295D01*
X101888095Y-50187295D02*
X101964286Y-50187295D01*
X101964286Y-50187295D02*
X102078571Y-50225390D01*
X102078571Y-50225390D02*
X102116667Y-50263485D01*
X102383333Y-50187295D02*
X102878571Y-50187295D01*
X102878571Y-50187295D02*
X102611905Y-50492057D01*
X102611905Y-50492057D02*
X102726190Y-50492057D01*
X102726190Y-50492057D02*
X102802381Y-50530152D01*
X102802381Y-50530152D02*
X102840476Y-50568247D01*
X102840476Y-50568247D02*
X102878571Y-50644438D01*
X102878571Y-50644438D02*
X102878571Y-50834914D01*
X102878571Y-50834914D02*
X102840476Y-50911104D01*
X102840476Y-50911104D02*
X102802381Y-50949200D01*
X102802381Y-50949200D02*
X102726190Y-50987295D01*
X102726190Y-50987295D02*
X102497619Y-50987295D01*
X102497619Y-50987295D02*
X102421428Y-50949200D01*
X102421428Y-50949200D02*
X102383333Y-50911104D01*
X111491667Y-58161104D02*
X111453571Y-58199200D01*
X111453571Y-58199200D02*
X111339286Y-58237295D01*
X111339286Y-58237295D02*
X111263095Y-58237295D01*
X111263095Y-58237295D02*
X111148809Y-58199200D01*
X111148809Y-58199200D02*
X111072619Y-58123009D01*
X111072619Y-58123009D02*
X111034524Y-58046819D01*
X111034524Y-58046819D02*
X110996428Y-57894438D01*
X110996428Y-57894438D02*
X110996428Y-57780152D01*
X110996428Y-57780152D02*
X111034524Y-57627771D01*
X111034524Y-57627771D02*
X111072619Y-57551580D01*
X111072619Y-57551580D02*
X111148809Y-57475390D01*
X111148809Y-57475390D02*
X111263095Y-57437295D01*
X111263095Y-57437295D02*
X111339286Y-57437295D01*
X111339286Y-57437295D02*
X111453571Y-57475390D01*
X111453571Y-57475390D02*
X111491667Y-57513485D01*
X112215476Y-57437295D02*
X111834524Y-57437295D01*
X111834524Y-57437295D02*
X111796428Y-57818247D01*
X111796428Y-57818247D02*
X111834524Y-57780152D01*
X111834524Y-57780152D02*
X111910714Y-57742057D01*
X111910714Y-57742057D02*
X112101190Y-57742057D01*
X112101190Y-57742057D02*
X112177381Y-57780152D01*
X112177381Y-57780152D02*
X112215476Y-57818247D01*
X112215476Y-57818247D02*
X112253571Y-57894438D01*
X112253571Y-57894438D02*
X112253571Y-58084914D01*
X112253571Y-58084914D02*
X112215476Y-58161104D01*
X112215476Y-58161104D02*
X112177381Y-58199200D01*
X112177381Y-58199200D02*
X112101190Y-58237295D01*
X112101190Y-58237295D02*
X111910714Y-58237295D01*
X111910714Y-58237295D02*
X111834524Y-58199200D01*
X111834524Y-58199200D02*
X111796428Y-58161104D01*
X101860714Y-74411104D02*
X101822618Y-74449200D01*
X101822618Y-74449200D02*
X101708333Y-74487295D01*
X101708333Y-74487295D02*
X101632142Y-74487295D01*
X101632142Y-74487295D02*
X101517856Y-74449200D01*
X101517856Y-74449200D02*
X101441666Y-74373009D01*
X101441666Y-74373009D02*
X101403571Y-74296819D01*
X101403571Y-74296819D02*
X101365475Y-74144438D01*
X101365475Y-74144438D02*
X101365475Y-74030152D01*
X101365475Y-74030152D02*
X101403571Y-73877771D01*
X101403571Y-73877771D02*
X101441666Y-73801580D01*
X101441666Y-73801580D02*
X101517856Y-73725390D01*
X101517856Y-73725390D02*
X101632142Y-73687295D01*
X101632142Y-73687295D02*
X101708333Y-73687295D01*
X101708333Y-73687295D02*
X101822618Y-73725390D01*
X101822618Y-73725390D02*
X101860714Y-73763485D01*
X102622618Y-74487295D02*
X102165475Y-74487295D01*
X102394047Y-74487295D02*
X102394047Y-73687295D01*
X102394047Y-73687295D02*
X102317856Y-73801580D01*
X102317856Y-73801580D02*
X102241666Y-73877771D01*
X102241666Y-73877771D02*
X102165475Y-73915866D01*
X103384523Y-74487295D02*
X102927380Y-74487295D01*
X103155952Y-74487295D02*
X103155952Y-73687295D01*
X103155952Y-73687295D02*
X103079761Y-73801580D01*
X103079761Y-73801580D02*
X103003571Y-73877771D01*
X103003571Y-73877771D02*
X102927380Y-73915866D01*
X100985714Y-73161104D02*
X100947618Y-73199200D01*
X100947618Y-73199200D02*
X100833333Y-73237295D01*
X100833333Y-73237295D02*
X100757142Y-73237295D01*
X100757142Y-73237295D02*
X100642856Y-73199200D01*
X100642856Y-73199200D02*
X100566666Y-73123009D01*
X100566666Y-73123009D02*
X100528571Y-73046819D01*
X100528571Y-73046819D02*
X100490475Y-72894438D01*
X100490475Y-72894438D02*
X100490475Y-72780152D01*
X100490475Y-72780152D02*
X100528571Y-72627771D01*
X100528571Y-72627771D02*
X100566666Y-72551580D01*
X100566666Y-72551580D02*
X100642856Y-72475390D01*
X100642856Y-72475390D02*
X100757142Y-72437295D01*
X100757142Y-72437295D02*
X100833333Y-72437295D01*
X100833333Y-72437295D02*
X100947618Y-72475390D01*
X100947618Y-72475390D02*
X100985714Y-72513485D01*
X101747618Y-73237295D02*
X101290475Y-73237295D01*
X101519047Y-73237295D02*
X101519047Y-72437295D01*
X101519047Y-72437295D02*
X101442856Y-72551580D01*
X101442856Y-72551580D02*
X101366666Y-72627771D01*
X101366666Y-72627771D02*
X101290475Y-72665866D01*
X102052380Y-72513485D02*
X102090476Y-72475390D01*
X102090476Y-72475390D02*
X102166666Y-72437295D01*
X102166666Y-72437295D02*
X102357142Y-72437295D01*
X102357142Y-72437295D02*
X102433333Y-72475390D01*
X102433333Y-72475390D02*
X102471428Y-72513485D01*
X102471428Y-72513485D02*
X102509523Y-72589676D01*
X102509523Y-72589676D02*
X102509523Y-72665866D01*
X102509523Y-72665866D02*
X102471428Y-72780152D01*
X102471428Y-72780152D02*
X102014285Y-73237295D01*
X102014285Y-73237295D02*
X102509523Y-73237295D01*
X110866667Y-63661104D02*
X110828571Y-63699200D01*
X110828571Y-63699200D02*
X110714286Y-63737295D01*
X110714286Y-63737295D02*
X110638095Y-63737295D01*
X110638095Y-63737295D02*
X110523809Y-63699200D01*
X110523809Y-63699200D02*
X110447619Y-63623009D01*
X110447619Y-63623009D02*
X110409524Y-63546819D01*
X110409524Y-63546819D02*
X110371428Y-63394438D01*
X110371428Y-63394438D02*
X110371428Y-63280152D01*
X110371428Y-63280152D02*
X110409524Y-63127771D01*
X110409524Y-63127771D02*
X110447619Y-63051580D01*
X110447619Y-63051580D02*
X110523809Y-62975390D01*
X110523809Y-62975390D02*
X110638095Y-62937295D01*
X110638095Y-62937295D02*
X110714286Y-62937295D01*
X110714286Y-62937295D02*
X110828571Y-62975390D01*
X110828571Y-62975390D02*
X110866667Y-63013485D01*
X111323809Y-63280152D02*
X111247619Y-63242057D01*
X111247619Y-63242057D02*
X111209524Y-63203961D01*
X111209524Y-63203961D02*
X111171428Y-63127771D01*
X111171428Y-63127771D02*
X111171428Y-63089676D01*
X111171428Y-63089676D02*
X111209524Y-63013485D01*
X111209524Y-63013485D02*
X111247619Y-62975390D01*
X111247619Y-62975390D02*
X111323809Y-62937295D01*
X111323809Y-62937295D02*
X111476190Y-62937295D01*
X111476190Y-62937295D02*
X111552381Y-62975390D01*
X111552381Y-62975390D02*
X111590476Y-63013485D01*
X111590476Y-63013485D02*
X111628571Y-63089676D01*
X111628571Y-63089676D02*
X111628571Y-63127771D01*
X111628571Y-63127771D02*
X111590476Y-63203961D01*
X111590476Y-63203961D02*
X111552381Y-63242057D01*
X111552381Y-63242057D02*
X111476190Y-63280152D01*
X111476190Y-63280152D02*
X111323809Y-63280152D01*
X111323809Y-63280152D02*
X111247619Y-63318247D01*
X111247619Y-63318247D02*
X111209524Y-63356342D01*
X111209524Y-63356342D02*
X111171428Y-63432533D01*
X111171428Y-63432533D02*
X111171428Y-63584914D01*
X111171428Y-63584914D02*
X111209524Y-63661104D01*
X111209524Y-63661104D02*
X111247619Y-63699200D01*
X111247619Y-63699200D02*
X111323809Y-63737295D01*
X111323809Y-63737295D02*
X111476190Y-63737295D01*
X111476190Y-63737295D02*
X111552381Y-63699200D01*
X111552381Y-63699200D02*
X111590476Y-63661104D01*
X111590476Y-63661104D02*
X111628571Y-63584914D01*
X111628571Y-63584914D02*
X111628571Y-63432533D01*
X111628571Y-63432533D02*
X111590476Y-63356342D01*
X111590476Y-63356342D02*
X111552381Y-63318247D01*
X111552381Y-63318247D02*
X111476190Y-63280152D01*
X88036104Y-66264285D02*
X88074200Y-66302381D01*
X88074200Y-66302381D02*
X88112295Y-66416666D01*
X88112295Y-66416666D02*
X88112295Y-66492857D01*
X88112295Y-66492857D02*
X88074200Y-66607143D01*
X88074200Y-66607143D02*
X87998009Y-66683333D01*
X87998009Y-66683333D02*
X87921819Y-66721428D01*
X87921819Y-66721428D02*
X87769438Y-66759524D01*
X87769438Y-66759524D02*
X87655152Y-66759524D01*
X87655152Y-66759524D02*
X87502771Y-66721428D01*
X87502771Y-66721428D02*
X87426580Y-66683333D01*
X87426580Y-66683333D02*
X87350390Y-66607143D01*
X87350390Y-66607143D02*
X87312295Y-66492857D01*
X87312295Y-66492857D02*
X87312295Y-66416666D01*
X87312295Y-66416666D02*
X87350390Y-66302381D01*
X87350390Y-66302381D02*
X87388485Y-66264285D01*
X88112295Y-65502381D02*
X88112295Y-65959524D01*
X88112295Y-65730952D02*
X87312295Y-65730952D01*
X87312295Y-65730952D02*
X87426580Y-65807143D01*
X87426580Y-65807143D02*
X87502771Y-65883333D01*
X87502771Y-65883333D02*
X87540866Y-65959524D01*
X87312295Y-65235714D02*
X87312295Y-64740476D01*
X87312295Y-64740476D02*
X87617057Y-65007142D01*
X87617057Y-65007142D02*
X87617057Y-64892857D01*
X87617057Y-64892857D02*
X87655152Y-64816666D01*
X87655152Y-64816666D02*
X87693247Y-64778571D01*
X87693247Y-64778571D02*
X87769438Y-64740476D01*
X87769438Y-64740476D02*
X87959914Y-64740476D01*
X87959914Y-64740476D02*
X88036104Y-64778571D01*
X88036104Y-64778571D02*
X88074200Y-64816666D01*
X88074200Y-64816666D02*
X88112295Y-64892857D01*
X88112295Y-64892857D02*
X88112295Y-65121428D01*
X88112295Y-65121428D02*
X88074200Y-65197619D01*
X88074200Y-65197619D02*
X88036104Y-65235714D01*
X111911104Y-56514285D02*
X111949200Y-56552381D01*
X111949200Y-56552381D02*
X111987295Y-56666666D01*
X111987295Y-56666666D02*
X111987295Y-56742857D01*
X111987295Y-56742857D02*
X111949200Y-56857143D01*
X111949200Y-56857143D02*
X111873009Y-56933333D01*
X111873009Y-56933333D02*
X111796819Y-56971428D01*
X111796819Y-56971428D02*
X111644438Y-57009524D01*
X111644438Y-57009524D02*
X111530152Y-57009524D01*
X111530152Y-57009524D02*
X111377771Y-56971428D01*
X111377771Y-56971428D02*
X111301580Y-56933333D01*
X111301580Y-56933333D02*
X111225390Y-56857143D01*
X111225390Y-56857143D02*
X111187295Y-56742857D01*
X111187295Y-56742857D02*
X111187295Y-56666666D01*
X111187295Y-56666666D02*
X111225390Y-56552381D01*
X111225390Y-56552381D02*
X111263485Y-56514285D01*
X111987295Y-55752381D02*
X111987295Y-56209524D01*
X111987295Y-55980952D02*
X111187295Y-55980952D01*
X111187295Y-55980952D02*
X111301580Y-56057143D01*
X111301580Y-56057143D02*
X111377771Y-56133333D01*
X111377771Y-56133333D02*
X111415866Y-56209524D01*
X111453961Y-55066666D02*
X111987295Y-55066666D01*
X111149200Y-55257142D02*
X111720628Y-55447619D01*
X111720628Y-55447619D02*
X111720628Y-54952380D01*
X103360714Y-76036104D02*
X103322618Y-76074200D01*
X103322618Y-76074200D02*
X103208333Y-76112295D01*
X103208333Y-76112295D02*
X103132142Y-76112295D01*
X103132142Y-76112295D02*
X103017856Y-76074200D01*
X103017856Y-76074200D02*
X102941666Y-75998009D01*
X102941666Y-75998009D02*
X102903571Y-75921819D01*
X102903571Y-75921819D02*
X102865475Y-75769438D01*
X102865475Y-75769438D02*
X102865475Y-75655152D01*
X102865475Y-75655152D02*
X102903571Y-75502771D01*
X102903571Y-75502771D02*
X102941666Y-75426580D01*
X102941666Y-75426580D02*
X103017856Y-75350390D01*
X103017856Y-75350390D02*
X103132142Y-75312295D01*
X103132142Y-75312295D02*
X103208333Y-75312295D01*
X103208333Y-75312295D02*
X103322618Y-75350390D01*
X103322618Y-75350390D02*
X103360714Y-75388485D01*
X103665475Y-75388485D02*
X103703571Y-75350390D01*
X103703571Y-75350390D02*
X103779761Y-75312295D01*
X103779761Y-75312295D02*
X103970237Y-75312295D01*
X103970237Y-75312295D02*
X104046428Y-75350390D01*
X104046428Y-75350390D02*
X104084523Y-75388485D01*
X104084523Y-75388485D02*
X104122618Y-75464676D01*
X104122618Y-75464676D02*
X104122618Y-75540866D01*
X104122618Y-75540866D02*
X104084523Y-75655152D01*
X104084523Y-75655152D02*
X103627380Y-76112295D01*
X103627380Y-76112295D02*
X104122618Y-76112295D01*
X104884523Y-76112295D02*
X104427380Y-76112295D01*
X104655952Y-76112295D02*
X104655952Y-75312295D01*
X104655952Y-75312295D02*
X104579761Y-75426580D01*
X104579761Y-75426580D02*
X104503571Y-75502771D01*
X104503571Y-75502771D02*
X104427380Y-75540866D01*
X96860714Y-76661104D02*
X96822618Y-76699200D01*
X96822618Y-76699200D02*
X96708333Y-76737295D01*
X96708333Y-76737295D02*
X96632142Y-76737295D01*
X96632142Y-76737295D02*
X96517856Y-76699200D01*
X96517856Y-76699200D02*
X96441666Y-76623009D01*
X96441666Y-76623009D02*
X96403571Y-76546819D01*
X96403571Y-76546819D02*
X96365475Y-76394438D01*
X96365475Y-76394438D02*
X96365475Y-76280152D01*
X96365475Y-76280152D02*
X96403571Y-76127771D01*
X96403571Y-76127771D02*
X96441666Y-76051580D01*
X96441666Y-76051580D02*
X96517856Y-75975390D01*
X96517856Y-75975390D02*
X96632142Y-75937295D01*
X96632142Y-75937295D02*
X96708333Y-75937295D01*
X96708333Y-75937295D02*
X96822618Y-75975390D01*
X96822618Y-75975390D02*
X96860714Y-76013485D01*
X97622618Y-76737295D02*
X97165475Y-76737295D01*
X97394047Y-76737295D02*
X97394047Y-75937295D01*
X97394047Y-75937295D02*
X97317856Y-76051580D01*
X97317856Y-76051580D02*
X97241666Y-76127771D01*
X97241666Y-76127771D02*
X97165475Y-76165866D01*
X98117857Y-75937295D02*
X98194047Y-75937295D01*
X98194047Y-75937295D02*
X98270238Y-75975390D01*
X98270238Y-75975390D02*
X98308333Y-76013485D01*
X98308333Y-76013485D02*
X98346428Y-76089676D01*
X98346428Y-76089676D02*
X98384523Y-76242057D01*
X98384523Y-76242057D02*
X98384523Y-76432533D01*
X98384523Y-76432533D02*
X98346428Y-76584914D01*
X98346428Y-76584914D02*
X98308333Y-76661104D01*
X98308333Y-76661104D02*
X98270238Y-76699200D01*
X98270238Y-76699200D02*
X98194047Y-76737295D01*
X98194047Y-76737295D02*
X98117857Y-76737295D01*
X98117857Y-76737295D02*
X98041666Y-76699200D01*
X98041666Y-76699200D02*
X98003571Y-76661104D01*
X98003571Y-76661104D02*
X97965476Y-76584914D01*
X97965476Y-76584914D02*
X97927380Y-76432533D01*
X97927380Y-76432533D02*
X97927380Y-76242057D01*
X97927380Y-76242057D02*
X97965476Y-76089676D01*
X97965476Y-76089676D02*
X98003571Y-76013485D01*
X98003571Y-76013485D02*
X98041666Y-75975390D01*
X98041666Y-75975390D02*
X98117857Y-75937295D01*
X111286104Y-66264285D02*
X111324200Y-66302381D01*
X111324200Y-66302381D02*
X111362295Y-66416666D01*
X111362295Y-66416666D02*
X111362295Y-66492857D01*
X111362295Y-66492857D02*
X111324200Y-66607143D01*
X111324200Y-66607143D02*
X111248009Y-66683333D01*
X111248009Y-66683333D02*
X111171819Y-66721428D01*
X111171819Y-66721428D02*
X111019438Y-66759524D01*
X111019438Y-66759524D02*
X110905152Y-66759524D01*
X110905152Y-66759524D02*
X110752771Y-66721428D01*
X110752771Y-66721428D02*
X110676580Y-66683333D01*
X110676580Y-66683333D02*
X110600390Y-66607143D01*
X110600390Y-66607143D02*
X110562295Y-66492857D01*
X110562295Y-66492857D02*
X110562295Y-66416666D01*
X110562295Y-66416666D02*
X110600390Y-66302381D01*
X110600390Y-66302381D02*
X110638485Y-66264285D01*
X111362295Y-65502381D02*
X111362295Y-65959524D01*
X111362295Y-65730952D02*
X110562295Y-65730952D01*
X110562295Y-65730952D02*
X110676580Y-65807143D01*
X110676580Y-65807143D02*
X110752771Y-65883333D01*
X110752771Y-65883333D02*
X110790866Y-65959524D01*
X110905152Y-65045238D02*
X110867057Y-65121428D01*
X110867057Y-65121428D02*
X110828961Y-65159523D01*
X110828961Y-65159523D02*
X110752771Y-65197619D01*
X110752771Y-65197619D02*
X110714676Y-65197619D01*
X110714676Y-65197619D02*
X110638485Y-65159523D01*
X110638485Y-65159523D02*
X110600390Y-65121428D01*
X110600390Y-65121428D02*
X110562295Y-65045238D01*
X110562295Y-65045238D02*
X110562295Y-64892857D01*
X110562295Y-64892857D02*
X110600390Y-64816666D01*
X110600390Y-64816666D02*
X110638485Y-64778571D01*
X110638485Y-64778571D02*
X110714676Y-64740476D01*
X110714676Y-64740476D02*
X110752771Y-64740476D01*
X110752771Y-64740476D02*
X110828961Y-64778571D01*
X110828961Y-64778571D02*
X110867057Y-64816666D01*
X110867057Y-64816666D02*
X110905152Y-64892857D01*
X110905152Y-64892857D02*
X110905152Y-65045238D01*
X110905152Y-65045238D02*
X110943247Y-65121428D01*
X110943247Y-65121428D02*
X110981342Y-65159523D01*
X110981342Y-65159523D02*
X111057533Y-65197619D01*
X111057533Y-65197619D02*
X111209914Y-65197619D01*
X111209914Y-65197619D02*
X111286104Y-65159523D01*
X111286104Y-65159523D02*
X111324200Y-65121428D01*
X111324200Y-65121428D02*
X111362295Y-65045238D01*
X111362295Y-65045238D02*
X111362295Y-64892857D01*
X111362295Y-64892857D02*
X111324200Y-64816666D01*
X111324200Y-64816666D02*
X111286104Y-64778571D01*
X111286104Y-64778571D02*
X111209914Y-64740476D01*
X111209914Y-64740476D02*
X111057533Y-64740476D01*
X111057533Y-64740476D02*
X110981342Y-64778571D01*
X110981342Y-64778571D02*
X110943247Y-64816666D01*
X110943247Y-64816666D02*
X110905152Y-64892857D01*
X93161104Y-91764285D02*
X93199200Y-91802381D01*
X93199200Y-91802381D02*
X93237295Y-91916666D01*
X93237295Y-91916666D02*
X93237295Y-91992857D01*
X93237295Y-91992857D02*
X93199200Y-92107143D01*
X93199200Y-92107143D02*
X93123009Y-92183333D01*
X93123009Y-92183333D02*
X93046819Y-92221428D01*
X93046819Y-92221428D02*
X92894438Y-92259524D01*
X92894438Y-92259524D02*
X92780152Y-92259524D01*
X92780152Y-92259524D02*
X92627771Y-92221428D01*
X92627771Y-92221428D02*
X92551580Y-92183333D01*
X92551580Y-92183333D02*
X92475390Y-92107143D01*
X92475390Y-92107143D02*
X92437295Y-91992857D01*
X92437295Y-91992857D02*
X92437295Y-91916666D01*
X92437295Y-91916666D02*
X92475390Y-91802381D01*
X92475390Y-91802381D02*
X92513485Y-91764285D01*
X92513485Y-91459524D02*
X92475390Y-91421428D01*
X92475390Y-91421428D02*
X92437295Y-91345238D01*
X92437295Y-91345238D02*
X92437295Y-91154762D01*
X92437295Y-91154762D02*
X92475390Y-91078571D01*
X92475390Y-91078571D02*
X92513485Y-91040476D01*
X92513485Y-91040476D02*
X92589676Y-91002381D01*
X92589676Y-91002381D02*
X92665866Y-91002381D01*
X92665866Y-91002381D02*
X92780152Y-91040476D01*
X92780152Y-91040476D02*
X93237295Y-91497619D01*
X93237295Y-91497619D02*
X93237295Y-91002381D01*
X92437295Y-90735714D02*
X92437295Y-90240476D01*
X92437295Y-90240476D02*
X92742057Y-90507142D01*
X92742057Y-90507142D02*
X92742057Y-90392857D01*
X92742057Y-90392857D02*
X92780152Y-90316666D01*
X92780152Y-90316666D02*
X92818247Y-90278571D01*
X92818247Y-90278571D02*
X92894438Y-90240476D01*
X92894438Y-90240476D02*
X93084914Y-90240476D01*
X93084914Y-90240476D02*
X93161104Y-90278571D01*
X93161104Y-90278571D02*
X93199200Y-90316666D01*
X93199200Y-90316666D02*
X93237295Y-90392857D01*
X93237295Y-90392857D02*
X93237295Y-90621428D01*
X93237295Y-90621428D02*
X93199200Y-90697619D01*
X93199200Y-90697619D02*
X93161104Y-90735714D01*
X99991667Y-74911104D02*
X99953571Y-74949200D01*
X99953571Y-74949200D02*
X99839286Y-74987295D01*
X99839286Y-74987295D02*
X99763095Y-74987295D01*
X99763095Y-74987295D02*
X99648809Y-74949200D01*
X99648809Y-74949200D02*
X99572619Y-74873009D01*
X99572619Y-74873009D02*
X99534524Y-74796819D01*
X99534524Y-74796819D02*
X99496428Y-74644438D01*
X99496428Y-74644438D02*
X99496428Y-74530152D01*
X99496428Y-74530152D02*
X99534524Y-74377771D01*
X99534524Y-74377771D02*
X99572619Y-74301580D01*
X99572619Y-74301580D02*
X99648809Y-74225390D01*
X99648809Y-74225390D02*
X99763095Y-74187295D01*
X99763095Y-74187295D02*
X99839286Y-74187295D01*
X99839286Y-74187295D02*
X99953571Y-74225390D01*
X99953571Y-74225390D02*
X99991667Y-74263485D01*
X100258333Y-74187295D02*
X100791667Y-74187295D01*
X100791667Y-74187295D02*
X100448809Y-74987295D01*
X97083333Y-74568247D02*
X96816667Y-74568247D01*
X96816667Y-74987295D02*
X96816667Y-74187295D01*
X96816667Y-74187295D02*
X97197619Y-74187295D01*
X97769047Y-74568247D02*
X97883333Y-74606342D01*
X97883333Y-74606342D02*
X97921428Y-74644438D01*
X97921428Y-74644438D02*
X97959524Y-74720628D01*
X97959524Y-74720628D02*
X97959524Y-74834914D01*
X97959524Y-74834914D02*
X97921428Y-74911104D01*
X97921428Y-74911104D02*
X97883333Y-74949200D01*
X97883333Y-74949200D02*
X97807143Y-74987295D01*
X97807143Y-74987295D02*
X97502381Y-74987295D01*
X97502381Y-74987295D02*
X97502381Y-74187295D01*
X97502381Y-74187295D02*
X97769047Y-74187295D01*
X97769047Y-74187295D02*
X97845238Y-74225390D01*
X97845238Y-74225390D02*
X97883333Y-74263485D01*
X97883333Y-74263485D02*
X97921428Y-74339676D01*
X97921428Y-74339676D02*
X97921428Y-74415866D01*
X97921428Y-74415866D02*
X97883333Y-74492057D01*
X97883333Y-74492057D02*
X97845238Y-74530152D01*
X97845238Y-74530152D02*
X97769047Y-74568247D01*
X97769047Y-74568247D02*
X97502381Y-74568247D01*
X98721428Y-74987295D02*
X98264285Y-74987295D01*
X98492857Y-74987295D02*
X98492857Y-74187295D01*
X98492857Y-74187295D02*
X98416666Y-74301580D01*
X98416666Y-74301580D02*
X98340476Y-74377771D01*
X98340476Y-74377771D02*
X98264285Y-74415866D01*
X103735714Y-80536104D02*
X103697618Y-80574200D01*
X103697618Y-80574200D02*
X103583333Y-80612295D01*
X103583333Y-80612295D02*
X103507142Y-80612295D01*
X103507142Y-80612295D02*
X103392856Y-80574200D01*
X103392856Y-80574200D02*
X103316666Y-80498009D01*
X103316666Y-80498009D02*
X103278571Y-80421819D01*
X103278571Y-80421819D02*
X103240475Y-80269438D01*
X103240475Y-80269438D02*
X103240475Y-80155152D01*
X103240475Y-80155152D02*
X103278571Y-80002771D01*
X103278571Y-80002771D02*
X103316666Y-79926580D01*
X103316666Y-79926580D02*
X103392856Y-79850390D01*
X103392856Y-79850390D02*
X103507142Y-79812295D01*
X103507142Y-79812295D02*
X103583333Y-79812295D01*
X103583333Y-79812295D02*
X103697618Y-79850390D01*
X103697618Y-79850390D02*
X103735714Y-79888485D01*
X104040475Y-79888485D02*
X104078571Y-79850390D01*
X104078571Y-79850390D02*
X104154761Y-79812295D01*
X104154761Y-79812295D02*
X104345237Y-79812295D01*
X104345237Y-79812295D02*
X104421428Y-79850390D01*
X104421428Y-79850390D02*
X104459523Y-79888485D01*
X104459523Y-79888485D02*
X104497618Y-79964676D01*
X104497618Y-79964676D02*
X104497618Y-80040866D01*
X104497618Y-80040866D02*
X104459523Y-80155152D01*
X104459523Y-80155152D02*
X104002380Y-80612295D01*
X104002380Y-80612295D02*
X104497618Y-80612295D01*
X104802380Y-79888485D02*
X104840476Y-79850390D01*
X104840476Y-79850390D02*
X104916666Y-79812295D01*
X104916666Y-79812295D02*
X105107142Y-79812295D01*
X105107142Y-79812295D02*
X105183333Y-79850390D01*
X105183333Y-79850390D02*
X105221428Y-79888485D01*
X105221428Y-79888485D02*
X105259523Y-79964676D01*
X105259523Y-79964676D02*
X105259523Y-80040866D01*
X105259523Y-80040866D02*
X105221428Y-80155152D01*
X105221428Y-80155152D02*
X104764285Y-80612295D01*
X104764285Y-80612295D02*
X105259523Y-80612295D01*
X109291666Y-48204819D02*
X109291666Y-48919104D01*
X109291666Y-48919104D02*
X109244047Y-49061961D01*
X109244047Y-49061961D02*
X109148809Y-49157200D01*
X109148809Y-49157200D02*
X109005952Y-49204819D01*
X109005952Y-49204819D02*
X108910714Y-49204819D01*
X109672619Y-48204819D02*
X110291666Y-48204819D01*
X110291666Y-48204819D02*
X109958333Y-48585771D01*
X109958333Y-48585771D02*
X110101190Y-48585771D01*
X110101190Y-48585771D02*
X110196428Y-48633390D01*
X110196428Y-48633390D02*
X110244047Y-48681009D01*
X110244047Y-48681009D02*
X110291666Y-48776247D01*
X110291666Y-48776247D02*
X110291666Y-49014342D01*
X110291666Y-49014342D02*
X110244047Y-49109580D01*
X110244047Y-49109580D02*
X110196428Y-49157200D01*
X110196428Y-49157200D02*
X110101190Y-49204819D01*
X110101190Y-49204819D02*
X109815476Y-49204819D01*
X109815476Y-49204819D02*
X109720238Y-49157200D01*
X109720238Y-49157200D02*
X109672619Y-49109580D01*
X93866667Y-49786104D02*
X93828571Y-49824200D01*
X93828571Y-49824200D02*
X93714286Y-49862295D01*
X93714286Y-49862295D02*
X93638095Y-49862295D01*
X93638095Y-49862295D02*
X93523809Y-49824200D01*
X93523809Y-49824200D02*
X93447619Y-49748009D01*
X93447619Y-49748009D02*
X93409524Y-49671819D01*
X93409524Y-49671819D02*
X93371428Y-49519438D01*
X93371428Y-49519438D02*
X93371428Y-49405152D01*
X93371428Y-49405152D02*
X93409524Y-49252771D01*
X93409524Y-49252771D02*
X93447619Y-49176580D01*
X93447619Y-49176580D02*
X93523809Y-49100390D01*
X93523809Y-49100390D02*
X93638095Y-49062295D01*
X93638095Y-49062295D02*
X93714286Y-49062295D01*
X93714286Y-49062295D02*
X93828571Y-49100390D01*
X93828571Y-49100390D02*
X93866667Y-49138485D01*
X94171428Y-49138485D02*
X94209524Y-49100390D01*
X94209524Y-49100390D02*
X94285714Y-49062295D01*
X94285714Y-49062295D02*
X94476190Y-49062295D01*
X94476190Y-49062295D02*
X94552381Y-49100390D01*
X94552381Y-49100390D02*
X94590476Y-49138485D01*
X94590476Y-49138485D02*
X94628571Y-49214676D01*
X94628571Y-49214676D02*
X94628571Y-49290866D01*
X94628571Y-49290866D02*
X94590476Y-49405152D01*
X94590476Y-49405152D02*
X94133333Y-49862295D01*
X94133333Y-49862295D02*
X94628571Y-49862295D01*
X107491667Y-52536104D02*
X107453571Y-52574200D01*
X107453571Y-52574200D02*
X107339286Y-52612295D01*
X107339286Y-52612295D02*
X107263095Y-52612295D01*
X107263095Y-52612295D02*
X107148809Y-52574200D01*
X107148809Y-52574200D02*
X107072619Y-52498009D01*
X107072619Y-52498009D02*
X107034524Y-52421819D01*
X107034524Y-52421819D02*
X106996428Y-52269438D01*
X106996428Y-52269438D02*
X106996428Y-52155152D01*
X106996428Y-52155152D02*
X107034524Y-52002771D01*
X107034524Y-52002771D02*
X107072619Y-51926580D01*
X107072619Y-51926580D02*
X107148809Y-51850390D01*
X107148809Y-51850390D02*
X107263095Y-51812295D01*
X107263095Y-51812295D02*
X107339286Y-51812295D01*
X107339286Y-51812295D02*
X107453571Y-51850390D01*
X107453571Y-51850390D02*
X107491667Y-51888485D01*
X108177381Y-51812295D02*
X108025000Y-51812295D01*
X108025000Y-51812295D02*
X107948809Y-51850390D01*
X107948809Y-51850390D02*
X107910714Y-51888485D01*
X107910714Y-51888485D02*
X107834524Y-52002771D01*
X107834524Y-52002771D02*
X107796428Y-52155152D01*
X107796428Y-52155152D02*
X107796428Y-52459914D01*
X107796428Y-52459914D02*
X107834524Y-52536104D01*
X107834524Y-52536104D02*
X107872619Y-52574200D01*
X107872619Y-52574200D02*
X107948809Y-52612295D01*
X107948809Y-52612295D02*
X108101190Y-52612295D01*
X108101190Y-52612295D02*
X108177381Y-52574200D01*
X108177381Y-52574200D02*
X108215476Y-52536104D01*
X108215476Y-52536104D02*
X108253571Y-52459914D01*
X108253571Y-52459914D02*
X108253571Y-52269438D01*
X108253571Y-52269438D02*
X108215476Y-52193247D01*
X108215476Y-52193247D02*
X108177381Y-52155152D01*
X108177381Y-52155152D02*
X108101190Y-52117057D01*
X108101190Y-52117057D02*
X107948809Y-52117057D01*
X107948809Y-52117057D02*
X107872619Y-52155152D01*
X107872619Y-52155152D02*
X107834524Y-52193247D01*
X107834524Y-52193247D02*
X107796428Y-52269438D01*
X112036104Y-60889285D02*
X112074200Y-60927381D01*
X112074200Y-60927381D02*
X112112295Y-61041666D01*
X112112295Y-61041666D02*
X112112295Y-61117857D01*
X112112295Y-61117857D02*
X112074200Y-61232143D01*
X112074200Y-61232143D02*
X111998009Y-61308333D01*
X111998009Y-61308333D02*
X111921819Y-61346428D01*
X111921819Y-61346428D02*
X111769438Y-61384524D01*
X111769438Y-61384524D02*
X111655152Y-61384524D01*
X111655152Y-61384524D02*
X111502771Y-61346428D01*
X111502771Y-61346428D02*
X111426580Y-61308333D01*
X111426580Y-61308333D02*
X111350390Y-61232143D01*
X111350390Y-61232143D02*
X111312295Y-61117857D01*
X111312295Y-61117857D02*
X111312295Y-61041666D01*
X111312295Y-61041666D02*
X111350390Y-60927381D01*
X111350390Y-60927381D02*
X111388485Y-60889285D01*
X112112295Y-60127381D02*
X112112295Y-60584524D01*
X112112295Y-60355952D02*
X111312295Y-60355952D01*
X111312295Y-60355952D02*
X111426580Y-60432143D01*
X111426580Y-60432143D02*
X111502771Y-60508333D01*
X111502771Y-60508333D02*
X111540866Y-60584524D01*
X111312295Y-59860714D02*
X111312295Y-59327380D01*
X111312295Y-59327380D02*
X112112295Y-59670238D01*
X93360714Y-93487295D02*
X93094047Y-93106342D01*
X92903571Y-93487295D02*
X92903571Y-92687295D01*
X92903571Y-92687295D02*
X93208333Y-92687295D01*
X93208333Y-92687295D02*
X93284523Y-92725390D01*
X93284523Y-92725390D02*
X93322618Y-92763485D01*
X93322618Y-92763485D02*
X93360714Y-92839676D01*
X93360714Y-92839676D02*
X93360714Y-92953961D01*
X93360714Y-92953961D02*
X93322618Y-93030152D01*
X93322618Y-93030152D02*
X93284523Y-93068247D01*
X93284523Y-93068247D02*
X93208333Y-93106342D01*
X93208333Y-93106342D02*
X92903571Y-93106342D01*
X94122618Y-93487295D02*
X93665475Y-93487295D01*
X93894047Y-93487295D02*
X93894047Y-92687295D01*
X93894047Y-92687295D02*
X93817856Y-92801580D01*
X93817856Y-92801580D02*
X93741666Y-92877771D01*
X93741666Y-92877771D02*
X93665475Y-92915866D01*
X94617857Y-92687295D02*
X94694047Y-92687295D01*
X94694047Y-92687295D02*
X94770238Y-92725390D01*
X94770238Y-92725390D02*
X94808333Y-92763485D01*
X94808333Y-92763485D02*
X94846428Y-92839676D01*
X94846428Y-92839676D02*
X94884523Y-92992057D01*
X94884523Y-92992057D02*
X94884523Y-93182533D01*
X94884523Y-93182533D02*
X94846428Y-93334914D01*
X94846428Y-93334914D02*
X94808333Y-93411104D01*
X94808333Y-93411104D02*
X94770238Y-93449200D01*
X94770238Y-93449200D02*
X94694047Y-93487295D01*
X94694047Y-93487295D02*
X94617857Y-93487295D01*
X94617857Y-93487295D02*
X94541666Y-93449200D01*
X94541666Y-93449200D02*
X94503571Y-93411104D01*
X94503571Y-93411104D02*
X94465476Y-93334914D01*
X94465476Y-93334914D02*
X94427380Y-93182533D01*
X94427380Y-93182533D02*
X94427380Y-92992057D01*
X94427380Y-92992057D02*
X94465476Y-92839676D01*
X94465476Y-92839676D02*
X94503571Y-92763485D01*
X94503571Y-92763485D02*
X94541666Y-92725390D01*
X94541666Y-92725390D02*
X94617857Y-92687295D01*
X102110714Y-49737295D02*
X101844047Y-49356342D01*
X101653571Y-49737295D02*
X101653571Y-48937295D01*
X101653571Y-48937295D02*
X101958333Y-48937295D01*
X101958333Y-48937295D02*
X102034523Y-48975390D01*
X102034523Y-48975390D02*
X102072618Y-49013485D01*
X102072618Y-49013485D02*
X102110714Y-49089676D01*
X102110714Y-49089676D02*
X102110714Y-49203961D01*
X102110714Y-49203961D02*
X102072618Y-49280152D01*
X102072618Y-49280152D02*
X102034523Y-49318247D01*
X102034523Y-49318247D02*
X101958333Y-49356342D01*
X101958333Y-49356342D02*
X101653571Y-49356342D01*
X102872618Y-49737295D02*
X102415475Y-49737295D01*
X102644047Y-49737295D02*
X102644047Y-48937295D01*
X102644047Y-48937295D02*
X102567856Y-49051580D01*
X102567856Y-49051580D02*
X102491666Y-49127771D01*
X102491666Y-49127771D02*
X102415475Y-49165866D01*
X103177380Y-49013485D02*
X103215476Y-48975390D01*
X103215476Y-48975390D02*
X103291666Y-48937295D01*
X103291666Y-48937295D02*
X103482142Y-48937295D01*
X103482142Y-48937295D02*
X103558333Y-48975390D01*
X103558333Y-48975390D02*
X103596428Y-49013485D01*
X103596428Y-49013485D02*
X103634523Y-49089676D01*
X103634523Y-49089676D02*
X103634523Y-49165866D01*
X103634523Y-49165866D02*
X103596428Y-49280152D01*
X103596428Y-49280152D02*
X103139285Y-49737295D01*
X103139285Y-49737295D02*
X103634523Y-49737295D01*
X104235714Y-73786104D02*
X104197618Y-73824200D01*
X104197618Y-73824200D02*
X104083333Y-73862295D01*
X104083333Y-73862295D02*
X104007142Y-73862295D01*
X104007142Y-73862295D02*
X103892856Y-73824200D01*
X103892856Y-73824200D02*
X103816666Y-73748009D01*
X103816666Y-73748009D02*
X103778571Y-73671819D01*
X103778571Y-73671819D02*
X103740475Y-73519438D01*
X103740475Y-73519438D02*
X103740475Y-73405152D01*
X103740475Y-73405152D02*
X103778571Y-73252771D01*
X103778571Y-73252771D02*
X103816666Y-73176580D01*
X103816666Y-73176580D02*
X103892856Y-73100390D01*
X103892856Y-73100390D02*
X104007142Y-73062295D01*
X104007142Y-73062295D02*
X104083333Y-73062295D01*
X104083333Y-73062295D02*
X104197618Y-73100390D01*
X104197618Y-73100390D02*
X104235714Y-73138485D01*
X104997618Y-73862295D02*
X104540475Y-73862295D01*
X104769047Y-73862295D02*
X104769047Y-73062295D01*
X104769047Y-73062295D02*
X104692856Y-73176580D01*
X104692856Y-73176580D02*
X104616666Y-73252771D01*
X104616666Y-73252771D02*
X104540475Y-73290866D01*
X105378571Y-73862295D02*
X105530952Y-73862295D01*
X105530952Y-73862295D02*
X105607142Y-73824200D01*
X105607142Y-73824200D02*
X105645238Y-73786104D01*
X105645238Y-73786104D02*
X105721428Y-73671819D01*
X105721428Y-73671819D02*
X105759523Y-73519438D01*
X105759523Y-73519438D02*
X105759523Y-73214676D01*
X105759523Y-73214676D02*
X105721428Y-73138485D01*
X105721428Y-73138485D02*
X105683333Y-73100390D01*
X105683333Y-73100390D02*
X105607142Y-73062295D01*
X105607142Y-73062295D02*
X105454761Y-73062295D01*
X105454761Y-73062295D02*
X105378571Y-73100390D01*
X105378571Y-73100390D02*
X105340476Y-73138485D01*
X105340476Y-73138485D02*
X105302380Y-73214676D01*
X105302380Y-73214676D02*
X105302380Y-73405152D01*
X105302380Y-73405152D02*
X105340476Y-73481342D01*
X105340476Y-73481342D02*
X105378571Y-73519438D01*
X105378571Y-73519438D02*
X105454761Y-73557533D01*
X105454761Y-73557533D02*
X105607142Y-73557533D01*
X105607142Y-73557533D02*
X105683333Y-73519438D01*
X105683333Y-73519438D02*
X105721428Y-73481342D01*
X105721428Y-73481342D02*
X105759523Y-73405152D01*
X96110714Y-78036104D02*
X96072618Y-78074200D01*
X96072618Y-78074200D02*
X95958333Y-78112295D01*
X95958333Y-78112295D02*
X95882142Y-78112295D01*
X95882142Y-78112295D02*
X95767856Y-78074200D01*
X95767856Y-78074200D02*
X95691666Y-77998009D01*
X95691666Y-77998009D02*
X95653571Y-77921819D01*
X95653571Y-77921819D02*
X95615475Y-77769438D01*
X95615475Y-77769438D02*
X95615475Y-77655152D01*
X95615475Y-77655152D02*
X95653571Y-77502771D01*
X95653571Y-77502771D02*
X95691666Y-77426580D01*
X95691666Y-77426580D02*
X95767856Y-77350390D01*
X95767856Y-77350390D02*
X95882142Y-77312295D01*
X95882142Y-77312295D02*
X95958333Y-77312295D01*
X95958333Y-77312295D02*
X96072618Y-77350390D01*
X96072618Y-77350390D02*
X96110714Y-77388485D01*
X96415475Y-77388485D02*
X96453571Y-77350390D01*
X96453571Y-77350390D02*
X96529761Y-77312295D01*
X96529761Y-77312295D02*
X96720237Y-77312295D01*
X96720237Y-77312295D02*
X96796428Y-77350390D01*
X96796428Y-77350390D02*
X96834523Y-77388485D01*
X96834523Y-77388485D02*
X96872618Y-77464676D01*
X96872618Y-77464676D02*
X96872618Y-77540866D01*
X96872618Y-77540866D02*
X96834523Y-77655152D01*
X96834523Y-77655152D02*
X96377380Y-78112295D01*
X96377380Y-78112295D02*
X96872618Y-78112295D01*
X97253571Y-78112295D02*
X97405952Y-78112295D01*
X97405952Y-78112295D02*
X97482142Y-78074200D01*
X97482142Y-78074200D02*
X97520238Y-78036104D01*
X97520238Y-78036104D02*
X97596428Y-77921819D01*
X97596428Y-77921819D02*
X97634523Y-77769438D01*
X97634523Y-77769438D02*
X97634523Y-77464676D01*
X97634523Y-77464676D02*
X97596428Y-77388485D01*
X97596428Y-77388485D02*
X97558333Y-77350390D01*
X97558333Y-77350390D02*
X97482142Y-77312295D01*
X97482142Y-77312295D02*
X97329761Y-77312295D01*
X97329761Y-77312295D02*
X97253571Y-77350390D01*
X97253571Y-77350390D02*
X97215476Y-77388485D01*
X97215476Y-77388485D02*
X97177380Y-77464676D01*
X97177380Y-77464676D02*
X97177380Y-77655152D01*
X97177380Y-77655152D02*
X97215476Y-77731342D01*
X97215476Y-77731342D02*
X97253571Y-77769438D01*
X97253571Y-77769438D02*
X97329761Y-77807533D01*
X97329761Y-77807533D02*
X97482142Y-77807533D01*
X97482142Y-77807533D02*
X97558333Y-77769438D01*
X97558333Y-77769438D02*
X97596428Y-77731342D01*
X97596428Y-77731342D02*
X97634523Y-77655152D01*
X105022295Y-86139285D02*
X104641342Y-86405952D01*
X105022295Y-86596428D02*
X104222295Y-86596428D01*
X104222295Y-86596428D02*
X104222295Y-86291666D01*
X104222295Y-86291666D02*
X104260390Y-86215476D01*
X104260390Y-86215476D02*
X104298485Y-86177381D01*
X104298485Y-86177381D02*
X104374676Y-86139285D01*
X104374676Y-86139285D02*
X104488961Y-86139285D01*
X104488961Y-86139285D02*
X104565152Y-86177381D01*
X104565152Y-86177381D02*
X104603247Y-86215476D01*
X104603247Y-86215476D02*
X104641342Y-86291666D01*
X104641342Y-86291666D02*
X104641342Y-86596428D01*
X105022295Y-85377381D02*
X105022295Y-85834524D01*
X105022295Y-85605952D02*
X104222295Y-85605952D01*
X104222295Y-85605952D02*
X104336580Y-85682143D01*
X104336580Y-85682143D02*
X104412771Y-85758333D01*
X104412771Y-85758333D02*
X104450866Y-85834524D01*
X105022295Y-84615476D02*
X105022295Y-85072619D01*
X105022295Y-84844047D02*
X104222295Y-84844047D01*
X104222295Y-84844047D02*
X104336580Y-84920238D01*
X104336580Y-84920238D02*
X104412771Y-84996428D01*
X104412771Y-84996428D02*
X104450866Y-85072619D01*
X111366667Y-62536104D02*
X111328571Y-62574200D01*
X111328571Y-62574200D02*
X111214286Y-62612295D01*
X111214286Y-62612295D02*
X111138095Y-62612295D01*
X111138095Y-62612295D02*
X111023809Y-62574200D01*
X111023809Y-62574200D02*
X110947619Y-62498009D01*
X110947619Y-62498009D02*
X110909524Y-62421819D01*
X110909524Y-62421819D02*
X110871428Y-62269438D01*
X110871428Y-62269438D02*
X110871428Y-62155152D01*
X110871428Y-62155152D02*
X110909524Y-62002771D01*
X110909524Y-62002771D02*
X110947619Y-61926580D01*
X110947619Y-61926580D02*
X111023809Y-61850390D01*
X111023809Y-61850390D02*
X111138095Y-61812295D01*
X111138095Y-61812295D02*
X111214286Y-61812295D01*
X111214286Y-61812295D02*
X111328571Y-61850390D01*
X111328571Y-61850390D02*
X111366667Y-61888485D01*
X112052381Y-62078961D02*
X112052381Y-62612295D01*
X111861905Y-61774200D02*
X111671428Y-62345628D01*
X111671428Y-62345628D02*
X112166667Y-62345628D01*
X93708333Y-86193247D02*
X93441667Y-86193247D01*
X93441667Y-86612295D02*
X93441667Y-85812295D01*
X93441667Y-85812295D02*
X93822619Y-85812295D01*
X94394047Y-86193247D02*
X94508333Y-86231342D01*
X94508333Y-86231342D02*
X94546428Y-86269438D01*
X94546428Y-86269438D02*
X94584524Y-86345628D01*
X94584524Y-86345628D02*
X94584524Y-86459914D01*
X94584524Y-86459914D02*
X94546428Y-86536104D01*
X94546428Y-86536104D02*
X94508333Y-86574200D01*
X94508333Y-86574200D02*
X94432143Y-86612295D01*
X94432143Y-86612295D02*
X94127381Y-86612295D01*
X94127381Y-86612295D02*
X94127381Y-85812295D01*
X94127381Y-85812295D02*
X94394047Y-85812295D01*
X94394047Y-85812295D02*
X94470238Y-85850390D01*
X94470238Y-85850390D02*
X94508333Y-85888485D01*
X94508333Y-85888485D02*
X94546428Y-85964676D01*
X94546428Y-85964676D02*
X94546428Y-86040866D01*
X94546428Y-86040866D02*
X94508333Y-86117057D01*
X94508333Y-86117057D02*
X94470238Y-86155152D01*
X94470238Y-86155152D02*
X94394047Y-86193247D01*
X94394047Y-86193247D02*
X94127381Y-86193247D01*
X94889285Y-85888485D02*
X94927381Y-85850390D01*
X94927381Y-85850390D02*
X95003571Y-85812295D01*
X95003571Y-85812295D02*
X95194047Y-85812295D01*
X95194047Y-85812295D02*
X95270238Y-85850390D01*
X95270238Y-85850390D02*
X95308333Y-85888485D01*
X95308333Y-85888485D02*
X95346428Y-85964676D01*
X95346428Y-85964676D02*
X95346428Y-86040866D01*
X95346428Y-86040866D02*
X95308333Y-86155152D01*
X95308333Y-86155152D02*
X94851190Y-86612295D01*
X94851190Y-86612295D02*
X95346428Y-86612295D01*
%TO.C,SW5*%
D13*
X87750000Y-92000000D02*
X88250000Y-92000000D01*
X87750000Y-92000000D02*
X87750000Y-88000000D01*
X90750000Y-92000000D02*
X90250000Y-92000000D01*
X90750000Y-92000000D02*
X90750000Y-88000000D01*
X87750000Y-88000000D02*
X88250000Y-88000000D01*
X90750000Y-88000000D02*
X90250000Y-88000000D01*
X90150000Y-90000000D02*
G75*
G02*
X88350000Y-90000000I-900000J0D01*
G01*
X88350000Y-90000000D02*
G75*
G02*
X90150000Y-90000000I900000J0D01*
G01*
%TO.C,C15*%
X99010000Y-70132520D02*
X99010000Y-70413682D01*
X97990000Y-70132520D02*
X97990000Y-70413682D01*
%TO.C,U2*%
X105590000Y-83900000D02*
X105590000Y-89910000D01*
X105590000Y-89910000D02*
X106850000Y-89910000D01*
X112410000Y-83900000D02*
X112410000Y-89910000D01*
X112410000Y-89910000D02*
X111150000Y-89910000D01*
%TO.C,J1*%
X95405000Y-90125000D02*
X95405000Y-91025000D01*
X95525000Y-87045000D02*
X104475000Y-87045000D01*
X104595000Y-90125000D02*
X104595000Y-91025000D01*
%TO.C,U3*%
X97700000Y-82700000D02*
X102300000Y-82700000D01*
X102300000Y-85900000D01*
X97700000Y-85900000D01*
X97700000Y-82700000D01*
D14*
X102962500Y-85300000D02*
G75*
G02*
X102637500Y-85300000I-162500J0D01*
G01*
X102637500Y-85300000D02*
G75*
G02*
X102962500Y-85300000I162500J0D01*
G01*
%TO.C,C13*%
D13*
X88187000Y-64304420D02*
X88187000Y-64585580D01*
X89207000Y-64304420D02*
X89207000Y-64585580D01*
%TO.C,Y1*%
X87965000Y-58700000D02*
X87965000Y-56300000D01*
X89965000Y-56300000D01*
X89965000Y-58700000D01*
X87965000Y-58700000D01*
%TO.C,C14*%
X109740000Y-56140580D02*
X109740000Y-55859420D01*
X110760000Y-56140580D02*
X110760000Y-55859420D01*
%TO.C,C21*%
X109350000Y-81900000D02*
X109350000Y-78400000D01*
D10*
X111800000Y-83150000D02*
X112700000Y-83150000D01*
D15*
X112150000Y-78400000D02*
X112150000Y-81900000D01*
D10*
X112250000Y-83600000D02*
X112250000Y-82700000D01*
%TO.C,C18*%
D13*
X108515000Y-65688748D02*
X108515000Y-66211252D01*
X109985000Y-65688748D02*
X109985000Y-66211252D01*
%TO.C,C23*%
X91240000Y-91109420D02*
X91240000Y-91390580D01*
X92260000Y-91109420D02*
X92260000Y-91390580D01*
%TO.C,FB1*%
X98149622Y-72620000D02*
X97350378Y-72620000D01*
X98149622Y-73880000D02*
X97350378Y-73880000D01*
%TO.C,C22*%
X105600000Y-81900000D02*
X105600000Y-78400000D01*
D10*
X108050000Y-83150000D02*
X108950000Y-83150000D01*
D15*
X108400000Y-78400000D02*
X108400000Y-81900000D01*
D10*
X108500000Y-83600000D02*
X108500000Y-82700000D01*
%TO.C,C17*%
D13*
X109515000Y-60261252D02*
X109515000Y-59738748D01*
X110985000Y-60261252D02*
X110985000Y-59738748D01*
%TO.C,SW4*%
X87750000Y-67800000D02*
X88250000Y-67800000D01*
X87750000Y-71800000D02*
X87750000Y-67800000D01*
X87750000Y-71800000D02*
X88250000Y-71800000D01*
X90750000Y-67800000D02*
X90250000Y-67800000D01*
X90750000Y-71800000D02*
X90250000Y-71800000D01*
X90750000Y-71800000D02*
X90750000Y-67800000D01*
X90150000Y-69800000D02*
G75*
G02*
X88350000Y-69800000I-900000J0D01*
G01*
X88350000Y-69800000D02*
G75*
G02*
X90150000Y-69800000I900000J0D01*
G01*
D15*
%TO.C,U1*%
X90465000Y-54000000D02*
X90215000Y-54500000D01*
X90215000Y-53500000D01*
X90465000Y-54000000D01*
G36*
X90465000Y-54000000D02*
G01*
X90215000Y-54500000D01*
X90215000Y-53500000D01*
X90465000Y-54000000D01*
G37*
D11*
X107965000Y-61500000D02*
X108215000Y-61500000D01*
X107965000Y-56500000D02*
X108215000Y-56500000D01*
D13*
X106275000Y-67060000D02*
X106275000Y-66500000D01*
X106275000Y-52940000D02*
X106275000Y-53500000D01*
X105715000Y-67060000D02*
X106275000Y-67060000D01*
X105715000Y-52940000D02*
X106275000Y-52940000D01*
D11*
X105215000Y-68750000D02*
X105215000Y-69000000D01*
X103215000Y-51250000D02*
X103215000Y-51000000D01*
X100215000Y-68750000D02*
X100215000Y-69000000D01*
X98215000Y-51250000D02*
X98215000Y-51000000D01*
X95215000Y-68750000D02*
X95215000Y-69000000D01*
X93215000Y-51250000D02*
X93215000Y-51000000D01*
D13*
X92715000Y-67060000D02*
X92155000Y-67060000D01*
X92715000Y-52940000D02*
X92155000Y-52940000D01*
X92155000Y-67060000D02*
X92155000Y-66500000D01*
X92155000Y-52940000D02*
X92155000Y-53500000D01*
D11*
X90465000Y-63500000D02*
X90215000Y-63500000D01*
X90465000Y-58500000D02*
X90215000Y-58500000D01*
%TO.C,C19*%
D13*
X104515000Y-70488748D02*
X104515000Y-71011252D01*
X105985000Y-70488748D02*
X105985000Y-71011252D01*
%TO.C,J5*%
X89450000Y-73850000D02*
X90790000Y-73850000D01*
X89450000Y-75340000D02*
X89450000Y-73850000D01*
X89450000Y-83660000D02*
X88250000Y-83660000D01*
X89450000Y-83660000D02*
X89450000Y-85150000D01*
X89450000Y-85150000D02*
X90790000Y-85150000D01*
X93510000Y-85150000D02*
X95250000Y-85150000D01*
X95250000Y-73850000D02*
X93510000Y-73850000D01*
X95250000Y-85150000D02*
X95250000Y-73850000D01*
%TO.C,C29*%
X93765000Y-70488748D02*
X93765000Y-71011252D01*
X95235000Y-70488748D02*
X95235000Y-71011252D01*
%TO.C,J2*%
X107840000Y-70265000D02*
X107840000Y-71315000D01*
X107840000Y-75435000D02*
X106850000Y-75435000D01*
X107840000Y-76485000D02*
X107840000Y-75435000D01*
X110340000Y-70265000D02*
X107840000Y-70265000D01*
X110340000Y-76485000D02*
X107840000Y-76485000D01*
X112310000Y-75315000D02*
X112310000Y-71435000D01*
%TO.C,FB2*%
X93120000Y-87850378D02*
X93120000Y-88649622D01*
X94380000Y-87850378D02*
X94380000Y-88649622D01*
%TD*%
%LPC*%
%TO.C,C27*%
G36*
X88448100Y-59195200D02*
G01*
X89820100Y-59195200D01*
X89820100Y-59804800D01*
X88448100Y-59804800D01*
X88448100Y-59195200D01*
G37*
%TO.C,R13*%
G36*
X91445200Y-88019900D02*
G01*
X92054800Y-88019900D01*
X92054800Y-89391900D01*
X91445200Y-89391900D01*
X91445200Y-88019900D01*
G37*
%TO.C,C26*%
G36*
X88539000Y-55335200D02*
G01*
X89911000Y-55335200D01*
X89911000Y-55944800D01*
X88539000Y-55944800D01*
X88539000Y-55335200D01*
G37*
%TO.C,C1*%
G36*
X89410200Y-61144900D02*
G01*
X90019800Y-61144900D01*
X90019800Y-62516900D01*
X89410200Y-62516900D01*
X89410200Y-61144900D01*
G37*
%TO.C,C9*%
G36*
X88410200Y-60814000D02*
G01*
X89019800Y-60814000D01*
X89019800Y-62186000D01*
X88410200Y-62186000D01*
X88410200Y-60814000D01*
G37*
%TO.C,R14*%
G36*
X109445200Y-52439000D02*
G01*
X110054800Y-52439000D01*
X110054800Y-53811000D01*
X109445200Y-53811000D01*
X109445200Y-52439000D01*
G37*
D16*
%TO.C,C3*%
G36*
X101266901Y-50804800D02*
G01*
X99894901Y-50804800D01*
X99894901Y-50195200D01*
X101266901Y-50195200D01*
X101266901Y-50804800D01*
G37*
%TO.C,C5*%
G36*
X108445200Y-56564000D02*
G01*
X109054800Y-56564000D01*
X109054800Y-57936000D01*
X108445200Y-57936000D01*
X108445200Y-56564000D01*
G37*
%TO.C,C11*%
G36*
X103410200Y-69333100D02*
G01*
X104019800Y-69333100D01*
X104019800Y-70705100D01*
X103410200Y-70705100D01*
X103410200Y-69333100D01*
G37*
%TO.C,C12*%
G36*
X101910200Y-69333100D02*
G01*
X102519800Y-69333100D01*
X102519800Y-70705100D01*
X101910200Y-70705100D01*
X101910200Y-69333100D01*
G37*
%TO.C,C8*%
G36*
X108733100Y-62945200D02*
G01*
X110105100Y-62945200D01*
X110105100Y-63554800D01*
X108733100Y-63554800D01*
X108733100Y-62945200D01*
G37*
%TO.C,C10*%
G36*
X95945200Y-69333100D02*
G01*
X96554800Y-69333100D01*
X96554800Y-70705100D01*
X95945200Y-70705100D01*
X95945200Y-69333100D01*
G37*
%TO.C,C7*%
G36*
X96910200Y-69333100D02*
G01*
X97519800Y-69333100D01*
X97519800Y-70705100D01*
X96910200Y-70705100D01*
X96910200Y-69333100D01*
G37*
%TO.C,C2*%
G36*
X93314000Y-50195200D02*
G01*
X94686000Y-50195200D01*
X94686000Y-50804800D01*
X93314000Y-50804800D01*
X93314000Y-50195200D01*
G37*
%TO.C,C6*%
G36*
X108445200Y-53064000D02*
G01*
X109054800Y-53064000D01*
X109054800Y-54436000D01*
X108445200Y-54436000D01*
X108445200Y-53064000D01*
G37*
%TO.C,R10*%
G36*
X93695200Y-90939000D02*
G01*
X94304800Y-90939000D01*
X94304800Y-92311000D01*
X93695200Y-92311000D01*
X93695200Y-90939000D01*
G37*
%TO.C,R12*%
G36*
X101266901Y-49804800D02*
G01*
X99894901Y-49804800D01*
X99894901Y-49195200D01*
X101266901Y-49195200D01*
X101266901Y-49804800D01*
G37*
%TO.C,R11*%
G36*
X103195200Y-84939000D02*
G01*
X103804800Y-84939000D01*
X103804800Y-86311000D01*
X103195200Y-86311000D01*
X103195200Y-84939000D01*
G37*
%TO.C,C4*%
G36*
X108445200Y-60064000D02*
G01*
X109054800Y-60064000D01*
X109054800Y-61436000D01*
X108445200Y-61436000D01*
X108445200Y-60064000D01*
G37*
%TD*%
D17*
%TO.C,SW5*%
X89250000Y-92375000D03*
X89250000Y-87625000D03*
%TD*%
D18*
%TO.C,C15*%
X98500000Y-70946202D03*
X98500000Y-69600000D03*
%TD*%
D19*
%TO.C,U2*%
X111300000Y-84850000D03*
X109000000Y-84850000D03*
D20*
X109000000Y-91150000D03*
D19*
X106700000Y-84850000D03*
%TD*%
D21*
%TO.C,J1*%
X97025000Y-87725000D03*
X97875000Y-87725000D03*
X98725000Y-87725000D03*
X99575000Y-87725000D03*
X100425000Y-87725000D03*
X101275000Y-87725000D03*
X102125000Y-87725000D03*
X102975000Y-87725000D03*
X102975000Y-89075000D03*
X102125000Y-89075000D03*
X101275000Y-89075000D03*
X100425000Y-89075000D03*
X99575000Y-89075000D03*
X98725000Y-89075000D03*
X97875000Y-89075000D03*
X97025000Y-89075000D03*
D22*
X95675000Y-88705000D03*
D23*
X95675000Y-92085000D03*
D22*
X104325000Y-88705000D03*
D23*
X104325000Y-92085000D03*
%TD*%
D24*
%TO.C,J4*%
X88000000Y-47190000D03*
X88000000Y-48460000D03*
X88000000Y-49730000D03*
X88000000Y-51000000D03*
X88000000Y-52270000D03*
X88000000Y-53540000D03*
%TD*%
D25*
%TO.C,U3*%
X101350000Y-85250000D03*
X101350000Y-84300000D03*
X101350000Y-83350000D03*
X98650000Y-83350000D03*
X98650000Y-84300000D03*
X98650000Y-85250000D03*
%TD*%
D18*
%TO.C,C13*%
X88697000Y-63771900D03*
X88697000Y-65118100D03*
%TD*%
D26*
%TO.C,Y1*%
X88475000Y-56860000D03*
X88475000Y-58140000D03*
X89455000Y-58140000D03*
X89455000Y-56860000D03*
%TD*%
D27*
%TO.C,C14*%
X110250000Y-56673100D03*
X110250000Y-55326900D03*
%TD*%
D28*
%TO.C,C21*%
X110750000Y-81875000D03*
X110750000Y-78425000D03*
%TD*%
D29*
%TO.C,C18*%
X109250000Y-65000000D03*
X109250000Y-66900000D03*
%TD*%
D18*
%TO.C,C23*%
X91750000Y-90576900D03*
X91750000Y-91923100D03*
%TD*%
D30*
%TO.C,FB1*%
X98699999Y-73250000D03*
X96800001Y-73250000D03*
%TD*%
D28*
%TO.C,C22*%
X107000000Y-81875000D03*
X107000000Y-78425000D03*
%TD*%
D31*
%TO.C,J3*%
X112000000Y-53540000D03*
X112000000Y-52270000D03*
X112000000Y-51000000D03*
X112000000Y-49730000D03*
X112000000Y-48460000D03*
X112000000Y-47190000D03*
%TD*%
D32*
%TO.C,C17*%
X110250000Y-60950000D03*
X110250000Y-59050000D03*
%TD*%
D17*
%TO.C,SW4*%
X89250000Y-72175000D03*
X89250000Y-67425000D03*
%TD*%
D33*
%TO.C,U1*%
X101437500Y-60952500D03*
X101437500Y-59047500D03*
X100167500Y-62222500D03*
X100167500Y-57777500D03*
X100165000Y-60950000D03*
X100165000Y-59050000D03*
D34*
X99215000Y-60000000D03*
D33*
X98265000Y-60950000D03*
X98265000Y-59050000D03*
X98262500Y-62222500D03*
X98262500Y-57777500D03*
X96992500Y-60952500D03*
X96992500Y-59047500D03*
D35*
X93215000Y-52250000D03*
X93715000Y-52250000D03*
X94215000Y-52250000D03*
X94715000Y-52250000D03*
X95215000Y-52250000D03*
X95715000Y-52250000D03*
X96215000Y-52250000D03*
X96715000Y-52250000D03*
X97215000Y-52250000D03*
X97715000Y-52250000D03*
X98215000Y-52250000D03*
X98715000Y-52250000D03*
X99215000Y-52250000D03*
X99715000Y-52250000D03*
X100215000Y-52250000D03*
X100715000Y-52250000D03*
X101215000Y-52250000D03*
X101715000Y-52250000D03*
X102215000Y-52250000D03*
X102715000Y-52250000D03*
X103215000Y-52250000D03*
X103715000Y-52250000D03*
X104215000Y-52250000D03*
X104715000Y-52250000D03*
X105215000Y-52250000D03*
D36*
X106965000Y-54000000D03*
X106965000Y-54500000D03*
X106965000Y-55000000D03*
X106965000Y-55500000D03*
X106965000Y-56000000D03*
X106965000Y-56500000D03*
X106965000Y-57000000D03*
X106965000Y-57500000D03*
X106965000Y-58000000D03*
X106965000Y-58500000D03*
X106965000Y-59000000D03*
X106965000Y-59500000D03*
X106965000Y-60000000D03*
X106965000Y-60500000D03*
X106965000Y-61000000D03*
X106965000Y-61500000D03*
X106965000Y-62000000D03*
X106965000Y-62500000D03*
X106965000Y-63000000D03*
X106965000Y-63500000D03*
X106965000Y-64000000D03*
X106965000Y-64500000D03*
X106965000Y-65000000D03*
X106965000Y-65500000D03*
X106965000Y-66000000D03*
D35*
X105215000Y-67750000D03*
X104715000Y-67750000D03*
X104215000Y-67750000D03*
X103715000Y-67750000D03*
X103215000Y-67750000D03*
X102715000Y-67750000D03*
X102215000Y-67750000D03*
X101715000Y-67750000D03*
X101215000Y-67750000D03*
X100715000Y-67750000D03*
X100215000Y-67750000D03*
X99715000Y-67750000D03*
X99215000Y-67750000D03*
X98715000Y-67750000D03*
X98215000Y-67750000D03*
X97715000Y-67750000D03*
X97215000Y-67750000D03*
X96715000Y-67750000D03*
X96215000Y-67750000D03*
X95715000Y-67750000D03*
X95215000Y-67750000D03*
X94715000Y-67750000D03*
X94215000Y-67750000D03*
X93715000Y-67750000D03*
X93215000Y-67750000D03*
D36*
X91465000Y-66000000D03*
X91465000Y-65500000D03*
X91465000Y-65000000D03*
X91465000Y-64500000D03*
X91465000Y-64000000D03*
X91465000Y-63500000D03*
X91465000Y-63000000D03*
X91465000Y-62500000D03*
X91465000Y-62000000D03*
X91465000Y-61500000D03*
X91465000Y-61000000D03*
X91465000Y-60500000D03*
X91465000Y-60000000D03*
X91465000Y-59500000D03*
X91465000Y-59000000D03*
X91465000Y-58500000D03*
X91465000Y-58000000D03*
X91465000Y-57500000D03*
X91465000Y-57000000D03*
X91465000Y-56500000D03*
X91465000Y-56000000D03*
X91465000Y-55500000D03*
X91465000Y-55000000D03*
X91465000Y-54500000D03*
X91465000Y-54000000D03*
%TD*%
D29*
%TO.C,C19*%
X105250000Y-69800000D03*
X105250000Y-71700000D03*
%TD*%
D37*
%TO.C,J5*%
X88900000Y-83250000D03*
X88900000Y-82750000D03*
X88900000Y-82250000D03*
X88900000Y-81750000D03*
X88900000Y-81250000D03*
X88900000Y-80750000D03*
X88900000Y-80250000D03*
X88900000Y-79750000D03*
X88900000Y-79250000D03*
X88900000Y-78750000D03*
X88900000Y-78250000D03*
X88900000Y-77750000D03*
X88900000Y-77250000D03*
X88900000Y-76750000D03*
X88900000Y-76250000D03*
X88900000Y-75750000D03*
D38*
X92150000Y-85150000D03*
X92150000Y-73850000D03*
%TD*%
D29*
%TO.C,C29*%
X94500000Y-69800000D03*
X94500000Y-71700000D03*
%TD*%
D39*
%TO.C,J2*%
X107625000Y-74875000D03*
X107625000Y-73875000D03*
X107625000Y-72875000D03*
X107625000Y-71875000D03*
D40*
X111500000Y-76175000D03*
X111500000Y-70575000D03*
%TD*%
D41*
%TO.C,FB2*%
X93750000Y-87300000D03*
X93750000Y-89200000D03*
%TD*%
%LPD*%
M02*
