%TF.GenerationSoftware,KiCad,Pcbnew,10.0.5*%
%TF.CreationDate,2026-10-02T17:25:48+01:00*%
%TF.ProjectId,mcxn_mini_board,6d63786e-5f6d-4696-9e69-5f626f617264,rev?*%
%TF.SameCoordinates,Original*%
%TF.FileFunction,Copper,L2,Inr*%
%TF.FilePolarity,Positive*%
%FSLAX46Y46*%
G04 Gerber Fmt 4.6, Leading zero omitted, Abs format (unit mm)*
G04 Created by KiCad (PCBNEW 10.0.5) date 2026-10-02 17:25:48*
%MOMM*%
%LPD*%
G01*
G04 APERTURE LIST*
%TA.AperFunction,ComponentPad*%
%ADD10C,0.650000*%
%TD*%
%TA.AperFunction,ComponentPad*%
%ADD11O,0.900000X2.400000*%
%TD*%
%TA.AperFunction,ComponentPad*%
%ADD12O,0.900000X1.700000*%
%TD*%
%TA.AperFunction,ComponentPad*%
%ADD13C,0.900000*%
%TD*%
%TA.AperFunction,ViaPad*%
%ADD14C,0.704800*%
%TD*%
%TA.AperFunction,Conductor*%
%ADD15C,0.270000*%
%TD*%
%TA.AperFunction,Conductor*%
%ADD16C,0.406400*%
%TD*%
%TA.AperFunction,Conductor*%
%ADD17C,0.304800*%
%TD*%
%TA.AperFunction,Conductor*%
%ADD18C,0.203200*%
%TD*%
G04 APERTURE END LIST*
D10*
%TO.N,0V*%
%TO.C,J1*%
X97025000Y-87725000D03*
%TO.N,Net-(FB2-Pad2)*%
X97875000Y-87725000D03*
%TO.N,Net-(J1-CC1)*%
X98725000Y-87725000D03*
%TO.N,/USB_D+*%
X99575000Y-87725000D03*
%TO.N,/USB_D-*%
X100425000Y-87725000D03*
%TO.N,unconnected-(J1-SBU1-PadA8)*%
X101275000Y-87725000D03*
%TO.N,Net-(FB2-Pad2)*%
X102125000Y-87725000D03*
%TO.N,0V*%
X102975000Y-87725000D03*
X102975000Y-89075000D03*
%TO.N,Net-(FB2-Pad2)*%
X102125000Y-89075000D03*
%TO.N,Net-(J1-CC2)*%
X101275000Y-89075000D03*
%TO.N,/USB_D+*%
X100425000Y-89075000D03*
%TO.N,/USB_D-*%
X99575000Y-89075000D03*
%TO.N,unconnected-(J1-SBU2-PadB8)*%
X98725000Y-89075000D03*
%TO.N,Net-(FB2-Pad2)*%
X97875000Y-89075000D03*
%TO.N,0V*%
X97025000Y-89075000D03*
D11*
X95675000Y-88705000D03*
D12*
X95675000Y-92085000D03*
D11*
X104325000Y-88705000D03*
D12*
X104325000Y-92085000D03*
%TD*%
D13*
%TO.N,0V*%
%TO.C,U1*%
X101437500Y-60952500D03*
X101437500Y-59047500D03*
X100167500Y-62222500D03*
X100167500Y-57777500D03*
X100165000Y-60950000D03*
X100165000Y-59050000D03*
X98265000Y-60950000D03*
X98265000Y-59050000D03*
X98262500Y-62222500D03*
X98262500Y-57777500D03*
X96992500Y-60952500D03*
X96992500Y-59047500D03*
%TD*%
D14*
%TO.N,+3.3V*%
X98875000Y-74375000D03*
X97875000Y-73250000D03*
%TO.N,0V*%
X111500000Y-59000000D03*
X110375000Y-66875000D03*
X103750000Y-71250000D03*
X102250000Y-71250000D03*
%TO.N,+3.3V*%
X95750000Y-50500000D03*
X95250000Y-53750000D03*
%TO.N,Net-(D1-A)*%
X107000000Y-53125000D03*
%TO.N,+3.3V*%
X110556400Y-53529305D03*
X89500000Y-47125000D03*
X89500000Y-52250000D03*
%TO.N,0V*%
X89500000Y-53500000D03*
X89500000Y-49750000D03*
X110500000Y-51000000D03*
X110500000Y-48500000D03*
X110500000Y-47125000D03*
X89250000Y-73375000D03*
%TO.N,/RSTB*%
X89250000Y-86125000D03*
%TO.N,/SWD*%
X109250000Y-73625000D03*
%TO.N,/SWC*%
X109250000Y-72500000D03*
%TO.N,0V*%
X106250000Y-74875000D03*
%TO.N,+3.3V*%
X106875000Y-70500000D03*
%TO.N,0V*%
X105750000Y-72625000D03*
%TO.N,+3.3V*%
X106375000Y-69750000D03*
%TO.N,Net-(J1-CC1)*%
X94000000Y-90500000D03*
%TO.N,0V*%
X110000000Y-92375000D03*
X108750000Y-92375000D03*
X107375000Y-92375000D03*
%TO.N,+3.3V*%
X107000000Y-83250000D03*
X106000000Y-83250000D03*
X105125000Y-83625000D03*
X105125000Y-82500000D03*
%TO.N,0V*%
X109375000Y-87750000D03*
X108625000Y-86750000D03*
X106375000Y-91875000D03*
X106375000Y-90750000D03*
X107125000Y-89500000D03*
X108500000Y-89500000D03*
X109875000Y-89500000D03*
X108875000Y-79250000D03*
X108875000Y-78000000D03*
X105000000Y-79250000D03*
X105000000Y-78000000D03*
X111250000Y-79750000D03*
X110000000Y-79750000D03*
X107500000Y-79750000D03*
X106250000Y-79750000D03*
X92380000Y-80447000D03*
X102500000Y-84250000D03*
X89715000Y-63080900D03*
X90221000Y-83495000D03*
X108750000Y-52500000D03*
X88715000Y-62750000D03*
X109250000Y-68000000D03*
X108750000Y-56000000D03*
X105500000Y-65500000D03*
X99250000Y-50500000D03*
X98500000Y-71750000D03*
X89455000Y-56860000D03*
X88443000Y-84511000D03*
X100840000Y-65250000D03*
X110750000Y-62750000D03*
X110250000Y-54500000D03*
X108750000Y-59500000D03*
X91750000Y-92875000D03*
X92750000Y-50500000D03*
X97250000Y-71250000D03*
X88475000Y-58140000D03*
X88309400Y-66000000D03*
X96715000Y-66125000D03*
X95840000Y-66375000D03*
X103500000Y-83750000D03*
X96250000Y-71250000D03*
X104875000Y-72625000D03*
X110250000Y-58000000D03*
X94500000Y-72750000D03*
%TO.N,+3.3V*%
X105500000Y-58500000D03*
X97811000Y-66378260D03*
X105250000Y-64500000D03*
X105125000Y-81500000D03*
X100965000Y-54000000D03*
X88316000Y-74732000D03*
X89965000Y-64000000D03*
X105500000Y-62000000D03*
X103715000Y-66500000D03*
X93500000Y-60635000D03*
X91750000Y-87375000D03*
X102215000Y-65750000D03*
X98750000Y-49500000D03*
X105500000Y-55000000D03*
%TO.N,/RSTB*%
X93142000Y-58095000D03*
%TO.N,VBUS*%
X98715000Y-66000000D03*
X99000000Y-81000000D03*
%TO.N,/CLK*%
X107125000Y-49750000D03*
X108529000Y-49750000D03*
%TO.N,/SWD*%
X104375000Y-55250000D03*
%TO.N,/SWC*%
X103250000Y-55250000D03*
%TO.N,/ROW1*%
X103375000Y-60875000D03*
%TO.N,/ROW2*%
X104125000Y-60000000D03*
%TO.N,/ROW3*%
X104750000Y-59125000D03*
%TO.N,Net-(U1USB/DEBUG-BOOTLOAD{slash}P0_6)*%
X99875000Y-53875000D03*
X89250000Y-66125000D03*
%TO.N,/P4_7*%
X94875000Y-65875000D03*
X92500000Y-83125000D03*
%TO.N,/P4_0*%
X89967191Y-64904800D03*
X90729000Y-78415000D03*
%TO.N,/P4_1*%
X93015000Y-64064000D03*
X91491000Y-77653000D03*
%TO.N,/P4_3*%
X92253000Y-79431000D03*
X93777000Y-65334000D03*
%TO.N,/P4_6*%
X93250000Y-82250000D03*
X93875000Y-66250000D03*
%TO.N,/P4_2*%
X94031000Y-64064000D03*
X92253000Y-78415000D03*
%TD*%
%TO.N,0V*%
D15*
X97500000Y-61715000D02*
X98265000Y-60950000D01*
X97500000Y-61750000D02*
X97500000Y-61715000D01*
X100965000Y-61750000D02*
X100165000Y-60950000D01*
X101000000Y-61750000D02*
X100965000Y-61750000D01*
X101000000Y-58250000D02*
X100965000Y-58250000D01*
X100965000Y-58250000D02*
X100165000Y-59050000D01*
X97250000Y-58035000D02*
X98265000Y-59050000D01*
X97250000Y-58000000D02*
X97250000Y-58035000D01*
D16*
X96000000Y-63250000D02*
X97500000Y-61750000D01*
X101000000Y-61750000D02*
X102500000Y-63250000D01*
X101000000Y-58250000D02*
X102500000Y-56750000D01*
X95750000Y-56500000D02*
X97250000Y-58000000D01*
D15*
X98262500Y-56512500D02*
X98250000Y-56500000D01*
X98262500Y-57777500D02*
X98262500Y-56512500D01*
X100167500Y-56582500D02*
X100250000Y-56500000D01*
X100167500Y-57777500D02*
X100167500Y-56582500D01*
X102702500Y-59047500D02*
X102750000Y-59000000D01*
X101437500Y-59047500D02*
X102702500Y-59047500D01*
X102235000Y-61750000D02*
X102750000Y-61750000D01*
X101437500Y-60952500D02*
X102235000Y-61750000D01*
X100167500Y-63417500D02*
X100250000Y-63500000D01*
X100167500Y-62222500D02*
X100167500Y-63417500D01*
X98262500Y-63487500D02*
X98250000Y-63500000D01*
X98262500Y-62222500D02*
X98262500Y-63487500D01*
X95547500Y-60952500D02*
X95500000Y-61000000D01*
X96992500Y-60952500D02*
X95547500Y-60952500D01*
X95547500Y-59047500D02*
X95500000Y-59000000D01*
X96992500Y-59047500D02*
X95547500Y-59047500D01*
D17*
X97025000Y-86525000D02*
X97000000Y-86500000D01*
X102975000Y-90225000D02*
X103000000Y-90250000D01*
X97025000Y-90225000D02*
X97000000Y-90250000D01*
X97025000Y-89075000D02*
X97025000Y-90225000D01*
X102975000Y-87725000D02*
X102975000Y-86525000D01*
X97025000Y-87725000D02*
X97025000Y-86525000D01*
D18*
X102975000Y-87725000D02*
X102975000Y-89075000D01*
X97025000Y-87725000D02*
X97025000Y-89075000D01*
D17*
X102975000Y-86525000D02*
X103000000Y-86500000D01*
X102975000Y-89075000D02*
X102975000Y-90225000D01*
%TD*%
%TA.AperFunction,Conductor*%
%TO.N,0V*%
G36*
X112005394Y-46000972D02*
G01*
X112012947Y-46001632D01*
X112151564Y-46013760D01*
X112164907Y-46015665D01*
X112194247Y-46021501D01*
X112202103Y-46023332D01*
X112326932Y-46056780D01*
X112342278Y-46061989D01*
X112359233Y-46069012D01*
X112364169Y-46071185D01*
X112489916Y-46129821D01*
X112508629Y-46140624D01*
X112633583Y-46228118D01*
X112650140Y-46242012D01*
X112757987Y-46349859D01*
X112771881Y-46366416D01*
X112859372Y-46491366D01*
X112870179Y-46510086D01*
X112928813Y-46635828D01*
X112930993Y-46640781D01*
X112938007Y-46657715D01*
X112943220Y-46673072D01*
X112976659Y-46797868D01*
X112978501Y-46805769D01*
X112984330Y-46835071D01*
X112986241Y-46848456D01*
X112999028Y-46994605D01*
X112999500Y-47005413D01*
X112999500Y-91995948D01*
X112999234Y-92004058D01*
X112984321Y-92231576D01*
X112983325Y-92241113D01*
X112975917Y-92292636D01*
X112974796Y-92299180D01*
X112935694Y-92495763D01*
X112933054Y-92506508D01*
X112920656Y-92548730D01*
X112919099Y-92553652D01*
X112851780Y-92751971D01*
X112847152Y-92763630D01*
X112836544Y-92786855D01*
X112834964Y-92790182D01*
X112735212Y-92992460D01*
X112727102Y-93006506D01*
X112590825Y-93210460D01*
X112580951Y-93223329D01*
X112419218Y-93407749D01*
X112407749Y-93419218D01*
X112223329Y-93580951D01*
X112210460Y-93590825D01*
X112006506Y-93727102D01*
X111992460Y-93735212D01*
X111790182Y-93834964D01*
X111786855Y-93836544D01*
X111763630Y-93847152D01*
X111751971Y-93851780D01*
X111553652Y-93919099D01*
X111548730Y-93920656D01*
X111506508Y-93933054D01*
X111495763Y-93935694D01*
X111299180Y-93974796D01*
X111292636Y-93975917D01*
X111241113Y-93983325D01*
X111231576Y-93984321D01*
X111004058Y-93999234D01*
X110995948Y-93999500D01*
X89004052Y-93999500D01*
X88995942Y-93999234D01*
X88768422Y-93984321D01*
X88758885Y-93983325D01*
X88707362Y-93975917D01*
X88700818Y-93974796D01*
X88504235Y-93935694D01*
X88493490Y-93933054D01*
X88451268Y-93920656D01*
X88446346Y-93919099D01*
X88306997Y-93871797D01*
X88248023Y-93851778D01*
X88236377Y-93847155D01*
X88227679Y-93843183D01*
X88213143Y-93836544D01*
X88209816Y-93834964D01*
X88007539Y-93735212D01*
X87993493Y-93727102D01*
X87789539Y-93590825D01*
X87776670Y-93580951D01*
X87592250Y-93419218D01*
X87580781Y-93407749D01*
X87419048Y-93223329D01*
X87409174Y-93210460D01*
X87272897Y-93006506D01*
X87264787Y-92992460D01*
X87165034Y-92790182D01*
X87163454Y-92786855D01*
X87152835Y-92763602D01*
X87148228Y-92751997D01*
X87080895Y-92553639D01*
X87079929Y-92550150D01*
X87079344Y-92548734D01*
X87066938Y-92506485D01*
X87064311Y-92495794D01*
X87025194Y-92299138D01*
X87024088Y-92292679D01*
X87016671Y-92241094D01*
X87015680Y-92231615D01*
X87000765Y-92004042D01*
X87000500Y-91995933D01*
X87000500Y-91591428D01*
X94725000Y-91591428D01*
X94725000Y-91835000D01*
X95375000Y-91835000D01*
X95375000Y-92335000D01*
X94725000Y-92335000D01*
X94725000Y-92578571D01*
X94761506Y-92762097D01*
X94761508Y-92762105D01*
X94833119Y-92934991D01*
X94833124Y-92935000D01*
X94937086Y-93090589D01*
X94937089Y-93090593D01*
X95069406Y-93222910D01*
X95069410Y-93222913D01*
X95224999Y-93326875D01*
X95225012Y-93326882D01*
X95397889Y-93398489D01*
X95397896Y-93398491D01*
X95425000Y-93403882D01*
X95425000Y-92651988D01*
X95434940Y-92669205D01*
X95490795Y-92725060D01*
X95559204Y-92764556D01*
X95635504Y-92785000D01*
X95714496Y-92785000D01*
X95790796Y-92764556D01*
X95859205Y-92725060D01*
X95915060Y-92669205D01*
X95925000Y-92651988D01*
X95925000Y-93403881D01*
X95952103Y-93398491D01*
X95952110Y-93398489D01*
X96124987Y-93326882D01*
X96125000Y-93326875D01*
X96280589Y-93222913D01*
X96280593Y-93222910D01*
X96412910Y-93090593D01*
X96412913Y-93090589D01*
X96516875Y-92935000D01*
X96516880Y-92934991D01*
X96588491Y-92762105D01*
X96588493Y-92762097D01*
X96624999Y-92578571D01*
X96625000Y-92578569D01*
X96625000Y-92335000D01*
X95975000Y-92335000D01*
X95975000Y-91835000D01*
X96625000Y-91835000D01*
X96625000Y-91591430D01*
X96624999Y-91591428D01*
X103375000Y-91591428D01*
X103375000Y-91835000D01*
X104025000Y-91835000D01*
X104025000Y-92335000D01*
X103375000Y-92335000D01*
X103375000Y-92578571D01*
X103411506Y-92762097D01*
X103411508Y-92762105D01*
X103483119Y-92934991D01*
X103483124Y-92935000D01*
X103587086Y-93090589D01*
X103587089Y-93090593D01*
X103719406Y-93222910D01*
X103719410Y-93222913D01*
X103874999Y-93326875D01*
X103875012Y-93326882D01*
X104047889Y-93398489D01*
X104047896Y-93398491D01*
X104075000Y-93403882D01*
X104075000Y-92651988D01*
X104084940Y-92669205D01*
X104140795Y-92725060D01*
X104209204Y-92764556D01*
X104285504Y-92785000D01*
X104364496Y-92785000D01*
X104440796Y-92764556D01*
X104509205Y-92725060D01*
X104565060Y-92669205D01*
X104575000Y-92651988D01*
X104575000Y-93403881D01*
X104602103Y-93398491D01*
X104602110Y-93398489D01*
X104774987Y-93326882D01*
X104775000Y-93326875D01*
X104930589Y-93222913D01*
X104930593Y-93222910D01*
X105062910Y-93090593D01*
X105062913Y-93090589D01*
X105166875Y-92935000D01*
X105166880Y-92934991D01*
X105238491Y-92762105D01*
X105238493Y-92762097D01*
X105274999Y-92578571D01*
X105275000Y-92578569D01*
X105275000Y-92335000D01*
X104625000Y-92335000D01*
X104625000Y-91835000D01*
X105275000Y-91835000D01*
X105275000Y-91591430D01*
X105274999Y-91591428D01*
X105238493Y-91407902D01*
X105238491Y-91407894D01*
X105166880Y-91235008D01*
X105166875Y-91234999D01*
X105062913Y-91079410D01*
X105062910Y-91079406D01*
X104930593Y-90947089D01*
X104930589Y-90947086D01*
X104775000Y-90843124D01*
X104774991Y-90843119D01*
X104602103Y-90771507D01*
X104602100Y-90771506D01*
X104575000Y-90766115D01*
X104575000Y-91518011D01*
X104565060Y-91500795D01*
X104509205Y-91444940D01*
X104440796Y-91405444D01*
X104364496Y-91385000D01*
X104285504Y-91385000D01*
X104209204Y-91405444D01*
X104140795Y-91444940D01*
X104084940Y-91500795D01*
X104075000Y-91518011D01*
X104075000Y-90766116D01*
X104074999Y-90766115D01*
X104047899Y-90771506D01*
X104047896Y-90771507D01*
X103875008Y-90843119D01*
X103874999Y-90843124D01*
X103719410Y-90947086D01*
X103719406Y-90947089D01*
X103587089Y-91079406D01*
X103587086Y-91079410D01*
X103483124Y-91234999D01*
X103483119Y-91235008D01*
X103411508Y-91407894D01*
X103411506Y-91407902D01*
X103375000Y-91591428D01*
X96624999Y-91591428D01*
X96588493Y-91407902D01*
X96588491Y-91407894D01*
X96516880Y-91235008D01*
X96516875Y-91234999D01*
X96412913Y-91079410D01*
X96412910Y-91079406D01*
X96280593Y-90947089D01*
X96280589Y-90947086D01*
X96125000Y-90843124D01*
X96124991Y-90843119D01*
X95952103Y-90771507D01*
X95952100Y-90771506D01*
X95925000Y-90766115D01*
X95925000Y-91518011D01*
X95915060Y-91500795D01*
X95859205Y-91444940D01*
X95790796Y-91405444D01*
X95714496Y-91385000D01*
X95635504Y-91385000D01*
X95559204Y-91405444D01*
X95490795Y-91444940D01*
X95434940Y-91500795D01*
X95425000Y-91518011D01*
X95425000Y-90766116D01*
X95424999Y-90766115D01*
X95397899Y-90771506D01*
X95397896Y-90771507D01*
X95225008Y-90843119D01*
X95224999Y-90843124D01*
X95069410Y-90947086D01*
X95069406Y-90947089D01*
X94937089Y-91079406D01*
X94937086Y-91079410D01*
X94833124Y-91234999D01*
X94833119Y-91235008D01*
X94761508Y-91407894D01*
X94761506Y-91407902D01*
X94725000Y-91591428D01*
X87000500Y-91591428D01*
X87000500Y-90415992D01*
X93147100Y-90415992D01*
X93147100Y-90584007D01*
X93179874Y-90748774D01*
X93179876Y-90748782D01*
X93244168Y-90903996D01*
X93244173Y-90904006D01*
X93337508Y-91043691D01*
X93337511Y-91043695D01*
X93456304Y-91162488D01*
X93456308Y-91162491D01*
X93595993Y-91255826D01*
X93595997Y-91255828D01*
X93596000Y-91255830D01*
X93751218Y-91320124D01*
X93915992Y-91352899D01*
X93915996Y-91352900D01*
X93915997Y-91352900D01*
X94084004Y-91352900D01*
X94084005Y-91352899D01*
X94248782Y-91320124D01*
X94404000Y-91255830D01*
X94543692Y-91162491D01*
X94662491Y-91043692D01*
X94755830Y-90904000D01*
X94820124Y-90748782D01*
X94852900Y-90584003D01*
X94852900Y-90415997D01*
X94823496Y-90268170D01*
X94829723Y-90198579D01*
X94872586Y-90143401D01*
X94938476Y-90120157D01*
X95006473Y-90136225D01*
X95032794Y-90156298D01*
X95069406Y-90192910D01*
X95069410Y-90192913D01*
X95224999Y-90296875D01*
X95225012Y-90296882D01*
X95397889Y-90368489D01*
X95397896Y-90368491D01*
X95425000Y-90373882D01*
X95425000Y-90124000D01*
X95444685Y-90056961D01*
X95497489Y-90011206D01*
X95549000Y-90000000D01*
X95801000Y-90000000D01*
X95868039Y-90019685D01*
X95913794Y-90072489D01*
X95925000Y-90124000D01*
X95925000Y-90373881D01*
X95952103Y-90368491D01*
X95952110Y-90368489D01*
X96124987Y-90296882D01*
X96125000Y-90296875D01*
X96280589Y-90192913D01*
X96280593Y-90192910D01*
X96412910Y-90060593D01*
X96412917Y-90060584D01*
X96416578Y-90055107D01*
X96470191Y-90010303D01*
X96519678Y-90000000D01*
X103480322Y-90000000D01*
X103547361Y-90019685D01*
X103583422Y-90055107D01*
X103587082Y-90060584D01*
X103587089Y-90060593D01*
X103719406Y-90192910D01*
X103719410Y-90192913D01*
X103874999Y-90296875D01*
X103875012Y-90296882D01*
X104047889Y-90368489D01*
X104047896Y-90368491D01*
X104075000Y-90373882D01*
X104075000Y-89621988D01*
X104084940Y-89639205D01*
X104140795Y-89695060D01*
X104209204Y-89734556D01*
X104285504Y-89755000D01*
X104364496Y-89755000D01*
X104440796Y-89734556D01*
X104509205Y-89695060D01*
X104565060Y-89639205D01*
X104575000Y-89621988D01*
X104575000Y-90373881D01*
X104602103Y-90368491D01*
X104602110Y-90368489D01*
X104774987Y-90296882D01*
X104775000Y-90296875D01*
X104930589Y-90192913D01*
X104930593Y-90192910D01*
X105062910Y-90060593D01*
X105062913Y-90060589D01*
X105166875Y-89905000D01*
X105166880Y-89904991D01*
X105238491Y-89732105D01*
X105238493Y-89732097D01*
X105274999Y-89548571D01*
X105275000Y-89548569D01*
X105275000Y-88955000D01*
X104625000Y-88955000D01*
X104625000Y-88455000D01*
X105275000Y-88455000D01*
X105275000Y-87861430D01*
X105274999Y-87861428D01*
X105238493Y-87677902D01*
X105238491Y-87677894D01*
X105166880Y-87505008D01*
X105166875Y-87504999D01*
X105062913Y-87349410D01*
X105062910Y-87349406D01*
X104930593Y-87217089D01*
X104930589Y-87217086D01*
X104775000Y-87113124D01*
X104774991Y-87113119D01*
X104602103Y-87041507D01*
X104602100Y-87041506D01*
X104575000Y-87036115D01*
X104575000Y-87788011D01*
X104565060Y-87770795D01*
X104509205Y-87714940D01*
X104440796Y-87675444D01*
X104364496Y-87655000D01*
X104285504Y-87655000D01*
X104209204Y-87675444D01*
X104140795Y-87714940D01*
X104084940Y-87770795D01*
X104075000Y-87788011D01*
X104075000Y-87036116D01*
X104074999Y-87036115D01*
X104047899Y-87041506D01*
X104047892Y-87041508D01*
X103921452Y-87093881D01*
X103851982Y-87101350D01*
X103789503Y-87070074D01*
X103753852Y-87009985D01*
X103750000Y-86979320D01*
X103750000Y-86750000D01*
X94875000Y-86750000D01*
X94875000Y-87404714D01*
X94855315Y-87471753D01*
X94854103Y-87473604D01*
X94833120Y-87505007D01*
X94761508Y-87677894D01*
X94761506Y-87677902D01*
X94725000Y-87861428D01*
X94725000Y-88455000D01*
X94751000Y-88455000D01*
X94818039Y-88474685D01*
X94863794Y-88527489D01*
X94875000Y-88579000D01*
X94875000Y-88831000D01*
X94855315Y-88898039D01*
X94802511Y-88943794D01*
X94751000Y-88955000D01*
X94725000Y-88955000D01*
X94725000Y-89548571D01*
X94762016Y-89734662D01*
X94755789Y-89804253D01*
X94712926Y-89859431D01*
X94647036Y-89882675D01*
X94579039Y-89866607D01*
X94552718Y-89846534D01*
X94543695Y-89837511D01*
X94543691Y-89837508D01*
X94404006Y-89744173D01*
X94403996Y-89744168D01*
X94248782Y-89679876D01*
X94248774Y-89679874D01*
X94084007Y-89647100D01*
X94084003Y-89647100D01*
X93915997Y-89647100D01*
X93915992Y-89647100D01*
X93751225Y-89679874D01*
X93751217Y-89679876D01*
X93596003Y-89744168D01*
X93595993Y-89744173D01*
X93456308Y-89837508D01*
X93456304Y-89837511D01*
X93337511Y-89956304D01*
X93337508Y-89956308D01*
X93244173Y-90095993D01*
X93244168Y-90096003D01*
X93179876Y-90251217D01*
X93179874Y-90251225D01*
X93147100Y-90415992D01*
X87000500Y-90415992D01*
X87000500Y-87290992D01*
X90897100Y-87290992D01*
X90897100Y-87459007D01*
X90929874Y-87623774D01*
X90929876Y-87623782D01*
X90994168Y-87778996D01*
X90994173Y-87779006D01*
X91087508Y-87918691D01*
X91087511Y-87918695D01*
X91206304Y-88037488D01*
X91206308Y-88037491D01*
X91345993Y-88130826D01*
X91345997Y-88130828D01*
X91346000Y-88130830D01*
X91501218Y-88195124D01*
X91665992Y-88227899D01*
X91665996Y-88227900D01*
X91665997Y-88227900D01*
X91834004Y-88227900D01*
X91834005Y-88227899D01*
X91998782Y-88195124D01*
X92154000Y-88130830D01*
X92293692Y-88037491D01*
X92412491Y-87918692D01*
X92505830Y-87779000D01*
X92570124Y-87623782D01*
X92602900Y-87459003D01*
X92602900Y-87290997D01*
X92570124Y-87126218D01*
X92505830Y-86971000D01*
X92505828Y-86970997D01*
X92505826Y-86970993D01*
X92412491Y-86831308D01*
X92412488Y-86831304D01*
X92293695Y-86712511D01*
X92293691Y-86712508D01*
X92154006Y-86619173D01*
X92153996Y-86619168D01*
X91998782Y-86554876D01*
X91998774Y-86554874D01*
X91834007Y-86522100D01*
X91834003Y-86522100D01*
X91665997Y-86522100D01*
X91665992Y-86522100D01*
X91501225Y-86554874D01*
X91501217Y-86554876D01*
X91346003Y-86619168D01*
X91345993Y-86619173D01*
X91206308Y-86712508D01*
X91206304Y-86712511D01*
X91087511Y-86831304D01*
X91087508Y-86831308D01*
X90994173Y-86970993D01*
X90994168Y-86971003D01*
X90929876Y-87126217D01*
X90929874Y-87126225D01*
X90897100Y-87290992D01*
X87000500Y-87290992D01*
X87000500Y-86040992D01*
X88397100Y-86040992D01*
X88397100Y-86209007D01*
X88429874Y-86373774D01*
X88429876Y-86373782D01*
X88494168Y-86528996D01*
X88494173Y-86529006D01*
X88587508Y-86668691D01*
X88587511Y-86668695D01*
X88706304Y-86787488D01*
X88706308Y-86787491D01*
X88845993Y-86880826D01*
X88845997Y-86880828D01*
X88846000Y-86880830D01*
X89001218Y-86945124D01*
X89131273Y-86970993D01*
X89165992Y-86977899D01*
X89165996Y-86977900D01*
X89165997Y-86977900D01*
X89334004Y-86977900D01*
X89334005Y-86977899D01*
X89498782Y-86945124D01*
X89654000Y-86880830D01*
X89793692Y-86787491D01*
X89912491Y-86668692D01*
X90005830Y-86529000D01*
X90070124Y-86373782D01*
X90102900Y-86209003D01*
X90102900Y-86040997D01*
X90070124Y-85876218D01*
X90005830Y-85721000D01*
X90005828Y-85720997D01*
X90005826Y-85720993D01*
X89912491Y-85581308D01*
X89912488Y-85581304D01*
X89793695Y-85462511D01*
X89793691Y-85462508D01*
X89654006Y-85369173D01*
X89653996Y-85369168D01*
X89498782Y-85304876D01*
X89498774Y-85304874D01*
X89334007Y-85272100D01*
X89334003Y-85272100D01*
X89165997Y-85272100D01*
X89165992Y-85272100D01*
X89001225Y-85304874D01*
X89001217Y-85304876D01*
X88846003Y-85369168D01*
X88845993Y-85369173D01*
X88706308Y-85462508D01*
X88706304Y-85462511D01*
X88587511Y-85581304D01*
X88587508Y-85581308D01*
X88494173Y-85720993D01*
X88494168Y-85721003D01*
X88429876Y-85876217D01*
X88429874Y-85876225D01*
X88397100Y-86040992D01*
X87000500Y-86040992D01*
X87000500Y-83040992D01*
X91647100Y-83040992D01*
X91647100Y-83209007D01*
X91679874Y-83373774D01*
X91679876Y-83373782D01*
X91744168Y-83528996D01*
X91744173Y-83529006D01*
X91837508Y-83668691D01*
X91837511Y-83668695D01*
X91956304Y-83787488D01*
X91956308Y-83787491D01*
X92095993Y-83880826D01*
X92095997Y-83880828D01*
X92096000Y-83880830D01*
X92251218Y-83945124D01*
X92360379Y-83966837D01*
X92415992Y-83977899D01*
X92415996Y-83977900D01*
X92415997Y-83977900D01*
X92584004Y-83977900D01*
X92584005Y-83977899D01*
X92748782Y-83945124D01*
X92904000Y-83880830D01*
X93043692Y-83787491D01*
X93162491Y-83668692D01*
X93255830Y-83529000D01*
X93320124Y-83373782D01*
X93352900Y-83209003D01*
X93352900Y-83200905D01*
X93372585Y-83133866D01*
X93425389Y-83088111D01*
X93452704Y-83079289D01*
X93498782Y-83070124D01*
X93654000Y-83005830D01*
X93793692Y-82912491D01*
X93912491Y-82793692D01*
X94005830Y-82654000D01*
X94070124Y-82498782D01*
X94102900Y-82334003D01*
X94102900Y-82165997D01*
X94070124Y-82001218D01*
X94005830Y-81846000D01*
X94005828Y-81845997D01*
X94005826Y-81845993D01*
X93912491Y-81706308D01*
X93912488Y-81706304D01*
X93793695Y-81587511D01*
X93793691Y-81587508D01*
X93654006Y-81494173D01*
X93653996Y-81494168D01*
X93498782Y-81429876D01*
X93498774Y-81429874D01*
X93334007Y-81397100D01*
X93334003Y-81397100D01*
X93165997Y-81397100D01*
X93165992Y-81397100D01*
X93001225Y-81429874D01*
X93001217Y-81429876D01*
X92846003Y-81494168D01*
X92845993Y-81494173D01*
X92706308Y-81587508D01*
X92706304Y-81587511D01*
X92587511Y-81706304D01*
X92587508Y-81706308D01*
X92494173Y-81845993D01*
X92494168Y-81846003D01*
X92429876Y-82001217D01*
X92429874Y-82001225D01*
X92397100Y-82165992D01*
X92397100Y-82174094D01*
X92377415Y-82241133D01*
X92324611Y-82286888D01*
X92297291Y-82295711D01*
X92251225Y-82304874D01*
X92251217Y-82304876D01*
X92096003Y-82369168D01*
X92095993Y-82369173D01*
X91956308Y-82462508D01*
X91956304Y-82462511D01*
X91837511Y-82581304D01*
X91837508Y-82581308D01*
X91744173Y-82720993D01*
X91744168Y-82721003D01*
X91679876Y-82876217D01*
X91679874Y-82876225D01*
X91647100Y-83040992D01*
X87000500Y-83040992D01*
X87000500Y-80915992D01*
X98147100Y-80915992D01*
X98147100Y-81084007D01*
X98179874Y-81248774D01*
X98179876Y-81248782D01*
X98244168Y-81403996D01*
X98244173Y-81404006D01*
X98337508Y-81543691D01*
X98337511Y-81543695D01*
X98456304Y-81662488D01*
X98456308Y-81662491D01*
X98595993Y-81755826D01*
X98595997Y-81755828D01*
X98596000Y-81755830D01*
X98751218Y-81820124D01*
X98881273Y-81845993D01*
X98915992Y-81852899D01*
X98915996Y-81852900D01*
X98915997Y-81852900D01*
X99084004Y-81852900D01*
X99084005Y-81852899D01*
X99248782Y-81820124D01*
X99404000Y-81755830D01*
X99543692Y-81662491D01*
X99662491Y-81543692D01*
X99747817Y-81415992D01*
X104272100Y-81415992D01*
X104272100Y-81584007D01*
X104304874Y-81748774D01*
X104304876Y-81748782D01*
X104369168Y-81903996D01*
X104369173Y-81904006D01*
X104387283Y-81931109D01*
X104408161Y-81997787D01*
X104389676Y-82065167D01*
X104387283Y-82068891D01*
X104369173Y-82095993D01*
X104369168Y-82096003D01*
X104304876Y-82251217D01*
X104304874Y-82251225D01*
X104272100Y-82415992D01*
X104272100Y-82584007D01*
X104304874Y-82748774D01*
X104304876Y-82748782D01*
X104369168Y-82903996D01*
X104369173Y-82904006D01*
X104429044Y-82993609D01*
X104449922Y-83060287D01*
X104431437Y-83127667D01*
X104429044Y-83131391D01*
X104369173Y-83220993D01*
X104369168Y-83221003D01*
X104304876Y-83376217D01*
X104304874Y-83376225D01*
X104272100Y-83540992D01*
X104272100Y-83709007D01*
X104304874Y-83873774D01*
X104304876Y-83873782D01*
X104369168Y-84028996D01*
X104369173Y-84029006D01*
X104462508Y-84168691D01*
X104462511Y-84168695D01*
X104581304Y-84287488D01*
X104581308Y-84287491D01*
X104720993Y-84380826D01*
X104720997Y-84380828D01*
X104721000Y-84380830D01*
X104876218Y-84445124D01*
X105040992Y-84477899D01*
X105040996Y-84477900D01*
X105040997Y-84477900D01*
X105209004Y-84477900D01*
X105209005Y-84477899D01*
X105373782Y-84445124D01*
X105529000Y-84380830D01*
X105668692Y-84287491D01*
X105787491Y-84168692D01*
X105795379Y-84156886D01*
X105848987Y-84112082D01*
X105910635Y-84102372D01*
X105915996Y-84102900D01*
X105915997Y-84102900D01*
X106084004Y-84102900D01*
X106084005Y-84102899D01*
X106248782Y-84070124D01*
X106404000Y-84005830D01*
X106431111Y-83987714D01*
X106497784Y-83966837D01*
X106565165Y-83985320D01*
X106568836Y-83987679D01*
X106596000Y-84005830D01*
X106751218Y-84070124D01*
X106913343Y-84102372D01*
X106915992Y-84102899D01*
X106915996Y-84102900D01*
X106915997Y-84102900D01*
X107084004Y-84102900D01*
X107084005Y-84102899D01*
X107248782Y-84070124D01*
X107404000Y-84005830D01*
X107543692Y-83912491D01*
X107662491Y-83793692D01*
X107755830Y-83654000D01*
X107820124Y-83498782D01*
X107852900Y-83334003D01*
X107852900Y-83165997D01*
X107820124Y-83001218D01*
X107755830Y-82846000D01*
X107755828Y-82845997D01*
X107755826Y-82845993D01*
X107662491Y-82706308D01*
X107662488Y-82706304D01*
X107543695Y-82587511D01*
X107543691Y-82587508D01*
X107404006Y-82494173D01*
X107403996Y-82494168D01*
X107248782Y-82429876D01*
X107248774Y-82429874D01*
X107084007Y-82397100D01*
X107084003Y-82397100D01*
X106915997Y-82397100D01*
X106915992Y-82397100D01*
X106751225Y-82429874D01*
X106751217Y-82429876D01*
X106596003Y-82494168D01*
X106595993Y-82494173D01*
X106568891Y-82512283D01*
X106502213Y-82533161D01*
X106434833Y-82514676D01*
X106431109Y-82512283D01*
X106404006Y-82494173D01*
X106403996Y-82494168D01*
X106248782Y-82429876D01*
X106248774Y-82429874D01*
X106084007Y-82397100D01*
X106084003Y-82397100D01*
X106075906Y-82397100D01*
X106008867Y-82377415D01*
X105963112Y-82324611D01*
X105954289Y-82297291D01*
X105945125Y-82251225D01*
X105945124Y-82251218D01*
X105880830Y-82096000D01*
X105862714Y-82068888D01*
X105841837Y-82002216D01*
X105860320Y-81934835D01*
X105862679Y-81931163D01*
X105880830Y-81904000D01*
X105945124Y-81748782D01*
X105977900Y-81584003D01*
X105977900Y-81415997D01*
X105945124Y-81251218D01*
X105880830Y-81096000D01*
X105880828Y-81095997D01*
X105880826Y-81095993D01*
X105787491Y-80956308D01*
X105787488Y-80956304D01*
X105668695Y-80837511D01*
X105668691Y-80837508D01*
X105529006Y-80744173D01*
X105528996Y-80744168D01*
X105373782Y-80679876D01*
X105373774Y-80679874D01*
X105209007Y-80647100D01*
X105209003Y-80647100D01*
X105040997Y-80647100D01*
X105040992Y-80647100D01*
X104876225Y-80679874D01*
X104876217Y-80679876D01*
X104721003Y-80744168D01*
X104720993Y-80744173D01*
X104581308Y-80837508D01*
X104581304Y-80837511D01*
X104462511Y-80956304D01*
X104462508Y-80956308D01*
X104369173Y-81095993D01*
X104369168Y-81096003D01*
X104304876Y-81251217D01*
X104304874Y-81251225D01*
X104272100Y-81415992D01*
X99747817Y-81415992D01*
X99755830Y-81404000D01*
X99820124Y-81248782D01*
X99852900Y-81084003D01*
X99852900Y-80915997D01*
X99820124Y-80751218D01*
X99755830Y-80596000D01*
X99755828Y-80595997D01*
X99755826Y-80595993D01*
X99662491Y-80456308D01*
X99662488Y-80456304D01*
X99543695Y-80337511D01*
X99543691Y-80337508D01*
X99404006Y-80244173D01*
X99403996Y-80244168D01*
X99248782Y-80179876D01*
X99248774Y-80179874D01*
X99084007Y-80147100D01*
X99084003Y-80147100D01*
X98915997Y-80147100D01*
X98915992Y-80147100D01*
X98751225Y-80179874D01*
X98751217Y-80179876D01*
X98596003Y-80244168D01*
X98595993Y-80244173D01*
X98456308Y-80337508D01*
X98456304Y-80337511D01*
X98337511Y-80456304D01*
X98337508Y-80456308D01*
X98244173Y-80595993D01*
X98244168Y-80596003D01*
X98179876Y-80751217D01*
X98179874Y-80751225D01*
X98147100Y-80915992D01*
X87000500Y-80915992D01*
X87000500Y-78330992D01*
X89876100Y-78330992D01*
X89876100Y-78499007D01*
X89908874Y-78663774D01*
X89908876Y-78663782D01*
X89973168Y-78818996D01*
X89973173Y-78819006D01*
X90066508Y-78958691D01*
X90066511Y-78958695D01*
X90185304Y-79077488D01*
X90185308Y-79077491D01*
X90324993Y-79170826D01*
X90324997Y-79170828D01*
X90325000Y-79170830D01*
X90480218Y-79235124D01*
X90644992Y-79267899D01*
X90644996Y-79267900D01*
X90644997Y-79267900D01*
X90813004Y-79267900D01*
X90813005Y-79267899D01*
X90977782Y-79235124D01*
X91133000Y-79170830D01*
X91232542Y-79104317D01*
X91299219Y-79083440D01*
X91366599Y-79101924D01*
X91413290Y-79153903D01*
X91424466Y-79222873D01*
X91423051Y-79231610D01*
X91400100Y-79346998D01*
X91400100Y-79515007D01*
X91432874Y-79679774D01*
X91432876Y-79679782D01*
X91497168Y-79834996D01*
X91497173Y-79835006D01*
X91590508Y-79974691D01*
X91590511Y-79974695D01*
X91709304Y-80093488D01*
X91709308Y-80093491D01*
X91848993Y-80186826D01*
X91848997Y-80186828D01*
X91849000Y-80186830D01*
X92004218Y-80251124D01*
X92168992Y-80283899D01*
X92168996Y-80283900D01*
X92168997Y-80283900D01*
X92337004Y-80283900D01*
X92337005Y-80283899D01*
X92501782Y-80251124D01*
X92657000Y-80186830D01*
X92796692Y-80093491D01*
X92915491Y-79974692D01*
X93008830Y-79835000D01*
X93073124Y-79679782D01*
X93105900Y-79515003D01*
X93105900Y-79346997D01*
X93073124Y-79182218D01*
X93008830Y-79027000D01*
X92985368Y-78991887D01*
X92964492Y-78925215D01*
X92982976Y-78857834D01*
X92985333Y-78854164D01*
X93008830Y-78819000D01*
X93073124Y-78663782D01*
X93105900Y-78499003D01*
X93105900Y-78330997D01*
X93073124Y-78166218D01*
X93008830Y-78011000D01*
X93008828Y-78010997D01*
X93008826Y-78010993D01*
X92915491Y-77871308D01*
X92915488Y-77871304D01*
X92796695Y-77752511D01*
X92796691Y-77752508D01*
X92657006Y-77659173D01*
X92656996Y-77659168D01*
X92501782Y-77594876D01*
X92501776Y-77594874D01*
X92424017Y-77579407D01*
X92362106Y-77547022D01*
X92327532Y-77486306D01*
X92326592Y-77481981D01*
X92311125Y-77404225D01*
X92311124Y-77404218D01*
X92246830Y-77249000D01*
X92246828Y-77248997D01*
X92246826Y-77248993D01*
X92153491Y-77109308D01*
X92153488Y-77109304D01*
X92034695Y-76990511D01*
X92034691Y-76990508D01*
X91895006Y-76897173D01*
X91894996Y-76897168D01*
X91739782Y-76832876D01*
X91739774Y-76832874D01*
X91575007Y-76800100D01*
X91575003Y-76800100D01*
X91406997Y-76800100D01*
X91406992Y-76800100D01*
X91242225Y-76832874D01*
X91242217Y-76832876D01*
X91087003Y-76897168D01*
X91086993Y-76897173D01*
X90947308Y-76990508D01*
X90947304Y-76990511D01*
X90828511Y-77109304D01*
X90828508Y-77109308D01*
X90735173Y-77248993D01*
X90735168Y-77249003D01*
X90670876Y-77404217D01*
X90670874Y-77404223D01*
X90655407Y-77481982D01*
X90623022Y-77543893D01*
X90562306Y-77578467D01*
X90557982Y-77579407D01*
X90480223Y-77594874D01*
X90480217Y-77594876D01*
X90325003Y-77659168D01*
X90324993Y-77659173D01*
X90185308Y-77752508D01*
X90185304Y-77752511D01*
X90066511Y-77871304D01*
X90066508Y-77871308D01*
X89973173Y-78010993D01*
X89973168Y-78011003D01*
X89908876Y-78166217D01*
X89908874Y-78166225D01*
X89876100Y-78330992D01*
X87000500Y-78330992D01*
X87000500Y-74647992D01*
X87463100Y-74647992D01*
X87463100Y-74816007D01*
X87495874Y-74980774D01*
X87495876Y-74980782D01*
X87560168Y-75135996D01*
X87560173Y-75136006D01*
X87653508Y-75275691D01*
X87653511Y-75275695D01*
X87772304Y-75394488D01*
X87772308Y-75394491D01*
X87911993Y-75487826D01*
X87911997Y-75487828D01*
X87912000Y-75487830D01*
X88067218Y-75552124D01*
X88231992Y-75584899D01*
X88231996Y-75584900D01*
X88231997Y-75584900D01*
X88400004Y-75584900D01*
X88400005Y-75584899D01*
X88564782Y-75552124D01*
X88720000Y-75487830D01*
X88859692Y-75394491D01*
X88978491Y-75275692D01*
X89071830Y-75136000D01*
X89136124Y-74980782D01*
X89168900Y-74816003D01*
X89168900Y-74647997D01*
X89136124Y-74483218D01*
X89071830Y-74328000D01*
X89071828Y-74327997D01*
X89071826Y-74327993D01*
X88978491Y-74188308D01*
X88978488Y-74188304D01*
X88859695Y-74069511D01*
X88859691Y-74069508D01*
X88720006Y-73976173D01*
X88719996Y-73976168D01*
X88564782Y-73911876D01*
X88564774Y-73911874D01*
X88400007Y-73879100D01*
X88400003Y-73879100D01*
X88231997Y-73879100D01*
X88231992Y-73879100D01*
X88067225Y-73911874D01*
X88067217Y-73911876D01*
X87912003Y-73976168D01*
X87911993Y-73976173D01*
X87772308Y-74069508D01*
X87772304Y-74069511D01*
X87653511Y-74188304D01*
X87653508Y-74188308D01*
X87560173Y-74327993D01*
X87560168Y-74328003D01*
X87495876Y-74483217D01*
X87495874Y-74483225D01*
X87463100Y-74647992D01*
X87000500Y-74647992D01*
X87000500Y-73165992D01*
X97022100Y-73165992D01*
X97022100Y-73334007D01*
X97054874Y-73498774D01*
X97054876Y-73498782D01*
X97119168Y-73653996D01*
X97119173Y-73654006D01*
X97212508Y-73793691D01*
X97212511Y-73793695D01*
X97331304Y-73912488D01*
X97331308Y-73912491D01*
X97470993Y-74005826D01*
X97470997Y-74005828D01*
X97471000Y-74005830D01*
X97626218Y-74070124D01*
X97790992Y-74102899D01*
X97790996Y-74102900D01*
X97908420Y-74102900D01*
X97975459Y-74122585D01*
X98021214Y-74175389D01*
X98031158Y-74244547D01*
X98030038Y-74251084D01*
X98022798Y-74287491D01*
X98022100Y-74290998D01*
X98022100Y-74459007D01*
X98054874Y-74623774D01*
X98054876Y-74623782D01*
X98119168Y-74778996D01*
X98119173Y-74779006D01*
X98212508Y-74918691D01*
X98212511Y-74918695D01*
X98331304Y-75037488D01*
X98331308Y-75037491D01*
X98470993Y-75130826D01*
X98470997Y-75130828D01*
X98471000Y-75130830D01*
X98626218Y-75195124D01*
X98790992Y-75227899D01*
X98790996Y-75227900D01*
X98790997Y-75227900D01*
X98959004Y-75227900D01*
X98959005Y-75227899D01*
X99123782Y-75195124D01*
X99279000Y-75130830D01*
X99418692Y-75037491D01*
X99537491Y-74918692D01*
X99630830Y-74779000D01*
X99695124Y-74623782D01*
X99727900Y-74459003D01*
X99727900Y-74290997D01*
X99695124Y-74126218D01*
X99630830Y-73971000D01*
X99630828Y-73970997D01*
X99630826Y-73970993D01*
X99537491Y-73831308D01*
X99537488Y-73831304D01*
X99418695Y-73712511D01*
X99418691Y-73712508D01*
X99279006Y-73619173D01*
X99278996Y-73619168D01*
X99123782Y-73554876D01*
X99123774Y-73554874D01*
X98959007Y-73522100D01*
X98959003Y-73522100D01*
X98841580Y-73522100D01*
X98774541Y-73502415D01*
X98728786Y-73449611D01*
X98718842Y-73380453D01*
X98719962Y-73373910D01*
X98727900Y-73334001D01*
X98727900Y-73165996D01*
X98727899Y-73165992D01*
X98695124Y-73001218D01*
X98630830Y-72846000D01*
X98630828Y-72845997D01*
X98630826Y-72845993D01*
X98537491Y-72706308D01*
X98537488Y-72706304D01*
X98418695Y-72587511D01*
X98418691Y-72587508D01*
X98307193Y-72513007D01*
X98279004Y-72494172D01*
X98278996Y-72494168D01*
X98123782Y-72429876D01*
X98123774Y-72429874D01*
X98053984Y-72415992D01*
X108397100Y-72415992D01*
X108397100Y-72584007D01*
X108429874Y-72748774D01*
X108429876Y-72748782D01*
X108494168Y-72903996D01*
X108494173Y-72904006D01*
X108554044Y-72993609D01*
X108574922Y-73060287D01*
X108556437Y-73127667D01*
X108554044Y-73131391D01*
X108494173Y-73220993D01*
X108494168Y-73221003D01*
X108429876Y-73376217D01*
X108429874Y-73376225D01*
X108397100Y-73540992D01*
X108397100Y-73709007D01*
X108429874Y-73873774D01*
X108429876Y-73873782D01*
X108494168Y-74028996D01*
X108494173Y-74029006D01*
X108587508Y-74168691D01*
X108587511Y-74168695D01*
X108706304Y-74287488D01*
X108706308Y-74287491D01*
X108845993Y-74380826D01*
X108845997Y-74380828D01*
X108846000Y-74380830D01*
X109001218Y-74445124D01*
X109165992Y-74477899D01*
X109165996Y-74477900D01*
X109165997Y-74477900D01*
X109334004Y-74477900D01*
X109334005Y-74477899D01*
X109498782Y-74445124D01*
X109654000Y-74380830D01*
X109793692Y-74287491D01*
X109912491Y-74168692D01*
X110005830Y-74029000D01*
X110070124Y-73873782D01*
X110102900Y-73709003D01*
X110102900Y-73540997D01*
X110070124Y-73376218D01*
X110005830Y-73221000D01*
X109945954Y-73131390D01*
X109925077Y-73064714D01*
X109943561Y-72997334D01*
X109945955Y-72993609D01*
X110005830Y-72904000D01*
X110070124Y-72748782D01*
X110102900Y-72584003D01*
X110102900Y-72415997D01*
X110070124Y-72251218D01*
X110005830Y-72096000D01*
X110005828Y-72095997D01*
X110005826Y-72095993D01*
X109912491Y-71956308D01*
X109912488Y-71956304D01*
X109793695Y-71837511D01*
X109793691Y-71837508D01*
X109654006Y-71744173D01*
X109653996Y-71744168D01*
X109498782Y-71679876D01*
X109498774Y-71679874D01*
X109334007Y-71647100D01*
X109334003Y-71647100D01*
X109165997Y-71647100D01*
X109165992Y-71647100D01*
X109001225Y-71679874D01*
X109001217Y-71679876D01*
X108846003Y-71744168D01*
X108845993Y-71744173D01*
X108706308Y-71837508D01*
X108706304Y-71837511D01*
X108587511Y-71956304D01*
X108587508Y-71956308D01*
X108494173Y-72095993D01*
X108494168Y-72096003D01*
X108429876Y-72251217D01*
X108429874Y-72251225D01*
X108397100Y-72415992D01*
X98053984Y-72415992D01*
X97959007Y-72397100D01*
X97959003Y-72397100D01*
X97790997Y-72397100D01*
X97790992Y-72397100D01*
X97626225Y-72429874D01*
X97626217Y-72429876D01*
X97471003Y-72494168D01*
X97470993Y-72494173D01*
X97331308Y-72587508D01*
X97331304Y-72587511D01*
X97212511Y-72706304D01*
X97212508Y-72706308D01*
X97119173Y-72845993D01*
X97119168Y-72846003D01*
X97054876Y-73001217D01*
X97054874Y-73001225D01*
X97022100Y-73165992D01*
X87000500Y-73165992D01*
X87000500Y-69665992D01*
X105522100Y-69665992D01*
X105522100Y-69834007D01*
X105554874Y-69998774D01*
X105554876Y-69998782D01*
X105619168Y-70153996D01*
X105619173Y-70154006D01*
X105712508Y-70293691D01*
X105712511Y-70293695D01*
X105831305Y-70412489D01*
X105831308Y-70412491D01*
X105969293Y-70504689D01*
X106014098Y-70558300D01*
X106022019Y-70583600D01*
X106054874Y-70748774D01*
X106054876Y-70748782D01*
X106119168Y-70903996D01*
X106119173Y-70904006D01*
X106212508Y-71043691D01*
X106212511Y-71043695D01*
X106331304Y-71162488D01*
X106331308Y-71162491D01*
X106470993Y-71255826D01*
X106470997Y-71255828D01*
X106471000Y-71255830D01*
X106626218Y-71320124D01*
X106790992Y-71352899D01*
X106790996Y-71352900D01*
X106790997Y-71352900D01*
X106959004Y-71352900D01*
X106959005Y-71352899D01*
X107123782Y-71320124D01*
X107279000Y-71255830D01*
X107418692Y-71162491D01*
X107537491Y-71043692D01*
X107630830Y-70904000D01*
X107695124Y-70748782D01*
X107727900Y-70584003D01*
X107727900Y-70415997D01*
X107695124Y-70251218D01*
X107630830Y-70096000D01*
X107630828Y-70095997D01*
X107630826Y-70095993D01*
X107537491Y-69956308D01*
X107537488Y-69956304D01*
X107418695Y-69837511D01*
X107418687Y-69837505D01*
X107280707Y-69745310D01*
X107235901Y-69691698D01*
X107227979Y-69666398D01*
X107227900Y-69666000D01*
X107227900Y-69665997D01*
X107195124Y-69501218D01*
X107130830Y-69346000D01*
X107130828Y-69345997D01*
X107130826Y-69345993D01*
X107037491Y-69206308D01*
X107037488Y-69206304D01*
X106918695Y-69087511D01*
X106918691Y-69087508D01*
X106779006Y-68994173D01*
X106778996Y-68994168D01*
X106623782Y-68929876D01*
X106623774Y-68929874D01*
X106459007Y-68897100D01*
X106459003Y-68897100D01*
X106290997Y-68897100D01*
X106290992Y-68897100D01*
X106126225Y-68929874D01*
X106126217Y-68929876D01*
X105971003Y-68994168D01*
X105970993Y-68994173D01*
X105831308Y-69087508D01*
X105831304Y-69087511D01*
X105712511Y-69206304D01*
X105712508Y-69206308D01*
X105619173Y-69345993D01*
X105619168Y-69346003D01*
X105554876Y-69501217D01*
X105554874Y-69501225D01*
X105522100Y-69665992D01*
X87000500Y-69665992D01*
X87000500Y-66040992D01*
X88397100Y-66040992D01*
X88397100Y-66209007D01*
X88429874Y-66373774D01*
X88429876Y-66373782D01*
X88494168Y-66528996D01*
X88494173Y-66529006D01*
X88587508Y-66668691D01*
X88587511Y-66668695D01*
X88706304Y-66787488D01*
X88706308Y-66787491D01*
X88845993Y-66880826D01*
X88845997Y-66880828D01*
X88846000Y-66880830D01*
X89001218Y-66945124D01*
X89165992Y-66977899D01*
X89165996Y-66977900D01*
X89165997Y-66977900D01*
X89334004Y-66977900D01*
X89334005Y-66977899D01*
X89498782Y-66945124D01*
X89654000Y-66880830D01*
X89793692Y-66787491D01*
X89912491Y-66668692D01*
X90005830Y-66529000D01*
X90070124Y-66373782D01*
X90102900Y-66209003D01*
X90102900Y-66040997D01*
X90070917Y-65880205D01*
X90077144Y-65810615D01*
X90120007Y-65755437D01*
X90168340Y-65734398D01*
X90215973Y-65724924D01*
X90371191Y-65660630D01*
X90510883Y-65567291D01*
X90629682Y-65448492D01*
X90723021Y-65308800D01*
X90787315Y-65153582D01*
X90820091Y-64988803D01*
X90820091Y-64820797D01*
X90787315Y-64656018D01*
X90723021Y-64500800D01*
X90723020Y-64500799D01*
X90721533Y-64497208D01*
X90714064Y-64427739D01*
X90721533Y-64402302D01*
X90785124Y-64248782D01*
X90817900Y-64084003D01*
X90817900Y-63979992D01*
X92162100Y-63979992D01*
X92162100Y-64148007D01*
X92194874Y-64312774D01*
X92194876Y-64312782D01*
X92259168Y-64467996D01*
X92259173Y-64468006D01*
X92352508Y-64607691D01*
X92352511Y-64607695D01*
X92471304Y-64726488D01*
X92471308Y-64726491D01*
X92610993Y-64819826D01*
X92610997Y-64819828D01*
X92611000Y-64819830D01*
X92766218Y-64884124D01*
X92871129Y-64904991D01*
X92933037Y-64937375D01*
X92967612Y-64998090D01*
X92963873Y-65067860D01*
X92961498Y-65074057D01*
X92956878Y-65085209D01*
X92956874Y-65085225D01*
X92924100Y-65249992D01*
X92924100Y-65418007D01*
X92956874Y-65582774D01*
X92956876Y-65582782D01*
X93021169Y-65737999D01*
X93032821Y-65755437D01*
X93072459Y-65814760D01*
X93093337Y-65881436D01*
X93083918Y-65931102D01*
X93054877Y-66001213D01*
X93054874Y-66001225D01*
X93022100Y-66165992D01*
X93022100Y-66334007D01*
X93054874Y-66498774D01*
X93054876Y-66498782D01*
X93119168Y-66653996D01*
X93119173Y-66654006D01*
X93212508Y-66793691D01*
X93212511Y-66793695D01*
X93331304Y-66912488D01*
X93331308Y-66912491D01*
X93470993Y-67005826D01*
X93470997Y-67005828D01*
X93471000Y-67005830D01*
X93626218Y-67070124D01*
X93790992Y-67102899D01*
X93790996Y-67102900D01*
X93790997Y-67102900D01*
X93959004Y-67102900D01*
X93959005Y-67102899D01*
X94123782Y-67070124D01*
X94279000Y-67005830D01*
X94418692Y-66912491D01*
X94537491Y-66793692D01*
X94560003Y-66759998D01*
X94613614Y-66715195D01*
X94682939Y-66706486D01*
X94687298Y-66707273D01*
X94790994Y-66727899D01*
X94790996Y-66727900D01*
X94790997Y-66727900D01*
X94959004Y-66727900D01*
X94959005Y-66727899D01*
X95123782Y-66695124D01*
X95279000Y-66630830D01*
X95418692Y-66537491D01*
X95537491Y-66418692D01*
X95620639Y-66294252D01*
X96958100Y-66294252D01*
X96958100Y-66462267D01*
X96990874Y-66627034D01*
X96990876Y-66627042D01*
X97055168Y-66782256D01*
X97055173Y-66782266D01*
X97148508Y-66921951D01*
X97148511Y-66921955D01*
X97267304Y-67040748D01*
X97267308Y-67040751D01*
X97406993Y-67134086D01*
X97406997Y-67134088D01*
X97407000Y-67134090D01*
X97562218Y-67198384D01*
X97726992Y-67231159D01*
X97726996Y-67231160D01*
X97726997Y-67231160D01*
X97895004Y-67231160D01*
X97895005Y-67231159D01*
X98059782Y-67198384D01*
X98215000Y-67134090D01*
X98354692Y-67040751D01*
X98473491Y-66921952D01*
X98485486Y-66904000D01*
X98486662Y-66902240D01*
X98540273Y-66857433D01*
X98609598Y-66848724D01*
X98613958Y-66849511D01*
X98630995Y-66852900D01*
X98630997Y-66852900D01*
X98799004Y-66852900D01*
X98799005Y-66852899D01*
X98963782Y-66820124D01*
X99119000Y-66755830D01*
X99258692Y-66662491D01*
X99377491Y-66543692D01*
X99470830Y-66404000D01*
X99535124Y-66248782D01*
X99567900Y-66084003D01*
X99567900Y-65915997D01*
X99535124Y-65751218D01*
X99499822Y-65665992D01*
X101362100Y-65665992D01*
X101362100Y-65834007D01*
X101394874Y-65998774D01*
X101394876Y-65998782D01*
X101459168Y-66153996D01*
X101459173Y-66154006D01*
X101552508Y-66293691D01*
X101552511Y-66293695D01*
X101671304Y-66412488D01*
X101671308Y-66412491D01*
X101810993Y-66505826D01*
X101810997Y-66505828D01*
X101811000Y-66505830D01*
X101966218Y-66570124D01*
X102130992Y-66602899D01*
X102130996Y-66602900D01*
X102130997Y-66602900D01*
X102299004Y-66602900D01*
X102299005Y-66602899D01*
X102463782Y-66570124D01*
X102619000Y-66505830D01*
X102629560Y-66498774D01*
X102669209Y-66472282D01*
X102735887Y-66451404D01*
X102803267Y-66469889D01*
X102849957Y-66521867D01*
X102862100Y-66575384D01*
X102862100Y-66584007D01*
X102894874Y-66748774D01*
X102894876Y-66748782D01*
X102959168Y-66903996D01*
X102959173Y-66904006D01*
X103052508Y-67043691D01*
X103052511Y-67043695D01*
X103171304Y-67162488D01*
X103171308Y-67162491D01*
X103310993Y-67255826D01*
X103310997Y-67255828D01*
X103311000Y-67255830D01*
X103466218Y-67320124D01*
X103630992Y-67352899D01*
X103630996Y-67352900D01*
X103630997Y-67352900D01*
X103799004Y-67352900D01*
X103799005Y-67352899D01*
X103963782Y-67320124D01*
X104119000Y-67255830D01*
X104258692Y-67162491D01*
X104377491Y-67043692D01*
X104470830Y-66904000D01*
X104535124Y-66748782D01*
X104567900Y-66584003D01*
X104567900Y-66415997D01*
X104535124Y-66251218D01*
X104470830Y-66096000D01*
X104470828Y-66095997D01*
X104470826Y-66095993D01*
X104377491Y-65956308D01*
X104377488Y-65956304D01*
X104258695Y-65837511D01*
X104258691Y-65837508D01*
X104119006Y-65744173D01*
X104118996Y-65744168D01*
X103963782Y-65679876D01*
X103963774Y-65679874D01*
X103799007Y-65647100D01*
X103799003Y-65647100D01*
X103630997Y-65647100D01*
X103630992Y-65647100D01*
X103466225Y-65679874D01*
X103466217Y-65679876D01*
X103311003Y-65744168D01*
X103310995Y-65744172D01*
X103260790Y-65777718D01*
X103194112Y-65798595D01*
X103126732Y-65780110D01*
X103080042Y-65728130D01*
X103067900Y-65674615D01*
X103067900Y-65665996D01*
X103067899Y-65665992D01*
X103053977Y-65596000D01*
X103035124Y-65501218D01*
X102970830Y-65346000D01*
X102970828Y-65345997D01*
X102970826Y-65345993D01*
X102877491Y-65206308D01*
X102877488Y-65206304D01*
X102758695Y-65087511D01*
X102758691Y-65087508D01*
X102619006Y-64994173D01*
X102618996Y-64994168D01*
X102463782Y-64929876D01*
X102463774Y-64929874D01*
X102299007Y-64897100D01*
X102299003Y-64897100D01*
X102130997Y-64897100D01*
X102130992Y-64897100D01*
X101966225Y-64929874D01*
X101966217Y-64929876D01*
X101811003Y-64994168D01*
X101810993Y-64994173D01*
X101671308Y-65087508D01*
X101671304Y-65087511D01*
X101552511Y-65206304D01*
X101552508Y-65206308D01*
X101459173Y-65345993D01*
X101459168Y-65346003D01*
X101394876Y-65501217D01*
X101394874Y-65501225D01*
X101362100Y-65665992D01*
X99499822Y-65665992D01*
X99470830Y-65596000D01*
X99470829Y-65595999D01*
X99470826Y-65595993D01*
X99377491Y-65456308D01*
X99377488Y-65456304D01*
X99258695Y-65337511D01*
X99258691Y-65337508D01*
X99119006Y-65244173D01*
X99118996Y-65244168D01*
X98963782Y-65179876D01*
X98963774Y-65179874D01*
X98799007Y-65147100D01*
X98799003Y-65147100D01*
X98630997Y-65147100D01*
X98630992Y-65147100D01*
X98466225Y-65179874D01*
X98466217Y-65179876D01*
X98311003Y-65244168D01*
X98310993Y-65244173D01*
X98171308Y-65337508D01*
X98171304Y-65337511D01*
X98052511Y-65456304D01*
X98052507Y-65456309D01*
X98039333Y-65476025D01*
X97985719Y-65520828D01*
X97916394Y-65529534D01*
X97912046Y-65528749D01*
X97895006Y-65525360D01*
X97895003Y-65525360D01*
X97726997Y-65525360D01*
X97726992Y-65525360D01*
X97562225Y-65558134D01*
X97562217Y-65558136D01*
X97407003Y-65622428D01*
X97406993Y-65622433D01*
X97267308Y-65715768D01*
X97267304Y-65715771D01*
X97148511Y-65834564D01*
X97148508Y-65834568D01*
X97055173Y-65974253D01*
X97055168Y-65974263D01*
X96990876Y-66129477D01*
X96990874Y-66129485D01*
X96958100Y-66294252D01*
X95620639Y-66294252D01*
X95630830Y-66279000D01*
X95695124Y-66123782D01*
X95727900Y-65959003D01*
X95727900Y-65790997D01*
X95695124Y-65626218D01*
X95630830Y-65471000D01*
X95630828Y-65470997D01*
X95630826Y-65470993D01*
X95537491Y-65331308D01*
X95537488Y-65331304D01*
X95418695Y-65212511D01*
X95418691Y-65212508D01*
X95279006Y-65119173D01*
X95278996Y-65119168D01*
X95123782Y-65054876D01*
X95123774Y-65054874D01*
X94959007Y-65022100D01*
X94959003Y-65022100D01*
X94790997Y-65022100D01*
X94768242Y-65026626D01*
X94687534Y-65042679D01*
X94617942Y-65036450D01*
X94562765Y-64993587D01*
X94548783Y-64968513D01*
X94532833Y-64930006D01*
X94532826Y-64929993D01*
X94520633Y-64911745D01*
X94499755Y-64845068D01*
X94518239Y-64777687D01*
X94554844Y-64739752D01*
X94574692Y-64726491D01*
X94693491Y-64607692D01*
X94786830Y-64468000D01*
X94808373Y-64415992D01*
X104397100Y-64415992D01*
X104397100Y-64584007D01*
X104429874Y-64748774D01*
X104429876Y-64748782D01*
X104494168Y-64903996D01*
X104494173Y-64904006D01*
X104587508Y-65043691D01*
X104587511Y-65043695D01*
X104706304Y-65162488D01*
X104706308Y-65162491D01*
X104845993Y-65255826D01*
X104845997Y-65255828D01*
X104846000Y-65255830D01*
X105001218Y-65320124D01*
X105131273Y-65345993D01*
X105165992Y-65352899D01*
X105165996Y-65352900D01*
X105165997Y-65352900D01*
X105334004Y-65352900D01*
X105334005Y-65352899D01*
X105498782Y-65320124D01*
X105654000Y-65255830D01*
X105793692Y-65162491D01*
X105912491Y-65043692D01*
X106005830Y-64904000D01*
X106070124Y-64748782D01*
X106102900Y-64584003D01*
X106102900Y-64415997D01*
X106070124Y-64251218D01*
X106005830Y-64096000D01*
X106005828Y-64095997D01*
X106005826Y-64095993D01*
X105912491Y-63956308D01*
X105912488Y-63956304D01*
X105793695Y-63837511D01*
X105793691Y-63837508D01*
X105654006Y-63744173D01*
X105653996Y-63744168D01*
X105498782Y-63679876D01*
X105498774Y-63679874D01*
X105334007Y-63647100D01*
X105334003Y-63647100D01*
X105165997Y-63647100D01*
X105165992Y-63647100D01*
X105001225Y-63679874D01*
X105001217Y-63679876D01*
X104846003Y-63744168D01*
X104845993Y-63744173D01*
X104706308Y-63837508D01*
X104706304Y-63837511D01*
X104587511Y-63956304D01*
X104587508Y-63956308D01*
X104494173Y-64095993D01*
X104494168Y-64096003D01*
X104429876Y-64251217D01*
X104429874Y-64251225D01*
X104397100Y-64415992D01*
X94808373Y-64415992D01*
X94851124Y-64312782D01*
X94883900Y-64148003D01*
X94883900Y-63979997D01*
X94851124Y-63815218D01*
X94786830Y-63660000D01*
X94786828Y-63659997D01*
X94786826Y-63659993D01*
X94693491Y-63520308D01*
X94693488Y-63520304D01*
X94574695Y-63401511D01*
X94574691Y-63401508D01*
X94435006Y-63308173D01*
X94434996Y-63308168D01*
X94294567Y-63250000D01*
X96000000Y-63250000D01*
X102500000Y-63250000D01*
X102500000Y-61915992D01*
X104647100Y-61915992D01*
X104647100Y-62084007D01*
X104679874Y-62248774D01*
X104679876Y-62248782D01*
X104744168Y-62403996D01*
X104744173Y-62404006D01*
X104837508Y-62543691D01*
X104837511Y-62543695D01*
X104956304Y-62662488D01*
X104956308Y-62662491D01*
X105095993Y-62755826D01*
X105095997Y-62755828D01*
X105096000Y-62755830D01*
X105251218Y-62820124D01*
X105415992Y-62852899D01*
X105415996Y-62852900D01*
X105415997Y-62852900D01*
X105584004Y-62852900D01*
X105584005Y-62852899D01*
X105748782Y-62820124D01*
X105904000Y-62755830D01*
X106043692Y-62662491D01*
X106162491Y-62543692D01*
X106255830Y-62404000D01*
X106320124Y-62248782D01*
X106352900Y-62084003D01*
X106352900Y-61915997D01*
X106320124Y-61751218D01*
X106255830Y-61596000D01*
X106255828Y-61595997D01*
X106255826Y-61595993D01*
X106162491Y-61456308D01*
X106162488Y-61456304D01*
X106043695Y-61337511D01*
X106043691Y-61337508D01*
X105904006Y-61244173D01*
X105903996Y-61244168D01*
X105748782Y-61179876D01*
X105748774Y-61179874D01*
X105584007Y-61147100D01*
X105584003Y-61147100D01*
X105415997Y-61147100D01*
X105415992Y-61147100D01*
X105251225Y-61179874D01*
X105251217Y-61179876D01*
X105096003Y-61244168D01*
X105095993Y-61244173D01*
X104956308Y-61337508D01*
X104956304Y-61337511D01*
X104837511Y-61456304D01*
X104837508Y-61456308D01*
X104744173Y-61595993D01*
X104744168Y-61596003D01*
X104679876Y-61751217D01*
X104679874Y-61751225D01*
X104647100Y-61915992D01*
X102500000Y-61915992D01*
X102500000Y-61505546D01*
X102519685Y-61438507D01*
X102572489Y-61392752D01*
X102641647Y-61382808D01*
X102705203Y-61411833D01*
X102711681Y-61417865D01*
X102831304Y-61537488D01*
X102831308Y-61537491D01*
X102970993Y-61630826D01*
X102970997Y-61630828D01*
X102971000Y-61630830D01*
X103126218Y-61695124D01*
X103290992Y-61727899D01*
X103290996Y-61727900D01*
X103290997Y-61727900D01*
X103459004Y-61727900D01*
X103459005Y-61727899D01*
X103623782Y-61695124D01*
X103779000Y-61630830D01*
X103918692Y-61537491D01*
X104037491Y-61418692D01*
X104130830Y-61279000D01*
X104195124Y-61123782D01*
X104227900Y-60959003D01*
X104227900Y-60950905D01*
X104247585Y-60883866D01*
X104300389Y-60838111D01*
X104327704Y-60829289D01*
X104373782Y-60820124D01*
X104529000Y-60755830D01*
X104668692Y-60662491D01*
X104787491Y-60543692D01*
X104880830Y-60404000D01*
X104945124Y-60248782D01*
X104977900Y-60084003D01*
X104977900Y-60036627D01*
X104997585Y-59969588D01*
X105050389Y-59923833D01*
X105054448Y-59922066D01*
X105153993Y-59880833D01*
X105153993Y-59880832D01*
X105154000Y-59880830D01*
X105293692Y-59787491D01*
X105412491Y-59668692D01*
X105505830Y-59529000D01*
X105552940Y-59415266D01*
X105596779Y-59360864D01*
X105643304Y-59341104D01*
X105748782Y-59320124D01*
X105904000Y-59255830D01*
X106043692Y-59162491D01*
X106162491Y-59043692D01*
X106255830Y-58904000D01*
X106320124Y-58748782D01*
X106352900Y-58584003D01*
X106352900Y-58415997D01*
X106320124Y-58251218D01*
X106255830Y-58096000D01*
X106255828Y-58095997D01*
X106255826Y-58095993D01*
X106162491Y-57956308D01*
X106162488Y-57956304D01*
X106043695Y-57837511D01*
X106043691Y-57837508D01*
X105904006Y-57744173D01*
X105903996Y-57744168D01*
X105748782Y-57679876D01*
X105748774Y-57679874D01*
X105584007Y-57647100D01*
X105584003Y-57647100D01*
X105415997Y-57647100D01*
X105415992Y-57647100D01*
X105251225Y-57679874D01*
X105251217Y-57679876D01*
X105096003Y-57744168D01*
X105095993Y-57744173D01*
X104956308Y-57837508D01*
X104956304Y-57837511D01*
X104837511Y-57956304D01*
X104837508Y-57956308D01*
X104744173Y-58095993D01*
X104744168Y-58096003D01*
X104697060Y-58209732D01*
X104653219Y-58264135D01*
X104606690Y-58283896D01*
X104501225Y-58304874D01*
X104501217Y-58304876D01*
X104346003Y-58369168D01*
X104345993Y-58369173D01*
X104206308Y-58462508D01*
X104206304Y-58462511D01*
X104087511Y-58581304D01*
X104087508Y-58581308D01*
X103994173Y-58720993D01*
X103994168Y-58721003D01*
X103929876Y-58876217D01*
X103929874Y-58876225D01*
X103897100Y-59040992D01*
X103897100Y-59088372D01*
X103877415Y-59155411D01*
X103824611Y-59201166D01*
X103820553Y-59202933D01*
X103721003Y-59244168D01*
X103720993Y-59244173D01*
X103581308Y-59337508D01*
X103581304Y-59337511D01*
X103462511Y-59456304D01*
X103462508Y-59456308D01*
X103369173Y-59595993D01*
X103369168Y-59596003D01*
X103304876Y-59751217D01*
X103304874Y-59751225D01*
X103272100Y-59915992D01*
X103272100Y-59924094D01*
X103252415Y-59991133D01*
X103199611Y-60036888D01*
X103172291Y-60045711D01*
X103126225Y-60054874D01*
X103126217Y-60054876D01*
X102971003Y-60119168D01*
X102970993Y-60119173D01*
X102831308Y-60212508D01*
X102831304Y-60212511D01*
X102711681Y-60332135D01*
X102650358Y-60365620D01*
X102580666Y-60360636D01*
X102524733Y-60318764D01*
X102500316Y-60253300D01*
X102500000Y-60244454D01*
X102500000Y-56750000D01*
X96000000Y-56750000D01*
X96000000Y-63250000D01*
X94294567Y-63250000D01*
X94279782Y-63243876D01*
X94279774Y-63243874D01*
X94115007Y-63211100D01*
X94115003Y-63211100D01*
X93946997Y-63211100D01*
X93946992Y-63211100D01*
X93782225Y-63243874D01*
X93782217Y-63243876D01*
X93627000Y-63308169D01*
X93591891Y-63331629D01*
X93525213Y-63352507D01*
X93457833Y-63334022D01*
X93454109Y-63331629D01*
X93418999Y-63308169D01*
X93263782Y-63243876D01*
X93263774Y-63243874D01*
X93099007Y-63211100D01*
X93099003Y-63211100D01*
X92930997Y-63211100D01*
X92930992Y-63211100D01*
X92766225Y-63243874D01*
X92766217Y-63243876D01*
X92611003Y-63308168D01*
X92610993Y-63308173D01*
X92471308Y-63401508D01*
X92471304Y-63401511D01*
X92352511Y-63520304D01*
X92352508Y-63520308D01*
X92259173Y-63659993D01*
X92259168Y-63660003D01*
X92194876Y-63815217D01*
X92194874Y-63815225D01*
X92162100Y-63979992D01*
X90817900Y-63979992D01*
X90817900Y-63915997D01*
X90785124Y-63751218D01*
X90720830Y-63596000D01*
X90720828Y-63595997D01*
X90720826Y-63595993D01*
X90627491Y-63456308D01*
X90627488Y-63456304D01*
X90508695Y-63337511D01*
X90508691Y-63337508D01*
X90369006Y-63244173D01*
X90368996Y-63244168D01*
X90213782Y-63179876D01*
X90213774Y-63179874D01*
X90049007Y-63147100D01*
X90049003Y-63147100D01*
X89880997Y-63147100D01*
X89880992Y-63147100D01*
X89716225Y-63179874D01*
X89716217Y-63179876D01*
X89561003Y-63244168D01*
X89560993Y-63244173D01*
X89421308Y-63337508D01*
X89421304Y-63337511D01*
X89302511Y-63456304D01*
X89302508Y-63456308D01*
X89209173Y-63595993D01*
X89209168Y-63596003D01*
X89144876Y-63751217D01*
X89144874Y-63751225D01*
X89112100Y-63915992D01*
X89112100Y-64084007D01*
X89144874Y-64248774D01*
X89144876Y-64248782D01*
X89210657Y-64407591D01*
X89218126Y-64477061D01*
X89210657Y-64502496D01*
X89147068Y-64656013D01*
X89147065Y-64656025D01*
X89114291Y-64820792D01*
X89114291Y-64988807D01*
X89146273Y-65149593D01*
X89140046Y-65219185D01*
X89097182Y-65274362D01*
X89048848Y-65295401D01*
X89001223Y-65304874D01*
X89001217Y-65304876D01*
X88846003Y-65369168D01*
X88845993Y-65369173D01*
X88706308Y-65462508D01*
X88706304Y-65462511D01*
X88587511Y-65581304D01*
X88587508Y-65581308D01*
X88494173Y-65720993D01*
X88494168Y-65721003D01*
X88429876Y-65876217D01*
X88429874Y-65876225D01*
X88397100Y-66040992D01*
X87000500Y-66040992D01*
X87000500Y-60550992D01*
X92647100Y-60550992D01*
X92647100Y-60719007D01*
X92679874Y-60883774D01*
X92679876Y-60883782D01*
X92744168Y-61038996D01*
X92744173Y-61039006D01*
X92837508Y-61178691D01*
X92837511Y-61178695D01*
X92956304Y-61297488D01*
X92956308Y-61297491D01*
X93095993Y-61390826D01*
X93095997Y-61390828D01*
X93096000Y-61390830D01*
X93251218Y-61455124D01*
X93415992Y-61487899D01*
X93415996Y-61487900D01*
X93415997Y-61487900D01*
X93584004Y-61487900D01*
X93584005Y-61487899D01*
X93748782Y-61455124D01*
X93904000Y-61390830D01*
X94043692Y-61297491D01*
X94162491Y-61178692D01*
X94255830Y-61039000D01*
X94320124Y-60883782D01*
X94352900Y-60719003D01*
X94352900Y-60550997D01*
X94320124Y-60386218D01*
X94255830Y-60231000D01*
X94255828Y-60230997D01*
X94255826Y-60230993D01*
X94162491Y-60091308D01*
X94162488Y-60091304D01*
X94043695Y-59972511D01*
X94043691Y-59972508D01*
X93904006Y-59879173D01*
X93903996Y-59879168D01*
X93748782Y-59814876D01*
X93748774Y-59814874D01*
X93584007Y-59782100D01*
X93584003Y-59782100D01*
X93415997Y-59782100D01*
X93415992Y-59782100D01*
X93251225Y-59814874D01*
X93251217Y-59814876D01*
X93096003Y-59879168D01*
X93095993Y-59879173D01*
X92956308Y-59972508D01*
X92956304Y-59972511D01*
X92837511Y-60091304D01*
X92837508Y-60091308D01*
X92744173Y-60230993D01*
X92744168Y-60231003D01*
X92679876Y-60386217D01*
X92679874Y-60386225D01*
X92647100Y-60550992D01*
X87000500Y-60550992D01*
X87000500Y-58010992D01*
X92289100Y-58010992D01*
X92289100Y-58179007D01*
X92321874Y-58343774D01*
X92321876Y-58343782D01*
X92386168Y-58498996D01*
X92386173Y-58499006D01*
X92479508Y-58638691D01*
X92479511Y-58638695D01*
X92598304Y-58757488D01*
X92598308Y-58757491D01*
X92737993Y-58850826D01*
X92737997Y-58850828D01*
X92738000Y-58850830D01*
X92893218Y-58915124D01*
X93057992Y-58947899D01*
X93057996Y-58947900D01*
X93057997Y-58947900D01*
X93226004Y-58947900D01*
X93226005Y-58947899D01*
X93390782Y-58915124D01*
X93546000Y-58850830D01*
X93685692Y-58757491D01*
X93804491Y-58638692D01*
X93897830Y-58499000D01*
X93962124Y-58343782D01*
X93994900Y-58179003D01*
X93994900Y-58010997D01*
X93962124Y-57846218D01*
X93897830Y-57691000D01*
X93897828Y-57690997D01*
X93897826Y-57690993D01*
X93804491Y-57551308D01*
X93804488Y-57551304D01*
X93685695Y-57432511D01*
X93685691Y-57432508D01*
X93546006Y-57339173D01*
X93545996Y-57339168D01*
X93390782Y-57274876D01*
X93390774Y-57274874D01*
X93226007Y-57242100D01*
X93226003Y-57242100D01*
X93057997Y-57242100D01*
X93057992Y-57242100D01*
X92893225Y-57274874D01*
X92893217Y-57274876D01*
X92738003Y-57339168D01*
X92737993Y-57339173D01*
X92598308Y-57432508D01*
X92598304Y-57432511D01*
X92479511Y-57551304D01*
X92479508Y-57551308D01*
X92386173Y-57690993D01*
X92386168Y-57691003D01*
X92321876Y-57846217D01*
X92321874Y-57846225D01*
X92289100Y-58010992D01*
X87000500Y-58010992D01*
X87000500Y-55165992D01*
X102397100Y-55165992D01*
X102397100Y-55334007D01*
X102429874Y-55498774D01*
X102429876Y-55498782D01*
X102494168Y-55653996D01*
X102494173Y-55654006D01*
X102587508Y-55793691D01*
X102587511Y-55793695D01*
X102706304Y-55912488D01*
X102706308Y-55912491D01*
X102845993Y-56005826D01*
X102845997Y-56005828D01*
X102846000Y-56005830D01*
X103001218Y-56070124D01*
X103165992Y-56102899D01*
X103165996Y-56102900D01*
X103165997Y-56102900D01*
X103334004Y-56102900D01*
X103334005Y-56102899D01*
X103498782Y-56070124D01*
X103654000Y-56005830D01*
X103743609Y-55945954D01*
X103810286Y-55925077D01*
X103877666Y-55943561D01*
X103881378Y-55945947D01*
X103971000Y-56005830D01*
X104126218Y-56070124D01*
X104290992Y-56102899D01*
X104290996Y-56102900D01*
X104290997Y-56102900D01*
X104459004Y-56102900D01*
X104459005Y-56102899D01*
X104623782Y-56070124D01*
X104779000Y-56005830D01*
X104918692Y-55912491D01*
X105022814Y-55808368D01*
X105084135Y-55774885D01*
X105153827Y-55779869D01*
X105157946Y-55781490D01*
X105251213Y-55820122D01*
X105251218Y-55820124D01*
X105415992Y-55852899D01*
X105415996Y-55852900D01*
X105415997Y-55852900D01*
X105584004Y-55852900D01*
X105584005Y-55852899D01*
X105748782Y-55820124D01*
X105904000Y-55755830D01*
X106043692Y-55662491D01*
X106162491Y-55543692D01*
X106255830Y-55404000D01*
X106320124Y-55248782D01*
X106352900Y-55084003D01*
X106352900Y-54915997D01*
X106320124Y-54751218D01*
X106255830Y-54596000D01*
X106255828Y-54595997D01*
X106255826Y-54595993D01*
X106162491Y-54456308D01*
X106162488Y-54456304D01*
X106043695Y-54337511D01*
X106043691Y-54337508D01*
X105904006Y-54244173D01*
X105903996Y-54244168D01*
X105748782Y-54179876D01*
X105748774Y-54179874D01*
X105584007Y-54147100D01*
X105584003Y-54147100D01*
X105415997Y-54147100D01*
X105415992Y-54147100D01*
X105251225Y-54179874D01*
X105251217Y-54179876D01*
X105096003Y-54244168D01*
X105095993Y-54244173D01*
X104956308Y-54337508D01*
X104956304Y-54337511D01*
X104852186Y-54441630D01*
X104790863Y-54475115D01*
X104721171Y-54470131D01*
X104717052Y-54468510D01*
X104623782Y-54429876D01*
X104623774Y-54429874D01*
X104459007Y-54397100D01*
X104459003Y-54397100D01*
X104290997Y-54397100D01*
X104290992Y-54397100D01*
X104126225Y-54429874D01*
X104126217Y-54429876D01*
X103971003Y-54494168D01*
X103970993Y-54494173D01*
X103881391Y-54554044D01*
X103814713Y-54574922D01*
X103747333Y-54556437D01*
X103743609Y-54554044D01*
X103654006Y-54494173D01*
X103653996Y-54494168D01*
X103498782Y-54429876D01*
X103498774Y-54429874D01*
X103334007Y-54397100D01*
X103334003Y-54397100D01*
X103165997Y-54397100D01*
X103165992Y-54397100D01*
X103001225Y-54429874D01*
X103001217Y-54429876D01*
X102846003Y-54494168D01*
X102845993Y-54494173D01*
X102706308Y-54587508D01*
X102706304Y-54587511D01*
X102587511Y-54706304D01*
X102587508Y-54706308D01*
X102494173Y-54845993D01*
X102494168Y-54846003D01*
X102429876Y-55001217D01*
X102429874Y-55001225D01*
X102397100Y-55165992D01*
X87000500Y-55165992D01*
X87000500Y-53665992D01*
X94397100Y-53665992D01*
X94397100Y-53834007D01*
X94429874Y-53998774D01*
X94429876Y-53998782D01*
X94494168Y-54153996D01*
X94494173Y-54154006D01*
X94587508Y-54293691D01*
X94587511Y-54293695D01*
X94706304Y-54412488D01*
X94706308Y-54412491D01*
X94845993Y-54505826D01*
X94845997Y-54505828D01*
X94846000Y-54505830D01*
X95001218Y-54570124D01*
X95131273Y-54595993D01*
X95165992Y-54602899D01*
X95165996Y-54602900D01*
X95165997Y-54602900D01*
X95334004Y-54602900D01*
X95334005Y-54602899D01*
X95498782Y-54570124D01*
X95654000Y-54505830D01*
X95793692Y-54412491D01*
X95912491Y-54293692D01*
X96005830Y-54154000D01*
X96070124Y-53998782D01*
X96102900Y-53834003D01*
X96102900Y-53790992D01*
X99022100Y-53790992D01*
X99022100Y-53959007D01*
X99054874Y-54123774D01*
X99054876Y-54123782D01*
X99119168Y-54278996D01*
X99119173Y-54279006D01*
X99212508Y-54418691D01*
X99212511Y-54418695D01*
X99331304Y-54537488D01*
X99331308Y-54537491D01*
X99470993Y-54630826D01*
X99470997Y-54630828D01*
X99471000Y-54630830D01*
X99626218Y-54695124D01*
X99790992Y-54727899D01*
X99790996Y-54727900D01*
X99790997Y-54727900D01*
X99959004Y-54727900D01*
X99959005Y-54727899D01*
X100123782Y-54695124D01*
X100279000Y-54630830D01*
X100279002Y-54630828D01*
X100280691Y-54630129D01*
X100350160Y-54622660D01*
X100412639Y-54653935D01*
X100415825Y-54657009D01*
X100421304Y-54662488D01*
X100421308Y-54662491D01*
X100560993Y-54755826D01*
X100560997Y-54755828D01*
X100561000Y-54755830D01*
X100716218Y-54820124D01*
X100846273Y-54845993D01*
X100880992Y-54852899D01*
X100880996Y-54852900D01*
X100880997Y-54852900D01*
X101049004Y-54852900D01*
X101049005Y-54852899D01*
X101213782Y-54820124D01*
X101369000Y-54755830D01*
X101508692Y-54662491D01*
X101627491Y-54543692D01*
X101720830Y-54404000D01*
X101785124Y-54248782D01*
X101817900Y-54084003D01*
X101817900Y-53915997D01*
X101785124Y-53751218D01*
X101720830Y-53596000D01*
X101720828Y-53595997D01*
X101720826Y-53595993D01*
X101627491Y-53456308D01*
X101627488Y-53456304D01*
X101508695Y-53337511D01*
X101508691Y-53337508D01*
X101369006Y-53244173D01*
X101368996Y-53244168D01*
X101213782Y-53179876D01*
X101213774Y-53179874D01*
X101096374Y-53156522D01*
X101049007Y-53147100D01*
X101049003Y-53147100D01*
X100880997Y-53147100D01*
X100880992Y-53147100D01*
X100716225Y-53179874D01*
X100716213Y-53179877D01*
X100559307Y-53244870D01*
X100489838Y-53252339D01*
X100427359Y-53221064D01*
X100424174Y-53217990D01*
X100418695Y-53212511D01*
X100418691Y-53212508D01*
X100279006Y-53119173D01*
X100278996Y-53119168D01*
X100123782Y-53054876D01*
X100123774Y-53054874D01*
X100053984Y-53040992D01*
X106147100Y-53040992D01*
X106147100Y-53209007D01*
X106179874Y-53373774D01*
X106179876Y-53373782D01*
X106244168Y-53528996D01*
X106244173Y-53529006D01*
X106337508Y-53668691D01*
X106337511Y-53668695D01*
X106456304Y-53787488D01*
X106456308Y-53787491D01*
X106595993Y-53880826D01*
X106595997Y-53880828D01*
X106596000Y-53880830D01*
X106751218Y-53945124D01*
X106915992Y-53977899D01*
X106915996Y-53977900D01*
X106915997Y-53977900D01*
X107084004Y-53977900D01*
X107084005Y-53977899D01*
X107248782Y-53945124D01*
X107404000Y-53880830D01*
X107543692Y-53787491D01*
X107662491Y-53668692D01*
X107755830Y-53529000D01*
X107790501Y-53445297D01*
X109703500Y-53445297D01*
X109703500Y-53613312D01*
X109736274Y-53778079D01*
X109736276Y-53778087D01*
X109800568Y-53933301D01*
X109800573Y-53933311D01*
X109893908Y-54072996D01*
X109893911Y-54073000D01*
X110012704Y-54191793D01*
X110012708Y-54191796D01*
X110152393Y-54285131D01*
X110152397Y-54285133D01*
X110152400Y-54285135D01*
X110307618Y-54349429D01*
X110472392Y-54382204D01*
X110472396Y-54382205D01*
X110472397Y-54382205D01*
X110640404Y-54382205D01*
X110640405Y-54382204D01*
X110805182Y-54349429D01*
X110960400Y-54285135D01*
X111100092Y-54191796D01*
X111218891Y-54072997D01*
X111312230Y-53933305D01*
X111376524Y-53778087D01*
X111409300Y-53613308D01*
X111409300Y-53445302D01*
X111376524Y-53280523D01*
X111312230Y-53125305D01*
X111312228Y-53125302D01*
X111312226Y-53125298D01*
X111218891Y-52985613D01*
X111218888Y-52985609D01*
X111100095Y-52866816D01*
X111100091Y-52866813D01*
X110960406Y-52773478D01*
X110960396Y-52773473D01*
X110805182Y-52709181D01*
X110805174Y-52709179D01*
X110640407Y-52676405D01*
X110640403Y-52676405D01*
X110472397Y-52676405D01*
X110472392Y-52676405D01*
X110307625Y-52709179D01*
X110307617Y-52709181D01*
X110152403Y-52773473D01*
X110152393Y-52773478D01*
X110012708Y-52866813D01*
X110012704Y-52866816D01*
X109893911Y-52985609D01*
X109893908Y-52985613D01*
X109800573Y-53125298D01*
X109800568Y-53125308D01*
X109736276Y-53280522D01*
X109736274Y-53280530D01*
X109703500Y-53445297D01*
X107790501Y-53445297D01*
X107820124Y-53373782D01*
X107852900Y-53209003D01*
X107852900Y-53040997D01*
X107820124Y-52876218D01*
X107755830Y-52721000D01*
X107755828Y-52720997D01*
X107755826Y-52720993D01*
X107662491Y-52581308D01*
X107662488Y-52581304D01*
X107543695Y-52462511D01*
X107543691Y-52462508D01*
X107404006Y-52369173D01*
X107403996Y-52369168D01*
X107248782Y-52304876D01*
X107248774Y-52304874D01*
X107084007Y-52272100D01*
X107084003Y-52272100D01*
X106915997Y-52272100D01*
X106915992Y-52272100D01*
X106751225Y-52304874D01*
X106751217Y-52304876D01*
X106596003Y-52369168D01*
X106595993Y-52369173D01*
X106456308Y-52462508D01*
X106456304Y-52462511D01*
X106337511Y-52581304D01*
X106337508Y-52581308D01*
X106244173Y-52720993D01*
X106244168Y-52721003D01*
X106179876Y-52876217D01*
X106179874Y-52876225D01*
X106147100Y-53040992D01*
X100053984Y-53040992D01*
X99959007Y-53022100D01*
X99959003Y-53022100D01*
X99790997Y-53022100D01*
X99790992Y-53022100D01*
X99626225Y-53054874D01*
X99626217Y-53054876D01*
X99471003Y-53119168D01*
X99470993Y-53119173D01*
X99331308Y-53212508D01*
X99331304Y-53212511D01*
X99212511Y-53331304D01*
X99212508Y-53331308D01*
X99119173Y-53470993D01*
X99119168Y-53471003D01*
X99054876Y-53626217D01*
X99054874Y-53626225D01*
X99022100Y-53790992D01*
X96102900Y-53790992D01*
X96102900Y-53665997D01*
X96070124Y-53501218D01*
X96005830Y-53346000D01*
X96005828Y-53345997D01*
X96005826Y-53345993D01*
X95912491Y-53206308D01*
X95912488Y-53206304D01*
X95793695Y-53087511D01*
X95793691Y-53087508D01*
X95654006Y-52994173D01*
X95653996Y-52994168D01*
X95498782Y-52929876D01*
X95498774Y-52929874D01*
X95334007Y-52897100D01*
X95334003Y-52897100D01*
X95165997Y-52897100D01*
X95165992Y-52897100D01*
X95001225Y-52929874D01*
X95001217Y-52929876D01*
X94846003Y-52994168D01*
X94845993Y-52994173D01*
X94706308Y-53087508D01*
X94706304Y-53087511D01*
X94587511Y-53206304D01*
X94587508Y-53206308D01*
X94494173Y-53345993D01*
X94494168Y-53346003D01*
X94429876Y-53501217D01*
X94429874Y-53501225D01*
X94397100Y-53665992D01*
X87000500Y-53665992D01*
X87000500Y-52165992D01*
X88647100Y-52165992D01*
X88647100Y-52334007D01*
X88679874Y-52498774D01*
X88679876Y-52498782D01*
X88744168Y-52653996D01*
X88744173Y-52654006D01*
X88837508Y-52793691D01*
X88837511Y-52793695D01*
X88956304Y-52912488D01*
X88956308Y-52912491D01*
X89095993Y-53005826D01*
X89095997Y-53005828D01*
X89096000Y-53005830D01*
X89251218Y-53070124D01*
X89415992Y-53102899D01*
X89415996Y-53102900D01*
X89415997Y-53102900D01*
X89584004Y-53102900D01*
X89584005Y-53102899D01*
X89748782Y-53070124D01*
X89904000Y-53005830D01*
X90043692Y-52912491D01*
X90162491Y-52793692D01*
X90255830Y-52654000D01*
X90320124Y-52498782D01*
X90352900Y-52334003D01*
X90352900Y-52165997D01*
X90320124Y-52001218D01*
X90255830Y-51846000D01*
X90255828Y-51845997D01*
X90255826Y-51845993D01*
X90162491Y-51706308D01*
X90162488Y-51706304D01*
X90043695Y-51587511D01*
X90043691Y-51587508D01*
X89904006Y-51494173D01*
X89903996Y-51494168D01*
X89748782Y-51429876D01*
X89748774Y-51429874D01*
X89584007Y-51397100D01*
X89584003Y-51397100D01*
X89415997Y-51397100D01*
X89415992Y-51397100D01*
X89251225Y-51429874D01*
X89251217Y-51429876D01*
X89096003Y-51494168D01*
X89095993Y-51494173D01*
X88956308Y-51587508D01*
X88956304Y-51587511D01*
X88837511Y-51706304D01*
X88837508Y-51706308D01*
X88744173Y-51845993D01*
X88744168Y-51846003D01*
X88679876Y-52001217D01*
X88679874Y-52001225D01*
X88647100Y-52165992D01*
X87000500Y-52165992D01*
X87000500Y-50415992D01*
X94897100Y-50415992D01*
X94897100Y-50584007D01*
X94929874Y-50748774D01*
X94929876Y-50748782D01*
X94994168Y-50903996D01*
X94994173Y-50904006D01*
X95087508Y-51043691D01*
X95087511Y-51043695D01*
X95206304Y-51162488D01*
X95206308Y-51162491D01*
X95345993Y-51255826D01*
X95345997Y-51255828D01*
X95346000Y-51255830D01*
X95501218Y-51320124D01*
X95665992Y-51352899D01*
X95665996Y-51352900D01*
X95665997Y-51352900D01*
X95834004Y-51352900D01*
X95834005Y-51352899D01*
X95998782Y-51320124D01*
X96154000Y-51255830D01*
X96293692Y-51162491D01*
X96412491Y-51043692D01*
X96505830Y-50904000D01*
X96570124Y-50748782D01*
X96602900Y-50584003D01*
X96602900Y-50415997D01*
X96570124Y-50251218D01*
X96505830Y-50096000D01*
X96505828Y-50095997D01*
X96505826Y-50095993D01*
X96412491Y-49956308D01*
X96412488Y-49956304D01*
X96293695Y-49837511D01*
X96293691Y-49837508D01*
X96154006Y-49744173D01*
X96153996Y-49744168D01*
X95998782Y-49679876D01*
X95998774Y-49679874D01*
X95834007Y-49647100D01*
X95834003Y-49647100D01*
X95665997Y-49647100D01*
X95665992Y-49647100D01*
X95501225Y-49679874D01*
X95501217Y-49679876D01*
X95346003Y-49744168D01*
X95345993Y-49744173D01*
X95206308Y-49837508D01*
X95206304Y-49837511D01*
X95087511Y-49956304D01*
X95087508Y-49956308D01*
X94994173Y-50095993D01*
X94994168Y-50096003D01*
X94929876Y-50251217D01*
X94929874Y-50251225D01*
X94897100Y-50415992D01*
X87000500Y-50415992D01*
X87000500Y-49415992D01*
X97897100Y-49415992D01*
X97897100Y-49584007D01*
X97929874Y-49748774D01*
X97929876Y-49748782D01*
X97994168Y-49903996D01*
X97994173Y-49904006D01*
X98087508Y-50043691D01*
X98087511Y-50043695D01*
X98206304Y-50162488D01*
X98206308Y-50162491D01*
X98345993Y-50255826D01*
X98345997Y-50255828D01*
X98346000Y-50255830D01*
X98501218Y-50320124D01*
X98665992Y-50352899D01*
X98665996Y-50352900D01*
X98665997Y-50352900D01*
X98834004Y-50352900D01*
X98834005Y-50352899D01*
X98998782Y-50320124D01*
X99154000Y-50255830D01*
X99293692Y-50162491D01*
X99412491Y-50043692D01*
X99505830Y-49904000D01*
X99570124Y-49748782D01*
X99583830Y-49679876D01*
X99586592Y-49665992D01*
X106272100Y-49665992D01*
X106272100Y-49834007D01*
X106304874Y-49998774D01*
X106304876Y-49998782D01*
X106369168Y-50153996D01*
X106369173Y-50154006D01*
X106462508Y-50293691D01*
X106462511Y-50293695D01*
X106581304Y-50412488D01*
X106581308Y-50412491D01*
X106720993Y-50505826D01*
X106720997Y-50505828D01*
X106721000Y-50505830D01*
X106876218Y-50570124D01*
X107040992Y-50602899D01*
X107040996Y-50602900D01*
X107040997Y-50602900D01*
X107209004Y-50602900D01*
X107209005Y-50602899D01*
X107373782Y-50570124D01*
X107529000Y-50505830D01*
X107668692Y-50412491D01*
X107668695Y-50412488D01*
X107739319Y-50341865D01*
X107800642Y-50308380D01*
X107870334Y-50313364D01*
X107914681Y-50341865D01*
X107985304Y-50412488D01*
X107985308Y-50412491D01*
X108124993Y-50505826D01*
X108124997Y-50505828D01*
X108125000Y-50505830D01*
X108280218Y-50570124D01*
X108444992Y-50602899D01*
X108444996Y-50602900D01*
X108444997Y-50602900D01*
X108613004Y-50602900D01*
X108613005Y-50602899D01*
X108777782Y-50570124D01*
X108933000Y-50505830D01*
X109072692Y-50412491D01*
X109191491Y-50293692D01*
X109284830Y-50154000D01*
X109349124Y-49998782D01*
X109381900Y-49834003D01*
X109381900Y-49665997D01*
X109349124Y-49501218D01*
X109284830Y-49346000D01*
X109284828Y-49345997D01*
X109284826Y-49345993D01*
X109191491Y-49206308D01*
X109191488Y-49206304D01*
X109072695Y-49087511D01*
X109072691Y-49087508D01*
X108933006Y-48994173D01*
X108932996Y-48994168D01*
X108777782Y-48929876D01*
X108777774Y-48929874D01*
X108613007Y-48897100D01*
X108613003Y-48897100D01*
X108444997Y-48897100D01*
X108444992Y-48897100D01*
X108280225Y-48929874D01*
X108280217Y-48929876D01*
X108125003Y-48994168D01*
X108124993Y-48994173D01*
X107985308Y-49087508D01*
X107985304Y-49087511D01*
X107914681Y-49158135D01*
X107853358Y-49191620D01*
X107783666Y-49186636D01*
X107739319Y-49158135D01*
X107668695Y-49087511D01*
X107668691Y-49087508D01*
X107529006Y-48994173D01*
X107528996Y-48994168D01*
X107373782Y-48929876D01*
X107373774Y-48929874D01*
X107209007Y-48897100D01*
X107209003Y-48897100D01*
X107040997Y-48897100D01*
X107040992Y-48897100D01*
X106876225Y-48929874D01*
X106876217Y-48929876D01*
X106721003Y-48994168D01*
X106720993Y-48994173D01*
X106581308Y-49087508D01*
X106581304Y-49087511D01*
X106462511Y-49206304D01*
X106462508Y-49206308D01*
X106369173Y-49345993D01*
X106369168Y-49346003D01*
X106304876Y-49501217D01*
X106304874Y-49501225D01*
X106272100Y-49665992D01*
X99586592Y-49665992D01*
X99592609Y-49635743D01*
X99592614Y-49635715D01*
X99602900Y-49584001D01*
X99602900Y-49415996D01*
X99602899Y-49415992D01*
X99570124Y-49251218D01*
X99505830Y-49096000D01*
X99505828Y-49095997D01*
X99505826Y-49095993D01*
X99412491Y-48956308D01*
X99412488Y-48956304D01*
X99293695Y-48837511D01*
X99293691Y-48837508D01*
X99154006Y-48744173D01*
X99153996Y-48744168D01*
X98998782Y-48679876D01*
X98998774Y-48679874D01*
X98834007Y-48647100D01*
X98834003Y-48647100D01*
X98665997Y-48647100D01*
X98665992Y-48647100D01*
X98501225Y-48679874D01*
X98501217Y-48679876D01*
X98346003Y-48744168D01*
X98345993Y-48744173D01*
X98206308Y-48837508D01*
X98206304Y-48837511D01*
X98087511Y-48956304D01*
X98087508Y-48956308D01*
X97994173Y-49095993D01*
X97994168Y-49096003D01*
X97929876Y-49251217D01*
X97929874Y-49251225D01*
X97897100Y-49415992D01*
X87000500Y-49415992D01*
X87000500Y-47040992D01*
X88647100Y-47040992D01*
X88647100Y-47209007D01*
X88679874Y-47373774D01*
X88679876Y-47373782D01*
X88744168Y-47528996D01*
X88744173Y-47529006D01*
X88837508Y-47668691D01*
X88837511Y-47668695D01*
X88956304Y-47787488D01*
X88956308Y-47787491D01*
X89095993Y-47880826D01*
X89095997Y-47880828D01*
X89096000Y-47880830D01*
X89251218Y-47945124D01*
X89415992Y-47977899D01*
X89415996Y-47977900D01*
X89415997Y-47977900D01*
X89584004Y-47977900D01*
X89584005Y-47977899D01*
X89748782Y-47945124D01*
X89904000Y-47880830D01*
X90043692Y-47787491D01*
X90162491Y-47668692D01*
X90255830Y-47529000D01*
X90320124Y-47373782D01*
X90352900Y-47209003D01*
X90352900Y-47040997D01*
X90320124Y-46876218D01*
X90255830Y-46721000D01*
X90255828Y-46720997D01*
X90255826Y-46720993D01*
X90162491Y-46581308D01*
X90162488Y-46581304D01*
X90043695Y-46462511D01*
X90043691Y-46462508D01*
X89904006Y-46369173D01*
X89903996Y-46369168D01*
X89748782Y-46304876D01*
X89748774Y-46304874D01*
X89584007Y-46272100D01*
X89584003Y-46272100D01*
X89415997Y-46272100D01*
X89415992Y-46272100D01*
X89251225Y-46304874D01*
X89251217Y-46304876D01*
X89096003Y-46369168D01*
X89095993Y-46369173D01*
X88956308Y-46462508D01*
X88956304Y-46462511D01*
X88837511Y-46581304D01*
X88837508Y-46581308D01*
X88744173Y-46720993D01*
X88744168Y-46721003D01*
X88679876Y-46876217D01*
X88679874Y-46876225D01*
X88647100Y-47040992D01*
X87000500Y-47040992D01*
X87000500Y-47005411D01*
X87000972Y-46994605D01*
X87013760Y-46848430D01*
X87015664Y-46835097D01*
X87021503Y-46805739D01*
X87023329Y-46797910D01*
X87056782Y-46673058D01*
X87061992Y-46657715D01*
X87069020Y-46640747D01*
X87071162Y-46635880D01*
X87129822Y-46510080D01*
X87140628Y-46491366D01*
X87228118Y-46366417D01*
X87242006Y-46349865D01*
X87349865Y-46242006D01*
X87366417Y-46228118D01*
X87491366Y-46140628D01*
X87510080Y-46129822D01*
X87635880Y-46071162D01*
X87640747Y-46069020D01*
X87657725Y-46061987D01*
X87673058Y-46056782D01*
X87797910Y-46023329D01*
X87805739Y-46021503D01*
X87835097Y-46015664D01*
X87848430Y-46013760D01*
X87987871Y-46001561D01*
X87994606Y-46000972D01*
X88005412Y-46000500D01*
X111994588Y-46000500D01*
X112005394Y-46000972D01*
G37*
%TD.AperFunction*%
%TD*%
M02*
