%TF.GenerationSoftware,KiCad,Pcbnew,10.0.5*%
%TF.CreationDate,2026-09-30T17:58:58+01:00*%
%TF.ProjectId,mcxn_test_board,6d63786e-5f74-4657-9374-5f626f617264,rev?*%
%TF.SameCoordinates,Original*%
%TF.FileFunction,Copper,L4,Bot*%
%TF.FilePolarity,Positive*%
%FSLAX46Y46*%
G04 Gerber Fmt 4.6, Leading zero omitted, Abs format (unit mm)*
G04 Created by KiCad (PCBNEW 10.0.5) date 2026-09-30 17:58:58*
%MOMM*%
%LPD*%
G01*
G04 APERTURE LIST*
G04 Aperture macros list*
%AMRoundRect*
0 Rectangle with rounded corners*
0 $1 Rounding radius*
0 $2 $3 $4 $5 $6 $7 $8 $9 X,Y pos of 4 corners*
0 Add a 4 corners polygon primitive as box body*
4,1,4,$2,$3,$4,$5,$6,$7,$8,$9,$2,$3,0*
0 Add four circle primitives for the rounded corners*
1,1,$1+$1,$2,$3*
1,1,$1+$1,$4,$5*
1,1,$1+$1,$6,$7*
1,1,$1+$1,$8,$9*
0 Add four rect primitives between the rounded corners*
20,1,$1+$1,$2,$3,$4,$5,0*
20,1,$1+$1,$4,$5,$6,$7,0*
20,1,$1+$1,$6,$7,$8,$9,0*
20,1,$1+$1,$8,$9,$2,$3,0*%
G04 Aperture macros list end*
%TA.AperFunction,ComponentPad*%
%ADD10RoundRect,0.250000X-1.000000X-1.250000X1.000000X-1.250000X1.000000X1.250000X-1.000000X1.250000X0*%
%TD*%
%TA.AperFunction,ComponentPad*%
%ADD11R,1.700000X1.700000*%
%TD*%
%TA.AperFunction,ComponentPad*%
%ADD12C,1.700000*%
%TD*%
%TA.AperFunction,ComponentPad*%
%ADD13C,0.650000*%
%TD*%
%TA.AperFunction,ComponentPad*%
%ADD14O,0.900000X2.400000*%
%TD*%
%TA.AperFunction,ComponentPad*%
%ADD15O,0.900000X1.700000*%
%TD*%
%TA.AperFunction,ComponentPad*%
%ADD16C,1.300000*%
%TD*%
%TA.AperFunction,ComponentPad*%
%ADD17C,0.900000*%
%TD*%
%TA.AperFunction,SMDPad,CuDef*%
%ADD18C,1.000000*%
%TD*%
%TA.AperFunction,ViaPad*%
%ADD19C,0.600000*%
%TD*%
%TA.AperFunction,ViaPad*%
%ADD20C,0.704800*%
%TD*%
%TA.AperFunction,ViaPad*%
%ADD21C,0.804800*%
%TD*%
%TA.AperFunction,Conductor*%
%ADD22C,0.200000*%
%TD*%
%TA.AperFunction,Conductor*%
%ADD23C,0.203200*%
%TD*%
%TA.AperFunction,Conductor*%
%ADD24C,0.508000*%
%TD*%
%TA.AperFunction,Conductor*%
%ADD25C,0.406400*%
%TD*%
G04 APERTURE END LIST*
D10*
%TO.P,J14,1,Pin_1_1*%
%TO.N,0V*%
X109525000Y-89210000D03*
%TO.P,J14,2,Pin_2_2*%
%TO.N,+VIN*%
X113335000Y-89210000D03*
%TD*%
D11*
%TO.P,J2,1,Pin_1_1*%
%TO.N,0V*%
X131750000Y-43490000D03*
D12*
%TO.P,J2,2,Pin_2_2*%
%TO.N,/RSTB*%
X129210000Y-43490000D03*
%TO.P,J2,3,Pin_3_3*%
%TO.N,/SWD*%
X131750000Y-40950000D03*
%TO.P,J2,4,Pin_4_4*%
%TO.N,/SWO*%
X129210000Y-40950000D03*
%TO.P,J2,5,Pin_5_5*%
%TO.N,/SWC*%
X131750000Y-38410000D03*
%TO.P,J2,6,Pin_6_6*%
%TO.N,+3.3V*%
X129210000Y-38410000D03*
%TD*%
D13*
%TO.P,J1,A1,GND_A1*%
%TO.N,0V*%
X97025000Y-87725000D03*
%TO.P,J1,A4,VBUS_A4*%
%TO.N,Net-(FB2-Pad2)*%
X97875000Y-87725000D03*
%TO.P,J1,A5,CC1_A5*%
%TO.N,Net-(J1-CC1)*%
X98725000Y-87725000D03*
%TO.P,J1,A6,D+_A6*%
%TO.N,/USB_D+*%
X99575000Y-87725000D03*
%TO.P,J1,A7,D-_A7*%
%TO.N,/USB_D-*%
X100425000Y-87725000D03*
%TO.P,J1,A8,SBU1_A8*%
%TO.N,unconnected-(J1-SBU1-PadA8)*%
X101275000Y-87725000D03*
%TO.P,J1,A9,VBUS_A9*%
%TO.N,Net-(FB2-Pad2)*%
X102125000Y-87725000D03*
%TO.P,J1,A12,GND_A12*%
%TO.N,0V*%
X102975000Y-87725000D03*
%TO.P,J1,B1,GND_B1*%
X102975000Y-89075000D03*
%TO.P,J1,B4,VBUS_B4*%
%TO.N,Net-(FB2-Pad2)*%
X102125000Y-89075000D03*
%TO.P,J1,B5,CC2_B5*%
%TO.N,Net-(J1-CC2)*%
X101275000Y-89075000D03*
%TO.P,J1,B6,D+_B6*%
%TO.N,/USB_D+*%
X100425000Y-89075000D03*
%TO.P,J1,B7,D-_B7*%
%TO.N,/USB_D-*%
X99575000Y-89075000D03*
%TO.P,J1,B8,SBU2_B8*%
%TO.N,unconnected-(J1-SBU2-PadB8)*%
X98725000Y-89075000D03*
%TO.P,J1,B9,VBUS_B9*%
%TO.N,Net-(FB2-Pad2)*%
X97875000Y-89075000D03*
%TO.P,J1,B12,GND_B12*%
%TO.N,0V*%
X97025000Y-89075000D03*
D14*
%TO.P,J1,S1,SHIELD_S1*%
X95675000Y-88705000D03*
D15*
X95675000Y-92085000D03*
D14*
%TO.P,J1,S2,SHIELD_S2*%
X104325000Y-88705000D03*
D15*
X104325000Y-92085000D03*
%TD*%
D11*
%TO.P,J7,1,Pin_1_1*%
%TO.N,0V*%
X68250000Y-51110000D03*
D12*
%TO.P,J7,2,Pin_2_2*%
%TO.N,/A_BCLK*%
X70790000Y-51110000D03*
%TO.P,J7,3,Pin_3_3*%
%TO.N,/MCLK*%
X68250000Y-53650000D03*
%TO.P,J7,4,Pin_4_4*%
%TO.N,/A_LRCLK*%
X70790000Y-53650000D03*
%TO.P,J7,5,Pin_5_5*%
%TO.N,/A_DAT*%
X68250000Y-56190000D03*
%TO.P,J7,6,Pin_6_6*%
%TO.N,/A_DAT1*%
X70790000Y-56190000D03*
%TO.P,J7,7,Pin_7_7*%
%TO.N,+3.3V*%
X68250000Y-58730000D03*
%TO.P,J7,8,Pin_8_8*%
%TO.N,+5V*%
X70790000Y-58730000D03*
%TD*%
D11*
%TO.P,J8,1,Pin_1_1*%
%TO.N,0V*%
X68250000Y-63810000D03*
D12*
%TO.P,J8,2,Pin_2_2*%
%TO.N,/B_DAT*%
X70790000Y-63810000D03*
%TO.P,J8,3,Pin_3_3*%
%TO.N,/MCLK*%
X68250000Y-66350000D03*
%TO.P,J8,4,Pin_4_4*%
%TO.N,/B_DAT1*%
X70790000Y-66350000D03*
%TO.P,J8,5,Pin_5_5*%
%TO.N,/B_BCLK*%
X68250000Y-68890000D03*
%TO.P,J8,6,Pin_6_6*%
%TO.N,/B_LRCLK*%
X70790000Y-68890000D03*
%TO.P,J8,7,Pin_7_7*%
%TO.N,+3.3V*%
X68250000Y-71430000D03*
%TO.P,J8,8,Pin_8_8*%
%TO.N,+5V*%
X70790000Y-71430000D03*
%TD*%
D11*
%TO.P,J10,1,Pin_1_1*%
%TO.N,0V*%
X78410000Y-91750000D03*
D12*
%TO.P,J10,2,Pin_2_2*%
%TO.N,/P4_12*%
X78410000Y-89210000D03*
%TO.P,J10,3,Pin_3_3*%
%TO.N,/P4_15*%
X80950000Y-91750000D03*
%TO.P,J10,4,Pin_4_4*%
%TO.N,/P4_13*%
X80950000Y-89210000D03*
%TO.P,J10,5,Pin_5_5*%
%TO.N,/P4_17*%
X83490000Y-91750000D03*
%TO.P,J10,6,Pin_6_6*%
%TO.N,/P4_16*%
X83490000Y-89210000D03*
%TD*%
D16*
%TO.P,TP9,1,1_1*%
%TO.N,0V*%
X89078000Y-80955000D03*
%TD*%
D11*
%TO.P,J3,1,Pin_1_1*%
%TO.N,0V*%
X68250000Y-38410000D03*
D12*
%TO.P,J3,2,Pin_2_2*%
%TO.N,/CANTX*%
X70790000Y-38410000D03*
%TO.P,J3,3,Pin_3_3*%
%TO.N,/TXD*%
X68250000Y-40950000D03*
%TO.P,J3,4,Pin_4_4*%
%TO.N,/CANRX*%
X70790000Y-40950000D03*
%TO.P,J3,5,Pin_5_5*%
%TO.N,/RXD*%
X68250000Y-43490000D03*
%TO.P,J3,6,Pin_6_6*%
%TO.N,+3.3V*%
X70790000Y-43490000D03*
%TD*%
D16*
%TO.P,TP8,1,1_1*%
%TO.N,0V*%
X89459000Y-72065000D03*
%TD*%
D11*
%TO.P,J11,1,Pin_1_1*%
%TO.N,0V*%
X116510000Y-28250000D03*
D12*
%TO.P,J11,2,Pin_2_2*%
X116510000Y-30790000D03*
%TO.P,J11,3,Pin_3_3*%
%TO.N,/SDA*%
X113970000Y-28250000D03*
%TO.P,J11,4,Pin_4_4*%
%TO.N,+5V*%
X113970000Y-30790000D03*
%TO.P,J11,5,Pin_5_5*%
%TO.N,/SCL*%
X111430000Y-28250000D03*
%TO.P,J11,6,Pin_6_6*%
%TO.N,+3.3V*%
X111430000Y-30790000D03*
%TD*%
D11*
%TO.P,J9,1,Pin_1_1*%
%TO.N,0V*%
X68250000Y-79050000D03*
D12*
%TO.P,J9,2,Pin_2_2*%
X70790000Y-79050000D03*
%TO.P,J9,3,Pin_3_3*%
%TO.N,/P4_0*%
X68250000Y-81590000D03*
%TO.P,J9,4,Pin_4_4*%
%TO.N,/P4_1*%
X70790000Y-81590000D03*
%TO.P,J9,5,Pin_5_5*%
%TO.N,/P4_2*%
X68250000Y-84130000D03*
%TO.P,J9,6,Pin_6_6*%
%TO.N,/P4_3*%
X70790000Y-84130000D03*
%TO.P,J9,7,Pin_7_7*%
%TO.N,/P4_4*%
X68250000Y-86670000D03*
%TO.P,J9,8,Pin_8_8*%
%TO.N,/P4_5*%
X70790000Y-86670000D03*
%TO.P,J9,9,Pin_9_9*%
%TO.N,/P4_6*%
X68250000Y-89210000D03*
%TO.P,J9,10,Pin_10_10*%
%TO.N,/P4_7*%
X70790000Y-89210000D03*
%TO.P,J9,11,Pin_11_11*%
%TO.N,+3.3V*%
X68250000Y-91750000D03*
%TO.P,J9,12,Pin_12_12*%
%TO.N,+5V*%
X70790000Y-91750000D03*
%TD*%
D17*
%TO.P,U1,EP,GND_EP*%
%TO.N,0V*%
X99050000Y-59050000D03*
X99050000Y-60950000D03*
X100950000Y-59050000D03*
X100950000Y-60950000D03*
%TD*%
D16*
%TO.P,TP11,1,1_1*%
%TO.N,0V*%
X76378000Y-47300000D03*
%TD*%
%TO.P,TP10,1,1_1*%
%TO.N,0V*%
X77267000Y-84384000D03*
%TD*%
D11*
%TO.P,J4,1,Pin_1_1*%
%TO.N,0V*%
X131750000Y-66350000D03*
D12*
%TO.P,J4,2,Pin_2_2*%
%TO.N,/DC*%
X129210000Y-66350000D03*
%TO.P,J4,3,Pin_3_3*%
%TO.N,/CS*%
X131750000Y-63810000D03*
%TO.P,J4,4,Pin_4_4*%
%TO.N,/RST*%
X129210000Y-63810000D03*
%TO.P,J4,5,Pin_5_5*%
%TO.N,/MISO*%
X131750000Y-61270000D03*
%TO.P,J4,6,Pin_6_6*%
%TO.N,/BL*%
X129210000Y-61270000D03*
%TO.P,J4,7,Pin_7_7*%
%TO.N,/SCK*%
X131750000Y-58730000D03*
%TO.P,J4,8,Pin_8_8*%
%TO.N,unconnected-(J4-Pin_8-Pad8)*%
X129210000Y-58730000D03*
%TO.P,J4,9,Pin_9_9*%
%TO.N,/MOSI*%
X131750000Y-56190000D03*
%TO.P,J4,10,Pin_10_10*%
%TO.N,/CS2*%
X129210000Y-56190000D03*
%TO.P,J4,11,Pin_11_11*%
%TO.N,+3.3V*%
X131750000Y-53650000D03*
%TO.P,J4,12,Pin_12_12*%
%TO.N,+5V*%
X129210000Y-53650000D03*
%TD*%
D11*
%TO.P,J5,1,Pin_1_1*%
%TO.N,0V*%
X83490000Y-28250000D03*
D12*
%TO.P,J5,2,Pin_2_2*%
X83490000Y-30790000D03*
%TO.P,J5,3,Pin_3_3*%
%TO.N,/P1_2*%
X80950000Y-28250000D03*
%TO.P,J5,4,Pin_4_4*%
%TO.N,/P1_3*%
X80950000Y-30790000D03*
%TO.P,J5,5,Pin_5_5*%
%TO.N,/P1_4*%
X78410000Y-28250000D03*
%TO.P,J5,6,Pin_6_6*%
%TO.N,/P1_5*%
X78410000Y-30790000D03*
%TO.P,J5,7,Pin_7_7*%
%TO.N,/P1_6*%
X75870000Y-28250000D03*
%TO.P,J5,8,Pin_8_8*%
%TO.N,/P1_7*%
X75870000Y-30790000D03*
%TO.P,J5,9,Pin_9_9*%
%TO.N,/P1_12*%
X73330000Y-28250000D03*
%TO.P,J5,10,Pin_10_10*%
%TO.N,/P1_13*%
X73330000Y-30790000D03*
%TO.P,J5,11,Pin_11_11*%
%TO.N,/P1_14*%
X70790000Y-28250000D03*
%TO.P,J5,12,Pin_12_12*%
%TO.N,/P1_15*%
X70790000Y-30790000D03*
%TO.P,J5,13,Pin_13_13*%
%TO.N,+3.3V*%
X68250000Y-28250000D03*
%TO.P,J5,14,Pin_14_14*%
%TO.N,+5V*%
X68250000Y-30790000D03*
%TD*%
D11*
%TO.P,J13,1,Pin_1_1*%
%TO.N,/ROW1*%
X131750000Y-91750000D03*
D12*
%TO.P,J13,2,Pin_2_2*%
%TO.N,/ROW2*%
X129210000Y-91750000D03*
%TO.P,J13,3,Pin_3_3*%
X131750000Y-89210000D03*
%TO.P,J13,4,Pin_4_4*%
%TO.N,/ROW3*%
X129210000Y-89210000D03*
%TO.P,J13,5,Pin_5_5*%
X131750000Y-86670000D03*
%TO.P,J13,6,Pin_6_6*%
%TO.N,/COL3*%
X129210000Y-86670000D03*
%TO.P,J13,7,Pin_7_7*%
%TO.N,/ROW4*%
X131750000Y-84130000D03*
%TO.P,J13,8,Pin_8_8*%
X129210000Y-84130000D03*
%TO.P,J13,9,Pin_9_9*%
%TO.N,/COL1*%
X131750000Y-81590000D03*
%TO.P,J13,10,Pin_10_10*%
X129210000Y-81590000D03*
%TO.P,J13,11,Pin_11_11*%
%TO.N,/COL2*%
X131750000Y-79050000D03*
%TO.P,J13,12,Pin_12_12*%
%TO.N,/ROW1*%
X129210000Y-79050000D03*
%TO.P,J13,13,Pin_13_13*%
%TO.N,/COL3*%
X131750000Y-76510000D03*
%TO.P,J13,14,Pin_14_14*%
%TO.N,/COL2*%
X129210000Y-76510000D03*
%TO.P,J13,15,Pin_15_15*%
%TO.N,/COL4*%
X131750000Y-73970000D03*
%TO.P,J13,16,Pin_16_16*%
%TO.N,unconnected-(J13-Pin_16-Pad16)*%
X129210000Y-73970000D03*
%TD*%
D11*
%TO.P,J6,1,Pin_1_1*%
%TO.N,0V*%
X131750000Y-28250000D03*
D12*
%TO.P,J6,2,Pin_2_2*%
X131750000Y-30790000D03*
%TO.P,J6,3,Pin_3_3*%
%TO.N,Net-(J6-Pin_3)*%
X129210000Y-28250000D03*
%TO.P,J6,4,Pin_4_4*%
%TO.N,Net-(J6-Pin_4)*%
X129210000Y-30790000D03*
%TO.P,J6,5,Pin_5_5*%
%TO.N,Net-(J6-Pin_5)*%
X126670000Y-28250000D03*
%TO.P,J6,6,Pin_6_6*%
%TO.N,+3.3V*%
X126670000Y-30790000D03*
%TD*%
D18*
%TO.P,TP3,1,1_1*%
%TO.N,Net-(U1UNUSED-P5_3)*%
X107800000Y-68000000D03*
%TD*%
D19*
%TO.N,0V*%
X83750000Y-56875000D03*
D20*
X101750000Y-44500000D03*
X104125000Y-48250000D03*
X90250000Y-29250000D03*
X102500000Y-84250000D03*
X96100000Y-74000000D03*
X96000000Y-48000000D03*
X117200000Y-62800000D03*
X91000000Y-71500000D03*
X102500000Y-71500000D03*
X91000000Y-72500000D03*
X111500000Y-60750000D03*
X87080900Y-60250000D03*
X111750000Y-62500000D03*
X101625000Y-65250000D03*
X104500000Y-71500000D03*
D21*
X94000000Y-81750000D03*
D20*
X109400000Y-68400000D03*
X122352000Y-34981000D03*
X113000000Y-36000000D03*
X123600000Y-48800000D03*
X106750000Y-30250000D03*
X83330900Y-60250000D03*
X81750000Y-55500000D03*
X103400000Y-75800000D03*
X117200000Y-61800000D03*
X113500000Y-64250000D03*
X110400000Y-70200000D03*
X82000000Y-58500000D03*
X123500000Y-51400000D03*
X97100000Y-70800000D03*
X110400000Y-69200000D03*
X111500000Y-55000000D03*
X87080900Y-58750000D03*
X121500000Y-36000000D03*
X97500000Y-66125000D03*
X132250000Y-47500000D03*
X89000000Y-73750000D03*
X97250000Y-69125000D03*
X111500000Y-58500000D03*
X96625000Y-66375000D03*
X104200000Y-75200000D03*
X89000000Y-75750000D03*
X101800000Y-76000000D03*
X119500000Y-58000000D03*
X99800000Y-47170840D03*
X117200000Y-60800000D03*
X89000000Y-74750000D03*
X109400000Y-67200000D03*
X92600000Y-70335400D03*
D19*
X88000000Y-57250000D03*
D20*
X98338600Y-71500000D03*
%TO.N,+3.3V*%
X101625000Y-47375000D03*
X95500000Y-53750000D03*
X94500000Y-44500000D03*
X90750000Y-79750000D03*
X110000000Y-57500000D03*
X103000000Y-82800000D03*
X105054003Y-62336200D03*
X132250000Y-49250000D03*
X98596000Y-66378260D03*
X106000000Y-65346000D03*
X104200000Y-82800000D03*
X90125000Y-79125000D03*
X101750000Y-54000000D03*
X121590000Y-28885000D03*
X106985000Y-46030000D03*
X106400000Y-76800000D03*
X104500000Y-66500000D03*
X94285000Y-60635000D03*
X106000000Y-81400000D03*
X103000000Y-65750000D03*
X110500000Y-53875000D03*
%TO.N,Net-(J12-MOSI)*%
X101650000Y-45600000D03*
X98800000Y-44800000D03*
%TO.N,Net-(J12-MISO)*%
X102750000Y-44750000D03*
X97800000Y-44800000D03*
%TO.N,/RSTB*%
X107250000Y-51529000D03*
X101500000Y-55500000D03*
%TO.N,+5V*%
X117400000Y-91000000D03*
X90600000Y-92600000D03*
X117400000Y-92600000D03*
X91600000Y-92600000D03*
X92600000Y-92600000D03*
X116600000Y-91800000D03*
D21*
%TO.N,Net-(J1-CC1)*%
X94000000Y-85500000D03*
D20*
%TO.N,/MCLK*%
X82000000Y-50250000D03*
X89000000Y-50250000D03*
%TO.N,/A_DAT*%
X75108000Y-61270000D03*
X75720500Y-63279500D03*
%TO.N,/A_DAT1*%
X77000000Y-63302000D03*
X76512500Y-61262500D03*
%TO.N,/CANTX*%
X80250000Y-40250000D03*
X76250000Y-40250000D03*
%TO.N,/TXD*%
X77000000Y-41000000D03*
X82000000Y-41000000D03*
%TO.N,/CANRX*%
X76250000Y-41750000D03*
X80250000Y-41750000D03*
%TO.N,/RXD*%
X82000000Y-42500000D03*
X77000000Y-42500000D03*
%TO.N,VBUS*%
X99500000Y-66000000D03*
X98500000Y-76500000D03*
%TO.N,/ROW1*%
X118862448Y-63662448D03*
X105500000Y-60625000D03*
%TO.N,/COL4*%
X122904000Y-60500000D03*
X122875000Y-64125000D03*
%TO.N,Net-(U1UNUSED-P5_3)*%
X107800000Y-66800000D03*
%TO.N,/DC*%
X104028999Y-63599263D03*
D19*
X102750000Y-55500000D03*
D20*
X105000000Y-64625000D03*
D19*
X113250000Y-57000000D03*
D20*
%TO.N,/RST*%
X105750000Y-63875000D03*
D19*
X103500000Y-54750000D03*
X114250000Y-56250000D03*
D20*
X104149200Y-62250000D03*
D19*
%TO.N,/CS*%
X112625000Y-55875000D03*
X104250000Y-55500000D03*
%TO.N,/BL*%
X113625000Y-55125000D03*
X105000000Y-54750000D03*
D20*
%TO.N,/ROW2*%
X105375000Y-59500000D03*
X117000000Y-71000000D03*
X115250000Y-64250000D03*
X119200000Y-74000000D03*
%TO.N,/ROW3*%
X119000000Y-62600000D03*
X105375000Y-57750000D03*
%TO.N,/ROW4*%
X124500000Y-74000000D03*
X124500000Y-65750000D03*
%TO.N,/COL1*%
X106250000Y-57250000D03*
X117200000Y-65000000D03*
D19*
%TO.N,/MOSI*%
X113141127Y-51492275D03*
X98625000Y-53625000D03*
%TO.N,/SCK*%
X97750000Y-54000000D03*
X111625000Y-52000000D03*
%TO.N,/MISO*%
X112125000Y-53000000D03*
X96750000Y-53625000D03*
%TD*%
%TO.N,Net-(J12-MOSI)*%
D22*
X101650000Y-45600000D02*
X101050000Y-45000000D01*
X101050000Y-45000000D02*
X99000000Y-45000000D01*
X99000000Y-45000000D02*
X98800000Y-44800000D01*
%TO.N,Net-(J12-MISO)*%
D23*
X98850000Y-43750000D02*
X97800000Y-44800000D01*
X102250000Y-43750000D02*
X98850000Y-43750000D01*
X102750000Y-44250000D02*
X102250000Y-43750000D01*
X102750000Y-44750000D02*
X102750000Y-44250000D01*
%TO.N,/RSTB*%
X103000000Y-54000000D02*
X101500000Y-55500000D01*
X107250000Y-52750000D02*
X106000000Y-54000000D01*
X106000000Y-54000000D02*
X103000000Y-54000000D01*
X107250000Y-51529000D02*
X107250000Y-52750000D01*
%TO.N,+5V*%
D24*
X129210000Y-52380000D02*
X129845000Y-51745000D01*
X129845000Y-51745000D02*
X133930600Y-51745000D01*
X70790000Y-71430000D02*
X70790000Y-72700000D01*
X109750000Y-31750000D02*
X110500000Y-32500000D01*
D25*
X91600000Y-92600000D02*
X91600000Y-93555000D01*
D24*
X70790000Y-72700000D02*
X70155000Y-73335000D01*
X113970000Y-32060000D02*
X113970000Y-30790000D01*
X70790000Y-60000000D02*
X70155000Y-60635000D01*
X70790000Y-91750000D02*
X70790000Y-93655000D01*
X91500000Y-93655000D02*
X92600000Y-93655000D01*
X133930600Y-51745000D02*
X133930600Y-27255600D01*
X66980000Y-30790000D02*
X66345000Y-31425000D01*
D25*
X117400000Y-92600000D02*
X117400000Y-93655000D01*
X117400000Y-91000000D02*
X118200000Y-91800000D01*
D24*
X109750000Y-27250000D02*
X109750000Y-31750000D01*
X110655000Y-26345000D02*
X109750000Y-27250000D01*
X70790000Y-58730000D02*
X70790000Y-60000000D01*
X70790000Y-93655000D02*
X90600000Y-93655000D01*
X117250000Y-93655000D02*
X117400000Y-93655000D01*
X66345000Y-93020000D02*
X66980000Y-93655000D01*
X116600000Y-93655000D02*
X117250000Y-93655000D01*
X66980000Y-93655000D02*
X70790000Y-93655000D01*
X118200000Y-93655000D02*
X133020000Y-93655000D01*
X129210000Y-53650000D02*
X129210000Y-52380000D01*
D25*
X116600000Y-91800000D02*
X116600000Y-93655000D01*
D24*
X66345000Y-73335000D02*
X66345000Y-93020000D01*
D25*
X91600000Y-93555000D02*
X91500000Y-93655000D01*
D24*
X66345000Y-60635000D02*
X66345000Y-73335000D01*
X133930600Y-27255600D02*
X133020000Y-26345000D01*
X70155000Y-73335000D02*
X66345000Y-73335000D01*
X110500000Y-32500000D02*
X113530000Y-32500000D01*
X90600000Y-93655000D02*
X91500000Y-93655000D01*
X66345000Y-31425000D02*
X66345000Y-60635000D01*
X133930600Y-92744400D02*
X133930600Y-51745000D01*
X68250000Y-30790000D02*
X66980000Y-30790000D01*
X133020000Y-26345000D02*
X110655000Y-26345000D01*
D25*
X90600000Y-92600000D02*
X90600000Y-93655000D01*
D24*
X70155000Y-60635000D02*
X66345000Y-60635000D01*
D25*
X92600000Y-92600000D02*
X92600000Y-93655000D01*
D24*
X117400000Y-93655000D02*
X118200000Y-93655000D01*
D25*
X118200000Y-91800000D02*
X118200000Y-93655000D01*
D24*
X113530000Y-32500000D02*
X113970000Y-32060000D01*
X133020000Y-93655000D02*
X133930600Y-92744400D01*
X92600000Y-93655000D02*
X116600000Y-93655000D01*
%TO.N,Net-(FB2-Pad2)*%
D23*
X102125000Y-89625000D02*
X102000000Y-89750000D01*
X97875000Y-89625000D02*
X97875000Y-89075000D01*
X102125000Y-87725000D02*
X102125000Y-89075000D01*
X102000000Y-89750000D02*
X98000000Y-89750000D01*
X102125000Y-89075000D02*
X102125000Y-89625000D01*
X97875000Y-87725000D02*
X97875000Y-89075000D01*
X98000000Y-89750000D02*
X97875000Y-89625000D01*
%TO.N,Net-(J1-CC1)*%
X94750000Y-86250000D02*
X98250000Y-86250000D01*
X98725000Y-86725000D02*
X98725000Y-87725000D01*
X94000000Y-85500000D02*
X94750000Y-86250000D01*
X98250000Y-86250000D02*
X98725000Y-86725000D01*
%TO.N,/USB_D+*%
X100425000Y-89075000D02*
X99575000Y-87725000D01*
%TO.N,/MCLK*%
X89000000Y-50250000D02*
X82000000Y-50250000D01*
%TO.N,/A_DAT*%
X75720500Y-63279500D02*
X75743000Y-63257000D01*
X75743000Y-63257000D02*
X75743000Y-61905000D01*
X75743000Y-61905000D02*
X75108000Y-61270000D01*
%TO.N,/A_DAT1*%
X76251000Y-62553000D02*
X76251000Y-61524000D01*
X77000000Y-63302000D02*
X76251000Y-62553000D01*
X76251000Y-61524000D02*
X76512500Y-61262500D01*
%TO.N,/CANTX*%
X80250000Y-40250000D02*
X76250000Y-40250000D01*
%TO.N,/TXD*%
X82000000Y-41000000D02*
X77000000Y-41000000D01*
%TO.N,/CANRX*%
X80250000Y-41750000D02*
X76250000Y-41750000D01*
%TO.N,/RXD*%
X82000000Y-42500000D02*
X77000000Y-42500000D01*
%TO.N,VBUS*%
X99250000Y-66250000D02*
X99500000Y-66000000D01*
X98500000Y-76500000D02*
X99250000Y-75750000D01*
X99250000Y-75750000D02*
X99250000Y-66250000D01*
%TO.N,/ROW1*%
X111898306Y-59653200D02*
X106471800Y-59653200D01*
X130361600Y-90361600D02*
X131750000Y-91750000D01*
X118862448Y-63662448D02*
X118507762Y-63662448D01*
X115658093Y-63408093D02*
X115653200Y-63408093D01*
X129210000Y-79050000D02*
X130361600Y-80201600D01*
X115653200Y-63408093D02*
X111898306Y-59653200D01*
X106471800Y-59653200D02*
X105500000Y-60625000D01*
X118507762Y-63662448D02*
X117829510Y-64340700D01*
X130361600Y-80201600D02*
X130361600Y-90361600D01*
X116590700Y-64340700D02*
X115658093Y-63408093D01*
X117829510Y-64340700D02*
X116590700Y-64340700D01*
%TO.N,/COL4*%
X122904000Y-60500000D02*
X122875000Y-60529000D01*
X122875000Y-60529000D02*
X122875000Y-64125000D01*
%TO.N,Net-(U1UNUSED-P5_3)*%
X107800000Y-66800000D02*
X107800000Y-68000000D01*
%TO.N,/DC*%
X110139390Y-56459600D02*
X109873970Y-56459600D01*
X109873970Y-56459600D02*
X109373970Y-55959600D01*
X110559589Y-56879800D02*
X110139390Y-56459600D01*
X104250000Y-63820264D02*
X104250000Y-63875000D01*
X106246810Y-56504800D02*
X103754800Y-56504800D01*
X112750000Y-57000000D02*
X112629800Y-56879800D01*
X104028999Y-63599263D02*
X104250000Y-63820264D01*
X112629800Y-56879800D02*
X110559589Y-56879800D01*
X109373970Y-55959600D02*
X106792010Y-55959600D01*
X103754800Y-56504800D02*
X102750000Y-55500000D01*
X106792010Y-55959600D02*
X106246810Y-56504800D01*
X113250000Y-57000000D02*
X112750000Y-57000000D01*
X104250000Y-63875000D02*
X105000000Y-64625000D01*
%TO.N,/RST*%
X104149200Y-62250000D02*
X104149200Y-62945263D01*
X113100791Y-56250000D02*
X112874191Y-56476600D01*
X104299895Y-62945263D02*
X104682999Y-63328367D01*
X109540980Y-55556400D02*
X106625000Y-55556400D01*
X110040980Y-56056400D02*
X109540980Y-55556400D01*
X104682999Y-63328367D02*
X104682999Y-63737789D01*
X105625000Y-64000000D02*
X105750000Y-63875000D01*
X105270896Y-63971000D02*
X105299896Y-64000000D01*
X105299896Y-64000000D02*
X105625000Y-64000000D01*
X106079800Y-56101600D02*
X103976600Y-56101600D01*
X104682999Y-63737789D02*
X104916210Y-63971000D01*
X103500000Y-55625000D02*
X103500000Y-54750000D01*
X110726600Y-56476600D02*
X110306400Y-56056400D01*
X103976600Y-56101600D02*
X103500000Y-55625000D01*
X104149200Y-62945263D02*
X104299895Y-62945263D01*
X106625000Y-55556400D02*
X106079800Y-56101600D01*
X112874191Y-56476600D02*
X110726600Y-56476600D01*
X114250000Y-56250000D02*
X113100791Y-56250000D01*
X110306400Y-56056400D02*
X110040980Y-56056400D01*
X104916210Y-63971000D02*
X105270896Y-63971000D01*
%TO.N,/CS*%
X110986990Y-56057200D02*
X110582990Y-55653200D01*
X112442800Y-56057200D02*
X110986990Y-56057200D01*
X109707990Y-55153200D02*
X106375000Y-55153200D01*
X106028200Y-55500000D02*
X104250000Y-55500000D01*
X110582990Y-55653200D02*
X110207990Y-55653200D01*
X110207990Y-55653200D02*
X109707990Y-55153200D01*
X112625000Y-55875000D02*
X112442800Y-56057200D01*
X106375000Y-55153200D02*
X106028200Y-55500000D01*
%TO.N,/BL*%
X110750000Y-55250000D02*
X110375000Y-55250000D01*
X110375000Y-55250000D02*
X109875000Y-54750000D01*
X111154000Y-55654000D02*
X110750000Y-55250000D01*
X113625000Y-55125000D02*
X112299896Y-55125000D01*
X109875000Y-54750000D02*
X105000000Y-54750000D01*
X111770896Y-55654000D02*
X111154000Y-55654000D01*
X112299896Y-55125000D02*
X111770896Y-55654000D01*
%TO.N,/ROW2*%
X115250000Y-64250000D02*
X115250000Y-63575104D01*
X117400000Y-71400000D02*
X117400000Y-72200000D01*
X117400000Y-72200000D02*
X119200000Y-74000000D01*
X115250000Y-63575104D02*
X111731296Y-60056400D01*
X105029000Y-61279000D02*
X104750000Y-61000000D01*
X105770896Y-61279000D02*
X105029000Y-61279000D01*
X104750000Y-60125000D02*
X105375000Y-59500000D01*
X104750000Y-61000000D02*
X104750000Y-60125000D01*
X106993496Y-60056400D02*
X105770896Y-61279000D01*
X111731296Y-60056400D02*
X106993496Y-60056400D01*
X117000000Y-71000000D02*
X117400000Y-71400000D01*
%TO.N,/ROW3*%
X105375000Y-58424896D02*
X105375000Y-57750000D01*
X106200104Y-59250000D02*
X105375000Y-58424896D01*
X119000000Y-62600000D02*
X117662500Y-63937500D01*
X112070211Y-59250000D02*
X106200104Y-59250000D01*
X117662500Y-63937500D02*
X116757710Y-63937500D01*
X116757710Y-63937500D02*
X112070211Y-59250000D01*
%TO.N,/ROW4*%
X124500000Y-65750000D02*
X124500000Y-74000000D01*
%TO.N,/COL1*%
X105500000Y-66000000D02*
X104779000Y-65279000D01*
X113750000Y-63250000D02*
X109250000Y-63250000D01*
X114500000Y-64000000D02*
X113750000Y-63250000D01*
X106000000Y-57000000D02*
X106250000Y-57250000D01*
X117200000Y-65000000D02*
X115000000Y-65000000D01*
X104000000Y-57000000D02*
X106000000Y-57000000D01*
X109250000Y-63250000D02*
X106500000Y-66000000D01*
X104779000Y-65279000D02*
X104029000Y-65279000D01*
X103375000Y-64625000D02*
X103375000Y-57625000D01*
X115000000Y-65000000D02*
X114500000Y-64500000D01*
X104029000Y-65279000D02*
X103375000Y-64625000D01*
X114500000Y-64500000D02*
X114500000Y-64000000D01*
X103375000Y-57625000D02*
X104000000Y-57000000D01*
X106500000Y-66000000D02*
X105500000Y-66000000D01*
%TO.N,/MOSI*%
X99429790Y-53625000D02*
X103554790Y-49500000D01*
X98625000Y-53625000D02*
X99429790Y-53625000D01*
X103554790Y-49500000D02*
X111148852Y-49500000D01*
X111148852Y-49500000D02*
X113141127Y-51492275D01*
%TO.N,/SCK*%
X97976600Y-54226600D02*
X98375809Y-54226600D01*
X98874191Y-54226600D02*
X99398400Y-54226600D01*
X99398400Y-54226600D02*
X103721800Y-49903200D01*
X103721800Y-49903200D02*
X109528200Y-49903200D01*
X97750000Y-54000000D02*
X97976600Y-54226600D01*
X98375809Y-54226600D02*
X98874191Y-54226600D01*
X109528200Y-49903200D02*
X111625000Y-52000000D01*
%TO.N,/MISO*%
X96750000Y-53850791D02*
X97529009Y-54629800D01*
X108931400Y-50306400D02*
X111625000Y-53000000D01*
X103943600Y-50306400D02*
X108931400Y-50306400D01*
X97529009Y-54629800D02*
X99620200Y-54629800D01*
X99620200Y-54629800D02*
X103943600Y-50306400D01*
D22*
X111875000Y-53000000D02*
X112125000Y-53000000D01*
D23*
X111625000Y-53000000D02*
X112125000Y-53000000D01*
X96750000Y-53625000D02*
X96750000Y-53850791D01*
%TD*%
%TA.AperFunction,Conductor*%
%TO.N,0V*%
G36*
X111497575Y-60678185D02*
G01*
X111518217Y-60694819D01*
X113259617Y-62436219D01*
X113293102Y-62497542D01*
X113288118Y-62567234D01*
X113246246Y-62623167D01*
X113180782Y-62647584D01*
X113171936Y-62647900D01*
X109170732Y-62647900D01*
X109094165Y-62668416D01*
X109017596Y-62688933D01*
X109017595Y-62688934D01*
X108936414Y-62735804D01*
X108928800Y-62740200D01*
X108914391Y-62748518D01*
X108880302Y-62768199D01*
X108880300Y-62768201D01*
X106842023Y-64806477D01*
X106780700Y-64839962D01*
X106711008Y-64834978D01*
X106666661Y-64806477D01*
X106543695Y-64683511D01*
X106543691Y-64683508D01*
X106431927Y-64608829D01*
X106387122Y-64555217D01*
X106378415Y-64485892D01*
X106408570Y-64422864D01*
X106412273Y-64418957D01*
X106412486Y-64418696D01*
X106412491Y-64418692D01*
X106505830Y-64279000D01*
X106570124Y-64123782D01*
X106602900Y-63959003D01*
X106602900Y-63790997D01*
X106570124Y-63626218D01*
X106505830Y-63471000D01*
X106505828Y-63470997D01*
X106505826Y-63470993D01*
X106412491Y-63331308D01*
X106412488Y-63331304D01*
X106293695Y-63212511D01*
X106293691Y-63212508D01*
X106154006Y-63119173D01*
X106153996Y-63119168D01*
X105998782Y-63054876D01*
X105998774Y-63054874D01*
X105828420Y-63020989D01*
X105766509Y-62988605D01*
X105731935Y-62927889D01*
X105735674Y-62858119D01*
X105749509Y-62830481D01*
X105791123Y-62768201D01*
X105809833Y-62740200D01*
X105874127Y-62584982D01*
X105906903Y-62420203D01*
X105906903Y-62252197D01*
X105874127Y-62087418D01*
X105848918Y-62026560D01*
X105841450Y-61957095D01*
X105872724Y-61894615D01*
X105931384Y-61859336D01*
X106003298Y-61840067D01*
X106140594Y-61760800D01*
X106252696Y-61648698D01*
X107206575Y-60694819D01*
X107267898Y-60661334D01*
X107294256Y-60658500D01*
X111430536Y-60658500D01*
X111497575Y-60678185D01*
G37*
%TD.AperFunction*%
%TA.AperFunction,Conductor*%
G36*
X101819614Y-44355380D02*
G01*
X101831199Y-44354206D01*
X101852529Y-44365045D01*
X101875482Y-44371785D01*
X101883105Y-44380583D01*
X101893488Y-44385859D01*
X101905573Y-44406511D01*
X101921237Y-44424589D01*
X101922893Y-44436112D01*
X101928775Y-44446163D01*
X101927776Y-44470067D01*
X101931181Y-44493747D01*
X101930060Y-44500292D01*
X101899564Y-44653603D01*
X101867179Y-44715514D01*
X101806463Y-44750088D01*
X101753759Y-44751029D01*
X101734004Y-44747100D01*
X101734003Y-44747100D01*
X101697697Y-44747100D01*
X101630658Y-44727415D01*
X101610016Y-44710781D01*
X101537590Y-44638355D01*
X101537588Y-44638352D01*
X101463017Y-44563781D01*
X101429532Y-44502458D01*
X101434516Y-44432766D01*
X101476388Y-44376833D01*
X101541852Y-44352416D01*
X101550698Y-44352100D01*
X101808443Y-44352100D01*
X101819614Y-44355380D01*
G37*
%TD.AperFunction*%
%TA.AperFunction,Conductor*%
G36*
X95734174Y-25006306D02*
G01*
X95743051Y-25009122D01*
X95743052Y-25009122D01*
X95743131Y-25009147D01*
X96008693Y-25092998D01*
X96548387Y-25230645D01*
X97094953Y-25337796D01*
X97094965Y-25337797D01*
X97094972Y-25337799D01*
X97363680Y-25374968D01*
X97646670Y-25414113D01*
X97646679Y-25414113D01*
X97646681Y-25414114D01*
X97767296Y-25423944D01*
X98201799Y-25459356D01*
X98412213Y-25464656D01*
X98416524Y-25464842D01*
X98453061Y-25467070D01*
X98503486Y-25466997D01*
X98506585Y-25467033D01*
X98758593Y-25473382D01*
X98985643Y-25466352D01*
X98989150Y-25466296D01*
X99065495Y-25466186D01*
X99133569Y-25461838D01*
X99137522Y-25461650D01*
X99315297Y-25456147D01*
X99566307Y-25434232D01*
X99569066Y-25434024D01*
X99676686Y-25427151D01*
X99739077Y-25419240D01*
X99743711Y-25418744D01*
X99870156Y-25407706D01*
X100161185Y-25365738D01*
X100163151Y-25365472D01*
X100284257Y-25350117D01*
X100327272Y-25341913D01*
X100332664Y-25341010D01*
X100421424Y-25328211D01*
X100796919Y-25252347D01*
X100797709Y-25252192D01*
X100885849Y-25235383D01*
X100901285Y-25231428D01*
X100907432Y-25230020D01*
X100967364Y-25217912D01*
X101506255Y-25077157D01*
X101506266Y-25077153D01*
X101506278Y-25077150D01*
X101725707Y-25006472D01*
X101763724Y-25000500D01*
X101773771Y-25000500D01*
X133994588Y-25000500D01*
X134005394Y-25000972D01*
X134012947Y-25001632D01*
X134151564Y-25013760D01*
X134164907Y-25015665D01*
X134194247Y-25021501D01*
X134202103Y-25023332D01*
X134326932Y-25056780D01*
X134342278Y-25061989D01*
X134359233Y-25069012D01*
X134364169Y-25071185D01*
X134489916Y-25129821D01*
X134508629Y-25140624D01*
X134619006Y-25217911D01*
X134633583Y-25228118D01*
X134650140Y-25242012D01*
X134757987Y-25349859D01*
X134771881Y-25366416D01*
X134859372Y-25491366D01*
X134870179Y-25510086D01*
X134928813Y-25635828D01*
X134930993Y-25640781D01*
X134938007Y-25657715D01*
X134943220Y-25673072D01*
X134976659Y-25797868D01*
X134978501Y-25805769D01*
X134984330Y-25835071D01*
X134986241Y-25848456D01*
X134999028Y-25994605D01*
X134999500Y-26005413D01*
X134999500Y-93994586D01*
X134999028Y-94005394D01*
X134986241Y-94151542D01*
X134984330Y-94164927D01*
X134978501Y-94194229D01*
X134976659Y-94202130D01*
X134943220Y-94326926D01*
X134938007Y-94342282D01*
X134931001Y-94359197D01*
X134928821Y-94364151D01*
X134870176Y-94489917D01*
X134859369Y-94508636D01*
X134771881Y-94633582D01*
X134757987Y-94650140D01*
X134650140Y-94757987D01*
X134633582Y-94771881D01*
X134508636Y-94859369D01*
X134489917Y-94870176D01*
X134364151Y-94928821D01*
X134359197Y-94931001D01*
X134342282Y-94938007D01*
X134326926Y-94943220D01*
X134202130Y-94976659D01*
X134194229Y-94978501D01*
X134164927Y-94984330D01*
X134151542Y-94986241D01*
X134005395Y-94999028D01*
X133994587Y-94999500D01*
X66005413Y-94999500D01*
X65994605Y-94999028D01*
X65848456Y-94986241D01*
X65835071Y-94984330D01*
X65805769Y-94978501D01*
X65797868Y-94976659D01*
X65673072Y-94943220D01*
X65657715Y-94938007D01*
X65640781Y-94930993D01*
X65635828Y-94928813D01*
X65510086Y-94870179D01*
X65491366Y-94859372D01*
X65366416Y-94771881D01*
X65349859Y-94757987D01*
X65242012Y-94650140D01*
X65228118Y-94633583D01*
X65140626Y-94508632D01*
X65129819Y-94489912D01*
X65071185Y-94364169D01*
X65069006Y-94359218D01*
X65061989Y-94342278D01*
X65056778Y-94326926D01*
X65055893Y-94323623D01*
X65023332Y-94202103D01*
X65021501Y-94194247D01*
X65015665Y-94164907D01*
X65013760Y-94151564D01*
X65000972Y-94005394D01*
X65000500Y-93994588D01*
X65000500Y-93094314D01*
X65590498Y-93094314D01*
X65619493Y-93240073D01*
X65619496Y-93240083D01*
X65676366Y-93377381D01*
X65676372Y-93377392D01*
X65758942Y-93500968D01*
X65758943Y-93500969D01*
X66389600Y-94131624D01*
X66389621Y-94131647D01*
X66499031Y-94241057D01*
X66527290Y-94259939D01*
X66527289Y-94259939D01*
X66622600Y-94323623D01*
X66622604Y-94323625D01*
X66622611Y-94323630D01*
X66703043Y-94356945D01*
X66703044Y-94356946D01*
X66720439Y-94364151D01*
X66759920Y-94380505D01*
X66759929Y-94380506D01*
X66759930Y-94380507D01*
X66784103Y-94385315D01*
X66784110Y-94385316D01*
X66905686Y-94409501D01*
X66905688Y-94409501D01*
X67060426Y-94409501D01*
X67060446Y-94409500D01*
X70715688Y-94409500D01*
X90525688Y-94409500D01*
X91425688Y-94409500D01*
X92525688Y-94409500D01*
X116525688Y-94409500D01*
X117175688Y-94409500D01*
X117325688Y-94409500D01*
X118125688Y-94409500D01*
X132939554Y-94409500D01*
X132939574Y-94409501D01*
X132945688Y-94409501D01*
X133094314Y-94409501D01*
X133215894Y-94385315D01*
X133215894Y-94385316D01*
X133215900Y-94385313D01*
X133240080Y-94380505D01*
X133279561Y-94364151D01*
X133296944Y-94356951D01*
X133296947Y-94356949D01*
X133296955Y-94356946D01*
X133377389Y-94323630D01*
X133500966Y-94241059D01*
X134411563Y-93330460D01*
X134411566Y-93330459D01*
X134516659Y-93225366D01*
X134571830Y-93142795D01*
X134599230Y-93101789D01*
X134656105Y-92964479D01*
X134671061Y-92889294D01*
X134685101Y-92818714D01*
X134685101Y-92664978D01*
X134685100Y-92664952D01*
X134685100Y-27336046D01*
X134685101Y-27336025D01*
X134685101Y-27181286D01*
X134671061Y-27110706D01*
X134656105Y-27035521D01*
X134653785Y-27029921D01*
X134612836Y-26931059D01*
X134599230Y-26898211D01*
X134571830Y-26857205D01*
X134516659Y-26774634D01*
X134516657Y-26774632D01*
X134516655Y-26774629D01*
X134407247Y-26665221D01*
X134407224Y-26665200D01*
X133500969Y-25758943D01*
X133500968Y-25758942D01*
X133459773Y-25731417D01*
X133377389Y-25676370D01*
X133377386Y-25676368D01*
X133377385Y-25676368D01*
X133296955Y-25643053D01*
X133240080Y-25619495D01*
X133240070Y-25619493D01*
X133215894Y-25614684D01*
X133094314Y-25590499D01*
X133094312Y-25590499D01*
X132945688Y-25590499D01*
X132939574Y-25590499D01*
X132939554Y-25590500D01*
X110580683Y-25590500D01*
X110434927Y-25619493D01*
X110434919Y-25619495D01*
X110297608Y-25676371D01*
X110174035Y-25758939D01*
X110174034Y-25758940D01*
X110135107Y-25797868D01*
X110068941Y-25864034D01*
X109624294Y-26308681D01*
X109562971Y-26342166D01*
X109536613Y-26345000D01*
X109525000Y-26345000D01*
X109525000Y-26356612D01*
X109505315Y-26423651D01*
X109488681Y-26444293D01*
X109163943Y-26769030D01*
X109163942Y-26769031D01*
X109081372Y-26892607D01*
X109081366Y-26892618D01*
X109024498Y-27029913D01*
X109024493Y-27029926D01*
X108995499Y-27175685D01*
X108995499Y-27330425D01*
X108995500Y-27330446D01*
X108995500Y-31670552D01*
X108995499Y-31670578D01*
X108995499Y-31675688D01*
X108995499Y-31824312D01*
X108995499Y-31824314D01*
X108995498Y-31824314D01*
X109024493Y-31970073D01*
X109024496Y-31970083D01*
X109081366Y-32107381D01*
X109081368Y-32107386D01*
X109081370Y-32107389D01*
X109163941Y-32230966D01*
X109525000Y-32592024D01*
X109525000Y-32695000D01*
X109627976Y-32695000D01*
X109909600Y-32976624D01*
X109909621Y-32976647D01*
X110019028Y-33086054D01*
X110019035Y-33086060D01*
X110142608Y-33168628D01*
X110142609Y-33168628D01*
X110142610Y-33168629D01*
X110279920Y-33225505D01*
X110425683Y-33254499D01*
X110425687Y-33254500D01*
X110425688Y-33254500D01*
X113449554Y-33254500D01*
X113449574Y-33254501D01*
X113455688Y-33254501D01*
X113604314Y-33254501D01*
X113725894Y-33230315D01*
X113725894Y-33230316D01*
X113725900Y-33230313D01*
X113750080Y-33225505D01*
X113785942Y-33210649D01*
X113806944Y-33201951D01*
X113806947Y-33201949D01*
X113806955Y-33201946D01*
X113887389Y-33168630D01*
X114010966Y-33086059D01*
X114365706Y-32731319D01*
X114427029Y-32697834D01*
X114453387Y-32695000D01*
X118415000Y-32695000D01*
X118415000Y-28800992D01*
X120737100Y-28800992D01*
X120737100Y-28969007D01*
X120769874Y-29133774D01*
X120769876Y-29133782D01*
X120834168Y-29288996D01*
X120834173Y-29289006D01*
X120927508Y-29428691D01*
X120927511Y-29428695D01*
X121046304Y-29547488D01*
X121046308Y-29547491D01*
X121185993Y-29640826D01*
X121185997Y-29640828D01*
X121186000Y-29640830D01*
X121341218Y-29705124D01*
X121505992Y-29737899D01*
X121505996Y-29737900D01*
X121505997Y-29737900D01*
X121674004Y-29737900D01*
X121674005Y-29737899D01*
X121838782Y-29705124D01*
X121994000Y-29640830D01*
X122133692Y-29547491D01*
X122252491Y-29428692D01*
X122345830Y-29289000D01*
X122410124Y-29133782D01*
X122442900Y-28969003D01*
X122442900Y-28800997D01*
X122410124Y-28636218D01*
X122345830Y-28481000D01*
X122345828Y-28480997D01*
X122345826Y-28480993D01*
X122252491Y-28341308D01*
X122252488Y-28341304D01*
X122133695Y-28222511D01*
X122133691Y-28222508D01*
X121994006Y-28129173D01*
X121993996Y-28129168D01*
X121838782Y-28064876D01*
X121838774Y-28064874D01*
X121674007Y-28032100D01*
X121674003Y-28032100D01*
X121505997Y-28032100D01*
X121505992Y-28032100D01*
X121341225Y-28064874D01*
X121341217Y-28064876D01*
X121186003Y-28129168D01*
X121185993Y-28129173D01*
X121046308Y-28222508D01*
X121046304Y-28222511D01*
X120927511Y-28341304D01*
X120927508Y-28341308D01*
X120834173Y-28480993D01*
X120834168Y-28481003D01*
X120769876Y-28636217D01*
X120769874Y-28636225D01*
X120737100Y-28800992D01*
X118415000Y-28800992D01*
X118415000Y-27223500D01*
X118434685Y-27156461D01*
X118487489Y-27110706D01*
X118539000Y-27099500D01*
X124641000Y-27099500D01*
X124708039Y-27119185D01*
X124753794Y-27171989D01*
X124765000Y-27223500D01*
X124765000Y-32695000D01*
X133052100Y-32695000D01*
X133119139Y-32714685D01*
X133164894Y-32767489D01*
X133176100Y-32819000D01*
X133176100Y-36381000D01*
X133156415Y-36448039D01*
X133103611Y-36493794D01*
X133052100Y-36505000D01*
X127305000Y-36505000D01*
X127305000Y-45395000D01*
X133052100Y-45395000D01*
X133119139Y-45414685D01*
X133164894Y-45467489D01*
X133176100Y-45519000D01*
X133176100Y-48692053D01*
X133156415Y-48759092D01*
X133103611Y-48804847D01*
X133034453Y-48814791D01*
X132970897Y-48785766D01*
X132948998Y-48760944D01*
X132912491Y-48706308D01*
X132912488Y-48706304D01*
X132793695Y-48587511D01*
X132793691Y-48587508D01*
X132654006Y-48494173D01*
X132653996Y-48494168D01*
X132498782Y-48429876D01*
X132498774Y-48429874D01*
X132334007Y-48397100D01*
X132334003Y-48397100D01*
X132165997Y-48397100D01*
X132165992Y-48397100D01*
X132001225Y-48429874D01*
X132001217Y-48429876D01*
X131846003Y-48494168D01*
X131845993Y-48494173D01*
X131706308Y-48587508D01*
X131706304Y-48587511D01*
X131587511Y-48706304D01*
X131587508Y-48706308D01*
X131494173Y-48845993D01*
X131494168Y-48846003D01*
X131429876Y-49001217D01*
X131429874Y-49001225D01*
X131397100Y-49165992D01*
X131397100Y-49334007D01*
X131429874Y-49498774D01*
X131429876Y-49498782D01*
X131494168Y-49653996D01*
X131494173Y-49654006D01*
X131587508Y-49793691D01*
X131587511Y-49793695D01*
X131706304Y-49912488D01*
X131706308Y-49912491D01*
X131845993Y-50005826D01*
X131845997Y-50005828D01*
X131846000Y-50005830D01*
X132001218Y-50070124D01*
X132161975Y-50102100D01*
X132165992Y-50102899D01*
X132165996Y-50102900D01*
X132165997Y-50102900D01*
X132334004Y-50102900D01*
X132334005Y-50102899D01*
X132498782Y-50070124D01*
X132654000Y-50005830D01*
X132793692Y-49912491D01*
X132912491Y-49793692D01*
X132948998Y-49739055D01*
X133002609Y-49694251D01*
X133071934Y-49685543D01*
X133134962Y-49715697D01*
X133171681Y-49775140D01*
X133176100Y-49807946D01*
X133176100Y-50866500D01*
X133156415Y-50933539D01*
X133103611Y-50979294D01*
X133052100Y-50990500D01*
X129925446Y-50990500D01*
X129925426Y-50990499D01*
X129919312Y-50990499D01*
X129770688Y-50990499D01*
X129770686Y-50990499D01*
X129649105Y-51014684D01*
X129634540Y-51017581D01*
X129624918Y-51019495D01*
X129624917Y-51019495D01*
X129568045Y-51043053D01*
X129487615Y-51076367D01*
X129487606Y-51076372D01*
X129478502Y-51082456D01*
X129478501Y-51082457D01*
X129364033Y-51158941D01*
X129323475Y-51199500D01*
X129258941Y-51264034D01*
X128814294Y-51708681D01*
X128752971Y-51742166D01*
X128726613Y-51745000D01*
X127305000Y-51745000D01*
X127305000Y-68255000D01*
X133052100Y-68255000D01*
X133119139Y-68274685D01*
X133164894Y-68327489D01*
X133176100Y-68379000D01*
X133176100Y-71941000D01*
X133156415Y-72008039D01*
X133103611Y-72053794D01*
X133052100Y-72065000D01*
X127305000Y-72065000D01*
X127305000Y-92385000D01*
X127941860Y-92385000D01*
X128008899Y-92404685D01*
X128052345Y-92452705D01*
X128054951Y-92457820D01*
X128179890Y-92629786D01*
X128238923Y-92688819D01*
X128272408Y-92750142D01*
X128267424Y-92819834D01*
X128225552Y-92875767D01*
X128160088Y-92900184D01*
X128151242Y-92900500D01*
X119027700Y-92900500D01*
X118960661Y-92880815D01*
X118914906Y-92828011D01*
X118903700Y-92776500D01*
X118903700Y-91875443D01*
X118903701Y-91875422D01*
X118903701Y-91730689D01*
X118876658Y-91594743D01*
X118876656Y-91594735D01*
X118823613Y-91466676D01*
X118746598Y-91351414D01*
X118645487Y-91250303D01*
X118645456Y-91250274D01*
X118265027Y-90869845D01*
X118231542Y-90808522D01*
X118231107Y-90806438D01*
X118220124Y-90751218D01*
X118155830Y-90596000D01*
X118155828Y-90595997D01*
X118155826Y-90595993D01*
X118062491Y-90456308D01*
X118062488Y-90456304D01*
X117943695Y-90337511D01*
X117943691Y-90337508D01*
X117804006Y-90244173D01*
X117803996Y-90244168D01*
X117648782Y-90179876D01*
X117648774Y-90179874D01*
X117484007Y-90147100D01*
X117484003Y-90147100D01*
X117315997Y-90147100D01*
X117315992Y-90147100D01*
X117151225Y-90179874D01*
X117151217Y-90179876D01*
X116996003Y-90244168D01*
X116995993Y-90244173D01*
X116856308Y-90337508D01*
X116856304Y-90337511D01*
X116737511Y-90456304D01*
X116737508Y-90456308D01*
X116644173Y-90595993D01*
X116644168Y-90596003D01*
X116579876Y-90751217D01*
X116579874Y-90751225D01*
X116558103Y-90860677D01*
X116525718Y-90922588D01*
X116465003Y-90957162D01*
X116460677Y-90958103D01*
X116351225Y-90979874D01*
X116351217Y-90979876D01*
X116196003Y-91044168D01*
X116195993Y-91044173D01*
X116056308Y-91137508D01*
X116056304Y-91137511D01*
X115937511Y-91256304D01*
X115937508Y-91256308D01*
X115844173Y-91395993D01*
X115844168Y-91396003D01*
X115779876Y-91551217D01*
X115779874Y-91551225D01*
X115747100Y-91715992D01*
X115747100Y-91884007D01*
X115779874Y-92048774D01*
X115779876Y-92048782D01*
X115840857Y-92196003D01*
X115844170Y-92204000D01*
X115875402Y-92250742D01*
X115896280Y-92317419D01*
X115896300Y-92319633D01*
X115896300Y-92776500D01*
X115876615Y-92843539D01*
X115823811Y-92889294D01*
X115772300Y-92900500D01*
X105362058Y-92900500D01*
X105295019Y-92880815D01*
X105249264Y-92828011D01*
X105239320Y-92758853D01*
X105240441Y-92752309D01*
X105274999Y-92578571D01*
X105275000Y-92578569D01*
X105275000Y-92335000D01*
X104625000Y-92335000D01*
X104625000Y-91835000D01*
X105275000Y-91835000D01*
X105275000Y-91591430D01*
X105274999Y-91591428D01*
X105238493Y-91407902D01*
X105238491Y-91407894D01*
X105166880Y-91235008D01*
X105166875Y-91234999D01*
X105062913Y-91079410D01*
X105062910Y-91079406D01*
X104930593Y-90947089D01*
X104930589Y-90947086D01*
X104775000Y-90843124D01*
X104774991Y-90843119D01*
X104602103Y-90771507D01*
X104602100Y-90771506D01*
X104575000Y-90766115D01*
X104575000Y-91518011D01*
X104565060Y-91500795D01*
X104509205Y-91444940D01*
X104440796Y-91405444D01*
X104364496Y-91385000D01*
X104285504Y-91385000D01*
X104209204Y-91405444D01*
X104140795Y-91444940D01*
X104084940Y-91500795D01*
X104075000Y-91518011D01*
X104075000Y-90766116D01*
X104074999Y-90766115D01*
X104047899Y-90771506D01*
X104047896Y-90771507D01*
X103875008Y-90843119D01*
X103874999Y-90843124D01*
X103719410Y-90947086D01*
X103719406Y-90947089D01*
X103587089Y-91079406D01*
X103587086Y-91079410D01*
X103483124Y-91234999D01*
X103483119Y-91235008D01*
X103411508Y-91407894D01*
X103411506Y-91407902D01*
X103375000Y-91591428D01*
X103375000Y-91835000D01*
X104025000Y-91835000D01*
X104025000Y-92335000D01*
X103375000Y-92335000D01*
X103375000Y-92578571D01*
X103409559Y-92752309D01*
X103403332Y-92821900D01*
X103360469Y-92877078D01*
X103294579Y-92900322D01*
X103287942Y-92900500D01*
X96712058Y-92900500D01*
X96645019Y-92880815D01*
X96599264Y-92828011D01*
X96589320Y-92758853D01*
X96590441Y-92752309D01*
X96624999Y-92578571D01*
X96625000Y-92578569D01*
X96625000Y-92335000D01*
X95975000Y-92335000D01*
X95975000Y-91835000D01*
X96625000Y-91835000D01*
X96625000Y-91591430D01*
X96624999Y-91591428D01*
X96588493Y-91407902D01*
X96588491Y-91407894D01*
X96516880Y-91235008D01*
X96516875Y-91234999D01*
X96412913Y-91079410D01*
X96412910Y-91079406D01*
X96280593Y-90947089D01*
X96280589Y-90947086D01*
X96125000Y-90843124D01*
X96124991Y-90843119D01*
X95952103Y-90771507D01*
X95952100Y-90771506D01*
X95925000Y-90766115D01*
X95925000Y-91518011D01*
X95915060Y-91500795D01*
X95859205Y-91444940D01*
X95790796Y-91405444D01*
X95714496Y-91385000D01*
X95635504Y-91385000D01*
X95559204Y-91405444D01*
X95490795Y-91444940D01*
X95434940Y-91500795D01*
X95425000Y-91518011D01*
X95425000Y-90766116D01*
X95424999Y-90766115D01*
X95397899Y-90771506D01*
X95397896Y-90771507D01*
X95225008Y-90843119D01*
X95224999Y-90843124D01*
X95069410Y-90947086D01*
X95069406Y-90947089D01*
X94937089Y-91079406D01*
X94937086Y-91079410D01*
X94833124Y-91234999D01*
X94833119Y-91235008D01*
X94761508Y-91407894D01*
X94761506Y-91407902D01*
X94725000Y-91591428D01*
X94725000Y-91835000D01*
X95375000Y-91835000D01*
X95375000Y-92335000D01*
X94725000Y-92335000D01*
X94725000Y-92578571D01*
X94759559Y-92752309D01*
X94753332Y-92821900D01*
X94710469Y-92877078D01*
X94644579Y-92900322D01*
X94637942Y-92900500D01*
X93560931Y-92900500D01*
X93493892Y-92880815D01*
X93448137Y-92828011D01*
X93438193Y-92758853D01*
X93439313Y-92752309D01*
X93444733Y-92725060D01*
X93452900Y-92684003D01*
X93452900Y-92515997D01*
X93420124Y-92351218D01*
X93355830Y-92196000D01*
X93355828Y-92195997D01*
X93355826Y-92195993D01*
X93262491Y-92056308D01*
X93262488Y-92056304D01*
X93143695Y-91937511D01*
X93143691Y-91937508D01*
X93004006Y-91844173D01*
X93003996Y-91844168D01*
X92848782Y-91779876D01*
X92848774Y-91779874D01*
X92684007Y-91747100D01*
X92684003Y-91747100D01*
X92515997Y-91747100D01*
X92515992Y-91747100D01*
X92351225Y-91779874D01*
X92351217Y-91779876D01*
X92196003Y-91844168D01*
X92195993Y-91844173D01*
X92168891Y-91862283D01*
X92102213Y-91883161D01*
X92034833Y-91864676D01*
X92031109Y-91862283D01*
X92004006Y-91844173D01*
X92003996Y-91844168D01*
X91848782Y-91779876D01*
X91848774Y-91779874D01*
X91684007Y-91747100D01*
X91684003Y-91747100D01*
X91515997Y-91747100D01*
X91515992Y-91747100D01*
X91351225Y-91779874D01*
X91351217Y-91779876D01*
X91196003Y-91844168D01*
X91195993Y-91844173D01*
X91168891Y-91862283D01*
X91102213Y-91883161D01*
X91034833Y-91864676D01*
X91031109Y-91862283D01*
X91004006Y-91844173D01*
X91003996Y-91844168D01*
X90848782Y-91779876D01*
X90848774Y-91779874D01*
X90684007Y-91747100D01*
X90684003Y-91747100D01*
X90515997Y-91747100D01*
X90515992Y-91747100D01*
X90351225Y-91779874D01*
X90351217Y-91779876D01*
X90196003Y-91844168D01*
X90195993Y-91844173D01*
X90056308Y-91937508D01*
X90056304Y-91937511D01*
X89937511Y-92056304D01*
X89937508Y-92056308D01*
X89844173Y-92195993D01*
X89844168Y-92196003D01*
X89779876Y-92351217D01*
X89779874Y-92351225D01*
X89747100Y-92515992D01*
X89747100Y-92515996D01*
X89747100Y-92515997D01*
X89747100Y-92684003D01*
X89755267Y-92725060D01*
X89760687Y-92752309D01*
X89754459Y-92821901D01*
X89711595Y-92877078D01*
X89645705Y-92900322D01*
X89639069Y-92900500D01*
X85519000Y-92900500D01*
X85451961Y-92880815D01*
X85406206Y-92828011D01*
X85395000Y-92776500D01*
X85395000Y-87305000D01*
X76505000Y-87305000D01*
X76505000Y-92776500D01*
X76485315Y-92843539D01*
X76432511Y-92889294D01*
X76381000Y-92900500D01*
X72819000Y-92900500D01*
X72751961Y-92880815D01*
X72706206Y-92828011D01*
X72695000Y-92776500D01*
X72695000Y-85356085D01*
X76648466Y-85356085D01*
X76648466Y-85356086D01*
X76664267Y-85367566D01*
X76664275Y-85367571D01*
X76825552Y-85449747D01*
X76825555Y-85449748D01*
X76997706Y-85505682D01*
X77176494Y-85534000D01*
X77357506Y-85534000D01*
X77536293Y-85505682D01*
X77708444Y-85449748D01*
X77708452Y-85449745D01*
X77784360Y-85411067D01*
X93097100Y-85411067D01*
X93097100Y-85588932D01*
X93131795Y-85763358D01*
X93131797Y-85763364D01*
X93131798Y-85763366D01*
X93133801Y-85768202D01*
X93199857Y-85927679D01*
X93199858Y-85927681D01*
X93298671Y-86075564D01*
X93298674Y-86075568D01*
X93424431Y-86201325D01*
X93424435Y-86201328D01*
X93572316Y-86300140D01*
X93572317Y-86300140D01*
X93572318Y-86300141D01*
X93572320Y-86300142D01*
X93681861Y-86345514D01*
X93736634Y-86368202D01*
X93736636Y-86368202D01*
X93736641Y-86368204D01*
X93911067Y-86402899D01*
X93911070Y-86402900D01*
X93911072Y-86402900D01*
X94000040Y-86402900D01*
X94067079Y-86422585D01*
X94087721Y-86439219D01*
X94268200Y-86619698D01*
X94380302Y-86731800D01*
X94517598Y-86811067D01*
X94670732Y-86852100D01*
X94829268Y-86852100D01*
X95231776Y-86852100D01*
X95298815Y-86871785D01*
X95344570Y-86924589D01*
X95354514Y-86993747D01*
X95325489Y-87057303D01*
X95279229Y-87090661D01*
X95225008Y-87113119D01*
X95224999Y-87113124D01*
X95069410Y-87217086D01*
X95069406Y-87217089D01*
X94937089Y-87349406D01*
X94937086Y-87349410D01*
X94833124Y-87504999D01*
X94833119Y-87505008D01*
X94761508Y-87677894D01*
X94761506Y-87677902D01*
X94725000Y-87861428D01*
X94725000Y-88455000D01*
X95375000Y-88455000D01*
X95375000Y-88955000D01*
X94725000Y-88955000D01*
X94725000Y-89548571D01*
X94761506Y-89732097D01*
X94761508Y-89732105D01*
X94833119Y-89904991D01*
X94833124Y-89905000D01*
X94937086Y-90060589D01*
X94937089Y-90060593D01*
X95069406Y-90192910D01*
X95069410Y-90192913D01*
X95224999Y-90296875D01*
X95225012Y-90296882D01*
X95397889Y-90368489D01*
X95397896Y-90368491D01*
X95425000Y-90373882D01*
X95425000Y-89621988D01*
X95434940Y-89639205D01*
X95490795Y-89695060D01*
X95559204Y-89734556D01*
X95635504Y-89755000D01*
X95714496Y-89755000D01*
X95790796Y-89734556D01*
X95859205Y-89695060D01*
X95915060Y-89639205D01*
X95925000Y-89621988D01*
X95925000Y-90373881D01*
X95952103Y-90368491D01*
X95952110Y-90368489D01*
X96124987Y-90296882D01*
X96125000Y-90296875D01*
X96280589Y-90192913D01*
X96280593Y-90192910D01*
X96412910Y-90060593D01*
X96412917Y-90060584D01*
X96416578Y-90055107D01*
X96470191Y-90010303D01*
X96519678Y-90000000D01*
X97347140Y-90000000D01*
X97414179Y-90019685D01*
X97434821Y-90036319D01*
X97630302Y-90231800D01*
X97630303Y-90231801D01*
X97630305Y-90231802D01*
X97698950Y-90271434D01*
X97767599Y-90311068D01*
X97920732Y-90352100D01*
X97920735Y-90352100D01*
X102079266Y-90352100D01*
X102079268Y-90352100D01*
X102232402Y-90311067D01*
X102369698Y-90231800D01*
X102481800Y-90119698D01*
X102565179Y-90036319D01*
X102626502Y-90002834D01*
X102652860Y-90000000D01*
X103480322Y-90000000D01*
X103547361Y-90019685D01*
X103583422Y-90055107D01*
X103587082Y-90060584D01*
X103587089Y-90060593D01*
X103719406Y-90192910D01*
X103719410Y-90192913D01*
X103874999Y-90296875D01*
X103875012Y-90296882D01*
X104047889Y-90368489D01*
X104047896Y-90368491D01*
X104075000Y-90373882D01*
X104075000Y-89621988D01*
X104084940Y-89639205D01*
X104140795Y-89695060D01*
X104209204Y-89734556D01*
X104285504Y-89755000D01*
X104364496Y-89755000D01*
X104440796Y-89734556D01*
X104509205Y-89695060D01*
X104565060Y-89639205D01*
X104575000Y-89621988D01*
X104575000Y-90373881D01*
X104602103Y-90368491D01*
X104602110Y-90368489D01*
X104774987Y-90296882D01*
X104775000Y-90296875D01*
X104930589Y-90192913D01*
X104930593Y-90192910D01*
X105062910Y-90060593D01*
X105062913Y-90060589D01*
X105166875Y-89905000D01*
X105166880Y-89904991D01*
X105238491Y-89732105D01*
X105238493Y-89732097D01*
X105274999Y-89548571D01*
X105275000Y-89548569D01*
X105275000Y-88955000D01*
X104625000Y-88955000D01*
X104625000Y-88455000D01*
X105275000Y-88455000D01*
X105275000Y-87910013D01*
X107775000Y-87910013D01*
X107775000Y-88960000D01*
X108816759Y-88960000D01*
X108803822Y-88991233D01*
X108775000Y-89136131D01*
X108775000Y-89283869D01*
X108803822Y-89428767D01*
X108816759Y-89460000D01*
X107775001Y-89460000D01*
X107775001Y-90509986D01*
X107785494Y-90612697D01*
X107840641Y-90779119D01*
X107840643Y-90779124D01*
X107932684Y-90928345D01*
X108056654Y-91052315D01*
X108205875Y-91144356D01*
X108205880Y-91144358D01*
X108372302Y-91199505D01*
X108372309Y-91199506D01*
X108475019Y-91209999D01*
X109274999Y-91209999D01*
X109275000Y-91209998D01*
X109275000Y-89918240D01*
X109306233Y-89931178D01*
X109451131Y-89960000D01*
X109598869Y-89960000D01*
X109743767Y-89931178D01*
X109775000Y-89918240D01*
X109775000Y-91209999D01*
X110574972Y-91209999D01*
X110574986Y-91209998D01*
X110677697Y-91199505D01*
X110844119Y-91144358D01*
X110844124Y-91144356D01*
X110993345Y-91052315D01*
X111117315Y-90928345D01*
X111209356Y-90779124D01*
X111209358Y-90779119D01*
X111264505Y-90612697D01*
X111264506Y-90612690D01*
X111274999Y-90509986D01*
X111275000Y-90509973D01*
X111275000Y-89460000D01*
X110233241Y-89460000D01*
X110246178Y-89428767D01*
X110275000Y-89283869D01*
X110275000Y-89136131D01*
X110246178Y-88991233D01*
X110233241Y-88960000D01*
X111274999Y-88960000D01*
X111274999Y-87910024D01*
X111274998Y-87910016D01*
X111274995Y-87909983D01*
X111584500Y-87909983D01*
X111584500Y-90510001D01*
X111584501Y-90510018D01*
X111595000Y-90612796D01*
X111595001Y-90612799D01*
X111645806Y-90766115D01*
X111650186Y-90779334D01*
X111742288Y-90928656D01*
X111866344Y-91052712D01*
X112015666Y-91144814D01*
X112182203Y-91199999D01*
X112284991Y-91210500D01*
X114385008Y-91210499D01*
X114487797Y-91199999D01*
X114654334Y-91144814D01*
X114803656Y-91052712D01*
X114927712Y-90928656D01*
X115019814Y-90779334D01*
X115074999Y-90612797D01*
X115085500Y-90510009D01*
X115085499Y-87909992D01*
X115074999Y-87807203D01*
X115019814Y-87640666D01*
X114927712Y-87491344D01*
X114803656Y-87367288D01*
X114710888Y-87310069D01*
X114654336Y-87275187D01*
X114654331Y-87275185D01*
X114652862Y-87274698D01*
X114487797Y-87220001D01*
X114487795Y-87220000D01*
X114385010Y-87209500D01*
X112284998Y-87209500D01*
X112284981Y-87209501D01*
X112182203Y-87220000D01*
X112182200Y-87220001D01*
X112015668Y-87275185D01*
X112015663Y-87275187D01*
X111866342Y-87367289D01*
X111742289Y-87491342D01*
X111650187Y-87640663D01*
X111650185Y-87640668D01*
X111637850Y-87677894D01*
X111595001Y-87807203D01*
X111595001Y-87807204D01*
X111595000Y-87807204D01*
X111584500Y-87909983D01*
X111274995Y-87909983D01*
X111264505Y-87807302D01*
X111209358Y-87640880D01*
X111209356Y-87640875D01*
X111117315Y-87491654D01*
X110993345Y-87367684D01*
X110844124Y-87275643D01*
X110844119Y-87275641D01*
X110677697Y-87220494D01*
X110677690Y-87220493D01*
X110574986Y-87210000D01*
X109775000Y-87210000D01*
X109775000Y-88501759D01*
X109743767Y-88488822D01*
X109598869Y-88460000D01*
X109451131Y-88460000D01*
X109306233Y-88488822D01*
X109275000Y-88501759D01*
X109275000Y-87210000D01*
X108475028Y-87210000D01*
X108475012Y-87210001D01*
X108372302Y-87220494D01*
X108205880Y-87275641D01*
X108205875Y-87275643D01*
X108056654Y-87367684D01*
X107932684Y-87491654D01*
X107840643Y-87640875D01*
X107840641Y-87640880D01*
X107785494Y-87807302D01*
X107785493Y-87807309D01*
X107775000Y-87910013D01*
X105275000Y-87910013D01*
X105275000Y-87861430D01*
X105274999Y-87861428D01*
X105238493Y-87677902D01*
X105238491Y-87677894D01*
X105166880Y-87505008D01*
X105166875Y-87504999D01*
X105062913Y-87349410D01*
X105062910Y-87349406D01*
X104930593Y-87217089D01*
X104930589Y-87217086D01*
X104775000Y-87113124D01*
X104774991Y-87113119D01*
X104602103Y-87041507D01*
X104602100Y-87041506D01*
X104575000Y-87036115D01*
X104575000Y-87788011D01*
X104565060Y-87770795D01*
X104509205Y-87714940D01*
X104440796Y-87675444D01*
X104364496Y-87655000D01*
X104285504Y-87655000D01*
X104209204Y-87675444D01*
X104140795Y-87714940D01*
X104084940Y-87770795D01*
X104075000Y-87788011D01*
X104075000Y-87036116D01*
X104074999Y-87036115D01*
X104047899Y-87041506D01*
X104047892Y-87041508D01*
X103921452Y-87093881D01*
X103851982Y-87101350D01*
X103789503Y-87070074D01*
X103753852Y-87009985D01*
X103750000Y-86979320D01*
X103750000Y-86750000D01*
X99449572Y-86750000D01*
X99382533Y-86730315D01*
X99336778Y-86677511D01*
X99329855Y-86653407D01*
X99329203Y-86653582D01*
X99320124Y-86619698D01*
X99286067Y-86492598D01*
X99206800Y-86355302D01*
X99094698Y-86243200D01*
X98619698Y-85768200D01*
X98619695Y-85768198D01*
X98611324Y-85763365D01*
X98611323Y-85763365D01*
X98482404Y-85688934D01*
X98482403Y-85688933D01*
X98431357Y-85675255D01*
X98329268Y-85647900D01*
X98329266Y-85647900D01*
X95050760Y-85647900D01*
X94983721Y-85628215D01*
X94963079Y-85611581D01*
X94939219Y-85587721D01*
X94905734Y-85526398D01*
X94902900Y-85500040D01*
X94902900Y-85411069D01*
X94902899Y-85411067D01*
X94868204Y-85236641D01*
X94868201Y-85236632D01*
X94800142Y-85072320D01*
X94800141Y-85072318D01*
X94742952Y-84986730D01*
X94701328Y-84924435D01*
X94701325Y-84924431D01*
X94575568Y-84798674D01*
X94575564Y-84798671D01*
X94427681Y-84699858D01*
X94427679Y-84699857D01*
X94263367Y-84631798D01*
X94263358Y-84631795D01*
X94088931Y-84597100D01*
X94088928Y-84597100D01*
X93911072Y-84597100D01*
X93911069Y-84597100D01*
X93736641Y-84631795D01*
X93736632Y-84631798D01*
X93572320Y-84699857D01*
X93572318Y-84699858D01*
X93424435Y-84798671D01*
X93424431Y-84798674D01*
X93298674Y-84924431D01*
X93298671Y-84924435D01*
X93199858Y-85072318D01*
X93199857Y-85072320D01*
X93131798Y-85236632D01*
X93131795Y-85236641D01*
X93097100Y-85411067D01*
X77784360Y-85411067D01*
X77869730Y-85367568D01*
X77885532Y-85356085D01*
X77885532Y-85356084D01*
X77267001Y-84737553D01*
X77267000Y-84737553D01*
X76648466Y-85356085D01*
X72695000Y-85356085D01*
X72695000Y-84293493D01*
X76117000Y-84293493D01*
X76117000Y-84474506D01*
X76145317Y-84653293D01*
X76201251Y-84825444D01*
X76201252Y-84825447D01*
X76283431Y-84986730D01*
X76294913Y-85002532D01*
X76294913Y-85002533D01*
X76913446Y-84384001D01*
X76913446Y-84383999D01*
X76873951Y-84344504D01*
X76967000Y-84344504D01*
X76967000Y-84423496D01*
X76987444Y-84499796D01*
X77026940Y-84568205D01*
X77082795Y-84624060D01*
X77151204Y-84663556D01*
X77227504Y-84684000D01*
X77306496Y-84684000D01*
X77382796Y-84663556D01*
X77451205Y-84624060D01*
X77507060Y-84568205D01*
X77546556Y-84499796D01*
X77567000Y-84423496D01*
X77567000Y-84383999D01*
X77620553Y-84383999D01*
X77620553Y-84384001D01*
X78239085Y-85002533D01*
X78239085Y-85002532D01*
X78250568Y-84986730D01*
X78332745Y-84825452D01*
X78332748Y-84825444D01*
X78388682Y-84653293D01*
X78417000Y-84474506D01*
X78417000Y-84293493D01*
X78388682Y-84114706D01*
X78332748Y-83942555D01*
X78332747Y-83942552D01*
X78250571Y-83781275D01*
X78250566Y-83781267D01*
X78239085Y-83765466D01*
X77620553Y-84383999D01*
X77567000Y-84383999D01*
X77567000Y-84344504D01*
X77546556Y-84268204D01*
X77507060Y-84199795D01*
X77451205Y-84143940D01*
X77382796Y-84104444D01*
X77306496Y-84084000D01*
X77227504Y-84084000D01*
X77151204Y-84104444D01*
X77082795Y-84143940D01*
X77026940Y-84199795D01*
X76987444Y-84268204D01*
X76967000Y-84344504D01*
X76873951Y-84344504D01*
X76294912Y-83765466D01*
X76283432Y-83781269D01*
X76201254Y-83942547D01*
X76201251Y-83942555D01*
X76145317Y-84114706D01*
X76117000Y-84293493D01*
X72695000Y-84293493D01*
X72695000Y-83411912D01*
X76648466Y-83411912D01*
X76648466Y-83411913D01*
X77267000Y-84030446D01*
X77267001Y-84030446D01*
X77885533Y-83411913D01*
X77869730Y-83400431D01*
X77708447Y-83318252D01*
X77708444Y-83318251D01*
X77536293Y-83262317D01*
X77357506Y-83234000D01*
X77176494Y-83234000D01*
X76997706Y-83262317D01*
X76825555Y-83318251D01*
X76825547Y-83318254D01*
X76664269Y-83400432D01*
X76648466Y-83411912D01*
X72695000Y-83411912D01*
X72695000Y-82715992D01*
X102147100Y-82715992D01*
X102147100Y-82884007D01*
X102179874Y-83048774D01*
X102179876Y-83048782D01*
X102244168Y-83203996D01*
X102244173Y-83204006D01*
X102337508Y-83343691D01*
X102337511Y-83343695D01*
X102456304Y-83462488D01*
X102456308Y-83462491D01*
X102595993Y-83555826D01*
X102595997Y-83555828D01*
X102596000Y-83555830D01*
X102751218Y-83620124D01*
X102915992Y-83652899D01*
X102915996Y-83652900D01*
X102915997Y-83652900D01*
X103084004Y-83652900D01*
X103084005Y-83652899D01*
X103248782Y-83620124D01*
X103404000Y-83555830D01*
X103531109Y-83470899D01*
X103597787Y-83450021D01*
X103665167Y-83468506D01*
X103668891Y-83470899D01*
X103795993Y-83555826D01*
X103795997Y-83555828D01*
X103796000Y-83555830D01*
X103951218Y-83620124D01*
X104115992Y-83652899D01*
X104115996Y-83652900D01*
X104115997Y-83652900D01*
X104284004Y-83652900D01*
X104284005Y-83652899D01*
X104448782Y-83620124D01*
X104604000Y-83555830D01*
X104743692Y-83462491D01*
X104862491Y-83343692D01*
X104955830Y-83204000D01*
X105020124Y-83048782D01*
X105052900Y-82884003D01*
X105052900Y-82715997D01*
X105020124Y-82551218D01*
X104955830Y-82396000D01*
X104955828Y-82395997D01*
X104955826Y-82395993D01*
X104862491Y-82256308D01*
X104862488Y-82256304D01*
X104743695Y-82137511D01*
X104743691Y-82137508D01*
X104604006Y-82044173D01*
X104603996Y-82044168D01*
X104448782Y-81979876D01*
X104448774Y-81979874D01*
X104284007Y-81947100D01*
X104284003Y-81947100D01*
X104115997Y-81947100D01*
X104115992Y-81947100D01*
X103951225Y-81979874D01*
X103951217Y-81979876D01*
X103796003Y-82044168D01*
X103795995Y-82044172D01*
X103668890Y-82129101D01*
X103602213Y-82149978D01*
X103534833Y-82131493D01*
X103531110Y-82129101D01*
X103404004Y-82044172D01*
X103403996Y-82044168D01*
X103248782Y-81979876D01*
X103248774Y-81979874D01*
X103084007Y-81947100D01*
X103084003Y-81947100D01*
X102915997Y-81947100D01*
X102915992Y-81947100D01*
X102751225Y-81979874D01*
X102751217Y-81979876D01*
X102596003Y-82044168D01*
X102595993Y-82044173D01*
X102456308Y-82137508D01*
X102456304Y-82137511D01*
X102337511Y-82256304D01*
X102337508Y-82256308D01*
X102244173Y-82395993D01*
X102244168Y-82396003D01*
X102179876Y-82551217D01*
X102179874Y-82551225D01*
X102147100Y-82715992D01*
X72695000Y-82715992D01*
X72695000Y-81927085D01*
X88459466Y-81927085D01*
X88459466Y-81927086D01*
X88475267Y-81938566D01*
X88475275Y-81938571D01*
X88636552Y-82020747D01*
X88636555Y-82020748D01*
X88808706Y-82076682D01*
X88987494Y-82105000D01*
X89168506Y-82105000D01*
X89347293Y-82076682D01*
X89519444Y-82020748D01*
X89519452Y-82020745D01*
X89680730Y-81938568D01*
X89696532Y-81927085D01*
X89696533Y-81927085D01*
X89078001Y-81308553D01*
X89078000Y-81308553D01*
X88459466Y-81927085D01*
X72695000Y-81927085D01*
X72695000Y-80864493D01*
X87928000Y-80864493D01*
X87928000Y-81045506D01*
X87956317Y-81224293D01*
X88012251Y-81396444D01*
X88012252Y-81396447D01*
X88094431Y-81557730D01*
X88105913Y-81573532D01*
X88105913Y-81573533D01*
X88724446Y-80955001D01*
X88724446Y-80954999D01*
X88105912Y-80336466D01*
X88094432Y-80352269D01*
X88012254Y-80513547D01*
X88012251Y-80513555D01*
X87956317Y-80685706D01*
X87928000Y-80864493D01*
X72695000Y-80864493D01*
X72695000Y-79982912D01*
X88459466Y-79982912D01*
X88459466Y-79982913D01*
X89136699Y-80660145D01*
X89117496Y-80655000D01*
X89038504Y-80655000D01*
X88962204Y-80675444D01*
X88893795Y-80714940D01*
X88837940Y-80770795D01*
X88798444Y-80839204D01*
X88778000Y-80915504D01*
X88778000Y-80994496D01*
X88798444Y-81070796D01*
X88837940Y-81139205D01*
X88893795Y-81195060D01*
X88962204Y-81234556D01*
X89038504Y-81255000D01*
X89117496Y-81255000D01*
X89193796Y-81234556D01*
X89262205Y-81195060D01*
X89318060Y-81139205D01*
X89357556Y-81070796D01*
X89378000Y-80994496D01*
X89378000Y-80915504D01*
X89372854Y-80896300D01*
X90050085Y-81573532D01*
X90061568Y-81557730D01*
X90143745Y-81396452D01*
X90143749Y-81396441D01*
X90169888Y-81315992D01*
X105147100Y-81315992D01*
X105147100Y-81484007D01*
X105179874Y-81648774D01*
X105179876Y-81648782D01*
X105244168Y-81803996D01*
X105244173Y-81804006D01*
X105337508Y-81943691D01*
X105337511Y-81943695D01*
X105456304Y-82062488D01*
X105456308Y-82062491D01*
X105595993Y-82155826D01*
X105595997Y-82155828D01*
X105596000Y-82155830D01*
X105751218Y-82220124D01*
X105915992Y-82252899D01*
X105915996Y-82252900D01*
X105915997Y-82252900D01*
X106084004Y-82252900D01*
X106084005Y-82252899D01*
X106248782Y-82220124D01*
X106404000Y-82155830D01*
X106543692Y-82062491D01*
X106662491Y-81943692D01*
X106755830Y-81804000D01*
X106820124Y-81648782D01*
X106852900Y-81484003D01*
X106852900Y-81315997D01*
X106820124Y-81151218D01*
X106755830Y-80996000D01*
X106755828Y-80995997D01*
X106755826Y-80995993D01*
X106662491Y-80856308D01*
X106662488Y-80856304D01*
X106543695Y-80737511D01*
X106543691Y-80737508D01*
X106404006Y-80644173D01*
X106403996Y-80644168D01*
X106248782Y-80579876D01*
X106248774Y-80579874D01*
X106084007Y-80547100D01*
X106084003Y-80547100D01*
X105915997Y-80547100D01*
X105915992Y-80547100D01*
X105751225Y-80579874D01*
X105751217Y-80579876D01*
X105596003Y-80644168D01*
X105595993Y-80644173D01*
X105456308Y-80737508D01*
X105456304Y-80737511D01*
X105337511Y-80856304D01*
X105337508Y-80856308D01*
X105244173Y-80995993D01*
X105244168Y-80996003D01*
X105179876Y-81151217D01*
X105179874Y-81151225D01*
X105147100Y-81315992D01*
X90169888Y-81315992D01*
X90184316Y-81271588D01*
X90184316Y-81271586D01*
X90199683Y-81224290D01*
X90228000Y-81045506D01*
X90228000Y-80864493D01*
X90199682Y-80685704D01*
X90192512Y-80663635D01*
X90190517Y-80593794D01*
X90226598Y-80533961D01*
X90289300Y-80503134D01*
X90357894Y-80510756D01*
X90501218Y-80570124D01*
X90665992Y-80602899D01*
X90665996Y-80602900D01*
X90665997Y-80602900D01*
X90834004Y-80602900D01*
X90834005Y-80602899D01*
X90998782Y-80570124D01*
X91154000Y-80505830D01*
X91293692Y-80412491D01*
X91412491Y-80293692D01*
X91505830Y-80154000D01*
X91570124Y-79998782D01*
X91602900Y-79834003D01*
X91602900Y-79665997D01*
X91570124Y-79501218D01*
X91505830Y-79346000D01*
X91505828Y-79345997D01*
X91505826Y-79345993D01*
X91412491Y-79206308D01*
X91412488Y-79206304D01*
X91293695Y-79087511D01*
X91293691Y-79087508D01*
X91154006Y-78994173D01*
X91153996Y-78994168D01*
X91008292Y-78933815D01*
X90953889Y-78889974D01*
X90941184Y-78866707D01*
X90880831Y-78721002D01*
X90880826Y-78720993D01*
X90787491Y-78581308D01*
X90787488Y-78581304D01*
X90668695Y-78462511D01*
X90668691Y-78462508D01*
X90529006Y-78369173D01*
X90528996Y-78369168D01*
X90373782Y-78304876D01*
X90373774Y-78304874D01*
X90209007Y-78272100D01*
X90209003Y-78272100D01*
X90040997Y-78272100D01*
X90040992Y-78272100D01*
X89876225Y-78304874D01*
X89876217Y-78304876D01*
X89721003Y-78369168D01*
X89720993Y-78369173D01*
X89581308Y-78462508D01*
X89581304Y-78462511D01*
X89462511Y-78581304D01*
X89462508Y-78581308D01*
X89369173Y-78720993D01*
X89369168Y-78721003D01*
X89304876Y-78876217D01*
X89304874Y-78876225D01*
X89272100Y-79040992D01*
X89272100Y-79209007D01*
X89304874Y-79373774D01*
X89304876Y-79373782D01*
X89369168Y-79528996D01*
X89369176Y-79529011D01*
X89441665Y-79637499D01*
X89462543Y-79704176D01*
X89444058Y-79771556D01*
X89392079Y-79818246D01*
X89323109Y-79829422D01*
X89319165Y-79828862D01*
X89168506Y-79805000D01*
X88987494Y-79805000D01*
X88808706Y-79833317D01*
X88636555Y-79889251D01*
X88636547Y-79889254D01*
X88475269Y-79971432D01*
X88459466Y-79982912D01*
X72695000Y-79982912D01*
X72695000Y-77145000D01*
X67223500Y-77145000D01*
X67156461Y-77125315D01*
X67110706Y-77072511D01*
X67099500Y-77021000D01*
X67099500Y-76415992D01*
X97647100Y-76415992D01*
X97647100Y-76584007D01*
X97679874Y-76748774D01*
X97679876Y-76748782D01*
X97744168Y-76903996D01*
X97744173Y-76904006D01*
X97837508Y-77043691D01*
X97837511Y-77043695D01*
X97956304Y-77162488D01*
X97956308Y-77162491D01*
X98095993Y-77255826D01*
X98095997Y-77255828D01*
X98096000Y-77255830D01*
X98251218Y-77320124D01*
X98369720Y-77343695D01*
X98415992Y-77352899D01*
X98415996Y-77352900D01*
X98415997Y-77352900D01*
X98584004Y-77352900D01*
X98584005Y-77352899D01*
X98748782Y-77320124D01*
X98904000Y-77255830D01*
X99043692Y-77162491D01*
X99162491Y-77043692D01*
X99255830Y-76904000D01*
X99320124Y-76748782D01*
X99326646Y-76715992D01*
X105547100Y-76715992D01*
X105547100Y-76884007D01*
X105579874Y-77048774D01*
X105579876Y-77048782D01*
X105644168Y-77203996D01*
X105644173Y-77204006D01*
X105737508Y-77343691D01*
X105737511Y-77343695D01*
X105856304Y-77462488D01*
X105856308Y-77462491D01*
X105995993Y-77555826D01*
X105995997Y-77555828D01*
X105996000Y-77555830D01*
X106151218Y-77620124D01*
X106315992Y-77652899D01*
X106315996Y-77652900D01*
X106315997Y-77652900D01*
X106484004Y-77652900D01*
X106484005Y-77652899D01*
X106648782Y-77620124D01*
X106804000Y-77555830D01*
X106943692Y-77462491D01*
X107062491Y-77343692D01*
X107155830Y-77204000D01*
X107220124Y-77048782D01*
X107252900Y-76884003D01*
X107252900Y-76715997D01*
X107220124Y-76551218D01*
X107155830Y-76396000D01*
X107155828Y-76395997D01*
X107155826Y-76395993D01*
X107062491Y-76256308D01*
X107062488Y-76256304D01*
X106943695Y-76137511D01*
X106943691Y-76137508D01*
X106804006Y-76044173D01*
X106803996Y-76044168D01*
X106648782Y-75979876D01*
X106648774Y-75979874D01*
X106484007Y-75947100D01*
X106484003Y-75947100D01*
X106315997Y-75947100D01*
X106315992Y-75947100D01*
X106151225Y-75979874D01*
X106151217Y-75979876D01*
X105996003Y-76044168D01*
X105995993Y-76044173D01*
X105856308Y-76137508D01*
X105856304Y-76137511D01*
X105737511Y-76256304D01*
X105737508Y-76256308D01*
X105644173Y-76395993D01*
X105644168Y-76396003D01*
X105579876Y-76551217D01*
X105579874Y-76551225D01*
X105547100Y-76715992D01*
X99326646Y-76715992D01*
X99352900Y-76584003D01*
X99352900Y-76541236D01*
X99354121Y-76532601D01*
X99365101Y-76508407D01*
X99372585Y-76482921D01*
X99381933Y-76471319D01*
X99382997Y-76468977D01*
X99384716Y-76467866D01*
X99389219Y-76462279D01*
X99455505Y-76395993D01*
X99731800Y-76119698D01*
X99770043Y-76053458D01*
X99811067Y-75982402D01*
X99852100Y-75829268D01*
X99852100Y-70915992D01*
X116147100Y-70915992D01*
X116147100Y-71084007D01*
X116179874Y-71248774D01*
X116179876Y-71248782D01*
X116244168Y-71403996D01*
X116244173Y-71404006D01*
X116337508Y-71543691D01*
X116337511Y-71543695D01*
X116456304Y-71662488D01*
X116456308Y-71662491D01*
X116595993Y-71755826D01*
X116595999Y-71755829D01*
X116596000Y-71755830D01*
X116721354Y-71807753D01*
X116775756Y-71851594D01*
X116797821Y-71917888D01*
X116797900Y-71922314D01*
X116797900Y-72279268D01*
X116835222Y-72418553D01*
X116838933Y-72432402D01*
X116854927Y-72460104D01*
X116854928Y-72460106D01*
X116918199Y-72569696D01*
X116918201Y-72569699D01*
X118310781Y-73962279D01*
X118344266Y-74023602D01*
X118347100Y-74049960D01*
X118347100Y-74084007D01*
X118379874Y-74248774D01*
X118379876Y-74248782D01*
X118444168Y-74403996D01*
X118444173Y-74404006D01*
X118537508Y-74543691D01*
X118537511Y-74543695D01*
X118656304Y-74662488D01*
X118656308Y-74662491D01*
X118795993Y-74755826D01*
X118795997Y-74755828D01*
X118796000Y-74755830D01*
X118951218Y-74820124D01*
X119115992Y-74852899D01*
X119115996Y-74852900D01*
X119115997Y-74852900D01*
X119284004Y-74852900D01*
X119284005Y-74852899D01*
X119448782Y-74820124D01*
X119604000Y-74755830D01*
X119743692Y-74662491D01*
X119862491Y-74543692D01*
X119955830Y-74404000D01*
X120020124Y-74248782D01*
X120052900Y-74084003D01*
X120052900Y-73915997D01*
X120020124Y-73751218D01*
X119955830Y-73596000D01*
X119955828Y-73595997D01*
X119955826Y-73595993D01*
X119862491Y-73456308D01*
X119862488Y-73456304D01*
X119743695Y-73337511D01*
X119743691Y-73337508D01*
X119604006Y-73244173D01*
X119603996Y-73244168D01*
X119448782Y-73179876D01*
X119448774Y-73179874D01*
X119284007Y-73147100D01*
X119284003Y-73147100D01*
X119249960Y-73147100D01*
X119182921Y-73127415D01*
X119162279Y-73110781D01*
X118038419Y-71986921D01*
X118004934Y-71925598D01*
X118002100Y-71899240D01*
X118002100Y-71320733D01*
X118002100Y-71320732D01*
X117961067Y-71167598D01*
X117881800Y-71030302D01*
X117881799Y-71030300D01*
X117878523Y-71026031D01*
X117853330Y-70960862D01*
X117852900Y-70950546D01*
X117852900Y-70915996D01*
X117852899Y-70915992D01*
X117820125Y-70751225D01*
X117820124Y-70751218D01*
X117755830Y-70596000D01*
X117755828Y-70595997D01*
X117755826Y-70595993D01*
X117662491Y-70456308D01*
X117662488Y-70456304D01*
X117543695Y-70337511D01*
X117543691Y-70337508D01*
X117404006Y-70244173D01*
X117403996Y-70244168D01*
X117248782Y-70179876D01*
X117248774Y-70179874D01*
X117084007Y-70147100D01*
X117084003Y-70147100D01*
X116915997Y-70147100D01*
X116915992Y-70147100D01*
X116751225Y-70179874D01*
X116751217Y-70179876D01*
X116596003Y-70244168D01*
X116595993Y-70244173D01*
X116456308Y-70337508D01*
X116456304Y-70337511D01*
X116337511Y-70456304D01*
X116337508Y-70456308D01*
X116244173Y-70595993D01*
X116244168Y-70596003D01*
X116179876Y-70751217D01*
X116179874Y-70751225D01*
X116147100Y-70915992D01*
X99852100Y-70915992D01*
X99852100Y-66856787D01*
X99871785Y-66789748D01*
X99907206Y-66753687D01*
X100043692Y-66662491D01*
X100162491Y-66543692D01*
X100255830Y-66404000D01*
X100320124Y-66248782D01*
X100352900Y-66084003D01*
X100352900Y-65915997D01*
X100320124Y-65751218D01*
X100255830Y-65596000D01*
X100255828Y-65595997D01*
X100255826Y-65595993D01*
X100162491Y-65456308D01*
X100162488Y-65456304D01*
X100043695Y-65337511D01*
X100043691Y-65337508D01*
X99904006Y-65244173D01*
X99903996Y-65244168D01*
X99748782Y-65179876D01*
X99748774Y-65179874D01*
X99584007Y-65147100D01*
X99584003Y-65147100D01*
X99415997Y-65147100D01*
X99415992Y-65147100D01*
X99251225Y-65179874D01*
X99251217Y-65179876D01*
X99096003Y-65244168D01*
X99095993Y-65244173D01*
X98956308Y-65337508D01*
X98956304Y-65337511D01*
X98837511Y-65456304D01*
X98837507Y-65456309D01*
X98824333Y-65476025D01*
X98770719Y-65520828D01*
X98701394Y-65529534D01*
X98697046Y-65528749D01*
X98680006Y-65525360D01*
X98680003Y-65525360D01*
X98511997Y-65525360D01*
X98511992Y-65525360D01*
X98347225Y-65558134D01*
X98347217Y-65558136D01*
X98192003Y-65622428D01*
X98191993Y-65622433D01*
X98052308Y-65715768D01*
X98052304Y-65715771D01*
X97933511Y-65834564D01*
X97933508Y-65834568D01*
X97840173Y-65974253D01*
X97840168Y-65974263D01*
X97775876Y-66129477D01*
X97775874Y-66129485D01*
X97743100Y-66294252D01*
X97743100Y-66462267D01*
X97775874Y-66627034D01*
X97775876Y-66627042D01*
X97840168Y-66782256D01*
X97840173Y-66782266D01*
X97933508Y-66921951D01*
X97933511Y-66921955D01*
X98052304Y-67040748D01*
X98052308Y-67040751D01*
X98191993Y-67134086D01*
X98191997Y-67134088D01*
X98192000Y-67134090D01*
X98347218Y-67198384D01*
X98511992Y-67231159D01*
X98511996Y-67231160D01*
X98511997Y-67231160D01*
X98523900Y-67231160D01*
X98590939Y-67250845D01*
X98636694Y-67303649D01*
X98647900Y-67355160D01*
X98647900Y-75449240D01*
X98628215Y-75516279D01*
X98611581Y-75536921D01*
X98537721Y-75610781D01*
X98476398Y-75644266D01*
X98450040Y-75647100D01*
X98415992Y-75647100D01*
X98251225Y-75679874D01*
X98251217Y-75679876D01*
X98096003Y-75744168D01*
X98095993Y-75744173D01*
X97956308Y-75837508D01*
X97956304Y-75837511D01*
X97837511Y-75956304D01*
X97837508Y-75956308D01*
X97744173Y-76095993D01*
X97744168Y-76096003D01*
X97679876Y-76251217D01*
X97679874Y-76251225D01*
X97647100Y-76415992D01*
X67099500Y-76415992D01*
X67099500Y-74213500D01*
X67119185Y-74146461D01*
X67171989Y-74100706D01*
X67223500Y-74089500D01*
X70074554Y-74089500D01*
X70074574Y-74089501D01*
X70080688Y-74089501D01*
X70229314Y-74089501D01*
X70350894Y-74065315D01*
X70350894Y-74065316D01*
X70350900Y-74065313D01*
X70375080Y-74060505D01*
X70410942Y-74045649D01*
X70431944Y-74036951D01*
X70431947Y-74036949D01*
X70431955Y-74036946D01*
X70512389Y-74003630D01*
X70635966Y-73921059D01*
X71185704Y-73371318D01*
X71247027Y-73337834D01*
X71273385Y-73335000D01*
X72695000Y-73335000D01*
X72695000Y-73037085D01*
X88840466Y-73037085D01*
X88840466Y-73037086D01*
X88856267Y-73048566D01*
X88856275Y-73048571D01*
X89017552Y-73130747D01*
X89017555Y-73130748D01*
X89189706Y-73186682D01*
X89368494Y-73215000D01*
X89549506Y-73215000D01*
X89728293Y-73186682D01*
X89900444Y-73130748D01*
X89900452Y-73130745D01*
X90061730Y-73048568D01*
X90077532Y-73037085D01*
X90077533Y-73037085D01*
X89459001Y-72418553D01*
X89459000Y-72418553D01*
X88840466Y-73037085D01*
X72695000Y-73037085D01*
X72695000Y-71974493D01*
X88309000Y-71974493D01*
X88309000Y-72155506D01*
X88337317Y-72334293D01*
X88393251Y-72506444D01*
X88393252Y-72506447D01*
X88475431Y-72667730D01*
X88486913Y-72683532D01*
X88486913Y-72683533D01*
X89105446Y-72065001D01*
X89105446Y-72064999D01*
X89065951Y-72025504D01*
X89159000Y-72025504D01*
X89159000Y-72104496D01*
X89179444Y-72180796D01*
X89218940Y-72249205D01*
X89274795Y-72305060D01*
X89343204Y-72344556D01*
X89419504Y-72365000D01*
X89498496Y-72365000D01*
X89574796Y-72344556D01*
X89643205Y-72305060D01*
X89699060Y-72249205D01*
X89738556Y-72180796D01*
X89759000Y-72104496D01*
X89759000Y-72064999D01*
X89812553Y-72064999D01*
X89812553Y-72065001D01*
X90431085Y-72683533D01*
X90431085Y-72683532D01*
X90442568Y-72667730D01*
X90524745Y-72506452D01*
X90524748Y-72506444D01*
X90580682Y-72334293D01*
X90609000Y-72155506D01*
X90609000Y-71974493D01*
X90580682Y-71795706D01*
X90524748Y-71623555D01*
X90524747Y-71623552D01*
X90442571Y-71462275D01*
X90442566Y-71462267D01*
X90431085Y-71446466D01*
X89812553Y-72064999D01*
X89759000Y-72064999D01*
X89759000Y-72025504D01*
X89738556Y-71949204D01*
X89699060Y-71880795D01*
X89643205Y-71824940D01*
X89574796Y-71785444D01*
X89498496Y-71765000D01*
X89419504Y-71765000D01*
X89343204Y-71785444D01*
X89274795Y-71824940D01*
X89218940Y-71880795D01*
X89179444Y-71949204D01*
X89159000Y-72025504D01*
X89065951Y-72025504D01*
X88486912Y-71446466D01*
X88475432Y-71462269D01*
X88393254Y-71623547D01*
X88393251Y-71623555D01*
X88337317Y-71795706D01*
X88309000Y-71974493D01*
X72695000Y-71974493D01*
X72695000Y-71092912D01*
X88840466Y-71092912D01*
X88840466Y-71092913D01*
X89459000Y-71711446D01*
X89459001Y-71711446D01*
X90077533Y-71092913D01*
X90061730Y-71081431D01*
X89900447Y-70999252D01*
X89900444Y-70999251D01*
X89728293Y-70943317D01*
X89549506Y-70915000D01*
X89368494Y-70915000D01*
X89189706Y-70943317D01*
X89017555Y-70999251D01*
X89017547Y-70999254D01*
X88856269Y-71081432D01*
X88840466Y-71092912D01*
X72695000Y-71092912D01*
X72695000Y-61905000D01*
X67223500Y-61905000D01*
X67156461Y-61885315D01*
X67110706Y-61832511D01*
X67099500Y-61781000D01*
X67099500Y-61513500D01*
X67119185Y-61446461D01*
X67171989Y-61400706D01*
X67223500Y-61389500D01*
X70074554Y-61389500D01*
X70074574Y-61389501D01*
X70080688Y-61389501D01*
X70229314Y-61389501D01*
X70350894Y-61365315D01*
X70350894Y-61365316D01*
X70350900Y-61365313D01*
X70375080Y-61360505D01*
X70445121Y-61331493D01*
X70512389Y-61303630D01*
X70635966Y-61221059D01*
X70671033Y-61185992D01*
X74255100Y-61185992D01*
X74255100Y-61354007D01*
X74287874Y-61518774D01*
X74287876Y-61518782D01*
X74352168Y-61673996D01*
X74352173Y-61674006D01*
X74445508Y-61813691D01*
X74445511Y-61813695D01*
X74564304Y-61932488D01*
X74564308Y-61932491D01*
X74703993Y-62025826D01*
X74703997Y-62025828D01*
X74704000Y-62025830D01*
X74859218Y-62090124D01*
X75023997Y-62122900D01*
X75024002Y-62122900D01*
X75029053Y-62123398D01*
X75093840Y-62149558D01*
X75134200Y-62206592D01*
X75140900Y-62246801D01*
X75140900Y-62601554D01*
X75121215Y-62668593D01*
X75104581Y-62689235D01*
X75058011Y-62735804D01*
X75058008Y-62735808D01*
X74964673Y-62875493D01*
X74964668Y-62875503D01*
X74900376Y-63030717D01*
X74900374Y-63030725D01*
X74867600Y-63195492D01*
X74867600Y-63363507D01*
X74900374Y-63528274D01*
X74900376Y-63528282D01*
X74964668Y-63683496D01*
X74964673Y-63683506D01*
X75058008Y-63823191D01*
X75058011Y-63823195D01*
X75176804Y-63941988D01*
X75176808Y-63941991D01*
X75316493Y-64035326D01*
X75316497Y-64035328D01*
X75316500Y-64035330D01*
X75471718Y-64099624D01*
X75593171Y-64123782D01*
X75636492Y-64132399D01*
X75636496Y-64132400D01*
X75636497Y-64132400D01*
X75804504Y-64132400D01*
X75804505Y-64132399D01*
X75969282Y-64099624D01*
X76124500Y-64035330D01*
X76264192Y-63941991D01*
X76264196Y-63941986D01*
X76268902Y-63938126D01*
X76270379Y-63939925D01*
X76322600Y-63911388D01*
X76392293Y-63916348D01*
X76436683Y-63944866D01*
X76456305Y-63964489D01*
X76456308Y-63964491D01*
X76595993Y-64057826D01*
X76595997Y-64057828D01*
X76596000Y-64057830D01*
X76751218Y-64122124D01*
X76915992Y-64154899D01*
X76915996Y-64154900D01*
X76915997Y-64154900D01*
X77084004Y-64154900D01*
X77084005Y-64154899D01*
X77248782Y-64122124D01*
X77404000Y-64057830D01*
X77543692Y-63964491D01*
X77662491Y-63845692D01*
X77755830Y-63706000D01*
X77820124Y-63550782D01*
X77852900Y-63386003D01*
X77852900Y-63217997D01*
X77820124Y-63053218D01*
X77755830Y-62898000D01*
X77755828Y-62897997D01*
X77755826Y-62897993D01*
X77662491Y-62758308D01*
X77662488Y-62758304D01*
X77543695Y-62639511D01*
X77543691Y-62639508D01*
X77404006Y-62546173D01*
X77403996Y-62546168D01*
X77248782Y-62481876D01*
X77248774Y-62481874D01*
X77084007Y-62449100D01*
X77084003Y-62449100D01*
X77049960Y-62449100D01*
X76982921Y-62429415D01*
X76962279Y-62412781D01*
X76889419Y-62339921D01*
X76855934Y-62278598D01*
X76853100Y-62252240D01*
X76853100Y-62126540D01*
X76872785Y-62059501D01*
X76912315Y-62023032D01*
X76911435Y-62021715D01*
X77045403Y-61932200D01*
X77056192Y-61924991D01*
X77174991Y-61806192D01*
X77194814Y-61776524D01*
X98577027Y-61776524D01*
X98577027Y-61776525D01*
X98600007Y-61791879D01*
X98772894Y-61863491D01*
X98772902Y-61863493D01*
X98956428Y-61899999D01*
X98956431Y-61900000D01*
X99143569Y-61900000D01*
X99143571Y-61899999D01*
X99327097Y-61863493D01*
X99327105Y-61863491D01*
X99499992Y-61791879D01*
X99499998Y-61791876D01*
X99522971Y-61776525D01*
X99522972Y-61776524D01*
X100477027Y-61776524D01*
X100477027Y-61776525D01*
X100500007Y-61791879D01*
X100672894Y-61863491D01*
X100672902Y-61863493D01*
X100856428Y-61899999D01*
X100856431Y-61900000D01*
X101043569Y-61900000D01*
X101043571Y-61899999D01*
X101227097Y-61863493D01*
X101227105Y-61863491D01*
X101399992Y-61791879D01*
X101399998Y-61791876D01*
X101422971Y-61776525D01*
X101422972Y-61776524D01*
X100950001Y-61303553D01*
X100950000Y-61303553D01*
X100477027Y-61776524D01*
X99522972Y-61776524D01*
X99050001Y-61303553D01*
X99050000Y-61303553D01*
X98577027Y-61776524D01*
X77194814Y-61776524D01*
X77268330Y-61666500D01*
X77332624Y-61511282D01*
X77365400Y-61346503D01*
X77365400Y-61178497D01*
X77332624Y-61013718D01*
X77268330Y-60858500D01*
X77268328Y-60858497D01*
X77268326Y-60858493D01*
X77174991Y-60718808D01*
X77174988Y-60718804D01*
X77056195Y-60600011D01*
X77056191Y-60600008D01*
X76982834Y-60550992D01*
X93432100Y-60550992D01*
X93432100Y-60719007D01*
X93464874Y-60883774D01*
X93464876Y-60883782D01*
X93529168Y-61038996D01*
X93529173Y-61039006D01*
X93622508Y-61178691D01*
X93622511Y-61178695D01*
X93741304Y-61297488D01*
X93741308Y-61297491D01*
X93880993Y-61390826D01*
X93880997Y-61390828D01*
X93881000Y-61390830D01*
X94036218Y-61455124D01*
X94200992Y-61487899D01*
X94200996Y-61487900D01*
X94200997Y-61487900D01*
X94369004Y-61487900D01*
X94369005Y-61487899D01*
X94533782Y-61455124D01*
X94689000Y-61390830D01*
X94828692Y-61297491D01*
X94947491Y-61178692D01*
X95040830Y-61039000D01*
X95105124Y-60883782D01*
X95110565Y-60856428D01*
X98100000Y-60856428D01*
X98100000Y-61043571D01*
X98136506Y-61227097D01*
X98136508Y-61227105D01*
X98208119Y-61399990D01*
X98208126Y-61400002D01*
X98223473Y-61422971D01*
X98223474Y-61422972D01*
X98696446Y-60950001D01*
X98696446Y-60949999D01*
X98666610Y-60920163D01*
X98900000Y-60920163D01*
X98900000Y-60979837D01*
X98922836Y-61034968D01*
X98965032Y-61077164D01*
X99020163Y-61100000D01*
X99079837Y-61100000D01*
X99134968Y-61077164D01*
X99177164Y-61034968D01*
X99200000Y-60979837D01*
X99200000Y-60949999D01*
X99403553Y-60949999D01*
X99403553Y-60950001D01*
X99876524Y-61422972D01*
X99876525Y-61422971D01*
X99895264Y-61394929D01*
X99896850Y-61395989D01*
X99939602Y-61352466D01*
X100007740Y-61337004D01*
X100073420Y-61360834D01*
X100103614Y-61395680D01*
X100104737Y-61394930D01*
X100123473Y-61422971D01*
X100123474Y-61422972D01*
X100596446Y-60950001D01*
X100596446Y-60949999D01*
X100566610Y-60920163D01*
X100800000Y-60920163D01*
X100800000Y-60979837D01*
X100822836Y-61034968D01*
X100865032Y-61077164D01*
X100920163Y-61100000D01*
X100979837Y-61100000D01*
X101034968Y-61077164D01*
X101077164Y-61034968D01*
X101100000Y-60979837D01*
X101100000Y-60949999D01*
X101303553Y-60949999D01*
X101303553Y-60950001D01*
X101776524Y-61422972D01*
X101776525Y-61422971D01*
X101791876Y-61399998D01*
X101791879Y-61399992D01*
X101863491Y-61227105D01*
X101863493Y-61227097D01*
X101899999Y-61043571D01*
X101900000Y-61043569D01*
X101900000Y-60856430D01*
X101899999Y-60856428D01*
X101863493Y-60672902D01*
X101863491Y-60672894D01*
X101791879Y-60500007D01*
X101776524Y-60477027D01*
X101303553Y-60949999D01*
X101100000Y-60949999D01*
X101100000Y-60920163D01*
X101077164Y-60865032D01*
X101034968Y-60822836D01*
X100979837Y-60800000D01*
X100920163Y-60800000D01*
X100865032Y-60822836D01*
X100822836Y-60865032D01*
X100800000Y-60920163D01*
X100566610Y-60920163D01*
X100123474Y-60477027D01*
X100123473Y-60477027D01*
X100104737Y-60505071D01*
X100103150Y-60504011D01*
X100060394Y-60547537D01*
X99992256Y-60562996D01*
X99926577Y-60539163D01*
X99896386Y-60504320D01*
X99895263Y-60505071D01*
X99876524Y-60477027D01*
X99403553Y-60949999D01*
X99200000Y-60949999D01*
X99200000Y-60920163D01*
X99177164Y-60865032D01*
X99134968Y-60822836D01*
X99079837Y-60800000D01*
X99020163Y-60800000D01*
X98965032Y-60822836D01*
X98922836Y-60865032D01*
X98900000Y-60920163D01*
X98666610Y-60920163D01*
X98223474Y-60477027D01*
X98223473Y-60477027D01*
X98208121Y-60500005D01*
X98136508Y-60672894D01*
X98136506Y-60672902D01*
X98100000Y-60856428D01*
X95110565Y-60856428D01*
X95137900Y-60719003D01*
X95137900Y-60550997D01*
X95105124Y-60386218D01*
X95040830Y-60231000D01*
X95040825Y-60230993D01*
X94947491Y-60091308D01*
X94947488Y-60091304D01*
X94828695Y-59972511D01*
X94828691Y-59972508D01*
X94689006Y-59879173D01*
X94688996Y-59879168D01*
X94682613Y-59876524D01*
X98577027Y-59876524D01*
X98577027Y-59876525D01*
X98605071Y-59895263D01*
X98604010Y-59896849D01*
X98647535Y-59939604D01*
X98662996Y-60007742D01*
X98639164Y-60073422D01*
X98604320Y-60103614D01*
X98605071Y-60104737D01*
X98577027Y-60123473D01*
X98577027Y-60123474D01*
X99050000Y-60596446D01*
X99050001Y-60596446D01*
X99522972Y-60123474D01*
X99522971Y-60123473D01*
X99494930Y-60104737D01*
X99495989Y-60103150D01*
X99452465Y-60060396D01*
X99437004Y-59992258D01*
X99460836Y-59926578D01*
X99495679Y-59896387D01*
X99494929Y-59895264D01*
X99522971Y-59876525D01*
X99522972Y-59876524D01*
X100477027Y-59876524D01*
X100477027Y-59876525D01*
X100505071Y-59895263D01*
X100504010Y-59896849D01*
X100547535Y-59939604D01*
X100562996Y-60007742D01*
X100539164Y-60073422D01*
X100504320Y-60103614D01*
X100505071Y-60104737D01*
X100477027Y-60123473D01*
X100477027Y-60123474D01*
X100950000Y-60596446D01*
X100950001Y-60596446D01*
X101422972Y-60123474D01*
X101422971Y-60123473D01*
X101394930Y-60104737D01*
X101395989Y-60103150D01*
X101352465Y-60060396D01*
X101337004Y-59992258D01*
X101360836Y-59926578D01*
X101395679Y-59896387D01*
X101394929Y-59895264D01*
X101422971Y-59876525D01*
X101422972Y-59876524D01*
X100950001Y-59403553D01*
X100950000Y-59403553D01*
X100477027Y-59876524D01*
X99522972Y-59876524D01*
X99050001Y-59403553D01*
X99050000Y-59403553D01*
X98577027Y-59876524D01*
X94682613Y-59876524D01*
X94533782Y-59814876D01*
X94533774Y-59814874D01*
X94369007Y-59782100D01*
X94369003Y-59782100D01*
X94200997Y-59782100D01*
X94200992Y-59782100D01*
X94036225Y-59814874D01*
X94036217Y-59814876D01*
X93881003Y-59879168D01*
X93880993Y-59879173D01*
X93741308Y-59972508D01*
X93741304Y-59972511D01*
X93622511Y-60091304D01*
X93622508Y-60091308D01*
X93529173Y-60230993D01*
X93529168Y-60231003D01*
X93464876Y-60386217D01*
X93464874Y-60386225D01*
X93432100Y-60550992D01*
X76982834Y-60550992D01*
X76916506Y-60506673D01*
X76916496Y-60506668D01*
X76761282Y-60442376D01*
X76761274Y-60442374D01*
X76596507Y-60409600D01*
X76596503Y-60409600D01*
X76428497Y-60409600D01*
X76428492Y-60409600D01*
X76263725Y-60442374D01*
X76263717Y-60442376D01*
X76108503Y-60506668D01*
X76108493Y-60506673D01*
X75968808Y-60600008D01*
X75968804Y-60600011D01*
X75894181Y-60674635D01*
X75832858Y-60708120D01*
X75763166Y-60703136D01*
X75718819Y-60674635D01*
X75651695Y-60607511D01*
X75651691Y-60607508D01*
X75512006Y-60514173D01*
X75511996Y-60514168D01*
X75356782Y-60449876D01*
X75356774Y-60449874D01*
X75192007Y-60417100D01*
X75192003Y-60417100D01*
X75023997Y-60417100D01*
X75023992Y-60417100D01*
X74859225Y-60449874D01*
X74859217Y-60449876D01*
X74704003Y-60514168D01*
X74703993Y-60514173D01*
X74564308Y-60607508D01*
X74564304Y-60607511D01*
X74445511Y-60726304D01*
X74445508Y-60726308D01*
X74352173Y-60865993D01*
X74352168Y-60866003D01*
X74287876Y-61021217D01*
X74287874Y-61021225D01*
X74255100Y-61185992D01*
X70671033Y-61185992D01*
X71185704Y-60671318D01*
X71247027Y-60637834D01*
X71273385Y-60635000D01*
X72695000Y-60635000D01*
X72695000Y-58956428D01*
X98100000Y-58956428D01*
X98100000Y-59143571D01*
X98136506Y-59327097D01*
X98136508Y-59327105D01*
X98208119Y-59499990D01*
X98208126Y-59500002D01*
X98223473Y-59522971D01*
X98223474Y-59522972D01*
X98696446Y-59050001D01*
X98696446Y-59049999D01*
X98666610Y-59020163D01*
X98900000Y-59020163D01*
X98900000Y-59079837D01*
X98922836Y-59134968D01*
X98965032Y-59177164D01*
X99020163Y-59200000D01*
X99079837Y-59200000D01*
X99134968Y-59177164D01*
X99177164Y-59134968D01*
X99200000Y-59079837D01*
X99200000Y-59049999D01*
X99403553Y-59049999D01*
X99403553Y-59050001D01*
X99876524Y-59522972D01*
X99876525Y-59522971D01*
X99895264Y-59494929D01*
X99896850Y-59495989D01*
X99939602Y-59452466D01*
X100007740Y-59437004D01*
X100073420Y-59460834D01*
X100103614Y-59495680D01*
X100104737Y-59494930D01*
X100123473Y-59522971D01*
X100123474Y-59522972D01*
X100596446Y-59050001D01*
X100596446Y-59049999D01*
X100566610Y-59020163D01*
X100800000Y-59020163D01*
X100800000Y-59079837D01*
X100822836Y-59134968D01*
X100865032Y-59177164D01*
X100920163Y-59200000D01*
X100979837Y-59200000D01*
X101034968Y-59177164D01*
X101077164Y-59134968D01*
X101100000Y-59079837D01*
X101100000Y-59049999D01*
X101303553Y-59049999D01*
X101303553Y-59050001D01*
X101776524Y-59522972D01*
X101776525Y-59522971D01*
X101791876Y-59499998D01*
X101791879Y-59499992D01*
X101863491Y-59327105D01*
X101863493Y-59327097D01*
X101899999Y-59143571D01*
X101900000Y-59143569D01*
X101900000Y-58956430D01*
X101899999Y-58956428D01*
X101863493Y-58772902D01*
X101863491Y-58772894D01*
X101791879Y-58600007D01*
X101776524Y-58577027D01*
X101303553Y-59049999D01*
X101100000Y-59049999D01*
X101100000Y-59020163D01*
X101077164Y-58965032D01*
X101034968Y-58922836D01*
X100979837Y-58900000D01*
X100920163Y-58900000D01*
X100865032Y-58922836D01*
X100822836Y-58965032D01*
X100800000Y-59020163D01*
X100566610Y-59020163D01*
X100123474Y-58577027D01*
X100123473Y-58577027D01*
X100104737Y-58605071D01*
X100103150Y-58604011D01*
X100060394Y-58647537D01*
X99992256Y-58662996D01*
X99926577Y-58639163D01*
X99896386Y-58604320D01*
X99895263Y-58605071D01*
X99876524Y-58577027D01*
X99403553Y-59049999D01*
X99200000Y-59049999D01*
X99200000Y-59020163D01*
X99177164Y-58965032D01*
X99134968Y-58922836D01*
X99079837Y-58900000D01*
X99020163Y-58900000D01*
X98965032Y-58922836D01*
X98922836Y-58965032D01*
X98900000Y-59020163D01*
X98666610Y-59020163D01*
X98223474Y-58577027D01*
X98223473Y-58577027D01*
X98208121Y-58600005D01*
X98136508Y-58772894D01*
X98136506Y-58772902D01*
X98100000Y-58956428D01*
X72695000Y-58956428D01*
X72695000Y-58223473D01*
X98577027Y-58223473D01*
X98577027Y-58223474D01*
X99050000Y-58696446D01*
X99050001Y-58696446D01*
X99522972Y-58223474D01*
X99522971Y-58223473D01*
X100477027Y-58223473D01*
X100477027Y-58223474D01*
X100950000Y-58696446D01*
X100950001Y-58696446D01*
X101422972Y-58223474D01*
X101422971Y-58223473D01*
X101400002Y-58208126D01*
X101399990Y-58208119D01*
X101227105Y-58136508D01*
X101227097Y-58136506D01*
X101043570Y-58100000D01*
X100856430Y-58100000D01*
X100672902Y-58136506D01*
X100672894Y-58136508D01*
X100500005Y-58208121D01*
X100477027Y-58223473D01*
X99522971Y-58223473D01*
X99500002Y-58208126D01*
X99499990Y-58208119D01*
X99327105Y-58136508D01*
X99327097Y-58136506D01*
X99143570Y-58100000D01*
X98956430Y-58100000D01*
X98772902Y-58136506D01*
X98772894Y-58136508D01*
X98600005Y-58208121D01*
X98577027Y-58223473D01*
X72695000Y-58223473D01*
X72695000Y-53665992D01*
X94647100Y-53665992D01*
X94647100Y-53834007D01*
X94679874Y-53998774D01*
X94679876Y-53998782D01*
X94744168Y-54153996D01*
X94744173Y-54154006D01*
X94837508Y-54293691D01*
X94837511Y-54293695D01*
X94956304Y-54412488D01*
X94956308Y-54412491D01*
X95095993Y-54505826D01*
X95095997Y-54505828D01*
X95096000Y-54505830D01*
X95251218Y-54570124D01*
X95415992Y-54602899D01*
X95415996Y-54602900D01*
X95415997Y-54602900D01*
X95584004Y-54602900D01*
X95584005Y-54602899D01*
X95748782Y-54570124D01*
X95904000Y-54505830D01*
X96043692Y-54412491D01*
X96149580Y-54306602D01*
X96210901Y-54273119D01*
X96280593Y-54278103D01*
X96306151Y-54291183D01*
X96309905Y-54293691D01*
X96370821Y-54334394D01*
X96370824Y-54334395D01*
X96376196Y-54337267D01*
X96375558Y-54338460D01*
X96407525Y-54359814D01*
X97047209Y-54999498D01*
X97159311Y-55111600D01*
X97296607Y-55190867D01*
X97449741Y-55231900D01*
X97449743Y-55231900D01*
X99699466Y-55231900D01*
X99699468Y-55231900D01*
X99852602Y-55190867D01*
X99989898Y-55111600D01*
X100102000Y-54999498D01*
X100776054Y-54325442D01*
X100837375Y-54291959D01*
X100907066Y-54296943D01*
X100963000Y-54338814D01*
X100978294Y-54365673D01*
X100994166Y-54403993D01*
X100994173Y-54404006D01*
X101087508Y-54543691D01*
X101087510Y-54543694D01*
X101104245Y-54560428D01*
X101137732Y-54621750D01*
X101132749Y-54691442D01*
X101090879Y-54747376D01*
X101085457Y-54751213D01*
X100956308Y-54837508D01*
X100956304Y-54837511D01*
X100837511Y-54956304D01*
X100837508Y-54956308D01*
X100744173Y-55095993D01*
X100744168Y-55096003D01*
X100679876Y-55251217D01*
X100679874Y-55251225D01*
X100647100Y-55415992D01*
X100647100Y-55584007D01*
X100679874Y-55748774D01*
X100679876Y-55748782D01*
X100744168Y-55903996D01*
X100744173Y-55904006D01*
X100837508Y-56043691D01*
X100837511Y-56043695D01*
X100956304Y-56162488D01*
X100956308Y-56162491D01*
X101095993Y-56255826D01*
X101095997Y-56255828D01*
X101096000Y-56255830D01*
X101251218Y-56320124D01*
X101415992Y-56352899D01*
X101415996Y-56352900D01*
X101415997Y-56352900D01*
X101584004Y-56352900D01*
X101584005Y-56352899D01*
X101748782Y-56320124D01*
X101904000Y-56255830D01*
X102043692Y-56162491D01*
X102074933Y-56131250D01*
X102136255Y-56097764D01*
X102205947Y-56102748D01*
X102234233Y-56119022D01*
X102234646Y-56118405D01*
X102370814Y-56209390D01*
X102370827Y-56209397D01*
X102516498Y-56269735D01*
X102516503Y-56269737D01*
X102584963Y-56283354D01*
X102669024Y-56300076D01*
X102730935Y-56332461D01*
X102732514Y-56334012D01*
X103185821Y-56787319D01*
X103219306Y-56848642D01*
X103214322Y-56918334D01*
X103185821Y-56962681D01*
X102893201Y-57255300D01*
X102893199Y-57255303D01*
X102813933Y-57392597D01*
X102813933Y-57392598D01*
X102782398Y-57510288D01*
X102772900Y-57545733D01*
X102772900Y-64704268D01*
X102797001Y-64794214D01*
X102795338Y-64864063D01*
X102756175Y-64921926D01*
X102724680Y-64940868D01*
X102595999Y-64994170D01*
X102595993Y-64994173D01*
X102456308Y-65087508D01*
X102456304Y-65087511D01*
X102337511Y-65206304D01*
X102337508Y-65206308D01*
X102244173Y-65345993D01*
X102244168Y-65346003D01*
X102179876Y-65501217D01*
X102179874Y-65501225D01*
X102147100Y-65665992D01*
X102147100Y-65834007D01*
X102179874Y-65998774D01*
X102179876Y-65998782D01*
X102244168Y-66153996D01*
X102244173Y-66154006D01*
X102337508Y-66293691D01*
X102337511Y-66293695D01*
X102456304Y-66412488D01*
X102456308Y-66412491D01*
X102595993Y-66505826D01*
X102595997Y-66505828D01*
X102596000Y-66505830D01*
X102751218Y-66570124D01*
X102896722Y-66599066D01*
X102915992Y-66602899D01*
X102915996Y-66602900D01*
X102915997Y-66602900D01*
X103084004Y-66602900D01*
X103084005Y-66602899D01*
X103248782Y-66570124D01*
X103404000Y-66505830D01*
X103439964Y-66481800D01*
X103454209Y-66472282D01*
X103520887Y-66451404D01*
X103588267Y-66469889D01*
X103634957Y-66521867D01*
X103647100Y-66575384D01*
X103647100Y-66584007D01*
X103679874Y-66748774D01*
X103679876Y-66748782D01*
X103744168Y-66903996D01*
X103744173Y-66904006D01*
X103837508Y-67043691D01*
X103837511Y-67043695D01*
X103956304Y-67162488D01*
X103956308Y-67162491D01*
X104095993Y-67255826D01*
X104095997Y-67255828D01*
X104096000Y-67255830D01*
X104251218Y-67320124D01*
X104415992Y-67352899D01*
X104415996Y-67352900D01*
X104415997Y-67352900D01*
X104584004Y-67352900D01*
X104584005Y-67352899D01*
X104748782Y-67320124D01*
X104904000Y-67255830D01*
X105043692Y-67162491D01*
X105162491Y-67043692D01*
X105255830Y-66904000D01*
X105320124Y-66748782D01*
X105326645Y-66715997D01*
X105329448Y-66701909D01*
X105361833Y-66639998D01*
X105422548Y-66605424D01*
X105451065Y-66602100D01*
X106579266Y-66602100D01*
X106579268Y-66602100D01*
X106732402Y-66561067D01*
X106772763Y-66537764D01*
X106840662Y-66521292D01*
X106906689Y-66544144D01*
X106949879Y-66599066D01*
X106956521Y-66668619D01*
X106956380Y-66669342D01*
X106947100Y-66715998D01*
X106947100Y-66884007D01*
X106979874Y-67048774D01*
X106979876Y-67048782D01*
X107044170Y-67204001D01*
X107047040Y-67209370D01*
X107045253Y-67210325D01*
X107063349Y-67268162D01*
X107044849Y-67335538D01*
X107027054Y-67358024D01*
X107022864Y-67362214D01*
X107022858Y-67362221D01*
X106913371Y-67526079D01*
X106913364Y-67526092D01*
X106837950Y-67708160D01*
X106837947Y-67708170D01*
X106799500Y-67901456D01*
X106799500Y-67901459D01*
X106799500Y-68098541D01*
X106799500Y-68098543D01*
X106799499Y-68098543D01*
X106837947Y-68291829D01*
X106837950Y-68291839D01*
X106913364Y-68473907D01*
X106913371Y-68473920D01*
X107022860Y-68637781D01*
X107022863Y-68637785D01*
X107162214Y-68777136D01*
X107162218Y-68777139D01*
X107326079Y-68886628D01*
X107326092Y-68886635D01*
X107508160Y-68962049D01*
X107508165Y-68962051D01*
X107508169Y-68962051D01*
X107508170Y-68962052D01*
X107701456Y-69000500D01*
X107701459Y-69000500D01*
X107898543Y-69000500D01*
X108028582Y-68974632D01*
X108091835Y-68962051D01*
X108273914Y-68886632D01*
X108437782Y-68777139D01*
X108577139Y-68637782D01*
X108686632Y-68473914D01*
X108762051Y-68291835D01*
X108800500Y-68098541D01*
X108800500Y-67901459D01*
X108800500Y-67901456D01*
X108762052Y-67708170D01*
X108762051Y-67708169D01*
X108762051Y-67708165D01*
X108762049Y-67708160D01*
X108686635Y-67526092D01*
X108686628Y-67526079D01*
X108577139Y-67362218D01*
X108577136Y-67362214D01*
X108572950Y-67358028D01*
X108539465Y-67296705D01*
X108544449Y-67227013D01*
X108553368Y-67209594D01*
X108552957Y-67209375D01*
X108555824Y-67204008D01*
X108555830Y-67204000D01*
X108620124Y-67048782D01*
X108652900Y-66884003D01*
X108652900Y-66715997D01*
X108620124Y-66551218D01*
X108555830Y-66396000D01*
X108555828Y-66395997D01*
X108555826Y-66395993D01*
X108462491Y-66256308D01*
X108462488Y-66256304D01*
X108343695Y-66137511D01*
X108343691Y-66137508D01*
X108204006Y-66044173D01*
X108203996Y-66044168D01*
X108048782Y-65979876D01*
X108048774Y-65979874D01*
X107884007Y-65947100D01*
X107884003Y-65947100D01*
X107715997Y-65947100D01*
X107715235Y-65947175D01*
X107714840Y-65947100D01*
X107709905Y-65947100D01*
X107709905Y-65946163D01*
X107646589Y-65934152D01*
X107595882Y-65886084D01*
X107579212Y-65818232D01*
X107601871Y-65752139D01*
X107615401Y-65736096D01*
X109463079Y-63888419D01*
X109524402Y-63854934D01*
X109550760Y-63852100D01*
X113449240Y-63852100D01*
X113516279Y-63871785D01*
X113536921Y-63888419D01*
X113861581Y-64213079D01*
X113895066Y-64274402D01*
X113897900Y-64300760D01*
X113897900Y-64579268D01*
X113905821Y-64608829D01*
X113938933Y-64732403D01*
X113938934Y-64732404D01*
X113984350Y-64811067D01*
X114018200Y-64869698D01*
X114518200Y-65369698D01*
X114630302Y-65481800D01*
X114767598Y-65561067D01*
X114920732Y-65602100D01*
X115079268Y-65602100D01*
X116544554Y-65602100D01*
X116611593Y-65621785D01*
X116632235Y-65638419D01*
X116656304Y-65662488D01*
X116656308Y-65662491D01*
X116795993Y-65755826D01*
X116795997Y-65755828D01*
X116796000Y-65755830D01*
X116951218Y-65820124D01*
X117115992Y-65852899D01*
X117115996Y-65852900D01*
X117115997Y-65852900D01*
X117284004Y-65852900D01*
X117284005Y-65852899D01*
X117448782Y-65820124D01*
X117604000Y-65755830D01*
X117738452Y-65665992D01*
X123647100Y-65665992D01*
X123647100Y-65834007D01*
X123679874Y-65998774D01*
X123679876Y-65998782D01*
X123744168Y-66153996D01*
X123744173Y-66154006D01*
X123837507Y-66293690D01*
X123837508Y-66293691D01*
X123837509Y-66293692D01*
X123861581Y-66317764D01*
X123895066Y-66379085D01*
X123897900Y-66405445D01*
X123897900Y-73344554D01*
X123878215Y-73411593D01*
X123861581Y-73432235D01*
X123837511Y-73456304D01*
X123837508Y-73456308D01*
X123744173Y-73595993D01*
X123744168Y-73596003D01*
X123679876Y-73751217D01*
X123679874Y-73751225D01*
X123647100Y-73915992D01*
X123647100Y-74084007D01*
X123679874Y-74248774D01*
X123679876Y-74248782D01*
X123744168Y-74403996D01*
X123744173Y-74404006D01*
X123837508Y-74543691D01*
X123837511Y-74543695D01*
X123956304Y-74662488D01*
X123956308Y-74662491D01*
X124095993Y-74755826D01*
X124095997Y-74755828D01*
X124096000Y-74755830D01*
X124251218Y-74820124D01*
X124415992Y-74852899D01*
X124415996Y-74852900D01*
X124415997Y-74852900D01*
X124584004Y-74852900D01*
X124584005Y-74852899D01*
X124748782Y-74820124D01*
X124904000Y-74755830D01*
X125043692Y-74662491D01*
X125162491Y-74543692D01*
X125255830Y-74404000D01*
X125320124Y-74248782D01*
X125352900Y-74084003D01*
X125352900Y-73915997D01*
X125320124Y-73751218D01*
X125255830Y-73596000D01*
X125255828Y-73595997D01*
X125255826Y-73595993D01*
X125162491Y-73456308D01*
X125162488Y-73456304D01*
X125138419Y-73432235D01*
X125104934Y-73370912D01*
X125102100Y-73344554D01*
X125102100Y-66405445D01*
X125121785Y-66338406D01*
X125138415Y-66317767D01*
X125162491Y-66293692D01*
X125255830Y-66154000D01*
X125320124Y-65998782D01*
X125352900Y-65834003D01*
X125352900Y-65665997D01*
X125320124Y-65501218D01*
X125255830Y-65346000D01*
X125255828Y-65345997D01*
X125255826Y-65345993D01*
X125162491Y-65206308D01*
X125162488Y-65206304D01*
X125043695Y-65087511D01*
X125043691Y-65087508D01*
X124904006Y-64994173D01*
X124903996Y-64994168D01*
X124748782Y-64929876D01*
X124748774Y-64929874D01*
X124584007Y-64897100D01*
X124584003Y-64897100D01*
X124415997Y-64897100D01*
X124415992Y-64897100D01*
X124251225Y-64929874D01*
X124251217Y-64929876D01*
X124096003Y-64994168D01*
X124095993Y-64994173D01*
X123956308Y-65087508D01*
X123956304Y-65087511D01*
X123837511Y-65206304D01*
X123837508Y-65206308D01*
X123744173Y-65345993D01*
X123744168Y-65346003D01*
X123679876Y-65501217D01*
X123679874Y-65501225D01*
X123647100Y-65665992D01*
X117738452Y-65665992D01*
X117743692Y-65662491D01*
X117784398Y-65621785D01*
X117833960Y-65572224D01*
X117862488Y-65543695D01*
X117862491Y-65543692D01*
X117955830Y-65404000D01*
X118020124Y-65248782D01*
X118052900Y-65084003D01*
X118052900Y-64978561D01*
X118072585Y-64911522D01*
X118114898Y-64871175D01*
X118199208Y-64822500D01*
X118311310Y-64710398D01*
X118504636Y-64517070D01*
X118565955Y-64483588D01*
X118616505Y-64483137D01*
X118778440Y-64515347D01*
X118778444Y-64515348D01*
X118778445Y-64515348D01*
X118946452Y-64515348D01*
X118946453Y-64515347D01*
X119111230Y-64482572D01*
X119266448Y-64418278D01*
X119406140Y-64324939D01*
X119524939Y-64206140D01*
X119618278Y-64066448D01*
X119628822Y-64040992D01*
X122022100Y-64040992D01*
X122022100Y-64209007D01*
X122054874Y-64373774D01*
X122054876Y-64373782D01*
X122119168Y-64528996D01*
X122119173Y-64529006D01*
X122212508Y-64668691D01*
X122212511Y-64668695D01*
X122331304Y-64787488D01*
X122331308Y-64787491D01*
X122470993Y-64880826D01*
X122470997Y-64880828D01*
X122471000Y-64880830D01*
X122626218Y-64945124D01*
X122790992Y-64977899D01*
X122790996Y-64977900D01*
X122790997Y-64977900D01*
X122959004Y-64977900D01*
X122959005Y-64977899D01*
X123123782Y-64945124D01*
X123279000Y-64880830D01*
X123418692Y-64787491D01*
X123537491Y-64668692D01*
X123630830Y-64529000D01*
X123695124Y-64373782D01*
X123727900Y-64209003D01*
X123727900Y-64040997D01*
X123695124Y-63876218D01*
X123630830Y-63721000D01*
X123630828Y-63720997D01*
X123630826Y-63720993D01*
X123537491Y-63581308D01*
X123537488Y-63581304D01*
X123513419Y-63557235D01*
X123479934Y-63495912D01*
X123477100Y-63469554D01*
X123477100Y-61184445D01*
X123496785Y-61117406D01*
X123513420Y-61096763D01*
X123566488Y-61043695D01*
X123566491Y-61043692D01*
X123659830Y-60904000D01*
X123724124Y-60748782D01*
X123756900Y-60584003D01*
X123756900Y-60415997D01*
X123724124Y-60251218D01*
X123659830Y-60096000D01*
X123659828Y-60095997D01*
X123659826Y-60095993D01*
X123566491Y-59956308D01*
X123566488Y-59956304D01*
X123447695Y-59837511D01*
X123447691Y-59837508D01*
X123308006Y-59744173D01*
X123307996Y-59744168D01*
X123152782Y-59679876D01*
X123152774Y-59679874D01*
X122988007Y-59647100D01*
X122988003Y-59647100D01*
X122819997Y-59647100D01*
X122819992Y-59647100D01*
X122655225Y-59679874D01*
X122655217Y-59679876D01*
X122500003Y-59744168D01*
X122499993Y-59744173D01*
X122360308Y-59837508D01*
X122360304Y-59837511D01*
X122241511Y-59956304D01*
X122241508Y-59956308D01*
X122148173Y-60095993D01*
X122148168Y-60096003D01*
X122083876Y-60251217D01*
X122083874Y-60251225D01*
X122051100Y-60415992D01*
X122051100Y-60584007D01*
X122083874Y-60748774D01*
X122083876Y-60748782D01*
X122148168Y-60903996D01*
X122148173Y-60904006D01*
X122241505Y-61043687D01*
X122244752Y-61047643D01*
X122272066Y-61111953D01*
X122272900Y-61126310D01*
X122272900Y-63469554D01*
X122253215Y-63536593D01*
X122236581Y-63557235D01*
X122212511Y-63581304D01*
X122212508Y-63581308D01*
X122119173Y-63720993D01*
X122119168Y-63721003D01*
X122054876Y-63876217D01*
X122054874Y-63876225D01*
X122022100Y-64040992D01*
X119628822Y-64040992D01*
X119682572Y-63911230D01*
X119715348Y-63746451D01*
X119715348Y-63578445D01*
X119682572Y-63413666D01*
X119629322Y-63285112D01*
X119621854Y-63215644D01*
X119653129Y-63153164D01*
X119656181Y-63150001D01*
X119662491Y-63143692D01*
X119755830Y-63004000D01*
X119820124Y-62848782D01*
X119852900Y-62684003D01*
X119852900Y-62515997D01*
X119820124Y-62351218D01*
X119755830Y-62196000D01*
X119755828Y-62195997D01*
X119755826Y-62195993D01*
X119662491Y-62056308D01*
X119662488Y-62056304D01*
X119543695Y-61937511D01*
X119543691Y-61937508D01*
X119404006Y-61844173D01*
X119403996Y-61844168D01*
X119248782Y-61779876D01*
X119248774Y-61779874D01*
X119084007Y-61747100D01*
X119084003Y-61747100D01*
X118915997Y-61747100D01*
X118915992Y-61747100D01*
X118751225Y-61779874D01*
X118751217Y-61779876D01*
X118596003Y-61844168D01*
X118595993Y-61844173D01*
X118456308Y-61937508D01*
X118456304Y-61937511D01*
X118337511Y-62056304D01*
X118337508Y-62056308D01*
X118244173Y-62195993D01*
X118244168Y-62196003D01*
X118179876Y-62351217D01*
X118179874Y-62351225D01*
X118147100Y-62515992D01*
X118147100Y-62550040D01*
X118127415Y-62617079D01*
X118110781Y-62637721D01*
X117449421Y-63299081D01*
X117388098Y-63332566D01*
X117361740Y-63335400D01*
X117058470Y-63335400D01*
X116991431Y-63315715D01*
X116970789Y-63299081D01*
X114719351Y-61047643D01*
X112439909Y-58768200D01*
X112398287Y-58744170D01*
X112398287Y-58744169D01*
X112398285Y-58744169D01*
X112302615Y-58688934D01*
X112302614Y-58688933D01*
X112251568Y-58675255D01*
X112149479Y-58647900D01*
X112149477Y-58647900D01*
X106500864Y-58647900D01*
X106433825Y-58628215D01*
X106413183Y-58611581D01*
X106132601Y-58330999D01*
X106099116Y-58269676D01*
X106104100Y-58199984D01*
X106117178Y-58174430D01*
X106128153Y-58158005D01*
X106181767Y-58113202D01*
X106231253Y-58102900D01*
X106334004Y-58102900D01*
X106334005Y-58102899D01*
X106498782Y-58070124D01*
X106654000Y-58005830D01*
X106793692Y-57912491D01*
X106912491Y-57793692D01*
X107005830Y-57654000D01*
X107070124Y-57498782D01*
X107102900Y-57334003D01*
X107102900Y-57165997D01*
X107070124Y-57001218D01*
X107005830Y-56846000D01*
X107005828Y-56845997D01*
X107005826Y-56845993D01*
X106962743Y-56781515D01*
X106941865Y-56714837D01*
X106960349Y-56647457D01*
X106978164Y-56624942D01*
X106986194Y-56616912D01*
X107005093Y-56598016D01*
X107066417Y-56564533D01*
X107092771Y-56561700D01*
X109073210Y-56561700D01*
X109140249Y-56581385D01*
X109160891Y-56598019D01*
X109340663Y-56777791D01*
X109374148Y-56839114D01*
X109369164Y-56908806D01*
X109340669Y-56953147D01*
X109337512Y-56956303D01*
X109337506Y-56956311D01*
X109244173Y-57095993D01*
X109244168Y-57096003D01*
X109179876Y-57251217D01*
X109179874Y-57251225D01*
X109147100Y-57415992D01*
X109147100Y-57584007D01*
X109179874Y-57748774D01*
X109179876Y-57748782D01*
X109244168Y-57903996D01*
X109244173Y-57904006D01*
X109337508Y-58043691D01*
X109337511Y-58043695D01*
X109456304Y-58162488D01*
X109456308Y-58162491D01*
X109595993Y-58255826D01*
X109595997Y-58255828D01*
X109596000Y-58255830D01*
X109751218Y-58320124D01*
X109915992Y-58352899D01*
X109915996Y-58352900D01*
X109915997Y-58352900D01*
X110084004Y-58352900D01*
X110084005Y-58352899D01*
X110248782Y-58320124D01*
X110404000Y-58255830D01*
X110543692Y-58162491D01*
X110662491Y-58043692D01*
X110755830Y-57904000D01*
X110820124Y-57748782D01*
X110848737Y-57604934D01*
X110853357Y-57581709D01*
X110885742Y-57519798D01*
X110946457Y-57485224D01*
X110974974Y-57481900D01*
X112347251Y-57481900D01*
X112409248Y-57498512D01*
X112517598Y-57561067D01*
X112670732Y-57602100D01*
X112672629Y-57602100D01*
X112674170Y-57602552D01*
X112678791Y-57603161D01*
X112678696Y-57603881D01*
X112739668Y-57621785D01*
X112741520Y-57622998D01*
X112870814Y-57709390D01*
X112870827Y-57709397D01*
X113016498Y-57769735D01*
X113016503Y-57769737D01*
X113171153Y-57800499D01*
X113171156Y-57800500D01*
X113171158Y-57800500D01*
X113328844Y-57800500D01*
X113328845Y-57800499D01*
X113483497Y-57769737D01*
X113629179Y-57709394D01*
X113760289Y-57621789D01*
X113760291Y-57621787D01*
X113760294Y-57621785D01*
X113871786Y-57510292D01*
X113871789Y-57510289D01*
X113959394Y-57379179D01*
X114019737Y-57233497D01*
X114036422Y-57149617D01*
X114068806Y-57087706D01*
X114129522Y-57053132D01*
X114165066Y-57050748D01*
X114165066Y-57050500D01*
X114168774Y-57050500D01*
X114170191Y-57050405D01*
X114171156Y-57050500D01*
X114171158Y-57050500D01*
X114328844Y-57050500D01*
X114328845Y-57050499D01*
X114483497Y-57019737D01*
X114596166Y-56973067D01*
X114629172Y-56959397D01*
X114629172Y-56959396D01*
X114629179Y-56959394D01*
X114760289Y-56871789D01*
X114871789Y-56760289D01*
X114959394Y-56629179D01*
X115019737Y-56483497D01*
X115050500Y-56328842D01*
X115050500Y-56171158D01*
X115050500Y-56171155D01*
X115050499Y-56171153D01*
X115019738Y-56016510D01*
X115019737Y-56016503D01*
X114973140Y-55904006D01*
X114959397Y-55870827D01*
X114959390Y-55870814D01*
X114871789Y-55739711D01*
X114871786Y-55739707D01*
X114760292Y-55628213D01*
X114760288Y-55628210D01*
X114629185Y-55540609D01*
X114629172Y-55540602D01*
X114477870Y-55477932D01*
X114478425Y-55476591D01*
X114426045Y-55442256D01*
X114397596Y-55378440D01*
X114398871Y-55337712D01*
X114425500Y-55203844D01*
X114425500Y-55046155D01*
X114425499Y-55046153D01*
X114416219Y-54999498D01*
X114394737Y-54891503D01*
X114343664Y-54768200D01*
X114334397Y-54745827D01*
X114334390Y-54745814D01*
X114246789Y-54614711D01*
X114246786Y-54614707D01*
X114135292Y-54503213D01*
X114135288Y-54503210D01*
X114004185Y-54415609D01*
X114004172Y-54415602D01*
X113858501Y-54355264D01*
X113858489Y-54355261D01*
X113703845Y-54324500D01*
X113703842Y-54324500D01*
X113546158Y-54324500D01*
X113546155Y-54324500D01*
X113391510Y-54355261D01*
X113391498Y-54355264D01*
X113245827Y-54415602D01*
X113245814Y-54415609D01*
X113116520Y-54502002D01*
X113049843Y-54522880D01*
X113047629Y-54522900D01*
X112220628Y-54522900D01*
X112118538Y-54550255D01*
X112067493Y-54563933D01*
X111960854Y-54625501D01*
X111960853Y-54625500D01*
X111930201Y-54643197D01*
X111930196Y-54643201D01*
X111557817Y-55015581D01*
X111496494Y-55049066D01*
X111470136Y-55051900D01*
X111454760Y-55051900D01*
X111387721Y-55032215D01*
X111367079Y-55015581D01*
X111119699Y-54768201D01*
X111119694Y-54768197D01*
X111065198Y-54736734D01*
X111016982Y-54686167D01*
X111003759Y-54617560D01*
X111029727Y-54552695D01*
X111039517Y-54541665D01*
X111043688Y-54537493D01*
X111043692Y-54537491D01*
X111162491Y-54418692D01*
X111255830Y-54279000D01*
X111320124Y-54123782D01*
X111352900Y-53959003D01*
X111352900Y-53790997D01*
X111341257Y-53732463D01*
X111347484Y-53662872D01*
X111390347Y-53607695D01*
X111456236Y-53584450D01*
X111494963Y-53588496D01*
X111545732Y-53602100D01*
X111547629Y-53602100D01*
X111549169Y-53602552D01*
X111553792Y-53603161D01*
X111553697Y-53603881D01*
X111614668Y-53621785D01*
X111616520Y-53622998D01*
X111745814Y-53709390D01*
X111745827Y-53709397D01*
X111891498Y-53769735D01*
X111891503Y-53769737D01*
X111998384Y-53790997D01*
X112046153Y-53800499D01*
X112046156Y-53800500D01*
X112046158Y-53800500D01*
X112203844Y-53800500D01*
X112203845Y-53800499D01*
X112358497Y-53769737D01*
X112504179Y-53709394D01*
X112635289Y-53621789D01*
X112635291Y-53621787D01*
X112635294Y-53621785D01*
X112746786Y-53510292D01*
X112746789Y-53510289D01*
X112834394Y-53379179D01*
X112894737Y-53233497D01*
X112925500Y-53078842D01*
X112925500Y-52921158D01*
X112925500Y-52921155D01*
X112925499Y-52921153D01*
X112924395Y-52915602D01*
X112894737Y-52766503D01*
X112894735Y-52766498D01*
X112834397Y-52620827D01*
X112834390Y-52620814D01*
X112746789Y-52489711D01*
X112746786Y-52489707D01*
X112685155Y-52428076D01*
X112651670Y-52366753D01*
X112656654Y-52297061D01*
X112698526Y-52241128D01*
X112763990Y-52216711D01*
X112820287Y-52225833D01*
X112907630Y-52262012D01*
X113051381Y-52290606D01*
X113062280Y-52292774D01*
X113062283Y-52292775D01*
X113062285Y-52292775D01*
X113219971Y-52292775D01*
X113219972Y-52292774D01*
X113374624Y-52262012D01*
X113520306Y-52201669D01*
X113651416Y-52114064D01*
X113762916Y-52002564D01*
X113850521Y-51871454D01*
X113910864Y-51725772D01*
X113941627Y-51571117D01*
X113941627Y-51413433D01*
X113941627Y-51413430D01*
X113941626Y-51413428D01*
X113915130Y-51280225D01*
X113910864Y-51258778D01*
X113899053Y-51230263D01*
X113850524Y-51113102D01*
X113850517Y-51113089D01*
X113762916Y-50981986D01*
X113762913Y-50981982D01*
X113651419Y-50870488D01*
X113651415Y-50870485D01*
X113520312Y-50782884D01*
X113520299Y-50782877D01*
X113374628Y-50722539D01*
X113374618Y-50722536D01*
X113222101Y-50692198D01*
X113160190Y-50659813D01*
X113158612Y-50658262D01*
X111518551Y-49018201D01*
X111518550Y-49018200D01*
X111489136Y-49001218D01*
X111381256Y-48938934D01*
X111381255Y-48938933D01*
X111330209Y-48925255D01*
X111228120Y-48897900D01*
X103475522Y-48897900D01*
X103398955Y-48918416D01*
X103322386Y-48938933D01*
X103322385Y-48938934D01*
X103262073Y-48973755D01*
X103214506Y-49001218D01*
X103194896Y-49012539D01*
X103185093Y-49018199D01*
X103185090Y-49018201D01*
X99246087Y-52957204D01*
X99184764Y-52990689D01*
X99115072Y-52985705D01*
X99089515Y-52972625D01*
X99004185Y-52915609D01*
X99004172Y-52915602D01*
X98858501Y-52855264D01*
X98858489Y-52855261D01*
X98703845Y-52824500D01*
X98703842Y-52824500D01*
X98546158Y-52824500D01*
X98546155Y-52824500D01*
X98391510Y-52855261D01*
X98391498Y-52855264D01*
X98245827Y-52915602D01*
X98245814Y-52915609D01*
X98114711Y-53003210D01*
X98114707Y-53003213D01*
X98003211Y-53114709D01*
X97978776Y-53151279D01*
X97925163Y-53196083D01*
X97855838Y-53204789D01*
X97851484Y-53204003D01*
X97828846Y-53199500D01*
X97828842Y-53199500D01*
X97671158Y-53199500D01*
X97671153Y-53199500D01*
X97538179Y-53225950D01*
X97468587Y-53219723D01*
X97413410Y-53176859D01*
X97410898Y-53173242D01*
X97371789Y-53114711D01*
X97371787Y-53114708D01*
X97260292Y-53003213D01*
X97260288Y-53003210D01*
X97129185Y-52915609D01*
X97129172Y-52915602D01*
X96983501Y-52855264D01*
X96983489Y-52855261D01*
X96828845Y-52824500D01*
X96828842Y-52824500D01*
X96671158Y-52824500D01*
X96671155Y-52824500D01*
X96516510Y-52855261D01*
X96516498Y-52855264D01*
X96370827Y-52915602D01*
X96370814Y-52915609D01*
X96239711Y-53003210D01*
X96182621Y-53060300D01*
X96121297Y-53093784D01*
X96051605Y-53088799D01*
X96026049Y-53075720D01*
X95904006Y-52994173D01*
X95903996Y-52994168D01*
X95748782Y-52929876D01*
X95748774Y-52929874D01*
X95584007Y-52897100D01*
X95584003Y-52897100D01*
X95415997Y-52897100D01*
X95415992Y-52897100D01*
X95251225Y-52929874D01*
X95251217Y-52929876D01*
X95096003Y-52994168D01*
X95095993Y-52994173D01*
X94956308Y-53087508D01*
X94956304Y-53087511D01*
X94837511Y-53206304D01*
X94837508Y-53206308D01*
X94744173Y-53345993D01*
X94744168Y-53346003D01*
X94679876Y-53501217D01*
X94679874Y-53501225D01*
X94647100Y-53665992D01*
X72695000Y-53665992D01*
X72695000Y-50165992D01*
X81147100Y-50165992D01*
X81147100Y-50334007D01*
X81179874Y-50498774D01*
X81179876Y-50498782D01*
X81244168Y-50653996D01*
X81244173Y-50654006D01*
X81337508Y-50793691D01*
X81337511Y-50793695D01*
X81456304Y-50912488D01*
X81456308Y-50912491D01*
X81595993Y-51005826D01*
X81595997Y-51005828D01*
X81596000Y-51005830D01*
X81751218Y-51070124D01*
X81908406Y-51101390D01*
X81915992Y-51102899D01*
X81915996Y-51102900D01*
X81915997Y-51102900D01*
X82084004Y-51102900D01*
X82084005Y-51102899D01*
X82248782Y-51070124D01*
X82404000Y-51005830D01*
X82543692Y-50912491D01*
X82547683Y-50908500D01*
X82567765Y-50888419D01*
X82629088Y-50854934D01*
X82655446Y-50852100D01*
X88344554Y-50852100D01*
X88411593Y-50871785D01*
X88432235Y-50888419D01*
X88456304Y-50912488D01*
X88456308Y-50912491D01*
X88595993Y-51005826D01*
X88595997Y-51005828D01*
X88596000Y-51005830D01*
X88751218Y-51070124D01*
X88908406Y-51101390D01*
X88915992Y-51102899D01*
X88915996Y-51102900D01*
X88915997Y-51102900D01*
X89084004Y-51102900D01*
X89084005Y-51102899D01*
X89248782Y-51070124D01*
X89404000Y-51005830D01*
X89543692Y-50912491D01*
X89662491Y-50793692D01*
X89755830Y-50654000D01*
X89820124Y-50498782D01*
X89852900Y-50334003D01*
X89852900Y-50165997D01*
X89820124Y-50001218D01*
X89755830Y-49846000D01*
X89755828Y-49845997D01*
X89755826Y-49845993D01*
X89662491Y-49706308D01*
X89662488Y-49706304D01*
X89543695Y-49587511D01*
X89543691Y-49587508D01*
X89404006Y-49494173D01*
X89403996Y-49494168D01*
X89248782Y-49429876D01*
X89248774Y-49429874D01*
X89084007Y-49397100D01*
X89084003Y-49397100D01*
X88915997Y-49397100D01*
X88915992Y-49397100D01*
X88751225Y-49429874D01*
X88751217Y-49429876D01*
X88596003Y-49494168D01*
X88595993Y-49494173D01*
X88456308Y-49587508D01*
X88456304Y-49587511D01*
X88432235Y-49611581D01*
X88370912Y-49645066D01*
X88344554Y-49647900D01*
X82655446Y-49647900D01*
X82588407Y-49628215D01*
X82567765Y-49611581D01*
X82543695Y-49587511D01*
X82543691Y-49587508D01*
X82404006Y-49494173D01*
X82403996Y-49494168D01*
X82248782Y-49429876D01*
X82248774Y-49429874D01*
X82084007Y-49397100D01*
X82084003Y-49397100D01*
X81915997Y-49397100D01*
X81915992Y-49397100D01*
X81751225Y-49429874D01*
X81751217Y-49429876D01*
X81596003Y-49494168D01*
X81595993Y-49494173D01*
X81456308Y-49587508D01*
X81456304Y-49587511D01*
X81337511Y-49706304D01*
X81337508Y-49706308D01*
X81244173Y-49845993D01*
X81244168Y-49846003D01*
X81179876Y-50001217D01*
X81179874Y-50001225D01*
X81147100Y-50165992D01*
X72695000Y-50165992D01*
X72695000Y-49205000D01*
X67223500Y-49205000D01*
X67156461Y-49185315D01*
X67110706Y-49132511D01*
X67099500Y-49081000D01*
X67099500Y-48272085D01*
X75759466Y-48272085D01*
X75759466Y-48272086D01*
X75775267Y-48283566D01*
X75775275Y-48283571D01*
X75936552Y-48365747D01*
X75936555Y-48365748D01*
X76108706Y-48421682D01*
X76287494Y-48450000D01*
X76468506Y-48450000D01*
X76647293Y-48421682D01*
X76819444Y-48365748D01*
X76819452Y-48365745D01*
X76980730Y-48283568D01*
X76996532Y-48272085D01*
X76996533Y-48272085D01*
X76378001Y-47653553D01*
X76378000Y-47653553D01*
X75759466Y-48272085D01*
X67099500Y-48272085D01*
X67099500Y-47209493D01*
X75228000Y-47209493D01*
X75228000Y-47390506D01*
X75256317Y-47569293D01*
X75312251Y-47741444D01*
X75312252Y-47741447D01*
X75394431Y-47902730D01*
X75405913Y-47918532D01*
X75405913Y-47918533D01*
X76024446Y-47300000D01*
X76024446Y-47299999D01*
X75984951Y-47260504D01*
X76078000Y-47260504D01*
X76078000Y-47339496D01*
X76098444Y-47415796D01*
X76137940Y-47484205D01*
X76193795Y-47540060D01*
X76262204Y-47579556D01*
X76338504Y-47600000D01*
X76417496Y-47600000D01*
X76493796Y-47579556D01*
X76562205Y-47540060D01*
X76618060Y-47484205D01*
X76657556Y-47415796D01*
X76678000Y-47339496D01*
X76678000Y-47299999D01*
X76731553Y-47299999D01*
X76731553Y-47300000D01*
X77350085Y-47918532D01*
X77361568Y-47902730D01*
X77443745Y-47741452D01*
X77443748Y-47741444D01*
X77499682Y-47569293D01*
X77528000Y-47390506D01*
X77528000Y-47209493D01*
X77499682Y-47030706D01*
X77443748Y-46858555D01*
X77443747Y-46858552D01*
X77361571Y-46697275D01*
X77361566Y-46697267D01*
X77350085Y-46681466D01*
X76731553Y-47299999D01*
X76678000Y-47299999D01*
X76678000Y-47260504D01*
X76657556Y-47184204D01*
X76618060Y-47115795D01*
X76562205Y-47059940D01*
X76493796Y-47020444D01*
X76417496Y-47000000D01*
X76338504Y-47000000D01*
X76262204Y-47020444D01*
X76193795Y-47059940D01*
X76137940Y-47115795D01*
X76098444Y-47184204D01*
X76078000Y-47260504D01*
X75984951Y-47260504D01*
X75405912Y-46681466D01*
X75394432Y-46697269D01*
X75312254Y-46858547D01*
X75312251Y-46858555D01*
X75256317Y-47030706D01*
X75228000Y-47209493D01*
X67099500Y-47209493D01*
X67099500Y-46327912D01*
X75759466Y-46327912D01*
X75759466Y-46327913D01*
X76378000Y-46946446D01*
X76378001Y-46946446D01*
X76996533Y-46327913D01*
X76980730Y-46316431D01*
X76819447Y-46234252D01*
X76819444Y-46234251D01*
X76647293Y-46178317D01*
X76468506Y-46150000D01*
X76287494Y-46150000D01*
X76108706Y-46178317D01*
X75936555Y-46234251D01*
X75936547Y-46234254D01*
X75775269Y-46316432D01*
X75759466Y-46327912D01*
X67099500Y-46327912D01*
X67099500Y-45519000D01*
X67119185Y-45451961D01*
X67171989Y-45406206D01*
X67223500Y-45395000D01*
X72695000Y-45395000D01*
X72695000Y-44415992D01*
X93647100Y-44415992D01*
X93647100Y-44584007D01*
X93679874Y-44748774D01*
X93679876Y-44748782D01*
X93744168Y-44903996D01*
X93744173Y-44904006D01*
X93837508Y-45043691D01*
X93837511Y-45043695D01*
X93956304Y-45162488D01*
X93956308Y-45162491D01*
X94095993Y-45255826D01*
X94095997Y-45255828D01*
X94096000Y-45255830D01*
X94251218Y-45320124D01*
X94369720Y-45343695D01*
X94415992Y-45352899D01*
X94415996Y-45352900D01*
X94415997Y-45352900D01*
X94584004Y-45352900D01*
X94584005Y-45352899D01*
X94748782Y-45320124D01*
X94904000Y-45255830D01*
X95043692Y-45162491D01*
X95162491Y-45043692D01*
X95255830Y-44904000D01*
X95320124Y-44748782D01*
X95326646Y-44715992D01*
X96947100Y-44715992D01*
X96947100Y-44884007D01*
X96979874Y-45048774D01*
X96979876Y-45048782D01*
X97044168Y-45203996D01*
X97044173Y-45204006D01*
X97137508Y-45343691D01*
X97137511Y-45343695D01*
X97256304Y-45462488D01*
X97256308Y-45462491D01*
X97395993Y-45555826D01*
X97395997Y-45555828D01*
X97396000Y-45555830D01*
X97551218Y-45620124D01*
X97715992Y-45652899D01*
X97715996Y-45652900D01*
X97715997Y-45652900D01*
X97884004Y-45652900D01*
X97884005Y-45652899D01*
X98048782Y-45620124D01*
X98204000Y-45555830D01*
X98231111Y-45537714D01*
X98297784Y-45516837D01*
X98365165Y-45535320D01*
X98368836Y-45537679D01*
X98396000Y-45555830D01*
X98551218Y-45620124D01*
X98715992Y-45652899D01*
X98715996Y-45652900D01*
X98715997Y-45652900D01*
X98884004Y-45652900D01*
X98884005Y-45652899D01*
X99048782Y-45620124D01*
X99073370Y-45609938D01*
X99120823Y-45600500D01*
X100678726Y-45600500D01*
X100745765Y-45620185D01*
X100791520Y-45672989D01*
X100800343Y-45700309D01*
X100829874Y-45848774D01*
X100829876Y-45848782D01*
X100894168Y-46003996D01*
X100894173Y-46004006D01*
X100987508Y-46143691D01*
X100987511Y-46143695D01*
X101106304Y-46262488D01*
X101106308Y-46262491D01*
X101245993Y-46355826D01*
X101246006Y-46355833D01*
X101274803Y-46367761D01*
X101329207Y-46411601D01*
X101351272Y-46477896D01*
X101333993Y-46545595D01*
X101282856Y-46593206D01*
X101274805Y-46596883D01*
X101220999Y-46619170D01*
X101220993Y-46619173D01*
X101081308Y-46712508D01*
X101081304Y-46712511D01*
X100962511Y-46831304D01*
X100962508Y-46831308D01*
X100869173Y-46970993D01*
X100869168Y-46971003D01*
X100804876Y-47126217D01*
X100804874Y-47126225D01*
X100772100Y-47290992D01*
X100772100Y-47459007D01*
X100804874Y-47623774D01*
X100804876Y-47623782D01*
X100869168Y-47778996D01*
X100869173Y-47779006D01*
X100962508Y-47918691D01*
X100962511Y-47918695D01*
X101081304Y-48037488D01*
X101081308Y-48037491D01*
X101220993Y-48130826D01*
X101220997Y-48130828D01*
X101221000Y-48130830D01*
X101376218Y-48195124D01*
X101540992Y-48227899D01*
X101540996Y-48227900D01*
X101540997Y-48227900D01*
X101709004Y-48227900D01*
X101709005Y-48227899D01*
X101873782Y-48195124D01*
X102029000Y-48130830D01*
X102168692Y-48037491D01*
X102287491Y-47918692D01*
X102380830Y-47779000D01*
X102445124Y-47623782D01*
X102477900Y-47459003D01*
X102477900Y-47290997D01*
X102445124Y-47126218D01*
X102380830Y-46971000D01*
X102380828Y-46970997D01*
X102380826Y-46970993D01*
X102287491Y-46831308D01*
X102287488Y-46831304D01*
X102168695Y-46712511D01*
X102168691Y-46712508D01*
X102029006Y-46619173D01*
X102029001Y-46619171D01*
X102029000Y-46619170D01*
X102000194Y-46607238D01*
X101945791Y-46563396D01*
X101923727Y-46497102D01*
X101941007Y-46429402D01*
X101992145Y-46381793D01*
X102000170Y-46378127D01*
X102054000Y-46355830D01*
X102193692Y-46262491D01*
X102312491Y-46143692D01*
X102405830Y-46004000D01*
X102429858Y-45945992D01*
X106132100Y-45945992D01*
X106132100Y-46114007D01*
X106164874Y-46278774D01*
X106164876Y-46278782D01*
X106229168Y-46433996D01*
X106229173Y-46434006D01*
X106322508Y-46573691D01*
X106322511Y-46573695D01*
X106441304Y-46692488D01*
X106441308Y-46692491D01*
X106580993Y-46785826D01*
X106580997Y-46785828D01*
X106581000Y-46785830D01*
X106736218Y-46850124D01*
X106900992Y-46882899D01*
X106900996Y-46882900D01*
X106900997Y-46882900D01*
X107069004Y-46882900D01*
X107069005Y-46882899D01*
X107233782Y-46850124D01*
X107389000Y-46785830D01*
X107528692Y-46692491D01*
X107647491Y-46573692D01*
X107740830Y-46434000D01*
X107805124Y-46278782D01*
X107837900Y-46114003D01*
X107837900Y-45945997D01*
X107805124Y-45781218D01*
X107740830Y-45626000D01*
X107740828Y-45625997D01*
X107740826Y-45625993D01*
X107647491Y-45486308D01*
X107647488Y-45486304D01*
X107528695Y-45367511D01*
X107528691Y-45367508D01*
X107389006Y-45274173D01*
X107388996Y-45274168D01*
X107233782Y-45209876D01*
X107233774Y-45209874D01*
X107069007Y-45177100D01*
X107069003Y-45177100D01*
X106900997Y-45177100D01*
X106900992Y-45177100D01*
X106736225Y-45209874D01*
X106736217Y-45209876D01*
X106581003Y-45274168D01*
X106580993Y-45274173D01*
X106441308Y-45367508D01*
X106441304Y-45367511D01*
X106322511Y-45486304D01*
X106322508Y-45486308D01*
X106229173Y-45625993D01*
X106229168Y-45626003D01*
X106164876Y-45781217D01*
X106164874Y-45781225D01*
X106132100Y-45945992D01*
X102429858Y-45945992D01*
X102470124Y-45848782D01*
X102501054Y-45693278D01*
X102501836Y-45690190D01*
X102518039Y-45662740D01*
X102532819Y-45634486D01*
X102535680Y-45632856D01*
X102537354Y-45630022D01*
X102565828Y-45615689D01*
X102593535Y-45599912D01*
X102597306Y-45599844D01*
X102599763Y-45598608D01*
X102609453Y-45599627D01*
X102646245Y-45598971D01*
X102650975Y-45599912D01*
X102665996Y-45602900D01*
X102665997Y-45602900D01*
X102834004Y-45602900D01*
X102834005Y-45602899D01*
X102998782Y-45570124D01*
X103154000Y-45505830D01*
X103293692Y-45412491D01*
X103412491Y-45293692D01*
X103505830Y-45154000D01*
X103570124Y-44998782D01*
X103602900Y-44834003D01*
X103602900Y-44665997D01*
X103570124Y-44501218D01*
X103505830Y-44346000D01*
X103505828Y-44345997D01*
X103505826Y-44345993D01*
X103412491Y-44206308D01*
X103412488Y-44206304D01*
X103366511Y-44160328D01*
X103334417Y-44104742D01*
X103311067Y-44017598D01*
X103231800Y-43880302D01*
X103119698Y-43768200D01*
X102619698Y-43268200D01*
X102598272Y-43255830D01*
X102598272Y-43255829D01*
X102598270Y-43255829D01*
X102482404Y-43188934D01*
X102482403Y-43188933D01*
X102431357Y-43175255D01*
X102329268Y-43147900D01*
X98770732Y-43147900D01*
X98668642Y-43175255D01*
X98617597Y-43188933D01*
X98501728Y-43255830D01*
X98480303Y-43268199D01*
X98480300Y-43268201D01*
X97837721Y-43910781D01*
X97776398Y-43944266D01*
X97750040Y-43947100D01*
X97715992Y-43947100D01*
X97551225Y-43979874D01*
X97551217Y-43979876D01*
X97396003Y-44044168D01*
X97395993Y-44044173D01*
X97256308Y-44137508D01*
X97256304Y-44137511D01*
X97137511Y-44256304D01*
X97137508Y-44256308D01*
X97044173Y-44395993D01*
X97044168Y-44396003D01*
X96979876Y-44551217D01*
X96979874Y-44551225D01*
X96947100Y-44715992D01*
X95326646Y-44715992D01*
X95352900Y-44584003D01*
X95352900Y-44415997D01*
X95320124Y-44251218D01*
X95255830Y-44096000D01*
X95255828Y-44095997D01*
X95255826Y-44095993D01*
X95162491Y-43956308D01*
X95162488Y-43956304D01*
X95043695Y-43837511D01*
X95043691Y-43837508D01*
X94904006Y-43744173D01*
X94903996Y-43744168D01*
X94748782Y-43679876D01*
X94748774Y-43679874D01*
X94584007Y-43647100D01*
X94584003Y-43647100D01*
X94415997Y-43647100D01*
X94415992Y-43647100D01*
X94251225Y-43679874D01*
X94251217Y-43679876D01*
X94096003Y-43744168D01*
X94095993Y-43744173D01*
X93956308Y-43837508D01*
X93956304Y-43837511D01*
X93837511Y-43956304D01*
X93837508Y-43956308D01*
X93744173Y-44095993D01*
X93744168Y-44096003D01*
X93679876Y-44251217D01*
X93679874Y-44251225D01*
X93647100Y-44415992D01*
X72695000Y-44415992D01*
X72695000Y-40165992D01*
X75397100Y-40165992D01*
X75397100Y-40334007D01*
X75429874Y-40498774D01*
X75429876Y-40498782D01*
X75494168Y-40653996D01*
X75494173Y-40654006D01*
X75587508Y-40793691D01*
X75587511Y-40793695D01*
X75706135Y-40912319D01*
X75739620Y-40973642D01*
X75734636Y-41043334D01*
X75706135Y-41087681D01*
X75587511Y-41206304D01*
X75587508Y-41206308D01*
X75494173Y-41345993D01*
X75494168Y-41346003D01*
X75429876Y-41501217D01*
X75429874Y-41501225D01*
X75397100Y-41665992D01*
X75397100Y-41834007D01*
X75429874Y-41998774D01*
X75429876Y-41998782D01*
X75494168Y-42153996D01*
X75494173Y-42154006D01*
X75587508Y-42293691D01*
X75587511Y-42293695D01*
X75706304Y-42412488D01*
X75706308Y-42412491D01*
X75845993Y-42505826D01*
X75845997Y-42505828D01*
X75846000Y-42505830D01*
X76001218Y-42570124D01*
X76068973Y-42583600D01*
X76130883Y-42615985D01*
X76165457Y-42676701D01*
X76166398Y-42681026D01*
X76179874Y-42748776D01*
X76179876Y-42748782D01*
X76244168Y-42903996D01*
X76244173Y-42904006D01*
X76337508Y-43043691D01*
X76337511Y-43043695D01*
X76456304Y-43162488D01*
X76456308Y-43162491D01*
X76595993Y-43255826D01*
X76596000Y-43255830D01*
X76751218Y-43320124D01*
X76915992Y-43352899D01*
X76915996Y-43352900D01*
X76915997Y-43352900D01*
X77084004Y-43352900D01*
X77084005Y-43352899D01*
X77248782Y-43320124D01*
X77404000Y-43255830D01*
X77404006Y-43255826D01*
X77405875Y-43254576D01*
X77543692Y-43162491D01*
X77543695Y-43162488D01*
X77567765Y-43138419D01*
X77629088Y-43104934D01*
X77655446Y-43102100D01*
X81344554Y-43102100D01*
X81411593Y-43121785D01*
X81432235Y-43138419D01*
X81456304Y-43162488D01*
X81456308Y-43162491D01*
X81595993Y-43255826D01*
X81596000Y-43255830D01*
X81751218Y-43320124D01*
X81915992Y-43352899D01*
X81915996Y-43352900D01*
X81915997Y-43352900D01*
X82084004Y-43352900D01*
X82084005Y-43352899D01*
X82248782Y-43320124D01*
X82404000Y-43255830D01*
X82404006Y-43255826D01*
X82405875Y-43254576D01*
X82543692Y-43162491D01*
X82662491Y-43043692D01*
X82755830Y-42904000D01*
X82820124Y-42748782D01*
X82852900Y-42584003D01*
X82852900Y-42415997D01*
X82820124Y-42251218D01*
X82755830Y-42096000D01*
X82755828Y-42095997D01*
X82755826Y-42095993D01*
X82662491Y-41956308D01*
X82662488Y-41956304D01*
X82543865Y-41837681D01*
X82510380Y-41776358D01*
X82515364Y-41706666D01*
X82543865Y-41662319D01*
X82662488Y-41543695D01*
X82662491Y-41543692D01*
X82755830Y-41404000D01*
X82820124Y-41248782D01*
X82852900Y-41084003D01*
X82852900Y-40915997D01*
X82820124Y-40751218D01*
X82755830Y-40596000D01*
X82755828Y-40595997D01*
X82755826Y-40595993D01*
X82662491Y-40456308D01*
X82662488Y-40456304D01*
X82543695Y-40337511D01*
X82543691Y-40337508D01*
X82404006Y-40244173D01*
X82403996Y-40244168D01*
X82248782Y-40179876D01*
X82248774Y-40179874D01*
X82084007Y-40147100D01*
X82084003Y-40147100D01*
X81915997Y-40147100D01*
X81915992Y-40147100D01*
X81751225Y-40179874D01*
X81751217Y-40179876D01*
X81596003Y-40244168D01*
X81595993Y-40244173D01*
X81456308Y-40337508D01*
X81456304Y-40337511D01*
X81432235Y-40361581D01*
X81370912Y-40395066D01*
X81344554Y-40397900D01*
X81226900Y-40397900D01*
X81159861Y-40378215D01*
X81114106Y-40325411D01*
X81102900Y-40273900D01*
X81102900Y-40165996D01*
X81102899Y-40165992D01*
X81070125Y-40001225D01*
X81070124Y-40001218D01*
X81005830Y-39846000D01*
X81005828Y-39845997D01*
X81005826Y-39845993D01*
X80912491Y-39706308D01*
X80912488Y-39706304D01*
X80793695Y-39587511D01*
X80793691Y-39587508D01*
X80654006Y-39494173D01*
X80653996Y-39494168D01*
X80498782Y-39429876D01*
X80498774Y-39429874D01*
X80334007Y-39397100D01*
X80334003Y-39397100D01*
X80165997Y-39397100D01*
X80165992Y-39397100D01*
X80001225Y-39429874D01*
X80001217Y-39429876D01*
X79846003Y-39494168D01*
X79845993Y-39494173D01*
X79706308Y-39587508D01*
X79706304Y-39587511D01*
X79682235Y-39611581D01*
X79620912Y-39645066D01*
X79594554Y-39647900D01*
X76905446Y-39647900D01*
X76838407Y-39628215D01*
X76817765Y-39611581D01*
X76793695Y-39587511D01*
X76793691Y-39587508D01*
X76654006Y-39494173D01*
X76653996Y-39494168D01*
X76498782Y-39429876D01*
X76498774Y-39429874D01*
X76334007Y-39397100D01*
X76334003Y-39397100D01*
X76165997Y-39397100D01*
X76165992Y-39397100D01*
X76001225Y-39429874D01*
X76001217Y-39429876D01*
X75846003Y-39494168D01*
X75845993Y-39494173D01*
X75706308Y-39587508D01*
X75706304Y-39587511D01*
X75587511Y-39706304D01*
X75587508Y-39706308D01*
X75494173Y-39845993D01*
X75494168Y-39846003D01*
X75429876Y-40001217D01*
X75429874Y-40001225D01*
X75397100Y-40165992D01*
X72695000Y-40165992D01*
X72695000Y-36505000D01*
X67223500Y-36505000D01*
X67156461Y-36485315D01*
X67110706Y-36432511D01*
X67099500Y-36381000D01*
X67099500Y-32819000D01*
X67119185Y-32751961D01*
X67171989Y-32706206D01*
X67223500Y-32695000D01*
X85395000Y-32695000D01*
X85395000Y-32331920D01*
X94255499Y-32331920D01*
X94284340Y-32476907D01*
X94284343Y-32476917D01*
X94340912Y-32613488D01*
X94340919Y-32613501D01*
X94423048Y-32736415D01*
X94423051Y-32736419D01*
X94527580Y-32840948D01*
X94527584Y-32840951D01*
X94650498Y-32923080D01*
X94650511Y-32923087D01*
X94779762Y-32976624D01*
X94787087Y-32979658D01*
X94787091Y-32979658D01*
X94787092Y-32979659D01*
X94932079Y-33008500D01*
X94932082Y-33008500D01*
X95079920Y-33008500D01*
X95218352Y-32980963D01*
X95224913Y-32979658D01*
X95361495Y-32923084D01*
X95484416Y-32840951D01*
X95588951Y-32736416D01*
X95671084Y-32613495D01*
X95727658Y-32476913D01*
X95756500Y-32331920D01*
X102235499Y-32331920D01*
X102264340Y-32476907D01*
X102264343Y-32476917D01*
X102320912Y-32613488D01*
X102320919Y-32613501D01*
X102403048Y-32736415D01*
X102403051Y-32736419D01*
X102507580Y-32840948D01*
X102507584Y-32840951D01*
X102630498Y-32923080D01*
X102630511Y-32923087D01*
X102759762Y-32976624D01*
X102767087Y-32979658D01*
X102767091Y-32979658D01*
X102767092Y-32979659D01*
X102912079Y-33008500D01*
X102912082Y-33008500D01*
X103059920Y-33008500D01*
X103198352Y-32980963D01*
X103204913Y-32979658D01*
X103341495Y-32923084D01*
X103464416Y-32840951D01*
X103568951Y-32736416D01*
X103651084Y-32613495D01*
X103707658Y-32476913D01*
X103736500Y-32331918D01*
X103736500Y-32184082D01*
X103736500Y-32184079D01*
X103707659Y-32039092D01*
X103707658Y-32039091D01*
X103707658Y-32039087D01*
X103679072Y-31970073D01*
X103651087Y-31902511D01*
X103651080Y-31902498D01*
X103568951Y-31779584D01*
X103568948Y-31779580D01*
X103464419Y-31675051D01*
X103464415Y-31675048D01*
X103341501Y-31592919D01*
X103341488Y-31592912D01*
X103204917Y-31536343D01*
X103204907Y-31536340D01*
X103059920Y-31507500D01*
X103059918Y-31507500D01*
X102912082Y-31507500D01*
X102912080Y-31507500D01*
X102767092Y-31536340D01*
X102767082Y-31536343D01*
X102630511Y-31592912D01*
X102630498Y-31592919D01*
X102507584Y-31675048D01*
X102507580Y-31675051D01*
X102403051Y-31779580D01*
X102403048Y-31779584D01*
X102320919Y-31902498D01*
X102320912Y-31902511D01*
X102264343Y-32039082D01*
X102264340Y-32039092D01*
X102235500Y-32184079D01*
X102235500Y-32184082D01*
X102235500Y-32331918D01*
X102235500Y-32331920D01*
X102235499Y-32331920D01*
X95756500Y-32331920D01*
X95756500Y-32331918D01*
X95756500Y-32184082D01*
X95756500Y-32184079D01*
X95727659Y-32039092D01*
X95727658Y-32039091D01*
X95727658Y-32039087D01*
X95699072Y-31970073D01*
X95671087Y-31902511D01*
X95671080Y-31902498D01*
X95588951Y-31779584D01*
X95588948Y-31779580D01*
X95484419Y-31675051D01*
X95484415Y-31675048D01*
X95361501Y-31592919D01*
X95361488Y-31592912D01*
X95224917Y-31536343D01*
X95224907Y-31536340D01*
X95079920Y-31507500D01*
X95079918Y-31507500D01*
X94932082Y-31507500D01*
X94932080Y-31507500D01*
X94787092Y-31536340D01*
X94787082Y-31536343D01*
X94650511Y-31592912D01*
X94650498Y-31592919D01*
X94527584Y-31675048D01*
X94527580Y-31675051D01*
X94423051Y-31779580D01*
X94423048Y-31779584D01*
X94340919Y-31902498D01*
X94340912Y-31902511D01*
X94284343Y-32039082D01*
X94284340Y-32039092D01*
X94255500Y-32184079D01*
X94255500Y-32184082D01*
X94255500Y-32331918D01*
X94255500Y-32331920D01*
X94255499Y-32331920D01*
X85395000Y-32331920D01*
X85395000Y-26345000D01*
X66345000Y-26345000D01*
X66345000Y-30306612D01*
X66325315Y-30373651D01*
X66308681Y-30394293D01*
X65758943Y-30944030D01*
X65758942Y-30944031D01*
X65676372Y-31067607D01*
X65676366Y-31067618D01*
X65619496Y-31204916D01*
X65619493Y-31204926D01*
X65590499Y-31350685D01*
X65590499Y-31505425D01*
X65590500Y-31505446D01*
X65590500Y-92940552D01*
X65590499Y-92940578D01*
X65590499Y-92945688D01*
X65590499Y-93094312D01*
X65590499Y-93094314D01*
X65590498Y-93094314D01*
X65000500Y-93094314D01*
X65000500Y-26005411D01*
X65000972Y-25994605D01*
X65013760Y-25848430D01*
X65015664Y-25835097D01*
X65021503Y-25805739D01*
X65023329Y-25797910D01*
X65056782Y-25673058D01*
X65061992Y-25657715D01*
X65069020Y-25640747D01*
X65071162Y-25635880D01*
X65129822Y-25510080D01*
X65140628Y-25491366D01*
X65228118Y-25366417D01*
X65242006Y-25349865D01*
X65349865Y-25242006D01*
X65366417Y-25228118D01*
X65491366Y-25140628D01*
X65510080Y-25129822D01*
X65635880Y-25071162D01*
X65640747Y-25069020D01*
X65657725Y-25061987D01*
X65673058Y-25056782D01*
X65797910Y-25023329D01*
X65805739Y-25021503D01*
X65835097Y-25015664D01*
X65848430Y-25013760D01*
X65987871Y-25001561D01*
X65994606Y-25000972D01*
X66005412Y-25000500D01*
X95696676Y-25000500D01*
X95734174Y-25006306D01*
G37*
%TD.AperFunction*%
%TD*%
M02*
